<?xml version="1.0" encoding="UTF-8"?>
<svg id="Layer_1" data-name="Layer 1" xmlns="http://www.w3.org/2000/svg" viewBox="0 0 276.52 51.25">
  <defs>
    <style>
      .cls-1 {
        fill: #ed1c24;
      }

      .cls-2 {
        fill: #231f20;
      }
    </style>
  </defs>
  <path class="cls-2" d="M33.09,27.52h7.99c.93,0,1.4,.47,1.4,1.4v15.67c0,.72-.28,1.29-.84,1.68-2.17,1.52-4.66,2.7-7.47,3.54s-5.68,1.26-8.62,1.26c-4.72,0-9.03-1.15-12.93-3.44-3.9-2.29-6.98-5.39-9.24-9.31-2.26-3.91-3.38-8.2-3.38-12.85s1.13-8.96,3.38-12.85c2.25-3.89,5.33-6.97,9.22-9.24S20.81,0,25.55,0c2.9,0,5.67,.45,8.33,1.35,2.65,.9,5.05,2.17,7.2,3.8,.4,.33,.6,.67,.6,1.02,0,.3-.13,.62-.39,.95l-4.94,6.45c-.33,.4-.68,.6-1.05,.6-.3,0-.61-.1-.91-.32-1.29-.89-2.69-1.6-4.21-2.14-1.52-.54-3.06-.81-4.63-.81-2.48,0-4.8,.65-6.96,1.95-2.16,1.3-3.89,3.06-5.17,5.29-1.29,2.23-1.93,4.69-1.93,7.38s.65,5.21,1.95,7.5,3.02,4.1,5.17,5.43c2.15,1.33,4.46,2,6.94,2,2.22,0,4.26-.37,6.13-1.12v-10.41c0-.93,.47-1.4,1.4-1.4Z"/>
  <path class="cls-2" d="M85.84,50.19H52.61c-.93,0-1.4-.47-1.4-1.4V2.35c0-.93,.47-1.4,1.4-1.4h32.74c.93,0,1.4,.47,1.4,1.4v7.54c0,.94-.47,1.4-1.4,1.4h-22.78v8.87h17.53c.93,0,1.4,.47,1.4,1.4v6.94c0,.94-.47,1.4-1.4,1.4h-17.53v9.95h23.27c.93,0,1.4,.47,1.4,1.4v7.54c0,.93-.47,1.4-1.4,1.4Z"/>
  <path class="cls-2" d="M114.9,50.19h-8.55c-.94,0-1.4-.47-1.4-1.4V11.53h-12.3c-.93,0-1.4-.47-1.4-1.4V2.35c0-.93,.47-1.4,1.4-1.4h36c.93,0,1.4,.47,1.4,1.4v7.78c0,.94-.47,1.4-1.4,1.4h-12.34V48.79c0,.93-.47,1.4-1.4,1.4Z"/>
  <path class="cls-1" d="M136.67,48.79V2.35c0-.93,.47-1.4,1.4-1.4h19.49c3.36,0,6.34,.7,8.94,2.1s4.62,3.35,6.06,5.85c1.45,2.5,2.17,5.38,2.17,8.62s-.67,5.9-2.02,8.17c-1.34,2.27-3.22,4.09-5.62,5.47l8.62,17.39c.14,.28,.21,.53,.21,.74,0,.28-.11,.5-.33,.67-.22,.16-.52,.25-.89,.25h-9.81c-.77,0-1.32-.35-1.65-1.05l-7.01-15.04c-.42,.02-1.04,.04-1.86,.04h-6.34v14.65c0,.93-.47,1.4-1.4,1.4h-8.55c-.93,0-1.4-.47-1.4-1.4Zm23.29-25.34c1.02-.61,1.81-1.43,2.38-2.47,.57-1.04,.86-2.18,.86-3.42,0-1.38-.29-2.56-.88-3.56-.58-.99-1.37-1.74-2.37-2.24-.99-.5-2.11-.75-3.35-.75h-8.59v13.35h8.48c1.29,0,2.44-.3,3.45-.91Z"/>
  <path class="cls-1" d="M191.98,48.6c-3.16-1.76-5.56-4.21-7.22-7.33-1.66-3.12-2.49-6.68-2.49-10.67V2.35c0-.93,.47-1.4,1.4-1.4h8.55c.93,0,1.4,.47,1.4,1.4V29.09c0,2.31,.38,4.34,1.16,6.08,.77,1.74,1.88,3.08,3.33,4.03,1.45,.95,3.17,1.42,5.15,1.42s3.71-.47,5.17-1.42c1.46-.95,2.58-2.28,3.37-4.01,.78-1.73,1.17-3.76,1.17-6.1V2.35c0-.93,.47-1.4,1.4-1.4h8.55c.93,0,1.4,.47,1.4,1.4V30.6c0,4-.83,7.55-2.49,10.67-1.66,3.12-4.08,5.56-7.26,7.33-3.18,1.76-6.95,2.65-11.32,2.65s-8.13-.88-11.29-2.65Z"/>
  <path class="cls-1" d="M243.54,50.19h-8.27c-.94,0-1.4-.47-1.4-1.4V2.35c0-.93,.47-1.4,1.4-1.4h9.32c.75,0,1.31,.3,1.68,.91l19.17,29.09V2.35c0-.93,.47-1.4,1.4-1.4h8.27c.93,0,1.4,.47,1.4,1.4V48.79c0,.93-.47,1.4-1.4,1.4h-8.31c-.72,0-1.29-.3-1.68-.91l-20.19-30.43v29.93c0,.93-.47,1.4-1.4,1.4Z"/>
</svg>