<?xml version="1.0" encoding="utf-8"?>
<!-- Generator: Adobe Illustrator 26.5.0, SVG Export Plug-In . SVG Version: 6.00 Build 0)  -->
<svg version="1.1" id="Layer_1" xmlns="http://www.w3.org/2000/svg" xmlns:xlink="http://www.w3.org/1999/xlink" x="0px" y="0px"
	 viewBox="0 0 500 500" style="enable-background:new 0 0 500 500;" xml:space="preserve">
<style type="text/css">
	.st0{fill:#131313;}
</style>
<g>
	<path class="st0" d="M250.2,400c-0.09,0-0.18,0-0.27,0c-1-1.17-2.02-2.32-2.99-3.52c-3.7-4.58-6.27-9.76-7.98-15.37
		c-0.27-0.88-0.72-1.47-1.5-1.97c-8.55-5.37-16.17-11.88-23.06-19.25c-11.07-11.85-19.84-25.24-26.65-39.94
		c-5.22-11.25-8.83-23.03-11.73-35.05c-3.73-15.48-6.09-31.18-7.57-47.01c-0.78-8.41-1.34-16.84-1.47-25.29
		c-0.02-1.44-0.15-2.89-0.23-4.33c0-1.73,0-3.45,0-5.18c-0.03-1.47,0.92-2.31,1.94-3.19c2.45-2.1,4.88-4.21,7.21-6.44
		c5.86-5.6,11.27-11.6,15.72-18.4c2.8-4.28,5.07-8.8,6.11-13.86c0.15-0.74,0.32-1.48,0.5-2.29c1.82,0,3.53,0,5.02,0
		c0.83-1.56,1.41-3.07,2.34-4.31c2.72-3.61,6.54-5.25,10.97-5.43c3.88-0.16,7.43,0.96,10.69,3.07c0.64,0.41,1.35,0.74,2.06,0.99
		c0.27,0.1,0.76-0.01,0.97-0.21c1.5-1.48,3.25-2.59,5.15-3.49c-0.91-13.14-1.82-26.21-2.72-39.26c2.38-0.79,4.55-1.56,6.77-2.21
		c0.8-0.23,1.18-0.64,1.45-1.39c1.2-3.31,3.52-5.43,6.91-6.37c0.25-0.07,0.49-0.19,0.74-0.29c1,0,2,0,3,0
		c0.46,0.18,0.91,0.36,1.37,0.52c2.62,0.91,4.71,2.56,5.72,5.11c0.69,1.76,1.76,2.55,3.46,2.9c0.88,0.18,1.73,0.54,2.59,0.82
		c0.89,0.3,1.78,0.61,2.72,0.93c-0.91,13.14-1.82,26.17-2.71,38.97c1.7,1.23,3.29,2.27,4.73,3.49c0.64,0.54,1.18,0.64,1.83,0.34
		c0.7-0.32,1.34-0.76,2-1.15c3.8-2.22,7.86-3.36,12.26-2.57c5.24,0.95,9.12,3.67,10.85,8.94c0.07,0.2,0.18,0.39,0.3,0.65
		c1.76,0,3.47,0,5.08,0c0.59,2.17,1.03,4.26,1.73,6.26c2.03,5.81,5.4,10.87,9.18,15.67c5.72,7.28,12.3,13.73,19.44,19.61
		c0.82,0.67,1.12,1.36,1.13,2.42c0.03,10-0.31,19.98-1.2,29.94c-0.52,5.83-0.99,11.68-1.77,17.48c-0.98,7.24-2.14,14.46-3.44,21.65
		c-1.92,10.64-4.52,21.12-7.95,31.38c-7.8,23.34-20.09,43.93-37.77,61.17c-5.58,5.44-11.64,10.28-18.25,14.42
		c-0.91,0.57-1.42,1.26-1.73,2.27c-2.02,6.4-5.11,12.21-9.63,17.22C251.05,398.95,250.64,399.48,250.2,400z M303.4,298.84
		c-0.34,0.3-0.69,0.6-1.09,0.95c-0.22-0.65-0.43-1.27-0.64-1.9c-0.07,0.01-0.14,0.02-0.2,0.04c0.05,1.17,0.11,2.34,0.15,3.41
		c1.05-0.45,2.15-0.92,3.25-1.38c-0.03-0.06-0.05-0.13-0.08-0.19c-0.61,0.08-1.23,0.15-1.91,0.24c0.19-0.46,0.34-0.82,0.5-1.18
		c1.86-2.16,3.39-4.54,4.78-7.01c-1.64,2.11-3.15,4.32-4.64,6.53C303.43,298.47,303.44,298.67,303.4,298.84z M204.41,167.13
		c-2.01,6.24-5.25,11.74-9.1,16.9c-5.69,7.61-12.3,14.34-19.47,20.53c-0.67,0.58-1.01,1.15-0.98,2.07
		c0.14,3.86,0.11,7.72,0.31,11.58c0.32,6.26,0.67,12.52,1.2,18.76c0.66,7.78,1.66,15.53,2.89,23.25c1.49,9.42,3.39,18.76,5.8,27.98
		c2.98,11.41,6.88,22.47,12.31,32.96c7.3,14.11,16.44,26.86,27.97,37.85c3.92,3.74,8.08,7.18,12.53,10.28
		c0.27,0.18,0.57,0.32,1.01,0.55c-0.08-0.7-0.11-1.2-0.18-1.68c-0.9-6.1-0.95-12.22-0.44-18.35c0.06-0.72,0.29-1.25,0.94-1.69
		c3.03-2.08,6.02-4.22,9.04-6.34c0.24-0.17,0.52-0.27,0.9-0.46c0.3,17.35,0.59,34.55,0.88,51.75c0.26-8.58,0.39-17.17,0.53-25.75
		c0.14-8.62,0.3-17.25,0.45-26.01c0.38,0.19,0.63,0.29,0.84,0.44c3.05,2.14,6.08,4.31,9.15,6.42c0.66,0.45,0.83,1.03,0.89,1.72
		c0.46,5.13,0.47,10.25-0.08,15.37c-0.16,1.47-0.34,2.93-0.51,4.43c0.21-0.04,0.31-0.02,0.38-0.07c0.31-0.19,0.61-0.4,0.9-0.61
		c8.18-5.69,15.4-12.44,21.83-20.03c12.07-14.24,20.95-30.28,26.84-47.96c5.9-17.68,9.33-35.91,11.48-54.39
		c0.74-6.36,1.22-12.75,1.73-19.13c0.56-6.97,0.8-13.96,0.8-20.96c0-0.88-0.3-1.41-0.93-1.95c-6.62-5.65-12.7-11.82-18.08-18.67
		c-4.4-5.6-8.15-11.58-10.42-18.39c-0.05-0.16-0.16-0.29-0.23-0.4c-0.76,0-1.44,0-2.18,0c-1.77,3.47-4.29,6.03-8.36,6.64
		c-4.1,0.62-7.32-1.12-10.11-3.79c-0.13,0.04-0.19,0.05-0.22,0.08c-2.94,2.77-5.89,5.54-8.8,8.34c-0.26,0.25-0.4,0.7-0.46,1.08
		c-0.38,2.65-0.69,5.31-1.1,7.96c-0.13,0.85,0.1,1.45,0.62,2.09c3.71,4.6,7.39,9.22,11.06,13.85c0.44,0.56,0.96,0.9,1.62,1.16
		c12.9,4.99,25.8,10,38.7,15.01c0.41,0.16,0.81,0.35,1.26,0.54c-0.18,0.3-0.29,0.49-0.42,0.68c-3.25,4.93-6.5,9.86-9.75,14.79
		c-4.33,6.56-8.66,13.11-12.97,19.68c-0.31,0.47-0.57,1.06-0.6,1.61c-0.24,3.81-0.4,7.62-0.6,11.43
		c-0.34,6.35-0.68,12.69-1.02,19.04c-0.02,0.39,0,0.79,0,0.99c0.66,0,1.28-0.16,1.77,0.03c1.5,0.59,2.41,2.9,1.84,4.52
		c-0.3,0-0.64-0.07-0.92,0.03c-0.2,0.07-0.43,0.38-0.43,0.58c0,0.15,0.33,0.33,0.54,0.44c0.09,0.05,0.26-0.04,0.39-0.06
		c0.94-0.12,1.42,0.1,1.61,0.98c0.18,0.83,0.24,1.71,0.24,2.56c-0.01,0.93-0.36,1.69-1.47,1.78c-0.2,0.02-0.37,0.21-0.64,0.37
		c0.23,0.25,0.39,0.58,0.58,0.6c1.19,0.14,1.8,0.9,2.12,2.01c0.52-0.11,0.95-0.2,1.42-0.29c0-1.21-0.03-2.34,0.01-3.47
		c0.05-1.66,1.74-3.42,3.51-3.6c0.05,0.41,0.09,0.81,0.15,1.34c0.96-0.7,0.63-1.47,0.33-2.15c-0.65-1.51-0.58-2.11,0.51-3.28
		c1.04-1.11,1.81-1.14,3.01-0.13c0.34,0.28,0.65,0.54,0.98,0.02c-0.65-1.36-0.67-1.45-0.17-2.12c0.86-1.16,2.05-1.78,3.48-1.9
		c1-0.08,1.5,0.26,1.57,1.27c0.06,0.93-0.01,1.92-0.29,2.8c-0.49,1.55-1.02,1.66-2.34,0.69c-0.2,0.19-0.4,0.38-0.74,0.71
		c0.24,0.15,0.39,0.24,0.54,0.34c1.17,0.78,1.32,1.36,0.58,2.55c-0.29,0.46-0.62,0.9-0.99,1.3c-1.01,1.12-1.25,1.16-2.69,0.53
		c-0.11-0.05-0.26-0.01-0.59-0.01c0.1,0.4,0.09,0.78,0.28,1.01c0.89,1.12,0.54,2.12-0.24,3.08c-0.9,1.11-1.98,1.99-3.23,2.69
		c-0.42,0.24-0.86,0.54-1.13,0.92c-0.88,1.21-1.69,2.47-2.52,3.68c0.71,1.39,0.71,1.39,1.43,1.24c-0.31-1.63,0.06-2.34,1.66-2.83
		c0.72-0.22,1.52-0.31,2.27-0.29c1.05,0.02,1.47,0.51,1.47,1.54c-0.01,1.45-0.6,2.64-1.72,3.55c-0.22,0.18-0.55,0.23-0.8,0.33
		c-0.82-1.11-0.82-1.11-1.61-0.46c0.17,0.2,0.34,0.4,0.52,0.6c0.68,0.74,0.73,1.1,0.15,1.9c-0.23,0.33-0.53,0.63-0.85,0.87
		c-0.64,0.5-1.32,0.95-2.04,1.45c0,0.54,0,1.12,0,1.73c-0.21,0.06-0.38,0.14-0.55,0.14c-0.99,0.03-1.76,0.42-2.55,1.06
		c-2.28,1.82-4.93,2.33-7.83,1.86c0.25-0.59,0.48-1.11,0.74-1.73c-0.63,0-1.1,0-1.63,0c-0.38,3.02-1.56,5.52-3.93,7.23
		c-0.67-1.15-1.26-2.27-1.95-3.31c-0.82-1.23-1.9-2.32-1.82-3.94c-1.17-0.12-2.21-0.21-3.25-0.32c-3.9-0.43-7.71-1.2-11.34-2.72
		c-2.35-0.99-4.58-2.16-6.32-4.36c1.2,0,2.29,0.07,3.35-0.02c0.94-0.08,1.87-0.29,2.79-0.53c0.55-0.14,0.87-0.56,1-1.17
		c0.35-1.55,0.76-3.08,1.16-4.62c0.49-1.88,0.99-3.75,1.53-5.75c6.77,3.06,13.82,3.6,20.98,3.29c0.43-0.91,0.21-2,1.11-2.67
		c0.33,0.3,0.64,0.57,1.06,0.94c0.18-0.95-0.34-1.37-0.88-1.66c-0.75-0.4-1.56-0.74-2.38-0.96c-12.63-3.35-25.27-6.67-37.9-10.02
		c-0.83-0.22-1.59-0.16-2.39,0.05c-12.59,3.32-25.19,6.63-37.78,9.94c-0.81,0.21-1.62,0.39-2.42,0.58c-0.07-0.21-0.12-0.3-0.13-0.38
		c-0.36-6.85-0.72-13.69-1.08-20.54c-0.37-7.07-0.74-14.15-1.09-21.22c-0.03-0.68-0.31-1.21-0.67-1.74
		c-6.33-9.59-12.66-19.18-18.98-28.77c-1.37-2.07-2.73-4.15-4.14-6.3c0.34-0.16,0.58-0.28,0.82-0.38c2.28-0.89,4.56-1.78,6.85-2.67
		c10.74-4.18,21.48-8.35,32.22-12.52c0.6-0.23,1.13-0.49,1.56-1.02c3.78-4.77,7.59-9.53,11.41-14.27c0.37-0.46,0.51-0.88,0.42-1.48
		c-0.39-2.7-0.75-5.4-1.07-8.1c-0.08-0.64-0.33-1.09-0.78-1.51c-1.46-1.37-2.89-2.77-4.34-4.14c-1.44-1.37-2.89-2.72-4.33-4.08
		c-6.17,6.15-14.61,5.14-18.6-2.78C205.98,167.13,205.26,167.13,204.41,167.13z M212.02,241.62c-0.08,20.45,16.44,37.69,37.36,38.06
		c21.37,0.38,38.69-16.9,38.74-37.92c0.05-20.92-17.06-38.12-37.84-38.13C229.13,203.62,212.02,220.62,212.02,241.62z
		 M250.06,163.33c4.62,3.54,9.12,6.98,13.67,10.46c3.97-3.79,7.86-7.51,11.83-11.31c0.55,0.88,0.93,1.66,1.47,2.32
		c0.86,1.04,1.71,2.15,2.77,2.96c3.81,2.91,8.27,0.81,9.43-3.55c0.55-2.07-0.16-3.78-1.75-5.1c-1.61-1.34-3.53-1.8-5.6-1.67
		c-2.14,0.14-4.07,0.86-5.82,2.08c-2,1.39-4.25,2.14-6.65,2.09c-1.46-0.03-2.88,0.15-4.31,0.27c-4.07,0.34-8.14,0.71-12.22,0.84
		c-6.09,0.19-12.17-0.04-18.22-0.85c-0.81-0.11-1.63-0.41-2.42-0.32c-3.19,0.35-5.98-0.56-8.63-2.26c-1.12-0.72-2.43-1.24-3.73-1.58
		c-2.43-0.64-4.78-0.34-6.89,1.13c-1.67,1.17-2.54,2.79-2.2,4.81c0.77,4.56,5.42,7.34,9.72,3.95c1.05-0.83,1.85-1.97,2.71-3.02
		c0.5-0.61,0.89-1.31,1.39-2.06c4,3.83,7.87,7.53,11.76,11.25C240.97,170.27,245.48,166.83,250.06,163.33z M264.6,313.38
		c0.48,0.23,0.76,0.37,1.04,0.5c3.55,1.62,7.3,2.44,11.14,2.91c5.66,0.7,11.32,0.53,16.98-0.02c1.34-0.13,2.68-0.35,4.09-0.55
		c-0.31-2.27-0.57-4.43-0.92-6.57c-0.13-0.82-0.01-1.48,0.48-2.16c0.85-1.17,1.62-2.39,2.55-3.8c-5.11,0.71-10,1.21-14.94,1.01
		c-4.95-0.2-9.83-0.81-14.6-2.62c-0.73,2.77-1.51,5.42-2.1,8.11c-0.34,1.53-1.2,2.37-2.6,2.81
		C265.45,313.1,265.15,313.2,264.6,313.38z M250.08,169.38c-0.46,0.34-0.87,0.62-1.26,0.92c-3.06,2.35-6.09,4.74-9.2,7.02
		c-1.06,0.78-1.59,1.51-1.21,2.91c0.36,1.33,0.41,2.75,0.63,4.38c3.77-4.7,7.37-9.17,11.02-13.72c3.67,4.58,7.26,9.07,11,13.75
		c0.3-2.2,0.56-4.16,0.83-6.18C257.95,175.43,254.03,172.42,250.08,169.38z M187.97,222.41c-0.06,0.07-0.11,0.15-0.17,0.22
		c1.13,1.7,2.27,3.39,3.37,5.12c0.39,0.61,0.84,0.95,1.59,1.09c5.7,1.1,11.39,2.26,17.09,3.39c0.25,0.05,0.53,0.01,0.86,0.01
		c0.19-0.81,0.38-1.59,0.58-2.44C203.42,227.31,195.7,224.86,187.97,222.41z M289.47,232.35c1.12-0.22,2.13-0.41,3.14-0.62
		c4.98-0.99,9.96-1.97,14.93-2.98c0.37-0.07,0.83-0.25,1.02-0.53c1.27-1.85,2.48-3.74,3.71-5.62c-0.05-0.07-0.09-0.13-0.14-0.2
		c-7.75,2.45-15.49,4.9-23.34,7.39C289.04,230.71,289.24,231.47,289.47,232.35z M288.91,293.51c0.13-2.55,0.22-4.76,0.36-6.97
		c0.04-0.59-0.27-0.91-0.62-1.28c-2.7-2.83-5.38-5.66-8.07-8.49c-1.37-1.44-2.76-2.86-4.21-4.36c-0.65,0.53-1.23,1.01-1.9,1.56
		C279.24,280.44,283.98,286.84,288.91,293.51z M223.79,272.47c-0.25,0.2-0.44,0.32-0.59,0.48c-3.98,4.16-7.96,8.31-11.93,12.49
		c-0.23,0.24-0.46,0.63-0.44,0.94c0.09,2.25,0.24,4.51,0.39,7.09c4.93-6.67,9.68-13.08,14.43-19.52
		C224.94,273.38,224.38,272.94,223.79,272.47z M227.16,275.03c-4.88,6.6-9.66,13.07-14.6,19.74c0.49-0.05,0.71-0.05,0.91-0.1
		c1.75-0.45,3.5-0.94,5.26-1.37c0.72-0.17,1.15-0.56,1.51-1.21c2.75-4.95,5.55-9.88,8.32-14.82c0.17-0.3,0.28-0.63,0.43-0.99
		C228.37,275.86,227.82,275.48,227.16,275.03z M287.49,294.72c-4.92-6.65-9.71-13.13-14.55-19.67c-0.66,0.45-1.25,0.85-1.86,1.26
		c0.13,0.3,0.2,0.51,0.31,0.7c2.86,5.1,5.74,10.2,8.59,15.31c0.29,0.53,0.67,0.79,1.24,0.93c1.8,0.45,3.59,0.95,5.39,1.41
		C286.81,294.71,287.04,294.69,287.49,294.72z M212.67,226.14c-0.21-0.2-0.26-0.29-0.34-0.32c-5.29-2.51-10.57-5.02-15.87-7.51
		c-0.29-0.14-0.72-0.17-1.02-0.06c-2.07,0.77-4.12,1.59-6.18,2.39c-0.01,0.08-0.01,0.16-0.02,0.24c7.53,2.38,15.06,4.77,22.66,7.17
		C212.2,227.31,212.43,226.73,212.67,226.14z M288.2,228.05c7.64-2.42,15.14-4.8,22.65-7.18c-1.95-0.99-3.9-1.72-5.81-2.51
		c-0.65-0.27-1.18-0.21-1.8,0.08c-4.99,2.39-10,4.76-15,7.13c-0.27,0.13-0.53,0.3-0.84,0.48
		C287.66,226.71,287.89,227.29,288.2,228.05z M249.08,177.35c-0.07-0.04-0.14-0.08-0.21-0.12c-1.09,1.37-2.16,2.76-3.3,4.1
		c-0.45,0.54-0.57,1.07-0.5,1.74c0.47,4.42,0.9,8.83,1.36,13.25c0.17,1.61,0.36,3.22,0.54,4.79c0.78,0,1.43,0,2.11,0
		C249.08,193.11,249.08,185.23,249.08,177.35z M251.08,177.03c-0.27,2.73-0.17,23.1,0.09,24.08c0.65,0,1.3,0,1.97,0
		c0.64-6.16,1.27-12.21,1.87-18.26c0.04-0.38-0.02-0.86-0.23-1.14C253.64,180.19,252.44,178.72,251.08,177.03z M263.34,158.34
		c-1.2-0.96-2.51-1.57-4.01-1.57c-6.22-0.02-12.45-0.03-18.67,0.01c-1.46,0.01-2.78,0.55-4.13,1.7
		C245.65,159.43,254.48,159.44,263.34,158.34z M255.31,113.07c-0.49-2.74-1.69-4.73-4.36-5.5c-0.49-0.14-1.08-0.15-1.58-0.03
		c-2.64,0.67-4.19,2.56-4.54,5.53C248.28,114.55,251.72,114.55,255.31,113.07z M256.64,201.75c0.93-4.66,1.83-9.14,2.72-13.62
		c0.05-0.25,0.06-0.59-0.08-0.77c-0.76-1.02-1.56-2.01-2.56-3.26c-0.61,5.99-1.18,11.61-1.75,17.31
		C255.55,201.52,256.02,201.62,256.64,201.75z M243.37,184.14c-0.86,1.07-1.52,1.93-2.23,2.74c-0.4,0.46-0.47,0.89-0.35,1.49
		c0.65,3.16,1.24,6.32,1.87,9.48c0.25,1.28,0.54,2.54,0.82,3.83c0.36-0.04,0.58-0.05,0.8-0.09c0.25-0.05,0.5-0.14,0.84-0.24
		C244.54,195.66,243.97,190.04,243.37,184.14z M222.2,292.37c1.21-0.31,2.07-0.57,2.95-0.75c0.68-0.14,1.07-0.49,1.37-1.14
		c1.76-3.84,3.57-7.65,5.35-11.47c0.14-0.31,0.23-0.64,0.36-1.01c-0.57-0.26-1.04-0.48-1.55-0.71
		C227.87,282.28,225.11,287.18,222.2,292.37z M241.16,131.21c5.84-2.99,11.7-4.89,18.12-5.09c0.06-0.53,0.11-1,0.17-1.62
		c-6.59-0.17-12.56,1.66-18.52,4.08C241.01,129.44,241.08,130.23,241.16,131.21z M267.79,278.05c2.04,4.38,3.98,8.56,5.95,12.74
		c0.12,0.26,0.38,0.55,0.64,0.63c1.07,0.33,2.16,0.58,3.5,0.92c-2.9-5.16-5.67-10.08-8.48-15.07
		C268.86,277.54,268.38,277.76,267.79,278.05z M210.24,234.29c-2.04-0.69-15.98-3.34-16.87-3.2c0.54,0.82,1.08,1.59,1.58,2.4
		c0.31,0.51,0.7,0.75,1.3,0.8c2.26,0.19,4.51,0.45,6.77,0.67c2.17,0.21,4.33,0.4,6.5,0.59c0.17,0.01,0.34-0.06,0.52-0.1
		C210.11,235.06,210.17,234.71,210.24,234.29z M290.08,235.5c0.62,0,1.12,0.04,1.61-0.01c1.85-0.17,3.7-0.35,5.55-0.54
		c2.21-0.22,4.43-0.44,6.63-0.69c0.33-0.04,0.77-0.15,0.95-0.38c0.67-0.9,1.25-1.87,2.03-3.07c-5.86,1.16-11.45,2.22-17.03,3.4
		C289.93,234.74,290,235.09,290.08,235.5z M240.27,118.86c6.56-0.64,13.01-0.73,19.51-0.03c0.07-0.64,0.12-1.13,0.17-1.68
		c-1.09-0.36-2.13-0.66-3.13-1.06c-0.7-0.28-1.27-0.14-1.91,0.18c-0.64,0.33-1.33,0.58-2.03,0.75c-2.74,0.68-5.39,0.41-7.94-0.82
		c-0.4-0.19-0.73-0.45-1.26-0.25c-1.14,0.43-2.31,0.76-3.57,1.17C240.17,117.7,240.22,118.22,240.27,118.86z M301.74,217.13
		c-1.21-0.47-2.16-0.88-3.14-1.18c-0.29-0.09-0.72,0.03-1.01,0.19c-3.82,2.17-7.63,4.36-11.43,6.55c-0.07,0.04-0.12,0.13-0.22,0.25
		c0.21,0.41,0.43,0.85,0.69,1.35C291.63,221.92,296.57,219.58,301.74,217.13z M241.48,136.08c2.94-1.2,5.73-2.39,8.57-3.47
		c2.88-1.1,5.9-1.67,8.96-2.09c0-0.59,0-1.02,0-1.58c-6.36,0.34-12.13,2.29-17.65,5.36C241.4,134.91,241.44,135.48,241.48,136.08z
		 M214.25,222.84c-4.01-2.29-7.93-4.54-11.86-6.77c-0.25-0.14-0.63-0.22-0.89-0.14c-1,0.33-1.97,0.74-3.16,1.2
		c5.18,2.45,10.12,4.79,15.15,7.17C213.76,223.77,213.99,223.35,214.25,222.84z M258.77,133.45c-6.19,0.7-11.66,3.05-16.95,5.78
		c0,0.61,0,1.09,0,1.74c5.34-2.93,11-4.39,16.81-5.33C258.68,134.89,258.72,134.27,258.77,133.45z M277.75,271.12
		c3.89,4.09,7.68,8.12,11.67,12.22c0.08-1.08,0.09-1.9,0.21-2.71c0.11-0.77-0.2-1.25-0.76-1.74c-3.17-2.72-6.3-5.48-9.45-8.23
		c-0.19-0.17-0.42-0.3-0.68-0.48C278.4,270.51,278.1,270.79,277.75,271.12z M221.26,270.17c-3.49,3.04-6.88,5.99-10.25,8.95
		c-0.23,0.2-0.52,0.49-0.52,0.74c0.02,1.09,0.13,2.17,0.22,3.49c4-4.2,7.8-8.19,11.63-12.21
		C221.94,270.78,221.64,270.51,221.26,270.17z M242.35,145.76c5-2.63,10.33-4.27,15.95-5.28c0.04-0.64,0.07-1.2,0.11-1.91
		c-0.94,0.16-1.73,0.27-2.52,0.42c-4.46,0.89-8.76,2.23-12.76,4.44C241.88,144.13,241.87,144.18,242.35,145.76z M240.73,125.64
		c5.37-2.14,10.71-3.63,16.3-4.15c-5.53-0.31-11.03-0.47-16.59,0.19C240.54,123.05,240.63,124.26,240.73,125.64z M258.12,143.38
		c-5.63,1.08-10.85,2.75-15.73,5.58c0.05,0.52,0.09,0.98,0.15,1.57c4.96-2.66,10.08-4.26,15.42-5.24
		C258.01,144.64,258.06,144.11,258.12,143.38z M209.83,237.48c-4.38-0.45-8.57-0.9-13.06-1.25c0.69,1.05,1.19,1.83,1.67,2.56
		c3.78,0.07,7.43,0.14,11.17,0.21C209.68,238.51,209.75,238.08,209.83,237.48z M303.29,236.19c-4.51,0.44-8.69,0.85-12.99,1.26
		c0.08,0.61,0.14,1.07,0.21,1.55c3.81-0.07,7.48-0.15,11.14-0.22C302.16,237.98,302.64,237.22,303.29,236.19z M219.99,268.81
		c-0.39-0.46-0.7-0.83-1.08-1.27c-2.32,1.76-4.59,3.48-6.85,5.21c-1.98,1.52-1.97,1.52-1.65,4.03c0.01,0.04,0.04,0.08,0.13,0.26
		C213.66,274.31,216.76,271.62,219.99,268.81z M281.18,267.54c-0.37,0.46-0.7,0.86-1.05,1.29c3.2,2.79,6.3,5.49,9.43,8.21
		c0.11-0.21,0.18-0.28,0.19-0.36c0.28-2.4,0.29-2.41-1.68-3.91C285.8,271.04,283.53,269.32,281.18,267.54z M228.42,290.72
		c0.84-0.2,1.32-0.33,1.8-0.41c0.7-0.12,1.07-0.5,1.29-1.2c0.46-1.42,1.02-2.81,1.54-4.22c0.68-1.83,1.36-3.65,2.06-5.53
		c-0.39-0.18-0.71-0.32-1.13-0.51C232.16,282.76,230.36,286.6,228.42,290.72z M271.67,290.72c-1.94-4.13-3.76-7.99-5.6-11.91
		c-0.46,0.25-0.76,0.41-1.1,0.58c1.27,3.42,2.51,6.77,3.77,10.11c0.09,0.23,0.28,0.51,0.49,0.58
		C269.95,290.32,270.69,290.47,271.67,290.72z M260.97,189.45c-0.86,4.35-1.66,8.42-2.47,12.55c0.46,0.11,0.79,0.2,1.24,0.31
		c0.96-3.46,1.9-6.84,2.82-10.24c0.07-0.26,0-0.64-0.15-0.86C262.02,190.66,261.56,190.17,260.97,189.45z M295.91,214.94
		c-0.52-0.24-0.9-0.37-1.23-0.57c-0.82-0.48-1.5-0.28-2.22,0.25c-0.98,0.72-2.04,1.35-3.06,2.02c-1.7,1.11-3.39,2.23-5.14,3.39
		c0.27,0.43,0.47,0.75,0.73,1.16C288.62,219.11,292.18,217.07,295.91,214.94z M204.14,214.92c3.76,2.15,7.36,4.2,11,6.29
		c0.28-0.45,0.48-0.78,0.73-1.17c-3.01-1.97-5.91-3.88-8.84-5.77c-0.23-0.15-0.61-0.21-0.86-0.14
		C205.52,214.31,204.92,214.6,204.14,214.92z M237.37,191.57c1.02,3.63,2,7.15,3,10.75c0.45-0.13,0.77-0.22,1.22-0.35
		c-0.81-4.13-1.61-8.17-2.48-12.55C238.42,190.29,237.91,190.91,237.37,191.57z M246.47,151.91c1.63,0,3.3,0.24,4.88-0.06
		c2.11-0.4,4.14-1.22,6.25-1.88c0.06-0.57,0.11-1.09,0.18-1.78C253.74,148.97,250,150.07,246.47,151.91z M217.78,217.22
		c-0.16-0.19-0.21-0.27-0.27-0.33c-1.28-1.07-2.56-2.14-3.86-3.2c-0.66-0.54-1.3-1.39-2.03-1.5c-0.79-0.12-1.69,0.47-2.53,0.76
		c-0.06,0.02-0.09,0.12-0.2,0.29c2.66,1.74,5.32,3.48,8.02,5.24C217.25,217.98,217.5,217.61,217.78,217.22z M263.14,203.34
		c1-2.63,1.95-5.12,2.9-7.59c-0.61-0.77-1.17-1.48-1.88-2.36c-0.93,3.25-1.86,6.29-2.59,9.45
		C262.14,203.01,262.57,203.15,263.14,203.34z M238.58,202.77c-0.89-3.18-1.74-6.19-2.64-9.42c-0.75,0.95-1.33,1.68-1.89,2.4
		c0.99,2.57,1.94,5.04,2.91,7.57C237.53,203.13,237.98,202.98,238.58,202.77z M283.23,218.47c2.73-1.8,5.33-3.51,8.14-5.36
		c-0.88-0.34-1.52-0.54-2.11-0.85c-0.59-0.3-1.01-0.13-1.47,0.27c-1.38,1.18-2.79,2.33-4.18,3.49c-0.44,0.37-0.87,0.75-1.33,1.15
		C282.63,217.64,282.89,218,283.23,218.47z M290.57,242.57c2.85,0.15,5.59,0.3,8.28,0.45c0.51-0.79,0.95-1.46,1.52-2.33
		c-3.41,0.07-6.58-0.04-9.8,0.19C290.57,241.48,290.57,241.93,290.57,242.57z M201.28,243.03c2.79-0.16,5.49-0.31,8.23-0.46
		c0-0.62,0-1.1,0-1.73c-3.23,0-6.41,0-9.71,0C200.31,241.58,200.76,242.26,201.28,243.03z M261.77,280.44
		c0.75,2.85,1.46,5.54,2.17,8.24c0.9,0.23,1.68,0.71,2.71,0.49c-1.16-3.11-2.3-6.14-3.44-9.19
		C262.7,280.14,262.32,280.27,261.77,280.44z M236.16,288.71c0.75-2.87,1.44-5.56,2.16-8.3c-0.55-0.18-0.93-0.29-1.42-0.45
		c-1.14,3.1-2.37,6.11-3.47,9.46C234.51,289.14,235.32,288.93,236.16,288.71z M289.98,271.87c0.08-0.73,0.12-1.22,0.19-1.71
		c0.11-0.74-0.1-1.25-0.82-1.64c-1.82-1-3.58-2.1-5.37-3.15c-0.26-0.15-0.55-0.25-0.85-0.39c-0.27,0.38-0.5,0.7-0.79,1.09
		C284.88,268,287.35,269.88,289.98,271.87z M210.12,271.88c2.68-2.04,5.15-3.92,7.66-5.83c-0.35-0.43-0.62-0.77-0.91-1.13
		c-2.37,1.41-4.66,2.77-6.99,4.16C209.96,269.97,210.03,270.81,210.12,271.88z M258.38,281.34c0.32,1.62,0.73,3.19,0.91,4.79
		c0.14,1.23,0.75,1.73,1.87,1.84c0.17,0.02,0.33,0.05,0.7,0.11c-0.64-2.42-1.24-4.7-1.86-7.04c-0.38,0.03-0.64,0.04-0.9,0.09
		C258.89,281.16,258.68,281.24,258.38,281.34z M240.11,280.98c-0.64,2.43-1.24,4.72-1.89,7.18c0.91-0.24,1.59-0.42,2.26-0.6
		c0.42-2.13,0.82-4.16,1.23-6.27C241.17,281.18,240.74,281.1,240.11,280.98z M209.62,244.41c-2.4,0.14-4.71,0.28-7.2,0.42
		c0.51,0.76,0.88,1.32,1.3,1.94c2.04-0.27,4.04-0.53,6.12-0.81C209.76,245.37,209.7,244.93,209.62,244.41z M243.54,281.6
		c-0.37,1.91-0.69,3.61-1.05,5.48c1.16-0.33,2.09-0.59,3.05-0.86c0-1.5,0-2.85,0-4.26C244.9,281.84,244.3,281.73,243.54,281.6z
		 M297.6,244.82c-2.45-0.14-4.76-0.26-7.15-0.4c-0.06,0.58-0.1,1.01-0.15,1.54c0.52,0.08,0.95,0.16,1.39,0.22
		c1.12,0.15,2.26,0.2,3.35,0.46c1.02,0.24,1.64-0.05,2.06-0.96C297.22,245.43,297.37,245.21,297.6,244.82z M220.12,214.41
		c-1.05-0.99-2.05-1.95-3.07-2.91c-1.3-1.22-1.3-1.22-2.89-0.49c-0.11,0.05-0.18,0.17-0.38,0.35c1.76,1.46,3.47,2.89,5.22,4.34
		C219.43,215.22,219.74,214.85,220.12,214.41z M284.29,210.37c-1.46,1.36-2.87,2.68-4.32,4.03c0.41,0.48,0.76,0.88,1.13,1.3
		c0.96-0.79,1.84-1.5,2.7-2.23c0.84-0.71,1.67-1.43,2.62-2.25C285.61,210.9,285.03,210.66,284.29,210.37z M257.62,287.05
		c-0.38-1.9-0.73-3.63-1.1-5.44c-0.76,0.14-1.36,0.24-1.91,0.34c0,1.53,0,2.91,0,4.31C255.61,286.52,256.51,286.76,257.62,287.05z
		 M214.95,261.94c-1.3,0.68-2.53,1.33-3.76,1.98c-1.55,0.82-1.55,0.82-1.38,2.57c0.01,0.08,0.07,0.16,0.15,0.36
		c1.97-1.17,3.93-2.33,5.93-3.51C215.53,262.8,215.26,262.39,214.95,261.94z M285.13,261.92c-0.34,0.54-0.6,0.97-0.9,1.44
		c2.09,1.23,4,2.36,6.07,3.58c0-0.9,0-1.56,0-2.28C288.63,263.78,286.95,262.89,285.13,261.92z M206.43,250.88
		c1.39-0.33,2.65-0.64,4.02-0.97c-0.14-0.73-0.27-1.38-0.42-2.1c-1.73,0.23-3.36,0.44-5.16,0.68
		C205.43,249.35,205.9,250.06,206.43,250.88z M231.31,199.19c0.83,1.78,1.64,3.52,2.48,5.34c0.51-0.2,0.91-0.36,1.41-0.56
		c-0.83-2.16-1.62-4.25-2.49-6.53C232.16,198.12,231.75,198.63,231.31,199.19z M267.4,197.41c-0.89,2.31-1.68,4.39-2.51,6.56
		c0.5,0.2,0.9,0.35,1.41,0.56c0.85-1.82,1.66-3.56,2.5-5.34C268.36,198.64,267.96,198.12,267.4,197.41z M293.66,250.87
		c0.5-0.79,0.98-1.54,1.53-2.4c-1.82-0.22-3.46-0.42-5.1-0.63c-0.15,0.76-0.26,1.37-0.4,2.09
		C291.05,250.25,292.31,250.55,293.66,250.87z M230.13,206.39c0.68-0.37,1.29-0.7,1.97-1.07c-0.73-1.56-1.39-2.98-2.11-4.52
		c-0.69,0.87-1.24,1.57-1.82,2.31C228.84,204.22,229.46,205.26,230.13,206.39z M271.92,203.1c-0.61-0.74-1.18-1.44-1.84-2.25
		c-0.42,0.9-0.75,1.58-1.06,2.27c-0.33,0.72-0.64,1.45-0.98,2.23c0.71,0.38,1.29,0.68,1.94,1.02
		C270.64,205.25,271.25,204.21,271.92,203.1z M290.5,262.66c0-1.1,0-1.98,0-2.95c-1.19-0.38-2.38-0.77-3.62-1.17
		c-0.3,0.59-0.56,1.11-0.87,1.73C287.48,261.06,288.9,261.82,290.5,262.66z M209.59,262.67c1.65-0.88,3.06-1.64,4.54-2.43
		c-0.34-0.64-0.6-1.14-0.9-1.71c-1.31,0.43-2.5,0.81-3.63,1.19C209.59,260.71,209.59,261.56,209.59,262.67z M278.66,213
		c1.27-1.06,2.42-2.16,3.65-3.43c-0.97-0.36-1.72-0.64-2.51-0.93c-0.89,1.03-1.73,2.01-2.6,3.02
		C277.74,212.14,278.17,212.54,278.66,213z M217.73,209.6c1.37,1.28,2.51,2.35,3.6,3.37c0.55-0.51,1.01-0.92,1.51-1.38
		c-0.87-1-1.7-1.95-2.58-2.96C219.46,208.94,218.72,209.22,217.73,209.6z M294.05,297.24c0.66-0.35,1.17-0.63,1.69-0.9
		c-0.05-0.11-0.1-0.22-0.15-0.33c-0.53,0.17-1.06,0.34-1.65,0.52c-0.08-0.72-0.13-1.44-0.25-2.14c-0.19-1.13-0.36-2.24,0.53-3.31
		c-0.63,0.14-1.27,0.27-1.9,0.41c1.08,0.52,0.96,1.43,1.02,2.3c0.15,2.17,0.33,4.33,0.53,6.5c0.06,0.71,0.2,1.41,0.3,2.11
		c0.09-0.02,0.18-0.03,0.27-0.05C294.31,300.65,294.18,298.94,294.05,297.24z M290.79,255.86c-0.89-0.28-1.68-0.52-2.52-0.79
		c-0.23,0.64-0.41,1.13-0.63,1.75c1.08,0.29,2.01,0.82,3.16,0.88C290.79,257.05,290.79,256.52,290.79,255.86z M211.83,255.07
		c-0.88,0.28-1.68,0.53-2.44,0.77c0,0.66,0,1.22,0,1.97c1.12-0.36,2.08-0.67,3.1-1C212.25,256.17,212.06,255.68,211.83,255.07z
		 M249.05,282.22c-0.56,0-1.02,0-1.57,0c0,1.19,0,2.29,0,3.52c0.53-0.14,1.03-0.26,1.57-0.4
		C249.05,284.3,249.05,283.32,249.05,282.22z M252.63,282.21c-0.6,0-1.07,0-1.57,0c0,1.09,0,2.09,0,3.12
		c0.55,0.13,1.01,0.25,1.57,0.38C252.63,284.53,252.63,283.42,252.63,282.21z M274.48,209.37c0.5,0.38,0.87,0.68,1.34,1.03
		c0.71-0.84,1.37-1.62,2.11-2.5c-0.72-0.29-1.28-0.52-1.85-0.75C275.52,207.92,275.05,208.58,274.48,209.37z M208.61,254.17
		c0.92-0.33,1.77-0.64,2.7-0.97c-0.22-0.56-0.38-0.96-0.56-1.43c-1.1,0.26-2.1,0.5-3.23,0.76
		C207.92,253.13,208.24,253.61,208.61,254.17z M225.59,209.35c-0.57-0.79-1.05-1.47-1.55-2.17c-0.65,0.26-1.17,0.47-1.9,0.76
		c0.8,0.91,1.48,1.7,2.19,2.51C224.81,210.04,225.14,209.75,225.59,209.35z M274.41,206.24c-0.4-0.52-0.77-1-1.24-1.6
		c-0.59,1-1.08,1.84-1.6,2.73c0.5,0.33,0.91,0.6,1.4,0.92C273.46,207.59,273.92,206.94,274.41,206.24z M292.51,252.55
		c-1.14-0.3-2.14-0.71-3.28-0.65c-0.12,0.48-0.22,0.9-0.33,1.37c0.92,0.31,1.72,0.58,2.57,0.86
		C291.84,253.58,292.15,253.1,292.51,252.55z M226.91,204.64c-0.48,0.63-0.86,1.12-1.24,1.62c0.53,0.72,0.99,1.36,1.48,2.02
		c0.52-0.37,0.91-0.65,1.36-0.97C227.98,206.43,227.5,205.63,226.91,204.64z M284.2,322.79c0.11,0.05,0.16,0.08,0.2,0.08
		c0.01,0,0.05-0.06,0.04-0.08c-0.1-0.7,0.26-1.21,0.67-1.71c0.41-0.51,0.77-1.05,1.15-1.58c-0.07-0.06-0.14-0.11-0.22-0.17
		c-0.45,0.4-0.91,0.8-1.43,1.26c-0.07-0.48-0.12-0.85-0.17-1.23c-0.07-0.01-0.13-0.01-0.2-0.02c-0.1,0.37-0.19,0.74-0.31,1.16
		c-0.53-0.4-0.96-0.72-1.54-1.16C282.84,320.8,284.38,321.36,284.2,322.79z"/>
	<path class="st0" d="M212.24,319.58c0.35,1.29,0.71,2.59,1.07,3.91c-7.2-0.61-16.73-6.74-17.68-15.64c0.48-0.02,0.95-0.04,1.6-0.07
		c-0.32-0.31-0.54-0.55-0.78-0.76c-3.16-2.77-5.69-5.99-7-10.04c-0.91-2.81-1.11-5.68-0.43-8.69c0.33,0.14,0.63,0.22,0.88,0.38
		c4.79,3.05,8.42,7.01,9.89,12.66c0.15,0.58,0.17,0.58,0.96,0.73c0.51-3.87,1.97-7.3,4.85-10.23c1.95,3.57,2.9,7.24,2.96,11.12
		c2.24,0.61,5.2,0.52,5.89,0c0.69,0.12,1.2,0.28,1.7,0.28c5.08-0.09,10.03-0.88,14.71-2.96c0.21-0.09,0.42-0.16,0.72-0.28
		c0.12,0.28,0.26,0.55,0.34,0.84c0.8,3.07,1.63,6.14,2.35,9.23c0.22,0.94,0.7,1.48,1.57,1.63c1.16,0.2,2.33,0.31,3.5,0.41
		c0.62,0.05,1.25,0.01,2.09,0.01c-1.08,1.33-2.24,2.22-3.52,2.96c-2.62,1.51-5.45,2.45-8.38,3.12c-2.88,0.66-5.81,1.04-8.76,1.2
		c-0.49,0.03-0.98,0.1-1.48,0.15c-0.59,2.54-1.49,4.84-3.03,7.05c-1.68-2.2-2.7-4.67-3.68-7.16
		C212.46,319.48,212.35,319.53,212.24,319.58z M236.31,313.73c-0.44-0.11-0.62-0.15-0.79-0.2c-1.7-0.49-2.9-1.39-3.08-3.34
		c-0.08-0.85-0.44-1.68-0.75-2.78c-0.79,1.37-1.42,2.46-2.05,3.54c0.78,1.21,1.51,2.35,2.26,3.51c-1.19,0.37-1.93,0.01-2.39-1.02
		c-0.22-0.49-0.52-0.96-0.86-1.38c-0.19-0.23-0.53-0.33-0.97-0.58c-0.05,1.18-0.09,2.11-0.14,3.11c-0.48-0.03-0.82-0.06-1.18-0.08
		c0-2.43,0-4.76,0-7.16c0.45,0.03,0.79,0.05,1.18,0.07c0.05,1,0.1,1.93,0.16,3.1c0.44-0.3,0.74-0.41,0.9-0.62
		c0.3-0.4,0.56-0.83,0.75-1.29c0.4-0.93,1.01-1.46,2.07-1.33c0.05,0.01,0.12-0.12,0.21-0.21c-0.35-1.34-0.7-2.7-1.06-4.05
		c-0.03-0.13-0.11-0.24-0.23-0.47c-9.57,3.46-19.39,2.92-29.24,1.62c-0.01,0.13-0.03,0.19-0.01,0.22c0.49,0.76,0.91,1.59,1.49,2.27
		c1.29,1.49,1.61,3.07,1.11,5c-0.41,1.56-0.46,3.21-0.68,4.9c0.43,0.1,0.76,0.22,1.11,0.24c3.84,0.3,7.68,0.72,11.53,0.85
		c5.05,0.17,10.06-0.33,14.96-1.67C232.47,315.46,234.32,314.85,236.31,313.73z M195.89,296.05c-0.92,0.08-0.94,0.08-0.99,0.53
		c-0.06,0.55-0.07,1.11-0.1,1.67c-0.06,0.01-0.12,0.02-0.18,0.03c-0.94-1.82-1.88-3.64-2.84-5.51c-0.34,0.23-0.52,0.35-0.77,0.51
		c1.2,2.36,2.37,4.68,3.55,6.99c-0.67,0.36-1.42-1.1-1.98,0.34c0.55,0.27,1.05,0.57,1.59,0.77c1.03,0.39,1.73,1.05,2.24,2.04
		c0.54,1.04,1.21,2.02,1.86,3.01c0.36,0.56,0.7,0.46,0.96-0.05c-0.23-0.5-0.56-0.94-0.6-1.4c-0.07-0.84-0.03-1.63-1.18-1.71
		c-0.14-0.01-0.26-0.34-0.38-0.54c-0.28-0.47-0.52-0.96-0.82-1.41c-0.46-0.71-0.66-1.46-0.55-2.32
		C195.8,298.06,195.82,297.11,195.89,296.05z M216.74,323.53c0.08-0.75,0.06-1.43,0.24-2.04c0.18-0.62,0.55-1.19,0.84-1.78
		c-0.07-0.08-0.13-0.15-0.2-0.23c-0.4,0.17-0.79,0.35-1.18,0.52c-0.13-0.33-0.34-0.73-1.03-0.27c0.2,1.27,0.4,2.57,0.62,3.95
		C216.42,323.6,216.62,323.56,216.74,323.53z M204.92,302.74c0.19-1.85,0.38-3.63,0.56-5.39c-0.59-0.28-0.9-0.16-0.96,0.38
		c-0.17,1.61-0.32,3.22-0.48,4.86C204.38,302.65,204.59,302.68,204.92,302.74z M211.53,321.16c-0.55-0.64-1.07-1.23-1.63-1.87
		c-0.63-0.07-1.34-0.14-2.05-0.22c-0.04,0.07-0.08,0.13-0.12,0.2c1.11,0.84,2.21,1.68,3.38,2.56
		C211.32,321.49,211.44,321.31,211.53,321.16z M201.23,313.6c0.11-0.07,0.23-0.14,0.34-0.21c0.11-1.28-1.14-1.59-1.82-2.38
		c-0.26,0.2-0.43,0.33-0.7,0.53C199.87,312.32,200.55,312.96,201.23,313.6z"/>
	<path class="st0" d="M232.5,296.26c7.68-3.08,27.78-3.15,35.92-0.02c-1.01,4.7-2.03,9.43-3.08,14.27
		c-9.89-1.31-19.74-1.36-29.74,0.02C234.56,305.76,233.53,301,232.5,296.26z M236.99,308.46c9.03-1.01,17.93-0.97,26.89-0.02
		c0.82-3.73,1.6-7.3,2.43-11.06c-10.6-2.21-21.08-2.21-31.7-0.01C235.41,301.12,236.18,304.69,236.99,308.46z"/>
	<path class="st0" d="M191.83,208.52c-0.02,3.52-2.81,6.26-6.35,6.24c-3.51-0.02-6.25-2.82-6.23-6.36c0.02-3.52,2.84-6.29,6.35-6.24
		C189.16,202.2,191.85,204.96,191.83,208.52z"/>
	<path class="st0" d="M308.26,208.49c0-3.55,2.74-6.32,6.26-6.33c3.54-0.01,6.31,2.74,6.31,6.28c0,3.54-2.74,6.31-6.26,6.33
		C311.05,214.78,308.26,212.01,308.26,208.49z"/>
	<path class="st0" d="M213.06,191.13c-3.55-0.02-6.23-2.75-6.21-6.34c0.02-3.52,2.81-6.27,6.35-6.24c3.5,0.03,6.23,2.84,6.24,6.38
		C219.43,188.58,216.25,191.34,213.06,191.13z"/>
	<path class="st0" d="M280.71,184.83c-0.21-3.16,2.64-6.32,6.29-6.28c3.49,0.04,6.31,2.86,6.29,6.34c-0.02,3.52-2.8,6.18-6.35,6.26
		C283.65,191.23,280.49,188.28,280.71,184.83z"/>
	<path class="st0" d="M288.75,329.93c0,0.7-0.1,1.12,0.02,1.45c0.41,1.11-0.08,1.86-0.9,2.46c-1.34,0.99-2.86,1.59-4.51,1.77
		c-1.39,0.15-2.8,0.27-4.22-0.33c1.28-1.6,1.65-3.52,2.22-5.37c0.61-1.99,2.61-3.2,4.83-2.89c-0.07,0.41-0.14,0.82-0.23,1.34
		c1.05-0.4,1.12-1.19,0.99-1.93c-0.12-0.7-0.25-1.35,0.24-1.94c0.6-0.71,1.34-1.22,2.26-1.42c1.03-0.22,1.49,0,1.97,0.95
		c0.21,0.42,0.36,0.86,0.97,0.66c0.04-0.08,0.12-0.17,0.11-0.24c-0.07-1.65,0.18-2.13,1.73-2.53c0.9-0.23,1.88-0.21,2.82-0.14
		c0.78,0.06,1.12,0.55,1.19,1.26c0.17,1.65-1.21,3.66-2.85,4.16c-0.36-0.36-0.69-0.75-1.09-1.05c-0.08-0.06-0.42,0.22-0.7,0.38
		c0.19,0.29,0.32,0.52,0.49,0.73c0.68,0.89,0.73,1.35-0.09,2.1c-0.66,0.6-1.45,1.08-2.22,1.55c-0.73,0.44-1.45,0.47-2.07-0.27
		C289.52,330.43,289.27,330.31,288.75,329.93z M289.38,327.93c-1.19,0.91-2.45,1.88-3.72,2.86c0.06,0.09,0.12,0.17,0.19,0.26
		c1.52-1.09,3.05-2.18,4.59-3.28c0.56,0.31,0.79,1.27,1.9,0.91c-0.55-0.46-0.98-0.82-1.46-1.22c0.35-0.32,0.69-0.63,1.04-0.94
		c-0.04-0.06-0.08-0.11-0.11-0.17c-0.64,0.39-1.29,0.78-1.96,1.19c-0.17-0.96,0.3-1.92-0.69-2.6
		C289.21,325.85,289.29,326.78,289.38,327.93z M284.01,329.84c-0.08-0.01-0.15-0.03-0.23-0.04c-0.32,1.11-0.63,2.21-0.93,3.26
		c1.21-0.06,2.44-0.12,3.66-0.17c-0.46-0.31-0.93-0.41-1.41-0.5c-0.6-0.12-1.1-0.73-1.1-1.37
		C284.01,330.62,284.01,330.23,284.01,329.84z"/>
	<path class="st0" d="M282.59,338.12c0.09-0.12,0.14-0.15,0.14-0.19c0.1-1.93,0.91-1.89,2.39-2.05c0.96-0.11,1.9,0.05,2.76,0.54
		c0.51,0.29,0.81,0.69,0.8,1.31c-0.05,1.64-2.12,3.53-3.85,3.5c-0.5-1.3-0.5-1.3-1.49-0.99c0.14,0.33,0.27,0.65,0.4,0.97
		c0.31,0.77,0.25,1.15-0.43,1.64c-1.01,0.73-2.19,1.11-3.42,1.2c-0.37,0.03-0.8-0.3-1.14-0.55c-0.27-0.2-0.43-0.55-0.64-0.84
		c-0.66,0.19-0.67,0.65-0.62,1.1c0.13,1.22-0.57,1.83-1.57,2.25c-2.43,1.02-6.53,0.86-8.67-0.79c1.61-1.22,2.39-3.03,3.41-4.68
		c1.08-1.74,3.27-2.44,5.39-1.67c-0.19,0.4-0.37,0.8-0.64,1.38c0.4-0.15,0.76-0.17,0.88-0.35c0.28-0.45,0.61-0.96,0.63-1.46
		c0.03-0.85,0.25-1.5,0.98-1.95c0.89-0.54,1.86-0.75,2.87-0.56c0.63,0.12,0.98,0.64,1.06,1.27
		C281.87,337.66,281.9,338.11,282.59,338.12z M279.37,340.35c0.27-1.05,0.74-1.82,0.35-2.82c-0.9,0.92-0.57,2.02-0.68,2.96
		c-1.36,0.61-2.66,1.18-3.95,1.76c0.04,0.1,0.08,0.2,0.12,0.29c1.61-0.63,3.22-1.27,4.84-1.9c0.36,0.67,0.56,1.39,1.67,1.47
		c-0.49-0.68-0.85-1.17-1.23-1.69c0.98-0.45,1.94-0.89,2.89-1.33c-0.03-0.06-0.05-0.13-0.08-0.19
		C282.05,339.35,280.81,339.81,279.37,340.35z M270.8,344.23c1.46-0.66,2.74,0.55,4.35,0.31c-0.77-0.39-1.36-0.68-1.96-0.99
		c0.14-0.2,0.23-0.33,0.32-0.47c-0.23-0.06-0.46-0.12-0.72-0.18c0.19-0.67,0.35-1.27,0.57-2.06
		C272.06,341.83,272.27,343.62,270.8,344.23z"/>
	<path class="st0" d="M299.09,277.19c2.08-0.49,2.54-0.18,2.94,1.87c0.04,0.22,0.08,0.45,0.12,0.67c0.28,1.66,0.18,1.87-1.32,2.65
		c-0.07,0.04-0.12,0.13-0.22,0.25c0.11,0.51,0.5,0.65,0.98,0.65c0.77,0,1.28,0.39,1.61,1.06c1,2.02,0.5,6.96-1.8,8.86
		c-0.96-1.72-2.61-2.72-4.03-3.97c-1.42-1.25-1.73-3.62-0.66-5.33c0.36,0.26,0.71,0.52,1.15,0.84c0.09-1.13-0.68-1.44-1.38-1.65
		c-0.67-0.2-1.42-0.28-1.65-1c-0.25-0.8-0.42-1.67-0.41-2.51c0.01-0.86,0.52-1.26,1.39-1.41c0.31-0.05,0.62-0.07,0.92-0.15
		c0.1-0.03,0.16-0.21,0.25-0.33c-0.08-0.11-0.14-0.28-0.24-0.31c-1.43-0.42-1.59-0.59-1.63-2.02c-0.03-1.02,0.22-1.98,0.78-2.84
		c0.52-0.81,1.27-1.05,2.1-0.59c1.26,0.69,2.05,1.78,2.36,3.18c0.12,0.54,0,0.94-0.73,1.01
		C298.84,276.19,298.85,276.27,299.09,277.19z M298.09,277.44c-0.06,0.01-0.12,0.02-0.19,0.03c0.19,1.1,0.38,2.2,0.59,3.43
		c-0.93-0.3-1.58-0.89-2.7-0.54c0.61,0.31,0.98,0.56,1.39,0.69c0.46,0.15,0.96,0.2,1.48,0.3c0.56,2.09,1.11,4.17,1.71,6.43
		c-0.72-0.29-1.24-0.49-1.76-0.7c0.66,1.19,2.23,1.4,2.31,2.35c-0.47-1.02,1.03-2.13,1.03-3.76c-0.47,0.65-0.83,1.15-1.35,1.87
		c-0.59-2.5-1.13-4.8-1.68-7.13c0.72-0.25,1.42-0.34,1.62-1.39c-0.68,0.36-1.2,0.63-1.75,0.93
		C298.56,279.08,298.33,278.26,298.09,277.44z"/>
	<path class="st0" d="M219.67,321.68c7.97,3.72,13.46,12.31,11.62,20.72c-1.61-0.78-2.99-1.86-4.32-3c-3.47-3-6.11-6.56-7.17-11.13
		C219.32,326.14,219.19,323.99,219.67,321.68z M230.64,339.31c-0.9-0.89-0.94-1.94-0.76-3.06c0.07-0.44,0.05-0.91,0-1.36
		c-0.02-0.17-0.25-0.31-0.38-0.47c-0.17,0.16-0.46,0.3-0.49,0.49c-0.1,0.5-0.09,1.03-0.14,1.78c-0.45-0.69-0.74-1.19-1.09-1.65
		c-0.81-1.05-1.17-2.2-1.03-3.54c0.08-0.78,0.01-1.58,0.01-2.56c-1.47,0.53-0.47,1.76-1.13,2.51c-1.01-1.8-2-3.55-3.02-5.36
		c-0.29,0.2-0.49,0.33-0.76,0.52c1.3,2.34,2.56,4.6,3.78,6.8c-0.64,0.49-1.44-1.01-1.93,0.46c0.52,0.24,0.99,0.5,1.49,0.66
		c1.14,0.36,1.93,1.05,2.51,2.11c0.54,0.99,1.25,1.89,1.89,2.82C229.9,339.91,230.22,339.89,230.64,339.31z"/>
	<path class="st0" d="M277.85,325.35c-0.2,0.18-0.39,0.36-0.81,0.75c0.27,0.13,0.47,0.23,0.66,0.33c1.3,0.68,1.46,1.11,0.88,2.44
		c-0.09,0.21-0.18,0.42-0.3,0.61c-1.45,2.18-1.15,2.15-3.38,1.75c-0.36,0.4-0.18,0.76,0.14,1.05c0.91,0.83,0.77,1.76,0.3,2.72
		c-0.91,1.89-3.76,4.53-6.84,4.79c0.29-2.05-0.21-4.03-0.53-6.02c-0.13-0.83,0.15-1.53,0.61-2.17c0.61-0.83,1.23-1.68,2.42-2.04
		c0.1,0.48,0.19,0.9,0.28,1.31c0.69-0.65,0.72-1.18,0.15-2.06c-0.97-1.48-0.56-3.25,0.97-4.15c0.67-0.4,1.3-0.33,1.87,0.19
		c0.35,0.31,0.68,0.65,1.12,0.17c0-0.1,0.04-0.21-0.01-0.27c-0.81-1.11-0.82-1.47-0.01-2.49c0.73-0.92,1.68-1.51,2.82-1.78
		c0.77-0.18,1.24,0.04,1.6,0.68c0.77,1.37,0.42,3.59-0.84,4.83C278.63,325.8,278.26,325.59,277.85,325.35z M275.26,328.09
		c0.42-0.84,0.81-1.62,1.19-2.4c-0.11-0.05-0.22-0.1-0.33-0.16c-1.6,3.07-3.2,6.13-4.89,9.35c-0.37-0.76-0.66-1.37-0.96-1.99
		c-0.07,0.02-0.14,0.04-0.21,0.07c0.23,1.11,0.45,2.22,0.68,3.31c0.99-0.53,1.94-1.03,2.88-1.53c-0.02-0.06-0.05-0.13-0.07-0.19
		c-0.57,0.1-1.15,0.19-1.91,0.32c1.2-2.25,2.3-4.31,3.34-6.28c0.72,0.09,1.28,0.17,1.85,0.24c0.02-0.12,0.04-0.25,0.06-0.37
		C276.4,328.36,275.9,328.24,275.26,328.09z M278.32,323.72c-0.2-0.32-0.37-0.61-0.56-0.93c-0.22,0.75-0.79,0.16-1.19,0.12
		c0.1,0.74,0.19,1.36,0.26,1.84C277.26,324.46,277.78,324.1,278.32,323.72z"/>
	<path class="st0" d="M317.06,249.92c-1.26-0.21-1.26-0.21-1.62,0.72c0.36,0.06,0.69,0.16,1.03,0.17c0.73,0.02,1.07,0.41,1.15,1.09
		c0.13,1.2-0.12,2.35-0.6,3.44c-0.2,0.45-0.54,0.69-1.06,0.71c-0.38,0.01-0.76,0.13-1.46,0.26c0.47,0.44,0.68,0.75,0.96,0.88
		c1.08,0.48,1.25,1.38,1.11,2.38c-0.33,2.29-1.42,4.19-3.15,5.72c-0.5,0.44-1.07,0.79-1.5,1.1c-0.8-1.65-1.5-3.21-2.29-4.72
		c-1.05-2-0.74-3.99,1.06-5.72c0.25,0.37,0.49,0.71,0.74,1.07c0.44-0.18,0.44-0.53,0.23-0.86c-0.27-0.41-0.55-0.89-0.95-1.12
		c-1.04-0.57-1.15-1.44-0.99-2.45c0.07-0.4,0.19-0.8,0.35-1.17c0.46-1.06,1.04-1.35,2.17-1.02c0.47,0.13,0.87,0.32,1.16-0.23
		c-0.02-0.05-0.02-0.1-0.05-0.13c-1.21-0.98-1.42-1.91-0.57-3.23c0.41-0.63,0.96-1.22,1.55-1.69c0.83-0.65,1.6-0.48,2.24,0.35
		C317.6,246.78,317.8,248.64,317.06,249.92z M314.3,253.08c0.11-0.82,0.19-1.59,0.33-2.34c0.2-1.01,0.13-2.13,1.28-2.82
		c-0.81,0-1.45,0-2.23,0c0.99,0.69,0.8,1.53,0.63,2.46c-0.45,2.45-0.79,4.91-1.16,7.38c-0.15,1.01-0.28,2.03-0.44,3.22
		c-0.62-0.65-1.07-1.13-1.52-1.61c0.3,1.04,0.65,2.03,1.67,2.75c0.68-0.73,1.33-1.42,1.98-2.12c-0.06-0.07-0.12-0.14-0.18-0.21
		c-0.44,0.27-0.88,0.54-1.58,0.97c0.39-2.54,0.75-4.84,1.1-7.08c0.67-0.23,1.42,0.18,1.9-0.73
		C315.45,253.01,314.94,253.04,314.3,253.08z"/>
	<path class="st0" d="M212.03,337.4c8.01-2,18.67,3.35,21.26,10.78c-1.03,0-2.01,0.03-2.98-0.01c-4.18-0.16-8.16-1.09-11.76-3.32
		C215.62,343.04,213.44,340.57,212.03,337.4z M222.05,344.38c-0.02,0.56,0.06,0.88,0.59,0.78c0.53-0.1,1.09-0.13,1.6-0.3
		c0.84-0.28,1.56-0.09,2.34,0.26c1.28,0.58,2.59,1.07,3.9,1.58c0.07,0.03,0.17-0.02,0.32-0.03c0.06-0.21,0.12-0.45,0.21-0.76
		c-2.04-0.4-2.18-2.56-3.58-3.67c-0.95,0.98,0.48,1.48,0.32,2.34c-0.71-0.3-1.38-0.63-2.08-0.88c-0.89-0.33-1.53-0.9-2-1.73
		c-0.46-0.82-1.02-1.59-1.57-2.44c-0.3,0.22-0.49,0.37-0.73,0.55c0.42,0.68,0.8,1.3,1.18,1.93c-0.05,0.05-0.09,0.09-0.14,0.14
		c-1.79-0.91-3.58-1.82-5.44-2.77c-0.15,0.32-0.25,0.54-0.38,0.83c2.41,1.24,4.73,2.44,7.24,3.73
		C223.07,344.13,222.59,344.25,222.05,344.38z"/>
	<path class="st0" d="M302.89,260.08c-0.28-0.12-0.47-0.23-0.67-0.3c-0.63-0.19-0.83-0.67-0.83-1.25c-0.01-1.38,0.49-2.58,1.47-3.54
		c0.47-0.46,1.01-0.74,1.72-0.39c1.38,0.69,2.32,3,1.79,4.66c-0.31,0-0.68-0.06-1.01,0.02c-0.2,0.05-0.47,0.33-0.48,0.52
		c-0.01,0.16,0.31,0.34,0.49,0.5c0.02,0.02,0.09,0,0.13,0c1.64,0.06,1.92,0.33,1.97,1.94c0.01,0.41,0.02,0.82-0.01,1.23
		c-0.08,1.47-0.28,1.71-1.7,2.15c-0.16,0.05-0.3,0.18-0.62,0.39c0.35,0.27,0.59,0.57,0.87,0.63c1.21,0.26,1.67,1.12,1.66,2.18
		c-0.03,3.05-1.12,5.64-3.58,7.75c-0.63-1.93-1.95-3.24-3.08-4.69c-1.27-1.63-1.19-3.8,0.36-5.67c0.26,0.38,0.51,0.74,0.78,1.13
		c0.15-0.97-0.04-1.4-0.89-1.83c-0.57-0.29-1.19-0.46-1.42-1.16c-0.29-0.85-0.3-1.69-0.02-2.54c0.3-0.92,0.75-1.23,1.71-1.21
		C302,260.62,302.54,260.92,302.89,260.08z M302.82,257.68c-0.11,0.08-0.21,0.16-0.32,0.25c1.42,0.35,1.15,1.37,1.19,2.25
		c0.03,0.72,0,1.45,0.01,2.18c0.01,0.7,0.01,1.4,0.05,2.1c0.11,2.1,0.23,4.2,0.35,6.47c-0.69-0.49-1.21-0.86-1.87-1.33
		c0.4,1.49,2.19,1.89,2.1,2.8c-0.16-0.9,1.39-1.7,1.77-3.26c-0.63,0.57-1.09,0.98-1.7,1.54c-0.08-2.59-0.14-4.92-0.21-7.11
		c0.7-0.31,1.23-0.54,1.76-0.77c-0.04-0.11-0.08-0.22-0.12-0.33c-0.53,0.14-1.05,0.28-1.7,0.45c0.02-1.8-0.88-3.64,0.71-5.39
		C304.06,257.58,303.44,257.63,302.82,257.68z"/>
	<path class="st0" d="M311.9,272.2c-0.11-0.2-0.16-0.38-0.27-0.51c-0.63-0.66-0.45-1.3-0.01-1.97c0.69-1.04,1.69-1.63,2.85-1.95
		c0.92-0.25,1.44,0.01,1.81,0.76c0.68,1.37,0.3,3.5-0.9,4.71c-0.24-0.14-0.51-0.26-0.75-0.44c-0.32-0.23-0.6-0.23-0.82,0.09
		c-0.24,0.34-0.05,0.57,0.25,0.78c0.39,0.27,1,0.54,1.06,0.89c0.1,0.58-0.16,1.21-0.3,1.82c-0.04,0.17-0.16,0.32-0.26,0.48
		c-1.06,1.81-1.34,1.94-3.37,1.52c-0.41,0.46-0.13,0.81,0.19,1.15c0.77,0.82,0.72,1.73,0.21,2.63c-1.4,2.45-3.5,3.99-6.23,4.67
		c-0.16,0.04-0.34,0.01-0.41,0.01c-0.24-2.03-0.51-3.99-0.68-5.96c-0.05-0.55,0.1-1.18,0.33-1.69c0.48-1.06,1.55-1.97,2.73-2.47
		c0.09,0.43,0.18,0.84,0.32,1.47c0.22-0.36,0.49-0.61,0.47-0.82c-0.05-0.48-0.16-0.99-0.39-1.41c-0.84-1.5-0.54-3.03,0.86-4.01
		c0.71-0.5,1.28-0.52,2,0C310.95,272.22,311.23,272.62,311.9,272.2z M307.72,281.9c0.21-0.26,0.46-0.5,0.62-0.78
		c1.02-1.81,2.03-3.63,3.04-5.44c0.63,0.06,1.19,0.83,1.95,0c-0.66-0.16-1.17-0.29-1.74-0.44c0.45-0.9,0.9-1.8,1.35-2.7
		c-0.06-0.03-0.12-0.06-0.18-0.09c-0.65,1.08-1.29,2.16-2.03,3.39c-0.43-0.98-0.64-1.83-1.52-2.31c-0.02,1.19,0.78,1.87,1.36,2.66
		c-0.24,0.45-0.46,0.84-0.65,1.25c-0.73,1.5-1.45,3-2.18,4.49c-0.19-0.15-0.45-0.27-0.56-0.47c-0.25-0.46-0.43-0.97-0.7-1.61
		c-0.37,1.57,1.03,2.9,0.39,3.72c0.32-0.89,2.08-0.83,3.3-2.03c-0.73,0.18-1.15,0.31-1.57,0.38
		C308.32,281.95,308.02,281.91,307.72,281.9z"/>
	<path class="st0" d="M195.41,277.54c-1.05-1.57-1.74-3.29-2.33-5.05c-1.4-4.13-1.85-8.32-0.68-12.59c0.62-2.25,1.68-4.29,3.2-6.1
		C200.24,259.74,201.63,270.73,195.41,277.54z M196.27,271.16c-0.58-2.77-0.47-3.44,0.83-5.63c0.3-0.51,0.61-1.01,0.9-1.52
		c0.04-0.07,0.02-0.17,0.04-0.33c-0.2-0.1-0.41-0.22-0.68-0.36c-0.45,0.72-0.85,1.36-1.38,2.21c-0.02-0.53-0.05-0.79-0.04-1.05
		c0.02-1.54,0.02-3.09,0.1-4.63c0.04-0.7-0.16-0.9-0.96-0.68c0,2.62,0,5.22,0,8.11c-0.59-0.65-0.97-1.06-1.34-1.46
		c-0.43,0.24-0.73,0.44-0.4,0.88c0.32,0.44,0.61,0.91,0.98,1.3c0.64,0.67,0.81,1.45,0.83,2.35c0.04,1.44,0.19,2.87,0.29,4.26
		c0.67,0.13,0.99-0.03,0.86-0.6c-0.16-0.7,0.15-1.23,0.49-1.78c0.47-0.76,0.92-1.53,1.41-2.36c-0.35-0.18-0.57-0.29-0.8-0.4
		C197.01,270.07,196.66,270.58,196.27,271.16z"/>
	<path class="st0" d="M221.44,336.29c-1.07-0.15-1.97-0.23-2.85-0.4c-4.72-0.94-9.01-2.74-12.44-6.24c-2.05-2.1-3.59-4.9-4.01-7.25
		C210.07,322.28,219.11,327.14,221.44,336.29z M206.69,325.16c-0.74,0.6-0.33,0.92,0.1,1.22c1.69,1.22,3.39,2.43,5.08,3.66
		c0.22,0.16,0.41,0.37,0.8,0.72c-0.58,0-0.89,0-1.21,0c-0.35,0-0.72,0.07-0.61,0.49c0.05,0.19,0.43,0.39,0.68,0.42
		c0.44,0.06,0.92,0.06,1.36-0.03c0.87-0.17,1.57,0.09,2.29,0.57c1.24,0.83,2.53,1.56,3.88,2.37c0.18-0.32,0.3-0.53,0.46-0.83
		c-1.91-0.75-1.83-2.83-2.92-4.18c-0.25,0.17-0.45,0.32-0.64,0.45c0.25,0.64,0.46,1.21,0.8,2.08c-0.96-0.62-1.62-1.09-2.32-1.48
		c-0.75-0.43-1.22-1.03-1.53-1.82c-0.37-0.92-0.81-1.81-1.25-2.77c-0.31,0.2-0.52,0.34-0.75,0.48c0.29,0.71,0.55,1.36,0.82,2.01
		c-0.05,0.04-0.11,0.09-0.16,0.13C209.95,327.51,208.35,326.36,206.69,325.16z"/>
	<path class="st0" d="M184.27,267.73c7.39,4.23,12.26,12.95,9.84,21.58c-0.25-0.12-0.5-0.19-0.71-0.35
		c-3.37-2.56-6.17-5.61-8.01-9.46c-1.63-3.42-2.14-7-1.44-10.73C184.02,268.42,184.16,268.08,184.27,267.73z M187.13,280.13
		c0.6,0.34,1.05,0.65,1.54,0.86c1.05,0.45,1.77,1.14,2.24,2.21c0.55,1.23,1.3,2.36,1.96,3.55c0.73-0.52,0.8-0.57,0.53-0.94
		c-0.49-0.66-0.44-1.33-0.33-2.07c0.1-0.67,0.15-1.36,0.16-2.04c0.01-0.49-0.3-0.59-0.77-0.44c-0.11,0.62-0.22,1.24-0.38,2.18
		c-0.51-0.97-0.81-1.63-1.19-2.24c-0.5-0.81-0.67-1.64-0.48-2.59c0.15-0.75,0.18-1.53,0.25-2.3c0.03-0.34-0.01-0.7-0.45-0.65
		c-0.18,0.02-0.44,0.3-0.48,0.5c-0.11,0.55-0.13,1.11-0.18,1.67c-0.08,0.02-0.16,0.04-0.23,0.06c-0.84-1.83-1.67-3.67-2.54-5.57
		c-0.3,0.19-0.51,0.32-0.78,0.49c1.06,2.38,2.1,4.72,3.27,7.33c-0.75-0.32-1.18-0.51-1.66-0.72
		C187.47,279.65,187.35,279.82,187.13,280.13z"/>
	<path class="st0" d="M187.34,268.31c-0.43-0.79-0.86-1.52-1.24-2.27c-1.65-3.23-2.66-6.65-2.8-10.29
		c-0.16-4.14,0.95-7.88,3.47-11.22C191.94,250.91,193.15,261.57,187.34,268.31z M189.27,260.16c-0.71,0.39-0.62,1.31-1.36,1.56
		c-0.44-2.19-0.34-4.2,1.02-6c0.24-0.32,0.4-0.71,0.59-1.07c0.03-0.06,0-0.16,0-0.3c-0.17-0.1-0.36-0.21-0.6-0.35
		c-0.44,0.66-0.86,1.29-1.27,1.92c-0.08-0.03-0.17-0.06-0.25-0.09c0-1.98,0-3.97,0-5.9c-0.81-0.31-0.9,0.12-0.9,0.63
		c0.01,1.31,0.04,2.63,0.05,3.94c0.01,1.09,0,2.18,0,3.46c-0.49-0.54-0.84-0.93-1.31-1.45c-0.27,0.22-0.47,0.38-0.64,0.52
		c0.81,1.09,1.67,1.88,2.05,2.85c0.38,0.97,0.27,2.14,0.4,3.21c0.09,0.78,0.23,1.56,0.35,2.36c0.68-0.04,0.95-0.27,0.78-0.79
		c-0.19-0.59,0.03-1.05,0.31-1.53c0.47-0.82,0.91-1.66,1.38-2.54C189.64,260.42,189.47,260.29,189.27,260.16z"/>
	<path class="st0" d="M199.03,297.46c-0.15-0.23-0.33-0.43-0.44-0.66c-1.84-3.75-2.93-7.7-2.86-11.91
		c0.07-3.87,1.24-7.39,3.65-10.45c0.19-0.24,0.41-0.46,0.63-0.69C204.54,280.34,205.31,290.84,199.03,297.46z M200.13,285.13
		c0-1.51-0.01-2.9,0-4.29c0-0.45,0.1-0.91,0.08-1.35c-0.01-0.17-0.23-0.34-0.35-0.5c-0.19,0.15-0.44,0.27-0.55,0.46
		c-0.1,0.18-0.07,0.44-0.08,0.66c-0.03,0.77-0.05,1.54-0.09,2.31c-0.08,1.5-0.16,3-0.26,4.69c-0.48-0.59-0.82-1-1.2-1.45
		c-0.24,0.19-0.43,0.34-0.65,0.52c0.21,0.33,0.35,0.62,0.56,0.85c1.15,1.24,1.55,2.71,1.37,4.37c-0.02,0.22-0.02,0.45,0,0.68
		c0.06,0.84,0.14,1.69,0.21,2.49c0.61,0.14,0.91-0.04,0.83-0.5c-0.15-0.91,0.34-1.55,0.79-2.23c0.4-0.6,0.77-1.22,1.18-1.89
		c-0.25-0.17-0.46-0.31-0.7-0.47c-0.41,0.54-0.78,1.02-1.15,1.51c-0.22-0.82-0.18-1.58-0.23-2.34c-0.06-0.91,0.19-1.68,0.71-2.41
		c0.55-0.77,1.02-1.59,1.57-2.44c-0.27-0.19-0.47-0.33-0.71-0.49C201.01,283.93,200.59,284.5,200.13,285.13z"/>
	<path class="st0" d="M254.36,320.46c1.21,0,2.2,0,3.3,0c1.19,2.87,2.39,5.74,3.71,8.92c1.32-3.11,2.15-6.08,3.33-8.93
		c1.02,0,1.97,0,3.04,0c-0.09,0.38-0.13,0.72-0.24,1.03c-1.42,3.92-2.84,7.83-4.29,11.74c-0.27,0.72-0.63,1.41-1.04,2.06
		c-0.73,1.15-1.79,1.77-3.19,1.71c-0.59-0.02-1.17,0-1.86,0c0-0.98,0-1.9,0-2.83c0.84-0.17,1.7-0.34,2.78-0.55
		C258.11,329.09,256.13,324.9,254.36,320.46z"/>
	<path class="st0" d="M242.97,320.49c3.2,0,6.31,0,9.53,0c0,0.94,0,1.86,0,2.97c-2.11,0-4.21,0-6.44,0c0,4.52,0,8.86,0,13.29
		c-1.09,0-2.05,0-3.09,0C242.97,331.33,242.97,325.99,242.97,320.49z"/>
	<path class="st0" d="M236.33,324.16c-0.75,0.23-1.3,0.39-2.05,0.62c0-1.02-0.04-1.92,0.02-2.81c0.02-0.25,0.28-0.57,0.51-0.71
		c1.37-0.81,2.85-1.08,4.5-0.72c0,5.37,0,10.71,0,16.18c-0.97,0-1.93,0-2.99,0C236.33,332.57,236.33,328.45,236.33,324.16z"/>
	<path class="st0" d="M270.03,211.2c-1.23,2.19-2.4,4.28-3.66,6.53c0.28,0.14,0.57,0.28,0.82,0.41c-0.52,0.97-0.95,1.76-1.43,2.65
		c7.23,5.85,10.68,13.43,10.31,22.86c0.86,0.22,1.72,0.45,2.67,0.7c0,1.03,0.71,1.42,1.62,1.63c1.5,0.34,3.01,0.68,4.51,1.03
		c0.3,0.07,0.6,0.17,1.02,0.29c-0.32,1.48-0.64,2.92-0.99,4.54c-2.38-0.51-4.71-1-7.14-1.52c-0.15,0.22-0.32,0.46-0.53,0.77
		c-0.84-0.16-1.72-0.32-2.58-0.48c-5.97,15.58-23,20.53-35.35,14.8c-12.52-5.81-18.39-19.77-13.78-32.63
		c4.38-12.21,18.47-21,34.1-15.46c0.47-0.78,0.95-1.59,1.47-2.47c1.06,0.43,1.57-0.28,2.03-1.05c0.69-1.17,1.35-2.37,2.02-3.55
		c0.22-0.39,0.45-0.78,0.77-1.33C267.29,209.67,268.61,210.41,270.03,211.2z M264,233.52c2.34-1.18,4.72-2.38,7.18-3.62
		c-0.28-0.42-0.57-0.85-0.93-1.39c-2.74,1.25-5.36,2.46-8,3.66c-0.57-0.49-1.13-0.97-1.91-1.65c3.06-1.35,5.84-2.58,8.7-3.83
		c-0.39-0.45-0.71-0.81-1.13-1.29c-3.08,1.28-6.13,2.54-9.3,3.86c-0.56-0.4-1.2-0.87-1.98-1.43c3.18-1.69,6.38-2.86,9.7-3.87
		c-1.14-1.35-1.17-1.41-2.58-0.88c-2.72,1.02-5.4,2.11-8.11,3.15c-0.39,0.15-0.91,0.31-1.25,0.17c-0.73-0.3-1.38-0.79-2.21-1.28
		c3.38-1.81,6.77-3.02,10.28-4.07c-1.03-1.03-2.07-1.15-3.31-0.66c-3.03,1.2-6.1,2.33-9.07,3.45c-3.16-1.18-6.34-2.4-9.54-3.55
		c-1.34-0.48-1.7-0.33-2.83,0.82c3.48,1.01,6.86,2.2,10.18,4.04c-0.63,0.37-1.09,0.58-1.47,0.89c-0.74,0.59-1.41,0.45-2.24,0.11
		c-2.64-1.1-5.31-2.1-7.99-3.08c-1.34-0.49-1.53-0.37-2.38,0.93c3.3,0.96,6.48,2.16,9.66,3.84c-0.8,0.56-1.46,1.03-2.01,1.41
		c-3.19-1.32-6.24-2.59-9.33-3.87c-0.42,0.53-0.75,0.92-1.17,1.45c3.08,1.08,5.91,2.24,8.68,3.84c-0.71,0.59-1.3,1.08-1.88,1.57
		c-2.64-1.33-5.2-2.69-8.07-3.64c-0.28,0.46-0.53,0.87-0.83,1.36c2.49,1.19,4.98,2.21,7.23,3.72c-0.15,0.22-0.2,0.3-0.26,0.36
		c-3.56,3.42-6.53,7.31-8.99,11.59c-0.2,0.34-0.45,0.76-0.4,1.12c0.13,1.08,0.36,2.16,1.02,3.21c2.84-5.63,6.43-10.56,10.92-14.93
		c0.72,0.49,1.38,0.95,2.03,1.4c-1.59,1.8-3.17,3.48-4.63,5.27c-2.64,3.21-4.78,6.73-6.59,10.47c-0.21,0.43-0.55,0.87-0.22,1.39
		c0.45,0.72,0.91,1.43,1.45,2.3c2.89-6.85,6.87-12.7,12.12-17.83c0.67,0.57,1.31,1.1,1.96,1.66c-5.33,5.49-9.28,11.67-11.98,18.7
		c0.69,0.64,1.31,1.22,2.06,1.91c2.66-7.21,6.54-13.45,11.76-18.82c0.74,0.67,1.34,1.22,1.96,1.77
		c-5.03,5.57-8.65,11.85-11.15,18.89c0.8,0.45,1.53,0.85,2.34,1.31c2.33-6.87,5.79-12.91,10.58-18.26
		c4.81,5.42,8.26,11.47,10.57,18.29c0.87-0.51,1.57-0.92,2.33-1.37c-2.49-7.06-6.17-13.3-11.19-18.89c0.65-0.61,1.25-1.19,1.92-1.82
		c5.31,5.5,9.17,11.73,11.79,18.86c0.45-0.38,0.77-0.63,1.06-0.9c1.06-0.97,1.06-0.97,0.5-2.31c-2.65-6.3-6.25-11.99-11.03-16.89
		c-0.14-0.15-0.24-0.34-0.39-0.55c0.7-0.56,1.33-1.05,1.98-1.57c5.22,5.16,9.2,11,12.05,17.79c0.45-0.69,0.77-1.24,1.16-1.74
		c0.52-0.67,0.42-1.28,0.06-2c-2.39-4.84-5.33-9.29-9-13.25c-0.71-0.76-1.44-1.5-2.25-2.33c0.74-0.51,1.39-0.96,2.1-1.45
		c4.54,4.38,8.14,9.33,11.04,15.09c0.28-0.94,0.44-1.65,0.7-2.32c0.33-0.89,0.2-1.66-0.33-2.43c-1.23-1.8-2.32-3.7-3.65-5.42
		C267.79,237.79,265.92,235.76,264,233.52z M277.93,248.85c2.07,0.44,3.95,0.84,5.93,1.26c0.14-0.66,0.24-1.17,0.36-1.75
		c-1.98-0.5-3.88-0.99-5.84-1.49C278.24,247.47,278.1,248.08,277.93,248.85z M265.1,216.96c1.01-1.79,1.96-3.46,2.97-5.25
		c-0.58-0.31-1.06-0.57-1.56-0.84c-1.08,1.78-2.07,3.42-3.12,5.15C263.86,216.28,264.4,216.58,265.1,216.96z M265.24,218.71
		c-1.22-0.69-2.35-1.33-3.56-2.01c-0.25,0.47-0.45,0.85-0.66,1.25c1.24,0.68,2.37,1.29,3.54,1.93
		C264.79,219.48,264.97,219.18,265.24,218.71z M276.32,249.49c0.32-1.44,0.61-2.69,0.91-4.03c-0.48-0.12-0.88-0.22-1.33-0.32
		c-0.29,1.38-0.56,2.64-0.84,3.98C275.44,249.23,275.81,249.34,276.32,249.49z"/>
	<path class="st0" d="M219.1,237.72c0.17,0.23,0.31,0.51,0.53,0.7c0.63,0.52,1.29,1,1.94,1.5c1.02,0.79,1.02,0.8,0.42,2.25
		c-1.26-0.99-2.5-1.96-3.82-2.99c-1.43,0.41-2.9,0.84-4.47,1.29c0-0.49,0-0.92,0-1.37c1.32-0.71,2.89-0.68,4.3-1.61
		c-1.28-0.79-2.59-0.48-3.78-1.03c0.03-0.34,0.07-0.72,0.12-1.25c1.29,0.17,2.47,0.33,3.74,0.5c-0.07-1.12-0.98-1.23-1.52-1.67
		c-0.55-0.46-1.19-0.82-1.84-1.25c0.09-0.49,0.16-0.92,0.28-1.56c1.12,0.77,2.15,1.4,3.09,2.14c0.66,0.52,1.24,0.57,1.99,0.25
		c1.15-0.49,2.34-0.89,3.55-1.34c0.03,1.61,0.03,1.61-1.26,2.05c-0.69,0.24-1.38,0.45-2.06,0.71c-0.31,0.12-0.59,0.34-1.05,0.61
		c1.25,0.76,2.53,0.54,3.77,0.97c-0.06,0.43-0.12,0.84-0.19,1.31c-1.26-0.17-2.4-0.33-3.55-0.49
		C219.23,237.53,219.16,237.63,219.1,237.72z"/>
	<path class="st0" d="M241.82,206.18c0.48-0.13,0.86-0.23,1.36-0.36c0.83,2.8,1.63,5.53,2.48,8.42c-0.44,0.13-0.83,0.25-1.3,0.38
		c-0.48-1.63-0.93-3.12-1.37-4.61c-0.09,0.01-0.17,0.01-0.26,0.02c-0.07,1.24-0.15,2.48-0.22,3.68c-0.6,0.49-1.01,0.32-1.39-0.23
		c-0.53-0.78-1.11-1.54-1.89-2.22c0.4,1.45,0.79,2.9,1.21,4.44c-0.41,0.15-0.77,0.29-1.27,0.47c-0.82-2.84-1.62-5.6-2.45-8.47
		c0.52-0.17,0.92-0.31,1.42-0.48c1.06,1.49,2.1,2.94,3.31,4.65C241.59,209.8,241.7,208.04,241.82,206.18z"/>
	<path class="st0" d="M277.84,254.83c1.2,1.59,2.39,3.19,3.62,4.82c-0.18,0.37-0.36,0.72-0.6,1.21c-2.61-1.37-5.16-2.7-7.8-4.08
		c0.2-0.42,0.37-0.76,0.59-1.22c1.62,0.83,3.16,1.62,4.7,2.4c0.05-0.07,0.1-0.14,0.15-0.2c-1.15-1.55-2.29-3.09-3.51-4.74
		c0.18-0.34,0.38-0.72,0.62-1.19c2.65,1.38,5.2,2.71,7.83,4.08c-0.23,0.44-0.42,0.79-0.65,1.23c-1.64-0.86-3.22-1.69-4.8-2.52
		C277.94,254.7,277.89,254.77,277.84,254.83z"/>
	<path class="st0" d="M252.53,214.04c-0.34,0.02-0.68,0.04-1.17,0.06c0-1.86,0-3.66,0-5.45c-1.32,1.68-1.9,3.66-2.91,5.5
		c-0.36,0-0.75,0-1.2,0c-0.06-0.59-0.15-1.12-0.15-1.66c-0.02-2.31-0.01-4.62-0.01-7.07c0.33-0.02,0.7-0.05,1.2-0.08
		c0.07,1.86,0.14,3.61,0.21,5.36c0.08,0.02,0.16,0.03,0.23,0.05c0.81-1.78,1.62-3.56,2.46-5.4c0.4-0.02,0.8-0.05,1.33-0.08
		C252.53,208.22,252.53,211.09,252.53,214.04z"/>
	<path class="st0" d="M274.98,262.57c-0.57,0.33-0.58,0.7-0.35,1.18c0.48,0.98,0.92,1.97,1.41,3.05c-0.3,0.36-0.6,0.73-1.06,1.28
		c-0.54-1.24-1.08-2.31-1.48-3.44c-0.28-0.78-0.74-1.15-1.54-1.3c-1.2-0.24-2.37-0.58-3.75-0.93c0.38-0.47,0.69-0.87,0.94-1.18
		c1.55,0.26,2.95,0.5,4.36,0.72c0.06,0.01,0.15-0.2,0.31-0.42c-0.85-0.79-1.71-1.58-2.64-2.44c0.28-0.36,0.55-0.7,0.9-1.14
		c2.21,1.98,4.36,3.9,6.59,5.9c-0.31,0.38-0.57,0.72-0.91,1.14C276.78,264.13,275.87,263.34,274.98,262.57z"/>
	<path class="st0" d="M254.05,214.16c0.02-0.55,0.08-0.97,0.7-1.29c0.41-0.2,0.73-0.78,0.88-1.25c0.43-1.43,0.75-2.89,1.12-4.34
		c0.1-0.39,0.22-0.77,0.36-1.29c1.53,0.37,3.01,0.72,4.67,1.11c-0.74,2.9-1.45,5.68-2.19,8.57c-0.47-0.12-0.84-0.22-1.34-0.35
		c0.59-2.41,1.15-4.72,1.75-7.18c-0.59-0.16-1.13-0.31-1.82-0.49c-0.38,1.45-0.75,2.84-1.12,4.22c-0.11,0.39-0.19,0.8-0.35,1.17
		C256.2,214.21,255.45,214.52,254.05,214.16z"/>
	<path class="st0" d="M282.04,231.54c-0.07-0.34-0.15-0.73-0.23-1.09c1.42-0.52,2.56-0.11,3.13,1.08c0.64,1.33,0.3,2.92-0.96,3.4
		c-1.64,0.62-3.37,1.07-5.1,1.39c-1.14,0.21-2.09-0.62-2.44-1.75c-0.37-1.2-0.06-2.22,0.91-2.89c0.29-0.2,0.63-0.34,1.05-0.56
		c0.17,0.46,0.32,0.86,0.46,1.23c-1.1,0.93-1.29,1.33-0.96,1.92c0.35,0.63,1,0.69,2.44,0.15c-0.18-0.75-0.36-1.52-0.56-2.34
		c0.4-0.14,0.73-0.26,1.2-0.42c0.27,0.84,0.53,1.63,0.81,2.48c0.85-0.25,1.83-0.22,1.97-1.36
		C283.84,232.09,283.42,231.81,282.04,231.54z"/>
	<path class="st0" d="M273.47,215.8c-0.55,0.55-1.03,1.03-1.58,1.57c0.72,0.61,1.42,1.22,2.2,1.89c-0.47,0.53-0.76,0.84-1.06,1.18
		c-0.74-0.68-1.41-1.28-2.17-1.97c-0.53,0.56-1.01,1.07-1.59,1.7c0.87,0.76,1.68,1.47,2.55,2.23c-0.39,0.42-0.66,0.7-1.03,1.09
		c-1.18-1.12-2.31-2.2-3.53-3.37c2.04-2.14,4.03-4.22,6.11-6.41c1.18,1.12,2.32,2.2,3.51,3.33c-0.32,0.37-0.58,0.66-0.89,1.01
		C275.14,217.29,274.32,216.56,273.47,215.8z"/>
	<path class="st0" d="M223.91,266.61c-0.49-0.41-0.92-0.68-0.55-1.31c1.45-2.45,2.87-4.91,4.38-7.49c0.39,0.41,0.69,0.73,1.03,1.08
		c-0.27,0.49-0.51,0.92-0.83,1.48c0.52,0.59,1.08,1.22,1.65,1.85c0.52-0.25,0.97-0.46,1.52-0.73c0.29,0.27,0.6,0.57,1.1,1.04
		C229.35,263.93,226.65,265.26,223.91,266.61z M225.63,264c0.08,0.07,0.16,0.14,0.24,0.21c0.78-0.41,1.55-0.82,2.46-1.3
		c-0.44-0.48-0.79-0.84-1.2-1.29C226.56,262.52,226.09,263.26,225.63,264z"/>
	<path class="st0" d="M220.52,220.4c0.67-0.82,1.25-1.63,1.92-2.36c0.9-0.99,2.08-1.09,3.17-0.32c0.33,0.23,0.63,0.52,0.91,0.81
		c0.84,0.9,0.92,1.78,0.23,2.83c-0.29,0.45-0.66,0.85-1.06,1.37c0.83,0.71,1.63,1.41,2.52,2.18c-0.29,0.37-0.55,0.71-0.86,1.12
		C225.03,224.13,222.8,222.29,220.52,220.4z M224.5,221.8c0.57-0.62,1.37-1.06,1.09-1.85c-0.18-0.5-0.83-1.07-1.36-1.17
		c-0.92-0.18-1.12,0.81-1.67,1.41C223.21,220.73,223.8,221.22,224.5,221.8z"/>
	<path class="st0" d="M215.54,252.82c2.54-1.83,4.95-3.57,7.47-5.39c0.21,0.51,0.37,0.9,0.55,1.32c-0.48,0.39-0.9,0.72-1.37,1.09
		c0.27,0.77,0.53,1.52,0.81,2.32c0.58,0,1.11,0,1.71,0c0.14,0.42,0.27,0.79,0.46,1.33c-3.1,0.13-6.1,0.25-9.16,0.38
		C215.86,253.53,215.72,253.22,215.54,252.82z M220.96,250.6c-0.88,0.64-1.73,1-2.43,1.91c1.08-0.08,1.96-0.15,2.98-0.23
		C221.32,251.68,221.17,251.23,220.96,250.6z"/>
	<path class="st0" d="M280.7,239.68c-1.06,0-2.09,0-3.21,0c-0.05-0.46-0.09-0.84-0.15-1.39c2.96-0.11,5.83-0.21,8.89-0.32
		c0,1.25,0.01,2.37-0.01,3.49c0,0.26-0.08,0.54-0.2,0.78c-0.44,0.87-1.76,1.35-3.12,1.16c-1.07-0.15-1.75-0.72-1.97-1.77
		C280.8,241.01,280.78,240.38,280.7,239.68z M284.75,239.45c-0.89,0.07-1.71,0.14-2.52,0.2c0.01,2.01,0.19,2.27,1.45,2.21
		C284.85,241.81,285.01,241.5,284.75,239.45z"/>
	<path class="st0" d="M218.26,224.05c0.24-0.45,0.44-0.83,0.68-1.29c1.91,1.74,3.77,3.4,5.58,5.11c1.03,0.98,1.03,1.71,0.15,3.21
		c-0.35-0.15-0.71-0.3-1.12-0.48c0.1-0.42,0.2-0.8,0.34-1.38c-2.53-0.38-5-0.74-7.61-1.13c0.25-0.5,0.44-0.89,0.67-1.35
		c1.71,0.29,3.35,0.58,5.34,0.92C220.79,226.32,219.55,225.2,218.26,224.05z"/>
	<path class="st0" d="M234.25,219.14c-0.42,0.32-0.73,0.57-1.14,0.88c-1.48-1.98-2.94-3.93-4.47-5.97c-0.52,0.37-0.98,0.7-1.56,1.11
		c-0.27-0.34-0.53-0.67-0.85-1.08c1.44-1.07,2.81-2.1,4.24-3.17c0.3,0.34,0.56,0.63,0.88,1c-0.49,0.42-0.95,0.82-1.5,1.29
		C231.31,215.17,232.73,217.09,234.25,219.14z"/>
	<path class="st0" d="M221.45,261.77c-0.43,0.25-0.74,0.44-1.16,0.68c-0.89-1.5-1.77-2.97-2.69-4.53c0.36-0.27,0.67-0.5,1.06-0.8
		c0.39,0.57,0.74,1.08,1.14,1.66c2.12-1.26,4.21-2.5,6.36-3.79c0.26,0.4,0.47,0.73,0.77,1.2c-2.13,1.29-4.21,2.55-6.36,3.85
		C220.85,260.63,221.12,261.14,221.45,261.77z"/>
	<path class="st0" d="M272.42,225.79c2.13-1.45,4.1-2.79,6.16-4.18c-0.34-0.55-0.63-1.04-0.97-1.59c0.34-0.28,0.64-0.53,1.04-0.86
		c1.03,1.51,2,2.96,3.02,4.47c-0.38,0.28-0.7,0.52-1.07,0.79c-0.39-0.5-0.75-0.96-1.22-1.57c-2.02,1.35-4.04,2.7-6.11,4.08
		C272.99,226.55,272.75,226.23,272.42,225.79z"/>
	<path class="st0" d="M260.05,269.54c1.29,0.03,2.35,1.08,2.36,2.34c0.01,1.32-1.11,2.41-2.45,2.39c-1.35-0.02-2.4-1.13-2.34-2.48
		C257.68,270.49,258.74,269.51,260.05,269.54z"/>
	<path class="st0" d="M237.89,271.85c0.02-1.33,1.01-2.32,2.32-2.31c1.37,0,2.41,1.06,2.37,2.43c-0.04,1.31-1.05,2.3-2.36,2.3
		C238.81,274.27,237.87,273.29,237.89,271.85z"/>
	<path class="st0" d="M247.71,273.36c0.04-1.28,1.12-2.33,2.38-2.3c1.34,0.03,2.38,1.16,2.33,2.51c-0.05,1.28-1.13,2.31-2.4,2.28
		C248.65,275.83,247.67,274.77,247.71,273.36z"/>
	<path class="st0" d="M220.55,246.9c-0.49,0.04-0.83,0.08-1.31,0.12c-0.15-1.19-0.3-2.32-0.46-3.54c0.47-0.11,0.84-0.19,1.34-0.3
		C220.27,244.46,220.41,245.64,220.55,246.9z"/>
	<path class="st0" d="M216.7,158.87c2.36,0.02,4.23,1.87,4.25,4.21c0.01,2.37-1.94,4.31-4.33,4.31c-2.41,0-4.29-1.9-4.27-4.32
		C212.36,160.63,214.2,158.85,216.7,158.87z"/>
	<path class="st0" d="M283.42,158.87c1.97-0.2,4.29,1.44,4.35,4.23c0.05,2.37-1.94,4.3-4.32,4.3c-2.39-0.01-4.31-1.95-4.28-4.33
		C279.19,160.72,281.05,158.89,283.42,158.87z"/>
	<path class="st0" d="M289.42,311.56c0,0.98,0,1.96,0,3.03c-0.55,0.03-0.98,0.06-1.52,0.09c0-2.68,0-5.28,0-7.99
		c0.44-0.02,0.87-0.04,1.44-0.07c0.05,1.11,0.1,2.12,0.14,3.1c0.55,0.29,0.84,0.07,1.06-0.34c0.3-0.56,0.61-1.11,0.92-1.66
		c0.71-1.26,0.72-1.26,2.34-0.91c-0.72,1.28-1.43,2.53-2.19,3.88c0.83,1.25,1.67,2.52,2.54,3.84c-1.17,0.35-2.03,0.24-2.56-0.9
		c-0.29-0.61-0.69-1.17-1.09-1.72c-0.18-0.25-0.5-0.4-0.76-0.59C289.63,311.4,289.53,311.48,289.42,311.56z"/>
	<path class="st0" d="M281.96,311.55c0,0.98,0,1.96,0,3.03c-0.56,0-0.98,0-1.51,0c0-2.59,0-5.15,0-7.86c0.4-0.03,0.83-0.06,1.4-0.11
		c0.06,1.11,0.11,2.12,0.16,3.08c0.55,0.33,0.84,0.1,1.07-0.31c0.33-0.59,0.66-1.19,1-1.78c0.63-1.1,0.64-1.1,2.22-0.8
		c-0.71,1.28-1.4,2.53-2.15,3.87c0.83,1.26,1.67,2.53,2.52,3.83c-1.74,0.34-1.74,0.34-2.59-0.98c-0.34-0.53-0.65-1.09-1.03-1.6
		c-0.18-0.25-0.49-0.4-0.74-0.6C282.2,311.4,282.08,311.47,281.96,311.55z"/>
	<path class="st0" d="M274.17,314.58c-0.02-0.36-0.04-0.74-0.06-1.15c0.41-0.11,0.75-0.2,1.24-0.33c-0.68-2.19-1.81-4.15-2.49-6.28
		c1.48-0.34,1.49-0.34,1.99,0.86c0.44,1.03,0.86,2.08,1.37,3.31c0.59-1.58,1.1-2.92,1.61-4.3c0.5,0,0.94,0,1.52,0
		c-0.1,0.37-0.15,0.65-0.25,0.93c-0.66,1.83-1.3,3.67-2.01,5.48C276.49,314.61,275.9,314.89,274.17,314.58z"/>
	<path class="st0" d="M222.97,307.4c0.61,0,1.14,0,1.74,0c0,2.37,0,4.66,0,7.06c-0.33,0.05-0.67,0.1-1.15,0.17c0-1.47,0-2.86,0-4.24
		c-0.09-0.01-0.17-0.03-0.26-0.04c-0.36,1.1-0.71,2.2-1.06,3.27c-1.2,0.18-1.2,0.18-1.52-0.76c-0.28-0.85-0.57-1.7-1.02-2.51
		c0,1.34,0,2.68,0,4.14c-0.39,0.03-0.71,0.05-1.11,0.07c0-2.41,0-4.71,0-7.11c0.53,0,1.05,0,1.68,0c0.4,1.34,0.81,2.71,1.21,4.08
		c0.08,0.01,0.16,0.01,0.24,0.02C222.14,310.15,222.55,308.77,222.97,307.4z"/>
	<path class="st0" d="M213.7,310.37c0.22-0.18,0.49-0.33,0.64-0.55c0.33-0.49,0.59-1.02,0.89-1.53c0.61-1.05,0.61-1.05,2.04-0.79
		c-0.66,1.17-1.3,2.29-1.95,3.44c0.74,1.14,1.47,2.27,2.23,3.43c-1.51,0.32-1.51,0.32-2.2-0.74c-0.35-0.53-0.64-1.1-1.02-1.61
		c-0.16-0.21-0.45-0.32-0.92-0.64c0,1.2,0,2.13,0,3.11c-0.5,0-0.84,0-1.3,0c0-2.33,0-4.66,0-7.1c0.35-0.02,0.73-0.05,1.25-0.08
		c0,1.03,0,1.96,0,2.89C213.47,310.27,213.58,310.32,213.7,310.37z"/>
	<path class="st0" d="M206.51,314.54c0-0.42,0-0.77,0-1.13c0.33-0.11,0.62-0.2,1.09-0.36c-0.78-1.87-1.54-3.69-2.36-5.65
		c0.5-0.03,0.92-0.06,1.41-0.09c0.52,1.25,1.03,2.45,1.65,3.94c0.53-1.44,0.97-2.62,1.43-3.86c0.42-0.02,0.81-0.04,1.17-0.06
		c0.07,0.15,0.16,0.24,0.14,0.29c-0.65,1.83-1.28,3.68-1.99,5.49C208.55,314.41,208.11,314.63,206.51,314.54z"/>
	<path class="st0" d="M253.53,297.79c1.79,0,3.5,0,5.32,0c0,0.46,0,0.92,0,1.48c-1.2,0-2.37,0-3.64,0c0,0.57,0,1.05,0,1.72
		c0.55,0.01,1.17,0,1.78,0.02c1.54,0.04,2.48,0.92,2.58,2.41c0.11,1.57-0.74,2.63-2.29,2.82c-0.45,0.06-0.91,0.05-1.36,0.06
		c-0.77,0.01-1.53,0-2.39,0C253.53,303.44,253.53,300.69,253.53,297.79z M255.17,304.62c0.37,0.03,0.67,0.07,0.98,0.08
		c0.23,0.01,0.46,0.01,0.68-0.02c0.69-0.1,0.99-0.43,1-1.06c0.01-0.63-0.3-0.97-1.01-1.02c-0.53-0.04-1.06-0.01-1.66-0.01
		C255.17,303.34,255.17,303.95,255.17,304.62z"/>
	<path class="st0" d="M251.26,297.73c0,0.56,0,0.99,0,1.56c-1.25,0-2.45,0-3.72,0c0,0.62,0,1.09,0,1.71c0.66,0,1.29-0.02,1.91,0
		c1.51,0.05,2.44,0.99,2.5,2.48c0.06,1.54-0.73,2.58-2.23,2.72c-1.21,0.11-2.44,0.02-3.66,0.02c-0.26-0.96-0.32-6.57-0.08-8.5
		c0.87,0,1.76,0,2.66,0C249.49,297.73,250.34,297.73,251.26,297.73z M247.51,304.65c0.73,0,1.31,0.04,1.88-0.01
		c0.59-0.06,0.82-0.48,0.81-1.05c-0.01-0.57-0.27-0.96-0.87-0.98c-0.6-0.03-1.21,0-1.82,0.01
		C247.51,303.38,247.51,303.95,247.51,304.65z"/>
	<path class="st0" d="M243.87,306.23c-0.48,0.02-0.92,0.04-1.51,0.07c0-2.18,0-4.28,0-6.43c-0.36,0-0.57,0-0.77,0
		c-0.51-1.74-0.01-2.22,2.28-2.06C243.87,300.58,243.87,303.36,243.87,306.23z"/>
	<path class="st0" d="M252.56,227.77c-0.93,0.54-1.67,0.96-2.48,1.42c-0.78-0.43-1.56-0.86-2.54-1.39c0.88-0.56,1.65-1.05,2.49-1.59
		C250.82,226.7,251.58,227.16,252.56,227.77z"/>
	<path class="st0" d="M250.05,237.86c0.69,0.63,1.25,1.14,1.91,1.75c-0.63,0.61-1.21,1.15-1.89,1.81c-0.61-0.58-1.19-1.12-1.89-1.78
		C248.8,239.05,249.36,238.51,250.05,237.86z"/>
	<path class="st0" d="M243.57,230.53c0.77-0.56,1.43-1.03,2.11-1.52c0.77,0.45,1.5,0.89,2.4,1.41c-0.76,0.55-1.4,1-2.12,1.52
		C245.2,231.49,244.44,231.04,243.57,230.53z"/>
	<path class="st0" d="M254.19,231.96c-0.74-0.53-1.37-0.97-2.12-1.51c0.82-0.51,1.57-0.98,2.34-1.47c0.7,0.51,1.35,0.99,2.1,1.54
		C255.69,231.03,254.98,231.47,254.19,231.96z"/>
	<path class="st0" d="M253.86,238.01c-0.65-0.57-1.23-1.07-1.92-1.68c0.7-0.56,1.32-1.06,2-1.61c0.61,0.53,1.19,1.02,1.86,1.61
		C255.25,237.03,254.53,237.4,253.86,238.01z"/>
	<path class="st0" d="M244.19,236.43c0.72-0.62,1.32-1.13,1.97-1.69c0.65,0.51,1.24,0.98,1.97,1.55c-0.63,0.59-1.2,1.12-1.84,1.71
		C245.63,237.5,244.99,237.03,244.19,236.43z"/>
	<path class="st0" d="M250.06,234.81c-0.69-0.49-1.34-0.96-2.12-1.52c0.75-0.56,1.39-1.03,2.09-1.54c0.67,0.49,1.32,0.97,2.09,1.54
		C251.4,233.82,250.76,234.29,250.06,234.81z"/>
	<path class="st0" d="M244.12,233.32c-0.71,0.59-1.29,1.08-1.94,1.61c-0.69-0.44-1.36-0.87-2.19-1.4c0.65-0.57,1.21-1.06,1.85-1.62
		C242.57,232.36,243.27,232.79,244.12,233.32z"/>
	<path class="st0" d="M255.98,233.32c0.82-0.52,1.49-0.95,2.22-1.41c0.63,0.53,1.21,1.01,1.91,1.6c-0.76,0.5-1.42,0.94-2.17,1.43
		C257.34,234.44,256.73,233.94,255.98,233.32z"/>
</g>
</svg>
