<?xml version="1.0" encoding="utf-8"?>
<!-- Generator: Adobe Illustrator 26.5.0, SVG Export Plug-In . SVG Version: 6.00 Build 0)  -->
<svg version="1.1" id="Layer_1" xmlns="http://www.w3.org/2000/svg" xmlns:xlink="http://www.w3.org/1999/xlink" x="0px" y="0px"
	 viewBox="0 0 500 500" style="enable-background:new 0 0 500 500;" xml:space="preserve">
<style type="text/css">
	.st0{fill:#131313;}
</style>
<g>
	<path class="st0" d="M207.41,192.63c0.88,0.88,2.08,1.42,3.42,1.42c2.67,0,4.84-2.17,4.84-4.84c0-2.67-2.17-4.84-4.84-4.84
		c-1.88,0-3.49,1.08-4.29,2.65c-0.34,0.66-0.55,1.4-0.55,2.19C205.99,190.54,206.54,191.75,207.41,192.63z"/>
	<path class="st0" d="M183.37,216.24c0.84,0,1.57-0.42,2.01-1.07c0.26-0.39,0.41-0.85,0.41-1.35c0-0.65-0.26-1.23-0.67-1.66
		c-0.44-0.46-1.06-0.76-1.75-0.76c-0.74,0-1.39,0.34-1.83,0.85c-0.36,0.42-0.59,0.96-0.59,1.57c0,0.45,0.13,0.87,0.35,1.23
		C181.72,215.75,182.48,216.24,183.37,216.24z"/>
	<circle class="st0" cx="316.9" cy="213.82" r="2.42"/>
	<path class="st0" d="M286.86,193.11c0.8,0.58,1.77,0.94,2.84,0.94c1.16,0,2.21-0.43,3.05-1.11c1.08-0.89,1.79-2.22,1.79-3.73
		c0-1.07-0.36-2.05-0.95-2.86c-0.88-1.2-2.29-1.98-3.89-1.98c-1.46,0-2.76,0.66-3.65,1.69c-0.73,0.85-1.19,1.94-1.19,3.15
		C284.86,190.82,285.65,192.23,286.86,193.11z"/>
	<path class="st0" d="M226.6,343.55c-3.26,0-5.9,2.64-5.9,5.9c0,3.26,2.64,5.9,5.9,5.9c3.26,0,5.9-2.64,5.9-5.9
		C232.5,346.19,229.86,343.55,226.6,343.55z"/>
	<path class="st0" d="M273.61,343.55c-3.26,0-5.9,2.64-5.9,5.9c0,3.26,2.64,5.9,5.9,5.9c3.26,0,5.9-2.64,5.9-5.9
		C279.51,346.19,276.86,343.55,273.61,343.55z"/>
	<path class="st0" d="M331.78,226.36c0.24-2.63,0.44-4.95,0.58-6.9c0.27-3.55,0.38-5.97,0.38-6.93l-0.07-2.05l-0.51-0.45
		c-8.74-4.92-16.32-11.64-22.22-19.66c-4.54-6.15-8.13-13.01-10.51-20.45h-31.77v-6.99l17.2,3.51v-15.35h-20.29V133.8
		c0-0.39,0-0.78,0.03-1.19v-0.03c0.15-2.75,0.8-5.43,1.84-7.97c0.23-0.55,0.44-1.09,0.6-1.66h0.03c0.49-1.64,0.75-3.38,0.75-5.17
		c0-9.83-7.96-17.78-17.77-17.78c-1.15,0-2.33,0.11-3.52,0.34c-6.96,1.32-12.54,6.91-13.91,13.81c-0.62,3.22-0.42,6.28,0.49,9.06
		c0.18,0.55,0.36,1.09,0.6,1.61c1.09,2.52,1.66,5.19,1.77,7.92c0.03,0.34,0.03,0.7,0.03,1.04v17.34H215v15.35l17-3.49v6.97h-31.46
		c-2.15,6.96-5.36,13.45-9.46,19.32c-6.18,8.91-14.34,16.32-23.83,21.61v1.6c0,0.2,0.14,2.87,0.51,7.34
		c0.14,1.88,0.34,4.06,0.58,6.52l-13.48,7.85l12.39,27.14c7.99,17.48,13.96,35.77,17.78,54.58l6.18,30.11l11.3-1.37
		c10.1,14.99,22.67,27.44,36.46,35.87c2.08,6.93,5.19,12.76,9.28,17.4c0.56,0.72,1.14,1.42,1.75,2.09c0.67-0.75,1.31-1.53,1.93-2.33
		c0.03-0.03,0.05-0.06,0.08-0.09c0.03-0.03,0.07-0.1,0.1-0.14c0.14-0.14,0.24-0.27,0.31-0.41c3.82-4.47,6.66-9.97,8.53-16.42
		c13.82-8.5,26.39-21.03,36.52-35.98l11.3,1.37l6.18-30.14c3.82-18.81,9.8-37.14,17.78-54.58l12.39-27.1L331.78,226.36z
		 M293.73,178.2c0,0.03,0.03,0.03,0.03,0.07c0.72,2.22,2.15,5.8,4.71,10.04c0.65,1.06,1.43,2.15,2.32,3.28v0.03
		c6.28,9.59,14.61,17.75,24.34,23.83c-0.03,1.54-0.17,3.86-0.41,6.79l-8.16-4.78c-14.1-8.26-27.41-17.85-39.66-28.67l-12.36-10.89
		h29.12C293.66,177.99,293.69,178.1,293.73,178.2z M321.84,261.96h-4.28v0.72c-0.03-1.24-0.09-2.47-0.19-3.7l0.04,0.5l5.75-0.5
		C322.72,259.97,322.27,260.96,321.84,261.96z M317.62,265.34h2.79c-1.23,2.95-2.39,5.92-3.5,8.92c0.07-0.48,0.13-0.97,0.19-1.46
		c0.07-0.56,0.16-1.11,0.22-1.68C317.5,269.21,317.6,267.29,317.62,265.34z M277.49,332.51l-1.93-5.29
		c0.79-0.33,1.56-0.69,2.33-1.04l3.13,6.72C279.85,332.77,278.67,332.64,277.49,332.51z M270.69,331.9l-0.71-2.64
		c0.28-0.09,0.55-0.2,0.83-0.29c0.53-0.17,1.05-0.38,1.58-0.57l1.37,3.76C272.73,332.06,271.71,331.98,270.69,331.9z M250.02,393.7
		l-0.02,0.02l-0.02-0.02l-0.84-52.92c0.32,0,0.64-0.01,0.95-0.01c0.25,0,0.5,0,0.75,0.01L250.02,393.7z M214.67,333.46l-2.16,0.25
		l5.45-9.44c0.03,0.02,0.07,0.03,0.1,0.05c0.73,0.39,1.48,0.73,2.22,1.09l-3.65,7.82L214.67,333.46z M177.13,259.68l5.27,0.46
		c-0.05,0.85-0.11,1.7-0.13,2.55h-3.83C178.01,261.69,177.57,260.68,177.13,259.68z M179.87,266.08h2.37
		c0.04,1.71,0.11,3.41,0.28,5.08c0.05,0.49,0.13,0.98,0.19,1.47c0.04,0.34,0.09,0.69,0.14,1.03
		C181.89,271.12,180.91,268.59,179.87,266.08z M182.66,256.77l-7.11-0.62l-1.6-3.51l9.1,1.6
		C182.91,255.08,182.76,255.91,182.66,256.77z M198.18,331.8l-0.39-1.92L208,317.71c0.68,0.53,1.36,1.05,2.06,1.56l-11.18,15.96
		L198.18,331.8z M196.92,325.65l-0.26-1.27l-0.64-3.11l7.47-7.47c0.63,0.59,1.25,1.18,1.9,1.75L196.92,325.65z M195.21,317.3
		l-0.68-3.32c-0.03-0.12-0.05-0.24-0.08-0.36l4.88-4.09c0.57,0.64,1.13,1.3,1.73,1.92L195.21,317.3z M192.92,306.76l2.65-1.86
		c0.51,0.69,1,1.4,1.54,2.07l-3.48,2.92C193.4,308.85,193.16,307.8,192.92,306.76z M192.08,303.21c-0.52-2.09-1.07-4.17-1.64-6.24
		c0.03,0.04,0.05,0.08,0.08,0.12c0.95,1.73,1.97,3.43,3.06,5.06L192.08,303.21z M203.33,334.79l9.51-13.59
		c0.72,0.47,1.46,0.91,2.2,1.36l-6.72,11.64l-3.1,0.36L203.33,334.79z M220.58,332.77l2.76-5.91c0.53,0.22,1.08,0.4,1.61,0.61
		c0.27,0.1,0.54,0.2,0.81,0.3l-1.68,4.62C222.9,332.51,221.74,332.64,220.58,332.77z M227.8,332.04l1.12-3.09
		c0.09,0.03,0.19,0.05,0.28,0.08c0.72,0.23,1.47,0.42,2.2,0.63l-0.57,2.14C229.82,331.87,228.81,331.96,227.8,332.04z
		 M265.66,331.55c-0.02-0.39-0.04-0.77-0.06-1.12c0.38-0.09,0.73-0.22,1.1-0.31l0.41,1.52
		C266.63,331.62,266.15,331.58,265.66,331.55z M280.95,324.73c0.24-0.12,0.48-0.24,0.72-0.36c0.51-0.27,1.01-0.57,1.52-0.85
		l5.98,10.36l-4.19-0.5L280.95,324.73z M293.37,334.37l-7.26-12.58c0.28-0.18,0.55-0.37,0.83-0.55c0.43-0.28,0.87-0.55,1.29-0.85
		l10.23,14.6l-3.77-0.46L293.37,334.37z M303.4,324.02l-7.9-9.41c0.36-0.33,0.7-0.69,1.06-1.03c0.26-0.24,0.53-0.46,0.78-0.71
		l6.92,6.92L303.4,324.02z M302.54,328.26l-0.45,2.22l-0.6,2.95l-10.52-15.02c0.32-0.24,0.61-0.52,0.93-0.76
		c0.35-0.28,0.73-0.52,1.07-0.8L302.54,328.26z M305.47,313.92l-0.39,1.9l-5.38-5.38c0.45-0.48,0.86-0.99,1.29-1.49
		c0.12-0.14,0.25-0.27,0.37-0.41l4.47,3.75c-0.02,0.09-0.04,0.17-0.06,0.26C305.67,312.99,305.57,313.47,305.47,313.92z
		 M306.65,308.55l-3.15-2.64c0.51-0.66,1-1.35,1.49-2.03l2.36,1.65C307.12,306.54,306.88,307.55,306.65,308.55z M308.22,302.01
		l-1.31-0.92c0.83-1.29,1.63-2.59,2.37-3.93c0.16-0.29,0.31-0.59,0.46-0.89C309.21,298.18,308.7,300.09,308.22,302.01z
		 M313.94,270.87c-0.04,0.38-0.1,0.75-0.15,1.13c-0.19,1.65-0.43,3.28-0.75,4.89c-0.11,0.55-0.24,1.1-0.36,1.65
		c-0.32,1.42-0.68,2.83-1.09,4.22c-0.17,0.58-0.35,1.16-0.53,1.73c-0.45,1.36-0.94,2.7-1.47,4.02c-0.21,0.53-0.41,1.06-0.64,1.58
		c-0.64,1.47-1.34,2.9-2.08,4.3c-0.17,0.32-0.32,0.66-0.5,0.98c-0.95,1.73-1.97,3.42-3.07,5.05c-0.16,0.24-0.34,0.46-0.51,0.69
		c-0.93,1.34-1.9,2.65-2.93,3.92c-0.42,0.51-0.86,1-1.29,1.5c-0.82,0.95-1.66,1.89-2.54,2.79c-0.52,0.54-1.07,1.07-1.61,1.59
		c-0.85,0.82-1.73,1.62-2.63,2.39c-0.58,0.5-1.17,1-1.76,1.48c-0.95,0.76-1.93,1.48-2.92,2.19c-0.58,0.41-1.16,0.84-1.75,1.24
		c-1.25,0.83-2.53,1.6-3.84,2.34c-0.38,0.21-0.73,0.45-1.11,0.66c-1.69,0.91-3.43,1.75-5.21,2.51c-0.51,0.22-1.04,0.39-1.55,0.6
		c-1.31,0.52-2.64,1.03-3.99,1.46c-0.64,0.21-1.3,0.39-1.96,0.58c-1.44,0.41-2.88,0.81-4.35,1.12c-0.28,0.06-0.55,0.12-0.83,0.18
		c-1.87,0.37-3.76,0.66-5.68,0.87c-0.31,0.03-0.62,0.06-0.93,0.09c-1.98,0.18-3.98,0.3-6.01,0.3c-2,0-3.97-0.12-5.92-0.3
		c-0.36-0.03-0.72-0.06-1.08-0.1c-1.88-0.2-3.73-0.49-5.56-0.85c-0.31-0.06-0.61-0.13-0.92-0.2c-1.5-0.32-2.97-0.72-4.43-1.14
		c-0.58-0.17-1.16-0.32-1.74-0.51c-1.55-0.5-3.07-1.06-4.56-1.67c-0.32-0.13-0.65-0.24-0.97-0.37c-1.83-0.78-3.62-1.64-5.36-2.59
		c-0.27-0.15-0.53-0.32-0.8-0.47c-1.41-0.79-2.8-1.63-4.14-2.52c-0.55-0.36-1.07-0.76-1.61-1.14c-1.03-0.73-2.05-1.48-3.04-2.27
		c-0.59-0.47-1.17-0.96-1.74-1.46c-0.89-0.76-1.75-1.55-2.6-2.36c-0.57-0.55-1.14-1.1-1.69-1.67c-0.8-0.83-1.57-1.69-2.33-2.56
		c-0.52-0.59-1.05-1.17-1.54-1.79c-0.8-0.98-1.54-2.01-2.28-3.04c-0.39-0.54-0.8-1.05-1.17-1.61c-1.02-1.52-1.97-3.1-2.86-4.71
		c-0.41-0.74-0.77-1.52-1.15-2.28c-0.48-0.96-0.96-1.91-1.4-2.9c-0.38-0.86-0.71-1.74-1.06-2.61c-0.36-0.93-0.71-1.87-1.03-2.82
		c-0.31-0.92-0.59-1.85-0.86-2.78c-0.27-0.96-0.52-1.92-0.75-2.9c-0.22-0.95-0.45-1.91-0.63-2.88c-0.19-1.01-0.33-2.04-0.47-3.07
		c-0.13-0.96-0.28-1.91-0.37-2.88c-0.11-1.23-0.15-2.48-0.19-3.73c-0.03-0.74-0.1-1.46-0.1-2.2c0-35.47,28.84-64.34,64.34-64.34
		c15.51,0,29.77,5.53,40.89,14.71c14.3,11.81,23.44,29.67,23.44,49.63C314.26,266.69,314.14,268.79,313.94,270.87z M176.37,232.85
		l1.01-0.59l10.6,4.94c-0.34,0.77-0.66,1.56-0.97,2.35l-13.62-4.96L176.37,232.85z M184.28,228.25l6.31,3.64
		c-0.41,0.74-0.76,1.51-1.14,2.27l-8.5-3.97l1.89-1.1L184.28,228.25z M190.47,224.59l3.19,2.24c-0.47,0.7-0.87,1.45-1.31,2.16
		l-4.7-2.71C188.59,225.73,189.53,225.16,190.47,224.59z M224.85,199.94l0.56,1.53c-1.75,0.68-3.45,1.44-5.13,2.26
		C221.82,202.48,223.34,201.22,224.85,199.94z M228.39,196.9l1.5-1.32l1.07,3.98c-0.8,0.23-1.59,0.48-2.38,0.74l-0.99-2.72
		C227.86,197.36,228.13,197.13,228.39,196.9z M236.84,169.94v-7.96l2.6-0.53h8.12v5.76l-3.12,2.74H236.84z M255.53,169.94
		l-3.13-2.77v-5.73h7.89l2.54,0.52v7.97H255.53z M249.93,139.12c2.53,0,5.01-0.43,7.38-1.25v2.89c-4.67,1.85-9.91,1.88-14.56,0.09
		v-2.92C245.06,138.7,247.47,139.12,249.93,139.12z M257.35,132.17l-0.01,0.23v0c0,0.08,0,0.16,0,0.23
		c-4.63,2.06-9.96,2.09-14.61,0.07c0-0.12,0-0.25-0.01-0.37c-0.04-0.98-0.13-1.95-0.26-2.9c2.38,0.95,4.92,1.45,7.5,1.45
		c2.65,0,5.26-0.53,7.7-1.53C257.51,130.3,257.4,131.23,257.35,132.17z M249.92,147.07c2.52,0,5.01-0.39,7.39-1.15v2.71
		c-4.68,1.66-9.88,1.68-14.56,0.09v-2.72C245.06,146.7,247.47,147.07,249.92,147.07z M256.15,197.14c-2.05-0.19-4.12-0.31-6.22-0.31
		h1.75v-17.41l3.73,3.29l-1.25,14.27L256.15,197.14z M248.3,179.42v17.41h1.6c-1.97,0-3.91,0.13-5.84,0.29l1.76-0.15l-1.25-14.28
		l0.4-0.35L248.3,179.42z M241.42,185.46l1.03,11.8c-1.04,0.11-2.05,0.31-3.07,0.47l0.61-0.11l-1.67-9.45L241.42,185.46z
		 M236.65,198.14c-0.82,0.16-1.61,0.39-2.42,0.58l-1.51-5.63l2.63-2.31L236.65,198.14z M200.72,218.1c-1.8,1.9-3.47,3.91-5.04,6.01
		l-2.06-1.44C196.01,221.19,198.38,219.66,200.72,218.1z M257.23,197.23l0.31,0.03l1.03-11.78l2.69,2.38l0.38,0.33l-1.64,9.3
		l3.33,0.59l1.28-7.26l2.42,2.14l0.19,0.17l-1.47,5.47l3.27,0.88l1.03-3.84l0.45,0.4c0.6,0.53,1.22,1.05,1.83,1.58l-0.94,2.57
		l3.18,1.16l0.5-1.37c1.56,1.32,3.14,2.61,4.73,3.89C272.87,200.42,265.28,198.1,257.23,197.23z M239.73,115.57
		c0.8-4.01,4.15-7.34,8.17-8.1c0.72-0.14,1.44-0.21,2.15-0.21c5.8,0,10.51,4.72,10.51,10.53c0,0.7-0.06,1.38-0.19,2.05l-0.33,1.21
		c-0.05,0.17-0.13,0.4-0.32,0.83c-0.14,0.34-0.25,0.69-0.38,1.04c-2.75,2.04-6.03,3.15-9.39,3.15c-3.3,0-6.42-1.02-9.12-2.96
		c-0.16-0.42-0.33-0.84-0.51-1.25c-0.13-0.3-0.22-0.61-0.32-0.89C239.46,119.27,239.37,117.45,239.73,115.57z M174.87,215.81
		c10.38-6.49,19.08-15.33,25.46-25.8c0.03,0,0.03-0.03,0.03-0.03c0.03-0.03,0.07-0.1,0.1-0.14c0.38-0.51,0.72-1.02,1.03-1.54
		c2.7-4.37,4.1-8.02,4.81-10.24c0-0.07,0.04-0.1,0.04-0.17h29.05l-13.38,11.74c-12.32,10.79-25.63,20.38-39.8,28.64l-6.89,4.03
		C175.08,219.57,174.94,217.35,174.87,215.81z M167.33,238.14l2.15-1.26l0.11-0.06l16.26,5.92c-0.27,0.8-0.56,1.6-0.8,2.42
		l-16.53-4.43L167.33,238.14z M170.33,244.71l13.86,3.71c-0.2,0.83-0.47,1.63-0.64,2.47l-11.31-1.99l-1.64-3.59L170.33,244.71z
		 M236.58,369.25c-9.32-6.76-17.92-15.5-25.33-25.63l8.77-1.06c4.68-0.56,9.36-0.98,14.05-1.27c0.04,7.96,0.6,18.01,2.52,27.98
		C236.6,369.25,236.59,369.25,236.58,369.25z M263.45,369.25c0,0-0.01,0.01-0.01,0.01c1.93-10.02,2.47-20.09,2.48-27.99
		c4.83,0.3,9.65,0.73,14.47,1.32l8.23,0.99C281.2,353.72,272.63,362.52,263.45,369.25z M331.78,240.07l-17.04,4.57l0.87,3.27
		l14.35-3.85l-0.4,0.87l-1.51,3.29l-11.88,2.09l0.59,3.34l9.59-1.69l-1.59,3.48l-7.64,0.67l0.07,0.78
		c-1.16-10.26-4.64-19.79-9.86-28.14c-2.48-3.97-5.34-7.67-8.57-11.03c2.43,1.62,4.88,3.21,7.36,4.75l-1.9,1.33l1.94,2.77l3.12-2.19
		c0.8,0.48,1.59,0.97,2.39,1.44l0.36,0.21l-4.52,2.61l1.69,2.93l6.19-3.58l1.85,1.08l1.41,0.82l-8.27,3.86l1.43,3.07l10.4-4.85
		l1.44,0.84l2.45,1.44l-13.31,4.85l1.16,3.18l15.94-5.8l0.73,0.43l2.05,1.2L331.78,240.07z"/>
	<path class="st0" d="M234.02,316.23c0.18,0.07,0.31,0.01,0.38-0.18l0.5-1.39c0.07-0.19,0.01-0.31-0.17-0.38l-5.65-2.06
		c-0.19-0.07-0.31-0.01-0.38,0.18l-3.38,9.27c-0.07,0.19-0.01,0.31,0.18,0.38l3.63,1.32c0.64,0.23,1.26,0.32,1.85,0.24
		s1.11-0.29,1.57-0.65c0.45-0.37,0.79-0.86,1.02-1.48c0.22-0.6,0.27-1.16,0.16-1.69c-0.11-0.53-0.38-1-0.79-1.41
		c-0.41-0.41-0.95-0.74-1.61-0.98l-1.89-0.69l0.69-1.91L234.02,316.23z M230.66,319.04c0.21,0.08,0.39,0.2,0.56,0.35
		c0.17,0.16,0.28,0.35,0.34,0.59c0.07,0.23,0.05,0.49-0.05,0.77c-0.15,0.42-0.38,0.68-0.68,0.79c-0.3,0.11-0.65,0.09-1.05-0.06
		l-1.83-0.67l0.89-2.44L230.66,319.04z"/>
	<path class="st0" d="M241.98,316.11c-0.03-0.17-0.13-0.27-0.3-0.29l-1.59-0.28c-0.17-0.03-0.29,0.03-0.38,0.17l-5.49,9.08
		c-0.03,0.03-0.05,0.08-0.05,0.12c-0.01,0.06,0,0.12,0.04,0.16c0.04,0.05,0.1,0.08,0.19,0.09l1.84,0.32
		c0.17,0.03,0.29-0.03,0.37-0.18l0.8-1.42l3.93,0.69l0.27,1.6c0.03,0.17,0.12,0.27,0.29,0.3l1.85,0.33c0.08,0.01,0.15,0.01,0.2-0.02
		c0.05-0.03,0.08-0.07,0.09-0.14c0.01-0.05,0.01-0.1-0.01-0.14L241.98,316.11z M238.45,322.01l1.75-3.1l0.17-0.4l0.05,0.44
		l0.59,3.51L238.45,322.01z"/>
	<path class="st0" d="M252.73,316.53l-7.65-0.14c-0.19-0.01-0.3,0.09-0.3,0.29l-0.03,1.65c0,0.2,0.09,0.3,0.29,0.3l2.61,0.05
		l-0.15,7.91c0,0.2,0.09,0.3,0.29,0.3l1.81,0.03c0.2,0,0.3-0.09,0.31-0.29l0.15-7.91l2.62,0.05c0.2,0.01,0.3-0.09,0.31-0.29
		l0.03-1.65C253.02,316.64,252.93,316.53,252.73,316.53z"/>
	<path class="st0" d="M263.2,317.53c-0.61-0.74-1.35-1.28-2.25-1.62c-0.89-0.34-1.83-0.43-2.83-0.28c-0.99,0.16-1.86,0.54-2.61,1.14
		c-0.74,0.6-1.29,1.35-1.63,2.24c-0.34,0.89-0.43,1.83-0.27,2.81c0.15,0.98,0.53,1.84,1.14,2.59c0.6,0.75,1.35,1.29,2.25,1.64
		c0.89,0.35,1.83,0.44,2.83,0.28c0.99-0.16,1.85-0.54,2.59-1.15c0.75-0.61,1.29-1.36,1.63-2.26c0.34-0.9,0.43-1.83,0.27-2.81
		C264.18,319.13,263.8,318.27,263.2,317.53z M261.77,322.12c-0.19,0.51-0.49,0.94-0.9,1.28s-0.87,0.55-1.4,0.64
		c-0.52,0.08-1.03,0.02-1.52-0.18c-0.49-0.2-0.91-0.51-1.25-0.94c-0.35-0.42-0.57-0.92-0.65-1.49c-0.09-0.56-0.04-1.1,0.15-1.61
		s0.49-0.94,0.9-1.28c0.41-0.34,0.87-0.55,1.4-0.64c0.52-0.08,1.03-0.03,1.52,0.17c0.49,0.2,0.91,0.51,1.25,0.93
		c0.35,0.42,0.56,0.92,0.65,1.48C262.01,321.07,261.96,321.61,261.77,322.12z"/>
	<path class="st0" d="M272.12,313.52c-0.47-0.39-1.02-0.63-1.65-0.71c-0.63-0.09-1.29,0-1.99,0.26l-3.67,1.35
		c-0.19,0.07-0.25,0.2-0.18,0.38l3.41,9.26c0.07,0.18,0.19,0.24,0.38,0.18l1.71-0.63c0.19-0.07,0.25-0.2,0.18-0.38l-1.06-2.88
		l1.72-0.63c0.71-0.26,1.28-0.63,1.69-1.1c0.42-0.47,0.67-1.02,0.76-1.63c0.09-0.61,0.01-1.26-0.24-1.93
		C272.94,314.42,272.58,313.91,272.12,313.52z M270.98,316.64c-0.05,0.24-0.15,0.46-0.33,0.65c-0.17,0.19-0.39,0.33-0.65,0.43
		l-1.54,0.57l-0.94-2.56l1.55-0.57c0.26-0.1,0.51-0.13,0.76-0.1c0.25,0.03,0.47,0.11,0.66,0.26c0.19,0.15,0.33,0.34,0.41,0.58
		C271,316.15,271.02,316.4,270.98,316.64z"/>
	<path class="st0" d="M205.4,290.92c-0.12-0.16-0.25-0.19-0.42-0.07l-8.08,5.65c-0.16,0.11-0.19,0.25-0.07,0.42l1.04,1.49
		c0.11,0.16,0.25,0.19,0.41,0.07l3.26-2.28c0.7,0.2,1.25,0.58,1.64,1.14c0.35,0.5,0.48,0.96,0.38,1.37c-0.1,0.41-0.4,0.8-0.91,1.15
		l-2.28,1.6c-0.17,0.11-0.19,0.25-0.07,0.41l1.04,1.5c0.11,0.16,0.25,0.19,0.41,0.07l2.61-1.82c0.61-0.42,1.06-0.92,1.36-1.49
		c0.3-0.57,0.42-1.17,0.35-1.82c-0.06-0.65-0.32-1.29-0.77-1.95c-0.29-0.42-0.59-0.73-0.9-0.95c-0.31-0.22-0.63-0.4-0.96-0.54
		l2.93-2.05c0.16-0.11,0.18-0.25,0.07-0.41L205.4,290.92z"/>
	<path class="st0" d="M204.26,288.82l-2.92-6.42c-0.08-0.18-0.22-0.23-0.4-0.15l-1.46,0.66c-0.18,0.08-0.23,0.22-0.15,0.4l2.05,4.5
		l-1.87,0.85l-1.56-3.41c-0.08-0.18-0.21-0.23-0.39-0.15l-1.34,0.61c-0.18,0.08-0.23,0.22-0.15,0.4l1.56,3.42l-1.77,0.8l-2.01-4.4
		c-0.08-0.18-0.21-0.23-0.39-0.15l-1.46,0.66c-0.18,0.08-0.23,0.21-0.15,0.4l2.88,6.33c0.08,0.18,0.21,0.23,0.39,0.15l8.98-4.09
		C204.29,289.13,204.34,289,204.26,288.82z"/>
	<path class="st0" d="M195.94,282.97c0.96-0.25,1.79-0.71,2.47-1.38c0.68-0.67,1.16-1.47,1.42-2.4c0.26-0.92,0.27-1.87,0.02-2.84
		c-0.16-0.6-0.4-1.15-0.73-1.65c-0.33-0.5-0.73-0.93-1.19-1.29c-0.07-0.06-0.15-0.08-0.21-0.06c-0.06,0.02-0.12,0.06-0.18,0.13
		l-1.08,1.34c-0.06,0.08-0.09,0.17-0.07,0.25c0.02,0.06,0.05,0.12,0.12,0.17c0.3,0.25,0.53,0.5,0.7,0.76
		c0.17,0.26,0.3,0.56,0.39,0.92c0.13,0.51,0.12,1.02-0.03,1.53c-0.15,0.51-0.42,0.96-0.81,1.34c-0.39,0.38-0.86,0.65-1.42,0.79
		c-0.55,0.14-1.09,0.14-1.62,0c-0.53-0.14-0.98-0.4-1.36-0.78c-0.38-0.37-0.63-0.82-0.77-1.33c-0.08-0.32-0.11-0.65-0.09-0.99
		c0.03-0.34,0.1-0.67,0.21-0.98c0.03-0.08,0.03-0.15,0.02-0.21c-0.03-0.08-0.08-0.14-0.18-0.18l-1.59-0.67
		c-0.07-0.03-0.14-0.04-0.2-0.02c-0.09,0.02-0.15,0.08-0.19,0.18c-0.22,0.52-0.35,1.08-0.4,1.68c-0.04,0.59,0.02,1.19,0.17,1.79
		c0.25,0.98,0.71,1.8,1.39,2.49c0.67,0.68,1.47,1.15,2.38,1.41C194.04,283.22,194.98,283.22,195.94,282.97z"/>
	<path class="st0" d="M190.54,272.95l-0.2-2.6l7.89-0.61c0.2-0.02,0.29-0.12,0.27-0.32l-0.14-1.81c-0.02-0.2-0.12-0.29-0.32-0.27
		l-7.89,0.61l-0.2-2.61c-0.02-0.2-0.12-0.29-0.32-0.27l-1.65,0.13c-0.2,0.02-0.29,0.12-0.27,0.32l0.6,7.62
		c0.02,0.2,0.12,0.29,0.32,0.27l1.65-0.13C190.47,273.25,190.56,273.15,190.54,272.95z"/>
	<path class="st0" d="M188.04,262.42l9.83,0.89c0.19,0.02,0.3-0.07,0.32-0.27l0.35-3.85c0.07-0.74-0.03-1.4-0.27-1.99
		c-0.25-0.59-0.62-1.06-1.12-1.41c-0.5-0.35-1.07-0.56-1.73-0.62c-0.66-0.06-1.27,0.04-1.83,0.29c-0.56,0.25-1.02,0.64-1.37,1.17
		c-0.35,0.53-0.57,1.17-0.63,1.91l-0.15,1.74l-3.16-0.28c-0.19-0.02-0.31,0.07-0.32,0.27l-0.17,1.84
		C187.76,262.3,187.85,262.4,188.04,262.42z M193.7,258.98c0.03-0.27,0.11-0.51,0.25-0.72c0.14-0.21,0.32-0.37,0.53-0.48
		s0.45-0.15,0.7-0.13c0.26,0.02,0.49,0.11,0.68,0.26c0.19,0.15,0.33,0.34,0.42,0.57c0.09,0.23,0.12,0.48,0.09,0.76l-0.13,1.48
		l-2.67-0.24L193.7,258.98z"/>
	<path class="st0" d="M193.7,244.18c0.57,0.76,1.31,1.34,2.22,1.73s1.84,0.53,2.8,0.42c0.95-0.11,1.81-0.45,2.59-1.02
		c0.77-0.57,1.35-1.32,1.75-2.24c0.24-0.57,0.39-1.15,0.44-1.75c0.04-0.6,0-1.18-0.15-1.74c-0.03-0.09-0.07-0.15-0.13-0.18
		c-0.05-0.02-0.13-0.03-0.23-0.01l-1.67,0.4c-0.11,0.02-0.18,0.08-0.21,0.16c-0.02,0.05-0.03,0.12-0.02,0.2
		c0.09,0.38,0.12,0.72,0.09,1.03c-0.03,0.31-0.11,0.63-0.25,0.97c-0.21,0.48-0.53,0.88-0.96,1.19c-0.43,0.31-0.92,0.5-1.46,0.56
		c-0.55,0.06-1.08-0.02-1.61-0.24s-0.95-0.56-1.28-0.99c-0.33-0.43-0.53-0.92-0.6-1.44c-0.07-0.53,0-1.03,0.21-1.52
		c0.13-0.31,0.31-0.59,0.54-0.84c0.23-0.25,0.49-0.47,0.77-0.65c0.07-0.05,0.11-0.1,0.14-0.15c0.03-0.07,0.02-0.16-0.03-0.26
		l-0.85-1.51c-0.04-0.07-0.09-0.12-0.15-0.14c-0.08-0.03-0.16-0.02-0.25,0.03c-0.5,0.28-0.95,0.64-1.34,1.08
		c-0.39,0.44-0.71,0.95-0.96,1.52c-0.4,0.93-0.54,1.86-0.43,2.81C192.79,242.56,193.13,243.42,193.7,244.18z"/>
	<path class="st0" d="M199.86,236.81c0.82,0.56,1.71,0.88,2.67,0.95c0.96,0.08,1.87-0.1,2.74-0.51s1.58-1.03,2.15-1.86
		c0.57-0.83,0.88-1.72,0.95-2.68c0.07-0.96-0.11-1.87-0.52-2.73c-0.42-0.86-1.03-1.58-1.85-2.14c-0.82-0.56-1.71-0.88-2.66-0.94
		c-0.95-0.07-1.86,0.1-2.73,0.52c-0.86,0.41-1.57,1.04-2.14,1.87c-0.57,0.83-0.89,1.73-0.96,2.68c-0.07,0.96,0.1,1.86,0.51,2.72
		C198.42,235.54,199.04,236.25,199.86,236.81z M200.37,230.58c0.29-0.43,0.69-0.76,1.17-0.99c0.49-0.22,1-0.32,1.54-0.27
		c0.55,0.04,1.06,0.22,1.53,0.54c0.47,0.33,0.83,0.73,1.07,1.23c0.25,0.49,0.35,1,0.32,1.53c-0.03,0.53-0.2,1.02-0.5,1.46
		c-0.3,0.43-0.69,0.76-1.17,0.99c-0.48,0.22-1,0.31-1.55,0.27c-0.54-0.04-1.05-0.22-1.53-0.55c-0.47-0.32-0.83-0.73-1.07-1.22
		c-0.24-0.49-0.34-1-0.31-1.53C199.9,231.51,200.07,231.02,200.37,230.58z"/>
	<path class="st0" d="M211.01,229.76c0.14,0.14,0.28,0.15,0.42,0.01l3.15-3.07c0.49-0.48,0.84-0.99,1.04-1.53
		c0.2-0.55,0.25-1.08,0.13-1.62s-0.38-1.02-0.81-1.46c-0.27-0.27-0.57-0.49-0.93-0.64c-0.35-0.15-0.71-0.23-1.07-0.23
		c-0.36,0-0.69,0.07-1,0.23c0.1-0.22,0.13-0.48,0.12-0.76c-0.01-0.28-0.08-0.55-0.19-0.83c-0.12-0.27-0.28-0.51-0.48-0.72
		c-0.39-0.41-0.84-0.66-1.34-0.78c-0.5-0.11-1.01-0.07-1.55,0.12c-0.53,0.19-1.05,0.53-1.53,1l-2.84,2.77
		c-0.14,0.14-0.14,0.28,0,0.42L211.01,229.76z M211.83,223.3c0.22-0.06,0.44-0.06,0.65,0c0.21,0.06,0.39,0.17,0.55,0.32
		c0.27,0.27,0.4,0.57,0.4,0.9c0,0.33-0.13,0.62-0.4,0.88l-1.49,1.45l-1.75-1.8l1.42-1.38C211.4,223.48,211.6,223.36,211.83,223.3z
		 M208.33,221.1c0.24-0.24,0.5-0.36,0.78-0.38c0.28-0.01,0.53,0.09,0.73,0.3c0.13,0.14,0.23,0.3,0.26,0.49
		c0.04,0.19,0.03,0.38-0.04,0.57c-0.06,0.2-0.18,0.37-0.34,0.53l-1.19,1.15l-1.44-1.48L208.33,221.1z"/>
	<path class="st0" d="M217.94,223.29c0.11,0.16,0.25,0.19,0.41,0.08l5.84-3.96c0.17-0.11,0.19-0.25,0.08-0.41l-0.89-1.33
		c-0.11-0.17-0.25-0.19-0.41-0.08l-4.09,2.77l-1.15-1.7l3.11-2.11c0.16-0.11,0.19-0.25,0.08-0.41l-0.83-1.22
		c-0.11-0.17-0.25-0.19-0.41-0.08l-3.11,2.11l-1.09-1.61l4-2.71c0.17-0.11,0.19-0.25,0.08-0.41l-0.89-1.33
		c-0.11-0.16-0.25-0.19-0.42-0.08l-5.76,3.9c-0.16,0.11-0.19,0.25-0.08,0.41L217.94,223.29z"/>
	<path class="st0" d="M224.45,216.41c0.78,0.56,1.65,0.89,2.6,0.99c0.96,0.1,1.89-0.05,2.81-0.47c0.57-0.25,1.07-0.58,1.5-0.99
		c0.44-0.41,0.79-0.87,1.07-1.39c0.05-0.09,0.05-0.16,0.02-0.22c-0.02-0.05-0.07-0.11-0.15-0.16l-1.51-0.84
		c-0.09-0.05-0.18-0.06-0.26-0.02c-0.05,0.03-0.11,0.07-0.15,0.14c-0.19,0.34-0.4,0.61-0.63,0.82c-0.23,0.21-0.5,0.39-0.84,0.54
		c-0.48,0.22-0.98,0.29-1.51,0.23c-0.53-0.06-1.01-0.26-1.46-0.58c-0.44-0.32-0.78-0.74-1.02-1.27c-0.23-0.52-0.33-1.05-0.27-1.6
		c0.05-0.54,0.23-1.03,0.53-1.47c0.3-0.43,0.7-0.76,1.18-0.98c0.31-0.14,0.63-0.22,0.97-0.25c0.34-0.03,0.67-0.02,1.01,0.04
		c0.08,0.01,0.15,0.01,0.2-0.02c0.07-0.03,0.13-0.1,0.15-0.21l0.39-1.68c0.02-0.08,0.02-0.15-0.01-0.21
		c-0.04-0.08-0.11-0.13-0.21-0.15c-0.55-0.13-1.13-0.17-1.71-0.11c-0.59,0.06-1.17,0.22-1.74,0.47c-0.91,0.41-1.65,1.01-2.21,1.79
		c-0.56,0.78-0.89,1.64-0.98,2.59c-0.09,0.95,0.06,1.88,0.47,2.78S223.68,215.85,224.45,216.41z"/>
	<path class="st0" d="M231.62,207.22l2.53-0.64l1.94,7.67c0.05,0.19,0.17,0.27,0.36,0.22l1.76-0.45c0.19-0.05,0.27-0.17,0.21-0.36
		l-1.93-7.67l2.54-0.64c0.19-0.05,0.27-0.17,0.21-0.36l-0.4-1.6c-0.05-0.19-0.17-0.27-0.37-0.22l-7.41,1.87
		c-0.19,0.05-0.27,0.17-0.22,0.36l0.41,1.6C231.3,207.19,231.42,207.26,231.62,207.22z"/>
	<path class="st0" d="M242.63,213.09l3.85-0.3c0.74-0.06,1.37-0.26,1.91-0.6c0.54-0.34,0.94-0.79,1.21-1.34
		c0.27-0.55,0.37-1.16,0.32-1.82c-0.05-0.66-0.25-1.25-0.58-1.76c-0.34-0.51-0.8-0.89-1.38-1.15s-1.24-0.36-1.99-0.3l-1.74,0.14
		l-0.25-3.16c-0.01-0.2-0.12-0.29-0.32-0.27l-1.84,0.14c-0.2,0.02-0.29,0.12-0.27,0.32l0.76,9.83
		C242.33,213.01,242.44,213.1,242.63,213.09z M245.88,207.99c0.27-0.02,0.53,0.02,0.76,0.12c0.23,0.1,0.42,0.25,0.57,0.45
		c0.14,0.19,0.23,0.42,0.25,0.66c0.02,0.26-0.03,0.5-0.14,0.71c-0.11,0.21-0.28,0.38-0.49,0.51c-0.21,0.13-0.46,0.2-0.73,0.22
		l-1.49,0.12l-0.21-2.67L245.88,207.99z"/>
	<path class="st0" d="M252.01,213.39c-0.17,0.23-0.4,0.48-0.71,0.74c-0.07,0.07-0.11,0.13-0.11,0.2c-0.01,0.08,0.03,0.15,0.1,0.22
		l0.33,0.33c0.06,0.07,0.13,0.1,0.21,0.1c0.08,0.01,0.15-0.03,0.22-0.09c1-0.85,1.51-1.73,1.56-2.63l0.05-1.38
		c0.01-0.2-0.09-0.3-0.29-0.31l-1.76-0.07c-0.2-0.01-0.3,0.09-0.31,0.28l-0.07,1.58c-0.01,0.2,0.09,0.3,0.29,0.31l0.76,0.03
		l-0.01,0.07C252.26,212.96,252.17,213.16,252.01,213.39z"/>
	<path class="st0" d="M257.34,214.94l1.42,0.36c0.19,0.05,0.31-0.02,0.36-0.21l0.42-1.65l6.53,1.66l-0.42,1.65
		c-0.05,0.19,0.03,0.32,0.21,0.36l1.41,0.36c0.19,0.05,0.31-0.02,0.36-0.22l0.89-3.52c0.05-0.19-0.02-0.31-0.21-0.36l-1.11-0.28
		l1.95-7.69c0.05-0.19-0.03-0.31-0.22-0.36l-6.33-1.6c-0.19-0.05-0.31,0.02-0.36,0.21l-0.49,1.93c-0.3,1.2-0.69,2.27-1.15,3.19
		s-1.02,1.67-1.65,2.24l-0.59-0.15c-0.19-0.05-0.31,0.03-0.36,0.22l-0.89,3.52C257.08,214.77,257.15,214.89,257.34,214.94z
		 M262.7,209.64c0.41-0.76,0.71-1.57,0.93-2.43l0.29-1.16l2.43,0.61l-1.48,5.82l-3.47-0.88C261.86,211.06,262.3,210.4,262.7,209.64z
		"/>
	<path class="st0" d="M273.03,218.26c0.9,0.45,1.83,0.64,2.79,0.58c0.95-0.06,1.83-0.36,2.63-0.89c0.8-0.53,1.42-1.24,1.87-2.13
		c0.44-0.89,0.63-1.81,0.57-2.76c-0.06-0.95-0.35-1.83-0.88-2.63c-0.53-0.8-1.24-1.42-2.14-1.87c-0.9-0.45-1.83-0.65-2.79-0.59
		c-0.95,0.06-1.83,0.35-2.62,0.88c-0.8,0.53-1.42,1.23-1.86,2.12c-0.44,0.89-0.63,1.81-0.58,2.77c0.06,0.96,0.35,1.84,0.87,2.64
		C271.42,217.18,272.14,217.81,273.03,218.26z M272.79,212.07c0.26-0.51,0.61-0.92,1.06-1.22c0.46-0.3,0.95-0.47,1.48-0.52
		c0.53-0.04,1.03,0.06,1.51,0.3c0.47,0.23,0.85,0.58,1.13,1.02c0.29,0.45,0.45,0.95,0.48,1.49c0.03,0.55-0.07,1.07-0.33,1.59
		c-0.25,0.52-0.61,0.93-1.07,1.23c-0.45,0.3-0.95,0.48-1.48,0.52c-0.53,0.04-1.03-0.06-1.51-0.3c-0.47-0.23-0.85-0.58-1.13-1.03
		s-0.45-0.95-0.47-1.49C272.42,213.12,272.53,212.58,272.79,212.07z"/>
	<path class="st0" d="M280.88,222.16c0.36,0.89,0.93,1.65,1.72,2.26c0.49,0.38,1.01,0.67,1.58,0.87c0.57,0.2,1.14,0.29,1.73,0.3
		c0.09,0,0.16-0.03,0.21-0.08c0.03-0.05,0.06-0.12,0.06-0.22l0.04-1.72c0-0.11-0.03-0.19-0.1-0.24c-0.05-0.04-0.11-0.06-0.19-0.07
		c-0.39-0.02-0.73-0.08-1.03-0.17c-0.29-0.1-0.57-0.27-0.87-0.49c-0.41-0.32-0.71-0.74-0.91-1.23c-0.19-0.5-0.25-1.02-0.17-1.56
		c0.07-0.54,0.29-1.04,0.64-1.49c0.35-0.45,0.78-0.78,1.29-0.99s1.02-0.28,1.55-0.21c0.53,0.07,1,0.26,1.43,0.59
		c0.26,0.21,0.48,0.45,0.67,0.74c0.19,0.29,0.33,0.59,0.43,0.91c0.03,0.08,0.06,0.13,0.11,0.17c0.07,0.05,0.15,0.06,0.25,0.04
		l1.67-0.43c0.08-0.02,0.13-0.05,0.18-0.11c0.05-0.07,0.06-0.15,0.03-0.26c-0.14-0.55-0.37-1.08-0.7-1.57
		c-0.33-0.49-0.74-0.93-1.23-1.32c-0.79-0.62-1.67-1-2.61-1.13c-0.95-0.13-1.87-0.02-2.75,0.34s-1.63,0.93-2.24,1.71
		c-0.61,0.78-0.99,1.65-1.12,2.6C280.42,220.35,280.52,221.27,280.88,222.16z"/>
	<path class="st0" d="M293.23,219.88l-1.23,1.11c-0.15,0.13-0.15,0.27-0.02,0.42l1.75,1.94l-5.87,5.3
		c-0.15,0.13-0.15,0.27-0.02,0.42l1.22,1.35c0.13,0.15,0.27,0.16,0.42,0.02l5.87-5.3l1.76,1.95c0.13,0.15,0.27,0.16,0.42,0.02
		l1.23-1.11c0.15-0.13,0.15-0.27,0.02-0.42l-5.13-5.67C293.52,219.76,293.38,219.75,293.23,219.88z"/>
	<path class="st0" d="M295.76,229.96c-0.85,0.52-1.49,1.2-1.95,2.05c-0.45,0.84-0.67,1.74-0.65,2.7c0.03,0.96,0.3,1.87,0.83,2.72
		c0.53,0.86,1.21,1.51,2.05,1.96c0.85,0.45,1.75,0.66,2.71,0.64c0.95-0.03,1.86-0.3,2.71-0.82c0.84-0.52,1.49-1.2,1.95-2.04
		c0.45-0.84,0.66-1.74,0.63-2.7c-0.03-0.96-0.3-1.86-0.83-2.72c-0.53-0.86-1.21-1.52-2.05-1.97c-0.85-0.45-1.75-0.67-2.69-0.64
		C297.5,229.17,296.6,229.44,295.76,229.96z M300.11,231.92c0.47,0.25,0.85,0.59,1.12,1.05c0.28,0.45,0.42,0.94,0.43,1.47
		c0.01,0.53-0.12,1.04-0.38,1.52c-0.26,0.48-0.63,0.87-1.12,1.17c-0.49,0.3-1.01,0.46-1.55,0.48c-0.55,0.02-1.06-0.09-1.53-0.34
		c-0.47-0.24-0.85-0.59-1.12-1.04c-0.28-0.45-0.42-0.94-0.43-1.47c-0.01-0.53,0.13-1.04,0.39-1.52c0.26-0.48,0.63-0.87,1.12-1.17
		c0.49-0.3,1.01-0.46,1.55-0.48C299.13,231.56,299.64,231.67,300.11,231.92z"/>
	<path class="st0" d="M297.48,243.31l0.55,1.58c0.05,0.15,0.15,0.23,0.3,0.27l7.55,1.99l-6,2.1c-0.19,0.07-0.25,0.19-0.18,0.38
		l0.58,1.66c0.07,0.19,0.19,0.25,0.38,0.18l9.31-3.26c0.19-0.07,0.25-0.19,0.18-0.38l-0.62-1.79c-0.05-0.15-0.15-0.24-0.3-0.27
		l-7.21-1.88l5.73-2.01c0.19-0.07,0.25-0.19,0.19-0.38l-0.58-1.66c-0.07-0.19-0.19-0.25-0.38-0.18l-9.31,3.26
		C297.48,243,297.42,243.13,297.48,243.31z"/>
	<path class="st0" d="M300.82,253.54l0.23,1.8c0.03,0.2,0.13,0.28,0.33,0.26l3.96-0.51l0.55,4.22l-3.97,0.51
		c-0.19,0.02-0.28,0.14-0.26,0.33l0.24,1.81c0.03,0.2,0.13,0.28,0.33,0.26l9.78-1.26c0.2-0.03,0.28-0.14,0.26-0.34l-0.23-1.81
		c-0.03-0.2-0.14-0.28-0.34-0.26l-3.53,0.45l-0.54-4.22l3.53-0.45c0.2-0.03,0.28-0.14,0.26-0.33l-0.23-1.8
		c-0.03-0.2-0.13-0.28-0.33-0.26l-9.78,1.26C300.88,253.23,300.79,253.34,300.82,253.54z"/>
	<path class="st0" d="M309.87,264.69c-0.79-0.53-1.69-0.83-2.68-0.89c-0.99-0.07-1.91,0.11-2.77,0.54c-0.86,0.42-1.56,1.03-2.1,1.83
		c-0.53,0.8-0.83,1.7-0.9,2.7c-0.03,0.62,0.02,1.22,0.18,1.8c0.15,0.58,0.39,1.11,0.72,1.59c0.06,0.08,0.12,0.12,0.19,0.12
		c0.06,0.01,0.13-0.02,0.21-0.07l1.44-0.94c0.09-0.06,0.14-0.13,0.15-0.22c0-0.06-0.02-0.13-0.06-0.2
		c-0.21-0.33-0.35-0.65-0.43-0.94c-0.09-0.3-0.11-0.63-0.09-0.99c0.03-0.52,0.2-1.01,0.51-1.45c0.31-0.44,0.7-0.78,1.19-1.02
		c0.49-0.24,1.02-0.34,1.59-0.31c0.57,0.04,1.09,0.21,1.54,0.51c0.46,0.3,0.81,0.69,1.05,1.16c0.24,0.47,0.35,0.97,0.31,1.51
		c-0.02,0.33-0.09,0.66-0.23,0.97c-0.13,0.32-0.31,0.6-0.51,0.87c-0.05,0.07-0.08,0.13-0.09,0.19c0,0.08,0.03,0.16,0.11,0.23
		l1.3,1.14c0.06,0.05,0.13,0.08,0.19,0.09c0.09,0.01,0.17-0.03,0.23-0.11c0.37-0.43,0.67-0.92,0.9-1.47
		c0.23-0.55,0.36-1.14,0.4-1.76c0.06-1-0.12-1.93-0.54-2.79C311.27,265.91,310.66,265.22,309.87,264.69z"/>
	<path class="st0" d="M311.18,275.05l-1.61-0.39c-0.19-0.05-0.31,0.03-0.36,0.22l-0.61,2.54l-7.69-1.86
		c-0.19-0.05-0.31,0.03-0.36,0.22l-0.43,1.77c-0.04,0.19,0.03,0.32,0.22,0.36l7.69,1.86l-0.62,2.55c-0.05,0.19,0.03,0.31,0.22,0.36
		l1.61,0.39c0.19,0.05,0.31-0.03,0.36-0.22l1.8-7.43C311.44,275.21,311.37,275.09,311.18,275.05z"/>
	<path class="st0" d="M299.26,281.8c-0.18-0.08-0.31-0.03-0.39,0.15l-1.77,4.03c-0.27,0.63-0.4,1.23-0.38,1.81
		c0.02,0.58,0.18,1.09,0.49,1.54c0.31,0.45,0.73,0.8,1.29,1.04c0.35,0.15,0.72,0.23,1.1,0.24c0.38,0.01,0.74-0.06,1.07-0.19
		c0.33-0.14,0.61-0.33,0.85-0.59c-0.01,0.24,0.05,0.49,0.17,0.74c0.11,0.26,0.28,0.49,0.49,0.69c0.21,0.21,0.45,0.37,0.71,0.49
		c0.52,0.23,1.03,0.3,1.53,0.21c0.51-0.09,0.97-0.32,1.39-0.7c0.42-0.38,0.77-0.88,1.04-1.5l1.59-3.64
		c0.08-0.18,0.03-0.31-0.15-0.39L299.26,281.8z M301.38,287.51c-0.11,0.24-0.25,0.44-0.44,0.58s-0.39,0.22-0.61,0.25
		c-0.22,0.03-0.43,0-0.63-0.09c-0.35-0.15-0.59-0.38-0.71-0.68c-0.12-0.3-0.11-0.63,0.04-0.97l0.83-1.91l2.31,1.01L301.38,287.51z
		 M305.02,288.81c-0.14,0.31-0.33,0.53-0.59,0.65c-0.25,0.12-0.52,0.11-0.79-0.01c-0.18-0.08-0.33-0.2-0.43-0.35
		c-0.11-0.16-0.17-0.34-0.19-0.54c-0.01-0.2,0.03-0.41,0.12-0.63l0.67-1.51l1.89,0.83L305.02,288.81z"/>
	<path class="st0" d="M299.78,292.79c-0.81-0.57-1.69-0.9-2.65-0.99c-0.96-0.09-1.87,0.07-2.75,0.47c-0.87,0.4-1.6,1.01-2.17,1.83
		c-0.57,0.82-0.91,1.71-0.99,2.67c-0.09,0.96,0.08,1.87,0.48,2.74c0.41,0.87,1.01,1.59,1.83,2.16c0.81,0.57,1.69,0.9,2.64,0.98
		c0.95,0.09,1.86-0.07,2.73-0.47c0.87-0.4,1.59-1.01,2.17-1.83c0.58-0.82,0.91-1.71,1-2.66c0.09-0.95-0.07-1.86-0.47-2.73
		C301.2,294.08,300.59,293.36,299.78,292.79z M299.18,299.01c-0.3,0.43-0.69,0.75-1.18,0.97c-0.49,0.22-1.01,0.3-1.55,0.25
		c-0.54-0.05-1.05-0.24-1.51-0.57c-0.47-0.33-0.82-0.74-1.05-1.24c-0.23-0.5-0.33-1.01-0.29-1.54c0.04-0.53,0.21-1.01,0.52-1.45
		c0.3-0.43,0.7-0.75,1.19-0.97c0.49-0.22,1-0.3,1.55-0.25s1.05,0.24,1.53,0.57c0.47,0.33,0.81,0.74,1.05,1.23
		c0.23,0.49,0.33,1.01,0.29,1.54C299.66,298.09,299.48,298.57,299.18,299.01z"/>
	<path class="st0" d="M249.92,215.14c-23.77,0-43.61,16.79-48.34,39.15c0-0.05,0-0.11-0.04-0.17c-0.67-1.13-1.45-1.79-2.33-1.98
		l-1.35-0.29c-0.19-0.04-0.31,0.03-0.35,0.23l-0.37,1.72c-0.04,0.2,0.03,0.31,0.23,0.35l1.54,0.33c0.2,0.04,0.32-0.03,0.36-0.23
		l0.16-0.74l0.06,0.02c0.17,0.04,0.36,0.16,0.56,0.35c0.2,0.2,0.4,0.48,0.61,0.82c0.05,0.09,0.11,0.14,0.18,0.15
		c0.08,0.02,0.15-0.01,0.23-0.07l0.39-0.27c0.05-0.03,0.07-0.08,0.09-0.12c-0.68,3.27-1.05,6.66-1.05,10.14
		c0,27.29,22.13,49.42,49.42,49.42c27.29,0,49.42-22.13,49.42-49.42C299.34,237.26,277.21,215.14,249.92,215.14z M249.92,310.59
		c-25.38,0-46.03-20.65-46.03-46.03s20.65-46.03,46.03-46.03s46.03,20.65,46.03,46.03S275.3,310.59,249.92,310.59z"/>
	<path class="st0" d="M214.24,306.39c-1.51,0-2.73,1.22-2.73,2.73c0,1.51,1.22,2.73,2.73,2.73c1.51,0,2.73-1.22,2.73-2.73
		C216.97,307.62,215.75,306.39,214.24,306.39z"/>
	<path class="st0" d="M284.41,306.39c-1.51,0-2.73,1.22-2.73,2.73c0,1.51,1.22,2.73,2.73,2.73c1.51,0,2.73-1.22,2.73-2.73
		C287.14,307.62,285.92,306.39,284.41,306.39z"/>
	<path class="st0" d="M254.47,249.67c3.39-1.78,6.95-3.14,10.63-4.14c-0.54-0.5-1.12-0.95-1.74-1.32
		c-3.89,0.91-7.65,2.27-11.21,4.05C252.94,248.71,253.68,249.17,254.47,249.67z"/>
	<path class="st0" d="M285.9,269.76c0.62,0.25,1.16,0.46,1.82,0.58c1.9,0.29,4.34-0.21,6.04-1.86c-2.11,0.54-4.01,0.21-5.25-0.41
		c-0.17-0.08-0.37-0.17-0.54-0.29c-0.91-0.66-1.82-1.36-3.76-2.23c-1.08-0.41-2.4-0.87-4.34-1.16c0.37-0.29,0.87-0.46,1.45-0.54
		c1.9-0.37,3.14-0.25,5.01,0.21c0.62,0.17,1.2,0.29,1.86,0.29c1.94,0,4.26-0.91,5.71-2.77c-2.03,0.83-3.97,0.83-5.25,0.42
		c-0.21-0.04-0.41-0.12-0.58-0.21c-1.04-0.5-2.03-1.08-4.1-1.61c-1.16-0.25-2.48-0.5-4.47-0.46c0.33-0.37,0.79-0.58,1.32-0.74
		c1.86-0.7,3.1-0.74,5.01-0.62c0.66,0.08,1.24,0.12,1.9,0c1.9-0.29,4.05-1.53,5.17-3.64c-1.86,1.16-3.76,1.45-5.13,1.28
		c-0.21-0.04-0.41-0.08-0.62-0.17c-1.08-0.33-2.15-0.74-4.26-0.95c-1.16-0.04-2.56-0.08-4.47,0.29c0.25-0.41,0.66-0.74,1.2-0.99
		c1.7-0.95,2.9-1.2,4.8-1.37c0.66-0.04,1.24-0.08,1.86-0.29c1.86-0.62,3.81-2.15,4.55-4.43c-1.61,1.45-3.47,2.03-4.84,2.07
		c-0.21,0-0.41,0-0.62-0.04c-1.12-0.16-2.28-0.41-4.38-0.25c-1.16,0.08-2.52,0.29-4.39,0.95c0.21-0.46,0.58-0.83,1.03-1.16
		c1.53-1.2,2.69-1.66,4.55-2.11c0.66-0.12,1.2-0.29,1.82-0.58c1.7-0.91,3.39-2.73,3.81-5.09c-1.41,1.7-3.14,2.57-4.51,2.81
		c-0.21,0.04-0.41,0.04-0.62,0.04c-1.12,0-2.28-0.04-4.34,0.41c-1.16,0.29-2.48,0.7-4.18,1.66c0.12-0.5,0.41-0.91,0.83-1.28
		c1.32-1.45,2.4-2.07,4.18-2.81c0.62-0.25,1.16-0.45,1.7-0.87c1.53-1.16,2.9-3.23,2.94-5.58c-1.12,1.86-2.69,2.98-3.97,3.43
		c-0.21,0.08-0.41,0.12-0.62,0.17c-1.12,0.21-2.28,0.33-4.26,1.12c-1.03,0.46-2.28,1.04-3.85,2.23c0.04-0.46,0.29-0.95,0.62-1.41
		c1.08-1.61,2.07-2.4,3.68-3.39c0.58-0.33,1.08-0.66,1.53-1.12c1.36-1.36,2.4-3.64,2.07-6c-0.83,2.03-2.23,3.39-3.43,4.05
		c-0.16,0.08-0.37,0.16-0.54,0.21c-1.08,0.37-2.19,0.7-4.05,1.78c-0.99,0.62-2.11,1.41-3.48,2.81c0-0.46,0.17-0.95,0.41-1.45
		c0.83-1.78,1.65-2.69,3.1-3.97c0.5-0.41,0.95-0.78,1.36-1.32c1.12-1.57,1.78-3.97,1.08-6.25c-0.49,2.11-1.65,3.68-2.73,4.51
		c-0.16,0.12-0.33,0.25-0.54,0.33c-0.99,0.54-2.07,0.99-3.68,2.36c-0.91,0.79-1.9,1.74-2.98,3.35c-0.12-0.46-0.04-0.99,0.17-1.53
		c0.54-1.86,1.2-2.9,2.44-4.38c0.42-0.5,0.83-0.91,1.12-1.53c0.87-1.74,1.12-4.18,0.08-6.33c-0.12,2.19-1.03,3.89-1.98,4.88
		c-0.17,0.16-0.29,0.29-0.46,0.41c-0.91,0.66-1.9,1.32-3.31,2.94c-0.74,0.87-1.57,1.99-2.4,3.76c-0.21-0.46-0.21-0.99-0.08-1.57
		c0.21-1.9,0.74-3.06,1.74-4.67c0.33-0.58,0.66-1.08,0.83-1.7c0.62-1.86,0.5-4.34-0.87-6.29c0.21,2.19-0.46,4.01-1.2,5.13
		c-0.12,0.21-0.25,0.33-0.41,0.5c-0.79,0.79-1.66,1.57-2.77,3.39c-0.62,0.99-1.24,2.19-1.82,4.1c-0.25-0.41-0.33-0.91-0.29-1.49
		c-0.08-1.94,0.25-3.14,0.95-4.92c0.25-0.62,0.5-1.16,0.58-1.82c0.29-1.9-0.21-4.34-1.86-6.04c0.54,2.11,0.21,4.01-0.37,5.25
		c-0.12,0.21-0.21,0.37-0.33,0.54c-0.66,0.91-1.37,1.82-2.23,3.76c-0.41,1.12-0.87,2.4-1.12,4.34c-0.33-0.37-0.5-0.87-0.54-1.45
		c-0.37-1.9-0.25-3.14,0.17-5c0.17-0.62,0.33-1.2,0.29-1.86c0-1.94-0.87-4.26-2.77-5.71c0.87,2.03,0.83,3.97,0.45,5.29
		c-0.08,0.16-0.16,0.37-0.25,0.54c-0.5,1.03-1.08,2.03-1.61,4.09c-0.25,1.16-0.5,2.52-0.46,4.47c-0.33-0.33-0.58-0.79-0.75-1.32
		c-0.66-1.86-0.74-3.06-0.58-5.01c0.04-0.66,0.08-1.24,0-1.86c-0.33-1.94-1.57-4.1-3.64-5.21c1.16,1.86,1.41,3.81,1.24,5.13
		c-0.04,0.21-0.08,0.41-0.12,0.62c-0.33,1.08-0.74,2.15-0.95,4.3c-0.08,1.16-0.12,2.52,0.25,4.47c-0.41-0.29-0.7-0.7-0.95-1.2
		c-0.95-1.74-1.2-2.94-1.37-4.84c-0.04-0.66-0.08-1.24-0.33-1.86c-0.58-1.86-2.15-3.81-4.38-4.55c1.45,1.61,2.03,3.47,2.03,4.84
		c0,0.21,0,0.41-0.04,0.62c-0.16,1.12-0.37,2.27-0.25,4.38c0.13,1.16,0.29,2.52,0.95,4.38c-0.46-0.21-0.83-0.58-1.16-1.03
		c-1.2-1.53-1.61-2.69-2.07-4.55c-0.16-0.66-0.29-1.2-0.62-1.82c-0.87-1.7-2.73-3.39-5.05-3.8c1.66,1.41,2.52,3.18,2.77,4.51
		c0.04,0.21,0.04,0.41,0.04,0.62c0.04,1.12,0,2.28,0.46,4.39c0.29,1.12,0.66,2.44,1.61,4.14c-0.46-0.12-0.87-0.41-1.28-0.83
		c-1.45-1.32-2.07-2.4-2.77-4.18c-0.25-0.62-0.49-1.16-0.87-1.7c-1.16-1.53-3.23-2.9-5.62-2.94c1.9,1.12,3.02,2.69,3.47,3.97
		c0.04,0.21,0.08,0.41,0.12,0.62c0.21,1.12,0.33,2.28,1.12,4.26c0.46,1.08,1.08,2.32,2.28,3.85c-0.5-0.04-0.95-0.29-1.41-0.62
		c-1.61-1.08-2.4-2.07-3.43-3.68c-0.33-0.58-0.62-1.08-1.12-1.53c-1.36-1.37-3.64-2.4-6-2.07c2.03,0.83,3.39,2.23,4.05,3.43
		c0.08,0.17,0.17,0.37,0.25,0.58c0.37,1.03,0.66,2.15,1.74,4.01c0.62,0.99,1.41,2.11,2.85,3.47c-0.5,0-0.99-0.16-1.49-0.41
		c-1.78-0.83-2.69-1.66-3.93-3.1c-0.45-0.5-0.83-0.95-1.36-1.36c-1.57-1.12-3.97-1.78-6.25-1.08c2.15,0.5,3.72,1.65,4.51,2.73
		c0.16,0.16,0.25,0.33,0.33,0.54c0.54,0.99,1.03,2.07,2.4,3.68c0.74,0.91,1.7,1.9,3.31,3.02c-0.46,0.08-0.95,0-1.53-0.21
		c-1.86-0.5-2.9-1.2-4.34-2.44c-0.49-0.41-0.95-0.79-1.53-1.12c-1.74-0.87-4.22-1.12-6.37-0.08c2.19,0.12,3.93,1.08,4.92,1.98
		c0.12,0.17,0.25,0.29,0.37,0.5c0.7,0.87,1.32,1.86,2.94,3.27c0.87,0.74,1.99,1.57,3.76,2.44c-0.46,0.16-0.99,0.16-1.53,0.04
		c-1.94-0.21-3.06-0.74-4.72-1.74c-0.58-0.33-1.08-0.66-1.7-0.83c-1.86-0.62-4.3-0.5-6.25,0.87c2.15-0.21,4.01,0.46,5.13,1.2
		c0.16,0.12,0.33,0.25,0.46,0.41c0.83,0.79,1.61,1.66,3.39,2.77c0.99,0.62,2.23,1.28,4.09,1.82c-0.41,0.25-0.91,0.33-1.49,0.33
		c-1.94,0.04-3.14-0.29-4.92-0.99c-0.62-0.25-1.16-0.5-1.82-0.58c-1.9-0.29-4.34,0.21-6.04,1.86c2.11-0.54,4.05-0.21,5.25,0.37
		c0.21,0.12,0.37,0.21,0.54,0.33c0.91,0.66,1.82,1.37,3.81,2.23c1.08,0.41,2.36,0.87,4.3,1.12c-0.37,0.33-0.87,0.49-1.41,0.54
		c-1.94,0.41-3.14,0.25-5.05-0.17c-0.62-0.16-1.2-0.29-1.86-0.29c-1.94,0-4.26,0.87-5.67,2.77c1.99-0.87,3.93-0.83,5.25-0.46
		c0.21,0.08,0.37,0.16,0.58,0.25c0.99,0.5,2.03,1.08,4.09,1.61c1.12,0.25,2.48,0.5,4.43,0.46c-0.33,0.33-0.79,0.58-1.32,0.75
		c-1.82,0.66-3.06,0.74-4.96,0.58c-0.66-0.04-1.24-0.08-1.9,0c-1.9,0.33-4.05,1.57-5.17,3.68c1.82-1.2,3.76-1.45,5.13-1.28
		c0.21,0.04,0.37,0.08,0.58,0.12c1.08,0.37,2.15,0.75,4.3,0.95c1.16,0.08,2.52,0.12,4.47-0.25c-0.29,0.41-0.7,0.7-1.2,0.95
		c-1.7,0.95-2.94,1.2-4.84,1.36c-0.66,0.08-1.24,0.12-1.86,0.33c-1.86,0.58-3.76,2.15-4.55,4.38c1.66-1.45,3.52-1.99,4.88-2.03
		c0.21,0,0.41,0,0.62,0.04c1.08,0.16,2.23,0.37,4.39,0.25c1.16-0.08,2.52-0.29,4.34-0.95c-0.17,0.46-0.54,0.83-1.03,1.16
		c-1.53,1.2-2.69,1.61-4.55,2.07c-0.62,0.16-1.2,0.29-1.78,0.62c-1.74,0.87-3.39,2.73-3.81,5.05c1.36-1.65,3.14-2.52,4.47-2.77
		c0.21-0.04,0.41-0.04,0.62-0.04c1.12-0.04,2.32,0,4.39-0.46c1.12-0.29,2.44-0.66,4.18-1.61c-0.12,0.46-0.46,0.91-0.87,1.28
		c-1.32,1.45-2.4,2.07-4.18,2.77c-0.58,0.29-1.12,0.5-1.66,0.87c-1.57,1.16-2.94,3.23-2.98,5.63c1.12-1.9,2.73-3.02,4.01-3.48
		c0.21-0.04,0.37-0.08,0.58-0.12c1.12-0.21,2.28-0.33,4.26-1.12c1.08-0.46,2.32-1.08,3.89-2.23c-0.08,0.45-0.29,0.91-0.66,1.36
		c-1.08,1.61-2.03,2.4-3.68,3.43c-0.54,0.33-1.04,0.62-1.53,1.12c-1.37,1.37-2.36,3.64-2.03,6c0.79-2.03,2.19-3.39,3.39-4.05
		c0.21-0.08,0.37-0.17,0.58-0.25c1.08-0.33,2.19-0.66,4.01-1.74c0.99-0.62,2.11-1.41,3.47-2.86c0.04,0.5-0.12,0.99-0.41,1.49
		c-0.83,1.78-1.66,2.69-3.1,3.93c-0.5,0.45-0.95,0.83-1.32,1.36c-1.12,1.57-1.78,3.97-1.08,6.25c0.46-2.15,1.61-3.72,2.73-4.51
		c0.17-0.12,0.33-0.25,0.5-0.33c0.99-0.54,2.07-1.03,3.72-2.4c0.87-0.74,1.86-1.7,2.98-3.31c0.08,0.46,0,0.99-0.17,1.53
		c-0.54,1.86-1.2,2.9-2.48,4.34c-0.41,0.5-0.79,0.95-1.08,1.57c-0.87,1.74-1.16,4.18-0.12,6.33c0.17-2.19,1.08-3.93,2.03-4.88
		c0.12-0.16,0.29-0.29,0.46-0.41c0.91-0.7,1.86-1.32,3.27-2.94c0.75-0.87,1.57-1.99,2.44-3.76c0.17,0.46,0.17,0.99,0.08,1.53
		c-0.25,1.95-0.74,3.06-1.74,4.72c-0.37,0.58-0.66,1.08-0.87,1.7c-0.58,1.86-0.46,4.34,0.91,6.29c-0.21-2.19,0.41-4.05,1.2-5.17
		c0.12-0.16,0.25-0.33,0.37-0.46c0.78-0.83,1.65-1.61,2.81-3.39c0.58-0.99,1.24-2.23,1.78-4.1c0.25,0.41,0.33,0.91,0.33,1.49
		c0.08,1.95-0.25,3.14-0.99,4.92c-0.25,0.62-0.46,1.16-0.58,1.82c-0.29,1.9,0.21,4.34,1.86,6.04c-0.54-2.11-0.21-4.05,0.41-5.25
		c0.08-0.21,0.17-0.37,0.29-0.54c0.66-0.91,1.41-1.82,2.23-3.81c0.46-1.08,0.91-2.36,1.16-4.3c0.29,0.37,0.45,0.87,0.54,1.41
		c0.37,1.94,0.25,3.14-0.21,5.05c-0.16,0.62-0.29,1.2-0.29,1.86c0,1.94,0.91,4.26,2.81,5.67c-0.87-1.99-0.87-3.93-0.46-5.25
		c0.04-0.21,0.12-0.37,0.21-0.58c0.5-0.99,1.08-2.03,1.61-4.1c0.25-1.12,0.49-2.48,0.46-4.43c0.37,0.33,0.58,0.79,0.74,1.32
		c0.7,1.82,0.74,3.06,0.62,5.01c-0.08,0.62-0.12,1.2,0,1.86c0.29,1.94,1.53,4.1,3.64,5.21c-1.16-1.86-1.45-3.81-1.24-5.13
		c0-0.21,0.04-0.41,0.12-0.62c0.33-1.08,0.75-2.15,0.95-4.3c0.04-1.16,0.08-2.52-0.25-4.47c0.37,0.29,0.7,0.7,0.95,1.2
		c0.95,1.7,1.2,2.94,1.36,4.84c0.04,0.66,0.08,1.24,0.29,1.86c0.62,1.86,2.15,3.76,4.43,4.55c-1.45-1.65-2.03-3.52-2.07-4.88
		c0-0.21,0-0.41,0.04-0.62c0.17-1.08,0.41-2.23,0.25-4.38c-0.08-1.16-0.29-2.52-0.91-4.34c0.41,0.21,0.79,0.54,1.12,1.04
		c1.2,1.53,1.66,2.69,2.11,4.55c0.12,0.62,0.29,1.2,0.58,1.78c0.91,1.74,2.73,3.39,5.09,3.81c-1.7-1.36-2.56-3.14-2.81-4.47
		c-0.04-0.21-0.04-0.41-0.04-0.62c0-1.12,0.04-2.28-0.41-4.38c-0.29-1.12-0.7-2.44-1.66-4.18c0.5,0.12,0.91,0.45,1.28,0.87
		c1.45,1.33,2.07,2.4,2.81,4.18c0.25,0.58,0.45,1.12,0.87,1.65c1.16,1.57,3.23,2.94,5.58,2.98c-1.86-1.12-2.98-2.73-3.43-4.01
		c-0.08-0.21-0.12-0.37-0.17-0.58c-0.16-1.12-0.33-2.28-1.12-4.26c-0.46-1.08-1.03-2.32-2.23-3.85c0.5,0.04,0.95,0.25,1.41,0.62
		c1.61,1.08,2.4,2.03,3.39,3.68c0.33,0.54,0.66,1.08,1.12,1.53c1.36,1.37,3.64,2.36,6,2.03c-2.03-0.79-3.39-2.19-4.01-3.39
		c-0.12-0.21-0.21-0.37-0.25-0.58c-0.37-1.08-0.7-2.19-1.78-4.01c-0.62-0.99-1.41-2.11-2.81-3.48c0.46,0,0.95,0.12,1.49,0.41
		c1.74,0.83,2.69,1.66,3.93,3.1c0.41,0.5,0.78,0.95,1.32,1.32c1.57,1.16,3.97,1.78,6.25,1.12c-2.11-0.49-3.68-1.65-4.51-2.77
		c-0.12-0.16-0.25-0.33-0.33-0.5c-0.54-0.99-0.99-2.07-2.36-3.72c-0.79-0.87-1.74-1.86-3.35-2.98c0.5-0.08,0.99,0,1.53,0.17
		c1.86,0.54,2.9,1.24,4.39,2.48c0.49,0.41,0.95,0.79,1.53,1.08c1.74,0.87,4.18,1.16,6.33,0.12c-2.19-0.16-3.89-1.08-4.88-2.03
		c-0.16-0.12-0.29-0.29-0.41-0.46c-0.66-0.91-1.32-1.86-2.9-3.27c-0.91-0.75-2.03-1.57-3.76-2.44c0.46-0.17,0.95-0.17,1.53-0.08
		c1.9,0.25,3.06,0.74,4.67,1.78c0.58,0.33,1.08,0.62,1.7,0.83c1.86,0.58,4.34,0.46,6.29-0.91c-2.19,0.21-4.01-0.41-5.13-1.2
		c-0.16-0.12-0.33-0.25-0.5-0.37c-0.79-0.79-1.57-1.66-3.39-2.81c-0.99-0.58-2.19-1.24-4.1-1.78c0.41-0.25,0.95-0.33,1.49-0.33
		C282.96,268.69,284.16,269.02,285.9,269.76z M249.92,290.81c-14.56,0-26.43-11.87-26.43-26.43c0-14.56,11.87-26.43,26.43-26.43
		c14.56,0,26.43,11.87,26.43,26.43C276.34,278.95,264.47,290.81,249.92,290.81z"/>
	<path class="st0" d="M261.58,243.05c-3.43-2.03-7.49-3.19-11.79-3.19c-4.3,0-8.31,1.16-11.79,3.19c4.1,0.83,8.07,2.15,11.79,3.97
		C253.56,245.2,257.53,243.88,261.58,243.05z"/>
	<path class="st0" d="M247.64,257.4c0.75,0.58,1.45,1.2,2.15,1.82c0.7-0.62,1.41-1.24,2.15-1.82c-0.7-0.58-1.41-1.2-2.15-1.74
		C249.09,256.2,248.39,256.78,247.64,257.4z"/>
	<path class="st0" d="M242.93,251.15c-3.14-1.74-6.49-3.14-9.93-4.22c-0.5,0.5-0.99,0.99-1.41,1.53c3.23,1.12,6.33,2.56,9.31,4.26
		C241.56,252.15,242.26,251.65,242.93,251.15z"/>
	<path class="st0" d="M249.79,263.4c-3.14,3.39-5.91,7.28-8.15,11.62c-1.53,2.9-2.73,5.91-3.64,8.93c3.48,1.94,7.49,3.1,11.79,3.1
		c4.3,0,8.31-1.16,11.79-3.1c-0.91-3.02-2.11-6.04-3.64-8.93C255.71,270.67,252.98,266.79,249.79,263.4z"/>
	<path class="st0" d="M258.73,252.73c2.94-1.7,6.04-3.14,9.26-4.26c-0.41-0.54-0.87-1.04-1.41-1.49c-3.43,1.03-6.74,2.44-9.93,4.18
		C257.36,251.65,258.06,252.19,258.73,252.73z"/>
	<path class="st0" d="M245.53,259.3c-5.67,5.5-10.22,12.32-12.99,20.22c0.79,0.87,1.61,1.66,2.52,2.4c0.33-0.95,0.7-1.9,1.08-2.85
		c2.69-6.87,6.66-12.86,11.54-17.83C246.98,260.58,246.28,259.96,245.53,259.3z"/>
	<path class="st0" d="M243.34,257.52c-0.74-0.58-1.49-1.12-2.27-1.66c-3.31,3.06-6.29,6.62-8.77,10.63
		c-1.45,2.36-2.69,4.8-3.72,7.28c0.5,1.08,1.12,2.07,1.78,3.06C233.21,269.23,237.72,262.73,243.34,257.52z"/>
	<path class="st0" d="M238.87,254.46c-2.73-1.7-5.62-3.1-8.6-4.26c-2.56,3.8-4.05,8.35-4.05,13.28c0,2.44,0.37,4.8,1.08,7.03
		c1.24-2.85,2.81-5.63,4.71-8.27C234.03,259.34,236.35,256.74,238.87,254.46z"/>
	<path class="st0" d="M243.13,254.09c0.79,0.54,1.53,1.03,2.28,1.57c0.7-0.58,1.41-1.12,2.15-1.66c-0.79-0.54-1.53-1.03-2.32-1.53
		C244.54,253.02,243.84,253.55,243.13,254.09z"/>
	<path class="st0" d="M258.52,255.87c-0.74,0.54-1.53,1.08-2.23,1.61c5.58,5.21,10.09,11.75,12.95,19.36
		c0.66-0.99,1.28-2.03,1.78-3.06c-1.03-2.48-2.27-4.92-3.72-7.32C264.8,262.44,261.83,258.89,258.52,255.87z"/>
	<path class="st0" d="M267.62,262.24c1.86,2.65,3.43,5.42,4.71,8.27c0.66-2.28,1.03-4.59,1.03-7.03c0-4.92-1.49-9.47-4.05-13.24
		c-2.98,1.12-5.83,2.52-8.56,4.22C263.27,256.74,265.55,259.34,267.62,262.24z"/>
	<path class="st0" d="M251.9,261.25c4.88,4.96,8.85,10.96,11.58,17.83c0.37,0.95,0.7,1.9,1.04,2.85c0.91-0.74,1.78-1.53,2.56-2.4
		c-2.81-7.9-7.36-14.72-13.03-20.22C253.31,259.96,252.6,260.58,251.9,261.25z"/>
	<path class="st0" d="M247.43,248.26c-3.56-1.82-7.32-3.14-11.21-4.09c-0.62,0.41-1.2,0.87-1.74,1.37
		c3.72,0.99,7.28,2.36,10.63,4.14C245.9,249.17,246.69,248.71,247.43,248.26z"/>
	<path class="st0" d="M254.18,255.7c0.75-0.54,1.49-1.08,2.28-1.57c-0.66-0.58-1.37-1.12-2.07-1.66c-0.79,0.5-1.57,0.99-2.36,1.53
		h0.04C252.77,254.55,253.47,255.12,254.18,255.7z"/>
	<path class="st0" d="M249.79,249.5c-0.79,0.46-1.53,0.95-2.32,1.45c0.79,0.46,1.53,0.95,2.32,1.45c0.79-0.5,1.61-0.99,2.36-1.45
		C251.36,250.45,250.58,249.96,249.79,249.5z"/>
</g>
</svg>
