<?xml version="1.0" encoding="utf-8"?>
<!-- Generator: Adobe Illustrator 26.5.0, SVG Export Plug-In . SVG Version: 6.00 Build 0)  -->
<svg version="1.1" id="Layer_1" xmlns="http://www.w3.org/2000/svg" xmlns:xlink="http://www.w3.org/1999/xlink" x="0px" y="0px"
	 viewBox="0 0 500 500" style="enable-background:new 0 0 500 500;" xml:space="preserve">
<style type="text/css">
	.st0{fill-rule:evenodd;clip-rule:evenodd;fill:#131313;}
</style>
<g>
	<path class="st0" d="M165.77,318.91l39.07-39.08L250,325.01l45.17-45.17l39.07,39.08v-78.15l28.26-28.27l-28.26-28.26v-70.01
		h-18.93v16.69h-15.23v-16.69h-18.24v17.61L250,100l-31.93,31.93v-17.7h-18.24v16.69H184.6v-16.69h-18.83v70.01L137.5,212.5
		l28.27,28.27V318.91z M152.76,212.51L250,115.27l97.24,97.24L250,309.75L152.76,212.51z"/>
	<path class="st0" d="M259.38,205.17c0,1.18,1.32,2.13,2.94,2.13c1.68,0,3-0.95,3-2.13c0-1.17-1.32-2.12-3-2.12
		C260.7,203.05,259.38,204,259.38,205.17z"/>
	<path class="st0" d="M203.82,200.19c2.06-1.76,3.64-4.04,4.79-6.81c1.61-4.03,2.05-8.28,2.78-12.45
		c1.32-7.04,4.47-13.34,9.23-18.69c3.22-3.73,7.34-6.67,11.29-9.82c0.07-0.22,0.15-0.58,0.3-0.88
		c-22.56,6.58-39.89,25.3-44.46,48.66c-0.28,1.37-0.5,2.77-0.68,4.17C194.43,204.99,199.95,203.52,203.82,200.19z"/>
	<path class="st0" d="M247.94,200.19c-0.27,0.34-0.43,0.75-0.43,1.18c0,1.25,1.46,2.34,3.29,2.34c1.83,0,3.38-1.1,3.38-2.34
		c0-0.43-0.16-0.84-0.45-1.18c-0.59-0.7-1.7-1.17-2.93-1.17C249.58,199.02,248.51,199.49,247.94,200.19z"/>
	<path class="st0" d="M266.49,197.63c0-1.84-2.57-3.3-5.72-3.3c-3.22,0-5.79,1.46-5.79,3.3c0,1.03,0.82,1.95,2.12,2.56
		c0.99,0.46,2.27,0.74,3.67,0.74c1.36,0,2.63-0.28,3.62-0.74C265.68,199.58,266.49,198.66,266.49,197.63z"/>
	<path class="st0" d="M256.38,275.67c-8.57,0.22-17.44-2.12-25.87-6.74c-8.13-4.47-15.39-9.97-19.2-18.61
		c-7.18-15.97,1.39-31.29,14.07-31.87c15.9,0.14,19.2,19.56,5.05,24.84c8.57-9.09-3.08-18.03-10.04-9.45
		c-5.79,10.41,1.54,20.59,12.24,26.89c6.45,3.82,13.92,6.09,17.96,6.46c9.6,0.87,18.47-3.74,21.76-7.92H243.7
		c0-2.86,1.1-5.79,7.69-5.93c3.38,0.07,7.55,0.29,10.7,0.37c-2.64-2.35-5.05-4.84-6.89-7.41c-2.78-3.73-5.35-8.72-4.98-13.56
		c0.44-6.74,7.84-10.11,13.63-7.03c3.08,1.68,5.42,4.98,6.45,8.65c0.81,2.71,1.1,5.49,0.88,7.84c3.74-3.96,9.45-17.44-2.56-25.57
		c-5.06-3.45-13.41-3.89-19.13-2.5c-4.98,1.18-9.09,3.15-13.49,2.42c-2.78-0.44-5.42-1.76-7.69-3.95
		c-3.36-3.13-4.06-8.88-1.69-12.39c0.67-1.01,1.6-1.82,2.79-2.34c3.4-1.48,7.65-0.68,9.13,2.34c0.79,1.61,0.81,3.83-0.48,6.67
		c3.58-0.89,5.49-3.72,5.93-6.67c0.3-1.95-0.04-3.95-0.94-5.49c-4.1-7.04-11.36-7.84-18.17-5.49c-5.32,1.77-8.57,5.88-9.21,10.99
		c-0.46,3.57,0.35,7.63,2.61,11.73c-13.49,3.89-24.26,2.5-31.73-2.13c0,0.88-0.07,1.84-0.07,2.71c0,35.03,28.51,63.54,63.53,63.54
		C252.2,276.04,254.33,275.89,256.38,275.67z"/>
	<path class="st0" d="M250.95,188.18c3.96,1.17,8.65,2.49,12.9,3.81c5.86,1.9,11.51,4.33,16.34,8.13c0.03,0.03,0.06,0.04,0.09,0.07
		c4.13,3.29,7.4,7.44,9.22,12.9c1.76,7.62,1.76,14.95,0.88,22.2c1.39-2.13,7.84-15.02,13.26-12.38c3.52,1.68,0.37,11.29-0.51,13.77
		c-2.34,6.37-6.01,12.17-9.23,16.92c-5.14,7.7-11.29,13.27-18.03,16.93c22.2-9.97,37.66-32.17,37.66-58.04
		c0-4.21-0.41-8.33-1.2-12.31c-5.72-29.21-31.44-51.22-62.33-51.22c-3.88,0-7.69,0.37-11.43,1.02c0.14,0.3,0.22,0.58,0.3,0.88
		c2.49-0.37,5.79,0.95,8.5,2.86c0.95,0.66,2.05,1.91,3.15,3.01c0.95,0.95,2.93,2.34,2.78,3.96c-0.08,0.81-1.03,1.54-1.91,2.34
		c-2.12,1.83-3.59,0.58-5.05-0.88c-1.02-1.25-2.78-1.1-3.66-0.22c-0.73,0.73-0.95,1.75-0.3,2.49c0.81,1.02,2.42,1.39,3.59,1.83
		c1.69,0.74,0.59,2.34-0.58,2.94c-1.1,0.58-1.69,0.07-2.57-0.74c-1.75-1.54-3-1.54-3.95-1.46c-2.13,0.07-3.59,2.34-3.96,4.17
		c-0.58,2.34-0.22,4.4,0.51,6.23C238.2,183.71,244.87,186.35,250.95,188.18z"/>
	<rect x="165.77" y="380.35" class="st0" width="168.46" height="19.65"/>
	<g>
		<path class="st0" d="M193.38,355.61c-0.69-0.04-1.35,0-2.04,0h-7.24c-0.19,1.23-0.15,4.2,0.08,5.01c0.19,0,0.39,0.04,0.58,0.04
			c2.89,0,5.74,0,8.63,0.04c1.27,0,2.66-1.08,2.7-2.58C196.07,356.72,194.92,355.64,193.38,355.61z"/>
		<path class="st0" d="M295.17,288.04L250,333.21l-45.16-45.16l-39.07,39.07v47.23h168.47v-47.23L295.17,288.04z M193.68,363.81
			c-3.97,0.04-7.98,0-11.98,0c-0.23,0-0.5-0.04-0.81-0.04v-19.73h15.76c0.12,1,0.12,1.97,0,3.12h-12.6v5.16
			c0.31,0.04,0.58,0.08,0.89,0.08c2.81,0,5.63,0.04,8.44,0c3.12-0.04,5.7,2.31,5.78,5.55C199.27,361.35,196.57,363.78,193.68,363.81
			z M222.93,363.74h-3c-0.19-1.19-0.04-2.43-0.08-3.62c-0.04-1.19,0-2.43,0-3.66v-7.48c-0.92,1.08-1.73,1.96-2.51,2.89
			c-1.89,2.2-3.78,4.39-5.66,6.55c-1.39,1.62-2.77,3.24-4.12,4.89c-0.31,0.35-0.58,0.54-1.04,0.5h-2.27
			c-0.23-0.89-0.27-18.11-0.08-19.77c0.96-0.08,1.93-0.11,3.01,0.04c0.12,1.23,0.04,2.47,0.08,3.66v10.71
			c0.08,0,0.11,0.04,0.19,0.08c0.35-0.35,0.7-0.69,1-1.04c2.24-2.62,4.43-5.2,6.67-7.78c1.47-1.7,2.93-3.39,4.35-5.13
			c0.35-0.46,0.73-0.62,1.27-0.62c0.69,0.04,1.43,0.04,2.2,0.04V363.74z M255.61,363.66c-0.85,0.23-22.97,0.31-25.66,0.08
			c-0.11-3.24-0.04-6.55-0.04-9.82v-9.87h3.16v16.53h8.17c0.11-1.08,0.04-2.16,0.04-3.24c0.04-1.12,0.04-2.2,0.04-3.31v-9.98h3.05
			c0.04,0.46,0.11,0.89,0.11,1.31v15.22h8.01v-16.49h3.01C255.72,344.86,255.8,361.85,255.61,363.66z M275.8,363.78
			c-0.19,0-0.42-0.27-0.62-0.46c-1.54-1.77-3.08-3.54-4.59-5.35c-0.58-0.66-1.12-1.35-1.7-2c-0.19-0.23-0.46-0.46-0.73-0.5
			c-0.96-0.04-1.96,0-3.08,0v8.28c-1.08,0.15-2.08,0.11-3.16,0.04v-19.73h3.12v8.32c1.08,0,2.08,0.08,3.04,0
			c0.31-0.04,0.7-0.35,0.92-0.62c1.97-2.27,3.97-4.58,5.9-6.94c0.46-0.58,0.96-0.89,1.73-0.85c0.89,0.08,1.81,0,2.97,0
			c-0.38,0.58-0.58,0.96-0.89,1.27c-2.43,2.89-4.89,5.78-7.36,8.67c2.7,3.24,5.47,6.36,8.32,9.86
			C278.19,363.85,276.99,363.85,275.8,363.78z M296.61,352.45c0.27,1.08,0.15,2.04,0.08,3.16h-8.21v5.01c1,0.08,2,0.04,3.05,0.04
			h6.28c0.27,1.04,0.11,2,0.15,2.97c-0.85,0.27-10.98,0.31-12.52,0.08v-19.54c0.89-0.19,10.33-0.31,12.45-0.12
			c0.15,1,0.11,1.97,0,3.12h-9.29v5.28H296.61z M320.69,363.7c-0.42,0.08-0.62,0.11-0.85,0.11h-2.62c-0.5,0.04-0.85-0.15-1.15-0.54
			c-1.93-2.31-3.89-4.55-5.82-6.86c-0.58-0.73-1.19-1.12-2.12-1c-0.7,0.08-1.35,0-2.16,0v8.36h-3.12v-19.69
			c1-0.19,1.96-0.08,3.04-0.04c0.12,1.39,0.04,2.74,0.04,4.09c0.04,1.35,0,2.73,0,4.28c1.12,0,2.08,0.04,3.01-0.04
			c0.31,0,0.62-0.23,0.85-0.46c1.19-1.35,2.31-2.7,3.51-4.05c0.96-1.16,1.96-2.31,2.97-3.43c0.19-0.23,0.5-0.39,0.77-0.42
			c1.16-0.04,2.27,0,3.7,0c-2.81,3.51-5.74,6.59-8.4,9.98C315.1,357.23,317.84,360.38,320.69,363.7z"/>
	</g>
</g>
</svg>
