<?xml version="1.0" encoding="utf-8"?>
<!-- Generator: Adobe Illustrator 26.5.0, SVG Export Plug-In . SVG Version: 6.00 Build 0)  -->
<svg version="1.1" id="Layer_1" xmlns="http://www.w3.org/2000/svg" xmlns:xlink="http://www.w3.org/1999/xlink" x="0px" y="0px"
	 viewBox="0 0 500 500" style="enable-background:new 0 0 500 500;" xml:space="preserve">
<style type="text/css">
	.st0{fill:#131313;}
</style>
<g>
	<g>
		<g>
			<path class="st0" d="M215.76,232.24c-1-0.55-2.04-1.12-3.19-1.13c-1.94-0.02-3.88,0.24-5.81,0.26c-1.15,0.01-2.33-0.09-3.44-0.37
				c-1.81-0.46-3.57-1.14-4.93-2.51c-0.64-0.64-1.35-1.28-1.79-2.05c-1.05-1.83-1.97-3.72-2.91-5.61c-0.14-0.27-0.05-0.66-0.08-1.26
				c0.72,0.35,1.22,0.53,1.65,0.81c1.99,1.26,4.18,1.76,6.51,1.72c0.91-0.01,1.83-0.04,2.74,0.01c1.27,0.06,2.53,0.18,3.88,0.28
				c-0.45-0.84-1.19-1.34-2-1.67c-1.07-0.44-2.19-0.77-3.3-1.1c-2.35-0.69-4.71-1.29-6.86-2.54c-2.57-1.49-4.23-3.65-5.2-6.41
				c-0.88-2.5-1.15-5.09-1.23-7.71c-0.02-0.76,0.13-1.47,0.69-2.23c0.37,0.46,0.7,0.85,1.02,1.26c1.57,2,3.56,3.44,5.87,4.46
				c2.3,1.02,4.58,2.05,7.07,3.15c-0.16-0.49-0.23-0.91-0.43-1.28c-0.74-1.4-1.68-2.67-2.95-3.64c-1.22-0.93-2.47-1.82-3.72-2.71
				c-3.66-2.6-5.9-6.05-6.56-10.56c-0.52-3.56,0.06-6.94,1.26-10.26c0.16-0.45,0.44-0.85,0.79-1.51c0.4,0.53,0.74,0.83,0.89,1.2
				c1.14,2.8,2.77,5.28,4.91,7.41c1.79,1.78,3.79,3.29,5.94,4.65c3.35,2.11,6.94,3.71,10.45,5.48c1.55,0.78,3.19,1.41,4.68,2.29
				c1.71,1.01,3.35,2.14,4.92,3.36c2.21,1.71,3.13,4.06,2.74,6.82c-0.27,1.93-1.39,3.42-3,4.52c-0.24,0.16-0.49,0.31-0.74,0.45
				c-1.06,0.58-1.19,0.88-0.57,1.94c1.91,3.3,4.25,6.16,7.53,8.28c3.22,2.08,6.66,3.51,10.35,4.42c1.07,0.27,2.16,0.47,3.35,0.73
				c0-1.12,0.04-2.06-0.03-2.99c-0.02-0.22-0.34-0.44-0.55-0.63c-3.7-3.43-3.61-9.59-0.42-13.03c2.91-3.13,8.2-3.95,12.06-1.39
				c2.22,1.48,3.57,3.65,3.9,6.37c0.27,2.26-0.1,4.37-1.29,6.31c-0.26,0.42-0.53,0.9-0.92,1.16c-1.52,1.03-1.38,2.48-1.2,4.11
				c0.83-0.11,1.62-0.14,2.36-0.32c3.95-0.99,7.79-2.26,11.21-4.58c3.36-2.29,5.97-5.23,7.83-8.83c0.43-0.83,0.37-0.98-0.53-1.42
				c-1.8-0.88-3.07-2.25-3.75-4.13c-0.87-2.41-0.33-4.66,1.27-6.51c1.86-2.15,4.22-3.68,6.8-4.92c4.26-2.05,8.52-4.09,12.66-6.36
				c4.09-2.24,7.75-5.09,10.44-9c0.65-0.95,1.14-2.01,1.68-3.03c0.21-0.4,0.3-0.87,0.54-1.25c0.2-0.32,0.54-0.55,0.82-0.82
				c0.24,0.26,0.58,0.48,0.7,0.78c0.79,1.93,1.4,3.92,1.52,6.01c0.17,2.7,0.11,5.41-0.92,7.98c-0.92,2.29-2.1,4.42-4.1,5.97
				c-1.77,1.37-3.55,2.73-5.37,4.03c-1.55,1.11-2.39,2.72-3.22,4.34c-0.06,0.12-0.01,0.3-0.01,0.49c0.18-0.02,0.32,0.01,0.41-0.05
				c2.25-1.45,4.81-2.23,7.2-3.36c2.22-1.05,4.09-2.5,5.46-4.57c0.13-0.2,0.29-0.38,0.43-0.58c0.73,0.12,0.92,0.62,0.92,1.18
				c-0.01,1.11,0.15,2.21-0.16,3.33c-0.26,0.95-0.17,1.98-0.36,2.96c-0.7,3.47-2.29,6.43-5.33,8.36c-1.31,0.83-2.82,1.37-4.29,1.89
				c-1.8,0.64-3.66,1.09-5.48,1.67c-1.18,0.38-2.3,0.88-3.08,2.12c0.3,0.03,0.46,0.09,0.59,0.05c1.61-0.59,3.28-0.39,4.93-0.43
				c1.37-0.04,2.73-0.15,4.09-0.26c1.58-0.13,2.88-0.97,4.23-1.71c0.3-0.17,0.63-0.29,1.24-0.57c-0.12,0.73-0.12,1.17-0.28,1.55
				c-0.9,2.15-1.91,4.26-3.41,6.05c-1.82,2.18-4.14,3.58-7.05,4.07c-1.56,0.26-3.03-0.01-4.55-0.07c-1.04-0.04-2.08-0.02-3.11-0.07
				c-1.3-0.07-2.41,0.55-3.58,0.95c-0.15,0.05-0.29,0.16-0.43,0.24c0.04,0.08,0.08,0.16,0.11,0.23c0.26,0.01,0.52,0.05,0.78,0.04
				c1.55-0.04,3.04,0.23,4.52,0.7c2.22,0.71,4.46,1.34,6.83,0.62c0.26-0.08,0.82,0.07,0.86,0.22c0.08,0.29-0.01,0.73-0.2,0.98
				c-0.39,0.53-0.85,1.02-1.34,1.45c-1.21,1.05-2.42,2.12-3.71,3.07c-1.28,0.95-2.88,1.17-4.39,1.12c-1.38-0.05-2.76-0.51-4.1-0.91
				c-1.19-0.35-2.31-0.92-3.5-1.26c-1.03-0.3-2.11-0.37-3.3,0.28c0.34,0.19,0.55,0.34,0.79,0.43c0.8,0.33,1.68,0.53,2.39,0.99
				c2.04,1.32,4.15,2.44,6.6,2.77c0.19,0.03,0.36,0.15,0.74,0.31c-0.38,0.32-0.62,0.58-0.91,0.76c-0.85,0.52-1.72,1-2.58,1.51
				c-2.88,1.71-5.78,1.57-8.66,0.05c-0.88-0.46-1.7-1.04-2.51-1.61c-1.02-0.73-2.18-0.98-3.38-1.13c-0.15-0.02-0.31,0.06-0.76,0.15
				c2.18,0.83,3.48,2.39,4.96,3.73c0.5,0.45,1.23,0.64,1.85,0.96c0.46,0.23,0.91,0.46,1.54,0.78c-0.4,0.31-0.59,0.52-0.82,0.64
				c-1.13,0.55-2.32,0.81-3.58,0.98c-1.04,0.14-2.01,0.12-3.04-0.01c-1.41-0.18-2.5-0.81-3.47-1.78c-0.79-0.79-1.59-1.56-2.43-2.3
				c-0.84-0.74-1.87-0.85-2.94-0.68c-1.55,0.25-3.11,0.53-4.66,0.78c-0.73,0.12-0.76,0.64-0.77,1.21c-0.03,1.74-0.04,3.49-0.1,5.23
				c-0.13,3.65-0.3,7.29-0.43,10.94c-0.1,3.07-0.17,6.14-0.24,9.21c-0.03,1.23,0,2.47,0,3.87c0.63-0.22,1.32-0.4,1.97-0.69
				c1.74-0.78,3.47-1.57,5.17-2.42c2.08-1.04,4.09-2.21,5.81-3.81c2.63-2.44,3.33-4.97,2.25-8.43c-0.88-2.84-2.88-4.58-5.26-6.02
				c-1.1-0.66-2.28-1.18-3.42-1.76c-0.72-0.36-0.8-0.57-0.52-1.37c0.35-0.97,0.7-1.93,1.08-2.96c0.5,0.11,0.87,0.13,1.2,0.26
				c3.42,1.32,6.53,3.18,8.8,6.07c3.11,3.96,3.98,8.43,2.08,13.22c-0.36,0.91-0.92,1.8-1.58,2.52c-1.87,2.05-3.87,3.95-6.49,5.11
				c-1.89,0.83-3.68,1.88-5.54,2.78c-1.37,0.66-2.78,1.25-4.27,1.91c0.57,0.72,1.33,1.05,1.99,1.48c2.1,1.38,3.95,3.03,5.32,5.15
				c2.28,3.53,2.35,7.34,1.24,11.25c-0.67,2.33-1.69,4.51-3.24,6.4c-1.51,1.84-3.26,3.42-5.34,4.61c-0.27,0.16-0.51,0.37-1.01,0.73
				c0.34,0.2,0.57,0.31,0.76,0.46c2.25,1.72,3.5,4.04,4.06,6.77c0.57,2.81,0.52,5.64-0.03,8.42c-0.52,2.64-1.34,5.21-2.03,7.82
				c-0.22,0.84-0.42,1.69-0.64,2.53c-0.22,0.84-0.65,1.08-1.46,0.77c-0.81-0.31-1.41-0.8-1.62-1.73c-0.34-1.5-0.15-2.99,0.07-4.46
				c0.4-2.71,1-5.39,1.32-8.1c0.34-2.85,0.1-5.64-1.94-8.07c-0.08,0.2-0.18,0.34-0.18,0.48c-0.05,2.32-0.05,4.64-0.14,6.96
				c-0.09,2.56-0.26,5.13-0.39,7.69c-0.02,0.33-0.03,0.66-0.04,1c-0.07,2.9-0.13,5.8-0.22,8.7c-0.04,1.38-0.5,2-1.56,2.21
				c-1.42,0.28-2.39-0.41-2.47-1.86c-0.09-1.69-0.07-3.39-0.12-5.09c-0.02-0.74-0.14-1.48-0.18-2.23c-0.07-1.24-0.11-2.48-0.15-3.73
				c-0.11-3.15-0.24-6.3-0.32-9.45c-0.04-1.4-0.01-2.81-0.01-4.38c-0.9,0.57-1.16,1.37-1.38,2.1c-0.77,2.51-0.73,5.08-0.32,7.65
				c0.4,2.54,0.87,5.06,1.18,7.61c0.13,1.05,0,2.15-0.17,3.2c-0.15,0.89-0.87,1.39-1.73,1.6c-0.55,0.14-0.93-0.04-1.1-0.67
				c-0.82-3.04-1.77-6.05-2.5-9.11c-0.78-3.26-0.93-6.57-0.25-9.88c0.56-2.73,1.89-5.02,4.06-6.8c0.15-0.13,0.29-0.28,0.49-0.47
				c-1.17-0.89-2.27-1.74-3.38-2.59c-1.78-1.35-3.14-3.04-4.23-4.99c-1.59-2.85-2.45-5.88-2.38-9.15c0.07-3.08,1.2-5.71,3.28-7.98
				c1.65-1.79,3.53-3.24,5.67-4.39c0.07-0.04,0.11-0.12,0.23-0.28c-0.21-0.16-0.4-0.36-0.62-0.46c-2.29-1.07-4.6-2.11-6.89-3.18
				c-2.96-1.37-5.69-3.07-7.95-5.46c-1.72-1.82-2.93-3.88-3.19-6.42c-0.44-4.19,0.66-7.9,3.57-10.97c1.87-1.97,4.1-3.49,6.59-4.6
				c0.53-0.24,1.05-0.5,1.6-0.69c0.85-0.3,1.22-0.09,1.51,0.73c0.22,0.62,0.52,1.22,0.68,1.85c0.24,0.97,0.1,1.28-0.84,1.65
				c-2.07,0.82-3.89,2.05-5.59,3.44c-2.36,1.93-3.98,6.07-2.95,8.97c0.54,1.52,1.5,2.77,2.7,3.82c1.76,1.54,3.75,2.74,5.87,3.71
				c1.96,0.9,3.91,1.81,5.87,2.7c0.14,0.06,0.3,0.09,0.61,0.17c0.06-0.6,0.16-1.12,0.14-1.63c-0.08-3.11-0.2-6.22-0.3-9.33
				c-0.01-0.29-0.05-0.58-0.05-0.87c-0.08-3.32-0.15-6.64-0.24-9.95c-0.06-2.28-0.13-4.56-0.22-6.84c-0.05-1.37-0.26-1.53-1.69-1.74
				c-1.11-0.16-2.21-0.39-3.3-0.63c-1.83-0.41-3.35,0.06-4.61,1.44c-0.53,0.58-1.13,1.11-1.67,1.68c-0.72,0.75-1.63,1.14-2.6,1.39
				c-2.39,0.62-4.68,0.15-6.91-0.75c-0.31-0.13-0.55-0.42-0.96-0.75c0.48-0.23,0.76-0.37,1.05-0.51c0.97-0.47,1.94-0.97,2.55-1.9
				c0.99-1.52,2.48-2.37,4.22-3.14c-1.36-0.22-2.32,0.44-3.3,0.92c-0.74,0.36-1.39,0.9-2.09,1.35c-3.29,2.1-6.61,2.19-9.97,0.17
				c-0.67-0.41-1.35-0.81-1.98-1.27c-0.23-0.17-0.49-0.54-0.44-0.76c0.05-0.23,0.43-0.45,0.7-0.55c0.34-0.13,0.75-0.1,1.09-0.22
				c0.93-0.32,1.89-0.61,2.76-1.06c1.79-0.93,3.43-2.18,5.8-2.54c-0.51-0.25-0.76-0.44-1.05-0.5c-1.26-0.25-2.47-0.07-3.67,0.38
				c-1.52,0.56-3.02,1.17-4.58,1.59c-3.13,0.85-5.9-0.03-8.29-2.12c-1.06-0.93-2.01-1.97-3.02-2.96c-0.06-0.06-0.12-0.11-0.17-0.18
				c-0.27-0.36-0.71-0.77-0.31-1.18c0.21-0.21,0.78-0.23,1.13-0.12c1.52,0.46,3.02,0.36,4.53,0.01c1.85-0.44,3.7-0.9,5.57-1.29
				c0.59-0.12,1.22-0.02,1.83-0.02C215.72,232.43,215.74,232.34,215.76,232.24z M254.09,285.43c-0.5,3.6-0.3,7-0.49,10.37
				c-0.18,3.37-0.25,6.74-0.36,10.16c0.27-0.04,0.41-0.02,0.5-0.08c1.6-1.06,2.93-2.41,4.09-3.92c1.1-1.44,1.68-3.09,2.21-4.81
				c0.75-2.42,0.57-4.61-0.71-6.81C258.1,288.23,256.23,286.89,254.09,285.43z M246.24,285.88c-0.12-0.03-0.23-0.06-0.35-0.09
				c-1.5,1.09-3.06,2.16-4.19,3.64c-1.31,1.71-2.16,3.66-1.73,5.9c0.63,3.31,1.82,6.37,4.44,8.66c0.69,0.6,1.28,1.38,2.47,1.66
				C246.66,298.96,246.45,292.42,246.24,285.88z"/>
		</g>
	</g>
	<g>
		<path class="st0" d="M250,117.05c73.31,0,132.95,59.64,132.95,132.95S323.31,382.95,250,382.95S117.05,323.31,117.05,250
			S176.69,117.05,250,117.05 M250,100c-82.84,0-150,67.16-150,150c0,82.84,67.16,150,150,150c82.84,0,150-67.16,150-150
			C400,167.16,332.84,100,250,100L250,100z"/>
	</g>
	<g>
		<path class="st0" d="M250,150.08c55.1,0,99.92,44.82,99.92,99.92c0,55.09-44.82,99.92-99.92,99.92
			c-55.1,0-99.92-44.82-99.92-99.92C150.08,194.9,194.9,150.08,250,150.08 M250,146.67c-57.07,0-103.33,46.26-103.33,103.33
			S192.93,353.33,250,353.33c57.07,0,103.33-46.26,103.33-103.33S307.07,146.67,250,146.67L250,146.67z"/>
	</g>
	<g>
		<path class="st0" d="M151.17,188.52l-0.76,1.18l6.7,4.3l-2.07,3.22L139,186.91l2.07-3.22l6.56,4.21l0.58-0.91l-3.73-8.61
			l2.56-3.98l3.89,10.34l12.43-0.47l-2.63,4.1L151.17,188.52z"/>
		<path class="st0" d="M157.33,172.32l2.23-2.4c1.49-1.61,3.1-2.49,4.82-2.66c1.72-0.17,3.24,0.37,4.57,1.6
			c1.34,1.24,2,2.74,1.96,4.47s-0.8,3.4-2.28,5l-4.83,5.2l-13.98-12.97l2.6-2.8L157.33,172.32z M159.49,174.32l4.75,4.41l2.23-2.4
			c0.73-0.79,1.06-1.61,0.99-2.47c-0.07-0.86-0.45-1.6-1.13-2.23c-0.65-0.61-1.4-0.91-2.25-0.9c-0.85,0.01-1.63,0.4-2.37,1.19
			L159.49,174.32z M177.26,169.01l-2.6,2.8l-13.98-12.97l2.6-2.8L177.26,169.01z"/>
		<path class="st0" d="M178.35,159.58l4.16,5.52l-3.06,2.3l-11.47-15.24l5.83-4.39c1.75-1.32,3.47-1.91,5.14-1.77
			c1.68,0.14,3.06,0.93,4.16,2.39c1.09,1.46,1.48,3.01,1.14,4.65c-0.34,1.64-1.38,3.12-3.13,4.44L178.35,159.58z M176.58,157.23
			l2.78-2.09c0.85-0.64,1.32-1.36,1.41-2.15c0.09-0.79-0.13-1.55-0.67-2.27c-0.55-0.73-1.23-1.17-2.02-1.32
			c-0.8-0.15-1.63,0.1-2.49,0.74l-2.77,2.09L176.58,157.23z"/>
		<path class="st0" d="M195.85,137.64l-7.54,4.15l7.78,14.12l-3.35,1.85l-9.21-16.7l10.89-6L195.85,137.64z"/>
		<path class="st0" d="M204.64,137.88l3.1-1.07c2.07-0.72,3.9-0.75,5.5-0.09c1.6,0.66,2.69,1.84,3.29,3.56
			c0.6,1.73,0.48,3.35-0.37,4.87c-0.85,1.51-2.31,2.63-4.36,3.34l-6.71,2.33l-6.25-18.02l3.61-1.25L204.64,137.88z M205.61,140.66
			l2.12,6.12l3.1-1.07c1.01-0.35,1.69-0.93,2.03-1.72c0.34-0.79,0.36-1.63,0.06-2.5c-0.29-0.84-0.81-1.46-1.56-1.85
			c-0.75-0.39-1.63-0.41-2.65-0.06L205.61,140.66z M223.79,144.32l-3.61,1.25l-6.25-18.02l3.61-1.25L223.79,144.32z"/>
		<path class="st0" d="M231.55,131.86c1.18-0.18,2.02-0.55,2.52-1.1c0.5-0.55,0.68-1.25,0.55-2.09c-0.11-0.72-0.52-1.28-1.23-1.66
			c-0.7-0.38-1.65-0.48-2.86-0.3c-0.94,0.15-1.69,0.49-2.24,1.04s-0.77,1.18-0.66,1.88l-3.66,0.57l-0.02-0.08
			c-0.3-1.55,0.16-2.92,1.37-4.1c1.2-1.18,2.8-1.93,4.77-2.23c2.29-0.35,4.18-0.17,5.67,0.56c1.48,0.72,2.35,1.95,2.62,3.68
			c0.13,0.86-0.03,1.7-0.48,2.49c-0.45,0.8-1.13,1.48-2.05,2.04c1.17,0.2,2.11,0.62,2.82,1.27c0.71,0.65,1.15,1.51,1.32,2.59
			c0.27,1.73-0.24,3.2-1.52,4.41c-1.28,1.2-3.08,1.98-5.38,2.34c-1.99,0.31-3.77,0.11-5.35-0.59c-1.59-0.7-2.49-1.94-2.71-3.72
			v-0.08l3.68-0.57c0.11,0.73,0.54,1.3,1.28,1.7c0.74,0.39,1.62,0.52,2.66,0.36c1.22-0.19,2.15-0.59,2.79-1.21
			c0.63-0.62,0.89-1.32,0.77-2.1c-0.16-0.99-0.58-1.67-1.29-2.03c-0.7-0.36-1.68-0.45-2.92-0.26l-2.55,0.39l-0.44-2.84
			L231.55,131.86z"/>
		<path class="st0" d="M262.84,126l-8.59-0.48l-0.21,3.75l3.27,0.18c2.19,0.12,3.89,0.79,5.12,2.01c1.23,1.22,1.79,2.73,1.69,4.54
			c-0.1,1.83-0.84,3.28-2.19,4.36c-1.36,1.08-3.13,1.55-5.31,1.43l-7.09-0.4l1.07-19.04l12.41,0.7L262.84,126z M253.87,132.21
			l-0.37,6.47l3.27,0.18c1.07,0.06,1.92-0.21,2.53-0.82c0.62-0.6,0.95-1.37,1-2.29c0.05-0.89-0.2-1.66-0.74-2.31s-1.35-1-2.42-1.06
			L253.87,132.21z"/>
		<path class="st0" d="M276.2,140.51l-6.05-1.26l-2.1,3.76l-3.91-0.82l10.19-17.35l3.83,0.8l2.37,19.98l-3.91-0.82L276.2,140.51z
			 M271.68,136.5l4.22,0.88l-0.69-7l-0.08-0.02L271.68,136.5z"/>
		<path class="st0" d="M297.26,143.58l-1.11-0.46l-3.03,7.36l-3.52-1.45l3.03-7.37l-1.17-0.48l-7,5.73l-4.41-1.82l9.48-7.21
			l-1.92-10.3l4.37,1.8l1.02,8.86l0.9,0.37l2.97-7.2l3.52,1.45l-2.97,7.2l0.85,0.35l6.88-5.6l4.36,1.8l-8.54,5.97l1.56,11.78
			l-4.4-1.81L297.26,143.58z"/>
		<path class="st0" d="M313.27,146.93l2.7,1.86c1.8,1.24,2.92,2.7,3.34,4.37c0.42,1.67,0.11,3.26-0.92,4.75
			c-1.04,1.51-2.41,2.38-4.14,2.59c-1.72,0.22-3.48-0.29-5.28-1.53l-5.85-4.02l10.8-15.72l3.15,2.17L313.27,146.93z M311.6,149.36
			l-3.67,5.35l2.7,1.86c0.88,0.61,1.75,0.81,2.58,0.62c0.84-0.2,1.52-0.68,2.05-1.44c0.5-0.73,0.69-1.52,0.56-2.35
			s-0.64-1.56-1.52-2.17L311.6,149.36z M319.44,166.17l-3.15-2.17l10.79-15.72l3.15,2.17L319.44,166.17z"/>
		<path class="st0" d="M335.98,173.69l-0.04,0.07c-1.4,1.48-2.96,2.17-4.68,2.1c-1.71-0.08-3.37-0.9-4.97-2.48
			c-1.63-1.61-2.42-3.43-2.39-5.46c0.03-2.03,0.87-3.88,2.51-5.54l2.66-2.69c1.63-1.65,3.46-2.52,5.47-2.61
			c2.02-0.09,3.81,0.65,5.4,2.21c1.65,1.63,2.55,3.31,2.68,5.04c0.14,1.73-0.54,3.31-2.01,4.75l-0.08,0.04l-2.64-2.62
			c0.86-0.87,1.29-1.72,1.29-2.57c0-0.84-0.43-1.69-1.31-2.56c-0.81-0.8-1.77-1.1-2.88-0.9c-1.1,0.2-2.17,0.82-3.19,1.86l-2.68,2.71
			c-1.03,1.04-1.63,2.13-1.8,3.26c-0.17,1.14,0.17,2.13,1.03,2.97c0.82,0.8,1.63,1.19,2.45,1.16c0.82-0.03,1.67-0.48,2.54-1.37
			L335.98,173.69z"/>
		<path class="st0" d="M345.29,175.55l1.89,2.68c1.26,1.79,1.79,3.54,1.61,5.26c-0.19,1.71-1.03,3.1-2.51,4.14
			c-1.5,1.06-3.1,1.39-4.78,0.99c-1.69-0.4-3.16-1.49-4.42-3.27l-4.09-5.8l15.59-10.98l2.2,3.13L345.29,175.55z M342.89,177.25
			l-5.3,3.73l1.89,2.68c0.62,0.88,1.35,1.37,2.21,1.48c0.86,0.11,1.66-0.1,2.42-0.63c0.73-0.52,1.18-1.18,1.34-2.02
			c0.17-0.83-0.05-1.68-0.67-2.56L342.89,177.25z M344.38,195.73l-2.2-3.12l15.59-10.98l2.2,3.13L344.38,195.73z"/>
	</g>
	<g>
		<path class="st0" d="M153.1,320.16l-0.84-1.12l-6.38,4.76l-2.29-3.06l15.29-11.4l2.28,3.07l-6.25,4.66l0.64,0.86l9.37-0.47
			l2.82,3.79l-11.05,0.01l-3.93,11.8l-2.91-3.9L153.1,320.16z"/>
		<path class="st0" d="M167.21,333.09l0.06,0.05l9.15-3.29l2.97,2.96l-13.36,4.15l-4.73,4.75l-2.71-2.7l4.87-4.89l4.03-13.16
			l2.97,2.95L167.21,333.09z"/>
		<path class="st0" d="M176.42,344.79l-4.53,6.13l-3.08-2.27l11.33-15.34l5.31,3.92c1.75,1.29,2.82,2.7,3.22,4.22
			c0.39,1.53,0.07,3-0.98,4.43c-0.58,0.78-1.29,1.31-2.13,1.57c-0.84,0.26-1.79,0.28-2.85,0.04c0.71,0.93,1.03,1.86,0.96,2.78
			c-0.06,0.92-0.44,1.84-1.11,2.76l-0.84,1.13c-0.31,0.43-0.59,0.92-0.82,1.47s-0.29,1.05-0.17,1.48l-0.16,0.22l-3.17-2.34
			c-0.12-0.43-0.02-0.94,0.28-1.52c0.31-0.58,0.63-1.11,0.99-1.6l0.8-1.09c0.56-0.77,0.79-1.51,0.69-2.25
			c-0.1-0.74-0.54-1.39-1.31-1.95L176.42,344.79z M178.17,342.42l2.18,1.61c0.86,0.64,1.64,0.93,2.33,0.87
			c0.69-0.05,1.3-0.44,1.83-1.16c0.52-0.7,0.72-1.41,0.6-2.14c-0.12-0.73-0.59-1.4-1.41-2.01l-2.24-1.65L178.17,342.42z"/>
		<path class="st0" d="M198.52,364.14c-0.89,0.41-1.98,0.6-3.29,0.55c-1.31-0.04-2.79-0.49-4.43-1.36c-2.04-1.08-3.37-2.59-4-4.56
			c-0.62-1.97-0.39-3.97,0.68-6.02l1.85-3.52c1.07-2.04,2.58-3.37,4.51-4s3.89-0.42,5.87,0.62c2.06,1.09,3.39,2.41,3.97,3.96
			c0.58,1.55,0.43,3.14-0.47,4.75l-0.06,0.06l-3.19-1.68c0.47-0.9,0.58-1.73,0.32-2.5c-0.26-0.77-0.88-1.42-1.87-1.94
			c-1.03-0.54-2.08-0.58-3.13-0.12c-1.06,0.47-1.91,1.33-2.57,2.59l-1.87,3.55c-0.67,1.28-0.89,2.49-0.67,3.63
			c0.23,1.15,0.89,2.01,1.98,2.58c0.8,0.42,1.48,0.68,2.03,0.76c0.55,0.08,1.02,0.07,1.4-0.04l1.72-3.27l-3.25-1.71l1.23-2.34
			l6.64,3.49L198.52,364.14z"/>
		<path class="st0" d="M211.65,360.88l0.08,0.02l6.81-6.94l3.96,1.37l-10.21,9.55l-2.19,6.34l-3.61-1.25l2.25-6.53l-2.1-13.6
			l3.96,1.37L211.65,360.88z"/>
		<path class="st0" d="M224.15,371.97l8.59,1.66l-0.55,2.88L219.17,374l0.38-1.95l11.01-12.27l-8.32-1.61l0.56-2.89l12.78,2.47
			l-0.36,1.88L224.15,371.97z"/>
		<path class="st0" d="M258.24,371.14l0.03,0.08c0.07,2.03-0.53,3.64-1.79,4.81c-1.25,1.17-3.01,1.78-5.25,1.82
			c-2.29,0.03-4.15-0.67-5.58-2.12s-2.17-3.34-2.2-5.67l-0.06-3.78c-0.04-2.33,0.62-4.24,1.96-5.74c1.35-1.5,3.13-2.27,5.36-2.31
			c2.32-0.04,4.15,0.5,5.47,1.62c1.33,1.11,2,2.7,1.99,4.76l-0.02,0.08l-3.72,0.06c-0.02-1.22-0.33-2.13-0.93-2.72
			c-0.6-0.59-1.51-0.87-2.74-0.85c-1.14,0.02-2.03,0.49-2.65,1.42c-0.63,0.93-0.93,2.13-0.91,3.58l0.06,3.81
			c0.03,1.47,0.39,2.66,1.08,3.57c0.69,0.92,1.64,1.36,2.85,1.34c1.14-0.02,1.99-0.33,2.54-0.94c0.55-0.61,0.82-1.53,0.8-2.77
			L258.24,371.14z"/>
		<path class="st0" d="M274.78,355.94l1.96,12.33c0.34,2.12-0.1,3.89-1.32,5.31c-1.22,1.42-2.95,2.31-5.19,2.67
			c-2.23,0.36-4.14,0.05-5.73-0.93c-1.58-0.98-2.54-2.53-2.88-4.65l-1.96-12.32l3.79-0.61l1.96,12.33c0.2,1.26,0.69,2.17,1.47,2.72
			c0.78,0.55,1.74,0.74,2.89,0.56c1.17-0.18,2.03-0.66,2.61-1.43c0.58-0.78,0.77-1.79,0.56-3.05l-1.96-12.33L274.78,355.94z"/>
		<path class="st0" d="M290.77,365.7c-0.22-0.7-0.65-1.18-1.27-1.45c-0.62-0.27-1.61-0.39-2.95-0.37c-2.3,0.04-4.13-0.19-5.49-0.7
			c-1.36-0.51-2.28-1.5-2.75-2.98c-0.48-1.49-0.26-2.9,0.66-4.24c0.92-1.33,2.33-2.31,4.22-2.92c2.01-0.64,3.8-0.66,5.35-0.04
			s2.57,1.76,3.06,3.42v0.08l-3.53,1.13c-0.29-0.91-0.79-1.51-1.49-1.82s-1.55-0.31-2.54,0.01c-0.9,0.29-1.52,0.73-1.87,1.32
			c-0.35,0.59-0.42,1.22-0.2,1.89c0.2,0.62,0.62,1.03,1.28,1.26c0.66,0.23,1.71,0.35,3.16,0.37c2.18-0.08,3.94,0.17,5.28,0.75
			c1.34,0.57,2.25,1.61,2.73,3.1c0.5,1.55,0.29,2.97-0.64,4.26s-2.39,2.25-4.38,2.89c-1.95,0.63-3.79,0.68-5.5,0.16
			c-1.71-0.52-2.86-1.75-3.43-3.7v-0.08l3.53-1.13c0.35,1.07,0.92,1.76,1.71,2.06c0.79,0.31,1.73,0.28,2.81-0.07
			c0.97-0.31,1.65-0.75,2.03-1.32C290.91,367,290.99,366.38,290.77,365.7z"/>
		<path class="st0" d="M305.08,347.19l-4.9,2.38l7.02,14.51l-3.44,1.67l-7.02-14.52l-4.83,2.34l-1.28-2.65l13.18-6.37L305.08,347.19
			z"/>
		<path class="st0" d="M323.54,344.85c1.32,1.94,1.79,3.96,1.42,6.06c-0.37,2.09-1.54,3.79-3.5,5.12c-1.95,1.32-3.96,1.76-6.04,1.32
			c-2.07-0.45-3.76-1.64-5.07-3.58l-1.92-2.84c-1.3-1.93-1.78-3.94-1.42-6.03c0.35-2.09,1.5-3.79,3.45-5.1
			c1.96-1.32,3.99-1.77,6.07-1.33c2.09,0.44,3.79,1.63,5.09,3.56L323.54,344.85z M318.45,344.12c-0.83-1.23-1.82-2.03-2.97-2.4
			c-1.15-0.38-2.26-0.2-3.35,0.54c-1.07,0.72-1.64,1.68-1.7,2.88c-0.07,1.19,0.32,2.41,1.15,3.63l1.94,2.87
			c0.85,1.25,1.83,2.07,2.97,2.45c1.13,0.39,2.24,0.21,3.32-0.52c1.09-0.73,1.66-1.7,1.74-2.9c0.08-1.2-0.31-2.42-1.16-3.68
			L318.45,344.12z"/>
		<path class="st0" d="M335.71,337.6l0.06-0.06l-6.34-13.47l3.57-3.49l13.35,13.62l-2.73,2.68l-9.11-9.3l-0.07,0.05l5.75,12.61
			l-1.85,1.81l-12.51-6.03l-0.05,0.07l9.13,9.32l-2.73,2.68l-13.34-13.63l3.58-3.51L335.71,337.6z"/>
		<path class="st0" d="M351.54,318.81c-0.59-0.43-1.22-0.57-1.88-0.41c-0.66,0.16-1.53,0.64-2.59,1.45c-1.83,1.4-3.44,2.3-4.83,2.7
			s-2.72,0.15-3.98-0.76c-1.27-0.92-1.93-2.18-1.98-3.81c-0.06-1.62,0.5-3.24,1.66-4.85c1.24-1.71,2.66-2.78,4.28-3.2
			c1.62-0.42,3.11-0.11,4.49,0.93l0.05,0.07l-2.17,3.01c-0.77-0.55-1.54-0.75-2.29-0.58c-0.75,0.17-1.43,0.67-2.03,1.52
			c-0.55,0.77-0.79,1.49-0.73,2.17c0.07,0.69,0.39,1.24,0.96,1.65c0.53,0.38,1.12,0.46,1.78,0.25c0.66-0.21,1.58-0.74,2.76-1.58
			c1.71-1.36,3.27-2.2,4.69-2.53c1.42-0.33,2.76-0.05,4.03,0.87c1.33,0.95,2,2.22,2.02,3.81c0.02,1.58-0.58,3.23-1.81,4.93
			c-1.2,1.66-2.64,2.8-4.33,3.39c-1.69,0.6-3.34,0.29-4.96-0.93l-0.05-0.07l2.17-3.01c0.92,0.66,1.78,0.87,2.6,0.64
			c0.82-0.23,1.56-0.8,2.22-1.72c0.6-0.83,0.88-1.59,0.85-2.27C352.43,319.78,352.12,319.23,351.54,318.81z"/>
	</g>
	<g>
		<path class="st0" d="M132.33,243.2c-3.53,0-6.39,2.86-6.39,6.39c0,3.53,2.86,6.39,6.39,6.39c3.53,0,6.39-2.86,6.39-6.39
			C138.72,246.06,135.86,243.2,132.33,243.2L132.33,243.2z"/>
	</g>
	<g>
		<path class="st0" d="M367.82,243.2c-3.53,0-6.39,2.86-6.39,6.39c0,3.53,2.86,6.39,6.39,6.39c3.53,0,6.39-2.86,6.39-6.39
			C374.2,246.06,371.34,243.2,367.82,243.2L367.82,243.2z"/>
	</g>
</g>
</svg>
