<?xml version="1.0" encoding="UTF-8"?>
<svg id="Layer_1" data-name="Layer 1" xmlns="http://www.w3.org/2000/svg" viewBox="0 0 299.99 300">
  <path d="M151.36,0C67.33-.7,.6,67.07,0,148.82c-.58,83.15,66.51,150.54,148.85,151.18,82.81,.6,151.14-66.3,151.14-150.03C299.96,67.49,233.57,.69,151.36,0Zm-1.61,288.05c-76.13-.12-137.72-61.93-137.84-138.18C12.16,72.87,74.81,11.82,150.21,11.91c76,.12,138.02,62.19,137.84,138.39-.12,75.19-61.26,137.88-138.3,137.75Z"/>
  <path d="M50.25,173.95h0s-.1,0-.1,0l.06,.03h.02s-.02,0-.02,0c.01,0,.02,.02,.04,.03,0-.02,0-.04,0-.05,0,0,0,0,0,0Z"/>
  <path d="M254.36,147.04c-.05-.55-.09-1.09-.3-1.82-.21,.39-.34,.63-.48,.85-2.33,4.41-5.84,7.44-10.44,9.28-1.78,.71-3.53,1.43-5.29,2.15-1.53,.6-2.96,1.36-4.32,2.29-.18,.12-.3,.37-.55,.25-.05-.04-.09-.09-.05-.12,0-.18,.05-.34,.09-.55,.81-2.72,2.45-4.87,4.62-6.65,.97-.81,1.98-1.53,3.03-2.29,1.96-1.39,3.9-2.84,5.68-4.48,1.82-1.75,3.3-3.69,4.44-5.93,2.29-4.5,3.09-9.31,2.58-14.36-.37-3.85-1.43-7.5-3.09-10.97-.09-.21-.12-.46-.51-.42-.76,2.17-1.64,4.32-2.75,6.35-1.39,2.63-3,4.92-3.97,5.68-.39-1.02-.21-2.12-.6-3.14-.42-.12-.79-.25-1.22-.37-13.9-4.14-27.74-8.31-41.63-12.49l-17.78-5.34c-.34-.07-.72-.12-1.18-.21-.04,.63-.46,1.06-.39,1.75,.42,.16,.85,.37,1.27,.51,12.91,4.69,25.82,9.44,38.73,14.13,6.44,2.33,12.88,4.66,19.31,7.04,.46,.16,.93,.37,1.48,.63-.81,.88-1.61,1.69-2.42,2.36-.58,.05-1.06-.25-1.52-.42-3.93-1.36-7.83-2.75-11.73-4.14-2.88-1.02-5.71-1.99-8.55-3.05-.93-.34-1.61-.25-2.29,.39-.37,.37-.71,.76-1.27,.88-.34-.12-.71-.25-1.01-.42-4.71-2.15-9.4-4.36-14.09-6.56-5.98-2.75-11.99-5.59-17.99-8.34-.35-.16-.69-.51-1.2-.34-.28,.46-.58,.88-.71,1.52,.42,.26,.85,.48,1.22,.69,6.95,3.76,13.88,7.5,20.8,11.22,2.82,1.52,5.66,3.05,8.5,4.57,.3,.18,.67,.3,.85,.63-.42,.42-.46,.48-.67,.39-.39-.18-.78-.39-1.11-.55-4.87-2.72-9.68-5.38-14.55-8.1-1.66-.93-1.48-.76-2.72,.09-.04,.04-.09,.04-.21,.09-.42-.26-.85-.48-1.27-.78-3.51-2.12-7.02-4.23-10.55-6.3-.37-.21-.67-.55-1.18-.51-.34,.46-.72,.93-1.15,1.45-1.9-1.45-3.76-2.84-5.66-4.29,3.76-5.8,5.2-12.06,3.88-18.84-1.31-6.81-4.87-12.15-10.58-16.05-10.07-6.81-23.74-5.33-32.21,3.81-8.47,9.12-9.31,24.06,.46,34.38-.21,.48-.63,.69-1.01,.93-2.03,1.53-4.11,3.05-6.19,4.57-1.78,1.32-3.51,2.63-5.29,3.9-.16,.12-.34,.34-.58,0,.71-.64,1.48-1.27,2.19-1.9,.78-.63,1.53-1.27,2.26-1.9,.71-.67,1.52-1.22,2.2-1.94-.35-.39-.6-.72-.86-1.06-.07-.09-.21-.18-.42-.34-2.54,1.85-4.99,3.81-7.57,5.71-.55-.42-1.15-.69-1.53-1.32,1.41-.97,2.75-1.85,4.11-2.79,1.36-.97,2.8-1.82,4.11-2.93-.3-.58-.55-1.09-1.06-1.52-3.17,1.9-6.26,3.76-9.35,5.63q-1.27-.6-2.42-.09c-2.12,.97-4.23,1.96-6.35,2.88-.3,.14-.55,.42-.97,.21,.42-.25,.85-.46,1.22-.67l16-8.64c.39-.21,.85-.34,1.15-.79-.25-.48-.55-.97-.85-1.53-.63,.3-1.18,.51-1.69,.78-7.87,3.63-15.7,7.32-23.58,10.95-.49,.26-1.01,.48-1.48,.69q-1.22-1.36-2.91-.72c-.09,0-.18,.04-.26,.09-9.44,3.39-18.87,6.72-28.31,10.11-.39,.14-.78,.21-1.2,.35-.92-.72-1.76-1.48-2.54-2.5,2.68-.97,5.22-1.9,7.71-2.84,2.54-.93,5.08-1.87,7.62-2.75,2.54-.93,5.08-1.87,7.62-2.79,2.5-.93,5.01-1.83,7.5-2.72,2.54-.93,5.08-1.87,7.62-2.79,2.54-.93,5.08-1.87,7.62-2.75,2.5-.93,5.08-1.87,7.58-2.8,2.54-.93,5.08-1.82,7.66-2.84-.25-.64-.3-1.22-.72-1.69-2.06,.51-60.69,18.13-61.72,18.56-.39,.92-.09,2.03-.6,2.96-.07-.09-.21-.12-.25-.21-.25-.34-.51-.64-.76-.99-2.29-3.12-4.02-6.47-5.34-10.11-.07-.3-.12-.6-.46-.76-.18,.25-.25,.46-.39,.67-1.43,3.14-2.4,6.44-2.82,9.86-.39,3.02-.39,5.98,.16,8.94,1.06,5.38,3.69,9.82,7.92,13.28,1.78,1.48,3.69,2.84,5.54,4.23,.99,.78,1.9,1.48,2.84,2.29,.97,.85,1.82,1.87,2.45,3,.69,1.11,1.23,2.29,1.48,3.74-.28-.14-.42-.21-.55-.3-1.43-1.06-3-1.87-4.69-2.5-1.78-.72-3.51-1.43-5.29-2.15-1.39-.55-2.72-1.27-3.93-2.12-2.59-1.78-4.62-4.02-6.14-6.77-.21-.34-.3-.81-.72-.97-.05,.07-.09,.16-.09,.25-.09,2.24-.18,4.48-.18,6.74,0,2.7,.42,5.36,1.23,7.95,1.31,4.02,3.47,7.41,6.86,9.98,2.28,1.75,4.87,2.88,7.65,3.6l6.35,1.66c2.17,.6,4.02,1.73,5.56,3.35,.16,.16,.25,.34,.37,.55-.12,.04-.16,.09-.21,.09-.12-.05-.25-.05-.37-.09-1.57-.6-3.17-.81-4.83-.81-2.15-.04-4.36-.12-6.56-.16-3.81,0-7.2-1.27-10.19-3.65-.39-.3-.81-.55-1.2-.85,0,.26,0,.51,.09,.72,1.27,3.26,2.75,6.44,4.53,9.44,3.69,6.26,10.76,9.28,17.18,8.38,1.06-.12,2.12-.28,3.17-.34,1.11-.09,2.26-.12,3.35-.09,1.9,.09,3.65,.78,5.26,1.75,.16,.09,.25,.25,.42,.46h-1.36c-1.52-.04-3.05,.09-4.57,.51-1.69,.51-3.39,.97-5.13,1.36-.93,.25-1.9,.37-2.88,.46-2.12,.18-4.2-.04-6.17-.67-.35-.12-.72-.12-1.06-.18v.02c.04,.18,.07,.32,.21,.46,2.15,2.58,4.44,5.03,6.93,7.27,2.38,2.08,5.17,3.05,8.34,3.14,1.9,.09,3.77-.3,5.56-1.02,1.64-.67,3.3-1.39,4.9-2.03,2.15-.79,4.27-.79,6.56,.12-.34,.14-.51,.26-.72,.3-1.85,.42-3.51,1.27-5.12,2.2-.97,.6-1.9,1.18-2.88,1.78-2.05,1.22-4.23,1.85-6.61,1.82h-1.99c.3,.25,.48,.46,.72,.6,1.82,1.18,3.65,2.45,5.56,3.51,4.66,2.54,9.26,2.33,13.76-.51,.97-.63,1.94-1.31,2.91-1.94,1.06-.72,2.24-1.15,3.47-1.41,.67-.12,1.09-.07,1.82,.14-.04,.04-.09,.16-.12,.16-1.52,.76-2.79,1.87-3.93,3.09-.39,.39-.72,.78-1.11,1.11-1.34,1.36-2.88,2.36-4.66,2.96-.76,.25-1.52,.42-2.33,.58-.12,.05-.37-.04-.37,.26,.09,.09,.12,.16,.21,.21,2.12,.85,4.23,1.64,6.47,2.24,.81,.21,1.66,.34,2.45,.34,3.05,0,5.68-1.01,7.8-3.21,.72-.72,1.36-1.53,2.06-2.29,.9-.97,2.05-1.61,3.32-1.94,.28-.09,.63-.05,1.06-.05-.21,.26-.3,.42-.42,.51-.78,.69-1.32,1.48-1.83,2.33-.37,.6-.76,1.15-1.13,1.75-1.11,1.76-2.59,3.17-4.53,4.06-.21,.09-.42,.25-.85,.55,2.15,.3,4.11,.6,6.01,.81,.58,.09,1.22,0,1.82-.09,2.63-.34,4.69-1.69,6.39-3.63,.42-.48,.76-.99,1.11-1.48,.71-1.02,1.55-1.96,2.61-2.68,.72-.46,1.5-.79,2.35-.92,1.39-.21,2.45,.49,2.79,1.9,.09,.46,.12,.92,.04,1.39-.12,.79-.28,1.64-.58,2.42-.51,1.36-1.06,2.7-1.66,3.97-.79,1.69-1.64,3.35-2.45,5.04-.42,.88-.81,1.78-1.11,2.72-.28,.88-.49,1.82-.28,2.75,.28,1.55,1.09,2.36,2.66,2.61,.25,.05,.51,.09,.81,.18-.05,.39-.09,.72-.14,1.02-.25,1.55-.07,3.09,.39,4.57,.51,1.43,1.31,2.66,2.63,3.51,.21,.12,.34,.25,.55,.42-.21,.88-.46,1.73-1.15,2.29-.72-.09-1.18-.42-1.64-.85-.39-.35-.72-.72-1.15-1.02-.93-.67-1.99-1.02-3.14-.88-1.82,.25-3.05,2.03-2.58,3.81,.34,1.18,1.18,1.9,2.28,2.4v1.48c-.04,.81,.26,1.48,.85,1.99,.93,.9,2.47,1.18,3.9,.72-.3-.25-.55-.51-.76-.81-.64-.76-.39-1.52,.6-1.82,.63-.21,1.27-.09,1.85,.21,1.02,.51,2.08,.55,3.14,.48,.42-.05,.85-.21,1.27-.21,.42-.05,.93-.09,1.36,0,.67,.12,.92,.85,.49,1.39-.12,.21-.34,.34-.49,.46-.18,.18-.39,.26-.69,.48,.6,.21,1.06,.42,1.57,.55,1.57,.34,3.05-.6,3.56-2.2,.42-1.48-.26-2.84-1.78-3.47-.39-.16-.81-.25-1.18-.42-.85-.42-1.57-1.01-1.83-1.99-.07-.21,0-.42,0-.79,1.15,1.15,2.26,2.03,3.6,2.58,1.45,.6,2.89,.69,4.32,.6,2.24,3.42,7.2,4.14,10.21,0,.55,0,1.13,.04,1.76,0,.56-.05,1.11-.18,1.62-.3,.58-.18,1.18-.39,1.69-.67,.49-.26,.97-.56,1.39-.9,.46-.37,.88-.79,1.36-1.18,.04,.12,.12,.21,.12,.3-.18,1.18-.93,1.9-1.96,2.36-.42,.21-.88,.3-1.31,.51-1.73,.81-2.24,2.75-1.15,4.32,.51,.72,1.23,1.15,2.08,1.31,.79,.12,1.57-.09,2.42-.67-.35-.26-.72-.48-.99-.76-.49-.6-.25-1.36,.51-1.48,.48-.09,.93-.09,1.39,0,1.57,.34,3.14,.37,4.62-.39,.51-.25,1.06-.25,1.66-.09,.92,.34,1.13,1.06,.49,1.87l-.37,.37c-.18,.18-.39,.26-.26,.6,.99,.09,1.9,.09,2.84-.3,1.32-.55,1.99-1.78,1.78-3.17-.04-.3-.09-.58-.12-.93,.88-.16,1.52-.76,1.99-1.48,1.31-1.98,0-4.6-2.38-4.73-1.01-.09-1.94,.21-2.75,.79-.51,.34-.93,.76-1.39,1.18-.46,.39-.93,.78-1.52,.78-.85-.93-.93-1.15-1.15-2.38,.16-.12,.37-.25,.58-.37,1.15-.81,1.96-1.87,2.42-3.17,.34-.85,.55-1.78,.55-2.72,0-1.06-.04-2.12-.07-3.26,.25-.04,.49-.04,.76-.09,1.61-.25,2.58-1.34,2.66-2.96,.04-.67,.04-1.39-.21-2.06-.34-.9-.67-1.82-1.06-2.72-.72-1.52-1.48-3-2.24-4.53-.81-1.69-1.66-3.42-2.2-5.24-.3-.9-.51-1.83-.46-2.75,.07-1.87,1.43-2.89,3.25-2.5,.99,.21,1.83,.72,2.59,1.36,.81,.67,1.52,1.48,2.12,2.42,.55,.85,1.23,1.61,1.99,2.33,2.36,2.06,5.08,3.09,8.25,2.54,.25-.05,.55-.05,.79-.09,1.32-.21,2.68-.42,4.16-.64-.3-.21-.42-.34-.6-.42-2.2-.9-3.81-2.45-4.99-4.5-.21-.37-.48-.71-.69-1.06-.25-.37-.49-.79-.76-1.18-.25-.34-.51-.67-.79-.97-.3-.34-.64-.63-1.02-1.02,.21-.04,.34-.07,.46-.07,1.48,.21,2.75,.85,3.81,1.9,.69,.76,1.36,1.52,2.08,2.28,.88,.97,1.9,1.75,3.09,2.33,2.42,1.15,4.96,1.45,7.5,.69,2.12-.63,4.15-1.45,6.23-2.17,.16-.04,.25-.21,.51-.37-.35-.05-.56-.09-.81-.14-2.84-.49-5.26-1.85-7.2-3.97-.34-.39-.72-.72-1.09-1.11-.93-1.01-2.05-1.85-3.32-2.54-.16-.07-.46-.12-.37-.46,1.99-.18,3.76,.42,5.41,1.48,1.06,.67,2.08,1.45,3.14,2.12,4.18,2.54,8.54,2.79,12.91,.55,2.19-1.09,4.23-2.54,6.3-3.85,.18-.09,.26-.26,.39-.39-.09-.09-.12-.12-.18-.12h-.67c-3.02,.21-5.71-.55-8.22-2.2-.85-.55-1.69-1.01-2.54-1.52-1.52-.93-3.09-1.69-4.87-2.08-.21-.04-.42-.12-.76-.25,.39-.18,.63-.3,.88-.39,1.99-.55,3.99-.51,5.89,.3,1.52,.6,3,1.23,4.53,1.87,1.06,.46,2.2,.79,3.33,.97,4.11,.58,7.8-.42,10.88-3.17,2.5-2.2,4.74-4.62,6.91-7.16,.07-.12,.16-.3,.28-.51-.76,0-1.34,.3-1.94,.48-2.45,.64-4.9,.72-7.37,.21-1.73-.39-3.51-.85-5.24-1.36-1.99-.55-4.02-.85-6.1-.72-.18,.05-.39,0-.67,0,.34-.51,.76-.67,1.18-.88,2.03-1.11,4.18-1.48,6.47-1.32,1.48,.09,2.96,.21,4.44,.42,1.61,.21,3.17,.21,4.74-.04,5.54-.88,9.77-3.72,12.66-8.55,1.76-3,3.21-6.17,4.48-9.44,.09-.18,.21-.34-.04-.51-.48,.34-.93,.72-1.41,1.06-2.91,2.24-6.17,3.44-9.86,3.44-2.24,.04-4.48,.12-6.72,.16-1.57,0-3.14,.21-4.66,.76-.21,.09-.42,.26-.72,0,.16-.21,.34-.42,.51-.58,1.69-1.69,3.67-2.84,6-3.44,2.2-.55,4.44-1.06,6.61-1.69,6.68-1.94,11.13-6.23,13.49-12.73,.85-2.42,1.32-4.96,1.41-7.5,.07-2.15,0-4.32,0-6.44ZM126.08,252.32c-.3,.3-.6,.56-.88,.81v-.93c.04-.21,.04-.46,.07-.67,.18-.48,.63-.69,1.11-.48,.21,.14,.39,.3,.6,.48-.18,.42-.65,.55-.9,.79Zm47.11-.92c.3-.3,.65-.56,1.11-.35,.42,.18,.51,.6,.51,1.06-.05,.35-.09,.69-.14,1.02-.55-.51-1.06-1.02-1.55-1.48,0-.09,.04-.18,.07-.25Zm8.73-134.03c1.94,1.31,3.93,2.66,5.89,4.02,.04,.04,.07,.12,.12,.21,0,.21-.18,.34-.39,.28-.12-.04-.25-.07-.34-.16-1.82-1.39-3.69-2.75-5.5-4.11-.12-.09-.18-.25-.25-.42,.16,.04,.34,.04,.46,.18Zm-.55-.21c-.34,0-.6-.21-.76-.51,.37-.05,.63,.16,.76,.51Zm-1.11-.9c-.16-.04-.34-.09-.49-.16,.21,0,.37,0,.49,.16Zm-77.34,4.66l.05,.09-.09-.04,.04-.05Zm-38.4,11.36c5.2-1.87,10.46-3.74,15.66-5.59,1.62-.55,3.26-1.15,4.87-1.69,.3-.14,.6-.18,.93-.26,.05,.26,.05,.51,.34,.69,.63,.3,1.23,.67,1.87,1.01,.42,.21,.67,.56,.85,1.02,.3,.93,.51,1.9,.97,2.84,.69-.34,1.15-.85,1.66-1.32,.55-.42,1.06-.88,1.61-1.34,.51-.48,1.06-.9,1.57-1.36,.37,.04,.76,.12,1.09,.07,.3,0,.6-.19,.9-.34,4.14-1.85,8.25-3.72,12.35-5.59,.42-.21,.85-.37,1.27-.55q0,.55-.71,1.69c-.35,.55-.63,1.15-1.06,1.66-.42,.51-.93,.93-1.41,1.36-.46,.42-.97,.85-1.52,1.31,.42,1.45,1.18,2.72,1.78,4.11,1.36-.12,2.54-.72,3.85-.93,.48,.3,.76,.81,1.11,1.23,.55,.64,1.13,1.22,1.69,1.85,.85,.05,1.64,.09,2.49,.14h1.02c.51-1.27,.51-2.59,.76-3.81,.21-1.27,.39-2.5,.6-3.65,.67-.46,1.27-.88,1.85-1.31,3.3-2.47,6.61-4.87,9.91-7.34,.3-.21,.6-.42,.93-.63-.09,.85-.39,1.53-1.39,3.23-.93,.25-1.9,.51-2.89,.79,.18,1.02,1.06,3.74,1.83,5.43,2.79,1.06,5.66,2.15,8.5,3.21,.3-.21,.12-.42,.04-.63-1.01-2.24-2.03-4.48-3.03-6.74-.21-.42-.39-.85-.6-1.34,.76-.93,1.52-1.87,2.33-2.8h.72c.34,0,.63-.16,.85-.42,.3-.34,.58-.72,.88-1.06,3.39-4.11,6.83-8.17,10.21-12.28,.25-.3,.55-.58,.79-.88,.6,.21,.76,.64,.93,1.06,.55,1.64,1.09,3.26,1.66,4.96-.56,1.09-1.48,1.98-2.17,3.12,.12,.21,.26,.42,.42,.63,3.65,4.2,7.28,8.34,10.97,12.54,.16,.16,.37,.37,.55,.49,.12,0,.18,0,.21-.04v-.12c.04-.12,.04-.25,.04-.42,0-.21-.04-.48-.04-.69v-.28c-.04-.6-.09-1.2-.12-1.83,0-.76-.05-1.55-.05-2.36-.04-1.66-.07-3.35-.07-5.04v-.25s.04-.09,.04-.12c1.52-1.48,3.09-2.96,4.69-4.5,.21,.21,.51,.39,.6,.6,.3,.67,.63,1.36,.81,2.08,.37,1.34,1.09,2.45,2.15,3.33,.6,.51,1.15,1.11,1.73,1.66-.07,.58-.42,.97-.64,1.43-.16,.3-.16,.63,0,.93,.09,.18,.18,.34,.26,.51l3.93,7.25c.18,.25,.34,.49,.6,.85,.72-.99,1.39-1.87,2.06-2.84,.81,.28,1.48,.72,2.17,1.06,.67,.28,1.36,.63,2.06,.97,1.41-.85,2.54-1.99,3.99-2.96,.09,.04,.3,.04,.46,.09,.48,.16,.9,.04,1.27-.3,.63-.51,1.32-1.06,1.96-1.57,.51-.39,.97-.76,1.39-1.15,2.33,.81,5.17,2.96,7.07,5.47-.63,.39-1.32,.81-1.96,1.18v.21c0,.05,.05,.09,.09,.09,2.45,1.66,4.87,3.26,7.32,4.9,.14,.09,.26,.09,.48,.18,1.09-.93,2.28-1.87,3.47-2.84,.16,.05,.34,0,.49,.05,.51,.16,.9,.04,1.32-.3,1.31-1.11,2.66-2.17,4.02-3.26,.58-.51,1.22-.97,1.73-1.39,.64,.04,.97,.34,1.27,.76,.9,1.23,1.78,2.5,2.72,3.72,.21,.34,.51,.63,.81,1.02,.55-.05,1.09-.09,1.64-.12,1.27-.18,2.59-.35,3.86-.51,.49-.05,.92-.05,1.39,.12,2.54,.93,5.08,1.9,7.57,2.84,.18,.04,.35,.16,.56,.3-.3,.25-.51,.49-.78,.67-2.54,1.9-5.24,3.56-8.04,5.08-.49,.3-1.01,.39-1.61,.3-1.82-.26-3.69-.48-5.54-.72-3.23-.46-6.44-.97-9.67-1.45-.49-.07-.92,.09-1.27,.42-.67,.69-1.39,1.41-2.06,2.08-.34,.34-.69,.63-1.06,1.02l-1.53-.64c-4.23-1.9-8.41-3.81-12.61-5.68-1.64-.72-1.43-.88-2.96,.39-1.52,1.22-3.05,2.45-4.57,3.67-.3,.26-.64,.51-1.02,.81-.46-.21-.71-.64-.92-1.02-.51-.67-1.11-.76-1.87-.49-1.31,.42-2.66,.79-3.99,1.31-.88,.34-1.64,.3-2.54-.09-5.96-2.33-11.98-4.66-17.99-6.98-1.39-.55-1.39-.88-2.7,.63-.85,.97-1.69,1.99-2.54,2.96-.14,.12-.3,.26-.48,.39-1.43-.42-2.84-.85-4.27-1.27-2.17-.6-1.48-.63-3.6,.16-4.15,1.69-8.31,3.39-12.45,5.04-.37,.18-.76,.34-1.22,.51-.3-.21-.64-.48-.99-.69-1.18-.92-2.36-1.82-3.51-2.79-.76-.6-1.39-.67-2.29-.25-3,1.43-6.09,2.79-9.14,4.18-1.94,.9-3.9,1.82-5.84,2.66-.3,.18-.6,.26-.97,.39-.39-.25-.72-.51-1.11-.81-1.85-1.39-3.76-2.79-5.63-4.18-.25-.18-.51-.39-.76-.55-.39-.26-.81-.35-1.23-.18-.34,.18-.67,.3-1.01,.46-3.56,1.66-7.07,3.32-10.64,4.96-.21,.09-.42,.18-.64,.3-.46,.25-.88,.25-1.36,.04-.71-.37-1.52-.67-2.28-1.01-3.56-1.61-7.07-3.3-10.46-5.29-2.24-1.32-4.36-2.72-6.4-4.32-.28-.21-.55-.46-.88-.76,.42-.3,.81-.42,1.18-.55Zm78.07,67.54c.41-.04,.49,.25,.65,.49,1.38,2.13,4.23,2.13,5.71,0,.16-.19,.35-.39,.6-.69,.28,1.83-.25,3.16-1.64,4.09-1.18,.79-2.45,.79-3.69,0-1.39-.93-1.89-2.26-1.64-3.9Zm-1.9-1.55c-1.38-.93-1.87-2.28-1.62-3.9,.39-.05,.49,.25,.63,.49,1.39,2.12,4.25,2.12,5.73,0,.14-.19,.34-.41,.58-.69,.3,1.82-.25,3.16-1.62,4.09-1.18,.78-2.47,.78-3.7,0Zm6.17-3.9c.39-.05,.49,.25,.63,.49,1.39,2.12,4.25,2.12,5.73,0,.14-.19,.34-.41,.58-.69,.3,1.82-.25,3.16-1.62,4.09-1.18,.78-2.47,.78-3.7,0-1.38-.93-1.87-2.28-1.62-3.9Zm0,10.95c.39-.04,.49,.25,.63,.49,1.39,2.13,4.25,2.13,5.73,0,.14-.19,.34-.39,.58-.69,.3,1.83-.25,3.16-1.62,4.09-1.18,.79-2.47,.79-3.7,0-1.38-.93-1.87-2.26-1.62-3.9Zm5.17-1.61c-1.39-.93-1.89-2.26-1.64-3.9,.41-.04,.49,.25,.65,.49,1.38,2.13,4.23,2.13,5.71,0,.14-.19,.35-.39,.6-.69,.28,1.83-.25,3.16-1.64,4.09-1.18,.79-2.45,.79-3.69,0Zm.3-39.26c-.72-.35-1.22-.21-1.78,.16-.34,.26-.67,.55-1.18,.34,.63-.58,1.23-1.18,1.82-1.76,.56-.56,1.23-.93,2.05-1.11,.63-.16,1.27-.12,1.82,.34-.18,.42-.34,.85-.55,1.23-.42,.93-1.23,1.27-2.17,.81Zm2.59,8.04c.42-1.66,1.52-2.75,3.12-3.26,.48-.18,.93-.26,1.36-.34,1.06-.26,1.9-.72,2.54-1.62,.04-.07,.09-.16,.09-.25,0-.04,0-.12-.05-.25-1.61,0-3.3,.07-4.9-.81,.67-.67,1.39-1.18,2.2-1.57,1.22-.51,1.78-.34,2.63,.76,.04,.09,.12,.14,.21,.18,.88-1.23,.76-2.72-.39-3.63-.67-.56-1.48-.81-2.33-.85-.97-.09-1.94-.05-2.96,.25-1.15-.63-2.42-.97-3.72-.76-1.45,.21-2.8,.67-4.02,1.52-1.27,.85-2.38,1.96-3.35,3.17-1.48,1.9-2.54,4.11-3.33,6.4-.81,2.33-1.32,4.74-1.69,7.2-.39,2.33-.72,4.69-1.45,6.98-.25,.85-.51,1.69-.88,2.45-1.2,2.45-3.17,3.85-5.86,4.36-1.64,.34-3.3,.3-4.99,.09-3-.34-5.96-.88-8.89-1.73-5.84-1.75-11.18-4.44-15.79-8.43-3.05-2.66-5.59-5.75-7.46-9.37-.49-.92-.92-1.9-1.22-2.91,.21-.48,.67-.51,1.06-.69,1.99-.92,3.55-2.33,4.69-4.23,2.33-3.85,1.9-8.89-.88-12.28-.93-1.13-2.03-2.06-3.23-2.91-1.27-.85-2.61-1.57-4.02-2.24-1.27-.6-2.54-1.15-3.81-1.69-.28-.14-.58-.3-.88-.42,.09-.14,.12-.21,.21-.26,3.42-1.64,6.9-3.26,10.34-4.82,.71,.16,1.06,.64,1.27,1.22,.49,1.27,.42,2.59-.09,3.81-.26,.6-.6,1.18-.85,1.78-.26,.46,0,.85,.55,.76,.72-.04,1.48-.09,2.2-.3,1.22-.37,2.45-.85,3.69-1.27,.34-.12,.71-.34,1.06-.25,.71,.12,1.27-.18,1.85-.42,4.83-2.2,9.65-4.44,14.48-6.65,.34-.16,.67-.34,1.06-.42,.12-.04,.34,.09,.46,.21,.09,.09,.14,.39,.05,.48-.21,.28-.48,.58-.72,.85-.3,.25-.63,.42-.88,.67-.78,.67-.85,1.52-.39,2.42,.39,.64,.88,1.09,1.52,1.39,.81,.46,1.66,.88,2.5,1.23,2.45,.97,4.99,1.61,7.53,2.15,1.99,.42,4.02,.72,6.07,1.09,.25,.05,.55,.05,.79,0,.12,0,.3-.12,.3-.25s-.04-.39-.18-.46c-.28-.18-.58-.26-.88-.39-2.54-.97-4.99-2.08-7.37-3.42-.67-.39-1.31-.85-1.94-1.27-.25-.18-.39-.42-.64-.63,.21-.18,.34-.3,.51-.39,4.96-1.99,9.9-4.02,14.82-5.96,1.22,1.13,1.52,2.36,.85,3.67-.26,.56-.64,1.02-.97,1.53-.56,.63-1.11,1.27-1.62,1.9-.37,.46-.67,.93-.76,1.48-.09,.37,0,.67,.48,.85,.25-.18,.55-.39,.79-.63,2.12-2.03,4.23-4.07,6.35-6.1,.48-.37,.85-.85,1.48-.97,.34-.04,.63-.39,.9-.63,.71-.81,1.39-1.61,2.06-2.45,.34-.39,.72-.72,1.06-1.15,.81,.18,1.57,.42,2.17,.93,.88,.72,1.73,1.43,2.49,2.2,1.53,1.55,2.2,3.46,2.08,5.63-.09,.79-.21,1.64-.34,2.49-.05,.42-.18,.9-.26,1.45,.21,.04,.48,.18,.64,.12,.39-.12,.72-.37,1.11-.58,3.3-1.96,6.81-3.47,10.49-4.5,.37-.12,.85-.3,1.18-.16,.69,.16,1.18,0,1.78-.18,.3-.09,.6-.09,.93-.12-.05,.12-.09,.25-.18,.34-.97,1.15-1.99,2.33-3,3.47-1.66,1.82-3.65,3.17-5.98,4.02-.25,.09-.55,.16-.76,.34-.09,.04-.18,.25-.12,.34,0,.12,.12,.3,.25,.3,.97,.18,1.96,.12,2.93,0,2.45-.39,4.6-1.39,6.47-3.05,.97-.85,1.9-1.82,2.84-2.7,.76-.69,1.48-1.41,2.24-2.08,.26-.21,.51-.46,.9-.34,.58,.12,.97-.21,1.34-.55,1.66-1.32,3.26-2.63,4.87-3.95,.51-.42,.99-.76,1.41-1.13,.55,0,.85,.25,1.09,.58,.63,.81,1.31,1.61,1.9,2.42,.72,.97,1.39,1.99,2.12,2.96,.72,.97,1.45,1.94,2.24,2.84,1.99,2.24,4.57,3.33,7.5,3.69,.12,.04,.25,.04,.42,.04,.12,0,.25,.04,.39,.04,.07,.35-.14,.42-.3,.56-.72,.46-1.45,.88-2.08,1.43-.72,.63-1.43,1.32-2.06,2.08-4.02,4.78-3.05,13.21,3.76,16.42,.39,.18,.76,.34,1.18,.55-.07,.3-.12,.55-.21,.81-1.48,3.6-3.63,6.74-6.3,9.49-4.02,4.14-8.77,7.06-14.06,9.17-4.14,1.66-8.43,2.72-12.88,3.14-1.31,.09-2.58,.21-3.9,.21-1.94,.04-3.81-.42-5.57-1.18-3.1-1.32-5.29-3.56-6.65-6.65-.81-1.82-1.32-3.77-1.61-5.75-.18-1.23-.3-2.5-.48-3.74-.12-1.01,0-1.99,.26-2.91Zm50.53-25.91c-.37-.76-.46-1.57-.25-2.42,.18-.51,.39-.93,.97-1.09,.3-.09,.6-.39,.9-.63,.76-.78,1.48-1.53,2.24-2.29,.16-.18,.37-.39,.58-.55,.26-.18,.72-.12,.9,.16,.21,.35,.37,.72,.58,1.11,.39,.85,.99,1.48,1.83,1.82,.88,.39,1.76,.72,2.7,1.09,.21,.09,.39,.18,.85,.35-3.39,1.52-6.51,2.88-9.74,4.3-.58-.49-1.15-1.09-1.57-1.85Zm-90.63,64.94c-1.57,.58-2.93,1.48-4.02,2.7-.56,.63-1.11,1.27-1.66,1.9-2.03,2.12-4.99,2.93-7.83,2.17,.09-.14,.12-.26,.21-.35,.93-.88,1.9-1.76,2.84-2.7,.3-.26,.55-.51,.79-.76,1.23-1.23,2.72-1.99,4.32-2.47,1.66-.46,3.3-.63,4.96-.85,.3,0,.6,.05,.88,.05-.16,.09-.34,.21-.49,.3Zm22.47,.97c-.67,3.21-1.36,6.39-1.94,9.61-.42,2.2-.85,4.39-1.15,6.6-.25,1.87-.18,3.72,.04,5.59,.14,1.23,.14,2.5,.21,3.77,0,.21,0,.46-.07,.67-.42,1.82-.85,3.6-1.41,5.38-.37,.09-.46-.12-.58-.3-.48-.67-.72-1.45-.81-2.24-.16-1.23-.09-2.5,.18-3.72,.34-1.53,.76-3.02,1.15-4.5,.07-.42,.25-.85,.28-1.48-.34,.26-.55,.39-.76,.6-.55,.46-1.06,1.01-1.64,1.48-.48,.37-.99,.67-1.53,.93-.63,.28-1.06,0-1.01-.63,0-.42,.04-.85,.16-1.23,.3-.81,.63-1.57,.97-2.33,1.06-2.24,2.2-4.44,3.23-6.68,.76-1.61,1.36-3.26,1.64-5.04,.21-1.06,.18-2.12-.12-3.17-.67-2.08-2.42-3.39-4.57-3.47-1.61-.09-3.05,.39-4.36,1.23-1.41,.93-2.47,2.15-3.44,3.47-.37,.55-.72,1.09-1.18,1.55-1.31,1.41-2.88,2.35-4.83,2.54-.07,0-.16-.07-.28-.12,.04-.07,.04-.25,.07-.34,.6-.93,1.23-1.87,1.83-2.84,.67-1.15,1.61-2.03,2.79-2.66,.93-.55,1.9-.97,2.88-1.45,.6-.25,1.18-.46,1.78-.67,.04-.34-.12-.39-.34-.46-1.53-.6-3.02-1.2-4.66-1.48-1.02-.18-2.03-.21-3.05-.05-.42,.05-.85,.09-1.31,.12,.12-.12,.21-.25,.37-.42-.76-.46-1.52-.85-2.33-1.18-1.18-.51-2.36-1.06-3.6-1.43-3.72-1.23-7.28-.81-10.53,1.43-.93,.69-1.9,1.36-2.89,1.99-3.17,1.9-6.47,2.08-9.9,.55-.26-.09-.48-.25-.69-.37-.04-.3,.21-.35,.35-.42,1.06-.6,2.12-1.15,3.17-1.78,.85-.48,1.64-1.02,2.49-1.48,1.99-1.18,4.11-1.78,6.4-1.75,1.69,.05,3.33,.18,5.08,.26-.05-.09-.05-.26-.09-.3-1.48-1.31-2.88-2.66-4.53-3.77-1.23-.76-2.5-1.39-3.93-1.73-2.38-.51-4.66-.39-6.86,.51-1.78,.72-3.51,1.48-5.33,2.15-3.53,1.32-6.86,.76-10-1.31-1.02-.69-1.87-1.66-2.79-2.54,.16-.12,.25-.26,.37-.26,2.75-.16,5.38-1.06,8.04-1.76,1.66-.48,3.35-.81,5.08-.6,1.32,.12,2.59,.39,3.86,.67,1.31,.3,2.63,.69,3.9,1.02,.16,.04,.34,.09,.64,.18-.09-.21-.09-.35-.14-.42-1.18-1.48-2.28-2.96-3.55-4.37-1.99-2.19-4.5-3.6-7.37-4.23-1.61-.34-3.21-.46-4.87-.25-1.87,.25-3.72,.46-5.59,.51-2.96,.12-5.71-.69-8.2-2.24-2.2-1.32-3.95-3.14-5.17-5.38-.39-.63-.72-1.32-1.02-1.9,.12-.34,.34-.21,.48-.18,2.33,.63,4.69,.85,7.06,.81,1.41,0,2.8,.09,4.2,.04,2.45-.09,4.69,.55,6.81,1.75,1.32,.71,2.59,1.52,3.86,2.28,.39,.21,.72,.42,1.06,.63,.34-.21,.12-.42,.04-.58-.49-1.36-1.01-2.72-1.57-4.02-1.76-4.2-4.94-6.83-9.22-8.13-2.42-.72-4.87-1.27-7.32-1.9-3-.85-5.68-2.29-7.87-4.59-1.78-1.85-3.02-4.02-3.81-6.42-.72-2.08-1.15-4.23-1.32-6.44v-.51c.34-.21,.48,.04,.63,.18,2.17,1.94,4.62,3.42,7.37,4.48,1.69,.63,3.33,1.36,5.03,2.03,2.2,.85,4.16,2.12,5.8,3.81,.72,.76,1.48,1.57,2.2,2.33,.21,.18,.42,.34,.72,.55,.21-2.19,.3-4.3-.09-6.39-.67-3.56-2.45-6.53-5.17-8.89-.97-.93-2.06-1.73-3.17-2.54-1.78-1.39-3.69-2.72-5.41-4.2-4.02-3.39-6.17-7.83-6.81-13.03-.39-2.84-.21-5.66,.34-8.47,.04-.34,.16-.63,.25-.93,.34,.09,.3,.39,.34,.55,2.63,7.71,7.28,13.9,13.72,18.86,3.14,2.4,6.47,4.52,10.04,6.35,3,1.55,6.1,3,9.14,4.52,1.06,.51,2.17,1.06,3.17,1.69,1.02,.63,1.83,1.45,2.54,2.38,1.57,1.99,1.02,5.17-1.73,6.26-.88,.34-1.87,.55-2.84,.6-.76,.04-1.48,.04-2.24,.07-.21,.39,0,.72,.09,1.06,1.01,3.39,2.49,6.61,4.32,9.67,4.87,7.99,11.38,14.27,19.63,18.66,3.3,1.78,6.83,2.96,10.42,3.99,3.72,1.01,7.53,1.69,11.43,1.99,2.54,.16,5.12,.07,7.62-.42h.34c.34,.42,.3,.92,.39,1.43,.67,3.44,2.06,6.56,4.18,9.37,1.11,1.39,2.33,2.66,3.86,3.63,1.76,1.18,3.72,1.82,5.93,1.73,1.39-.04,2.79-.21,4.14-.42,.25-.04,.46-.07,.67-.07,.3,0,.48,.16,.51,.42,.04,.25,.04,.55,0,.79-.3,1.78-.97,3.39-2.08,4.87-1.06,1.39-2.49,1.83-4.18,1.62-1.27-.14-2.33-.69-3.14-1.66-.63-.72-1.22-1.53-1.82-2.29-.55-.72-1.02-1.43-1.57-2.15-.51-.63-1.01-1.23-1.57-1.78-1.18-1.18-1.9-1.48-3.72-1.69-.09,.09-.21,.21-.21,.3Zm17.87,37.25c-.42-.09-.85-.18-1.23-.25h-.34c-.42,.28-.51,.85-.72,1.27-.63,1.31-1.64,1.9-3.03,1.82-1.2-.05-2.12-.6-2.68-1.69-.16-.42-.37-.85-.55-1.32-.58-.16-1.09,.05-1.64,.14-2.47,.46-4.87-.6-6.19-2.63-.09-.18-.12-.34-.25-.6,.55-.67,1.15-1.36,1.61-2.06,.51-.72,.85-1.53,1.31-2.33,.05-.05,.14-.09,.21-.09,1.57-.09,2.42-1.06,2.96-2.42,.42-1.06,.6-2.2,.72-3.39,.26-2.79,.6-5.54,1.36-8.25,.18-.67,.39-1.36,.63-1.99,.72-1.78,1.36-2.54,2.63-3.42,.85,.46,1.57,1.09,1.99,1.99,.46,.88,.88,1.85,1.18,2.79,.58,1.73,.88,3.56,1.15,5.33,.21,1.53,.34,3.05,.55,4.59,.09,.76,.25,1.48,.51,2.15,.49,1.57,1.48,2.58,3.25,2.63,.26,.55,.48,1.15,.78,1.64,.28,.51,.67,.99,1.01,1.48,.39,.48,.76,.93,1.11,1.41-1.23,2.4-3.74,3.63-6.31,3.21Zm4.76-51.49c-1.18,.78-2.47,.78-3.7,0-1.38-.93-1.87-2.28-1.62-3.9,.39-.05,.49,.25,.63,.49,1.38,2.12,4.25,2.12,5.73,0,.14-.19,.34-.41,.58-.69,.3,1.82-.25,3.16-1.62,4.09Zm35.21,16.47c1.09,1.09,2.28,2.2,3.39,3.26,.09,.09,.09,.16,.12,.34-1.36,.39-2.75,.34-4.06-.04-1.48-.39-2.75-1.15-3.77-2.29-.51-.51-.97-1.02-1.45-1.52-1.18-1.45-2.66-2.47-4.39-3.02-.18-.09-.3-.16-.42-.25,.34,0,.67-.09,.97-.05,1.69,.21,3.35,.39,4.96,.85,1.78,.51,3.33,1.41,4.66,2.72Zm53.21-50.22c-2.29,3.44-5.56,5.56-9.52,6.65-2.2,.6-4.41,1.18-6.61,1.75-2.7,.67-5.12,1.99-7.11,3.97-1.09,1.11-2.03,2.33-2.63,3.77-.63,1.57-1.27,3.21-1.85,4.83-.05,.04,0,.16,0,.25,.21,.18,.34,0,.46-.09,1.11-.67,2.17-1.36,3.23-1.99,1.69-1.01,3.42-1.9,5.41-2.24,.63-.09,1.27-.16,1.94-.16,1.61-.05,3.26-.09,4.87-.09,2.5,0,4.96-.12,7.32-.9,.09,0,.18,.05,.35,.09-.35,.9-.81,1.75-1.32,2.59-2.58,4.02-6.26,6.39-11.04,7.02-1.78,.25-3.51-.04-5.29-.18-1.23-.12-2.5-.34-3.77-.37-3.72,0-7.02,1.15-9.86,3.63-1.78,1.61-3.17,3.47-4.53,5.47,0,.04,.04,.09,.04,.16,.48,0,.9-.16,1.36-.25,1.75-.46,3.51-.93,5.29-1.31,1.9-.42,3.86-.35,5.8,.21l4.71,1.27c1.18,.28,2.36,.55,3.6,.64,.28,0,.63-.05,.88,.28-2.24,2.84-5.12,4.44-8.73,4.59-1.52,.07-2.96-.26-4.36-.81-1.57-.63-3.12-1.27-4.66-1.9-3.72-1.52-7.28-1.18-10.71,.88-1.87,1.11-3.42,2.54-4.96,4.07v.21h.63c1.78-.18,3.56-.3,5.34-.21,1.73,.09,3.39,.58,4.9,1.39,.55,.3,1.06,.6,1.61,.88,1.61,.99,3.26,1.96,4.92,2.96,0,.3-.3,.35-.51,.48-3.44,1.57-6.83,1.39-10.04-.51-1.02-.63-1.94-1.31-2.88-1.99-3.23-2.24-6.68-2.63-10.42-1.52-1.85,.58-4.09,1.61-5.96,2.7,.04,.14,.12,.3,.18,.42-.26,0-.56,0-.81-.04-1.78-.42-3.51-.12-5.2,.39-1.11,.34-2.2,.79-3.26,1.13-.04,.35,.09,.42,.3,.48,.72,.3,1.48,.55,2.2,.88,.92,.42,1.82,.9,2.7,1.45,.93,.55,1.66,1.36,2.2,2.28,.63,.99,1.27,1.96,1.9,2.93,.09,.12,.09,.26,.12,.42-1.64,0-3-.67-4.23-1.61-.79-.63-1.43-1.36-1.99-2.2-.71-1.09-1.55-2.08-2.54-2.93-1.06-.92-2.28-1.61-3.69-1.9-.85-.21-1.69-.21-2.49-.04-2.12,.39-3.65,2.08-3.93,4.2-.14,1.09-.09,2.15,.21,3.21,.28,1.36,.76,2.66,1.34,3.93,1.11,2.33,2.26,4.62,3.35,6.95,.39,.85,.72,1.69,1.06,2.58,.09,.26,.12,.56,.18,.81,.04,.72-.42,1.09-1.06,.81-.51-.21-1.02-.51-1.45-.85-.6-.48-1.09-.99-1.66-1.48-.21-.18-.42-.39-.63-.56-.37,.26-.16,.51-.07,.78,.34,1.48,.76,2.96,1.13,4.44,.3,1.18,.48,2.36,.42,3.6-.04,1.06-.28,2.03-.85,2.91-.12,.18-.28,.3-.49,.55-.14-.25-.26-.42-.3-.58-.39-1.45-.76-2.88-1.15-4.32-.3-1.09-.3-2.2-.21-3.3,.12-1.23,.3-2.42,.42-3.65,.18-1.73-.09-3.42-.39-5.12-.67-3.81-1.43-7.62-2.19-11.39-.78-3.93-.99-7.87-.51-11.8,.21-1.78,.42-3.53,.63-5.29,0-.14,.09-.26,.12-.42,.3,0,.55-.05,.81,0,2.33,.42,4.66,.55,6.98,.37,2.19-.12,4.44-.34,6.65-.76,4.3-.81,8.5-1.99,12.56-3.63,4.2-1.69,7.97-4.11,11.43-6.95,6.01-4.9,10.67-10.83,13.9-17.87,.79-1.73,1.48-3.51,1.98-5.33,.05-.21,.05-.48,.09-.72-.58-.18-1.15-.09-1.69-.09-1.18-.04-2.33-.12-3.42-.64-1.27-.55-2.12-1.45-2.5-2.79-.3-1.06-.21-2.05,.39-2.96,.58-1.02,1.43-1.83,2.36-2.54,.97-.72,2.03-1.32,3.14-1.78,4.27-1.96,8.5-4.02,12.61-6.4,3.3-1.94,6.44-4.06,9.37-6.56,5.08-4.39,8.8-9.74,11.08-16.03,.18-.48,.39-.93,.6-1.41,0-.04,.04-.07,.12-.16,.21,.3,.21,.58,.26,.88,.79,4.32,.79,8.61-.6,12.84-1.06,3.17-2.79,5.87-5.2,8.17-1.53,1.43-3.23,2.7-4.92,3.93-1.09,.81-2.19,1.57-3.25,2.42-1.27,1.01-2.47,2.15-3.44,3.47-1.99,2.61-2.96,5.54-3.09,8.8-.09,1.15,0,2.24,.04,3.39,0,.16,.09,.34,.09,.46,.39,.05,.48-.16,.63-.34,.85-.85,1.66-1.73,2.54-2.58,1.57-1.57,3.39-2.8,5.47-3.6,1.82-.72,3.6-1.48,5.41-2.2,2.58-1.02,4.96-2.42,7.02-4.29,.18-.16,.35-.42,.72-.34-.21,4.07-1.09,7.92-3.42,11.34Z"/>
  <path d="M278.88,112.34c-.55-2.08-1.23-4.11-1.87-6.16-.05-.19-.21-.35-.35-.6-.05,.19-.09,.28-.11,.37-.26,2.36-1.01,4.53-2.47,6.44-.65,.85-1.25,1.75-1.62,2.77-.02,.07-.14,.09-.3,.18-.02-.23-.05-.44-.09-.65-.09-.88-.19-1.75-.25-2.63-.04-.64-.21-1.18-.53-1.71-.62-1.06-1.22-2.12-1.8-3.16-.09-.16-.26-.3-.04-.53,.74,.41,1.52,.6,2.38,.32,.97-.35,1.69-.95,2.13-1.89,.37-.76,.55-1.57,.58-2.43,.04-1.75-.28-3.44-.93-5.04-.78-1.94-1.64-3.85-2.49-5.77-.09-.19-.23-.35-.37-.55-.07,.12-.11,.16-.11,.21-.02,.28-.04,.55-.05,.83-.12,1.78-.44,3.53-1.27,5.12-.69,1.36-1.5,2.63-1.92,4.37-.21-.99-.42-1.71-.53-2.45-.23-1.46-.81-2.73-1.78-3.86-.6-.71-1.11-1.48-1.64-2.22,.3-.23,.49-.05,.71,.02,.93,.26,1.75,.02,2.5-.53,.74-.55,1.25-1.27,1.43-2.17,.11-.63,.14-1.31,.12-1.94-.09-1.9-.74-3.67-1.62-5.31-.99-1.8-2.08-3.53-3.14-5.29-.05-.09-.19-.14-.37-.25,0,.3-.02,.53,0,.76,.21,2.33-.14,4.55-1.11,6.68-.34,.71-.49,1.5-.74,2.24-.07,.23,.02,.53-.3,.71-.14-.41-.25-.76-.37-1.09-1.22-3.49-.69-2.56-3.14-5.17-.44-.48-.93-.88-1.31-1.48,.26-.18,.48-.02,.69,.02,.95,.16,1.75-.16,2.43-.79,1.02-.92,1.34-2.1,1.22-3.42-.07-.88-.28-1.73-.6-2.58-.6-1.57-1.39-3.05-2.42-4.39-.99-1.29-1.99-2.58-3.02-3.85-.11-.16-.19-.41-.53-.34,.04,.23,.09,.46,.12,.67,.44,1.94,.56,3.88,.02,5.82-.39,1.38-.83,2.73-.78,4.46-.26-.42-.39-.62-.49-.81-.35-.71-.71-1.41-1.02-2.15-.34-.79-.83-1.43-1.5-1.96-.83-.69-1.64-1.38-2.47-2.08-.14-.12-.26-.3-.51-.58,.41,.04,.63,.05,.86,.05,1.09,.09,1.87-.46,2.47-1.31,.56-.79,.76-1.69,.65-2.65-.11-1.02-.34-2.05-.85-2.93-.55-.93-1.09-1.87-1.75-2.7-1.45-1.89-3.19-3.53-4.89-5.19-.05-.05-.16-.07-.23-.09-.12,.37,.09,.69,.19,1.02,.51,1.69,.79,3.42,.56,5.2-.19,1.5-.58,2.96-.26,4.74-.34-.44-.51-.65-.65-.88-.42-.67-.85-1.32-1.25-2.01-.41-.69-.95-1.23-1.62-1.68-.86-.55-1.71-1.09-2.56-1.68-.21-.14-.37-.35-.56-.53,.18-.04,.34-.05,.49-.09,1.78-.26,2.8-1.43,2.88-3.21,.05-1.16-.28-2.2-.83-3.19-.83-1.53-1.92-2.86-3.25-3.99-1.41-1.22-2.88-2.38-4.32-3.55-.16-.12-.39-.18-.58-.25-.07,.49,.26,.86,.42,1.27,.53,1.36,.97,2.72,.99,4.18,.04,1.68-.21,3.33,.26,5.22-.37-.41-.56-.6-.74-.81-.76-.9-1.39-1.92-2.29-2.63-.88-.72-2.03-1.11-3.05-1.68-.41-.21-.88-.32-1.2-.78,.3-.09,.55-.19,.81-.25,.69-.16,1.16-.58,1.53-1.13,.51-.78,.72-1.61,.6-2.54-.16-1.04-.55-1.98-1.18-2.8-.6-.76-1.23-1.52-1.96-2.17-.86-.78-1.8-1.5-2.77-2.13-4.23-2.8-8.68-5.27-13.21-7.55-.3-.16-.6-.41-1.04-.3,.23,.65,.49,1.2,.64,1.78,.21,.93,.78,1.48,1.62,1.92,2.79,1.52,5.52,3.12,8.27,4.69,.28,.16,.56,.32,.83,.51,.49,.39,.62,.93,.37,1.76-.37-.23-.72-.46-1.08-.67-2.66-1.53-5.33-3.09-7.99-4.6-.21-.12-.44-.39-.79-.09,.23,.72,.49,1.46,.69,2.22,.14,.55,.44,.9,.93,1.13,.39,.19,.74,.41,1.09,.62,2.31,1.41,4.62,2.82,6.95,4.2,.9,.53,1.2,1.29,1.16,2.26-.32-.18-.63-.34-.93-.51-2.5-1.55-4.99-3.1-7.5-4.64-.19-.12-.41-.35-.78-.18,.05,.39,.12,.79,.19,1.25-.41,.18-.83,.35-1.34,.58,.44,.28,.78,.49,1.13,.72,2.45,1.53,4.9,3.07,7.34,4.6,.21,.14,.39,.34,.67,.6-.39,0-.63-.05-.85,0-.79,.18-1.43-.11-2.08-.53-2.36-1.48-4.76-2.93-7.16-4.37-.35-.21-.74-.39-1.09-.56-.92,.3-1.82,.58-2.7,.86-.04,.02-.09,.05-.11,.09-.02,.04-.02,.07-.05,.26,3,1.64,6.05,3.32,9.03,5.29-.88,.55-1.57,.56-2.4,.05-2.43-1.46-4.92-2.84-7.39-4.25-.44-.25-.92-.44-1.36-.67-.99,.39-1.96,.65-2.95,1.22,.32,.18,.51,.3,.71,.39,4.06,2.01,7.97,4.27,11.78,6.7,.74,.48,1.52,.9,2.29,1.32,1.08,.58,2.22,.97,3.42,1.18,.95,.16,1.89,.04,2.73-.35,1.38-.6,2.31-1.57,2.2-3.21-.02-.18,.02-.34,.05-.49,.18,.12,.37,.23,.51,.39,.48,.51,.95,1.02,1.38,1.59,.88,1.18,1.98,2.08,3.32,2.68,.44,.19,.85,.42,1.23,.67,.16,.07,.26,.23,.53,.48-1.53-.11-2.84,.19-4.14,.55-1.87,.49-3.77,.49-5.68,.19-.18-.02-.41-.18-.6,.14,1.76,1.38,3.51,2.77,5.29,4.13,.88,.67,1.89,1.18,2.95,1.59,.97,.37,1.96,.55,3,.42,1.8-.19,2.95-1.39,3.1-3.19,0-.11,.07-.21,.11-.37,.51,.32,.76,.78,1.01,1.22,1.09,1.96,2.58,3.51,4.53,4.64,.25,.14,.46,.39,.83,.72-1.39-.26-2.59-.18-3.79,0-1.76,.26-3.53,.25-5.27-.18-.44-.11-.9-.19-1.59-.34,.78,.81,1.36,1.43,1.98,2.05,1.06,1.04,2.12,2.08,3.21,3.1,.86,.79,1.85,1.41,2.91,1.9,.92,.41,1.87,.62,2.86,.51,1.13-.11,2.06-.6,2.65-1.59,.26-.46,.35-1.04,.53-1.62,.16,.21,.34,.41,.46,.64,.49,.92,.97,1.82,1.41,2.73,.34,.69,.78,1.27,1.36,1.75,.63,.55,1.27,1.11,1.89,1.68,.14,.12,.39,.23,.26,.55-1.22-.51-2.49-.51-3.74-.44-1.8,.11-3.51-.23-5.2-.83-.37-.14-.78-.26-1.39-.46,.49,.65,.83,1.13,1.2,1.59,1.11,1.38,2.2,2.75,3.35,4.11,.71,.88,1.61,1.55,2.56,2.17,.86,.56,1.83,.86,2.88,.93,1.2,.09,2.93-.74,3.28-2.13,.05-.21,.18-.41,.3-.74,.19,.41,.35,.69,.48,.99,.35,.9,.74,1.82,1.04,2.73,.23,.63,.53,1.18,.99,1.68,.56,.62,1.11,1.25,1.66,1.89,.12,.14,.37,.26,.23,.58-1.04-.48-2.15-.67-3.26-.76-1.98-.12-3.83-.67-5.61-1.55-.26-.12-.51-.37-.86-.3,0,.12-.04,.23,.02,.3,1.06,1.73,2.12,3.49,3.25,5.2,.65,1.02,1.46,1.92,2.4,2.72,.65,.55,1.34,.99,2.17,1.25,2.08,.67,3.77-.14,4.6-2.28,.12,.25,.26,.44,.32,.63,.3,1.09,.58,2.17,.83,3.26,.14,.65,.42,1.22,.81,1.76,.51,.71,1.01,1.45,1.5,2.17,.09,.12,.26,.3,.02,.44-.46-.19-.93-.42-1.41-.58-.53-.18-1.06-.35-1.61-.44-2.06-.37-3.93-1.15-5.64-2.35-.18-.12-.35-.26-.6-.19,0,.09-.04,.19,0,.26,1.02,2.29,2.01,4.6,3.32,6.76,.53,.9,1.18,1.69,1.99,2.33,.51,.39,1.08,.74,1.66,1.01,.83,.39,1.71,.37,2.59,.09,.85-.28,1.46-.79,1.76-1.66,.04-.09,.19-.11,.34-.19,.14,1.01,.28,1.92,.41,2.84q.25,2.06,1.27,3.93c.23,.41,.44,.81,.65,1.23,.09,.19,.3,.37,.07,.64-.99-.74-2.1-1.2-3.26-1.57-1.78-.6-3.4-1.48-4.83-2.72-.25-.21-.51-.41-.88-.69,.04,.3,.04,.48,.09,.63,.53,1.64,1.02,3.3,1.62,4.9,.39,1.04,.9,2.05,1.41,3.03,.41,.79,.99,1.46,1.66,2.06,.53,.49,1.13,.83,1.8,1.04,1.52,.44,2.7,.04,3.69-1.23,.07-.09,.18-.14,.37-.3,.05,.55,.12,.95,.14,1.36,.04,1.02,.05,2.05,.04,3.07,0,.62,.23,1.09,.65,1.48,.58,.55,1.22,.99,1.98,1.34,.42-.35,.65-.81,.95-1.22,.69-.9,.83-1.82,.34-2.88-.53-1.09-.97-2.22-1.45-3.33-.07-.14-.09-.32-.18-.67,.67,.53,1.22,.85,1.9,.83,1.15,0,2.06-.49,2.79-1.38,.48-.58,.74-1.27,.92-2.01,.44-1.9,.28-3.81-.19-5.66Zm-57.06-66.97s-.05,.02-.05,0c-.02,0-.04-.02-.04-.04,.04,.02,.05,.02,.09,.04Zm.16,7.46c-.28,.14-.6,.26-.92,.28-.51,.02-1.04,.02-1.52-.09-1.23-.3-2.4-.76-3.49-1.38-.14-.09-.25-.23-.51-.48,1.06,.12,1.92,.23,2.8,.32,.37,.04,.74,.05,1.11,.02,.21-.04,.44-.12,.63-.25,.53-.34,.55-.9,.04-1.25-.23-.18-.51-.28-.86-.48,.74-.46,1.41-.34,2.06-.07,.69,.28,1.18,.74,1.41,1.45,.23,.78-.05,1.53-.76,1.92Zm3.35-6.28c-.79-.23-1.41-.69-1.78-1.45-.21-.42-.35-.85-.37-1.46,.39,.32,.65,.58,.97,.79,.46,.28,1.08-.02,1.16-.56,.09-.42-.02-.83-.23-1.2-.37-.69-.78-1.36-1.18-2.05-.19-.34-.48-.64-.63-1.25,1.69,1.22,2.98,2.5,3.88,4.14,.18,.32,.32,.69,.39,1.04,.25,1.38-.86,2.38-2.2,1.99Zm6.12,7.97c-.78-.41-1.53-.78-2.29-1.18-.19-.11-.41-.23-.55-.41-.63-.76-1.23-1.53-1.83-2.31,.62-.02,1.06,.44,1.59,.63,1.5,.56,2.28,1.83,3.12,3.05,.02,.04-.02,.12-.04,.21Zm2.13,6.46c-.32,.69-1.11,1.09-1.99,1.02-.26-.04-.55-.11-.81-.19-1.45-.41-2.75-1.11-3.93-2.03-.05-.04-.05-.14-.07-.21,.71-.09,1.32,.26,1.99,.37,.51,.07,1.01,.19,1.52,.25,.26,.02,.55-.07,.79-.18,.46-.21,.58-.83,.23-1.18-.23-.21-.51-.37-.83-.62,.99-.26,1.82-.12,2.52,.51,.71,.62,.93,1.53,.58,2.26Zm3.33-4.99c-.58-.21-1.06-.56-1.41-1.08-.39-.56-.51-1.16-.41-1.98,.32,.32,.53,.56,.76,.76,.44,.35,1.06,.16,1.22-.39,.14-.51,.07-1.01-.14-1.48-.3-.74-.65-1.45-.95-2.17-.11-.25-.37-.46-.16-.85,1.39,1.29,2.52,2.7,3.19,4.46,.11,.3,.18,.62,.21,.93,.11,1.32-1.04,2.2-2.31,1.78Zm.88,4.27c1.92,.63,3.09,1.8,4.2,4.18-1.69-.55-3.1-1.98-4.2-4.18Zm3.47,11.78c-.26-.05-.55-.14-.79-.25-1.45-.67-2.72-1.59-3.74-2.86,.69,.25,1.38,.51,2.08,.76,.44,.16,.86,.32,1.32,.41,.26,.05,.56,0,.81-.11,.56-.25,.67-.79,.26-1.23-.12-.14-.28-.23-.42-.37-.09-.09-.14-.21-.25-.37,1.06-.11,1.89,.23,2.54,.99,.19,.23,.35,.55,.42,.85,.28,1.41-.81,2.47-2.24,2.19Zm5.82-5.43c-1.13-.65-1.55-1.64-1.38-3.02,.42,.14,.51,.53,.78,.74,.39,.28,.81,.25,1.09-.12,.25-.32,.35-.67,.26-1.04-.18-.69-.37-1.34-.55-2.01-.14-.53-.26-1.04-.41-1.57,.11,.04,.25,.05,.3,.12,.99,1.18,1.8,2.49,2.24,3.97,.14,.48,.23,1.01,.23,1.5-.02,1.55-1.5,2.05-2.58,1.43Zm.44,4.43s.04-.09,.04-.12c2.06,1.22,2.89,2.28,3.76,4.82-.16-.05-.34-.09-.46-.18-1.85-1.46-2.36-2.17-3.33-4.52Zm2.63,12.19c-.65-.07-1.23-.37-1.78-.74-1.15-.79-2.15-1.76-3.05-2.82,.23-.28,.42-.04,.58,.04,.76,.37,1.48,.76,2.22,1.15,.39,.19,.78,.34,1.22,.25,.21-.04,.42-.14,.62-.26,.23-.16,.32-.51,.18-.74-.19-.3-.41-.56-.67-.92,.74-.12,1.27,.12,1.76,.49,.49,.37,.81,.9,.92,1.5,.23,1.43-.93,2.17-1.99,2.06Zm4.78-6.77c-.04-.41,.02-.83,.04-1.25,.07,0,.14-.02,.21-.04,.18,.26,.32,.56,.49,.81,.35,.48,.97,.46,1.29-.05,.12-.23,.23-.51,.25-.78,0-.46-.07-.92-.12-1.38-.11-.78-.41-1.52-.41-2.49,.21,.23,.35,.34,.44,.46,.71,1.22,1.34,2.47,1.61,3.85,.12,.58,.18,1.22,.07,1.8-.23,1.27-1.45,1.78-2.56,1.11-.78-.46-1.22-1.16-1.31-2.05Zm3.37,10.76c-1.23-1.09-1.73-2.56-2.19-4.06-.04-.11,0-.23,.02-.35,1.22,.9,2.22,1.96,2.61,3.49,.11,.41,.3,.78,.39,1.18,.05,.18,0,.41-.02,.6-.26-.3-.51-.62-.81-.86Zm-5.41,3.85s.07-.02,.07,0c.02,.02,.04,.04,.04,.05-.04-.02-.07-.04-.11-.05Zm4.23,4.15c-.42-.14-.85-.35-1.22-.64-1.15-.81-2.06-1.87-2.82-3.03-.07-.09-.04-.23-.04-.35,.65,.14,1.08,.65,1.64,.95,.44,.25,.86,.55,1.31,.78,.25,.12,.55,.18,.81,.16,.56-.02,.92-.58,.67-1.08-.14-.28-.34-.53-.51-.79,.69-.18,1.2,.18,1.68,.62,.48,.48,.79,1.04,.79,1.73-.02,1.25-1.11,2.05-2.31,1.66Zm5.66-5.63c-.07-.56-.09-1.11,.26-1.89,.23,.49,.34,.78,.51,1.04,.37,.56,1.02,.53,1.36-.05,.09-.16,.16-.35,.18-.53,.04-.55,.05-1.11,.05-1.66-.04-.72-.18-1.43-.04-2.4,.71,1.22,1.04,2.31,1.32,3.42,.11,.46,.16,.92,.23,1.38,.07,.56-.02,1.11-.21,1.64-.44,1.15-1.61,1.5-2.61,.78-.58-.42-.95-1.01-1.06-1.73Zm1.48,18.4c-.37,.19-.78,.28-1.2,.11-.3-.12-.62-.25-.88-.41-1.15-.72-2.65-2.8-3.17-4.44,.65,.55,1.22,1.02,1.76,1.48,.34,.26,.65,.55,1.01,.76,.26,.16,.6,.28,.9,.3,.72,.02,1.06-.6,.74-1.11-.14-.25-.3-.48-.58-.9,1.45,.37,2.17,1.11,2.38,2.35,.12,.76-.26,1.52-.95,1.87Zm.37-8.13c-.34-.44-.72-.9-.9-1.41-.3-.92-.46-1.87-.71-2.91,1.64,1.15,2.54,3.14,2.56,5.41-.53-.18-.64-.72-.95-1.09Zm4.74,1.23c.25,.62,.35,.92,.49,1.2,.32,.55,1.02,.58,1.38,.07,.14-.18,.25-.41,.28-.62,.09-.55,.18-1.11,.21-1.66,.05-.74,.05-1.48,.07-2.33,.16,.21,.26,.3,.3,.42,.56,1.53,.92,3.1,.78,4.76-.04,.46-.12,.92-.3,1.34-.46,1.16-1.62,1.45-2.59,.67-.76-.58-1.08-1.39-.99-2.33,.04-.41,.18-.79,.37-1.53Zm-2.36,20.28c-.51-.26-1.01-.69-1.36-1.15-.88-1.08-1.52-2.33-1.96-3.65,0-.04,.05-.07,.12-.19,.28,.28,.58,.55,.85,.83,.42,.44,.81,.92,1.25,1.31,.3,.26,.69,.49,1.08,.6,.55,.16,1.02-.32,.92-.86-.05-.3-.18-.6-.28-1.01,.71,.19,1.13,.58,1.46,1.08,.34,.46,.48,1.01,.42,1.57-.09,1.31-1.34,2.08-2.5,1.48Zm3.53-6.56c-1.29-1.73-1.99-3.51-1.85-5.73,.21,.19,.35,.28,.44,.41,1.25,2.01,1.43,2.65,1.48,5.06,0,.04-.02,.09-.07,.26Zm7.11,1.92c-.02,.67-.14,1.31-.46,1.89-.86,1.59-2.36,1.25-3.14,.14-.37-.53-.39-1.13-.37-1.75,.02-.62,.18-1.18,.74-1.71,.04,.41,.07,.69,.11,.97,.04,.3,.16,.55,.46,.65,.35,.12,.79,.04,1.01-.28,.19-.3,.39-.63,.48-.99,.16-.58,.25-1.18,.34-1.78,.07-.51,.12-1.01,.41-1.62,.46,1.61,.49,3.03,.44,4.48Z"/>
  <path d="M46,65.16s.04-.07,.06-.1c-.03,.02-.06,.05-.09,.07,0,.02,0,.03,0,.05,.01,0,.02,0,.03-.01h0Z"/>
  <path d="M95.69,43.87c-.46,.23-.92,.44-1.36,.69-2.52,1.43-5.03,2.88-7.51,4.32-.88,.49-1.11,.48-2.13-.23,1.01-.63,1.99-1.25,2.98-1.85,1.01-.6,2.01-1.16,3.02-1.76,.99-.56,2.06-1.02,3.14-1.83-1.16-.37-2.17-.67-3.12-.97-2.66,1.45-5.2,2.93-7.64,4.57-1.01,.69-1.99,1.11-3.21,.88-.05,0-.07-.05-.16-.14,.3-.23,.56-.48,.88-.67,2.4-1.5,4.82-3,7.23-4.5,.28-.19,.64-.3,.86-.67-.46-.18-.83-.34-1.27-.49,.05-.48,.11-.92,.18-1.46-.74,.25-1.31,.67-1.89,1.01-.65,.37-1.29,.76-1.92,1.15-.6,.35-1.18,.72-1.78,1.11-.62,.39-1.25,.81-1.87,1.2-.58,.37-1.11,.83-1.85,1.13,.14-1.04,.39-1.83,1.31-2.36,2.29-1.34,4.55-2.75,6.83-4.13,.58-.37,1.18-.72,1.78-1.08,.25-.71,.51-1.39,.74-2.1,.11-.3,.3-.6,.04-.99-.69,.21-1.29,.63-1.92,.99-.67,.34-1.31,.71-1.96,1.08-.69,.39-1.38,.79-2.06,1.2-.63,.37-1.27,.78-1.9,1.15-.63,.37-1.2,.85-1.99,1.15-.07-.62,.21-1.08,.26-1.57,.3-.19,.56-.39,.85-.56,1.68-.99,3.35-1.99,5.04-2.96,1.31-.74,2.61-1.45,3.93-2.13,.55-.26,.88-.64,1.06-1.22,.16-.58,.41-1.15,.6-1.71,.09-.21,.23-.41-.05-.65-.97,.49-1.98,1.01-2.96,1.52-3.81,1.98-7.51,4.13-11.11,6.47-1.45,.93-2.79,2.01-3.93,3.32-.62,.71-1.15,1.48-1.52,2.35-.3,.69-.44,1.41-.41,2.17,.09,1.48,.9,2.54,2.33,2.96,.21,.07,.44,.12,.79,.23-.37,.21-.6,.35-.83,.48-.79,.41-1.59,.83-2.38,1.2-.9,.42-1.68,.97-2.26,1.82-.42,.6-.92,1.16-1.39,1.73-.11,.12-.26,.18-.42,.25,.02-1.38,.02-2.75,.04-4.14,.02-.46,.05-.92,.11-1.39,.14-1.5,.67-2.88,1.29-4.25,.09-.19,.32-.37,.07-.67-1.75,1.32-3.47,2.65-5.06,4.13-.48,.44-.95,.9-1.38,1.39-.88,1.02-1.66,2.13-2.15,3.4-.28,.76-.48,1.52-.42,2.33,.12,1.66,1.34,2.96,2.88,3.1,.23,.02,.46,0,.83,0-.26,.21-.41,.32-.55,.42-1.02,.67-2.01,1.36-3.03,2.01-.56,.35-1.01,.81-1.36,1.38-.42,.72-.88,1.43-1.34,2.13-.11,.18-.28,.32-.42,.48-.14-1.31-.26-2.56-.41-3.79-.14-1.2-.28-2.42,0-3.62,.19-.9,.46-1.8,.69-2.7,.05-.16,.07-.34,.14-.78-2.22,2.24-4.36,4.2-6,6.6-.51,.78-.93,1.61-1.34,2.45-.46,.99-.56,2.05-.51,3.14,.07,1.5,1.55,3.35,3.33,3.02,.14-.04,.35-.12,.48,.19-.19,.18-.37,.37-.58,.55-.79,.65-1.57,1.32-2.36,1.98-.55,.44-.97,.97-1.27,1.62-.35,.78-.71,1.52-1.09,2.28-.07,.16-.09,.46-.37,.42-.26-1.16-.49-2.29-.79-3.42-.55-1.96-.62-3.93-.21-5.94,.07-.34,.05-.69,.07-1.04-.09,.02-.18,.04-.21,.09-1.5,1.83-3.05,3.65-4.29,5.68-.74,1.25-1.34,2.56-1.71,3.97-.19,.72-.23,1.46-.21,2.2,.05,2.12,2.26,4.11,4.2,3.21,.04,0,.09,.04,.19,.09-.21,.25-.39,.49-.58,.71-.71,.76-1.39,1.5-2.12,2.24-.58,.56-.97,1.23-1.2,2.01-.25,.79-.53,1.59-.79,2.38-.07,.16-.18,.3-.46,.72,.02-1.59-.56-2.7-.99-3.85-.11-.26-.21-.53-.3-.79-.6-1.75-.83-3.53-.56-5.36,.04-.26,.04-.53,.05-.86-.14,.11-.23,.16-.28,.23-1.46,2.2-2.89,4.44-3.93,6.9-.48,1.08-.76,2.2-.97,3.35-.16,.97-.07,1.94,.23,2.89,.53,1.69,2.56,3.03,4.18,2.19,.07-.04,.16-.02,.25-.04,.07,.3-.14,.49-.3,.71-.6,.83-1.22,1.66-1.83,2.47-.49,.64-.86,1.32-.99,2.13-.14,.86-.35,1.73-.55,2.59-.05,.18-.14,.32-.39,.28-.21-1.11-.74-2.1-1.31-3.07-1.08-1.89-1.64-3.93-1.66-6.12v-1.06c-.19,.21-.32,.3-.37,.41-1.13,2.31-2.22,4.62-3.02,7.07-.49,1.52-.64,3.09-.53,4.69,.07,.9,.34,1.73,.86,2.47,.93,1.27,2.38,1.68,3.83,1.09,.14-.05,.3-.26,.49,0-.18,.32-.35,.64-.53,.95-.44,.78-.85,1.55-1.32,2.31-.51,.81-.72,1.69-.78,2.65-.02,.65-.11,1.31-.18,1.96-.02,.12-.02,.28-.07,.41-.04,.14,.05,.35-.23,.39-.28-1.06-.86-1.96-1.52-2.8-1.39-1.82-2.26-3.85-2.54-6.12-.04-.26-.16-.51-.26-.81-.12,.14-.19,.21-.21,.3-.65,2.03-1.34,4.06-1.92,6.12-.46,1.68-.51,3.4-.34,5.13,.12,1.23,.55,2.36,1.5,3.23,1.06,.95,2.33,1.13,3.62,.51,.14-.07,.32-.11,.48-.16,.05,.48-.25,.86-.41,1.27-.37,.9-.79,1.8-1.16,2.7-.28,.67-.3,1.36,.05,2.03,.35,.64,.76,1.27,1.32,1.8,.6-.26,1.08-.62,1.55-.97,.78-.56,1.16-1.29,1.13-2.28-.04-1.11,0-2.24,.04-3.35,0-.23-.11-.53,.18-.72,.11,.12,.19,.21,.26,.34,.58,1.06,1.53,1.41,2.7,1.41,.81-.02,1.55-.28,2.22-.72,.79-.51,1.39-1.23,1.92-2.01,.85-1.23,1.43-2.61,1.9-4.02,.46-1.36,.9-2.73,1.36-4.11,.09-.3,.18-.6,.3-1.08-.28,.21-.44,.3-.56,.42-1.61,1.48-3.44,2.52-5.52,3.17-.71,.23-1.39,.55-2.06,.86-.35,.18-.67,.42-1.22,.76,.25-.56,.39-.88,.56-1.2,.34-.67,.69-1.32,1.06-1.98,.28-.49,.42-1.02,.49-1.59,.11-.88,.23-1.75,.34-2.63,.05-.49,.12-.97,.42-1.53,.39,1.34,1.27,1.94,2.45,2.15,.81,.14,1.59,.04,2.33-.34,.85-.41,1.57-.99,2.19-1.69,.79-.86,1.43-1.85,1.94-2.89,.88-1.85,1.75-3.7,2.61-5.56,.04-.05-.04-.16-.07-.26-.11,.05-.25,.11-.34,.18-1.82,1.31-3.81,2.15-6,2.54-1.06,.18-2.05,.55-2.98,1.06,.02-.16-.02-.34,.05-.46,.21-.35,.44-.72,.71-1.04,1.06-1.29,1.71-2.75,1.99-4.39,.07-.49,.21-.99,.35-1.48,.07-.3,.19-.58,.34-1.01,.14,.28,.23,.46,.3,.62,.55,1.32,1.61,1.87,2.96,1.92,1.18,.04,2.19-.41,3.1-1.08,1.18-.86,2.13-1.96,2.93-3.16,1.13-1.71,2.17-3.47,3.25-5.22,.04-.05,.02-.16,.04-.25-.41-.04-.71,.21-1.02,.37-1.55,.74-3.17,1.27-4.92,1.46-.83,.09-1.66,.21-2.49,.34-.39,.05-.79,.14-1.18,.21,.04-.16,.05-.34,.16-.46,.44-.53,.9-1.06,1.39-1.57,.55-.58,.93-1.25,1.2-2.01,.35-1.01,.76-1.99,1.15-2.98,.09-.23,.26-.41,.49-.74,.04,1.01,.39,1.71,1.04,2.22,.72,.56,1.53,.86,2.47,.79,.99-.09,1.9-.39,2.73-.92,1.11-.72,2.13-1.53,2.95-2.56,1.36-1.69,2.68-3.42,4.02-5.15-.44-.14-.79,.14-1.16,.26-1.73,.6-3.49,.95-5.33,.85-1.08-.05-2.15-.05-3.19,.25-.11,.04-.25,0-.37-.02,.14-.53,.63-.76,1.01-1.09,2.28-2.05,1.57-1.15,3.02-3.92,.37-.69,.67-1.43,1.18-2.12,.09,.21,.14,.34,.18,.46,.51,1.89,1.69,2.79,3.63,2.77,1.16,0,2.19-.42,3.17-.99,1.22-.69,2.28-1.61,3.28-2.59,1.18-1.18,2.36-2.38,3.53-3.58,.07-.07,.11-.18,.19-.39-.3,.07-.48,.09-.65,.14-1.9,.53-3.86,.63-5.8,.35-1.31-.19-2.58-.32-4.07,0,.37-.3,.56-.49,.78-.65,.56-.41,1.13-.83,1.71-1.2,.76-.49,1.36-1.11,1.83-1.87,.55-.88,1.15-1.71,1.75-2.54,.12-.19,.3-.34,.53-.6,0,.34,.02,.51,0,.69-.07,1.15,.51,1.96,1.41,2.56,.55,.37,1.16,.56,1.83,.62,.95,.05,1.85-.11,2.75-.44,1.36-.51,2.59-1.23,3.74-2.13,1.45-1.11,2.86-2.26,4.27-3.39,.11-.09,.16-.21,.25-.32-.07-.04-.11-.07-.14-.07-2.43,.41-4.83,.26-7.2-.42-.76-.23-1.55-.3-2.35-.3-.18,0-.42,.12-.62-.18,.39-.23,.72-.48,1.09-.63,1.75-.76,3.17-1.9,4.3-3.46,.42-.58,.9-1.16,1.61-1.71,0,.3,.02,.48,0,.63-.05,1.64,.79,2.88,2.36,3.37,.88,.28,1.8,.41,2.75,.19,.92-.19,1.82-.44,2.65-.88,1.02-.53,2.06-1.08,3.03-1.71,3.55-2.24,7.18-4.34,10.92-6.23,.41-.21,.81-.44,1.32-.72-.97-.6-1.96-.85-2.93-1.22ZM26.36,117.53c-.11,.76-.37,1.43-1.08,1.85-.76,.48-1.55,.42-2.12-.28-.28-.34-.53-.78-.63-1.22-.41-1.75-.26-3.49,.18-5.22,.04-.11,.14-.21,.25-.35,.14,.88,.25,1.71,.39,2.52,.09,.46,.21,.9,.37,1.34,.11,.25,.3,.48,.49,.64,.42,.34,1.09,.12,1.25-.39,.09-.3,.11-.63,.16-.97,.6,.67,.85,1.31,.74,2.08Zm4.43,.97c.34-.63,.85-1.06,1.66-1.31-.16,.41-.3,.69-.39,.97-.14,.55,.34,1.06,.88,.95,.34-.09,.69-.25,.99-.48,.32-.23,.6-.56,.88-.88,.48-.49,.93-1.02,1.41-1.53,.3,.25,.09,.46,0,.6-.51,1.04-1.04,2.08-1.62,3.09-.41,.67-.99,1.22-1.76,1.52-.51,.21-1.01,.18-1.46-.09-.39-.19-.65-.51-.78-.95-.18-.65-.12-1.29,.19-1.89Zm-.78-13.53c-.99,.74-2.19,.42-2.63-.72-.18-.51-.3-1.09-.32-1.64-.07-1.59,.35-3.09,1.04-4.55,.05,.51,.11,1.01,.16,1.5,.05,.6,.04,1.22,.14,1.82,.05,.35,.19,.72,.39,1.01,.37,.51,1.09,.41,1.36-.18,.14-.32,.21-.67,.34-1.08,.55,.81,.58,1.62,.41,2.47-.11,.56-.42,1.02-.88,1.38Zm-.49,9.67c-.18-.95,.02-1.89,.11-2.84,.02-.09,.05-.18,.09-.26,.14-.28,.28-.58,.46-.85,.37-.58,.62-1.23,1.13-1.8,.19,2.13-.34,3.86-1.78,5.75Zm6.09-10.12c.37-.35,.78-.6,1.43-.69-.21,.39-.39,.65-.49,.93-.19,.48,.12,.93,.65,1.01,.44,.05,.83-.11,1.16-.37,.55-.42,1.08-.88,1.62-1.32,.3-.25,.6-.55,.99-.79,0,.18,.04,.28,0,.35-.56,1.13-1.25,2.17-2.1,3.12-.49,.56-1.08,.99-1.78,1.31-.83,.37-2.13-.19-2.28-1.41-.09-.83,.18-1.55,.79-2.13Zm-1.31-3.3c.16-2.38,.88-4.29,2.61-5.8-.62,3.47-.44,2.98-2.61,5.8Zm2.5-10.6c-.18,.26-.41,.53-.67,.71-1.04,.74-2.28,.3-2.63-.93-.12-.39-.12-.83-.12-1.23,.04-1.76,.62-3.37,1.41-4.9,.04-.05,.14-.09,.28-.18-.05,.46-.11,.86-.14,1.29-.04,.78-.11,1.57-.09,2.35,0,.35,.14,.74,.32,1.04,.28,.51,.97,.51,1.25,.02,.19-.3,.3-.67,.51-1.11,.58,1.08,.48,2.05-.12,2.96Zm6.3,.41s.07,.02,.11,.04c-.07,.02-.14,.04-.23,.07,.05-.04,.09-.07,.12-.11Zm-.19,.16c.07,.35-.28,.53-.41,.81-.18,.44-.04,.86,.42,1.01,.25,.07,.56,.11,.81,.02,.42-.16,.83-.39,1.22-.63,.71-.46,1.39-.93,2.08-1.39,.25,.21,.04,.35-.04,.48-.74,1.09-1.61,2.06-2.61,2.89-.46,.41-.97,.72-1.57,.88-1.16,.34-2.15-.42-2.19-1.62-.04-.63,.18-1.2,.6-1.66,.46-.48,.95-.88,1.68-.78Zm-1.11-1.68c-.04,.05-.07,.11-.11,.18-.14-.19-.02-.19,.11-.18Zm1.25-4c-.05,.18-.16,.34-.28,.48-.6,.69-1.22,1.38-2.01,2.28,.39-2.43,1.38-4.22,3.37-5.75-.42,1.18-.74,2.1-1.08,3Zm2.08-9.45c-.05,1.09-.49,1.99-1.5,2.52-1.11,.56-2.2,.02-2.42-1.22-.05-.37-.05-.74-.02-1.11,.09-1.5,1.09-3.77,2.26-5.15-.14,.72-.26,1.31-.37,1.89-.11,.55-.19,1.11-.28,1.66-.09,.48,0,.93,.26,1.34,.28,.42,.88,.48,1.18,.07,.23-.28,.39-.6,.56-.9,.39,.25,.34,.6,.32,.9Zm5.4,3.1c-.09,.35-.41,.48-.55,.72-.32,.49-.09,1.06,.46,1.2,.42,.09,.85,.05,1.23-.14,.41-.21,.83-.42,1.23-.63,.53-.26,1.06-.51,1.59-.78-.79,1.31-1.82,2.31-3.05,3.07-.44,.25-.92,.46-1.41,.58-1.38,.32-2.4-.72-2.12-2.12,.11-.51,.34-.95,.74-1.31,.51-.42,1.08-.71,1.87-.6Zm-1.29-1.57s0-.07,.02-.07c.02-.02,.04-.02,.05-.04-.02,.04-.05,.07-.07,.11Zm3.23-6.51c-.41,.83-.81,1.68-1.23,2.5-.05,.12-.14,.23-.25,.34-.16,.16-.34,.32-.51,.48-.58,.49-1.16,1.01-1.85,1.61,.81-2.65,1.39-3.42,3.76-5.12,.04,.02,.07,.04,.09,.07,.02,.04,.02,.09,0,.12Zm1.2-5.04c-.48,.56-1.08,.86-1.83,.81-.67-.05-1.18-.37-1.36-1.02-.11-.39-.16-.83-.11-1.22,.07-.55,.23-1.09,.44-1.61,.55-1.34,1.32-2.54,2.29-3.65,.21,.3,.05,.49-.02,.71-.25,.76-.53,1.5-.74,2.26-.11,.41-.18,.83-.18,1.23,.02,.25,.18,.53,.34,.72,.26,.35,.69,.35,.99,.05,.16-.16,.3-.35,.44-.53,.11-.14,.23-.26,.37-.46,.23,1.06-.02,1.94-.63,2.7Zm4.41,2.17c.42-.12,.88-.16,1.64-.3-.48,.42-.74,.63-.95,.9-.35,.39-.21,.9,.25,1.18,.35,.19,.71,.21,1.08,.09,.79-.26,1.59-.55,2.36-.85,.3-.11,.58-.25,.88-.12-1.11,1.29-2.52,2.13-4.07,2.79-.21,.09-.44,.14-.67,.18-.76,.12-1.59-.26-1.92-.86-.39-.74-.32-1.45,.18-2.1,.32-.42,.72-.74,1.23-.9Zm-.07-3.56c.55-1.94,1.82-3.3,4.27-4.46-.95,2.12-2.42,3.47-4.27,4.46Zm6.33-15.82s-.04,.09-.05,.09c-.02,.02-.05,0-.07,0,.04-.04,.09-.05,.12-.09Zm.16,6.1c-.37,.56-.88,.93-1.55,1.11-1.11,.3-2.1-.39-2.12-1.55,0-.44,.07-.93,.25-1.36,.67-1.64,1.66-3.09,3.1-4.18,.11,.26-.04,.49-.14,.74-.3,.63-.6,1.27-.86,1.9-.14,.35-.25,.71-.34,1.08-.05,.32,.02,.64,.23,.92,.3,.37,.74,.42,1.09,.11,.14-.12,.26-.26,.39-.41,.11-.14,.21-.3,.41-.53,.16,.86-.05,1.53-.46,2.17Zm4.32,3.17c.21,0,.44,.04,.76,.07-.37,.32-.69,.55-.97,.81-.19,.19-.16,.53,.02,.78,.25,.32,.6,.46,.99,.44,.49-.04,1.01-.11,1.5-.21,.51-.11,.99-.26,1.5-.37,.19-.05,.41-.02,.81-.02-1.45,1.13-2.86,1.89-4.46,2.31-.51,.12-1.01,.14-1.52-.04-.92-.34-1.38-1.16-1.08-2.1,.26-.88,.88-1.39,1.75-1.62,.23-.05,.46-.05,.71-.05Zm-.39-3.62c1.13-2.03,2.72-3.26,4.78-3.9-.88,1.82-2.47,3.14-4.78,3.9Zm8.22-14.9s-.02,.09-.04,.09c-.04,.02-.05,.02-.09,.02,.05-.04,.09-.07,.12-.11Zm.05,4.94c-.32,1.06-1.01,1.78-2.08,2.06-1.16,.32-2.17-.49-2.13-1.68,0-.32,.04-.67,.18-.95,.9-1.73,2.05-3.26,3.81-4.23-.05,.21-.07,.42-.18,.58-.35,.65-.79,1.27-1.15,1.92-.21,.39-.37,.85-.48,1.29-.11,.34,.16,.79,.44,.93,.34,.18,.63,.11,.92-.11,.21-.18,.41-.37,.69-.63,0,.32,.05,.6-.02,.81Zm4.71,8.24c-.62,.19-1.25,.3-1.9,.39-.32,.05-.65,0-.97-.07-1.23-.35-1.69-1.75-.93-2.79,.37-.51,.9-.79,1.5-.95,.55-.16,1.09-.18,1.68,.26-.34,.16-.6,.23-.83,.39-.55,.35-.51,1.06,.05,1.36,.42,.23,.88,.28,1.34,.21,.71-.09,1.39-.18,2.08-.26,.32-.04,.62-.05,1.15-.09-1.06,.83-2.1,1.22-3.16,1.55Z"/>
  <path d="M59.46,112.5c-.51,1.62-.82,3.31-1.16,4.99-.04,.22-.12,.46,.15,.71,.12-.02,.3-.04,.47-.08,1.49-.37,2.98-.73,4.48-1.1,11.34-2.83,22.68-5.65,34.03-8.48,6.82-1.7,13.65-3.38,20.47-5.08,.3-.07,.58-.23,.86-.34-.01-.65-.15-1.17-.46-1.67-.31,.03-.59,.02-.86,.07-19.18,3.59-38.36,7.18-57.54,10.78-.13,.02-.25,.11-.43,.2Z"/>
  <path d="M216.3,107.84c-4.81-.9-9.61-1.8-14.42-2.7-4.21-.79-8.42-1.58-12.63-2.37-2.15-.4-4.3-.82-6.45-1.21-.39-.07-.81-.25-1.28,.07-.1,.43-.21,.92-.34,1.49,.39,.13,.72,.27,1.07,.36,14.68,3.66,29.37,7.31,44.05,10.96,4.92,1.23,9.85,2.45,14.77,3.68,.22,.05,.44,.18,.64-.13-.19-.92-.35-1.88-.59-2.83-.23-.94-.29-1.93-.77-2.77-.18-.06-.3-.13-.44-.15-3.16-.59-6.32-1.18-9.48-1.76-4.72-.88-9.43-1.75-14.14-2.63Z"/>
  <path d="M62.61,102.47c-.61,1.65-1.28,3.32-1.75,5.18,.37,0,.64,.03,.9,0,2.26-.3,4.52-.62,6.78-.93,2.4-.33,4.8-.67,7.2-1,2.4-.33,4.8-.66,7.2-1,2.26-.31,4.52-.63,6.78-.94,3.05-.41,6.09-.81,9.14-1.23,3.04-.42,6.09-.86,9.13-1.28,3-.41,6-.8,9-1.22,.39-.06,.85-.03,1.18-.47-.07-.46-.16-.96-.24-1.45-.2-.1-.25-.14-.28-.14-1.3,.09-2.6,.18-3.9,.28-2.97,.24-5.94,.49-8.92,.72-1.77,.14-3.53,.24-5.3,.38-4.04,.32-8.08,.67-12.12,.99-3.58,.29-7.15,.57-10.73,.84-4.18,.32-8.36,.62-12.54,.94-.5,.04-1.03,0-1.52,.35Z"/>
  <path d="M235.91,102.13c-2.97-.22-5.95-.44-8.92-.66-1.35-.1-2.7-.21-4.04-.32-2.93-.24-5.85-.49-8.78-.72-2.97-.23-5.95-.44-8.92-.66-1.3-.1-2.6-.2-3.9-.31-2-.16-3.99-.32-5.99-.48-1.53-.12-3.07-.22-4.6-.35-2.74-.22-5.48-.45-8.22-.67-.13-.01-.26,.06-.45,.1-.11,.58-.25,1.15-.03,1.78,.43,.08,.84,.17,1.25,.23,2.63,.37,5.26,.73,7.89,1.09,2.17,.3,4.34,.59,6.51,.89,2.49,.34,4.98,.69,7.47,1.03,2.35,.32,4.71,.63,7.06,.96,2.31,.31,4.61,.63,6.92,.95,2.4,.33,4.8,.66,7.2,1,2.4,.33,4.8,.66,7.2,1,1.57,.22,3.14,.44,4.71,.65,.25,.03,.56,.16,.78-.3-.56-1.58-1.15-3.25-1.77-5.03-.53-.07-.94-.15-1.36-.18Z"/>
  <path d="M179.17,280.45c-1.06-.1-1.48-.77-1.69-1.74-.79-3.78-1.62-7.56-2.44-11.34-.21-.98-.15-1.85,.79-2.45,.02-.01,0-.09,.02-.2-1.25-.38-2.35-.16-3.28,.76-.45-.1-.86-.22-1.27-.26-.93-.09-1.59,.25-2.06,.99,.22,.08,.46,.12,.65,.23,.6,.33,.71,.59,.48,1.26-1.02,2.95-2.13,5.86-3.4,8.89-.13-.39-.26-.64-.3-.89-.23-1.66-.44-3.33-.65-4.99-.1-.79-.2-1.57-.29-2.36-.06-.6,.11-1.1,.63-1.46,.17-.12,.43-.19,.36-.51-1.25-.67-2.33-.14-3.34,.51-1.23-.44-2.38-.63-3.44,.4,.18,.08,.3,.15,.43,.19,.71,.23,1.02,.77,1.13,1.46,.03,.23,.04,.46,.06,.7,.12,1.3,.24,2.6,.37,3.9,.23,2.36,.49,4.73,.71,7.09,.16,1.75,.13,1.76-1.29,2.8,1.44,.79,2.7,.32,3.93-.42,.25,.08,.47,.16,.69,.22,.94,.26,1.85,.14,2.7-.32,.19-.1,.41-.22,.33-.51-.09-.03-.17-.07-.26-.1-1.18-.38-1.28-.58-.84-1.69,1.07-2.73,2.13-5.47,3.2-8.2,.08-.2,.22-.38,.4-.69,.5,2.76,.97,5.37,1.45,7.98,.17,.91,.04,1.67-.9,2.11-.11,.05-.18,.19-.28,.31,1.5,.65,2.75,.12,3.76-.62,.83,.04,1.49,.15,2.11,.07,.66-.09,1.35-.29,1.76-.94-.11-.09-.17-.19-.24-.2Z"/>
  <path d="M66.87,93.09c-.9,1.41-1.96,3.72-2.19,4.82,.33,0,.65,.03,.96,.03,3.26-.09,6.52-.2,9.77-.29,5.12-.14,10.24-.26,15.36-.41,4.56-.13,9.12-.31,13.68-.44,4.14-.13,8.29-.22,12.43-.34,.31,0,.61-.1,.91-.16,0-.59,0-1.09,0-1.68-1.91-.24-49.67-1.65-50.93-1.52Z"/>
  <path d="M232.19,93.04c-1.91,.04-3.82,.06-5.73,.12-5.49,.16-10.98,.34-16.47,.51-1.4,.04-2.79,.05-4.19,.09-4.56,.15-9.12,.31-13.68,.45-3.02,.1-6.05,.18-9.08,.28-.26,0-.52,.1-.86,.16,.11,.59-.1,1.15,.16,1.73,.26,.02,.48,.05,.71,.06,2.47,.08,4.93,.16,7.4,.23,6.24,.19,12.47,.38,18.71,.56,4.84,.14,9.68,.26,14.52,.39,.74,.02,1.49,.04,2.23,.06,2.93,.09,5.86,.17,8.8,.25,.22,0,.47,.04,.62-.34-.69-1.44-1.41-2.95-2.18-4.57-.41,0-.68,0-.96,0Z"/>
  <path d="M108.14,274.44c1.16-3.44,2.32-6.88,3.48-10.32,.12-.35,.24-.7,.39-1.05,.21-.5,.58-.84,1.13-.94,.18-.03,.35-.07,.62-.13-1.01-1.35-2.39-1.41-3.85-1.29-1.61-2.05-3.74-2.86-6.22-2.52-1.67-1.58-2.17-1.8-3.71-1.6,.03,.08,.03,.19,.08,.24,.63,.61,.64,1.3,.29,2.05-.08,.17-.15,.34-.23,.51-1.54,3.39-3.09,6.78-4.63,10.17-.12,.25-.23,.51-.37,.75-.3,.52-.73,.84-1.36,.82-.21,0-.42,.01-.72,.02,.85,1.55,2.23,1.68,3.57,1.67,1.41,1.45,2.15,1.75,3.55,1.45,0-.05,0-.11-.02-.14-.84-.72-.85-1.53-.44-2.51,1.25-2.96,2.44-5.94,3.66-8.91,.18-.43,.36-.87,.6-1.26,.32-.51,.85-.78,1.44-.66,.49,.1,.99,.29,1.41,.56,.64,.41,.81,1.08,.57,1.84-.08,.27-.19,.52-.29,.79-1.03,2.75-2.06,5.49-3.09,8.24-.16,.44-.32,.87-.49,1.31-.28,.72-.77,1.15-1.57,1.17-.13,0-.27,.05-.48,.1,1.01,1.11,2.22,1.54,3.64,1.36,.99,1.16,2.18,1.61,3.69,1.28-.11-.15-.17-.29-.28-.36-.76-.49-.81-1.19-.59-1.97,.06-.22,.14-.44,.22-.66Z"/>
  <path d="M71.65,84.75c-.92,1.38-1.81,2.78-2.62,4.29,.21,.07,.33,.14,.46,.16,2.13,.18,4.27,.37,6.4,.53,3.02,.23,6.03,.44,9.05,.66,1.3,.1,2.6,.2,3.9,.3,2.92,.24,5.84,.49,8.77,.72,3.02,.23,6.04,.43,9.05,.67,1.62,.12,3.24,.3,4.87,.42,1.86,.14,3.71,.27,5.57,.38,.26,.02,.52-.07,.79-.11,0-.61,.23-1.15,0-1.75-15.19-2.09-30.34-4.18-45.5-6.26-.22-.03-.46,0-.76,0Z"/>
  <path d="M227.69,84.74c-15.13,2.08-30.26,4.17-45.4,6.26-.08,.01-.15,.1-.26,.18-.09,.53-.06,1.07,.14,1.65,.29,.02,.56,.07,.83,.05,2-.14,4-.28,6-.43,1.16-.09,2.32-.17,3.48-.27,2.97-.24,5.94-.49,8.92-.72,1.72-.14,3.44-.24,5.16-.37,2.88-.23,5.76-.49,8.64-.71,3.02-.24,6.04-.44,9.06-.66,1.16-.09,2.32-.17,3.48-.27,1.02-.09,2.03-.2,3.06-.3-.37-1.05-1.45-2.87-2.59-4.37-.14,0-.33-.05-.51-.03Z"/>
  <path d="M98.57,28.62c.09,.22,.18,.43,.27,.64,1.38,3.31,2.76,6.61,4.14,9.92,.62,1.49,.62,1.56-.1,3,1.38,.32,2.33-.35,3.01-1.23,.75-.07,1.36-.06,1.93-.21,.58-.15,1.09-.5,1.38-1.18-.25-.04-.42-.08-.59-.09-.65-.01-1.01-.4-1.28-.93-.08-.17-.15-.34-.22-.52-.57-1.52-1.15-3.05-1.71-4.58-.06-.16-.03-.34-.04-.48,.5-.31,.95-.28,1.41-.15,1.04,.28,1.85,.88,2.4,1.8,.53,.88,1,1.79,1.51,2.67,.25,.44,.29,.87,.07,1.33-.07,.15-.09,.32-.13,.49,1.2,.59,1.92-.08,2.6-.86,1.23,.2,2.41,.18,3.24-.98q-1.33-.68-2.13-1.99c-.39-.64-.79-1.26-1.16-1.91-1.08-1.87-2.7-2.76-4.85-2.7-.41,.01-.83,0-1.37,0,.34-.67,.65-1.23,.91-1.81,.26-.59,.45-1.22,.71-1.82,.68-1.62,1.11-1.88,2.94-1.76,.3-.66,.26-1.32-.09-1.96-.38-.7-.98-1.11-1.76-1.25-1.32-.24-2.53,.34-3.17,1.52-.36,.66-.54,1.39-.62,2.13-.1,.83-.2,1.66-.28,2.5-.08,.75-.26,1.47-.67,2.11-.09,.14-.24,.24-.38,.37-.42-.67-1.7-3.87-1.77-4.42-.07-.53,.02-1.02,.42-1.41,.15-.14,.41-.23,.28-.53-1.52-.38-2.59,.41-3.55,1.42-1.46-.16-2.69,.18-3.57,1.43,.15,.07,.23,.15,.3,.14,1.01-.12,1.57,.42,1.91,1.29Z"/>
  <path d="M195.27,273.45c-.57-.85-1.18-1.68-1.81-2.49-.8-1.03-1.85-1.7-3.15-1.92-.59-.1-1.2-.13-1.8-.19-.21-.02-.42-.06-.69-.09,.31-.62,.62-1.14,.85-1.69,.25-.6,.42-1.23,.63-1.85,.06-.18,.14-.34,.22-.51,.37-.78,.94-1.26,1.86-1.22,.21,0,.43-.05,.72-.08-.03-.44,0-.82-.09-1.17-.26-1.03-1.17-1.79-2.19-1.89-1.1-.11-2,.4-2.5,1.42-.12,.25-.23,.52-.28,.79-.12,.59-.23,1.19-.31,1.79-.12,.83-.18,1.67-.32,2.49-.12,.72-.32,1.42-1.04,1.93-.13-.24-.24-.39-.29-.56-.33-1.07-.61-2.15-.97-3.21-.33-.98-.31-1.83,.62-2.46-.24-.37-.57-.38-.9-.38-1,0-1.73,.58-2.4,1.13-2.04-.19-2.57-.02-3.25,1.04,1.15,.07,1.61,.81,1.82,1.81,.12,.55,.28,1.08,.42,1.62,.84,3.24,1.68,6.49,2.54,9.73,.26,.98,.11,1.74-.8,2.28-.04,.03-.04,.14-.07,.26,1.54,.58,2.68-.2,3.76-1.08,.89,.29,1.71,.24,2.51-.12,.45-.2,.9-.44,1.11-.96-.13-.05-.22-.1-.31-.11-.94-.02-1.42-.54-1.66-1.41-.34-1.21-.72-2.41-1.08-3.61-.16-.53-.3-1.05-.44-1.54,.34-.41,.72-.38,1.09-.33,.87,.12,1.63,.53,2.1,1.26,.76,1.17,1.44,2.39,2.14,3.6,.2,.35,.16,.71-.04,1.06-.09,.16-.17,.32-.3,.58,1.37,.48,2.29-.04,3.05-1.01,1.42,.18,2.72,.05,3.66-1.38-1.2-.02-1.85-.72-2.42-1.56Z"/>
  <path d="M138.54,273.44c-1.21-.06-2.29,.29-2.97,1.39,.05,.08,.07,.14,.11,.16,.31,.1,.62,.19,.92,.28,1.03,.3,1.7,1,1.93,2.02,.3,1.36,.17,2.7-.62,3.9-.22,.34-.54,.65-.88,.88-.63,.43-1.33,.4-1.99,.04-.64-.36-.83-.97-.82-1.66,0-.19,.06-.37,.08-.55,.12-.97,.24-1.94,.36-2.91,.31-2.64,.61-5.27,.93-7.91,.03-.26,.16-.5,.26-.76,.64,.09,.94,.52,1.32,.85,.46,.39,.89,.84,1.4,1.14,1.26,.72,2.74,.18,3.25-1.13,.35-.91,.13-1.57-.86-2.47-.89,.66-1.81,.42-2.73-.02-.17-.08-.35-.13-.52-.2-1.18-.45-2.35-.54-3.53-.01-.12,.06-.26,.08-.43,.12-1.01-.77-2.09-1.19-3.35-.49,1.14,1.01,1.18,1.06,.97,2.53-.29,2.03-.61,4.05-.93,6.08-.27,1.75-.56,3.49-.83,5.24-.16,.98-.5,1.81-1.63,1.99-.08,.01-.14,.11-.24,.2,1.2,1.05,2.54,.97,3.84,.51,.43,.22,.75,.41,1.09,.56,2.29,1.02,4.61,1.07,6.91,.06,1.54-.68,2.57-1.84,2.94-3.5,.19-.87,.2-1.76,.05-2.64-.34-2.01-1.98-3.57-4.01-3.67Z"/>
  <path d="M77.06,77.42c-1.28,1.31-2.47,2.96-2.76,3.86,.5,.11,.99,.24,1.49,.34,6.72,1.25,13.45,2.49,20.17,3.75,7.18,1.34,14.35,2.71,21.53,4.06,.25,.05,.53,0,.84,0,.11-.62,.21-1.15,.31-1.73-.41-.13-.76-.25-1.11-.34-13.36-3.31-26.72-6.62-40.09-9.93-.13-.03-.27,0-.38,0Z"/>
  <path d="M212.44,266.38c-.35-.3-.71-.62-1.04-.95-2.56-2.65-5.1-5.31-7.65-7.95-.19-.21-.37-.42-.53-.65-.28-.42-.32-.86-.05-1.31,.16-.26,.34-.53,.55-.86-1.46-.18-2.4,.49-3.12,1.5-2.08,.16-2.63,.44-3.09,1.61,.09,.02,.18,.05,.26,.07,.09,0,.19-.02,.28,0,.86,.16,1.2,.49,1.38,1.34,.04,.23,.07,.46,.09,.69,.07,1.68,.14,3.35,.19,5.12-2.05,.23-2.98,.88-3.16,2.13-.07,.58,.02,1.13,.32,1.62,.25,.44,.56,.85,1.15,.93,.46-.58,.85-1.27,1.75-1.09,.46,2.17,.3,4.04-.55,5.96,1.29,.35,2.15-.19,2.79-1.16,1.57,.16,1.82,.04,2.17-1.11-.49-.11-1.01-.25-1.22-.79-.25-.62-.3-1.87-.09-2.84,1.38,.14,2.59-.37,3.7-1.22,.53,.37,.79,.86,1.15,1.29,.39,.48,.49,.99,.23,1.57-.05,.14-.26,.3,0,.49,1.38,.37,2.1-.62,2.84-1.52,1.59,.04,2.77-.58,3.63-2.03-.86,.02-1.45-.37-1.98-.83Zm-9.88-.48c-.42-1.18-.56-2.77-.35-3.85,1.13,1.08,2.75,3.12,3.28,4.14-1.34,.18-1.41,.16-2.93-.3Z"/>
  <path d="M222.73,77.43c-.14,0-.28,0-.42,.03-12.82,3.18-25.64,6.36-38.47,9.55-.72,.18-1.44,.38-2.16,.57-.04,.01-.08,.04-.12,.07-.04,.03-.06,.07-.16,.17-.03,.5,.09,1.03,.36,1.62,1.31-.09,42.6-7.81,44.04-8.27-.94-1.3-1.86-2.58-2.85-3.69-.15-.03-.19-.04-.24-.04Z"/>
  <path d="M80.29,246.48c.43,.26,.6,.69,.76,1.13,.16,.44,.3,.88,.46,1.32,.2,.53,.51,.99,.98,1.33,1.16,.84,2.71,.48,3.33-.78,.28-.57,.28-1.15,.06-1.71q-1.67-.37-2.79-1.71c-.15-.18-.3-.36-.46-.53-.66-.69-1.43-1.18-2.37-1.39-.31-.07-.63-.15-.84-.2-.43-.55-.76-1.06-1.17-1.48-.47-.47-.64-.48-1.66-.53,.03,.13,.04,.27,.1,.38,.34,.71,.21,1.35-.26,1.95-.14,.18-.29,.37-.43,.55-1.66,2.13-3.33,4.26-4.99,6.39-.66,.84-1.32,1.69-1.98,2.53-.56,.73-1.24,1.12-2.19,.79-.1-.03-.23,.01-.43,.03,.63,1.43,1.65,2.19,3.03,2.32,.71,.85,1.23,1.58,1.85,2.2,1.39,1.38,3.04,2.31,4.98,2.64,1.17,.2,2.24-.07,3.1-.9,1.39-1.34,.9-3.62-.89-4.2-.59-.19-1.18-.19-1.78,.05-.02,.17-.06,.3-.06,.42,.03,1.24-.56,1.96-1.62,1.97-1.1,.01-1.98-.84-1.92-1.95,.02-.45,.17-.91,.35-1.33,.35-.8,2.19-3.26,2.95-4.04,.47-.08,.82,.16,1.11,.47,.25,.27,.46,.58,.68,.89,.22,.3,.39,.64,.62,.93,.47,.56,1.28,.77,1.89,.53,.56-.23,.79-.81,.68-1.74-.5-.26-1.01-.48-1.46-.79-.42-.28-.76-.69-1.19-.97-.41-.27-.89-.44-1.34-.66,.64-1.24,2.15-3.28,2.89-3.91Z"/>
  <path d="M267.28,217.64s.02,0,.03,0c.01-.03,.02-.06,.04-.09-.02,.02-.04,.04-.06,.06,0,0,0,.02,0,.03Z"/>
  <path d="M140.05,18.69c.04,.88,.15,1.76,.21,2.65,.17,2.46,.35,4.92,.51,7.39,.05,.84,.07,1.68,.1,2.51,.02,.61-.19,1.09-.74,1.4-.15,.08-.37,.11-.32,.42,1.17,.78,2.26,.36,3.34-.31,1.16,.63,2.29,.8,3.5-.16-1.28-.63-1.44-.84-1.53-2.06-.03-.37-.03-.74-.04-1.12-.08-2.23-.17-4.47-.25-6.7-.03-1.02-.05-2.05-.07-3.07,0-.47,.07-.93,.32-1.34,.35-.58,.85-.84,1.52-.77,.8,.07,1.25,.58,1.52,1.27,.42,1.08,.39,2.18,.04,3.28-.32,.99-.91,1.72-1.98,1.97-.11,.03-.2,.14-.3,.21,.73,1.52,1.89,2.12,3.38,1.79,1.24-.27,2.04-1.05,2.56-2.17,.51-1.09,.61-2.24,.54-3.41-.14-2.22-1.27-3.76-3.35-4.54-1.87-.7-3.75-.55-5.6,.14-.39,.14-.76,.32-1.11,.47-.36-.13-.66-.26-.97-.33-.84-.19-1.67-.17-2.45,.23-.18,.09-.33,.26-.52,.43,.17,.08,.25,.13,.34,.15,.91,.2,1.31,.78,1.35,1.69Z"/>
  <g>
    <path d="M20.42,178.67c.04-.23,.08-.45,.12-.67,.09-.6,.13-1.21,.28-1.79,.86-3.35,4.19-5.47,7.59-4.89,2.35,.4,4.14,1.6,5.32,3.68,.13,.23,.3,.43,.46,.65,.64-.26,.99-.67,1.18-1.22,.26-.72,.34-1.45,.13-2.2-.13-.45-.26-.89-.41-1.39,1-1.49,1.28-3.05,.02-4.59-.98-1.21-2.25-1.5-3.83-1.12,.29,.36,.55,.62,.74,.92,.4,.61,.32,1.26-.18,1.79-.62,.66-1.66,.78-2.42,.28-.85-.56-1.17-1.56-.64-2.44,.91-1.5,2.19-2.52,4.03-2.66,.32-.02,.66-.05,.97,.02,.48,.11,.95,.29,1.43,.44,.1-1.36-.03-1.65-1.29-3.12,.35-.79,.53-1.63,.21-2.54-.49-.17-.95-.12-1.4,0-.44,.12-.86,.28-1.26,.41-1.34-1.3-1.9-1.51-3.07-1.13,.1,.26,.19,.52,.29,.78,.31,.74,.26,1.47-.07,2.17-.22,.46-.49,.91-.84,1.27-.87,.89-1.79,1.73-2.72,2.62-.45-.31-.86-.61-1.29-.88-.43-.28-.89-.51-1.32-.79-.31-.2-.61-.43-.88-.69-.85-.83-1.28-1.82-1.1-3.02,.03-.18,.07-.37,.09-.55,.02-.17,.18-.34-.12-.59-1.25-.08-2.01,.77-2.67,1.79-.35-.08-.66-.18-.97-.22-.41-.05-.83-.07-1.25-.04-.37,.02-.57,.29-.56,.67,.01,.28,.03,.57,.11,.82,.19,.56,.43,1.11,.68,1.74-.86,1.01-1.07,2.22-.7,3.68,.3-.25,.49-.46,.72-.58,.4-.22,.82-.49,1.25-.56,2.02-.34,3.67,.46,4.97,1.94,.87,.98,.52,2.45-.62,3.12-.77,.45-1.71,.25-2.23-.48-.35-.49-.41-1.04-.25-1.6,.09-.3,.24-.58,.37-.9-.63-.26-1.15,0-1.64,.24-.6,.3-1.06,.76-1.38,1.34-.8,1.44-.7,3.66,.64,4.92,.27,.25,.52,.51,.75,.74,.02,.49,.02,.91,.06,1.32,.09,.9,.4,1.72,.96,2.43,.42,.53,.94,.9,1.72,.87Z"/>
    <path d="M277.33,123.11c-.2,.03-.39,.17-.62,.27,.13,.24,.22,.4,.31,.56,.67,1.27,.6,2.51-.19,3.7-.23,.35-.49,.68-.77,.99-.62,.69-1.26,1.37-1.91,2.07-1-.54-2.02-1.08-3.03-1.64-.24-.13-.48-.29-.69-.47-1.01-.82-1.58-1.82-1.31-3.17,.02-.12,0-.25,0-.45-1.5-.15-2.02,.96-2.64,1.95-.89-.11-1.77-.22-2.66,.24,.02,.27,.02,.54,.05,.8,.06,.68,.53,1.16,.89,1.7-.65,1.05-1.13,2.08-.48,3.24,.57-.33,1.06-.69,1.61-.92,1.63-.69,4.07,.12,5.25,1.42,.62,.68,.64,1.56,.08,2.3-.58,.78-1.54,1.03-2.36,.63-.75-.37-1.17-1.26-.76-1.99,.13-.24,.23-.5,.36-.8-.69-.22-1.22,.08-1.76,.32-.66,.29-1.13,.81-1.46,1.45-.85,1.6-.54,2.91,1.18,4.78-.16,.74-.15,1.53,.07,2.3,.21,.74,.56,1.39,1.27,1.76,.22,.12,.51,.11,.85,.17,.29-1.73,1.04-3.16,2.27-4.3,1.23-1.15,2.7-1.83,4.4-1.91,3.93-.18,6.09,2.03,7.24,5.54,.88-.18,1.3-.78,1.57-1.49,.35-.94,.39-1.91,.1-2.88-.17-.57-.13-1.07,.24-1.58,.6-.84,.69-1.81,.55-2.81-.33-2.27-2.26-3.57-4.58-3.05,.25,.29,.51,.56,.71,.86,.48,.75,.33,1.71-.3,2.29-.58,.52-1.5,.55-2.19,.05-.95-.68-1.23-1.66-.7-2.7,.64-1.25,1.61-2.17,2.9-2.71,.98-.41,1.98-.54,2.95,.05,.15,.09,.32,.13,.61,.23-.09-1.47-.61-2.6-1.73-3.44,.21-1.07,.58-2.12-.18-3.09-.96-.09-1.7,.43-2.46,.85-.3-.24-.54-.46-.8-.64-.55-.39-1.16-.6-1.84-.51Z"/>
    <path d="M284.83,159.12c-.94-.47-1.79,0-2.53,.12-.46-.5-.79-.96-1.21-1.31-.46-.39-1.02-.61-1.68-.43,0,.19-.03,.33,0,.45,.55,1.79-.2,3.08-1.57,4.12-.44,.34-.95,.59-1.42,.89-.5,.32-.99,.65-1.45,.96-.46-.43-.87-.81-1.28-1.18-.45-.41-.92-.8-1.34-1.23-1.19-1.22-1.59-2.6-.81-4.2,.04-.08,.04-.18,.06-.31-1.37-.36-2.28,.42-3.1,1.28-.9-.33-1.7-.76-2.6-.43-.47,.93-.12,1.75,.21,2.54-1.33,1.46-1.43,1.71-1.24,3.06,.48-.14,.95-.35,1.44-.4,1.94-.22,3.95,.89,4.91,2.59,.84,1.48-.49,2.82-1.62,2.8-.71,0-1.29-.26-1.64-.88-.36-.64-.22-1.25,.23-1.82,.15-.19,.52-.29,.29-.7-.25-.02-.53-.04-.8-.07-2.28-.21-4.57,2.52-3.2,5.09,.15,.28,.29,.57,.44,.84-.1,.32-.17,.59-.26,.85-.25,.68-.24,1.38-.16,2.07,.1,.82,.46,1.48,1.31,1.83,.51-.72,.96-1.43,1.49-2.06,.57-.69,1.3-1.19,2.11-1.59,.76-.38,1.57-.57,2.4-.71,.89-.16,1.78-.08,2.63,.18,3.53,1.06,4.99,3.63,5.08,7.22,.72,.02,1.22-.27,1.65-.72,.49-.52,.82-1.14,.96-1.84,.15-.72,.22-1.46,.34-2.26,.17-.15,.37-.33,.58-.52,1.48-1.36,1.48-3.82,.49-5.27-.35-.52-.82-.88-1.39-1.12-.43-.18-.85-.38-1.38-.11,.09,.26,.2,.5,.25,.76,.06,.32,.11,.65,.07,.96-.17,1.29-1.6,1.91-2.65,1.13-.91-.68-1.45-1.95-.4-3.16,.12-.14,.25-.28,.39-.4,.69-.56,1.45-1.05,2.31-1.28,1.42-.38,2.78-.36,3.88,.82,.05,.05,.16,.04,.29,.07,.44-1.36,.08-2.55-.76-3.64,.6-.94,1.07-1.88,.68-2.97Z"/>
    <path d="M259.36,224.88c-.02-.29-.02-.52-.04-.75-.07-.78-.39-1.43-1-1.93-.17-.14-.32-.35-.59-.19-.04,.09-.09,.17-.12,.25-.58,1.93-1.62,2.79-3.6,2.92-.56,.04-1.12,0-1.68,.02-.55,.02-1.09,.08-1.62,.12-.32-1.07-.65-2.08-.93-3.11-.12-.45-.18-.92-.2-1.38-.06-1.14,.31-2.11,1.29-2.78,.15-.1,.27-.22,.47-.39-.99-1.03-2.12-.86-3.27-.5-.59-.72-1.11-1.44-2.04-1.73-.89,.55-1,1.5-1.2,2.36-1.79,.56-2.08,.79-2.52,1.95,.08,.04,.16,.12,.24,.12,1.26,.06,2.19,.74,2.93,1.68,.8,1.03,1.2,2.2,1.14,3.51-.03,.67-.35,1.16-.95,1.44-.57,.27-1.19,.28-1.77,.03-.65-.29-1-.82-1.03-1.54-.03-.72,.29-1.19,1.01-1.5,.25-.11,.52-.18,.94-.33-1.33-1.19-2.67-1.43-4.16-.85-.62,.25-1.11,.68-1.5,1.21-.6,.81-.48,1.77-.58,2.7-.69,.57-1.38,1.14-1.75,1.97-.39,.88-.59,1.76,.15,2.64,.27-.15,.51-.28,.75-.42,1.69-.97,3.49-1.25,5.39-.77,3.1,.77,4.94,3.32,5.24,5.57,.2,1.45-.07,2.77-.64,4.08-.14,.33-.31,.64-.44,.92,.09,.12,.11,.17,.15,.19,.12,.06,.24,.14,.38,.16,.88,.17,1.65-.1,2.36-.62,.8-.59,1.4-1.36,1.86-2.24,.25-.06,.47-.13,.69-.17,1.74-.35,2.75-1.44,3.2-3.13,.37-1.41-.04-2.57-1.09-3.53-.15-.13-.36-.19-.6-.31-.06,.47-.06,.85-.17,1.2-.23,.76-.9,1.25-1.67,1.26-.74,.01-1.39-.49-1.64-1.27-.37-1.13,.11-2.23,1.23-2.61,1.62-.56,3.22-.43,4.71,.45,.69,.41,1.24,.98,1.43,1.82,.04,.17,.16,.31,.28,.54,1.05-1.04,1.36-2.25,1.23-3.61,.95-.48,1.76-1.09,2.09-2.11-.53-.96-1.57-.96-2.38-1.35Z"/>
    <path d="M19.66,131.82c-1.34-.34-2.46-.1-3.4,.8-1.28,1.23-1.62,3.15-.84,4.75,.18,.37,.41,.73,.62,1.1-.27,.9-.38,1.82-.3,2.76,.05,.57,.22,1.09,.53,1.57,.28,.44,.66,.75,1.26,.85,.1-.26,.18-.46,.26-.67,.1-.26,.19-.53,.3-.78,.89-2.06,3.16-4.29,6.56-4.1,2.29,.13,5.36,1.55,6.51,5.1,.13,.39,.11,.84,.48,1.13,.8-.03,1.25-.56,1.61-1.18,.31-.53,.46-1.12,.46-1.74,0-.46,0-.93,0-1.43,.59-.62,1.27-1.21,1.42-2.15,.14-.9,.1-1.76-.36-2.57-.36-.62-.84-1.13-1.5-1.42-.53-.23-1.07-.53-1.73-.3,.16,.34,.34,.63,.43,.93,.24,.8-.09,1.51-.82,1.87-1.2,.59-2.82-.47-2.76-1.81,.01-.22,.07-.48,.19-.66,.24-.34,.5-.68,.82-.93,.77-.63,1.68-1,2.67-1.15,1.15-.17,2.23,.02,3.15,.79,.17,.14,.36,.25,.56,.38,.48-1.27,.1-2.35-.47-3.3,.28-.49,.54-.88,.72-1.3,.18-.42,.32-.88,0-1.3-.82-.33-1.65-.27-2.44-.14-.37-.51-.66-.99-1.04-1.39-.42-.44-.95-.7-1.57-.59-.05,.1-.09,.14-.09,.18,0,.14-.01,.28,0,.42,.21,1.48-.46,2.52-1.65,3.29-.55,.35-1.14,.63-1.71,.94-.56,.31-1.12,.62-1.7,.95-.37-.44-.69-.84-1.03-1.21-.37-.41-.79-.8-1.15-1.22-.27-.32-.49-.68-.71-1.04-.6-1-.56-2.04-.11-3.08,.12-.28,.46-.48,.36-.93-.19-.05-.4-.14-.62-.14-.28-.01-.59-.03-.82,.09-.62,.3-1.2,.66-1.74,.97-.64-.25-1.23-.52-1.84-.71-.57-.18-.86,.04-.96,.67-.13,.79-.1,1.57,.24,2.34-1.06,.88-1.83,1.87-1.63,3.39,.26-.09,.44-.13,.6-.22,.8-.42,1.62-.38,2.44-.1,1.48,.51,2.55,1.51,3.29,2.87,.62,1.14,.07,2.05-.62,2.6-.71,.57-1.72,.57-2.31,.02-.67-.62-.79-1.48-.3-2.28,.19-.31,.45-.57,.73-.91Z"/>
    <path d="M35.86,203.21c2.7-1.41,6.05-.9,8.29,1.22,.26,.24,.42,.63,.88,.63,.1-.08,.23-.16,.31-.26,.6-.79,.56-1.66,.23-2.52-.27-.69-.64-1.34-.96-2,.51-2.24,.16-3.47-1.25-4.48-.59-.42-1.25-.6-1.97-.6-.68,0-1.35,.04-1.95,.55,.36,.27,.68,.45,.94,.71,.56,.54,.63,1.26,.21,1.9-.52,.81-1.55,1.09-2.47,.66-.88-.41-1.29-1.24-.98-2.2,.49-1.53,1.42-2.72,2.89-3.42,.72-.34,1.5-.53,2.31-.28,.18,.05,.35,.12,.47-.14-.26-1.15-.98-1.94-2.08-2.39-.06-.94,.23-1.93-.57-2.64-1.01-.02-1.66,.65-2.37,1.1-1.05-.59-2.07-1.15-3.29-.34,.14,.21,.24,.36,.35,.5,.78,.96,.9,2.01,.48,3.15-.11,.31-.22,.62-.39,.89-.59,.99-1.21,1.96-1.83,2.96-1.03-.31-2.04-.61-3.06-.92-.27-.08-.53-.18-.77-.32-1.26-.7-2.11-1.67-2.06-3.22,0-.21-.05-.42-.09-.67-1.36,.35-1.96,1.29-2.26,2.49-.97,.09-1.94-.05-2.64,.67,.04,1.16,.74,1.91,1.47,2.65-.56,1.34-.43,2.59,.33,3.99,.44-1.05,1.02-1.69,1.92-1.99,1.82-.61,3.5-.22,5.03,.83,.82,.56,.99,1.61,.54,2.5-.37,.75-1.09,1.2-1.78,1.11-.77-.1-1.42-.74-1.57-1.57-.04-.22,0-.46,.03-.69,.03-.22,.21-.43-.01-.72-1.02,.28-1.77,.92-2.21,1.88-.77,1.67-.09,3.96,1.43,4.98,.38,.25,.8,.46,1.04,.6,.37,.84,.64,1.54,.99,2.19,.38,.71,.96,1.26,1.72,1.57,.44,.18,.88,.3,1.3-.01-.09-.8-.25-1.59-.25-2.37,0-2.71,1.22-4.73,3.63-5.99Z"/>
    <path d="M272.92,191.11c-.27,.25-.09,.54-.11,.81-.11,1.31-.73,2.29-1.87,2.93-.32,.18-.67,.34-1.02,.45-1.01,.32-2.03,.62-3.03,.92-.55-.89-1.1-1.75-1.62-2.63-.23-.4-.42-.83-.58-1.27-.39-1.08-.3-2.1,.41-3.04,.14-.18,.28-.36,.45-.58-1.27-.84-2.33-.18-3.3,.32-.61-.36-1.11-.71-1.66-.96-.64-.3-.92-.12-1.18,.52-.25,.63-.21,1.27-.09,1.89-1.62,1.06-1.93,1.47-2.01,2.67,.32-.04,.63-.11,.93-.11,.32,0,.65,.04,.96,.12,1.24,.3,2.16,1.06,2.87,2.09,.37,.54,.69,1.1,.8,1.77,.29,1.68-1.15,2.39-2.29,2.17-.69-.14-1.18-.57-1.36-1.26-.17-.64,.02-1.2,.56-1.62,.25-.19,.5-.38,.83-.63-1.54-.69-2.92-.71-4.17,.31-1.42,1.16-1.59,2.65-.96,4.28-.2,.35-.42,.66-.57,.99-.24,.55-.52,1.11-.64,1.69-.18,.87,0,1.66,.86,2.2,.19-.17,.36-.32,.52-.49,1.72-1.76,3.82-2.44,6.23-2.14,2.27,.29,4.02,1.43,5.12,3.45,.77,1.43,1.06,2.97,.69,4.6-.08,.34-.25,.71-.01,1.11,.81,.23,1.45-.15,2.02-.63,.66-.55,1.09-1.27,1.39-2.07,.13-.34,.22-.71,.34-1.07,.89-.52,1.82-.96,2.34-1.93,.51-.94,.63-1.95,.49-2.98-.09-.66-.43-1.23-.9-1.7-.45-.46-.97-.8-1.67-.95,.05,.5,.13,.91,.12,1.31-.03,.86-.61,1.5-1.43,1.66-.69,.14-1.47-.28-1.85-.98-.56-1.06-.31-2.15,.73-2.8,1.22-.76,2.58-1.1,4.01-.86,1.05,.17,1.94,.64,2.44,1.66,.07,.15,.22,.25,.36,.4,.68-1.31,.72-2.57,.22-3.89,.87-.7,1.46-1.54,1.48-2.64-.81-.65-1.74-.53-2.61-.64-.37-1.18-.92-2.18-2.23-2.44Z"/>
    <path d="M62.1,230.31c.31,.17,.56,.51,1.01,.45,.36-.53,.49-1.08,.35-1.71-.18-.8-.57-1.47-1.15-2.04-.29-.29-.61-.56-.92-.85,.15-1.85-.47-3.28-2.25-3.93-1.42-.52-2.72-.22-3.89,.91,.43,.17,.79,.27,1.1,.45,.77,.43,1.01,1.25,.64,2.04-.4,.85-1.2,1.22-2.22,1.01-.89-.18-1.48-.84-1.41-1.8,.05-.73,.21-1.49,.51-2.16,.7-1.57,1.83-2.69,3.67-2.84,.06,0,.11-.12,.2-.23-.47-1.14-1.47-1.56-2.63-1.8-.13-.96-.27-1.89-1.16-2.37-.97,.3-1.42,1.12-2.07,1.73-1.13-.39-2.2-.51-3.19,.49,.26,.22,.46,.4,.66,.57,.86,.71,1.21,1.65,1.1,2.73-.06,.6-.24,1.18-.38,1.77-.16,.63-.35,1.25-.53,1.88-.08,.26-.18,.51-.24,.68-.84-.03-1.58-.06-2.32-.08-.37-.01-.75,0-1.12-.04-1.73-.19-2.98-1.01-3.44-2.78-.04-.16-.1-.32-.17-.51-1.35,.64-1.55,1.82-1.62,3.07-.91,.24-1.79,.43-2.36,1.22,.33,1.11,1.25,1.68,2.1,2.21,.04,1.97,.29,2.62,1.33,3.57,.4-1.24,.62-1.65,1.26-2.11,1.61-1.14,3.37-1.31,5.19-.64,1.18,.43,1.59,1.82,.98,2.92-.63,1.14-2.15,1.24-2.89,.16-.2-.3-.28-.68-.39-1.03-.06-.2-.08-.42-.14-.7-.92,.5-1.46,1.2-1.63,2.11-.46,2.47,1.11,4.43,3,4.83,.31,.07,.62,.15,.9,.21,.23,.37,.41,.7,.63,1,.53,.73,1.18,1.32,2.02,1.68,.8,.34,1.37,.3,2.09-.18-.24-.54-.52-1.07-.72-1.63-.97-2.67-.23-5.54,1.88-7.38,2.29-1.98,5.57-2.33,8.23-.89Z"/>
    <path d="M41.38,220.08c.43-.27,.86-.57,1.32-.79,.68-.32,1.29-.05,1.6,.64,.2,.44,.16,.89,.13,1.37-.06,.99,.35,1.59,1.29,1.9,.75,.25,1.52,.43,2.37,.31,.24-.76,.43-1.51,.42-2.31-.02-.99-.3-1.41-1.24-1.8-.3-.12-.62-.21-.89-.38-.87-.56-.91-1.42-.11-2.06,.25-.2,.54-.36,.81-.54,.66-.43,1.32-.88,1.99-1.3,2.31-1.45,2.64-5.04,.97-6.89-.14-.16-.27-.38-.55-.27-.18,.49-.35,.96-.54,1.48-.4-.2-.76-.41-1.14-.56-1.49-.59-3.32,.32-3.68,1.81-.17,.7,.04,1.3,.55,1.78,.42,.4,.92,.59,1.51,.3-.08-.21-.15-.39-.21-.56-.19-.57,.25-1.2,.86-1.41,.46-.15,1.01,.04,1.35,.49,.37,.5,.39,1.03,.11,1.58-1.08,2.1-4.25,2.48-5.61,.5-.83-1.21-.88-2.51-.37-3.86,.12-.32,.44-.58,.39-1-.81-.13-1.32,.45-1.96,.73-.64-.83-1.27-1.57-2.32-1.66-.38,.27-.45,.65-.49,1.01-.04,.32,0,.65,.04,.97,.04,.35,.33,.66,.24,1.04-.58,.37-1.37,.46-1.56,1.33,.4,.04,.78,.05,1.14,.13,1.62,.37,2.75,1.3,3.28,2.91,.51,1.55-.35,3.75-2.56,4.29-.95,.23-1.79-.24-2.16-1.11-.21-.5-.09-1.04,.31-1.4,.41-.37,1.09-.41,1.54-.03,.21,.17,.34,.43,.52,.67,.64-.74,.56-1.4,.22-2.05-.35-.66-.91-1.04-1.67-1.1-1.66-.14-2.9,1.04-2.94,2.81,0,.26,.19,.53-.02,.8-.59,.22-1.11-.28-1.75-.25,.38,1.61,1.26,2.77,2.63,3.51,1.58,.85,3.2,.94,4.76-.11,.46-.31,.94-.61,1.41-.91Z"/>
    <path d="M285.39,148.89c-.47,.35-.72,.91-1.33,1.05-.08-.11-.17-.2-.24-.32-.08-.12-.13-.25-.2-.37-.82-1.4-1.95-1.52-3.1-1.3-.9,.18-1.51,.75-1.67,1.67-.07,.39,.04,.83,.15,1.22,.14,.45,.44,.8,.92,.95,.07-.11,.15-.17,.16-.25,.03-.14,0-.28,.04-.42,.17-.63,.6-.96,1.2-.94,.57,.02,1.03,.45,1.13,1.05,.14,.9-.29,1.66-1.14,2.01-1.24,.51-2.73,.13-3.71-.89-1.35-1.41-1.05-3.91,.08-5.13,.31-.34,.69-.63,1.05-.92,.16-.13,.27-.25,.17-.46-.59-.41-1.27-.07-1.87-.2-.52-1.77-.65-1.97-1.65-2.48-.17,.18-.38,.36-.54,.57-.48,.6-.5,1.37-.66,2.06q-1.25-.06-1.99,.46c.32,.22,.62,.42,.92,.63,.67,.48,1.12,1.13,1.35,1.91,.38,1.35,.25,2.61-.86,3.59-1.09,.94-2.33,1.09-3.66,.54-.49-.2-.86-.53-1.03-1.07-.21-.67,.08-1.39,.71-1.62,.69-.26,1.47,.08,1.63,.85,.04,.19-.1,.47,.26,.56,.75-.36,1.12-1,1.04-1.8-.08-.86-.65-1.38-1.46-1.71-.98-.39-2.49,0-3.15,.9-.24,.33-.47,.68-.7,1.02-.27-.21-.48-.4-.71-.54-.21-.13-.31-.5-.67-.35-.03,.04-.07,.08-.08,.12-.78,2.88,1.63,5.55,3.93,5.7,.98,.06,1.95,.12,2.93,.18,.32,.02,.66,.01,.97,.09,.72,.17,1.08,.81,.81,1.49-.15,.38-.4,.74-.67,1.04-.55,.61-.78,1.34-.13,2.29,.42,.61,.92,1.16,1.51,1.9,.67-.6,1.26-1.05,1.77-1.59,.72-.76,.76-1.52,.23-2.42-.09-.16-.22-.3-.31-.46-.64-1.15-.13-2.07,1.16-2.11,.23,0,.47,.02,.7,.02,.79,.02,1.59,0,2.38,.05,1.43,.08,2.52-.53,3.43-1.56,.7-.79,1.07-1.75,1.24-2.77,.13-.78,.08-1.56-.29-2.3Z"/>
    <path d="M265.65,217.77c-.01-.4,0-.82-.04-1.23-.12-1-.66-1.73-1.59-2.13-1.13-.5-2.38-.13-2.94,.86-.4,.71-.34,1.38,.21,1.99,.12-.14,.22-.31,.35-.43,.51-.46,1.17-.5,1.64-.12,.41,.32,.55,1,.3,1.53-.08,.17-.19,.33-.31,.46-.57,.62-1.28,.72-2.05,.48-2.15-.66-3.1-3.19-1.91-5.1,.73-1.17,1.78-1.88,3.16-2.06,.27-.03,.54-.07,.82-.1-.02-.55-.41-.74-.77-.95-.27-.16-.55-.29-.84-.45,.33-.78,.46-1.51,.28-2.26-.06-.25-.23-.47-.35-.69-1.14,.13-1.77,.88-2.4,1.68-.63-.33-1.15-.91-1.98-.66,.19,.42,.38,.78,.54,1.16,.39,.96,.36,1.92-.04,2.86-.48,1.16-1.31,1.91-2.61,2.04-1.37,.13-2.46-.38-3.27-1.48-.29-.4-.35-.86-.26-1.33,.11-.56,.47-.9,1-1.05,.45-.13,.83,.08,1.13,.4,.35,.36,.52,.77,.21,1.26-.07,.1-.08,.24-.12,.35,.06,.05,.1,.1,.14,.11,.8,.13,1.38-.24,1.73-.91,.34-.66,.28-1.36-.13-2-.7-1.09-2.25-1.57-3.46-1.07-.33,.14-.63,.33-1.02,.53-.24-.55-.46-1.05-.69-1.57-.14,.1-.27,.17-.36,.27-2.09,2.35-1.07,5.71,.78,6.91,.78,.5,1.57,1.01,2.34,1.52,.31,.21,.62,.43,.87,.69,.35,.35,.37,.88,.07,1.28-.16,.22-.38,.41-.62,.55-.23,.14-.52,.2-.78,.3-.92,.38-1.22,.8-1.2,1.82,.01,.56,.09,1.12,.18,1.67,.04,.25,.2,.49,.3,.74,.59-.08,1.09-.15,1.6-.23,.23-.04,.45-.11,.67-.18,.89-.3,1.36-.97,1.29-1.77-.03-.28-.06-.57-.02-.84,.05-.31,.15-.64,.31-.91,.29-.5,.79-.66,1.32-.44,.34,.14,.66,.33,.98,.53,.71,.44,1.41,.91,2.12,1.35,.78,.47,1.63,.71,2.54,.59,2.13-.28,3.59-1.44,4.4-3.42,.08-.19,.05-.43,.06-.65-.53-.07-1.02,.41-1.63,.13Z"/>
    <path d="M25.22,189.66c.7-.24,1.42-.46,2.13-.68,.27-.08,.53-.18,.81-.22,1.04-.16,1.73,.54,1.53,1.57-.07,.36-.21,.71-.34,1.06-.14,.38-.09,.76,.13,1.07,.23,.33,.52,.68,.86,.89,.63,.38,1.32,.67,2.01,1.01,.5-.73,.81-1.45,1.05-2.2,.31-.99,.09-1.54-.76-2.17-.26-.19-.55-.36-.77-.6-.65-.72-.48-1.53,.38-1.94,.29-.14,.61-.22,.92-.33,.8-.26,1.59-.54,2.39-.77,2.08-.6,4-3.51,2.74-6.28-.09-.19-.14-.46-.48-.45-.3,.39-.61,.79-.95,1.22-.18-.17-.35-.32-.51-.49-.75-.79-1.69-.94-2.7-.77-.72,.12-1.3,.49-1.68,1.14-.33,.56-.37,1.15-.1,1.74,.27,.59,.73,.92,1.44,.98,0-.28-.02-.5,0-.73,.07-.65,.59-1.12,1.2-1.14,.53-.01,1.04,.43,1.17,1.02,.18,.79-.16,1.37-.78,1.8-2.23,1.55-4.9,.26-5.27-1.95-.09-.52-.11-1.01,0-1.52,.17-.8,.54-1.48,1.11-2.07,.15-.15,.38-.28,.21-.58-.12-.03-.26-.09-.39-.07-.5,.07-.99,.17-1.56,.26-.41-.91-.8-1.88-1.91-2.16-.96,.8-.75,1.88-.82,2.85-.48,.12-.89,.19-1.27,.32-.24,.08-.54,.17-.49,.58,.36,.17,.75,.32,1.12,.52,.94,.51,1.6,1.27,1.97,2.27,.81,2.19-.4,4.37-2.86,4.76-.53,.08-1.03-.06-1.47-.34-.45-.29-.72-.72-.79-1.26-.08-.59,.25-1.17,.76-1.36,.55-.2,1.08-.02,1.44,.52,.12,.18,.2,.39,.3,.59,1.43-.85,.72-2.97-.75-3.4-1.38-.4-2.78,.28-3.28,1.65-.14,.39-.19,.81-.29,1.28-.57-.29-1.12-.56-1.76-.88,.03,1.78,.62,3.2,1.88,4.3,1.28,1.12,2.75,1.52,4.41,.94Z"/>
    <path d="M18.97,155.52c.79-.03,1.58-.03,2.38-.05,.33,0,.65-.03,.98,0,.93,.08,1.4,.82,1.07,1.69-.13,.34-.36,.65-.54,.97-.48,.83-.44,1.43,.16,2.19,.52,.65,1.18,1.15,1.9,1.63,.6-.63,1.16-1.18,1.56-1.88,.46-.79,.4-1.48-.17-2.19-.2-.25-.44-.49-.59-.77-.46-.89-.02-1.71,.97-1.85,.32-.04,.65-.02,.98-.04,.88-.05,1.77-.07,2.65-.18,1.9-.23,3.14-1.34,3.82-3.07,.36-.91,.52-1.87-.02-2.84-.47,.34-.92,.66-1.37,.98-.22-.35-.38-.69-.61-.98-.84-1.08-2.31-1.4-3.52-.8-1.32,.66-1.5,2.27-.34,3.22,.08,.07,.25,.04,.38,.05,.1-.3,.17-.61,.33-.88,.26-.44,.83-.62,1.35-.47,.46,.13,.8,.52,.86,1,.09,.67-.23,1.27-.86,1.62-1.79,1.02-4.12,.08-4.82-1.85-.42-1.16,.19-3.22,1.31-4.01,.33-.23,.66-.47,1.02-.72-.58-.67-1.31-.44-1.94-.45-.3-1.03-.32-2.12-1.39-2.65-1.09,.53-1.18,1.64-1.53,2.51-.51,0-.93-.02-1.34,0-.23,.01-.47,.07-.53,.41,.29,.25,.62,.5,.92,.79,.89,.85,1.33,1.9,1.32,3.12,0,1.57-.99,2.85-2.5,3.33-.8,.25-1.57,.19-2.31-.16-.81-.39-1.21-1.32-.94-2.11,.18-.53,.62-.88,1.14-.88,.54,0,.98,.28,1.18,.82,.09,.24,.11,.51,.18,.81,1.02-.51,1.19-1.33,1.05-2.27-.12-.83-.68-1.35-1.44-1.54-1.43-.35-2.47-.06-3.27,1.19-.17,.27-.3,.58-.47,.92-.46-.41-.9-.79-1.41-1.25-.36,1.62-.29,3.07,.54,4.4,.9,1.44,2.14,2.31,3.91,2.25Z"/>
    <path d="M279.42,185.29c-.13-.45-.23-.91-.4-1.33-.65-1.63-2.19-1.9-3.32-1.56-.71,.21-1.22,.71-1.38,1.45-.16,.76-.1,1.49,.67,2.03,.12-.27,.21-.53,.34-.75,.17-.3,.43-.47,.78-.52,.86-.13,1.53,.58,1.39,1.46-.16,.96-.96,1.59-2.01,1.57-2.16-.03-3.8-2.19-3.26-4.28,.35-1.35,1.16-2.31,2.41-2.92,.32-.15,.64-.29,.98-.44-.47-.76-1.3-.57-1.9-.88,.02-1.05,.09-2.1-.85-2.81-1.03,.54-1.16,.67-1.61,1.52-.12,.23-.26,.46-.37,.66-.69-.08-1.27-.56-1.98-.05,.21,.26,.38,.47,.56,.68,.77,.91,1.06,1.96,.91,3.12-.17,1.32-.9,2.23-2.17,2.65-1.31,.44-2.49,.12-3.49-.81-.44-.41-.59-.94-.43-1.54,.14-.54,.74-1,1.23-.97,.68,.04,1.19,.59,1.19,1.29,0,.17-.06,.33-.09,.5,.16,.04,.26,.1,.33,.08,.8-.24,1.28-.78,1.36-1.6,.08-.82-.34-1.43-1-1.88-.93-.62-2.4-.59-3.3,.08-.29,.22-.54,.49-.86,.79-.35-.46-.68-.89-1.01-1.33-.06,.04-.14,.08-.19,.14-1.24,1.87-.69,5.33,2.19,6.57,.85,.37,1.77,.59,2.65,.88,.4,.13,.79,.27,1.17,.45,.42,.21,.57,.59,.53,1.05-.04,.45-.27,.79-.62,1.05-.26,.2-.55,.36-.8,.56-.38,.31-.64,.71-.58,1.21,.13,1.07,.53,2.03,1.23,2.87,.53-.24,1-.45,1.46-.67,.17-.08,.33-.17,.49-.27,.94-.59,1.17-1.18,.9-2.24-.08-.31-.21-.63-.23-.94-.08-1.05,.51-1.59,1.53-1.43,.27,.04,.54,.14,.81,.22,.76,.24,1.5,.5,2.27,.71,.44,.12,.91,.22,1.37,.21,1.38-.05,2.52-.65,3.4-1.69,.9-1.06,1.44-2.26,1.3-3.78-.57,.31-1.05,.57-1.58,.85Z"/>
  </g>
  <path d="M233.57,244.19c-1.52-.59-2.85-.14-3.97,.95-.7,.68-1,1.53-.78,2.61,.23-.07,.41-.1,.56-.18,.84-.46,1.63-.29,2.36,.23,1.17,.84,1.99,1.95,2.49,3.29,.16,.44,.19,.91,.06,1.38-.28,.94-1.28,1.24-1.97,.58-.23-.23-.43-.49-.63-.75-2.21-2.77-4.41-5.54-6.61-8.32-.2-.26-.4-.51-.6-.77-.43-.56-.57-1.16-.2-1.82,.09-.16,.2-.32-.03-.47-1.38,.11-2.09,1.05-2.58,2.13-1.9,.5-2.43,.94-2.66,2.22,1.04-.47,1.71,.04,2.27,.81,.08,.11,.17,.22,.25,.34,2.22,3,4.44,5.99,6.66,8.99,.14,.19,.28,.37,.41,.57,.37,.54,.46,1.1,.12,1.7-.1,.18-.35,.33-.19,.6,1.56-.17,2.05-.54,3.1-2.37,2.07-.38,3.59-1.57,4.83-3.14,.93-1.18,1.45-2.56,1.09-4.05-.52-2.17-1.89-3.71-3.99-4.52Z"/>
  <path d="M69.27,246.8c2.19-.5,4.23-3.19,4.45-5.11,.24-2.08-.49-3.74-2.06-5.07-.86-.73-1.86-1.23-2.91-1.49-1.01-2.06-1.18-2.22-2.56-2.45,.02,.14,0,.28,.05,.39,.3,.64,.11,1.18-.32,1.67-.15,.18-.32,.34-.49,.5-1.38,1.39-2.76,2.78-4.13,4.17-1.34,1.36-2.7,2.7-4.01,4.09-.69,.73-1.44,.99-2.37,.54-.05-.02-.15,.06-.27,.11,.32,1.5,1.41,2.19,2.71,2.58,.86,1.89,1.51,2.48,2.92,2.63-.51-1.36-.5-1.66,.28-2.51,2.42-2.64,4.86-5.28,7.3-7.9,.28-.3,.61-.59,.98-.77,.92-.46,2.23-.11,2.1,1.44-.02,.18-.02,.38-.1,.55-.6,1.37-1.49,2.45-2.97,2.96-.56,.19-1.08,.2-1.63-.03-.24-.1-.45-.38-.85-.1-.22,1.02-.19,2.06,.68,2.89,.89,.85,1.94,1.2,3.2,.91Z"/>
  <path d="M217.25,71.03c-1.29,.26-29.77,10.55-36.2,13.07-.21,.08-.4,.19-.65,.31,.07,.28,.12,.5,.19,.72,.1,.3,.22,.6,.39,1.06,13.05-3.91,25.97-7.79,38.88-11.67,.13-.04,.23-.14,.35-.22-.64-1.02-1.85-2.35-2.95-3.28Z"/>
  <path d="M188.44,34.08c-.8,1.01-1.07,2.15-.71,3.41,.34,1.21,1.03,2.18,2.04,2.92,1.35,.98,2.87,1.57,4.52,1.72,1.67,.15,3.25-.19,4.62-1.24,1.92-1.47,2.41-3.92,1.16-5.98-.33-.55-.81-1.01-1.23-1.51-.17-.2-.35-.39-.65-.71,.64,0,1.1,.01,1.57,0,.76-.02,1.47-.26,2.11-.66,1.24-.77,1.71-2.17,1.14-3.52-.19-.46-.47-.92-.81-1.29-1.21-1.3-2.68-2.14-4.46-2.4-.55-.08-1.1-.17-1.66-.23-.82-.1-1.53-.38-2.07-1.21-.36,.14-.64,.2-.86,.34-1.17,.72-1.35,2.25-.38,3.23,.47,.48,1.06,.79,1.74,.75,.46-.03,.91-.14,1.36-.26,.54-.14,1.06-.35,1.6-.5,.75-.21,1.38,.06,1.92,.55,.5,.46,.59,1.02,.32,1.66-.27,.63-.71,1.11-1.37,1.31-.53,.15-1.09,.25-1.64,.28-.83,.05-1.66,.01-2.57,.01-.1,.34-.19,.68-.29,1.04,.44,.37,.85,.67,1.22,1.02,.9,.83,1.42,1.86,1.37,3.09-.04,.88-.27,1.76-.76,2.52-.25,.38-.55,.77-.91,1.04-.81,.61-1.72,.7-2.64,.25-.83-.4-1.24-1.1-1.23-2.03,0-.78,.65-1.57,1.49-1.84,.13-.04,.28-.04,.41-.07,.21-.04,.42-.1,.67-.15-.15-1.32-.83-2.12-2-2.49-1.1-.35-2.26,.02-3,.96Z"/>
  <path d="M82.75,70.98c-1.02,.81-2.34,2.25-3.02,3.28,.07,.05,.14,.12,.22,.16,.17,.08,.34,.15,.52,.2,12.76,3.82,25.52,7.64,38.28,11.45,.04,.01,.09,0,.13,0,.04-.01,.09-.04,.2-.08,.21-.49,.51-1,.41-1.69-12.1-4.41-24.17-8.82-36.24-13.22-.17-.06-.36-.07-.5-.1Z"/>
  <path d="M166.11,33.92c1.01,.95,2.16,.91,3.38,.46,1.14,.99,2.5,1.45,3.97,1.55,2.57,.18,4.42-.83,5.41-3.09,.47-1.09,.68-2.21,.66-3.4-.02-1.63-1.02-3.39-3.53-3.63-.91-.08-1.73,.24-2.29,1.04,.09,.1,.13,.19,.2,.22,1.39,.78,1.8,1.57,1.49,3.08-.16,.77-.39,1.54-.66,2.28-.16,.43-.43,.82-.71,1.2-.22,.31-.55,.49-.94,.54-.67,.09-1.21-.36-1.19-1.04,0-.32,.08-.64,.15-.96,.7-3.61,1.41-7.22,2.1-10.83,.3-1.56,.41-1.7,1.97-2.23-1.15-1.2-2.5-1.07-3.87-.72-1.17-.92-2.4-1.26-3.79-.69,.03,.32,.28,.37,.47,.49,.57,.36,.8,.89,.72,1.55-.03,.28-.07,.55-.12,.83-.14,.92-.29,1.84-.44,2.76-.46,2.9-.93,5.79-1.38,8.69-.13,.87-.51,1.48-1.43,1.67-.06,.01-.1,.13-.18,.25Z"/>
  <path d="M115.93,23.16c.98,3.73,1.95,7.47,2.95,11.2,.24,.91,.16,1.65-.64,2.23-.05,.03-.03,.15-.05,.25,1.29,.41,2.37-.02,3.3-.88,.42,.05,.78,.1,1.16,.13,1.38,.12,2.7-.11,3.94-.72,1.51-.75,2.52-1.92,2.77-3.62,.18-1.21,.1-2.42-.3-3.59-.23-.67-.54-1.29-1.03-1.81-1.14-1.22-2.87-1.54-4.35-.77-.67,.35-1.22,.83-1.31,1.64,.08,.06,.11,.1,.15,.12,.09,.03,.17,.06,.26,.07,1.26,.04,1.92,.83,2.3,1.92,.38,1.11,.5,2.27,.39,3.44-.05,.48-.19,.91-.5,1.28-.51,.59-1.41,.49-1.74-.21-.14-.29-.21-.61-.29-.93-.55-2.4-1.1-4.81-1.64-7.21-.31-1.36-.59-2.73-.89-4.09-.2-.92,0-1.66,.89-2.12,.04-.02,.04-.14,.08-.26-1.45-.56-2.62-.04-3.74,.9-1.39-.25-2.75-.27-3.84,.97,1.6,.42,1.75,.56,2.15,2.07Z"/>
  <path d="M129.69,265.91c-.62-.67-.64-.63-1.01-.8-.62-.29-1.17,.14-1.69,.18-1.03-.89-1.14-.91-2.08-.33,.43,1.41,.44,1.41-.32,2.71-.66,1.12-1.33,2.24-2.02,3.35-.14,.22-.23,.53-.6,.55-.05-.11-.13-.22-.16-.35-.43-1.67-.88-3.33-1.28-5-.25-1.03-.17-1.21,.67-2.09-.72-1.09-1.74-1.06-2.79-.73-.31-.26-.55-.48-.82-.66-.59-.41-1.26-.6-1.98-.56-.25,.02-.5,.16-.78,.27,.48,.64,.72,1.28,.87,1.97,.53,2.31,1.08,4.62,1.64,6.92,.32,1.31,.62,2.63,1.02,3.92,.24,.77,.09,1.37-.42,1.92-.22,.24-.45,.48-.72,.64-.23,.14-.52,.22-.78,.24-1,.07-1.62-.9-1.17-1.81,.17-.35,.46-.58,.81-.73,.25-.1,.49-.22,.77-.34-.07-.25-.09-.44-.18-.59-.58-.95-1.47-1.23-2.52-1.1-1.09,.13-1.77,.81-2.11,1.8-.48,1.39-.04,2.57,1,3.53,.7,.65,1.57,.96,2.48,1.23,1.32,.39,2.48,.11,3.57-.65,.77-.54,1.41-1.21,1.94-1.99,1.96-2.84,3.92-5.67,5.85-8.52,.78-1.15,1.47-2.37,2.82-3Z"/>
  <path d="M157.63,280.46c-.09-.22-.18-.43-.26-.65-1.09-3.12-2.17-6.25-3.25-9.37-.06-.18-.12-.35-.16-.54-.19-.8-.05-1.48,.72-1.93,.15-.09,.27-.21,.45-.36-1.26-.83-2.38-.48-3.48,.12-1.16-.67-2.27-.87-3.47,.06,.29,.13,.5,.19,.68,.3,.64,.39,.82,.8,.66,1.52-.04,.18-.1,.36-.17,.53-1.32,3.28-2.62,6.58-3.97,9.85-.59,1.41-1.22,2.82-2.61,3.72,1.01,.95,1.99,.79,3.01,.17,.82,.54,1.64,.98,2.52,.04-.11-.13-.17-.25-.27-.32-.54-.38-.6-.91-.46-1.49,.04-.18,.12-.35,.18-.53,.86-2.46,1.72-4.92,2.6-7.38,.08-.24,.24-.45,.42-.77,.73,2.88,1.41,5.64,2.15,8.38,.23,.84,.14,1.45-.63,1.92-.04,.02-.02,.16-.03,.24,1.21,.73,1.34,.73,3.27-.11,1.39,.61,2.76,.55,4.18-.34-1.14-.76-1.62-1.92-2.1-3.07Z"/>
  <path d="M223.17,255.89c-.63,0-1.19,.19-1.65,.63-.53,.5-.8,1.11-.8,1.89,.29,.12,.54,.21,.79,.33,.62,.29,.87,.82,.86,1.47-.01,1.14-1.19,2.03-2.35,1.77-.96-.22-1.67-.82-2.28-1.54-1.91-2.27-3.31-4.83-4.3-7.62-.17-.47-.2-1-.21-1.51,0-.74,.41-1.09,1.17-1.04,.37,.02,.74,.1,1.11,.15,.23,.03,.46,.11,.69,.11,1.01,.02,1.96-.77,2.09-1.71,.13-.9-.48-1.79-1.47-2.1-.22-.07-.45-.07-.85-.13-.35,.83-1.02,1.09-1.76,1.31-2.89,.84-4.53,3.25-4.57,6.15-.05,3.13,1.04,5.86,3.12,8.15,2.02,2.22,4.59,2.95,7.5,2.13,2.09-.59,3.76-1.81,4.91-3.69,.51-.83,.66-1.73,.47-2.69-.23-1.17-1.31-2.05-2.49-2.05Z"/>
  <path d="M93.31,266c-.19-.96-.85-1.52-1.76-1.8-.67-.2-1.28-.07-1.9,.34,.04,.23,.07,.45,.12,.67,.25,1.06-1.17,2.26-2.34,1.68-.95-.47-1.54-1.4-1.36-2.51,.13-.77,.34-1.56,.68-2.26,.7-1.42,1.47-2.8,2.3-4.15,.51-.83,1.14-1.59,1.75-2.35,.41-.51,.91-.93,1.52-1.21,.55-.25,1.01-.13,1.3,.41,.19,.37,.3,.78,.47,1.16,.14,.34,.27,.7,.48,1,.48,.68,1.38,.99,2.08,.77,.85-.27,1.37-.97,1.39-1.88,0-.43-.06-.84-.44-1.32-.71,.08-1.26-.22-1.73-.71-.16-.17-.33-.33-.51-.47-1.57-1.26-3.32-1.81-5.34-1.37-1.07,.23-2.03,.66-2.92,1.28-2,1.4-3.47,3.23-4.39,5.49-.69,1.68-.87,3.42-.28,5.19,.66,2,2,3.45,3.81,4.46,1.32,.74,2.74,1.15,4.29,1,.72-.07,1.37-.3,1.91-.77,.8-.7,1.09-1.61,.88-2.65Z"/>
  <path d="M88,65.8c-.16,.14-.26,.35-.44,.6,.55,.26,1,.49,1.46,.7,5.61,2.61,11.22,5.22,16.83,7.83,4.51,2.1,9.03,4.2,13.55,6.29,.4,.19,.78,.53,1.37,.37,.22-.46,.46-.95,.73-1.51-10.31-5.56-20.54-11.08-30.82-16.6-.93,.8-1.82,1.55-2.69,2.32Z"/>
  <path d="M178.9,79.88c-.12,.07-.23,.16-.35,.24,.14,.33,.23,.6,.35,.84,.12,.24,.27,.47,.39,.67,.12,.01,.17,.03,.21,.02,.13-.03,.28-.05,.4-.11,10.77-5.01,21.54-10.02,32.3-15.04,.04-.02,.08-.05,.1-.09,.02-.03,.01-.08,.03-.2-.94-.96-1.97-1.87-3.15-2.68-10.12,5.46-20.2,10.9-30.29,16.34Z"/>
  <path d="M154.41,33.24c.85,.19,1.66,.02,2.45-.35,1.1,.72,2.22,.99,3.49,.26-.19-.14-.32-.26-.47-.34-.59-.34-.8-.88-.79-1.53,0-.23,.02-.47,.04-.7,.26-3.02,.51-6.04,.78-9.05,.1-1.11,.22-2.21,.34-3.39,.3,.07,.55,.06,.72,.18,.35,.22,.67,.5,.99,.77,.35,.3,.66,.66,1.04,.93,.95,.67,1.97,.83,3.03,.27,.66-.35,1.07-.89,1.15-1.65,.08-.81-.19-1.45-.92-1.88-.93,.47-1.82,.4-2.73,.05-.43-.17-.88-.32-1.32-.46-1.14-.35-2.29-.39-3.44-.03-.3,.1-.59,.24-.84,.34-1.86-.94-2.61-.96-3.81-.17,.01,.04,.01,.1,.04,.11,.07,.05,.15,.1,.24,.13,.78,.26,1.08,.83,1.05,1.62,0,.28-.01,.56-.02,.84-.09,1.77-.18,3.54-.27,5.31-.1,2.05-.2,4.1-.28,6.15-.04,.86-.28,1.56-1.19,1.84-.06,.02-.1,.13-.16,.22,.19,.36,.55,.47,.9,.54Z"/>
  <path d="M93.53,61.32c.11,.14,.17,.28,.28,.34,9.44,5.69,18.89,11.38,28.35,17.07,.52-.47,.75-1.01,1.07-1.57-.22-.18-.38-.34-.57-.47-8.63-5.91-17.27-11.83-25.94-17.75-1.13,.76-2.2,1.49-3.18,2.37Z"/>
  <path d="M202.04,59.78c-3.76,2.58-7.53,5.15-11.29,7.73-4.38,3-8.75,6-13.13,9.01-.3,.2-.68,.33-.74,.82,.12,.21,.24,.46,.4,.69,.15,.22,.33,.42,.52,.67,.39-.21,.72-.38,1.03-.56,1.32-.79,2.63-1.58,3.95-2.37,7.58-4.56,15.15-9.12,22.73-13.69,.33-.2,.77-.3,.94-.76-1.05-.84-2.1-1.59-3.2-2.32-.44,.29-.83,.53-1.21,.79Z"/>
  <path d="M99.55,57.11c.11,.14,.17,.27,.27,.34,7.98,6.06,15.97,12.11,23.96,18.16,.11,.08,.25,.11,.41,.17,.42-.43,.86-.83,1.04-1.4-.93-.98-21.52-18.58-22.52-19.25-1.05,.6-2.14,1.2-3.16,1.98Z"/>
  <path d="M197.19,55.16c-1.44,1.04-21.71,18.44-22.46,19.28,.3,.49,.66,.95,1.09,1.33,1.04-.59,23.62-17.7,24.65-18.68-.62-.39-1.13-.72-1.64-1.02-.55-.33-1.07-.72-1.64-.91Z"/>
  <path d="M178.39,36.39c.95,1.08,2.08,1.24,3.29,.87,.96,.91,1.94,1.54,3.29,1.03-.05-.14-.06-.24-.11-.29-.75-.58-.78-1.32-.51-2.14,.04-.13,.09-.27,.13-.4,1.11-3.55,2.23-7.11,3.34-10.66,.08-.27,.17-.53,.27-.79,.23-.62,.67-1,1.34-1.08,.18-.02,.36-.05,.65-.09-1.06-1.31-2.36-1.48-3.76-1.18-1.56-1.27-2.3-1.48-3.9-.98,1.22,.68,1.29,1.54,.97,2.61-.68,2.27-1.28,4.57-1.91,6.86-.42,1.53-.82,3.06-1.25,4.58-.21,.77-.6,1.36-1.5,1.43-.1,0-.2,.13-.34,.22Z"/>
  <path d="M129.54,19.47c.07,.27,.09,.55,.14,.83,.44,2.85,.88,5.71,1.31,8.56,.16,1.06,.29,2.12,.43,3.18,.11,.82-.1,1.47-.9,1.86-.04,.02-.02,.15-.03,.31,1.23,.45,2.34,.24,3.22-.52,.73,.11,1.32,.3,1.91,.27,.58-.03,1.2-.18,1.57-.75-.1-.09-.15-.19-.22-.2-.8-.17-1.15-.73-1.26-1.48-.04-.28-.1-.55-.13-.83-.37-3.24-.74-6.48-1.1-9.72-.08-.69-.16-1.39-.2-2.09-.04-.6,.18-1.1,.71-1.43,.19-.12,.41-.21,.68-.35-.19-.13-.32-.29-.47-.31-.5-.07-1.02-.1-1.53-.11-.79-.02-1.38,.48-1.98,.8-1.95-.54-2.57-.45-3.91,.59,.26,.09,.46,.19,.68,.24,.63,.14,.93,.58,1.09,1.15Z"/>
  <path d="M244.71,244.04c-.68,.33-1.26,.16-1.8-.31-.17-.15-.34-.31-.51-.48-2.69-2.71-5.36-5.42-8.07-8.11-.73-.72-1.14-1.46-.67-2.47,0-.02-.06-.07-.15-.16-1.32,.24-1.96,1.18-2.32,2.43-1.24,.32-2.25,.88-2.51,2.27,.13,.04,.23,.11,.29,.08,.93-.36,1.61,.02,2.21,.72,.39,.46,.81,.9,1.22,1.34,2.24,2.42,4.47,4.86,6.73,7.26,.67,.71,1,1.44,.51,2.38-.02,.05,.05,.15,.09,.23,.45,.13,.79-.15,1.14-.36,.84-.51,1.21-1.38,1.57-2.19,1.86-.7,2.54-1.39,2.63-2.67-.04-.02-.08-.06-.11-.05-.09,.02-.18,.05-.26,.09Z"/>
  <path d="M109.05,52s-.08-.05-.12-.07c-.04-.02-.09-.03-.19-.07-1.01,.54-2.13,.96-3.14,1.71,.33,.33,.58,.6,.85,.85,1.35,1.28,2.71,2.56,4.07,3.83,5.02,4.73,10.03,9.46,15.05,14.19,.26,.25,.55,.46,.82,.68,.46-.43,.87-.81,1.34-1.25-.18-.24-.26-.36-.35-.46-6.07-6.44-12.14-12.88-18.21-19.33-.03-.03-.07-.06-.11-.09Z"/>
  <path d="M190.27,52.7c-1.85,1.96-3.7,3.92-5.56,5.89-3.86,4.09-7.73,8.19-11.58,12.28-.28,.29-.65,.54-.73,1.03,.39,.44,.68,.97,1.36,1.18,6.74-6.35,13.48-12.69,20.21-19.04,.13-.12,.22-.29,.33-.43-.94-.74-2.13-1.35-3.26-1.67-.24,.24-.52,.49-.77,.75Z"/>
  <path d="M185.09,49.17c-1.34,1.68-2.61,3.4-3.9,5.1-1.27,1.67-2.54,3.34-3.8,5.01-1.3,1.71-2.59,3.42-3.88,5.13-1.28,1.7-2.62,3.36-3.84,5.14,.49,.47,.91,.9,1.52,1.18,5.5-6.44,10.98-12.85,16.46-19.26,.18-.21,.36-.43,.53-.65,.03-.03,.05-.08,.05-.13,0-.04-.02-.09-.05-.24-.93-.46-1.94-.9-3.08-1.29Z"/>
  <path d="M114.94,49.27s-.09-.03-.26-.08c-.75,.32-1.61,.68-2.46,1.05-.21,.09-.44,.17-.43,.55,.44,.52,.92,1.09,1.4,1.65,1.39,1.63,2.79,3.26,4.18,4.89,3.57,4.18,7.15,8.36,10.73,12.54,.26,.3,.45,.71,.96,.81,.4-.34,.82-.7,1.17-1,0-.17,.02-.23,0-.26-.09-.16-.18-.33-.29-.47-4.96-6.54-9.91-13.07-14.87-19.6-.03-.03-.08-.05-.12-.07Z"/>
  <path d="M120.84,47.1s-.08-.04-.19-.09c-.95,.31-1.98,.59-3.07,1.14,.99,1.44,1.88,2.75,2.78,4.05,3.5,5.12,6.99,10.24,10.49,15.35,.25,.36,.39,.86,.98,.99,.43-.29,.88-.6,1.33-.91-.08-.2-.11-.34-.18-.45-4.01-6.67-8.03-13.33-12.04-19.99-.02-.04-.07-.06-.11-.09Z"/>
  <path d="M166.88,67.61c.43,.39,.9,.74,1.47,.91,.88-1.01,13.39-19.32,13.92-20.37-.92-.56-1.95-.79-3.02-1.16-1,1.34-11.95,19.61-12.37,20.63Z"/>
  <path d="M176.32,46.13c-.92-.34-1.91-.69-2.94-.78-.87,1.54-9.22,19.56-9.54,20.6,.4,.37,.93,.55,1.51,.83,.16-.18,.27-.26,.34-.38,3.57-6.64,7.13-13.27,10.7-19.91,.02-.04,.02-.09,.02-.14,0-.04-.03-.08-.08-.22Z"/>
  <path d="M126.55,45.27c-.87,.23-1.67,.43-2.47,.66-.2,.06-.37,.22-.59,.35,3.71,6.87,7.34,13.68,11.04,20.5,.65-.21,1.19-.45,1.68-.88-.09-.24-.16-.46-.26-.66-2.99-6.42-5.97-12.83-8.96-19.25-.11-.24-.28-.46-.44-.72Z"/>
  <path d="M168.46,44.18c-.85-.32-1.82-.39-2.93-.58-2.11,6.91-4.12,13.72-6.17,20.55,.53,.42,1.14,.49,1.65,.66,.12-.11,.21-.16,.25-.23,.1-.21,.19-.42,.27-.64,2.34-6.47,4.69-12.93,7.03-19.4,.01-.04,.01-.09,0-.14,0-.04-.03-.08-.1-.21Z"/>
  <path d="M134.34,43.6c-.84,.15-1.62,.28-2.39,.44-.21,.04-.39,.18-.63,.29,.77,2.12,1.52,4.17,2.27,6.22,1.59,4.37,3.18,8.74,4.79,13.1,.15,.41,.15,.94,.69,1.17,.47-.17,.94-.34,1.49-.54-.03-.29-.02-.43-.06-.56-1.95-6.5-3.89-13-5.85-19.5-.06-.21-.2-.39-.32-.62Z"/>
  <path d="M159.84,42.78c-1.32,6.96-2.59,13.75-3.84,20.59,.63,.27,1.18,.42,1.82,.37,.09-.21,.18-.36,.23-.54,1.63-6.54,3.25-13.08,4.86-19.63,.02-.08-.04-.18-.07-.32-.9-.3-1.88-.24-3-.47Z"/>
  <path d="M140.15,42.85c-1.07,.08-2.06,.11-3.1,.43,.46,2.34,1.11,4.57,1.64,6.82,.55,2.31,1.13,4.6,1.72,6.9,.58,2.24,1.05,4.51,1.71,6.72,.7,.07,1.26-.07,1.87-.4-1.01-5.71-2.13-11.35-3.17-17.01-.21-1.13-.44-2.27-.68-3.46Z"/>
  <path d="M148.98,61.99c0,.27,.05,.53,.08,.85h1.82c.04-.29,.07-.47,.08-.65,.19-6.42,.38-12.84,.57-19.27,0-.17-.07-.35-.12-.58-1-.13-1.95-.18-2.98,.08,0,.45-.01,.87,0,1.28,.06,1.77,.15,3.54,.2,5.3,.12,4.33,.23,8.66,.35,12.99Z"/>
  <path d="M154.41,63.11c.74-4.01,2.79-19.36,2.74-20.43-1.26-.28-2.07-.29-3.06-.02-.06,.89-.11,1.82-.19,2.74-.24,2.93-.48,5.85-.72,8.78-.18,2.18-.36,4.36-.51,6.55-.05,.73-.2,1.47,0,2.2,.57,.23,1.11,.27,1.73,.19Z"/>
  <path d="M144.48,55.5c.31,2.26,.6,4.52,.92,6.78,.04,.3,.19,.59,.28,.89,.64-.02,1.2,.01,1.77-.33-.09-1.4-.17-2.7-.27-4-.23-2.97-.48-5.94-.72-8.91-.18-2.27-.36-4.55-.55-6.82-.02-.21-.12-.42-.18-.63-.99-.02-1.91-.03-2.89,.12,0,.38-.03,.7,0,1.01,.21,1.57,.43,3.13,.65,4.7,.33,2.4,.67,4.79,.99,7.19Z"/>
  <path d="M63.05,195.77s0,.03,0,.05c.01,0,.02,0,.04,0,0,0,0-.02-.01-.03,0,0-.02-.02-.03-.02Z"/>
  <path d="M62.95,195.68s.07,.06,.1,.09c0-.02,0-.05-.01-.07-.01-.02-.06-.02-.09-.02Z"/>
  <path d="M255.28,98.99h0s0,0,0,0c0,0-.02-.02-.02-.03,0,.02,0,.03,0,.05,0,0,.02,0,.03,0,0,0,0-.01,0-.02h0Z"/>
  <path d="M255.25,98.89s-.06-.02-.1-.03c.04,.04,.07,.07,.11,.11,0-.03,0-.06,0-.08Z"/>
  <path d="M231.76,43.57s0,.03,0,.05c0,0,.01,0,.02,0,0-.01,0-.02,0-.03-.01,0-.02-.02-.03-.03Z"/>
  <path d="M231.64,43.47s.07,.06,.11,.1c0-.03,0-.05-.02-.07-.01-.02-.06-.02-.09-.02Z"/>
  <path d="M28.73,151.63s-.05-.03-.07-.05c0,0-.01,0-.02,0,0,0,0,.02,0,.03,.03,0,.06,.01,.09,.02Z"/>
  <path d="M243.43,53.63s.07,.04,.1,.05c0,0,.01,0,.02,0,0-.01,0-.03,.01-.04-.04,0-.09-.01-.13-.02Z"/>
  <path d="M59.47,76.03l-.03,.05s-.01,.01-.02,.02c.01,0,.02,0,.03,0l.02-.09Z"/>
  <path d="M138.78,167.82c-.27-.42-.44-.9-.63-1.31h-1.55c-.95,2.4-2.41,3.57-4.51,3.61-2.53,.05-4.06-1.31-4.88-3.62-.57-.04-1.12-.12-1.64,.07-.68,2.45-2.85,3.57-4.52,3.57-2.26,0-3.76-1.09-4.8-3.63-.24-.02-.52-.05-.79-.05-.27,0-.55,.03-.81,.05-.1,.27-.17,.49-.27,.69-.86,1.86-2.29,2.91-4.37,2.92-2.08,0-3.51-1.05-4.41-2.88-.12-.24-.21-.5-.32-.75h-1.54c-1.4,3.22-3.24,4.12-6.81,3.32-.48,.3-1.1,.49-1.57,.96,2.83,2.04,6.47,1.25,8.46-.89,.21-.23,.43-.46,.68-.71,.19,.19,.33,.31,.45,.44,.13,.13,.24,.28,.38,.41,1.71,1.6,3.7,2.27,6.03,1.77,1.37-.29,2.51-.95,3.47-1.96,.21-.22,.31-.59,.78-.55,.13,.15,.28,.32,.44,.49,2.61,2.88,7.04,2.89,9.69,.09,.21-.23,.45-.44,.67-.66,3.06,3.5,7.56,3.83,11-.02,.85,.93,1.72,1.83,2.98,2.23,.44-.43,.47-1,.67-1.5-.48-.34-.93-.6-1.3-.94-.37-.34-.72-.74-.99-1.16Z"/>
  <path d="M143.48,158.28h-1.63c-.79,2.27-2.35,3.63-4.77,3.6-2.3-.04-3.77-1.36-4.55-3.55-.16-.03-.34-.08-.51-.08-.37,0-.73,.02-1.11,.04-.15,.34-.27,.64-.41,.93-.91,1.81-2.42,2.72-4.39,2.68-1.98-.04-3.43-1.04-4.26-2.88-.11-.24-.21-.49-.31-.73h-1.56c-.13,.29-.22,.5-.31,.7-.85,1.89-2.35,2.91-4.39,2.91-2.04,0-3.53-1.01-4.4-2.89-.11-.24-.23-.49-.34-.72-.58-.03-1.09-.11-1.59,.08-.06,.14-.13,.26-.18,.39-1.02,2.43-3.03,3.51-5.6,3-.26-.05-.53-.06-.86-.1-.12,.55-.38,1-.29,1.59,1.1,.52,2.26,.52,3.41,.34,1.77-.28,3.17-1.24,4.33-2.7,.28,.29,.5,.52,.72,.74,2.72,2.77,6.89,2.76,9.61-.03,.22-.23,.45-.45,.69-.69,.34,.35,.61,.67,.91,.95,1.2,1.12,2.62,1.74,4.28,1.8,1.98,.07,3.64-.61,5.03-2.02,.24-.25,.39-.64,.79-.69,2.34,3.09,7.28,4.17,10.91-.06,.76,.8,1.45,1.69,2.62,2.07,.34-.46,.87-.7,1.13-1.3-1.48-.73-2.5-1.83-2.95-3.38Z"/>
  <path d="M164.68,177.38c.23,.28,.44,.59,.7,.85,.58,.62,1.28,1.08,2.06,1.41,2.48,1.06,5.29,.54,7.26-1.33,.29-.27,.44-.73,1.04-.76,.11,.13,.25,.32,.41,.49,2.6,2.9,7.25,2.84,9.79-.04,.18-.2,.38-.38,.6-.59,.17,.19,.3,.32,.42,.46,2.59,3.09,7.41,3.07,9.97,.09,.17-.2,.38-.36,.58-.56,.57,.57,.94,1.25,1.71,1.49,.19-.2,.36-.36,.51-.54,.17-.21,.31-.44,.5-.7-.91-.82-1.6-1.74-1.95-2.86-.62-.04-1.17-.15-1.64,.08-.18,.4-.3,.76-.48,1.08-1.42,2.5-5.03,3.58-7.61,.94-.38-.39-.64-.91-.93-1.38-.14-.23-.22-.48-.32-.7h-1.6c-.79,2.25-2.33,3.59-4.68,3.58-2.35,0-3.89-1.34-4.65-3.56-.58-.11-1.12-.15-1.66,.04-.76,2.18-2.26,3.49-4.55,3.53-2.41,.04-3.97-1.33-4.78-3.6-.58-.04-1.12-.12-1.58,.04-.1,.11-.14,.14-.16,.18-1.12,2.97-3.69,4.1-6.61,2.91-.19-.08-.38-.29-.7-.06,.09,.55,.18,1.13,.29,1.77,2.88,1.19,5.12,.57,8.08-2.25Z"/>
  <path d="M165.33,171.92c1.73-.15,3.22-.88,4.39-2.2,.17-.19,.39-.35,.58-.52,2.99,3.55,7.63,3.76,10.91-.01,3.16,3.62,7.67,3.74,11.02-.01,1.3,1.66,3.01,2.66,5.11,2.77,2.11,.1,3.89-.72,5.35-2.32-.4-.44-.79-.82-1.37-1.04-.34,.25-.67,.51-1.01,.74-2.08,1.45-5.62,1.02-6.99-1.95-.13-.29-.23-.59-.37-.93-.31,0-.58-.01-.86,0-.27,.02-.54,.06-.78,.09-.56,2.17-2.56,3.6-4.52,3.59-2.26-.01-3.81-1.13-4.79-3.62-.52-.09-1.06-.09-1.59,0-.74,2.12-2.1,3.46-4.37,3.58-2.6,.14-4.17-1.25-4.99-3.61h-1.54c-1.49,3.81-4.75,4.41-7.65,2.79-.38,.39-1.06,.41-1.46,.98,1.45,1.28,3.09,1.83,4.93,1.67Z"/>
  <path d="M132.49,174.78c-.51-.01-1.05-.11-1.61,.06-.78,2.24-2.32,3.56-4.67,3.56-2.35,0-3.87-1.36-4.63-3.57-.58-.09-1.12-.14-1.65,.04-.11,.25-.19,.47-.29,.68-.88,1.88-2.4,2.88-4.43,2.86-1.97-.02-3.45-1.02-4.31-2.83-.12-.24-.21-.5-.33-.78-.33-.01-.61-.04-.88-.03-.23,0-.46,.04-.72,.06-.1,.23-.18,.44-.27,.65-.81,1.85-2.27,2.86-4.23,2.94-1.98,.07-3.48-.88-4.44-2.63-.17-.32-.33-.65-.47-.95-.57,0-1.07,0-1.73,0,.67,2.7,2.17,4.42,4.69,5.11,2.91,.8,5.3-.19,7.29-2.56,.9,1.18,1.98,2.04,3.34,2.48,1.42,.47,2.84,.45,4.26,0,1.37-.44,2.39-1.39,3.27-2.33,.44,.38,.82,.72,1.21,1.05,2.58,2.24,6.55,2.18,9.02-.3,.28-.28,.44-.71,.88-.8,1.76,2.21,4.4,3.22,6.84,2.46,.21-.54,.41-1.1,.14-1.7-2.98,.64-5.18-.58-6.27-3.45Z"/>
  <path d="M163.72,161.73c.3-.28,.55-.53,.85-.82,.19,.19,.36,.34,.51,.51,2.54,2.97,7.32,3.05,9.98-.03,.14-.17,.32-.3,.48-.45,2.68,3.23,7.31,4.07,10.99,0,.28,.3,.55,.6,.84,.89,2.9,2.78,7.67,2.41,10.02-.99,.54-.79,.17-1.6,.16-2.4,0-.04-.05-.08-.09-.12h-.81c-.84,2.26-2.4,3.63-4.82,3.57-2.3-.06-3.76-1.4-4.51-3.55-.57-.13-1.11-.14-1.66,.01-.74,2.2-2.24,3.49-4.53,3.54-2.43,.06-3.98-1.3-4.77-3.57-.58-.08-1.12-.15-1.66,.06-.75,2.19-2.25,3.48-4.55,3.52-2.42,.04-3.97-1.33-4.78-3.6-.58-.04-1.12-.12-1.55,.03-.43,.79-.8,1.48-1.2,2.23,.3,.41,.61,.86,1.11,1.19Z"/>
  <path d="M165.3,188.44c1.73-.13,3.22-.86,4.39-2.19,.18-.2,.38-.37,.61-.58,.95,1.17,2.03,2.03,3.4,2.47,1.38,.44,2.74,.42,4.12-.03,1.37-.45,2.42-1.35,3.38-2.45,1.1,1.19,2.21,2.24,3.82,2.52,.62-.31,1.34-.4,1.85-.95-.09-.19-.16-.36-.23-.51-2.43-.4-3.71-1.26-4.65-3.72-.53-.07-1.07-.1-1.6,.03-.12,.3-.2,.57-.32,.82-.92,1.84-2.4,2.8-4.47,2.77-1.95-.02-3.56-1.17-4.29-3.02-.08-.21-.17-.41-.25-.61h-1.55c-.08,.12-.14,.19-.17,.27-.06,.13-.09,.26-.15,.39-.82,1.81-2.18,2.88-4.2,2.96-2.08,.09-3.55-.9-4.52-2.7-.15-.28-.28-.58-.42-.88-.53-.1-1.03-.14-1.58,.04,0,.2-.04,.38,0,.55,.74,2.89,3.52,5.07,6.83,4.81Z"/>
  <path d="M136.11,184.14c-.97,1.68-2.43,2.54-4.37,2.48-1.95-.06-3.33-1.05-4.18-2.78-.14-.28-.24-.58-.34-.83h-1.59c-.76,2.18-2.17,3.52-4.5,3.6-2.52,.08-4.06-1.31-4.87-3.61-.58-.05-1.13-.12-1.66,.07-.41,1.46-1.3,2.48-2.61,3.15-.2,.1-.45,.16-.41,.52,.35,.18,.72,.36,1.09,.56,.47,.26,.89,.17,1.28-.18,.51-.46,1.02-.93,1.57-1.42,.31,.32,.57,.65,.88,.92,1.66,1.48,3.56,2.13,5.79,1.7,1.42-.28,2.61-.95,3.61-1.98,.21-.21,.31-.58,.68-.56,.33,.32,.62,.62,.93,.9,1.37,1.25,3.01,1.91,4.85,1.77,3.57-.27,5.32-2.58,5.95-4.71,.06-.2,.05-.43,.08-.71-.59,0-1.09,0-1.63,0-.18,.38-.34,.76-.54,1.12Z"/>
</svg>