<?xml version="1.0" encoding="utf-8"?>
<!-- Generator: Adobe Illustrator 26.5.0, SVG Export Plug-In . SVG Version: 6.00 Build 0)  -->
<svg version="1.1" id="Layer_1" xmlns="http://www.w3.org/2000/svg" xmlns:xlink="http://www.w3.org/1999/xlink" x="0px" y="0px"
	 viewBox="0 0 500 500" style="enable-background:new 0 0 500 500;" xml:space="preserve">
<g>
	<path d="M334.68,183.08l-0.71-4.66l-4.58-1.04c-19.59-4.4-28.01-23.87-28.08-24.06l-1.79-4.21l-4.54-0.04h-26.85
		c2.12-3.05,8.27-10.65,16.98-10.13c0,0-4.62,6.52,1.53,9.27c7.64,3.43,14.19-8.27,5.88-15.16c-6.41-5.25-22.98-1.94-32.14,4.62
		c0,0,0.74-11.73,0-26.56s-19.85-14.82-20.6,0c-0.74,14.82,0,26.56,0,26.56c-9.16-6.56-25.74-9.87-32.14-4.62
		c-8.31,6.89-1.75,18.59,5.88,15.16c6.15-2.76,1.49-9.27,1.49-9.27c8.75-0.52,14.9,7.08,17.02,10.13h-31.62l-1.75,4.25
		c-0.07,0.19-8.45,19.67-28.05,24.06l-4.62,1.04l-0.67,4.66c-0.63,4.32-14.9,106.86,60.75,180.16c1.49,1.49,4.51,4.13,7.75,6.89
		l13.67,28.31c1.01,2.09,3.99,2.09,4.99,0l13.67-28.31c3.24-2.76,6.26-5.4,7.78-6.89C349.54,289.94,335.32,187.4,334.68,183.08z
		 M275.89,315.89c-11.87,5.54-39.92,5.54-51.8,0c-7.01-11.63-12.43-23.69-16.63-35.51c10.31,6.7,26.38,10.66,43.86,10.66
		c1.59,0,3.19-0.03,4.8-0.1c15.15-0.62,27.79-4.18,36.17-9.93C288.14,292.62,282.78,304.46,275.89,315.89z M272.67,321.01
		c-6.32,9.7-13.8,19.02-22.67,27.54c-8.88-8.52-16.35-17.84-22.67-27.54c6.32,1.86,14.48,2.8,22.67,2.8
		C258.19,323.81,266.34,322.87,272.67,321.01z M294.62,274.16c-7,7.46-21.24,12.34-38.64,13.06c-21.05,0.86-41.09-4.41-50.65-13.19
		c-11.26-35.03-12.09-66.74-12.03-76.78c13.64-6.16,21.54-16.04,24.78-20.88L250,176.4l31.91-0.03
		c3.24,4.83,11.14,14.72,24.78,20.88C306.76,207.31,305.92,239.08,294.62,274.16z M249.95,169.18c-8.19,0-14.86-5.92-14.86-13.19
		v-0.04c0-2.01,0.52-3.95,1.45-5.62c0.22-0.45,0.48-0.86,0.74-1.27c2.64-3.76,7.34-6.29,12.66-6.29s10.02,2.53,12.66,6.29
		c0.26,0.41,0.52,0.82,0.74,1.27c0.93,1.68,1.45,3.61,1.45,5.62V156C264.81,163.26,258.14,169.18,249.95,169.18z M245.59,114.51
		l7.11-3.31c0.67-0.3,1.45-0.04,1.79,0.63c0.3,0.67,0,1.45-0.67,1.75l-7.11,3.31c-0.19,0.07-0.37,0.11-0.56,0.11
		c-0.48,0-0.97-0.26-1.19-0.74C244.66,115.59,244.96,114.81,245.59,114.51z M245.59,121.17l7.11-3.31c0.67-0.3,1.45-0.04,1.79,0.63
		c0.3,0.67,0,1.45-0.67,1.75l-7.11,3.31c-0.19,0.11-0.37,0.15-0.56,0.15c-0.48,0-0.97-0.3-1.19-0.78
		C244.66,122.25,244.96,121.47,245.59,121.17z M245.59,127.84l7.11-3.31c0.67-0.3,1.45,0,1.79,0.63c0.3,0.67,0,1.45-0.67,1.75
		l-7.11,3.35c-0.19,0.07-0.37,0.11-0.56,0.11c-0.48,0-0.97-0.3-1.19-0.78C244.66,128.96,244.96,128.18,245.59,127.84z
		 M245.59,134.51l7.11-3.31c0.67-0.3,1.45,0,1.79,0.67c0.3,0.63,0,1.42-0.67,1.75l-7.11,3.31c-0.19,0.07-0.37,0.11-0.56,0.11
		c-0.48,0-0.97-0.3-1.19-0.74C244.66,135.63,244.96,134.84,245.59,134.51z M274.49,352.88c-1.71,1.83-3.5,3.65-5.36,5.44
		c-3.91,3.8-19.14,16.54-19.14,16.54s-15.2-12.74-19.14-16.54c-1.86-1.79-3.65-3.61-5.36-5.44c-67.86-71.33-53.37-168.8-53.37-168.8
		c23.5-5.25,32.93-28.12,32.93-28.12h25.85V156c0,6.62,4.32,12.32,10.55,15.12l-26.3-0.03c0,0-8.14,15.44-27.05,22.6
		c0,0-5.18,101.76,61.91,162.06c67.08-60.3,61.91-162.06,61.91-162.06c-18.91-7.16-27.05-22.6-27.05-22.6l-26.31,0.03
		c5.11-2.31,8.92-6.57,10.1-11.69c0.26-1.12,0.41-2.27,0.41-3.46h25.92c0,0,9.42,22.87,32.89,28.12
		C327.87,184.08,342.39,281.56,274.49,352.88z"/>
	<path d="M241.38,224.61c0,0.19,0,0.41,0.04,0.6l3.43,3.39l5.66-6.59l5.77,7.9l1.94-2.87c0.26-0.78,0.37-1.56,0.37-2.42
		c0-4.77-3.87-8.64-8.6-8.64C245.25,215.97,241.38,219.84,241.38,224.61z"/>
	<rect x="248.93" y="205.26" width="2.11" height="9"/>
	<rect x="249.26" y="209.16" transform="matrix(0.2583 -0.9661 0.9661 0.2583 -14.8516 401.092)" width="9.06" height="2.11"/>
	<rect x="252.61" y="210.3" transform="matrix(0.4995 -0.8663 0.8663 0.4995 -54.2101 328.8881)" width="9.82" height="2.11"/>
	<rect x="255.62" y="212.43" transform="matrix(0.7067 -0.7075 0.7075 0.7067 -74.5126 247.2272)" width="10.59" height="2.11"/>
	<rect x="258.03" y="215.46" transform="matrix(0.8659 -0.5002 0.5002 0.8659 -72.9439 160.9296)" width="11.29" height="2.11"/>
	<rect x="259.61" y="219.23" transform="matrix(0.966 -0.2586 0.2586 0.966 -47.9437 76.1383)" width="11.59" height="2.11"/>
	<rect x="260.15" y="223.36" width="7.26" height="2.11"/>
	<rect x="245.12" y="205.69" transform="matrix(0.9659 -0.2588 0.2588 0.9659 -46.0226 70.8842)" width="2.11" height="9.06"/>
	<rect x="241.39" y="206.45" transform="matrix(0.866 -0.5 0.5 0.866 -73.201 149.5544)" width="2.11" height="9.82"/>
	<rect x="238" y="208.19" transform="matrix(0.7072 -0.707 0.707 0.7072 -80.9397 231.5224)" width="2.11" height="10.59"/>
	<rect x="235.24" y="210.87" transform="matrix(0.4999 -0.8661 0.8661 0.4999 -69.3489 312.9189)" width="2.11" height="11.28"/>
	<rect x="233.51" y="214.49" transform="matrix(0.2586 -0.966 0.966 0.2586 -38.8844 389.9056)" width="2.11" height="11.59"/>
	<rect x="232.23" y="223.36" width="7.58" height="2.11"/>
	<path d="M222.98,167.13c1.94,0,3.52-1.57,3.52-3.52c0-1.94-1.57-3.52-3.52-3.52c-1.94,0-3.52,1.57-3.52,3.52
		C219.46,165.56,221.03,167.13,222.98,167.13z"/>
	<path d="M182.73,202.93c0-1.94-1.57-3.52-3.52-3.52c-1.94,0-3.52,1.57-3.52,3.52c0,1.94,1.57,3.52,3.52,3.52
		C181.15,206.45,182.73,204.88,182.73,202.93z"/>
	<path d="M181.06,231.98c-1.94,0-3.52,1.57-3.52,3.52c0,1.94,1.57,3.52,3.52,3.52c1.94,0,3.52-1.57,3.52-3.52
		C184.57,233.55,183,231.98,181.06,231.98z"/>
	<path d="M188.47,264.54c-1.94,0-3.52,1.57-3.52,3.52c0,1.94,1.57,3.52,3.52,3.52c1.94,0,3.52-1.57,3.52-3.52
		C191.99,266.12,190.41,264.54,188.47,264.54z"/>
	<path d="M199.98,297.1c-1.94,0-3.52,1.57-3.52,3.52c0,1.94,1.57,3.52,3.52,3.52c1.94,0,3.52-1.57,3.52-3.52
		C203.5,298.68,201.93,297.1,199.98,297.1z"/>
	<path d="M219.38,329.67c-1.94,0-3.52,1.57-3.52,3.52s1.57,3.52,3.52,3.52c1.94,0,3.52-1.57,3.52-3.52S221.33,329.67,219.38,329.67z
		"/>
	<path d="M277.01,160.1c-1.94,0-3.52,1.57-3.52,3.52c0,1.94,1.57,3.52,3.52,3.52c1.94,0,3.52-1.57,3.52-3.52
		C280.53,161.67,278.95,160.1,277.01,160.1z"/>
	<path d="M320.77,199.42c-1.94,0-3.52,1.57-3.52,3.52c0,1.94,1.57,3.52,3.52,3.52c1.94,0,3.52-1.57,3.52-3.52
		C324.29,200.99,322.72,199.42,320.77,199.42z"/>
	<path d="M318.93,231.98c-1.94,0-3.52,1.57-3.52,3.52c0,1.94,1.57,3.52,3.52,3.52c1.94,0,3.52-1.57,3.52-3.52
		C322.45,233.55,320.87,231.98,318.93,231.98z"/>
	<path d="M311.52,264.54c-1.94,0-3.52,1.57-3.52,3.52c0,1.94,1.57,3.52,3.52,3.52c1.94,0,3.52-1.57,3.52-3.52
		C315.04,266.12,313.46,264.54,311.52,264.54z"/>
	<path d="M300,297.1c-1.94,0-3.52,1.57-3.52,3.52c0,1.94,1.57,3.52,3.52,3.52s3.52-1.57,3.52-3.52
		C303.52,298.68,301.95,297.1,300,297.1z"/>
	<circle cx="280.6" cy="333.18" r="3.52"/>
	<path d="M225.84,302.64l2.3,0.44c0.25,0.05,0.39-0.04,0.43-0.25l1.61-8.49l4.44,0.84c0.25,0.05,0.39-0.04,0.43-0.25l0.33-1.75
		c0.04-0.21-0.06-0.34-0.31-0.39l-7.1-1.35c-0.25-0.05-0.39,0.04-0.43,0.25l-2,10.57C225.49,302.46,225.6,302.59,225.84,302.64z"/>
	<path d="M238.9,304.68c0.25,0.02,0.39-0.08,0.4-0.29l0.35-4.43l1.69,0.13l2.78,4.78c0.08,0.16,0.23,0.25,0.43,0.27l2.58,0.2
		c0.1,0.01,0.18,0,0.24-0.04c0.06-0.03,0.1-0.08,0.1-0.14c0.01-0.05-0.01-0.12-0.06-0.19l-3.68-5.83l4.42-4.77
		c0.05-0.06,0.09-0.12,0.09-0.19c0.01-0.06-0.02-0.11-0.07-0.15c-0.05-0.04-0.13-0.06-0.23-0.07l-2.55-0.2
		c-0.2-0.02-0.36,0.04-0.47,0.18l-3.38,3.89l-1.69-0.13l0.32-4.04c0.02-0.22-0.1-0.33-0.35-0.36l-2.33-0.19
		c-0.25-0.02-0.38,0.08-0.4,0.29l-0.85,10.72c-0.02,0.22,0.1,0.33,0.35,0.36L238.9,304.68z"/>
	<path d="M250.57,305.38l2.3-0.08c0.25-0.01,0.37-0.12,0.37-0.33l-0.15-4.36l5.38-0.19l0.15,4.35c0.01,0.22,0.14,0.32,0.39,0.31
		l2.31-0.08c0.25-0.01,0.37-0.12,0.37-0.34l-0.37-10.75c-0.01-0.22-0.14-0.32-0.39-0.31l-2.31,0.08c-0.25,0.01-0.37,0.12-0.37,0.34
		l0.13,3.88l-5.38,0.19l-0.13-3.88c-0.01-0.22-0.14-0.32-0.39-0.31l-2.3,0.08c-0.25,0.01-0.37,0.12-0.37,0.34l0.37,10.75
		C250.19,305.29,250.32,305.39,250.57,305.38z"/>
	<path d="M265.87,304.53l4.83-0.78c0.85-0.13,1.59-0.4,2.21-0.8c0.62-0.4,1.07-0.89,1.36-1.49c0.29-0.6,0.38-1.25,0.26-1.96
		c-0.11-0.68-0.38-1.24-0.82-1.68c-0.44-0.44-1.01-0.73-1.71-0.89c-0.7-0.16-1.49-0.16-2.38-0.02l-2.51,0.4l-0.35-2.19l5.17-0.83
		c0.25-0.04,0.35-0.17,0.32-0.38l-0.25-1.59c-0.03-0.21-0.18-0.3-0.42-0.26l-7.52,1.21c-0.25,0.04-0.35,0.17-0.32,0.38l1.71,10.62
		C265.48,304.48,265.62,304.57,265.87,304.53z M269.85,298.8c0.28-0.04,0.56-0.04,0.83,0.02c0.28,0.06,0.52,0.18,0.73,0.36
		c0.21,0.19,0.34,0.44,0.39,0.76c0.08,0.48-0.02,0.86-0.29,1.13c-0.27,0.27-0.67,0.45-1.21,0.54l-2.44,0.39l-0.45-2.8L269.85,298.8z
		"/>
	<path d="M229.02,305.86c-0.53-0.13-1.01-0.15-1.43-0.07c-0.43,0.09-0.78,0.27-1.06,0.55c-0.28,0.28-0.48,0.65-0.59,1.11l-0.35,1.41
		c-0.12,0.5-0.15,0.92-0.07,1.26c0.08,0.35,0.24,0.61,0.48,0.82c0.24,0.2,0.53,0.35,0.87,0.43c0.29,0.07,0.58,0.09,0.88,0.05
		s0.55-0.15,0.76-0.35l-0.52,2.12c-0.07,0.27-0.18,0.47-0.35,0.59c-0.17,0.12-0.37,0.15-0.61,0.09c-0.23-0.06-0.39-0.17-0.48-0.33
		c-0.09-0.16-0.1-0.4-0.03-0.69l0.23-0.94l-1.72-0.43l-0.18,0.75c-0.18,0.73-0.1,1.31,0.23,1.75c0.33,0.44,0.9,0.76,1.68,0.96
		c0.76,0.19,1.41,0.16,1.95-0.08c0.54-0.24,0.9-0.72,1.08-1.44l1.11-4.52c0.13-0.53,0.14-0.99,0.04-1.4
		c-0.1-0.4-0.31-0.75-0.63-1.02S229.57,305.99,229.02,305.86z M228.78,310c-0.06,0.19-0.17,0.32-0.34,0.4
		c-0.17,0.08-0.35,0.09-0.55,0.04c-0.2-0.05-0.37-0.15-0.51-0.31c-0.14-0.16-0.18-0.38-0.11-0.67l0.46-1.87
		c0.08-0.32,0.21-0.53,0.4-0.64s0.39-0.13,0.61-0.08c0.23,0.07,0.39,0.19,0.5,0.37c0.1,0.18,0.12,0.42,0.04,0.73L228.78,310z"/>
	<path d="M239.21,311.66l0.27-1.86c0.08-0.53,0.03-0.95-0.13-1.28c-0.16-0.32-0.42-0.57-0.77-0.75c-0.35-0.18-0.78-0.3-1.29-0.37
		c-0.5-0.07-0.95-0.08-1.35-0.02c-0.4,0.06-0.73,0.22-1,0.48c-0.26,0.27-0.43,0.67-0.51,1.2l-0.69,4.72
		c-0.11,0.73-0.08,1.3,0.09,1.7c0.17,0.4,0.43,0.69,0.79,0.86c0.37,0.17,0.79,0.29,1.29,0.37c0.52,0.07,0.97,0.08,1.36,0.02
		c0.39-0.07,0.71-0.27,0.97-0.61c0.26-0.34,0.44-0.88,0.55-1.63l0.16-1.11l-1.77-0.25l-0.26,1.78c-0.03,0.23-0.09,0.41-0.17,0.53
		c-0.08,0.12-0.17,0.19-0.29,0.22c-0.11,0.03-0.24,0.04-0.38,0.01c-0.14-0.02-0.27-0.06-0.37-0.12c-0.1-0.06-0.18-0.16-0.22-0.29
		c-0.04-0.14-0.05-0.32-0.01-0.56l0.79-5.46c0.03-0.24,0.09-0.43,0.17-0.54c0.08-0.12,0.18-0.19,0.29-0.21
		c0.12-0.03,0.25-0.03,0.39-0.01c0.14,0.02,0.26,0.06,0.36,0.12c0.1,0.06,0.17,0.15,0.21,0.29c0.04,0.14,0.05,0.33,0.01,0.57
		l-0.28,1.94L239.21,311.66z"/>
	<path d="M240.39,315.01c-0.05,0.33-0.16,0.6-0.35,0.81c-0.19,0.21-0.37,0.31-0.56,0.29l-0.07,0.92l1.14,0.09
		c0.35,0.02,0.62-0.01,0.83-0.09c0.2-0.08,0.35-0.2,0.45-0.35c0.1-0.15,0.17-0.32,0.2-0.51c0.04-0.19,0.07-0.37,0.11-0.56l0.96-6.15
		l1.37,0.11l-0.63,7.82l1.78,0.14l0.73-9.08l-4.9-0.39L240.39,315.01z"/>
	<path d="M249.4,314.39h-0.01l-0.79-5.89l-1.82-0.04l1.35,7.16c0.01,0.18,0.01,0.32,0,0.43c-0.01,0.11-0.02,0.21-0.04,0.32
		c-0.05,0.2-0.15,0.32-0.31,0.36c-0.16,0.04-0.31,0.06-0.45,0.05c-0.1,0-0.2-0.01-0.3-0.03c-0.1-0.02-0.18-0.04-0.25-0.06
		l-0.02,0.92c0.15,0.05,0.36,0.09,0.62,0.14c0.26,0.05,0.52,0.07,0.79,0.08c0.66,0.01,1.16-0.16,1.51-0.53
		c0.35-0.37,0.63-0.99,0.83-1.87l1.62-6.85l-1.68-0.03L249.4,314.39z"/>
	<polygon points="261.61,308.15 259.55,308.26 258.42,312.21 257.98,312.23 257.78,308.36 255.98,308.45 256.19,312.33 
		255.79,312.35 254.24,308.54 252.19,308.66 254.31,312.92 252.62,317.75 254.62,317.64 255.84,313.33 256.24,313.31 256.47,317.54 
		258.26,317.44 258.04,313.21 258.47,313.19 260.14,317.35 262.14,317.24 259.95,312.62 	"/>
	<path d="M267.5,311.52c-0.07-0.48-0.19-0.84-0.39-1.07c-0.19-0.24-0.43-0.39-0.7-0.46c-0.27-0.07-0.58-0.08-0.91-0.03l-1.34,0.19
		l-0.15-1.12l2.7-0.37l-0.17-1.25l-4.44,0.61l1.23,9.02l2.84-0.39c0.31-0.04,0.59-0.11,0.83-0.2c0.23-0.09,0.43-0.23,0.58-0.41
		c0.15-0.18,0.25-0.44,0.3-0.76c0.05-0.33,0.04-0.75-0.03-1.25L267.5,311.52z M266.04,315.62c-0.08,0.08-0.21,0.14-0.4,0.16
		l-0.7,0.1l-0.64-4.66l0.69-0.09c0.19-0.03,0.34-0.01,0.44,0.05c0.1,0.06,0.18,0.15,0.23,0.29c0.05,0.13,0.09,0.28,0.12,0.46
		l0.39,2.85c0.03,0.18,0.03,0.35,0.01,0.49C266.17,315.42,266.12,315.54,266.04,315.62z"/>
	<path d="M271.38,306.43l-2.5,0.53l0.3,9.24l1.88-0.4l-0.09-1.69l1.3-0.28l0.62,1.58l1.96-0.41L271.38,306.43z M270.81,313.23
		l-0.4-4.97l1.65,4.7L270.81,313.23z"/>
	<path d="M262.69,155.96c0-2.05-0.67-3.99-1.83-5.62c-0.3-0.45-0.63-0.86-1.01-1.27c-2.35-2.53-5.92-4.17-9.91-4.17
		c-4.02,0-7.6,1.64-9.94,4.17c-0.37,0.41-0.71,0.82-1.01,1.27c-1.15,1.64-1.83,3.58-1.83,5.62V156c0,6.11,5.74,11.1,12.78,11.1
		c7,0,12.74-4.99,12.74-11.1V155.96z M259.59,156c0,4.77-4.32,8.6-9.65,8.6s-9.68-3.84-9.68-8.6v-0.04c0-2.12,0.89-4.1,2.35-5.62
		c0.48-0.45,1.01-0.89,1.56-1.27c1.6-1.08,3.65-1.71,5.77-1.71s4.13,0.63,5.74,1.71c0.56,0.37,1.12,0.78,1.56,1.27
		c1.45,1.53,2.35,3.5,2.35,5.62V156z"/>
	<path d="M253.63,150.34c-1.08-0.56-2.35-0.86-3.69-0.86c-1.34,0-2.61,0.3-3.69,0.86c-2.31,1.08-3.87,3.2-3.87,5.62V156
		c0,3.58,3.39,6.52,7.56,6.52c4.13,0,7.52-2.94,7.52-6.52v-0.04C257.47,153.54,255.91,151.46,253.63,150.34z M249.95,160.13
		c-2.68,0-4.88-1.86-4.88-4.13v-0.04c0.04-2.31,2.2-4.13,4.88-4.13c2.68,0,4.8,1.83,4.84,4.13V156
		C254.79,158.27,252.63,160.13,249.95,160.13z"/>
	<polygon points="248.22,194.68 242.47,194.68 247.12,198.06 245.34,203.53 249.99,200.15 254.65,203.53 252.87,198.06 
		257.52,194.68 251.77,194.68 249.99,189.21 	"/>
	<polygon points="203.07,206.16 200.8,203.67 201.22,203.29 204.42,204.93 205.65,203.82 201.75,201.92 200.41,198.11 199.2,199.21 
		200.49,202.59 200.12,202.92 197.86,200.43 196.73,201.45 201.94,207.18 	"/>
	<rect x="207.39" y="193.16" transform="matrix(0.7982 -0.6024 0.6024 0.7982 -76.6883 165.1495)" width="1.52" height="7.75"/>
	<path d="M207.88,202.08c0.22-0.16,0.39-0.33,0.53-0.5c0.13-0.17,0.22-0.35,0.26-0.55c0.04-0.2,0.01-0.43-0.09-0.69
		c-0.1-0.26-0.28-0.57-0.55-0.92l-1.29-1.71c-0.25-0.33-0.49-0.54-0.73-0.64c-0.24-0.09-0.48-0.11-0.71-0.05
		c-0.23,0.07-0.46,0.19-0.69,0.36l-0.92,0.69l-1.21-1.61l-1.19,0.9l4.66,6.17L207.88,202.08z M204.72,198.48
		c0.14-0.11,0.27-0.15,0.38-0.15c0.11,0.01,0.22,0.07,0.32,0.16c0.1,0.1,0.21,0.23,0.33,0.39l1.06,1.4
		c0.21,0.27,0.35,0.49,0.44,0.65c0.09,0.16,0.13,0.3,0.11,0.41c-0.01,0.11-0.09,0.21-0.22,0.32l-0.48,0.36l-2.41-3.19L204.72,198.48
		z"/>
	<path d="M213.14,198.41l-1.65-2.65l0.98-0.61c0.36-0.23,0.59-0.48,0.69-0.75c0.1-0.28,0.1-0.56,0.02-0.87
		c-0.09-0.3-0.22-0.6-0.41-0.9l-0.71-1.13c-0.22-0.35-0.5-0.55-0.85-0.6c-0.35-0.05-0.74,0.05-1.18,0.33l-2.33,1.45l4.1,6.57
		L213.14,198.41z M209.47,192.54l0.6-0.37c0.14-0.09,0.29-0.08,0.46,0.02c0.17,0.1,0.36,0.33,0.58,0.68l0.28,0.44
		c0.25,0.39,0.38,0.7,0.39,0.93c0.02,0.23-0.06,0.39-0.24,0.51l-0.5,0.31L209.47,192.54z"/>
	<polygon points="217.41,195.91 214.25,190.04 216.01,189.1 215.5,188.15 212.35,189.84 216.02,196.67 	"/>
	<rect x="222.47" y="185.03" transform="matrix(0.9168 -0.3994 0.3994 0.9168 -56.8738 104.8903)" width="1.52" height="7.74"/>
	<path d="M221.79,193.75c0.25-0.11,0.46-0.23,0.63-0.36c0.17-0.13,0.3-0.29,0.38-0.47c0.08-0.19,0.11-0.41,0.07-0.69
		c-0.04-0.28-0.14-0.62-0.32-1.02l-0.85-1.96c-0.16-0.38-0.35-0.64-0.57-0.79c-0.21-0.15-0.44-0.22-0.68-0.21
		c-0.24,0.01-0.49,0.07-0.75,0.19l-1.06,0.46l-0.81-1.85l-1.37,0.6l3.09,7.09L221.79,193.75z M219.56,189.51
		c0.16-0.07,0.29-0.09,0.4-0.05c0.11,0.03,0.2,0.11,0.27,0.23c0.08,0.12,0.15,0.27,0.23,0.45l0.7,1.61
		c0.14,0.31,0.23,0.56,0.28,0.74c0.05,0.18,0.05,0.32,0.01,0.42c-0.04,0.1-0.14,0.19-0.29,0.25l-0.55,0.24l-1.6-3.66L219.56,189.51z
		"/>
	<path d="M224.29,187.09l1.45-0.49l-0.1-0.3c-0.12-0.35-0.17-0.63-0.15-0.86c0.02-0.23,0.15-0.38,0.39-0.46
		c0.23-0.08,0.42-0.05,0.57,0.1c0.15,0.14,0.26,0.33,0.34,0.57l0.17,0.51c0.04,0.11,0.05,0.22,0.04,0.33s-0.05,0.22-0.12,0.33
		c-0.07,0.11-0.16,0.2-0.28,0.29c-0.12,0.09-0.26,0.16-0.43,0.21l-0.6,0.2l0.27,0.8l0.58-0.2c0.36-0.11,0.65-0.14,0.87-0.08
		c0.22,0.05,0.38,0.22,0.47,0.49l0.24,0.71c0.09,0.27,0.11,0.52,0.07,0.72c-0.05,0.21-0.18,0.35-0.39,0.42
		c-0.23,0.07-0.43,0.02-0.6-0.15c-0.17-0.16-0.31-0.43-0.44-0.81l-0.15-0.46l-1.44,0.48l0.28,0.85c0.13,0.38,0.31,0.68,0.55,0.9
		c0.24,0.22,0.54,0.35,0.9,0.39c0.36,0.04,0.78-0.02,1.27-0.18c0.5-0.17,0.89-0.37,1.16-0.6c0.27-0.23,0.43-0.51,0.48-0.82
		c0.05-0.32,0.01-0.68-0.13-1.09l-0.18-0.53c-0.14-0.42-0.36-0.73-0.67-0.91c-0.3-0.18-0.66-0.22-1.07-0.11
		c0.39-0.19,0.65-0.44,0.77-0.77c0.13-0.33,0.12-0.7-0.02-1.12l-0.19-0.56c-0.18-0.55-0.48-0.9-0.9-1.07
		c-0.42-0.16-1-0.12-1.75,0.13c-0.71,0.24-1.19,0.56-1.43,0.98c-0.24,0.41-0.27,0.91-0.07,1.49L224.29,187.09z"/>
	<path d="M230.9,189.75c0.26,0.26,0.56,0.4,0.9,0.42c0.34,0.01,0.72-0.03,1.14-0.13c0.43-0.11,0.79-0.25,1.07-0.43
		c0.28-0.18,0.47-0.44,0.56-0.79c0.09-0.35,0.06-0.84-0.1-1.45l-0.24-0.93l-1.47,0.37l0.38,1.49c0.05,0.19,0.06,0.35,0.04,0.47
		c-0.02,0.12-0.07,0.21-0.15,0.27c-0.08,0.06-0.18,0.11-0.3,0.14c-0.12,0.03-0.23,0.04-0.33,0.02c-0.1-0.01-0.19-0.07-0.27-0.16
		c-0.08-0.09-0.14-0.24-0.19-0.43l-1.16-4.54c-0.05-0.2-0.07-0.36-0.04-0.48c0.02-0.12,0.08-0.21,0.16-0.27
		c0.09-0.05,0.19-0.1,0.31-0.13s0.23-0.04,0.32-0.03c0.1,0.01,0.19,0.07,0.26,0.16c0.08,0.09,0.14,0.24,0.19,0.44l0.41,1.61
		l1.47-0.37l-0.4-1.55c-0.11-0.44-0.28-0.76-0.52-0.96c-0.23-0.2-0.51-0.31-0.85-0.34c-0.34-0.02-0.71,0.02-1.14,0.13
		c-0.41,0.11-0.77,0.25-1.07,0.43c-0.3,0.18-0.51,0.41-0.63,0.71c-0.12,0.29-0.12,0.66-0.01,1.11l1.01,3.94
		C230.43,189.05,230.64,189.49,230.9,189.75z"/>
	<path d="M237.17,188.94l-0.59-3.32l0.55-0.1l1.84,3.1l1.62-0.29l0,0.01l1.63-0.16l0.08-1.44l1.12-0.11l0.38,1.4l1.7-0.17
		l-2.13-7.57l-2.16,0.21l-0.61,7.83l-2.28-3.67l0.9-3.94L237.6,181l-0.7,3.54l-0.49,0.09l-0.59-3.32l-1.5,0.27l1.35,7.63
		L237.17,188.94z M242.39,181.74l0.95,4.13l-1.08,0.11L242.39,181.74z"/>
	<path d="M246.34,185.14l-0.67,2.69l1.69-0.04l0.5-2.58c0.05-0.21,0.1-0.39,0.16-0.53c0.06-0.15,0.15-0.22,0.28-0.23l0.45-0.01
		l0.08,3.31l1.59-0.04l-0.2-7.74l-2.83,0.07c-0.51,0.01-0.9,0.14-1.16,0.38c-0.26,0.24-0.38,0.56-0.37,0.97l0.03,1.21
		c0.01,0.41,0.13,0.75,0.35,1.03c0.22,0.27,0.56,0.43,1.03,0.46c-0.3,0.05-0.51,0.16-0.63,0.31
		C246.52,184.55,246.42,184.8,246.34,185.14z M247.49,181.04c0.09-0.12,0.24-0.18,0.45-0.18l0.72-0.02l0.06,2.54l-0.64,0.02
		c-0.23,0-0.41-0.06-0.51-0.19c-0.11-0.13-0.17-0.35-0.17-0.65l-0.02-0.93C247.36,181.35,247.4,181.15,247.49,181.04z"/>
	<path d="M255.33,184.82l1.15,0.09c0.43,0.03,0.76-0.03,1-0.2c0.24-0.16,0.42-0.4,0.53-0.69c0.11-0.29,0.18-0.61,0.21-0.96
		l0.11-1.33c0.03-0.41-0.07-0.74-0.32-0.99c-0.25-0.25-0.63-0.4-1.14-0.44l-2.74-0.21l-0.61,7.72l1.58,0.13L255.33,184.82z
		 M255.63,181.03l0.7,0.06c0.17,0.01,0.29,0.11,0.36,0.29c0.07,0.18,0.09,0.48,0.06,0.88l-0.04,0.52c-0.04,0.46-0.11,0.79-0.23,0.98
		c-0.12,0.19-0.29,0.28-0.49,0.27l-0.59-0.05L255.63,181.03z"/>
	<polygon points="262.13,187.72 260.17,187.44 260.51,185.1 262.17,185.35 262.35,184.17 260.69,183.93 260.99,181.87 
		262.94,182.16 263.1,181.1 259.57,180.58 258.45,188.25 261.98,188.76 	"/>
	<path d="M262.95,188.31c0.12,0.35,0.32,0.61,0.62,0.78c0.3,0.17,0.66,0.3,1.07,0.39c0.44,0.09,0.82,0.12,1.15,0.09
		c0.33-0.03,0.62-0.19,0.86-0.46c0.24-0.28,0.43-0.72,0.56-1.35l0.2-0.93l-1.49-0.32l-0.32,1.5c-0.04,0.2-0.1,0.34-0.18,0.44
		c-0.07,0.1-0.16,0.16-0.26,0.17c-0.1,0.02-0.21,0.01-0.33-0.01c-0.12-0.03-0.22-0.07-0.31-0.13s-0.14-0.15-0.17-0.27
		c-0.03-0.12-0.02-0.27,0.02-0.47l0.99-4.59c0.05-0.2,0.1-0.36,0.18-0.45c0.07-0.09,0.16-0.15,0.26-0.16
		c0.1-0.01,0.21-0.01,0.33,0.02s0.22,0.07,0.3,0.12c0.08,0.05,0.14,0.14,0.17,0.25c0.03,0.12,0.02,0.28-0.02,0.48l-0.35,1.63
		l1.49,0.32l0.34-1.56c0.1-0.44,0.09-0.81-0.03-1.09c-0.12-0.29-0.32-0.51-0.61-0.68c-0.29-0.17-0.65-0.3-1.07-0.39
		c-0.42-0.09-0.8-0.12-1.15-0.09c-0.35,0.03-0.64,0.15-0.87,0.35c-0.24,0.21-0.41,0.54-0.5,0.99l-0.86,3.97
		C262.84,187.47,262.83,187.96,262.95,188.31z"/>
	<polygon points="269.04,190.41 270.93,184.01 272.05,184.34 270.16,190.74 271.68,191.19 273.87,183.77 269.71,182.53 
		267.52,189.96 	"/>
	<path d="M273.72,190.81c-0.09,0.15-0.21,0.22-0.35,0.2c-0.14-0.01-0.27-0.04-0.38-0.09c-0.08-0.03-0.16-0.07-0.23-0.11
		c-0.07-0.04-0.14-0.08-0.19-0.12l-0.28,0.73c0.11,0.08,0.26,0.17,0.46,0.28c0.2,0.11,0.4,0.21,0.61,0.29c0.52,0.2,0.98,0.2,1.36,0
		c0.39-0.2,0.79-0.62,1.2-1.27l3.24-5.04l-1.34-0.5l-2.5,4.39l-0.01,0l1.04-4.95l-1.45-0.54l-0.95,6.13
		c-0.04,0.14-0.08,0.25-0.12,0.34C273.81,190.66,273.77,190.74,273.72,190.81z"/>
	<path d="M279.08,194.16c0.25,0.11,0.47,0.19,0.69,0.23c0.21,0.04,0.41,0.03,0.61-0.03c0.19-0.06,0.38-0.2,0.56-0.41
		c0.18-0.21,0.37-0.52,0.55-0.92l0.89-1.94c0.17-0.37,0.24-0.69,0.21-0.95c-0.03-0.26-0.13-0.48-0.3-0.65
		c-0.17-0.17-0.38-0.32-0.64-0.44l-1.05-0.48l0.4-0.87l2.11,0.96l0.45-0.98l-3.47-1.59l-3.22,7.04L279.08,194.16z M280.21,189.42
		l0.53,0.25c0.15,0.07,0.25,0.15,0.3,0.24c0.05,0.09,0.06,0.19,0.04,0.31c-0.02,0.12-0.06,0.25-0.12,0.38l-1.02,2.23
		c-0.07,0.15-0.14,0.27-0.22,0.36c-0.08,0.1-0.17,0.16-0.26,0.18c-0.1,0.02-0.22,0-0.36-0.06l-0.55-0.25L280.21,189.42z"/>
	<path d="M281.9,194.3c-0.22,0.1-0.4,0.11-0.53,0.03l-0.38,0.69l0.85,0.47c0.26,0.14,0.49,0.21,0.67,0.22
		c0.19,0.01,0.34-0.03,0.47-0.11c0.13-0.08,0.24-0.19,0.34-0.32c0.09-0.13,0.19-0.26,0.28-0.39l2.91-4.43l1.02,0.57l-3.24,5.83
		l1.33,0.74l3.76-6.77l-3.66-2.03l-3.26,5.01C282.3,194.04,282.12,194.2,281.9,194.3z"/>
	<polygon points="287.38,198.74 291.14,195.97 288.72,199.63 289.84,200.37 294.12,193.92 293,193.18 289.06,196.21 291.66,192.29 
		290.55,191.55 286.27,198.01 	"/>
	<path d="M294.54,203.91l1.18-4.1l3.53-1.97l-1.29-1.01l-3.1,1.86l-0.39-0.31l2.07-2.66l-1.2-0.93l-4.76,6.11l1.2,0.93l2.07-2.66
		l0.44,0.35l-1.07,3.44l1.27,0.99l-0.01,0.01l1.21,1.1l1.12-0.91l0.84,0.76l-0.79,1.22l1.26,1.14l4.19-6.65l-1.61-1.46
		L294.54,203.91z M298.16,204.33l-0.81-0.73l3.23-2.75L298.16,204.33z"/>
	<path d="M281.86,210.36c-1.23-1.13-2.61-2.06-4.12-2.78c-0.68-0.32-1.32-0.75-1.98-1.14c-0.09,0-0.18,0-0.28,0
		c0.22,2.26,0.76,4.43,1.73,6.48c0.5,1.06,1.09,2.08,1.95,2.88c1.52,1.41,3.3,2.06,5.43,2.04c0-0.69,0.04-1.25-0.01-1.81
		C284.4,213.78,283.5,211.87,281.86,210.36z"/>
	<path d="M211.74,252.82c-0.11-0.59-0.16-1.15-0.31-1.67c-0.64-2.23-1.86-3.95-3.93-5.04c-2.33-1.23-4.84-1.66-7.38-2.02
		c0,0.1,0,0.19,0,0.29c0.19,0.3,0.4,0.59,0.58,0.9c0.98,1.76,1.96,3.52,3.33,5.01C206.14,252.59,208.7,253.29,211.74,252.82z"/>
	<path d="M289.39,248.99c-0.65,1.1-0.95,2.31-1.09,3.61c1.52,0.68,3.02,0.33,4.43-0.18c1.72-0.62,3.14-1.77,4.16-3.36
		c0.83-1.3,1.6-2.65,2.4-3.96c0.16-0.26,0.38-0.48,0.57-0.72c0-0.1,0-0.19,0-0.29c-2.17,0.05-4.25,0.61-6.27,1.39
		C291.83,246.16,290.39,247.3,289.39,248.99z"/>
	<path d="M208.73,224.31c-0.85-1.33-1.77-2.62-2.87-4.22c-0.72,2.66-1.36,4.95-1.3,7.39c0.07,3.11,1.34,5.49,3.95,7.22
		c1.26-1.75,2.08-3.61,1.84-5.78C210.17,227.27,209.62,225.71,208.73,224.31z"/>
	<path d="M294.25,220.03c-0.56,0.7-1.01,1.23-1.42,1.79c-1.39,1.9-2.63,3.88-3.07,6.26c-0.46,2.43,0.27,4.51,1.73,6.43
		c0.27-0.13,0.46-0.19,0.6-0.29c2.88-2.23,3.73-5.29,3.26-8.8C295.1,223.67,294.65,221.95,294.25,220.03z"/>
	<path d="M286.73,257.52c-0.49,0.92-0.99,1.87-0.96,2.95c0.18,0.07,0.26,0.11,0.35,0.13c0.14,0.03,0.28,0.01,0.41,0.05
		c2.12,0.62,4.06,0.17,5.9-1c2.41-1.53,4.02-3.8,5.64-6.41c-2.65-0.14-5.04,0.16-7.34,0.99
		C289.05,254.84,287.62,255.87,286.73,257.52z"/>
	<path d="M220.31,254.14c0-2.47-0.66-4.82-1.48-7.19c-0.35,0.44-0.69,0.83-0.96,1.25c-1.13,1.72-2.25,3.41-2.9,5.43
		c-0.89,2.79-0.45,5.26,1.27,7.72C218.99,259.66,220.31,257.26,220.31,254.14z"/>
	<path d="M271.7,274.62c-1.62-0.64-3.25-1.1-5.06-0.68c-0.98,0.23-1.83,0.68-2.66,1.19c-4.63,0.64-11.13,1.46-13.98,1.46
		c-2.88,0-9.44-0.83-14.1-1.47c-1.84-1.21-3.88-1.46-6.04-0.97c-2.58,0.59-4.66,2.24-6.89,3.93c2.79,1.02,5.43,1.83,8.26,1.61
		c1.12-0.09,2.14-0.51,3.09-1.06c4.76,0.67,12.33,1.65,15.68,1.65c3.36,0,10.98-1,15.7-1.67c1.34,0.77,2.87,1.14,4.59,1.02
		c1.85-0.12,3.71-0.51,5.47-1.2c0.37-0.15,0.73-0.3,1.24-0.51c-1.13-0.79-2.09-1.51-3.09-2.15
		C273.2,275.33,272.47,274.93,271.7,274.62z"/>
	<path d="M211.56,208.9c-0.76,1.84-1.52,3.49-2.12,5.21c-0.74,2.11-1.03,4.27-0.19,6.46c0.47,1.21,1.27,2.16,2.07,3.23
		c2.64-2.28,3.52-5.02,2.72-8.72C213.56,212.93,212.58,211.03,211.56,208.9z"/>
	<path d="M212.62,227.51c3.18,0.19,5.64-0.96,7.41-3.56c1.2-1.75,1.93-3.74,2.55-5.77c0.09-0.28,0.14-0.58,0.23-0.99
		c-2.58,0.76-4.93,1.68-6.96,3.27C213.61,222.21,212.66,224.6,212.62,227.51z"/>
	<path d="M212.78,250.98c0.35-0.24,0.61-0.44,0.89-0.59c1.4-0.75,2.37-1.9,3.07-3.34c0.55-1.12,0.75-2.31,0.83-3.54
		c0.14-2.19-0.26-4.32-0.66-6.54c-2.02,1.84-3.68,3.9-4.76,6.38c-0.98,2.26-0.93,4.58,0.11,6.83
		C212.39,250.46,212.59,250.7,212.78,250.98z"/>
	<path d="M279.2,222.6c1.07,2.16,2.65,3.87,5.05,4.47c0.95,0.24,1.92,0.6,3.17,0.28c-0.11-0.71-0.22-1.29-0.27-1.89
		c-0.12-1.42-0.74-2.64-1.61-3.68c-2.2-2.62-5.21-3.74-8.58-4.75C277.76,219.06,278.35,220.89,279.2,222.6z"/>
	<path d="M287.95,243.59c-0.54-1.47-1.37-2.78-2.32-3.99c-0.74-0.94-1.59-1.79-2.51-2.81c-0.37,2.12-0.75,4.04-0.73,6.02
		c0.04,3.69,1.51,6.45,4.9,8.05C288.72,248.49,288.86,246.08,287.95,243.59z"/>
	<path d="M276.99,253.22c-0.12-0.01-0.24-0.01-0.36-0.02c-0.7,1.68-1.52,3.33-2.07,5.06c-1.14,3.56-0.58,6.78,2.26,9.51
		c0.49-0.59,1.04-1.11,1.43-1.73c1.14-1.84,1.59-3.8,1.18-6.04C278.98,257.58,278.05,255.38,276.99,253.22z"/>
	<path d="M283.73,261.23c1.02-1.37,1.62-2.8,1.74-4.45c0.1-1.5-0.28-2.88-0.82-4.26c-0.82-2.09-2.1-3.84-3.51-5.68
		c-0.3,0.99-0.59,1.83-0.8,2.69c-0.51,2.1-0.9,4.2-0.46,6.41C280.35,258.33,281.76,259.93,283.73,261.23z"/>
	<path d="M227.8,258.87c-0.11,1.36-0.23,2.52-0.29,3.69c-0.04,0.81-0.03,1.62-0.01,2.42c0.1,3.63,1.62,6.32,5.02,7.88
		c0.29-0.69,0.57-1.24,0.75-1.82c0.67-2.12,0.53-4.21-0.49-6.17C231.59,262.57,229.84,260.73,227.8,258.87z"/>
	<path d="M284.87,262.22c-0.79,0.13-1.56,0.52-2.27,0.93c-1.53,0.89-2.5,2.3-3.21,3.99c0.22,0.13,0.4,0.27,0.6,0.36
		c2.41,1.17,4.8,1.04,7.13-0.2c2.23-1.19,4.09-2.87,5.86-4.92c-1.49-0.13-2.87-0.12-4.19-0.42
		C287.43,261.64,286.16,262,284.87,262.22z"/>
	<path d="M221.99,268.89c-2.71-0.09-5.2,0.83-7.78,1.82c2.11,1.6,4.22,3,6.7,3.63c2.73,0.7,5.26,0.38,7.5-1.67
		C226.82,270.38,224.77,268.98,221.99,268.89z"/>
	<path d="M278.26,268.82c-2.96-0.03-5,1.45-6.68,3.79c1.73,1.44,3.59,2.19,5.76,2c1.96-0.17,3.72-0.95,5.4-1.94
		c0.99-0.58,1.94-1.25,3.1-2c-0.56-0.23-0.93-0.4-1.31-0.54C282.5,269.4,280.45,268.84,278.26,268.82z"/>
	<path d="M221.9,214.62c1.56-2.31,2.17-5.01,2.67-8.11c-1.65,0.88-3.09,1.5-4.38,2.36c-1.9,1.27-3.58,2.78-4.34,5.12
		c-0.42,1.31-0.63,2.62-0.32,4.02c0.46-0.06,0.85-0.09,1.24-0.16C218.92,217.51,220.67,216.43,221.9,214.62z"/>
	<path d="M210.22,240.11c0.53-0.18,0.92-0.31,1.3-0.44c2.39-0.82,3.92-2.52,4.8-4.92c0.52-1.43,0.75-2.91,0.92-4.4
		c0.11-0.92,0.14-1.86,0-2.9c-2.12,1.27-3.94,2.69-5.44,4.51c-1.6,1.93-2.29,4.18-1.96,6.72
		C209.9,239.16,210.09,239.62,210.22,240.11z"/>
	<path d="M201.47,232.33c0.12,1.13,0.22,2.02,0.31,2.9c0.23,2.22,0.76,4.37,1.95,6.25c1.2,1.9,2.94,3.02,5.12,3.48
		c0.08-0.19,0.14-0.32,0.19-0.44c0.04-0.09,0.1-0.17,0.12-0.26c0.44-2.73,0.1-5.24-1.8-7.4C205.73,235,203.68,233.77,201.47,232.33z
		"/>
	<path d="M223.03,253.24c-0.44,0.95-0.84,1.8-1.23,2.65c-0.76,1.68-1.24,3.46-1.39,5.28c-0.22,2.6,0.82,4.77,2.69,6.67
		c2.62-2.25,3.25-5.07,2.67-8.25c-0.33-1.81-1.2-3.44-1.93-5.11C223.65,254.03,223.32,253.66,223.03,253.24z"/>
	<path d="M220.65,267.3c-1.04-2.53-2.7-4.18-5.07-4.91c-2.06-0.63-4.19-0.45-6.3-0.21c-0.66,0.07-1.31,0.21-1.97,0.31
		c0.04,0.19,0.03,0.3,0.08,0.36c1.55,1.69,3.18,3.26,5.2,4.39C215.29,268.74,217.9,268.63,220.65,267.3z"/>
	<path d="M214.33,260.51c-0.76-3.11-2.42-5.22-5.3-6.29c-1.97-0.73-4.03-0.72-6.06-0.98c-0.29-0.04-0.6,0.04-1.04,0.08
		c1.41,2.4,2.97,4.47,5.09,6.04C209.2,261.01,211.59,261.35,214.33,260.51z"/>
	<path d="M288.33,209c-0.51,1.09-1.03,2.08-1.46,3.11c-0.75,1.78-1.2,3.62-1.2,5.61c0,2.48,1.21,4.25,2.88,5.96
		c2.06-2.01,2.98-4.38,2.61-7.17C290.8,213.83,289.68,211.41,288.33,209z"/>
	<path d="M289.69,234.44c-0.59-1.55-1.52-2.79-2.71-3.84c-1.32-1.16-2.72-2.24-4.22-3.47c-0.24,2.4,0.09,4.46,0.57,6.47
		c0.37,1.55,1.03,3.03,2.22,4.18c1.2,1.17,2.66,1.81,4.26,2.2C290.29,238.12,290.4,236.3,289.69,234.44z"/>
	<path d="M291.03,244.83c2.93-0.52,4.83-2.37,5.62-4.13c0.4-0.89,0.7-1.83,1.01-2.76c0.53-1.57,0.53-3.23,0.79-4.85
		c0.04-0.21-0.03-0.44-0.05-0.7c-2.15,1.13-3.92,2.51-5.47,4.09C290.59,238.88,290.23,241.7,291.03,244.83z"/>
	<path d="M268.08,263.3c-2.08,3.05-2.44,6.21-0.53,9.5c0.27-0.17,0.5-0.32,0.74-0.46c2.04-1.22,3.46-2.9,3.91-5.36
		c0.49-2.68,0.36-5.34-0.13-8.28c-1,1.08-1.86,2-2.69,2.94C268.92,262.17,268.48,262.72,268.08,263.3z"/>
	<path d="M279.86,241.94c0.05-0.38,0.07-0.76,0.06-1.15c0-0.05-0.02-0.11-0.04-0.17c-0.08,0.02-0.13,0.02-0.19,0.04
		c-0.78,0.21-1.55,0.42-2.33,0.62c-1.15,0.3-2.3,0.6-3.46,0.87c-1.11,0.26-2.22,0.48-3.34,0.71c-0.44,0.09-0.89,0.15-1.33,0.21
		c-0.26,0.04-0.52,0.04-0.78,0.06c0.04-0.05,0.08-0.07,0.12-0.09c0.88-0.33,1.75-0.66,2.63-0.98c1.6-0.59,3.19-1.19,4.79-1.78
		c0.27-0.1,0.55-0.18,0.81-0.32c0.79-0.43,1.49-0.98,2.1-1.64c0.65-0.71,1.13-1.52,1.42-2.45c0.29-0.94,0.35-1.89,0.27-2.86
		c0-0.04-0.02-0.08-0.05-0.14c-0.16,0.08-0.32,0.15-0.46,0.23c-1.8,1-3.6,2-5.39,3.02c-1.23,0.71-2.49,1.37-3.77,1.99
		c-0.98,0.47-1.98,0.86-3.02,1.17c-0.2,0.06-0.4,0.11-0.6,0.16c0.15-0.15,0.31-0.28,0.48-0.39c1.11-0.75,2.24-1.45,3.39-2.13
		c0.77-0.46,1.53-0.94,2.28-1.44c1-0.66,1.93-1.42,2.72-2.33c1.3-1.52,1.97-3.26,1.97-5.26c0-0.62-0.06-1.23-0.18-1.84
		c-0.03-0.16-0.02-0.33-0.15-0.49c-0.24,0.2-0.48,0.39-0.7,0.6c-1.54,1.43-3.09,2.86-4.62,4.31c-1.28,1.21-2.54,2.43-3.9,3.54
		c-0.92,0.75-1.88,1.46-2.91,2.06c-0.06,0.04-0.14,0.06-0.21,0.09c0.03-0.04,0.06-0.07,0.09-0.11c1.42-1.48,2.85-2.96,4.26-4.45
		c1.14-1.2,2.21-2.46,3.11-3.86c0.77-1.18,1.39-2.43,1.66-3.83c0.13-0.65,0.13-1.31,0.06-1.97c-0.01-0.11-0.08-0.22-0.08-0.34
		c0.01-0.28-0.12-0.52-0.2-0.77c-0.25-0.75-0.68-1.41-1.21-2c-0.03-0.04-0.07-0.06-0.13-0.12c-0.08,0.16-0.15,0.3-0.23,0.43
		c-0.56,0.92-1.1,1.86-1.7,2.76c-1.33,1.98-2.7,3.94-4.05,5.9c-0.25,0.37-0.5,0.75-0.76,1.11c-0.21,0.29-0.43,0.57-0.65,0.86
		c-0.25,0.34-0.5,0.69-0.75,1.04c-0.25,0.35-0.48,0.7-0.73,1.05c-0.11,0.15-0.21,0.29-0.32,0.43l-4.48-4.82l-3.31,4.51l-5.62-7.6
		l-5.59,6.45l-3.71-3.78l-4.97,5.64c-0.37-0.45-0.74-0.9-1.12-1.35c-0.67-0.8-1.35-1.6-1.94-2.46c-1.14-1.65-2.21-3.34-3.22-5.07
		c-0.95-1.63-1.88-3.29-2.81-4.93c-0.03-0.05-0.07-0.1-0.12-0.18c-0.07,0.07-0.12,0.12-0.16,0.17c-0.26,0.36-0.54,0.7-0.77,1.08
		c-0.6,1.01-0.83,2.11-0.73,3.28c0.08,0.91,0.34,1.78,0.72,2.61c0.49,1.08,1.13,2.06,1.85,2.99c0.99,1.28,2.09,2.47,3.2,3.65
		c0.82,0.87,1.62,1.75,2.36,2.68c0.25,0.32,0.48,0.65,0.72,0.97c-0.01,0.01-0.02,0.02-0.04,0.03c-0.16-0.12-0.32-0.23-0.48-0.35
		c-0.99-0.75-1.95-1.54-2.86-2.38c-1.45-1.33-2.87-2.69-4.32-4.02c-1.36-1.26-2.74-2.51-4.11-3.77c-0.04-0.04-0.1-0.07-0.16-0.11
		c-0.02,0.05-0.04,0.08-0.04,0.11c-0.13,0.47-0.21,0.95-0.27,1.43c-0.08,0.66-0.07,1.32,0.03,1.97c0.14,0.97,0.49,1.88,1,2.72
		c0.63,1.03,1.44,1.89,2.37,2.65c0.94,0.77,1.95,1.46,2.97,2.13c1.19,0.78,2.38,1.56,3.57,2.34c0.31,0.21,0.61,0.44,0.92,0.67
		c-0.04,0.01-0.06,0.02-0.07,0.02c-0.2-0.07-0.41-0.14-0.61-0.22c-1.56-0.6-3.08-1.31-4.56-2.1c-1.36-0.73-2.7-1.48-4.04-2.22
		c-1.27-0.7-2.53-1.39-3.8-2.08c-0.07-0.04-0.14-0.06-0.22-0.1c-0.02,0.06-0.03,0.08-0.03,0.11c-0.05,0.61-0.04,1.22,0.04,1.82
		c0.16,1.09,0.56,2.08,1.23,2.96c0.7,0.92,1.59,1.61,2.58,2.18c0.48,0.28,1,0.5,1.51,0.71c0.3,0.13,0.59,0.29,0.89,0.4
		c0.87,0.33,1.75,0.65,2.63,0.97c0.97,0.36,1.95,0.7,2.92,1.06c0.32,0.12,0.64,0.26,0.96,0.4c0,0.02-0.01,0.03-0.01,0.05
		c-1.01-0.19-2.02-0.37-3.03-0.58c-1.02-0.21-2.03-0.43-3.04-0.67c-1-0.24-2-0.46-2.99-0.77c-0.98-0.31-1.98-0.6-2.97-0.9
		c-0.01,0.04-0.03,0.07-0.03,0.1c-0.08,0.98,0.09,1.92,0.56,2.79c0.27,0.5,0.64,0.91,1.07,1.28c0.71,0.6,1.53,1,2.4,1.3
		c0.83,0.28,1.68,0.46,2.54,0.6c1.04,0.17,2.08,0.32,3.12,0.46c0.73,0.1,1.45,0.17,2.18,0.26c0.04,0.01,0.08,0.02,0.12,0.03
		c0,0.02,0,0.03,0,0.05c-0.15,0.02-0.29,0.04-0.44,0.05c-0.86,0.08-1.72,0.18-2.58,0.24c-0.83,0.05-1.67,0.06-2.5,0.06
		c-0.68,0.01-1.35,0-2.03-0.03c-0.81-0.03-1.62-0.08-2.44-0.12c-0.05,0-0.11,0.01-0.2,0.02c0.03,0.19,0.06,0.36,0.09,0.53
		c0.19,0.99,0.69,1.79,1.5,2.4c0.58,0.43,1.23,0.7,1.92,0.89c0.8,0.22,1.62,0.31,2.45,0.35c1.06,0.04,2.12-0.01,3.18-0.11
		c0.67-0.06,1.34-0.15,2.01-0.24c0.24-0.03,0.47-0.07,0.71-0.1c-0.06,0.06-0.12,0.09-0.19,0.11c-0.48,0.15-0.95,0.31-1.43,0.45
		c-1.09,0.31-2.18,0.61-3.27,0.89c-0.64,0.17-1.29,0.29-1.93,0.44c-0.07,0.02-0.14,0.05-0.22,0.08c0.14,0.79,0.49,1.41,1.14,1.85
		c0.52,0.35,1.11,0.5,1.72,0.58c0.86,0.12,1.73,0.04,2.58-0.09c0.82-0.13,1.64-0.32,2.44-0.55c0.64-0.18,1.27-0.38,1.91-0.56
		c-0.05,0.04-0.1,0.09-0.16,0.13c-0.31,0.16-0.61,0.33-0.93,0.48c-0.66,0.31-1.32,0.6-1.97,0.92c-0.58,0.28-1.13,0.63-1.57,1.12
		c-0.06,0.07-0.11,0.14-0.18,0.23c0.06,0.08,0.11,0.14,0.16,0.19c0.43,0.42,0.9,0.74,1.52,0.83c0.27,0.04,0.54,0.14,0.81,0.15
		c0.5,0.01,1,0.01,1.5-0.05c1.1-0.14,2.16-0.45,3.19-0.86c0.33-0.13,0.66-0.27,1.03-0.42c-0.15,0.23-0.33,0.38-0.52,0.51
		c-0.22,0.14-0.45,0.26-0.67,0.4c-0.31,0.19-0.59,0.41-0.73,0.75c-0.15,0.38-0.11,0.36,0.14,0.54c0.53,0.41,1.14,0.55,1.79,0.58
		c0.78,0.03,1.53-0.12,2.27-0.33c0.68-0.2,1.35-0.45,2-0.74c0.07-0.03,0.15-0.05,0.27-0.1c-0.06,0.12-0.1,0.2-0.14,0.27
		c-0.57,0.97-1.15,1.95-1.73,2.92c-0.6,1.02-1.21,2.03-1.82,3.04c-0.05,0.09-0.1,0.19-0.14,0.27c0.03,0.03,0.03,0.05,0.04,0.06
		c0.03,0.02,0.06,0.04,0.09,0.05c0.53,0.25,1.09,0.28,1.66,0.16c0.53-0.11,1.01-0.35,1.47-0.64c0.4-0.26,0.8-0.53,1.2-0.79
		c0.07-0.05,0.14-0.11,0.27-0.1c-0.52,1.5-1.03,2.98-1.55,4.5c0.23,0,0.42,0.01,0.62,0.01c0.61-0.01,1.17-0.18,1.69-0.5
		c0.45-0.28,0.78-0.67,1.08-1.09c0.31-0.44,0.63-0.89,0.95-1.33c0.05-0.07,0.12-0.13,0.17-0.2c0.04,0.31,0.03,0.6,0.04,0.89
		c0.03,0.62,0.06,1.25,0.1,1.87c0.74,3.43,1.72,4.59,3.12-1.27c0-0.31,0-0.63,0.11-0.93c0.06-0.17,0.13-0.34,0.3-0.39
		c0.25,0.43,0.47,0.86,0.74,1.25c0.77,1.1,1.83,1.66,3.17,1.68c0.07,0,0.14-0.01,0.23-0.01c-0.01-0.11-0.01-0.19-0.03-0.28
		c-0.14-0.68-0.35-1.35-0.59-2c-0.29-0.75-0.57-1.5-0.86-2.26c-0.01-0.04-0.02-0.08-0.03-0.16c0.09,0.07,0.14,0.12,0.2,0.16
		c0.46,0.38,0.93,0.76,1.46,1.06c0.92,0.52,1.89,0.68,2.91,0.35c0.06-0.02,0.11-0.05,0.19-0.09c-0.12-0.24-0.22-0.47-0.33-0.68
		c-0.54-1.05-1.17-2.05-1.82-3.04c-0.58-0.89-1.14-1.79-1.58-2.75c-0.03-0.07-0.06-0.15-0.09-0.22c0.51,0.35,1.02,0.64,1.58,0.87
		c0.91,0.37,1.85,0.54,2.82,0.5c0.32-0.01,0.64-0.09,0.95-0.17c0.25-0.07,0.49-0.2,0.74-0.31c0.04-0.02,0.08-0.06,0.12-0.09
		c0.06-0.04,0.11-0.09,0.18-0.13c0.17-0.1,0.19-0.14,0.12-0.33c-0.09-0.24-0.24-0.43-0.45-0.58c-0.21-0.15-0.43-0.27-0.64-0.42
		c-0.2-0.14-0.41-0.28-0.59-0.44c-0.1-0.08-0.17-0.19-0.12-0.36c0.18,0.1,0.35,0.18,0.52,0.27c0.47,0.23,0.95,0.43,1.46,0.56
		c0.21,0.05,0.41,0.15,0.62,0.2c0.17,0.05,0.36,0.04,0.53,0.1c0.4,0.13,0.81,0.17,1.22,0.22c0.76,0.09,1.52,0.09,2.26-0.16
		c0.57-0.19,1.02-0.54,1.32-1.08c0.08-0.15,0.08-0.16-0.05-0.28c-0.03-0.03-0.07-0.06-0.1-0.09c-0.37-0.32-0.79-0.57-1.23-0.78
		c-0.58-0.29-1.18-0.54-1.77-0.82c-0.53-0.25-1.05-0.52-1.51-0.9c-0.03-0.03-0.06-0.06-0.09-0.09c0.1,0.03,0.17,0.07,0.25,0.1
		c0.68,0.33,1.37,0.63,2.11,0.79c0.15,0.03,0.29,0.1,0.43,0.14c1.13,0.28,2.27,0.41,3.43,0.39c0.56-0.01,1.11-0.09,1.65-0.27
		c1-0.34,1.66-1.01,1.93-2.04c0.05-0.19,0.03-0.22-0.17-0.27c-1.36-0.35-2.73-0.68-4.09-1.05c-0.75-0.21-1.49-0.46-2.24-0.71
		c-0.24-0.08-0.46-0.19-0.69-0.28c0.03-0.03,0.05-0.04,0.07-0.03c0.82,0.21,1.65,0.39,2.5,0.49c0.63,0.07,1.25,0.15,1.88,0.18
		c1.07,0.05,2.15,0.01,3.21-0.19c0.75-0.14,1.47-0.35,2.13-0.72c1.23-0.67,1.94-1.72,2.17-3.09c0.01-0.07,0-0.14,0-0.23
		c-0.09,0-0.17,0-0.25,0c-0.98,0.01-1.95,0.06-2.93,0.06c-1.45,0-2.9,0.02-4.35-0.1c-0.67-0.05-1.34-0.14-2.01-0.22
		c-0.21-0.03-0.42-0.09-0.63-0.13c0-0.01,0-0.03,0.01-0.04c0.09-0.01,0.17-0.02,0.26-0.03c0.77-0.05,1.54-0.08,2.3-0.14
		c0.72-0.06,1.45-0.13,2.16-0.23c0.85-0.11,1.7-0.27,2.53-0.51c0.4-0.12,0.81-0.22,1.19-0.38c0.27-0.11,0.52-0.28,0.8-0.38
		c0.33-0.12,0.58-0.34,0.87-0.53c0.21-0.14,0.39-0.34,0.58-0.52c0.3-0.29,0.57-0.61,0.78-0.98c0.07-0.12,0.11-0.25,0.16-0.37
		c0.05-0.12,0.13-0.23,0.16-0.35C279.72,242.54,279.82,242.25,279.86,241.94z M241.23,230.17l3.73,3.79l5.36-6.18l5.76,7.79
		l3.49-4.76l3.02,3.24c-0.21,0.29-0.42,0.58-0.63,0.86c-0.4,0.55-0.81,1.1-1.21,1.65h-21.4c-0.03-0.03-0.04-0.07-0.07-0.1
		c-0.57-0.71-1.16-1.4-1.74-2.1L241.23,230.17z M262.54,247.99c-0.91,1.76-2.34,2.77-4.36,2.85c-0.37,0.02-3.06,0-4.02-1.68
		c-0.64-0.75-1.03-1.62-1.28-2.57c-0.04-0.14-0.06-0.29-0.1-0.46c0.11,0,0.19,0,0.27,0c0.57,0,1.15,0,1.72,0
		c0.08,0,0.16-0.02,0.26-0.03c-0.06-0.68-0.29-1.25-0.79-1.69c-0.59-0.51-1.29-0.74-2.05-0.81c-0.6-0.05-1.2-0.11-1.8-0.15
		c-0.61-0.04-1.22-0.07-1.82-0.12c-0.14-0.01-0.2,0.05-0.25,0.18c-0.53,1.32-1.06,2.64-1.59,3.96c-0.23,0.56-0.47,1.1-0.85,1.58
		c-0.76,0.96-1.72,1.57-2.93,1.75c-0.72,0.11-1.45,0.08-2.16-0.09c-1.17-0.27-2.09-0.91-2.8-1.86c-0.63-0.85-0.98-1.8-1.11-2.85
		c-0.1-0.84-0.07-1.67,0.15-2.48c0.11-0.43,0.75-2.33,2.52-3.09c0.57-0.26,1.17-0.39,1.79-0.45c0.08-0.01,0.17-0.02,0.24-0.03
		c0-0.04,0.01-0.06,0.01-0.07c-0.04-0.08-0.08-0.15-0.12-0.23c-0.2-0.35-0.46-0.66-0.67-1h18.43c-0.22,0.3-0.44,0.59-0.66,0.89
		c-0.03,0.04-0.05,0.09-0.09,0.16c0.08,0.02,0.13,0.04,0.19,0.05c0.22,0.05,0.44,0.09,0.66,0.15c0.67,0.18,1.3,0.47,1.85,0.9
		c1.14,0.89,1.79,2.07,1.98,3.5C263.29,245.6,263.14,246.84,262.54,247.99z"/>
</g>
</svg>
