<?xml version="1.0" encoding="utf-8"?>
<!-- Generator: Adobe Illustrator 26.5.0, SVG Export Plug-In . SVG Version: 6.00 Build 0)  -->
<svg version="1.1" id="Layer_1" xmlns="http://www.w3.org/2000/svg" xmlns:xlink="http://www.w3.org/1999/xlink" x="0px" y="0px"
	 viewBox="0 0 500 500" style="enable-background:new 0 0 500 500;" xml:space="preserve">
<style type="text/css">
	.st0{fill:#131313;}
</style>
<g>
	<path class="st0" d="M304.18,248.65c-0.67,1.08-1.54,2.01-2.36,2.97c-0.44,0.51-0.89,1.05-1.17,1.65
		c-0.62,1.35-0.17,2.59,0.57,3.88c0.26-0.27,0.49-0.47,0.65-0.71c0.75-1.11,1.48-2.23,2.03-3.45c0.11-0.24,0.27-0.46,0.41-0.69
		c-0.05,0.33-0.08,0.67-0.18,0.99c-0.39,1.22-0.95,2.36-1.66,3.44c-0.12,0.19-0.19,0.41-0.28,0.62c-0.02,0.02-0.04,0.05-0.06,0.07
		c0.02-0.02,0.05-0.04,0.07-0.06c0.5-0.1,0.76-0.54,1.09-0.84c1.23-1.12,2.15-2.46,2.63-4.08c0.07-0.24,0.15-0.48,0.22-0.72
		c0-0.75,0-1.51,0-2.26c-0.09-0.21-0.19-0.42-0.27-0.63c-0.21-0.55-0.47-1.05-0.97-1.5C304.66,247.8,304.44,248.24,304.18,248.65z
		 M304.34,252.24c0.01-0.09,0.02-0.19,0.02-0.28c0.02,0.01,0.05,0.01,0.08,0.02C304.4,252.06,304.37,252.15,304.34,252.24z"/>
	<path class="st0" d="M244.15,199.26c-1.26,0.08-2.52,0.24-3.78,0.4c-0.84,0.08-1.68,0.18-2.5,0.32c-1.48,0.28-2.94,0.6-4.4,0.92
		c-3.86,0.84-7.6,2.1-11.18,3.76c-3.6,1.66-6.92,3.76-9.86,6.44c-0.4,0.36-0.4,0.38-0.2,0.9c0.28,0.66,0.54,1.34,0.82,2
		c-0.1,0.06-0.14,0.12-0.2,0.16c-1.18,0.56-2.4,0.92-3.66,1.26c-0.8,0.24-1.64,0.4-2.44,0.62c-0.16,0.04-0.3,0.16-0.54,0.3
		c0.34,0.28,0.56,0.5,0.82,0.68c1.28,0.88,2.72,1.24,4.24,1.42c0.26,0.02,0.52,0.1,0.78,0.14c0.02,1.98-0.16,3.88,0.34,5.7
		c0.26,0.12,0.42,0.08,0.56-0.1c1.2-1.52,2.84-2.34,4.66-2.86c0.94-0.28,1.92-0.4,2.86-0.66c0.68-0.18,1.34-0.42,2-0.68
		c0.46-0.18,0.74-0.58,0.76-1.1c0.02-0.36,0.04-0.76-0.04-1.12c-0.2-1.04-0.48-2.06-0.7-3.08c-0.12-0.5-0.32-0.98-0.22-1.58
		c0.82-0.38,1.66-0.78,2.52-1.18c2.06-0.94,4.2-1.7,6.4-2.32c1.5-0.42,3.02-0.84,4.56-1.16c1.9-0.38,3.82-0.74,5.76-0.9
		c1.48-0.14,2.98-0.28,4.48-0.4c0.18-0.02,0.36-0.02,0.56-0.02c1.94-0.04,3.9-0.12,5.84-0.08c1.66,0.04,3.32,0.22,4.96,0.38
		c1.34,0.12,2.68,0.24,3.98,0.48c2.06,0.4,4.12,0.84,6.16,1.36c1.48,0.38,2.92,0.88,4.36,1.38c1.06,0.36,2.1,0.78,3.14,1.22
		c0.9,0.4,1.78,0.84,2.68,1.26c0,0.26,0,0.48-0.04,0.68c-0.18,0.76-0.4,1.5-0.56,2.26c-0.16,0.8-0.3,1.6-0.4,2.4
		c-0.12,0.82,0.28,1.4,1.02,1.66c0.82,0.28,1.66,0.48,2.5,0.7c0.9,0.24,1.84,0.38,2.72,0.68c1.52,0.5,2.88,1.28,3.94,2.5
		c0.14,0.18,0.26,0.4,0.64,0.32c0.54-1.86,0.4-3.8,0.34-5.76c2.14-0.26,4.2-0.62,5.78-2.14c-0.1-0.32-0.34-0.36-0.58-0.42
		c-1.52-0.42-3.06-0.84-4.6-1.28c-0.52-0.16-1.02-0.42-1.58-0.64c0.28-0.7,0.54-1.32,0.78-1.96c0.26-0.62,0.26-0.64-0.22-1.08
		c-1.42-1.3-2.96-2.46-4.58-3.5c-2.24-1.44-4.58-2.66-7.02-3.68c-2.04-0.86-4.12-1.58-6.24-2.18c-1.42-0.38-2.86-0.74-4.3-1.04
		c-2.46-0.54-4.92-0.94-7.42-1.16c-1.66-0.14-3.32-0.3-4.98-0.38c-1.52-0.06-3.06-0.04-4.58-0.02
		C246.91,199.1,245.53,199.16,244.15,199.26z M222.43,219.26c-0.18,0.18-0.42,0.3-0.64,0.42c-0.9,0.4-1.9,0.5-2.86,0.72
		c-1.42,0.3-2.8,0.7-4.1,1.42c-0.74,0.42-1.38,0.96-2.08,1.66c-0.08-1-0.2-1.88-0.2-2.78c-0.02-0.86,0.08-1.72,0.14-2.64
		c-0.56-0.08-1.08-0.16-1.58-0.22c-1.14-0.14-2.24-0.42-3.26-1c-0.16-0.08-0.32-0.2-0.52-0.34c2.04-0.48,4.02-1.04,5.94-1.9
		c0.42,1.02,0.82,1.98,1.22,2.96c0.36,0.92,0.48,1.34,1.96,1.28c0.58-0.04,1.14-0.2,1.72-0.32c0.86-0.18,1.74-0.36,2.6-0.58
		c0.48-0.12,0.94-0.04,1.38,0.1C222.73,218.24,222.87,218.82,222.43,219.26z M292.63,216.5c-0.96,0.66-1.92,1-2.94,1.18
		c-0.66,0.14-1.34,0.2-2,0.3c-0.36,0.06-0.44,0.12-0.44,0.5c0,0.42,0.04,0.84,0.04,1.26c0.02,0.68,0.02,1.36,0,2.04
		c0,0.28-0.02,0.56-0.06,0.84c-0.02,0.22-0.06,0.44-0.12,0.74c-0.24-0.2-0.42-0.36-0.58-0.5c-1.3-1.14-2.84-1.8-4.5-2.2
		c-1.26-0.32-2.54-0.64-3.8-0.96c-0.1-0.02-0.18-0.04-0.28-0.08c-0.56-0.26-0.72-0.54-0.68-1.24c0.48-0.46,1.06-0.58,1.68-0.48
		c0.98,0.2,1.96,0.44,2.94,0.66c0.66,0.16,1.32,0.32,2,0.3c0.72-0.04,1.16-0.36,1.44-1.06c0.32-0.86,0.68-1.74,1.02-2.6
		c0.08-0.2,0.18-0.38,0.3-0.58C288.55,215.5,290.55,215.96,292.63,216.5z M253.51,199.7c1.52,0.04,3.04,0.2,4.56,0.38
		c1.78,0.22,3.58,0.4,5.36,0.76c2.12,0.42,4.24,0.98,6.34,1.52c1.84,0.48,3.64,1.12,5.38,1.86c1.98,0.82,3.9,1.74,5.76,2.8
		c1.88,1.08,3.6,2.36,5.3,3.7c0.32,0.26,0.6,0.58,0.96,0.9c-0.72,1.92-1.46,3.72-2.26,5.56c-0.48-0.34-0.88-0.64-1.3-0.96
		c-2.26-1.78-4.74-3.2-7.34-4.42c-2.36-1.1-4.8-2-7.3-2.74c-2.54-0.74-5.12-1.3-7.72-1.76c-1.3-0.22-2.6-0.3-3.9-0.46
		c-1.52-0.2-3.04-0.3-4.56-0.3c-1.62-0.02-3.24-0.14-4.86-0.08c-1.68,0.04-3.36,0.24-5.04,0.36c-1.84,0.12-3.64,0.4-5.44,0.72
		c-2.5,0.44-4.94,1.04-7.36,1.78c-2.9,0.9-5.7,2.04-8.38,3.44c-2.14,1.1-4.14,2.4-6,3.92c-0.2,0.16-0.42,0.3-0.68,0.5
		c-0.48-0.9-0.82-1.84-1.2-2.76c-0.38-0.9-0.72-1.82-1.1-2.76c0.26-0.26,0.46-0.5,0.72-0.72c2.14-1.76,4.4-3.32,6.86-4.64
		c4.12-2.2,8.48-3.74,13.02-4.78c1.9-0.44,3.82-0.8,5.72-1.12c1.4-0.22,2.8-0.3,4.2-0.46C246.67,199.54,250.09,199.62,253.51,199.7z
		"/>
	<path class="st0" d="M279.77,294.25c-0.78-0.6-1.72-0.94-2.68-1.22c-0.46-0.14-0.46-0.16-0.28-0.68c0.08-0.56,0.16-1.12,0.22-1.68
		c0.06-1.02,0.12-2.06,0.16-3.08c0-0.2-0.02-0.44-0.28-0.5c-0.06,0.02-0.12,0.02-0.14,0.04c-0.12,0.08-0.24,0.16-0.34,0.26
		c-1.14,1.12-2.54,1.8-4.08,2.26c-1.34,0.42-2.74,0.6-4.12,0.86c-0.56,0.1-1.14,0.24-1.68,0.44c-0.5,0.18-0.64,0.62-0.44,1.1
		c0.06,0.12,0.14,0.24,0.22,0.34c0.54,0.72,0.84,1.52,1.04,2.38c0.1,0.42,0.38,0.82,0.24,1.34c-0.68,0.12-1.36,0.28-2.06,0.38
		c-1.22,0.18-2.46,0.34-3.68,0.48c-0.8,0.08-1.6,0.12-2.4,0.16c-1.46,0.1-2.94,0.24-4.42,0.26c-4.24,0.06-8.5,0.14-12.74-0.12
		c-0.96-0.06-1.94-0.08-2.88-0.18c-1.82-0.2-3.62-0.44-5.44-0.7c-0.52-0.06-1.04-0.2-1.62-0.32c0.38-1.32,0.56-2.66,1.46-3.74
		c0.5-0.58,0.3-1.16-0.42-1.46c-0.3-0.12-0.64-0.18-0.96-0.24c-1.26-0.24-2.52-0.44-3.78-0.72c-1.9-0.46-3.68-1.14-5.06-2.6
		c-0.14-0.16-0.3-0.3-0.58-0.22c-0.02,0.1-0.1,0.2-0.1,0.32c-0.04,1.26,0.02,2.52,0.2,3.78c0.08,0.54,0.32,1.08,0.2,1.62
		c-0.86,0.4-1.72,0.72-2.52,1.14c-0.82,0.44-1.56,1.04-2.04,1.84c0.1,0.26,0.3,0.34,0.52,0.36c0.84,0.04,1.6,0.34,2.34,0.72
		c0.84,0.42,1.62,0.92,2.28,1.6c-0.12,0.42-0.22,0.8-0.34,1.18c-0.26,0.9-0.56,1.78-0.84,2.68c-0.14,0.48-0.12,0.54,0.32,0.78
		c1.16,0.68,2.38,1.2,3.66,1.62c1.68,0.58,3.42,0.98,5.18,1.32c2.68,0.52,5.42,0.74,8.14,0.96c1.64,0.12,3.28,0.22,4.92,0.24
		c3.74,0.06,7.48,0.12,11.2-0.06c2.28-0.12,4.54-0.2,6.82-0.44c1.02-0.12,2.04-0.18,3.06-0.34c2-0.32,3.98-0.66,5.92-1.22
		c1.64-0.48,3.24-1.08,4.78-1.88c0.28-0.14,0.6-0.26,0.74-0.64c-0.42-1.38-0.86-2.78-1.34-4.26c0.54-0.38,1.04-0.78,1.6-1.12
		c0.54-0.32,1.12-0.6,1.72-0.82s1.24-0.32,1.9-0.5c-0.1-0.22-0.12-0.4-0.22-0.5C280.69,295.05,280.27,294.61,279.77,294.25z
		 M219.67,295.63c0.56-0.76,1.28-1.16,2.04-1.48c0.74-0.34,1.52-0.6,2.36-0.94c-0.26-1.64-0.68-3.3-0.54-5.12
		c1.8,1.48,3.78,2.18,5.9,2.56c1.06,0.2,2.12,0.38,3.18,0.58c0.3,0.06,0.6,0.22,0.92,0.34c-0.12,0.46-0.3,0.74-0.74,0.78
		c-0.22,0.02-0.42,0.1-0.64,0.1c-1.3,0.06-2.62,0.1-3.92,0.18c-0.66,0.04-1.3,0.16-1.94,0.3c-0.6,0.14-0.92,0.46-1.02,1.16
		c-0.12,0.86-0.48,1.7-0.76,2.54c-0.12,0.38-0.24,0.76-0.38,1.18C222.78,296.79,221.43,295.91,219.67,295.63z M276.85,302.55
		c-0.2,0.12-0.36,0.24-0.54,0.34c-1.94,1-3.98,1.68-6.08,2.12c-1.72,0.36-3.44,0.68-5.18,0.96c-1.14,0.18-2.28,0.22-3.42,0.34
		c-1.8,0.18-3.6,0.22-5.42,0.3c-3.74,0.18-7.5,0.1-11.26,0.08c-1.12-0.02-2.26-0.06-3.38-0.14c-1.34-0.1-2.7-0.24-4.04-0.38
		c-1-0.1-2.02-0.18-3.02-0.3c-0.76-0.1-1.54-0.16-2.28-0.34c-1.74-0.4-3.48-0.78-5.18-1.3c-1.12-0.34-2.2-0.88-3.3-1.36
		c-0.42-0.18-0.46-0.34-0.32-0.8c0.4-1.32,0.82-2.64,1.22-3.96c0.36-1.12,0.7-2.24,1.04-3.36c0.02-0.06,0.08-0.12,0.14-0.22
		c2.72,1.34,5.58,2.02,8.5,2.5c1.58,0.24,3.14,0.44,4.74,0.56c1.58,0.14,3.18,0.2,4.76,0.3c3.82,0.2,7.62,0.12,11.42,0.06
		c1.7-0.02,3.42-0.14,5.12-0.26c2.72-0.2,5.4-0.56,8.06-1.16c1.8-0.4,3.58-0.94,5.26-1.72c0.2-0.08,0.38-0.16,0.64-0.26
		C275.17,297.23,275.99,299.87,276.85,302.55z M276.01,297.79c-0.06-0.12-0.14-0.22-0.18-0.34c-0.28-0.9-0.56-1.8-0.84-2.68
		c-0.06-0.22-0.12-0.46-0.14-0.7c-0.06-0.56-0.32-0.96-0.92-1.08c-0.58-0.14-1.18-0.3-1.78-0.34c-1.36-0.1-2.72-0.12-4.08-0.2
		c-0.26,0-0.5-0.08-0.76-0.1c-0.42-0.04-0.6-0.3-0.74-0.68c0.52-0.46,1.16-0.5,1.78-0.6c1.54-0.24,3.1-0.5,4.58-0.98
		c1.24-0.4,2.38-1,3.4-1.82c0.06-0.06,0.14-0.1,0.3-0.2c-0.02,1.78-0.26,3.46-0.6,5.16c1.6,0.64,3.24,0.96,4.36,2.38
		C278.71,295.93,277.33,296.75,276.01,297.79z"/>
	<path class="st0" d="M276.69,222.34c-1.08,0.14-2.16,0.32-3.28,0.2c-1.16-0.12-2.32-0.3-3.44-0.62c-1.74-0.5-3.44-1.06-5.16-1.62
		c-1.84-0.64-3.7-1.2-5.62-1.54c-1.18-0.22-2.38-0.32-3.56-0.18c-1.86,0.22-3.62,0.8-5.18,1.88c-0.44,0.3-0.42,0.24-0.86,0
		c-0.82-0.46-1.62-0.96-2.5-1.28c-2.02-0.76-4.14-0.8-6.24-0.44c-2.2,0.36-4.3,1.1-6.42,1.82c-1.2,0.4-2.38,0.86-3.6,1.18
		c-1.48,0.4-3,0.76-4.56,0.8c-0.92,0.02-1.82,0-2.72-0.18c-0.54-0.12-1.08-0.26-1.74-0.42v53.33c0,1.92-0.02,3.84,0.26,5.74
		c0.14,0.92,0.36,1.82,0.72,2.64c0.84,1.92,2.34,3.04,4.38,3.48c1.72,0.38,3.44,0.44,5.18,0.54c2.18,0.1,4.36,0.1,6.54,0.18
		c0.86,0.04,1.72,0.14,2.58,0.28c2.72,0.44,5.26,1.36,7.58,2.88c0.32,0.22,0.64,0.42,0.98,0.64c0.6-0.38,1.14-0.72,1.7-1.08
		c1.36-0.84,2.84-1.46,4.38-1.88c2.4-0.7,4.86-0.92,7.36-0.98c1.54-0.06,3.1-0.12,4.64-0.12c1.42-0.02,2.82-0.12,4.2-0.34
		c1.4-0.22,2.66-0.72,3.68-1.74c1.04-1.04,1.52-2.3,1.82-3.68c0.34-1.58,0.42-3.2,0.42-4.82v-52.89c0-0.56,0.02-1.12,0-1.68
		c0-0.16-0.04-0.32-0.08-0.5C277.63,222.08,277.17,222.26,276.69,222.34z M277.63,278.45c0,1.62-0.2,3.26-0.84,4.8
		c-0.68,1.58-1.8,2.6-3.4,3.16c-0.72,0.24-1.46,0.32-2.2,0.4c-2.42,0.28-4.86,0.28-7.3,0.32c-2.52,0.02-5.02,0.22-7.46,0.86
		c-1.96,0.5-3.82,1.28-5.52,2.4c-0.28,0.18-0.56,0.34-0.88,0.54c-0.52-0.32-1-0.6-1.48-0.9c-1.78-1.08-3.72-1.78-5.74-2.22
		c-1.54-0.32-3.1-0.54-4.68-0.58c-1.76-0.04-3.5-0.08-5.26-0.14c-1.74-0.04-3.48-0.14-5.18-0.44c-1.5-0.24-2.82-0.9-3.74-2.16
		c-0.7-0.96-1.1-2.08-1.28-3.24c-0.22-1.32-0.28-2.66-0.28-4V222.9c0.26-0.18,0.48-0.08,0.7-0.02c1.5,0.32,3.02,0.3,4.54,0.12
		c2.36-0.28,4.56-1.06,6.78-1.82c1.82-0.64,3.62-1.26,5.52-1.66c2.42-0.52,4.82-0.64,7.18,0.3c0.88,0.36,1.72,0.76,2.46,1.34
		c0.3,0.24,0.54,0.24,0.82,0.04c0.38-0.24,0.74-0.48,1.14-0.7c2.02-1.16,4.2-1.56,6.5-1.34c1.66,0.18,3.26,0.58,4.86,1.1
		c2.44,0.8,4.86,1.72,7.36,2.34c1.8,0.46,3.62,0.58,5.44,0.48c0.5-0.04,0.98-0.16,1.46-0.24c0.14-0.02,0.28-0.02,0.46-0.04
		c0.02,0.22,0.04,0.44,0.04,0.64C277.65,241.76,277.65,260.11,277.63,278.45z"/>
	<path class="st0" d="M293.05,219.88c-1.2-0.38-2.38-0.54-3.62-0.02c1.36,1.32,2.32,2.8,3.02,4.52c-0.72-0.34-1.44-0.68-2.24-1.06
		c-0.12,2.2,0.7,3.84,2.38,5.04c1.42,1,3.62,1.48,4.46,1c-0.42-0.4-0.84-0.84-1.3-1.24c-0.14-0.14-0.36-0.22-0.56-0.26
		c-1.1-0.24-1.96-0.88-2.8-1.58c-0.06-0.06-0.12-0.16-0.18-0.24c1.1,0.7,2.3,1,3.54,1.18c0.42,1.2,1.36,1.82,2.52,2.38
		c0-0.98,0.04-1.84-0.02-2.7c-0.04-0.86-0.16-1.72-0.24-2.56c0.84,1.58,0.84,3.3,0.98,5.1c0.1-0.16,0.14-0.24,0.18-0.32
		c0.58-1.68,0.74-3.4,0.3-5.12c-0.42-1.64-1.38-2.9-2.96-3.62c-0.14-0.06-0.3-0.08-0.54-0.12c0.04,0.6,0.06,1.12,0.08,1.72
		C295.17,221.02,294.23,220.26,293.05,219.88z M295.87,224c-0.68-0.72-1.32-1.4-1.82-1.92c0.5,0.22,1.14,0.64,1.66,1.24
		C295.83,223.46,295.81,223.74,295.87,224z"/>
	<path class="st0" d="M200.96,229.34c0.22-1.72,0.26-3.46,1.1-5.02c-0.1,0.56-0.22,1.14-0.26,1.72c-0.04,0.58-0.06,1.18-0.04,1.76
		c0.02,0.56-0.1,1.16,0.12,1.76c1.14-0.5,1.98-1.22,2.42-2.34c1.3-0.18,2.5-0.58,3.6-1.26c-0.84,0.9-1.8,1.56-2.98,1.9
		c-0.22,0.06-0.46,0.12-0.64,0.26c-0.44,0.4-0.86,0.84-1.28,1.26c0.3,0.16,0.3,0.18,0.54,0.18c1.32-0.04,2.6-0.32,3.72-1.06
		c1.36-0.9,2.22-2.16,2.52-3.76c0.1-0.46,0.1-0.96-0.02-1.48c-0.7,0.5-1.44,0.84-2.26,1.1c0.02-0.14,0.02-0.2,0.06-0.26
		c0.84-1.48,1.7-2.96,2.98-4.14c-0.72-0.56-2.28-0.56-3.62-0.06c-1.16,0.46-2.12,1.16-3.02,2.22c0.1-0.72,0.22-1.28,0.08-1.86
		c-1.7,0.58-2.78,1.74-3.32,3.4c-0.54,1.68-0.4,3.36,0.06,5.04C200.78,228.92,200.88,229.14,200.96,229.34z M204.44,223.18
		c0.54-0.46,1.06-1,1.8-1.2c0.02-0.02,0.02-0.02,0.04-0.04c0.02-0.02,0.04-0.04,0.04-0.04c0,0.02-0.02,0.04-0.02,0.06
		c-0.02,0-0.04,0.02-0.06,0.02c-0.64,0.66-1.3,1.34-1.98,2.06C204.14,223.66,204.22,223.36,204.44,223.18z"/>
	<path class="st0" d="M286.09,286.72c-0.99,0.15-2,0.25-2.99,0.39c-1.89,0.27-3.17,1.43-3.67,3.84c1.14,0.05,2.17-0.33,3.21-0.66
		c1.04-0.33,2.07-0.69,3.1-1.03c-1.73,1.37-3.79,1.99-5.87,2.61c0.3,0.09,0.6,0.18,0.89,0.17c0.61-0.01,1.22-0.04,1.82-0.11
		c1.97-0.2,3.78-0.8,5.34-2.08c1.04-0.85,1.71-1.91,2.08-3.18c0.08-0.28,0.07-0.58,0.1-0.95c-0.77,0.24-1.38,0.46-2.01,0.61
		C287.43,286.5,286.77,286.62,286.09,286.72z"/>
	<path class="st0" d="M220.17,291.89c-2.16-0.62-4.24-1.33-6.16-2.74c1.17,0.4,2.23,0.76,3.28,1.11c1.08,0.37,2.16,0.71,3.39,0.71
		c-0.2-0.71-0.47-1.29-0.76-1.87c-0.49-0.96-1.29-1.56-2.31-1.8c-0.97-0.23-1.98-0.35-2.97-0.47c-1.42-0.17-2.82-0.42-4.16-0.95
		c-0.14-0.06-0.29-0.09-0.54-0.17c0.04,0.38,0.03,0.68,0.11,0.96c0.35,1.34,1.09,2.43,2.19,3.27c2.11,1.62,4.54,2.13,7.14,2.09
		C219.63,292.03,219.9,291.94,220.17,291.89z"/>
	<path class="st0" d="M296.79,277.38c-0.09,0.03-0.18,0.06-0.26,0.1c-1.1,0.63-2.24,1.17-3.46,1.51c-0.79,0.22-1.57,0.46-2.34,0.74
		c-0.89,0.31-1.71,0.74-2.26,1.57c-0.48,0.73-0.69,1.53-0.78,2.37c-0.02,0.15,0.03,0.3,0.06,0.54c2.13-0.69,3.97-1.78,5.81-2.89
		c-1.43,1.65-3.32,2.62-5.24,3.56c0.02,0.05,0.04,0.1,0.05,0.15c0.39-0.06,0.78-0.09,1.16-0.17c2.28-0.45,4.35-1.31,5.95-3.07
		c0.85-0.93,1.35-2.02,1.5-3.26c0.04-0.37,0.13-0.78-0.07-1.12C296.83,277.39,296.8,277.37,296.79,277.38z"/>
	<path class="st0" d="M211.72,284.97c-1.91-0.99-3.75-1.98-5.18-3.57c0.95,0.49,1.86,1.04,2.81,1.53c0.94,0.49,1.87,1.02,3.01,1.26
		c0-0.29,0.03-0.5,0-0.69c-0.06-0.37-0.16-0.73-0.25-1.09c-0.21-0.83-0.67-1.48-1.37-1.97c-0.78-0.55-1.69-0.8-2.59-1.07
		c-1.64-0.49-3.27-1.01-4.74-1.94c-0.07-0.05-0.17-0.07-0.4-0.17c0.05,0.65,0.03,1.2,0.14,1.72c0.37,1.8,1.45,3.13,2.92,4.15
		c1.54,1.06,3.27,1.6,5.1,1.88C211.34,285.02,211.53,284.97,211.72,284.97z"/>
	<path class="st0" d="M301.57,267.69c-0.96,0.66-1.84,1.31-2.77,1.89c-0.8,0.49-1.64,0.89-2.47,1.32c-0.65,0.34-1.25,0.75-1.69,1.34
		c-0.75,1.01-0.76,2.18-0.69,3.36c0,0.06,0.07,0.11,0.14,0.2c0.21-0.1,0.42-0.19,0.62-0.31c1.02-0.63,1.99-1.32,2.89-2.12
		c0.5-0.45,1-0.88,1.5-1.32c-0.05,0.12-0.08,0.24-0.15,0.35c-0.65,0.99-1.45,1.84-2.37,2.57c-0.45,0.36-0.94,0.67-1.41,1
		c-0.1,0.14-0.19,0.28-0.29,0.42c-0.02,0.01-0.04,0.01-0.06,0.03c-0.01,0.01-0.01,0.03-0.01,0.04c0.02-0.02,0.05-0.04,0.07-0.06
		c0.3-0.06,0.61-0.07,0.88-0.18c0.69-0.29,1.39-0.58,2.03-0.95c1.38-0.8,2.56-1.82,3.34-3.24c0.66-1.21,0.96-2.49,0.65-3.86
		C301.75,267.98,301.73,267.75,301.57,267.69z M299.16,272c-0.01,0.01-0.02,0.01-0.02,0.01c0.01-0.02,0.02-0.03,0.04-0.05
		C299.16,271.97,299.16,271.99,299.16,272z"/>
	<path class="st0" d="M204.96,276.14c-1.11-0.76-2.1-1.65-3.02-2.62c-0.41-0.43-0.78-0.9-0.99-1.47c0.07,0.05,0.14,0.09,0.2,0.15
		c1.07,1.06,2.24,2,3.46,2.87c0.43,0.3,0.86,0.61,1.43,0.72c0.04-0.21,0.08-0.36,0.09-0.52c0.06-1.96-0.37-3.26-2.24-4.23
		c-0.62-0.32-1.24-0.67-1.86-1c-1.21-0.63-2.36-1.34-3.35-2.29c-0.04-0.04-0.12-0.05-0.19-0.07c-0.25,0.38-0.42,1.24-0.37,1.82
		c0.14,1.72,0.94,3.12,2.14,4.31c0.74,0.73,1.59,1.32,2.51,1.79c0.78,0.4,1.6,0.74,2.5,0.86
		C205.19,276.3,205.07,276.22,204.96,276.14z M200.9,271.98c0.01,0.01,0.01,0.01,0.01,0.02c-0.02-0.01-0.03-0.02-0.05-0.04
		C200.88,271.96,200.89,271.97,200.9,271.98z"/>
	<path class="st0" d="M304.31,257.78c-0.47,0.54-0.83,1.07-1.29,1.49c-1.06,0.95-2.17,1.85-3.26,2.76c-0.68,0.56-1.29,1.2-1.43,2.09
		c-0.09,0.59-0.05,1.21,0.01,1.81c0.04,0.34-0.01,0.76,0.42,1.06c0.16-0.14,0.35-0.27,0.51-0.42c1.2-1.15,2.34-2.36,3.26-3.76
		c0.06-0.08,0.15-0.14,0.23-0.21c-0.09,0.27-0.16,0.56-0.29,0.81c-0.25,0.47-0.51,0.94-0.81,1.37c-0.58,0.83-1.18,1.65-1.98,2.3
		c0,0-0.01,0-0.01,0c0,0,0,0,0,0.01l0.01-0.01c-0.09,0.09-0.19,0.19-0.28,0.28c0.09,0.03,0.22,0.11,0.28,0.08
		c0.44-0.23,0.87-0.45,1.28-0.72c1.5-0.98,2.73-2.21,3.49-3.85c0.69-1.49,0.82-3.01,0.17-4.56
		C304.55,258.14,304.43,257.98,304.31,257.78z"/>
	<path class="st0" d="M200.29,267.42c0.14,0.08,0.26,0.1,0.35-0.06c-0.46-0.48-0.93-0.96-1.39-1.45c-0.76-0.81-1.31-1.77-1.81-2.75
		c-0.09-0.17-0.11-0.38-0.17-0.57c0.08,0.07,0.18,0.13,0.23,0.21c0.93,1.36,2.02,2.58,3.21,3.71c0.19,0.18,0.35,0.46,0.74,0.39
		c0.1-0.35,0.23-0.7,0.29-1.06c0.2-1.32,0-2.53-1.06-3.46c-0.61-0.54-1.24-1.08-1.89-1.56c-0.97-0.71-1.84-1.52-2.58-2.47
		c-0.14-0.17-0.31-0.32-0.46-0.47c-0.1,0.06-0.16,0.08-0.18,0.11c-0.06,0.1-0.11,0.21-0.15,0.31c-0.71,1.71-0.49,3.34,0.36,4.93
		c0.73,1.37,1.81,2.44,3.06,3.33C199.29,266.91,199.8,267.14,200.29,267.42z M197.25,262.54
		C197.23,262.5,197.21,262.48,197.25,262.54C197.24,262.47,197.24,262.5,197.25,262.54z"/>
	<path class="st0" d="M197.82,257.34c-0.05-0.19-0.09-0.37-0.14-0.56c-0.08-0.07-0.19-0.13-0.24-0.22
		c-0.46-0.86-0.95-1.72-1.33-2.61c-0.22-0.52-0.44-1.07-0.39-1.66c0.07,0.08,0.16,0.16,0.2,0.25c0.55,1.27,1.29,2.45,2.03,3.61
		c0.23,0.36,0.45,0.76,0.95,0.91c0.18-0.42,0.35-0.8,0.51-1.19c0.39-0.94,0.37-1.86-0.1-2.78c-0.34-0.66-0.84-1.18-1.32-1.72
		c-1.02-1.16-2.04-2.33-2.7-3.75c-0.04-0.09-0.14-0.16-0.28-0.33c-0.09,0.14-0.15,0.24-0.22,0.34c-0.07,0.1-0.15,0.18-0.21,0.28
		c-0.7,1.16-0.88,2.41-0.67,3.73c0.33,2.03,1.47,3.62,2.9,5.01C197.1,256.91,197.36,257.3,197.82,257.34z M195.68,252.08
		c0.01,0.06,0.02,0.12,0.03,0.17c-0.03-0.05-0.06-0.1-0.09-0.14C195.64,252.1,195.66,252.09,195.68,252.08z"/>
	<path class="st0" d="M195.71,246.19c0.3,0.54,0.69,1.01,1.22,1.42c0.02-0.14,0.03-0.21,0.04-0.28c0.09,0.16,0.2,0.31,0.26,0.47
		c0.26,0.7,0.5,1.4,0.76,2.1c0.06,0.17,0.09,0.4,0.43,0.46c-0.05-0.56-0.11-1.07-0.12-1.58c-0.01-0.49,0.04-0.98,0.07-1.46
		c-0.04,0-0.07-0.01-0.11-0.01c-0.12,0.35-0.23,0.7-0.36,1.08c-0.33-0.57-0.63-1.08-0.92-1.59c0,0.18,0,0.37,0,0.55
		c-0.12-0.22-0.29-0.42-0.37-0.65c-0.25-0.78-0.48-1.57-0.69-2.36c-0.09-0.36-0.14-0.74-0.17-1.11c-0.03-0.37-0.01-0.75-0.01-1.12
		c0.53,1.85,1.04,3.69,2.05,5.41c0.64-0.63,1.03-1.31,1.28-2.07c0.28-0.84,0.17-1.67-0.26-2.44c-0.26-0.47-0.5-0.96-0.79-1.41
		c-0.76-1.17-1.35-2.41-1.74-3.74c-0.04-0.12-0.13-0.22-0.23-0.4c-0.28,0.3-0.55,0.54-0.76,0.81c-1.36,1.77-1.35,3.73-0.7,5.73
		C194.87,244.76,195.31,245.47,195.71,246.19z"/>
	<path class="st0" d="M301.44,242.56c-0.79,1.35-0.84,2.69,0.06,4.01c0.13,0.19,0.19,0.41,0.29,0.62c0.14,0.07,0.27,0.13,0.45,0.21
		c0.62-0.75,0.87-1.69,1.2-2.57c0.33-0.89,0.55-1.82,0.81-2.73c0.11,1.56-0.26,3.02-0.79,4.45c-0.11,0.29-0.17,0.61-0.25,0.91
		c0.2-0.18,0.44-0.34,0.6-0.55c0.8-1.05,1.46-2.18,1.78-3.47c0.35-1.44,0.4-2.87-0.27-4.24c-0.32-0.66-0.73-1.28-1.43-1.73
		c-0.1,0.25-0.17,0.44-0.24,0.64c-0.23,0.61-0.41,1.25-0.7,1.83C302.47,240.83,301.95,241.69,301.44,242.56z"/>
	<path class="st0" d="M215.41,280.26c-0.04,0.43-0.03,0.43,0.05,0.66c0.43,1.17,0.56,2.36,0.33,3.59c-0.11,0.62-0.02,1.21,0.21,1.79
		c0.1,0.26,0.25,0.39,0.52,0.38c0.6-0.02,1.16,0.1,1.72,0.3c0.07,0.03,0.17-0.02,0.34-0.04c-0.03-0.46-0.04-0.9-0.07-1.34
		c-0.07-0.89-0.36-1.72-0.64-2.56c0.09,0.07,0.2,0.12,0.25,0.21c0.72,1.24,1.36,2.52,1.31,4.01c-0.01,0.18,0.01,0.39,0.1,0.53
		c0.4,0.65,0.84,1.28,1.25,1.91c0.81-1.25,0.83-3.72-0.15-5.61C219.53,281.98,217.8,280.68,215.41,280.26z M217.84,282.98
		c0,0.01,0,0.02,0.01,0.02c-0.01-0.01-0.02-0.03-0.04-0.04C217.82,282.97,217.83,282.97,217.84,282.98z"/>
	<path class="st0" d="M284.75,280.24c-2.18,0.36-3.8,1.4-4.93,3.15c-1.27,1.99-1.52,4.12-0.61,6.4c0.47-0.73,0.9-1.39,1.3-2.06
		c0.08-0.13,0.1-0.32,0.09-0.47c-0.04-0.99,0.24-1.91,0.64-2.78c0.24-0.51,0.44-1.06,0.91-1.42c-0.08,0.26-0.17,0.51-0.25,0.77
		c-0.27,0.88-0.45,1.77-0.44,2.69c0,0.15,0.06,0.3,0.09,0.45c0.69-0.11,1.34-0.22,1.98-0.32c0.29-0.05,0.44-0.24,0.54-0.49
		c0.2-0.51,0.27-1.05,0.17-1.59c-0.18-1.03-0.17-2.05,0.15-3.06C284.52,281.13,284.61,280.75,284.75,280.24z M282.22,282.99
		c-0.01,0.01-0.01,0.01-0.02,0.01c0.01-0.02,0.02-0.03,0.03-0.05C282.23,282.97,282.23,282.99,282.22,282.99z"/>
	<path class="st0" d="M299.16,235.46c0.1,1.25,0.81,2.16,1.85,2.82c0.03,0.02,0.09-0.02,0.18-0.04c0.56-1.72,0.75-3.51,0.81-5.33
		c0.58,1.8,0.23,3.6,0.03,5.46c0.15-0.24,0.31-0.46,0.44-0.71c0.59-1.18,1-2.41,1.06-3.75c0.07-1.35-0.14-2.61-0.89-3.74
		c-0.45-0.69-1-1.28-1.89-1.59c-0.04,0.25-0.07,0.45-0.1,0.64c-0.08,0.51-0.11,1.03-0.25,1.52c-0.31,1.1-0.7,2.18-1.02,3.28
		C299.26,234.48,299.12,234.99,299.16,235.46z"/>
	<path class="st0" d="M197.7,237.89c0.09,0.17,0.22,0.31,0.33,0.46c0.06-0.18,0.04-0.31,0.02-0.45c-0.18-1.09-0.37-2.17-0.33-3.28
		c0.02-0.67,0.15-1.28,0.37-1.7c-0.04,1.64,0.25,3.21,0.58,4.76c0.05,0.25,0.07,0.52,0.45,0.65c0.32-0.33,0.66-0.68,0.99-1.04
		c0.54-0.58,0.78-1.26,0.74-2.06c-0.03-0.5-0.07-0.98-0.26-1.45c-0.16-0.41-0.29-0.84-0.43-1.27c-0.37-1.16-0.81-2.31-0.8-3.55
		c0-0.12-0.09-0.25-0.17-0.45c-1.3,0.8-2.15,1.81-2.49,3.21c-0.2,0.82-0.27,1.64-0.18,2.5C196.64,235.56,197.1,236.74,197.7,237.89z
		"/>
	<path class="st0" d="M286.55,276.98c-0.78,2.11-0.55,4.13,0.73,6.15c0.23-0.67,0.35-1.23,0.6-1.73c0.23-0.45,0.27-0.88,0.19-1.36
		c-0.22-1.17,0.08-2.87,0.71-3.93c-0.04,0.62-0.09,1.25-0.12,1.88c-0.03,0.65,0.02,1.3,0.28,1.94c0.12-0.01,0.22,0.01,0.3-0.02
		c0.53-0.19,1.05-0.39,1.58-0.58c0.28-0.1,0.39-0.31,0.41-0.59c0.04-0.57,0.03-1.12-0.18-1.66c-0.22-0.57-0.42-1.15-0.4-1.77
		c0.02-0.74,0.04-1.48,0.07-2.23C289.48,273.11,287.36,274.8,286.55,276.98z"/>
	<path class="st0" d="M209.33,273.08c-0.02,0.04-0.06,0.09-0.05,0.12c0.24,1.39,0.18,2.75-0.34,4.08c-0.24,0.61-0.17,1.24-0.06,1.85
		c0.62,0.31,1.95,0.75,2.27,0.74c0.35-1.21,0.26-2.44,0.11-3.82c0.65,1.33,0.95,2.59,0.76,3.9c-0.09,0.62-0.02,1.14,0.22,1.68
		c0.19,0.44,0.33,0.9,0.5,1.37c0.97-0.96,1.59-3.84,0.79-5.96C212.82,275.18,210.73,273.16,209.33,273.08z"/>
	<path class="st0" d="M291.51,269.67c-0.21,2,0.67,4.05,1.95,5.1c0.03-0.13,0.06-0.23,0.07-0.34c0.07-0.48,0.1-0.97,0.22-1.44
		c0.09-0.34,0.09-0.61-0.05-0.94c-0.5-1.18-0.54-3.04-0.14-4.13c0.15,1.93,0.31,2.58,0.89,3.65c0.6-0.34,1.21-0.67,1.8-1.03
		c0.1-0.06,0.16-0.23,0.17-0.36c0.01-0.23,0.01-0.48-0.07-0.69c-0.18-0.48-0.38-0.96-0.64-1.4c-0.4-0.66-0.6-1.36-0.7-2.11
		c-0.05-0.46-0.12-0.91-0.2-1.45C292.83,265.73,291.74,267.44,291.51,269.67z"/>
	<path class="st0" d="M208.35,268.68c-0.45-1.9-1.91-3.73-3.17-4.01c-0.01,0.09-0.03,0.18-0.03,0.27c-0.03,1.17-0.29,2.27-0.9,3.28
		c-0.16,0.26-0.32,0.53-0.41,0.82c-0.11,0.37-0.17,0.77-0.21,1.16c-0.01,0.11,0.09,0.28,0.19,0.34c0.57,0.35,1.15,0.67,1.73,1
		c0.53-0.73,0.54-0.77,0.98-3.78c0.26,1.36,0.37,2.59-0.02,3.8c-0.2,0.61-0.37,1.16-0.1,1.81c0.13,0.33,0.06,0.74,0.1,1.11
		c0.01,0.1,0.06,0.2,0.11,0.41C208.27,273.05,208.91,271.02,208.35,268.68z"/>
	<path class="st0" d="M299.52,261.76c0.32-0.22,0.35-0.48,0.29-0.79c-0.09-0.52-0.4-0.93-0.73-1.34c-0.34-0.41-0.7-0.83-0.94-1.3
		c-0.34-0.66-0.57-1.37-0.87-2.1c-1.14,0.47-2.13,2.46-2.22,4.2c-0.13,2.43,0.89,4.32,2.88,5.77c-0.03-0.69-0.07-1.32-0.07-1.94
		c0-0.3-0.07-0.53-0.23-0.78c-0.77-1.23-1.05-2.59-0.97-4.04c0.35,1.23,0.68,2.46,1.62,3.43
		C298.71,262.47,299.08,262.07,299.52,261.76z"/>
	<path class="st0" d="M202.25,263.86c-0.2,0.62-0.11,1.34-0.14,2.02c0,0.04,0.01,0.09,0.02,0.2c1.01-0.27,2.76-2.51,2.9-4.77
		c0.13-2.04-0.95-4.44-2.26-5.07c-0.04,0.05-0.1,0.1-0.12,0.16c-0.31,1.33-0.9,2.5-1.87,3.49c-0.42,0.43-0.69,1.01-0.56,1.6
		c0.55,0.5,1.05,0.94,1.57,1.42c0.88-1.03,1.25-2.23,1.59-3.45c0.13,0.92-0.06,1.79-0.31,2.65
		C202.9,262.73,202.44,263.26,202.25,263.86z"/>
	<path class="st0" d="M300.11,253.22c0.44-0.58,0.84-1.12,1.25-1.67c-0.14-0.6-0.49-1.08-0.97-1.42c-1-0.72-1.74-1.62-2.26-2.73
		c-0.07-0.16-0.2-0.29-0.31-0.45c-2.91,3.57-0.61,8.43,2.52,9.42c-0.13-0.65-0.26-1.31-0.41-1.97c-0.03-0.13-0.14-0.24-0.22-0.35
		c-0.3-0.39-0.62-0.76-0.89-1.17c-0.5-0.74-0.88-1.94-0.88-2.58c0.29,0.51,0.57,1.09,0.93,1.6
		C299.21,252.4,299.54,252.95,300.11,253.22z"/>
	<path class="st0" d="M200.09,254.55c-0.13,0.47-0.22,0.95-0.33,1.43c-0.03,0.14-0.06,0.29-0.1,0.48c4.24-1.85,4.84-6.89,2.54-9.51
		c-0.06,0.04-0.09,0.05-0.1,0.07c-0.05,0.08-0.11,0.16-0.14,0.24c-0.52,1.19-1.29,2.16-2.36,2.91c-0.5,0.34-0.83,0.83-0.89,1.42
		c0.42,0.55,0.82,1.09,1.26,1.67c0.99-0.8,1.59-1.89,2.16-3c-0.2,1.44-0.75,2.7-1.75,3.75
		C200.25,254.15,200.15,254.36,200.09,254.55z"/>
	<path class="st0" d="M200.09,244.66c-0.16,0.12-0.36,0.25-0.45,0.43c-0.28,0.58-0.52,1.17-0.77,1.76c1.25,0.17,3.52-1.59,4.35-3.41
		c0.76-1.65,0.72-3.87-0.28-5.02c-0.12,0.14-0.24,0.28-0.35,0.42c-0.67,0.87-1.45,1.58-2.48,2.01c-0.48,0.2-0.87,0.53-1.15,1
		c-0.14,0.23-0.17,0.4-0.04,0.64c0.26,0.46,0.49,0.94,0.74,1.41c0.75-0.22,1.4-0.81,2.64-2.43c0,0.1,0.02,0.18,0,0.23
		C201.81,242.87,201.11,243.88,200.09,244.66z"/>
	<path class="st0" d="M298.67,240.06c-0.57-0.51-1.08-1.08-1.68-1.68c-0.06,0.09-0.14,0.18-0.18,0.28c-0.48,1.1-0.67,2.23-0.41,3.42
		c0.54,2.47,2.08,4.02,4.44,4.81c0.1,0.03,0.24-0.03,0.31-0.04c-0.23-0.58-0.44-1.12-0.67-1.64c-0.07-0.16-0.21-0.3-0.34-0.43
		c-0.45-0.44-0.96-0.82-1.36-1.3c-0.45-0.54-0.85-1.13-0.99-1.85c0.72,0.92,1.49,1.77,2.55,2.32c0.26-0.52,0.49-0.98,0.73-1.43
		c0.21-0.38,0.2-0.46-0.06-0.81c-0.34-0.44-0.81-0.7-1.28-0.97C299.37,240.53,298.98,240.34,298.67,240.06z"/>
	<path class="st0" d="M202.07,235.83c-0.62,0.32-1.12,0.7-1.44,1.34c-0.15,0.29-0.42,0.52-0.68,0.84c0.17,0.02,0.26,0.04,0.36,0.04
		c0.75,0.01,1.42-0.26,2.09-0.55c1.01-0.44,1.85-1.12,2.47-2.02c0.85-1.22,1.19-2.59,1.01-4.07c-0.03-0.27-0.05-0.56-0.34-0.76
		c-0.1,0.08-0.19,0.15-0.27,0.22c-0.84,0.73-1.77,1.3-2.85,1.61c-0.36,0.1-0.71,0.26-1.02,0.45c-0.22,0.14-0.39,0.37-0.54,0.51
		c0.19,0.7,0.36,1.29,0.54,1.94c0.3-0.13,0.53-0.24,0.76-0.34c0.82-0.37,1.5-0.92,2.15-1.52c-0.02,0.08-0.02,0.18-0.06,0.24
		C203.63,234.59,202.98,235.37,202.07,235.83z"/>
	<path class="st0" d="M294.39,230.61c-0.69,2.15,0.06,4.25,1.41,5.59c1.22,1.21,3.22,2.03,4.21,1.73c-0.27-0.37-0.56-0.74-0.81-1.12
		c-0.21-0.31-0.41-0.58-0.79-0.74c-0.46-0.2-0.9-0.5-1.28-0.84c-0.54-0.49-1.14-0.95-1.38-1.69c0.37,0.31,0.72,0.64,1.12,0.91
		c0.55,0.37,1.09,0.76,1.77,0.87c0.14-0.48,0.26-0.91,0.39-1.33c0.15-0.5,0.1-0.74-0.32-1.02c-0.27-0.18-0.57-0.34-0.87-0.42
		c-1.16-0.31-2.17-0.85-3.03-1.69C294.69,230.75,294.53,230.69,294.39,230.61z M295.69,233.46c0.01,0.01,0.01,0.02,0.01,0.02
		c-0.02-0.01-0.03-0.02-0.05-0.04C295.67,233.46,295.68,233.46,295.69,233.46z"/>
	<path class="st0" d="M210.76,284.03c-0.01,0.03-0.03,0.07-0.04,0.1c0.47,0.25,0.93,0.51,1.4,0.75c0.48,0.24,0.96,0.51,1.46,0.7
		c0.48,0.18,0.85,0.63,1.58,0.61c-0.86-0.86-1.61-1.62-2.47-2.5c0.02,0.56,0.41,0.81,0.51,1.24c-0.44-0.17-0.83-0.32-1.21-0.46
		C211.58,284.32,211.17,284.18,210.76,284.03z"/>
	<path class="st0" d="M285.07,286.2c0.73-0.28,1.43-0.6,2.1-0.95c0.67-0.35,1.41-0.61,1.97-1.16c-0.21,0.03-0.4,0.12-0.59,0.19
		c-0.57,0.2-1.14,0.38-1.7,0.57c0.11-0.37,0.52-0.61,0.49-1.16c-0.46,0.48-0.84,0.89-1.22,1.29
		C285.74,285.37,285.25,285.64,285.07,286.2z M286.79,284.88c0.01-0.01,0.02-0.01,0.02-0.01c-0.01,0.01-0.02,0.03-0.04,0.04
		C286.78,284.91,286.78,284.89,286.79,284.88z"/>
	<path class="st0" d="M295.15,275.98C295.15,275.98,295.15,275.98,295.15,275.98C295.15,275.98,295.16,275.98,295.15,275.98
		c0.01,0,0.01-0.01,0.01-0.01C295.16,275.97,295.16,275.97,295.15,275.98z"/>
	<path class="st0" d="M200.65,267.37C200.65,267.37,200.65,267.36,200.65,267.37c-0.01-0.01-0.01-0.01-0.01-0.01
		C200.65,267.37,200.65,267.37,200.65,267.37C200.65,267.37,200.65,267.37,200.65,267.37z"/>
	<path class="st0" d="M203.06,269.76c-0.08-0.65-0.4-1.1-0.6-1.58c-0.2-0.48-0.4-0.95-0.6-1.42c-0.03,0.01-0.07,0.02-0.1,0.03
		c0.03,0.35,0.07,0.71,0.11,1.14c-0.33-0.27-0.61-0.48-0.86-0.72c-0.52-0.48-0.51-0.49-0.8-0.57c0.14,0.23,0.3,0.48,0.45,0.74
		c0.36,0.36,0.73,0.71,1.09,1.07C202.14,268.87,202.48,269.36,203.06,269.76z"/>
	<path class="st0" d="M205.04,275.81c-0.06-0.27-0.27-0.31-0.54-0.27c0.17,0.1,0.33,0.21,0.5,0.31c0.04,0.06,0.06,0.13,0.11,0.17
		c0.92,0.72,1.85,1.43,2.78,2.14c0.07,0.05,0.2,0.03,0.41,0.05c-0.65-0.93-1.23-1.77-1.81-2.61c-0.04,0.01-0.07,0.03-0.11,0.04
		c0.09,0.32,0.18,0.63,0.29,1.03c-0.32-0.18-0.57-0.34-0.83-0.48C205.59,276.06,205.31,275.94,205.04,275.81z"/>
	<path class="st0" d="M299.39,267.37C299.39,267.37,299.39,267.37,299.39,267.37c0,0,0.01,0,0.01-0.01L299.39,267.37
		C299.39,267.36,299.39,267.37,299.39,267.37z"/>
	<path class="st0" d="M299.67,267.08c0.04-0.18,0.09-0.36,0.13-0.54c-0.29,0.26-0.59,0.51-0.88,0.77c-0.23,0.21-0.46,0.4-0.79,0.58
		c0.02-0.43,0.27-0.77,0.07-1.14c-0.39,0.85-0.78,1.67-1.15,2.5c-0.05,0.12-0.02,0.28-0.03,0.42c0.41-0.28,0.69-0.62,1-0.94
		c0.45-0.46,0.8-1.02,1.37-1.37C299.39,267.18,299.49,267.09,299.67,267.08z"/>
	<path class="st0" d="M221.63,291.6c-0.84-0.14-1.63-0.28-2.42-0.42c1.27,0.55,2.54,1.02,3.91,1.25c-0.67-0.77-1.54-1.28-2.27-2.11
		C220.89,290.97,221.41,291.16,221.63,291.6z"/>
	<path class="st0" d="M302.32,256.41c0.01-0.01,0.02-0.03,0.03-0.04l-0.01-0.01C302.34,256.38,302.33,256.39,302.32,256.41z"/>
	<path class="st0" d="M300.72,256.98c-0.1,0.54-0.19,1.02-0.27,1.51c-0.08,0.46-0.33,0.89-0.25,1.5c0.17-0.21,0.29-0.32,0.37-0.45
		c0.4-0.63,0.81-1.26,1.18-1.91c0.22-0.39,0.39-0.8,0.57-1.21c-0.43,0.52-0.86,1.04-1.31,1.58
		C300.84,257.68,301.1,257.25,300.72,256.98z"/>
	<path class="st0" d="M277.24,292.43c1.17-0.37,2.35-0.72,3.52-1.09c0.05-0.02,0.09-0.08,0.13-0.13c-0.23,0.02-0.45,0.02-0.67,0.06
		c-0.59,0.09-1.18,0.2-1.93,0.34c0.26-0.25,0.41-0.38,0.55-0.51c0.16-0.16,0.31-0.32,0.32-0.64c-0.82,0.66-1.57,1.27-2.33,1.88
		C276.93,292.52,277.08,292.48,277.24,292.43z"/>
	<path class="st0" d="M276.82,292.34c0,0,0.01-0.01,0.01-0.01c0,0,0,0,0,0L276.82,292.34z"/>
	<path class="st0" d="M198.19,257.43c0.46,0.73,0.89,1.48,1.35,2.22c0.06,0.1,0.18,0.16,0.28,0.24c0.03-0.39-0.05-0.72-0.13-1.05
		c-0.08-0.32-0.17-0.63-0.22-0.95c-0.06-0.32-0.08-0.64-0.12-0.97c-0.03,0-0.07,0-0.1,0c-0.07,0.35-0.14,0.7-0.22,1.09
		c-0.08-0.09-0.14-0.16-0.2-0.23c-0.38-0.47-0.75-0.93-1.13-1.4c0,0.14,0,0.27,0,0.41l-0.01-0.01c0,0,0,0,0,0c0,0,0,0,0.01,0.01
		C197.85,257,198.04,257.2,198.19,257.43z"/>
	<path class="st0" d="M301.67,247.85c0,0.32,0.01,0.65,0.01,0.97c-0.01,0.4-0.03,0.8-0.03,1.19c0,0.09,0.07,0.18,0.13,0.32
		c0.58-1.07,1.34-3.23,1.34-3.8c-0.33,0.65-0.64,1.25-0.99,1.92c-0.12-0.46-0.23-0.85-0.34-1.24
		C301.57,247.39,301.67,247.63,301.67,247.85z"/>
	<path class="st0" d="M301.79,247.21C301.79,247.2,301.79,247.2,301.79,247.21c0-0.01,0-0.01,0-0.01c0,0-0.01,0-0.01,0
		C301.78,247.19,301.79,247.2,301.79,247.21z"/>
	<path class="st0" d="M301.87,237.11c-0.23,0.74-0.45,1.43-0.7,2.22c-0.1-0.26-0.15-0.42-0.23-0.56c-0.09-0.15-0.2-0.28-0.3-0.42
		c-0.03,0.01-0.05,0.03-0.08,0.04c0.11,0.47,0.25,0.93,0.33,1.41c0.08,0.46,0.11,0.93,0.28,1.44
		C301.46,240.66,301.91,237.95,301.87,237.11z"/>
	<path class="st0" d="M199.36,238.35c-0.17,0.28-0.34,0.56-0.53,0.9c-0.12-0.37-0.22-0.7-0.33-1.03c-0.07-0.21-0.16-0.4-0.25-0.61
		c-0.04,0.91,0.34,3.14,0.64,3.62c0.19-0.98,0.37-1.91,0.55-2.84C199.42,238.38,199.39,238.37,199.36,238.35z"/>
	<path class="st0" d="M298.75,232.24c0.18-0.77,0.11-2.68-0.23-4.1c0,0.74,0,1.47,0,2.25c-0.41-0.12-0.33-0.66-0.8-0.63
		c0.25,0.64,0.49,1.26,0.73,1.88C298.53,231.83,298.63,232.01,298.75,232.24z"/>
	<path class="st0" d="M202.27,229.68c-0.21,0.21-0.41,0.43-0.7,0.73c-0.04-0.68-0.07-1.27-0.1-1.87c-0.02,0-0.04,0-0.06-0.01
		c-0.06,0.28-0.14,0.57-0.17,0.85c-0.03,0.32-0.03,0.65-0.03,0.98c-0.01,0.3-0.02,0.61-0.01,0.91c0.01,0.3-0.08,0.61,0.11,1.01
		c0.38-0.92,0.71-1.74,1.04-2.55C202.32,229.72,202.3,229.7,202.27,229.68z"/>
	<path class="st0" d="M198.25,237.59c0,0,0,0.01,0,0.01c0,0,0,0.01,0.01,0.01C198.25,237.61,198.25,237.61,198.25,237.59
		C198.25,237.6,198.25,237.6,198.25,237.59z"/>
	<path class="st0" d="M198.25,237.59c-0.01-0.15-0.01-0.3-0.02-0.45C198.13,237.3,198.05,237.47,198.25,237.59z"/>
	<path class="st0" d="M196.87,246.61c0.03,0.06,0.07,0.11,0.1,0.16c0,0.01,0.01,0.01,0.01,0.02c0-0.01,0-0.02,0-0.02
		C196.95,246.72,196.91,246.67,196.87,246.61z"/>
	<path class="st0" d="M281.07,291.11c-0.05,0.03-0.11,0.06-0.16,0.09c0,0-0.01,0.01-0.01,0.01c0.01,0,0.01,0,0.02,0
		C280.97,291.18,281.02,291.14,281.07,291.11z"/>
	<path class="st0" d="M295.32,275.54c-0.01,0-0.02,0.01-0.02,0.01c-0.03,0.04-0.07,0.07-0.1,0.11c0.04-0.03,0.07-0.07,0.11-0.1
		C295.31,275.55,295.32,275.54,295.32,275.54z"/>
	<path class="st0" d="M295.37,275.49c-0.02,0.02-0.04,0.03-0.05,0.05c0.01,0,0.02,0,0.03-0.01
		C295.37,275.52,295.37,275.5,295.37,275.49z"/>
	<path class="st0" d="M295.19,275.65c-0.01,0.01-0.03,0.02-0.04,0.03c-0.23,0.11-0.46,0.21-0.68,0.32c-0.37,0.18-0.68,0.5-1.06,0.58
		c0.07-0.37,0.13-0.7,0.19-1.03c-0.04,0.01-0.09,0.02-0.11,0.05c-0.54,0.79-1.07,1.57-1.59,2.36c-0.04,0.06-0.01,0.15-0.02,0.3
		c0.19-0.11,0.32-0.16,0.43-0.24c0.63-0.47,1.25-0.96,1.89-1.43c0.31-0.23,0.64-0.42,0.96-0.62c0-0.09,0.01-0.19,0.01-0.28
		C295.17,275.68,295.18,275.67,295.19,275.65z"/>
	<path class="st0" d="M293.67,275.49c-0.02,0.02-0.03,0.03-0.05,0.05c0.01,0,0.02,0,0.03-0.01
		C293.67,275.52,293.67,275.5,293.67,275.49z"/>
	<path class="st0" d="M293.63,275.54c-0.01,0-0.01,0.01-0.02,0.01c0,0,0,0.01,0,0.01c0,0,0.01,0,0.01,0
		C293.62,275.55,293.62,275.54,293.63,275.54z"/>
	<path class="st0" d="M303.13,247.55c0.02-0.02,0.04-0.04,0.06-0.06c-0.02,0-0.03,0.01-0.04,0.01
		C303.13,247.51,303.13,247.53,303.13,247.55z"/>
	<path class="st0" d="M303.19,247.49c0.01,0,0.01,0,0.02-0.01c0-0.01,0-0.01,0-0.02c0,0-0.01,0.01-0.01,0.01
		C303.19,247.48,303.19,247.48,303.19,247.49z"/>
	<path class="st0" d="M197.67,256.34c0,0.01,0.01,0.02,0.01,0.03c0,0,0.01,0.01,0.01,0.01c0-0.01,0-0.01,0-0.02
		C197.69,256.35,197.68,256.35,197.67,256.34z"/>
	<path class="st0" d="M197.62,256.3c0.02,0.01,0.03,0.03,0.05,0.04c0-0.01,0-0.02-0.01-0.03
		C197.65,256.31,197.64,256.31,197.62,256.3z"/>
	<path class="st0" d="M299.83,266.51c-0.01,0-0.02,0.01-0.02,0.01c0,0.01,0,0.02-0.01,0.02c0,0,0.01-0.01,0.01-0.01
		C299.82,266.52,299.83,266.52,299.83,266.51z"/>
	<path class="st0" d="M299.89,266.46c-0.02,0.02-0.04,0.04-0.05,0.05c0.01,0,0.03,0,0.04-0.01
		C299.88,266.49,299.88,266.47,299.89,266.46z"/>
	<path class="st0" d="M302.35,256.36L302.35,256.36c0.01,0,0.02,0,0.03-0.01C302.36,256.35,302.36,256.36,302.35,256.36z"/>
	<path class="st0" d="M302.41,256.3c-0.01,0.02-0.03,0.03-0.04,0.05c0.01,0,0.02,0,0.02-0.01
		C302.41,256.34,302.41,256.32,302.41,256.3z"/>
	<path class="st0" d="M197.9,257.42c-0.02-0.02-0.04-0.03-0.05-0.05c0,0.01,0.01,0.02,0.01,0.03
		C197.86,257.42,197.88,257.42,197.9,257.42z"/>
	<path class="st0" d="M197.84,257.37c0-0.01-0.01-0.02-0.01-0.02c0,0-0.01,0-0.01,0c0,0,0,0.01,0,0.01
		C197.83,257.36,197.84,257.37,197.84,257.37z"/>
	<path class="st0" d="M250.01,100l-99.18,150l99.18,150l99.16-150L250.01,100z M158.08,250l91.93-139.04L341.92,250l-91.91,139.04
		L158.08,250z"/>
	<path class="st0" d="M176.8,250.42l73.25,110.75l73.23-110.75l-73.23-110.75L176.8,250.42z M250.05,357.33l-70.71-106.92
		l70.71-106.92l70.69,106.92L250.05,357.33z"/>
	<circle class="st0" cx="188.31" cy="281.61" r="3.54"/>
	<circle class="st0" cx="311.97" cy="281.61" r="3.54"/>
	<path class="st0" d="M176.47,242.61l0.65-0.99l-1.96-1.29l0.31-0.47l2.59,0.32l0.74-1.12l-3.3-0.26l-0.62-0.97
		c-0.23-0.38-0.22-0.58-0.08-0.79c0.03-0.04,0.08-0.12,0.16-0.18l-0.83-0.79c-0.11,0.07-0.23,0.21-0.31,0.34
		c-0.35,0.52-0.4,1.02,0.03,1.76l0.73,1.2l-0.27,0.41l-1.81-1.19l-0.65,0.99l1.81,1.19l-0.27,0.41l-1.39-0.2
		c-0.85-0.1-1.29,0.15-1.64,0.67c-0.08,0.13-0.17,0.29-0.19,0.42l1.05,0.45c0.03-0.09,0.08-0.17,0.1-0.22
		c0.14-0.21,0.32-0.3,0.76-0.24l1.14,0.19l1.54,2.93l0.74-1.12l-1.32-2.26l0.31-0.47L176.47,242.61z"/>
	<path class="st0" d="M178.76,236.83c0.09,0.18,0.05,0.38-0.08,0.58c-0.12,0.19-0.2,0.25-0.28,0.31l0.78,0.78
		c0.14-0.1,0.3-0.26,0.47-0.52c0.47-0.72,0.32-1.42-0.19-2.17l-2.62-3.77l-0.69,1.04l1.02,1.37l0.86,1.09l-0.02,0.03l-1.35-0.34
		l-1.7-0.35l-0.72,1.1l4.43,0.68L178.76,236.83z"/>
	<path class="st0" d="M179.34,233.33c1.55,1.02,3,0.58,3.77-0.59c0.39-0.6,0.5-1.26,0.3-1.93l-1.01,0.12
		c0.1,0.39,0.09,0.81-0.16,1.19c-0.44,0.67-1.29,0.75-2.23,0.13c-0.92-0.61-1.15-1.47-0.73-2.11c0.22-0.33,0.53-0.48,0.9-0.57
		l-0.3-0.99c-0.52,0.1-1.12,0.4-1.51,0.99C177.59,230.73,177.81,232.33,179.34,233.33z"/>
	<path class="st0" d="M184.04,228.85c0.09,0.18,0.05,0.38-0.08,0.58c-0.12,0.19-0.2,0.25-0.28,0.31l0.78,0.78
		c0.15-0.1,0.3-0.26,0.48-0.52c0.47-0.72,0.32-1.42-0.19-2.17l-2.62-3.77l-0.69,1.04l1.02,1.37l0.86,1.09l-0.02,0.03l-1.35-0.34
		l-1.7-0.35l-0.72,1.1l4.43,0.68L184.04,228.85z"/>
	<polygon class="st0" points="187.73,225.59 183.99,223.13 184.99,221.62 188.72,224.08 189.41,223.03 184.8,220 182.43,223.6 
		187.04,226.63 	"/>
	<path class="st0" d="M192.21,218.8c0.64-0.97,0.74-2.01-0.31-2.7c-1.01-0.67-1.87-0.09-2.51,0.88l-0.42,0.63l-0.92-0.61l1.39-2.1
		l-0.87-0.57l-2.07,3.14l4.6,3.03L192.21,218.8z M189.74,218.12l0.36-0.55c0.36-0.55,0.71-0.73,1.14-0.44
		c0.44,0.29,0.46,0.7,0.1,1.25l-0.36,0.55L189.74,218.12z"/>
	<path class="st0" d="M194.21,215.78l-0.91-1.01l0.92-1.4l1.28,0.44l0.73-1.1l-5.56-1.59l-0.82,1.25l3.65,4.48L194.21,215.78z
		 M191.05,212.27c0.56,0.19,1.19,0.43,1.73,0.6l0.5,0.17l-0.65,0.99l-0.35-0.39c-0.38-0.43-0.84-0.91-1.25-1.34L191.05,212.27z"/>
	<path class="st0" d="M195.62,211.73c-0.05,0.08-0.11,0.13-0.16,0.18l0.81,0.8c0.15-0.11,0.26-0.25,0.42-0.49
		c0.48-0.74,0.32-1.39-1.03-2.71c-0.53-0.51-1.05-1.01-1.63-1.56l0.55-0.84l3.73,2.46l0.69-1.04l-4.6-3.04l-1.77,2.69
		c0.78,0.75,1.55,1.46,2.29,2.22C195.76,211.26,195.77,211.5,195.62,211.73z"/>
	<path class="st0" d="M200.04,206.97l-0.91-1.01l0.93-1.4l1.28,0.44l0.72-1.1l-5.56-1.59l-0.82,1.25l3.65,4.48L200.04,206.97z
		 M196.88,203.46c0.56,0.19,1.19,0.43,1.73,0.6l0.5,0.17l-0.65,0.99l-0.35-0.39c-0.37-0.43-0.83-0.91-1.25-1.34L196.88,203.46z"/>
	<path class="st0" d="M199.93,202.19c1.55,1.02,3,0.58,3.77-0.59c0.39-0.6,0.5-1.26,0.3-1.93l-1.01,0.12
		c0.1,0.39,0.09,0.81-0.16,1.19c-0.44,0.67-1.29,0.75-2.23,0.13c-0.92-0.61-1.15-1.47-0.73-2.11c0.22-0.33,0.53-0.48,0.9-0.57
		l-0.3-0.99c-0.52,0.1-1.12,0.4-1.51,0.99C198.19,199.59,198.4,201.18,199.93,202.19z"/>
	<path class="st0" d="M205.38,198.89l-0.91-1.01l0.92-1.4l1.28,0.44l0.73-1.1l-5.56-1.59l-0.82,1.25l3.65,4.48L205.38,198.89z
		 M202.22,195.38c0.56,0.19,1.19,0.43,1.73,0.6l0.5,0.17l-0.65,0.99l-0.35-0.39c-0.38-0.43-0.83-0.91-1.25-1.34L202.22,195.38z"/>
	<polygon class="st0" points="208.42,194.29 204.69,191.83 205.92,189.96 205.05,189.39 203.13,192.3 207.73,195.33 	"/>
	
		<rect x="210.16" y="182.94" transform="matrix(0.5502 -0.8351 0.8351 0.5502 -60.2497 259.5553)" class="st0" width="1.25" height="5.51"/>
	<path class="st0" d="M211.15,190.16c0.67-1.02,0.8-2.08-0.31-2.81c-1.01-0.67-1.92-0.17-2.6,0.87l-0.3,0.46l-1.68-1.11l-0.68,1.04
		l4.6,3.03L211.15,190.16z M208.77,189.21l0.25-0.37c0.38-0.58,0.77-0.74,1.17-0.47c0.47,0.31,0.46,0.76,0.1,1.3l-0.25,0.37
		L208.77,189.21z"/>
	<polygon class="st0" points="214.83,184.59 212.91,183.32 213.96,181.73 215.88,183 216.57,181.96 211.96,178.93 211.28,179.96 
		213.05,181.14 212.01,182.72 210.23,181.55 209.55,182.6 214.15,185.63 	"/>
	<path class="st0" d="M218.55,178.96l-0.91-1.01l0.92-1.4l1.28,0.44l0.72-1.1l-5.55-1.59l-0.82,1.25l3.65,4.48L218.55,178.96z
		 M215.39,175.45c0.56,0.19,1.19,0.43,1.73,0.6l0.5,0.17l-0.65,0.99l-0.35-0.39c-0.37-0.43-0.83-0.91-1.25-1.34L215.39,175.45z"/>
	<polygon class="st0" points="217.45,172.54 221.18,174.99 221.87,173.95 218.13,171.49 218.97,170.23 218.09,169.65 215.74,173.23 
		216.61,173.8 	"/>
	<path class="st0" d="M224.17,170.48c0.67-1.02,0.8-2.08-0.31-2.81c-1.01-0.67-1.92-0.17-2.6,0.87l-0.3,0.45l-1.68-1.11l-0.69,1.04
		l4.6,3.03L224.17,170.48z M221.78,169.53l0.24-0.37c0.38-0.58,0.77-0.74,1.18-0.47c0.47,0.31,0.45,0.76,0.1,1.3l-0.25,0.38
		L221.78,169.53z"/>
	
		<rect x="223.18" y="163.26" transform="matrix(0.5503 -0.8349 0.8349 0.5503 -37.9805 261.5157)" class="st0" width="1.25" height="5.51"/>
	<polygon class="st0" points="227.85,164.91 225.93,163.64 226.98,162.05 228.9,163.32 229.58,162.27 224.98,159.24 224.29,160.28 
		226.07,161.45 225.02,163.04 223.24,161.87 222.56,162.91 227.17,165.94 	"/>
	<path class="st0" d="M229.28,160.85L229.28,160.85l-0.14,0.21l0.65,0.43l1.61,0.94l0.61-0.93l-1.33-0.87l1.66-2.51l1.33,0.87
		l0.61-0.93l-1.49-1.11l-0.65-0.43l-0.37,0.56l-3.73-2.46l-1.8,2.73c0.78,0.73,1.18,1.1,1.88,1.79
		C229.09,160.09,229.34,160.6,229.28,160.85z M228.22,156.23l2.86,1.89l-1.08,1.63c-0.21-0.44-0.59-0.93-1.13-1.45
		c-0.49-0.48-0.75-0.71-1.24-1.17L228.22,156.23z"/>
	<path class="st0" d="M233.77,155.96l-0.91-1.01l0.92-1.4l1.28,0.44l0.73-1.1l-5.56-1.59l-0.82,1.25l3.65,4.48L233.77,155.96z
		 M230.6,152.45c0.56,0.19,1.19,0.43,1.73,0.6l0.5,0.17l-0.65,0.99l-0.35-0.39c-0.37-0.43-0.83-0.91-1.25-1.34L230.6,152.45z"/>
	<polygon class="st0" points="236.8,151.37 233.07,148.91 234.3,147.04 233.42,146.47 231.51,149.37 236.12,152.41 	"/>
	<path class="st0" d="M239.53,147.23c0.67-1.02,0.8-2.08-0.31-2.81c-1.01-0.67-1.92-0.17-2.6,0.87l-0.3,0.45l-1.68-1.11l-0.69,1.04
		l4.6,3.03L239.53,147.23z M237.15,146.29l0.24-0.37c0.38-0.58,0.77-0.74,1.17-0.47c0.48,0.31,0.46,0.76,0.1,1.3l-0.25,0.38
		L237.15,146.29z"/>
	
		<rect x="238.54" y="140.02" transform="matrix(0.5502 -0.8351 0.8351 0.5502 -11.642 263.9449)" class="st0" width="1.25" height="5.51"/>
	<path class="st0" d="M256.5,137.11l0.33,0.51l-1.15,2.51l0.72,1.1l1.46-3.11l1.17-0.07c0.45-0.03,0.62,0.03,0.76,0.24
		c0.02,0.04,0.08,0.12,0.1,0.22l1.05-0.45c-0.02-0.13-0.1-0.29-0.19-0.42c-0.35-0.52-0.78-0.73-1.63-0.67l-1.46,0.1l-0.34-0.51
		l1.81-1.19l-0.68-1.04l-4.6,3.03l0.68,1.04L256.5,137.11z"/>
	<path class="st0" d="M257.73,143.22c0.67,1.02,1.6,1.56,2.71,0.83c1.01-0.67,0.91-1.7,0.23-2.74l-0.3-0.45l1.68-1.11l-0.68-1.04
		l-4.6,3.03L257.73,143.22z M259.54,141.4l0.25,0.37c0.38,0.58,0.38,1-0.03,1.27c-0.48,0.31-0.88,0.12-1.24-0.42l-0.25-0.37
		L259.54,141.4z"/>
	
		<rect x="259.22" y="144.02" transform="matrix(0.8351 -0.5502 0.5502 0.8351 -36.3665 167.9834)" class="st0" width="5.51" height="1.25"/>
	<path class="st0" d="M261.43,148.81l1.56-1.03l0.38,0.57c0.64,0.98,1.67,1.49,2.75,0.77c1.12-0.74,0.95-1.79,0.27-2.81l-1.04-1.58
		l-4.6,3.03L261.43,148.81z M265.21,146.32l0.32,0.48c0.37,0.56,0.4,0.99-0.08,1.3c-0.48,0.32-0.91,0.21-1.29-0.36l-0.33-0.51
		L265.21,146.32z"/>
	<polygon class="st0" points="264.24,153.06 267.97,150.6 269.2,152.47 270.08,151.89 268.16,148.99 263.56,152.02 	"/>
	<path class="st0" d="M266.96,157.17c0.67,1.02,1.6,1.56,2.71,0.83c1.01-0.67,0.91-1.7,0.22-2.74l-0.3-0.45l1.68-1.11l-0.69-1.04
		l-4.6,3.03L266.96,157.17z M268.76,155.35l0.25,0.37c0.38,0.58,0.37,1-0.03,1.27c-0.47,0.31-0.87,0.12-1.23-0.42l-0.25-0.37
		L268.76,155.35z"/>
	
		<rect x="268.44" y="157.97" transform="matrix(0.8351 -0.5502 0.5502 0.8351 -42.5199 175.3575)" class="st0" width="5.51" height="1.25"/>
	<path class="st0" d="M274.62,160.53c0.25,0.38,0.28,0.75-0.08,0.98c-0.32,0.22-0.66,0.14-1.02-0.41l-0.31-0.47l-0.77,0.51l0.4,0.61
		c0.38,0.57,0.38,0.95,0,1.2c-0.4,0.26-0.84,0.08-1.15-0.39c-0.27-0.41-0.38-0.87-0.3-1.43l-1.08-0.08
		c-0.14,0.79,0.08,1.51,0.48,2.11c0.67,1.02,1.68,1.49,2.63,0.86c0.55-0.36,0.72-0.97,0.54-1.51l0.03-0.02
		c0.43,0.27,0.94,0.22,1.38-0.07c0.77-0.51,0.86-1.39,0.16-2.45c-0.38-0.56-0.92-0.97-1.55-1.13l-0.35,0.98
		C274.07,159.97,274.38,160.16,274.62,160.53z"/>
	<path class="st0" d="M275.25,167.39c-0.2,0.01-0.37-0.1-0.5-0.3c-0.12-0.19-0.15-0.28-0.18-0.38l-1.02,0.41
		c0.03,0.17,0.12,0.38,0.29,0.65c0.48,0.72,1.18,0.85,2.07,0.68l4.5-0.92l-0.69-1.04l-1.66,0.4l-1.34,0.36l-0.02-0.03l0.85-1.11
		l0.99-1.42l-0.72-1.1l-2.37,3.8L275.25,167.39z"/>
	<path class="st0" d="M276.54,169.73c-0.05-0.08-0.08-0.15-0.1-0.22l-1.06,0.43c0.05,0.18,0.12,0.34,0.29,0.58
		c0.49,0.74,1.15,0.84,2.9,0.12c0.68-0.29,1.35-0.57,2.07-0.88l0.55,0.84l-3.73,2.46l0.68,1.04l4.6-3.03l-1.77-2.68
		c-1,0.42-1.96,0.85-2.94,1.23C276.91,170.05,276.69,169.96,276.54,169.73z"/>
	<path class="st0" d="M280.56,175.43c-0.21,0.01-0.37-0.1-0.5-0.3c-0.12-0.19-0.15-0.28-0.18-0.38l-1.02,0.41
		c0.04,0.17,0.12,0.38,0.3,0.65c0.47,0.72,1.18,0.85,2.07,0.68l4.5-0.92l-0.69-1.04l-1.67,0.4l-1.34,0.36l-0.02-0.03l0.85-1.11
		l0.99-1.42l-0.72-1.1l-2.37,3.8L280.56,175.43z"/>
	<polygon class="st0" points="285.82,177.58 282.08,180.04 282.77,181.08 286.5,178.63 287.34,179.89 288.21,179.32 285.86,175.74 
		284.98,176.32 	"/>
	<polygon class="st0" points="288.4,181.49 284.67,183.95 285.35,184.99 289.08,182.53 289.92,183.8 290.79,183.23 288.43,179.65 
		287.56,180.23 	"/>
	<path class="st0" d="M288.37,187.24c-0.2,0.01-0.37-0.1-0.5-0.3c-0.12-0.19-0.15-0.28-0.17-0.38l-1.02,0.41
		c0.03,0.17,0.12,0.38,0.29,0.65c0.47,0.72,1.18,0.85,2.07,0.68l4.5-0.92l-0.69-1.04l-1.66,0.4l-1.34,0.36l-0.02-0.03l0.85-1.11
		l0.99-1.42l-0.72-1.1l-2.37,3.8L288.37,187.24z"/>
	<path class="st0" d="M289.94,191.93l1.96-1.29l0.33,0.51l-1.15,2.51l0.72,1.1l1.46-3.11l1.17-0.07c0.45-0.03,0.62,0.03,0.76,0.24
		c0.03,0.04,0.08,0.12,0.1,0.22l1.05-0.45c-0.02-0.13-0.1-0.29-0.19-0.42c-0.35-0.52-0.78-0.73-1.63-0.67l-1.46,0.1l-0.34-0.51
		l1.81-1.19l-0.68-1.04l-4.6,3.03L289.94,191.93z"/>
	<path class="st0" d="M294.79,196.95c-0.21,0.01-0.37-0.1-0.5-0.3c-0.12-0.19-0.15-0.28-0.18-0.38l-1.02,0.41
		c0.04,0.17,0.12,0.38,0.3,0.65c0.47,0.72,1.18,0.85,2.07,0.68l4.5-0.92l-0.69-1.04l-1.67,0.4l-1.34,0.36l-0.02-0.03l0.85-1.11
		l0.99-1.42l-0.72-1.1l-2.37,3.8L294.79,196.95z"/>
	<polygon class="st0" points="296.39,201.68 298.31,200.42 299.36,202.01 297.44,203.27 298.12,204.32 302.73,201.28 302.04,200.24 
		300.27,201.41 299.22,199.82 300.99,198.65 300.31,197.61 295.7,200.64 	"/>
	<path class="st0" d="M299.56,206.48l3.1-0.31l1.3-0.21l0.02,0.03c-0.54,0.29-1.21,0.61-1.75,0.96l-1.63,1.08l0.67,1.03l4.6-3.03
		l-0.72-1.1l-3.09,0.3l-1.31,0.21l-0.02-0.03c0.52-0.27,1.22-0.61,1.76-0.97l1.62-1.07l-0.67-1.03l-4.6,3.03L299.56,206.48z"/>
	<path class="st0" d="M303.15,211.91c0.66,1,1.6,1.52,2.54,0.9c0.62-0.4,0.72-1,0.54-1.55l0.02-0.02c0.39,0.28,0.98,0.22,1.4-0.05
		c0.88-0.58,0.65-1.49,0.02-2.45l-1.04-1.57l-4.6,3.03L303.15,211.91z M306.51,208.74l0.32,0.49c0.32,0.49,0.34,0.81-0.02,1.05
		c-0.33,0.22-0.7,0.14-1.03-0.37l-0.32-0.49L306.51,208.74z M304.7,209.93l0.38,0.58c0.38,0.57,0.4,0.97,0,1.23
		c-0.42,0.28-0.82,0.12-1.19-0.45l-0.38-0.58L304.7,209.93z"/>
	<polygon class="st0" points="306.79,217.41 307.66,216.84 306.4,214.93 307.46,214.23 308.49,215.8 309.37,215.22 308.33,213.65 
		309.25,213.04 310.47,214.89 311.34,214.31 309.44,211.43 304.84,214.46 	"/>
	<path class="st0" d="M308.08,219.35l1.56-1.03l0.38,0.57c0.64,0.97,1.67,1.49,2.75,0.77c1.12-0.74,0.95-1.79,0.27-2.81l-1.04-1.58
		l-4.6,3.03L308.08,219.35z M311.85,216.86l0.32,0.48c0.37,0.56,0.4,0.99-0.08,1.3c-0.48,0.32-0.91,0.21-1.29-0.36l-0.33-0.51
		L311.85,216.86z"/>
	<path class="st0" d="M311.35,224.5c0.4,0.6,0.96,0.95,1.66,1.04l0.29-0.98c-0.4-0.06-0.77-0.24-1.02-0.62
		c-0.45-0.67-0.18-1.47,0.76-2.1c0.92-0.61,1.81-0.48,2.22,0.15c0.22,0.33,0.23,0.68,0.17,1.05l1.03,0.11
		c0.12-0.52,0.08-1.18-0.31-1.78c-0.77-1.16-2.32-1.59-3.85-0.58C310.75,221.83,310.59,223.34,311.35,224.5z"/>
	<path class="st0" d="M313.61,227.73l3.1-0.31l1.3-0.21l0.02,0.03c-0.54,0.29-1.21,0.61-1.75,0.96l-1.63,1.08l0.67,1.03l4.6-3.03
		l-0.72-1.1l-3.09,0.3l-1.31,0.21l-0.02-0.03c0.52-0.27,1.22-0.61,1.76-0.97l1.62-1.07l-0.67-1.03l-4.6,3.03L313.61,227.73z"/>
	<polygon class="st0" points="320.39,229.88 316.66,232.34 317.35,233.38 321.07,230.92 321.91,232.19 322.78,231.61 320.43,228.04 
		319.55,228.61 	"/>
	<polygon class="st0" points="320.61,238.32 321.48,237.74 320.22,235.83 321.28,235.13 322.32,236.7 323.19,236.12 322.15,234.56 
		323.08,233.95 324.29,235.79 325.17,235.21 323.27,232.33 318.66,235.36 	"/>
	<polygon class="st0" points="325.54,237.66 321.8,240.12 322.49,241.16 326.22,238.7 327.06,239.97 327.93,239.4 325.57,235.82 
		324.7,236.4 	"/>
	<path class="st0" d="M330.13,242.72l-3.09,0.3l-1.31,0.21l-0.02-0.03c0.52-0.27,1.22-0.61,1.76-0.97l1.62-1.07l-0.68-1.03
		l-4.6,3.03l0.72,1.1l3.1-0.31l1.3-0.21l0.02,0.03c-0.54,0.29-1.21,0.61-1.75,0.96l-1.63,1.08l0.68,1.03l4.6-3.03L330.13,242.72z"/>
	<path class="st0" d="M210.09,309.61c-0.71-1.08-1.86-1.31-3.13-0.71l-0.55-0.84l1.77-1.17l-0.69-1.04l-4.6,3.03l0.69,1.04
		l1.92-1.26l0.54,0.82c-1.16,0.95-1.45,2.16-0.72,3.27c0.81,1.23,2.24,1.43,3.74,0.44C210.56,312.22,210.9,310.85,210.09,309.61z
		 M208.36,312.14c-0.92,0.61-1.74,0.65-2.14,0.03c-0.41-0.62-0.05-1.35,0.87-1.96c0.92-0.61,1.69-0.62,2.1,0
		C209.6,310.83,209.28,311.53,208.36,312.14z"/>
	<path class="st0" d="M212.91,317.28c1.12-0.74,0.94-1.79,0.27-2.81l-1.04-1.58l-4.6,3.03l0.69,1.04l1.56-1.03l0.37,0.57
		C210.8,317.48,211.82,317.99,212.91,317.28z M212,314.47l0.32,0.48c0.37,0.56,0.4,0.99-0.08,1.3c-0.48,0.32-0.91,0.21-1.29-0.36
		l-0.33-0.51L212,314.47z"/>
	<path class="st0" d="M212.32,323.17l0.68,1.03l4.6-3.03l-0.73-1.1l-3.09,0.3l-1.31,0.21l-0.02-0.03c0.52-0.27,1.22-0.61,1.76-0.97
		l1.63-1.07l-0.68-1.03l-4.6,3.03l0.72,1.1l3.1-0.31l1.3-0.21l0.02,0.03c-0.54,0.29-1.21,0.61-1.75,0.96L212.32,323.17z"/>
	<path class="st0" d="M217.16,328.6l3.73-2.46l-1.8-2.73c-0.98,0.43-1.48,0.65-2.39,1.02c-1.26,0.52-1.82,0.55-2.03,0.39v0
		l-0.14-0.21l-0.65,0.43l-1.49,1.11l0.61,0.93l1.33-0.87l1.66,2.51l-1.33,0.87l0.61,0.93l1.61-0.93l0.65-0.43L217.16,328.6z
		 M217.18,325.46c0.63-0.26,0.94-0.41,1.57-0.67l0.59,0.89l-2.86,1.89l-1.08-1.63C215.89,325.9,216.48,325.75,217.18,325.46z"/>
	<path class="st0" d="M223.61,330.25l-3.09,0.3l-1.31,0.21l-0.02-0.03c0.52-0.27,1.22-0.61,1.76-0.97l1.63-1.07l-0.68-1.03
		l-4.6,3.03l0.73,1.1l3.09-0.31l1.3-0.21l0.02,0.03c-0.54,0.29-1.21,0.61-1.75,0.96l-1.63,1.08l0.68,1.03l4.6-3.03L223.61,330.25z"
		/>
	<path class="st0" d="M225.86,336.49c0.45-0.03,0.62,0.03,0.76,0.24c0.03,0.04,0.08,0.12,0.1,0.22l1.05-0.45
		c-0.02-0.13-0.1-0.29-0.18-0.42c-0.35-0.52-0.78-0.73-1.64-0.67l-1.46,0.1l-0.34-0.51l1.81-1.19l-0.69-1.04l-4.6,3.03l0.69,1.04
		l1.96-1.29l0.33,0.51l-1.15,2.51l0.72,1.1l1.46-3.11L225.86,336.49z"/>
	<path class="st0" d="M228.98,338.37l-5.55,1.59l0.7,1.06l1.29-0.44l0.92,1.4l-0.91,1.01l0.72,1.1l3.65-4.48L228.98,338.37z
		 M227.36,340.85l-0.35,0.39l-0.65-0.98l0.5-0.17c0.55-0.18,1.17-0.41,1.72-0.62l0.02,0.03
		C228.2,339.94,227.74,340.42,227.36,340.85z"/>
	<path class="st0" d="M232.01,342.94c-0.99,0.42-1.96,0.85-2.94,1.23c-1.13,0.44-1.35,0.35-1.5,0.12c-0.05-0.08-0.08-0.15-0.1-0.22
		l-1.06,0.43c0.04,0.18,0.12,0.34,0.29,0.58c0.49,0.74,1.15,0.84,2.9,0.12c0.68-0.29,1.34-0.57,2.07-0.88l0.55,0.84l-3.73,2.46
		l0.69,1.04l4.6-3.03L232.01,342.94z"/>
	<path class="st0" d="M233.8,352.38c1.01-0.67,0.91-1.7,0.23-2.74l-0.3-0.45l1.68-1.11l-0.69-1.04l-4.6,3.03l0.97,1.48
		C231.76,352.57,232.69,353.11,233.8,352.38z M231.88,350.94l-0.25-0.37l1.27-0.84l0.24,0.37c0.38,0.58,0.38,1-0.03,1.27
		C232.64,351.68,232.23,351.49,231.88,350.94z"/>
	
		<rect x="232.57" y="352.35" transform="matrix(0.8351 -0.5502 0.5502 0.8351 -155.3762 187.687)" class="st0" width="5.51" height="1.25"/>
	<path class="st0" d="M239.61,356.07l-1.46,0.1l-0.34-0.51l1.81-1.19l-0.69-1.04l-4.6,3.03l0.69,1.04l1.96-1.29l0.33,0.51
		l-1.15,2.51l0.72,1.1l1.46-3.11l1.17-0.07c0.45-0.03,0.62,0.03,0.76,0.24c0.03,0.04,0.08,0.12,0.1,0.22l1.05-0.45
		c-0.02-0.13-0.1-0.29-0.18-0.42C240.9,356.22,240.47,356.01,239.61,356.07z"/>
	<path class="st0" d="M266.36,344.89l1.5,2.72l0.71,1.12l-0.02,0.03c-0.45-0.37-1.05-0.88-1.59-1.24l-1.62-1.07l-0.68,1.03l4.6,3.03
		l0.72-1.1l-1.5-2.72l-0.7-1.12l0.02-0.03c0.47,0.38,1.04,0.87,1.58,1.23l1.64,1.08l0.67-1.03l-4.6-3.03L266.36,344.89z"/>
	<polygon class="st0" points="269.76,339.75 271.53,340.92 270.49,342.51 268.71,341.34 268.03,342.38 272.63,345.42 273.32,344.38 
		271.4,343.11 272.44,341.52 274.36,342.79 275.05,341.74 270.45,338.71 	"/>
	<path class="st0" d="M276.67,336.59c0.1,0.39,0.09,0.81-0.16,1.19c-0.44,0.67-1.28,0.75-2.23,0.13c-0.92-0.61-1.15-1.47-0.73-2.11
		c0.22-0.33,0.53-0.48,0.9-0.57l-0.3-0.99c-0.52,0.1-1.12,0.4-1.51,0.99c-0.77,1.16-0.55,2.76,0.98,3.76c1.55,1.02,3,0.58,3.77-0.59
		c0.39-0.6,0.5-1.26,0.3-1.93L276.67,336.59z"/>
	<polygon class="st0" points="277.31,330.23 276.44,329.65 274.08,333.23 274.96,333.8 275.79,332.53 279.52,334.99 280.21,333.95 
		276.48,331.49 	"/>
	<path class="st0" d="M278.86,325.99l1.5,2.72l0.71,1.12l-0.02,0.03c-0.45-0.37-1.05-0.88-1.59-1.24l-1.62-1.07l-0.68,1.03l4.6,3.03
		l0.72-1.1l-1.5-2.72l-0.7-1.12l0.02-0.03c0.47,0.38,1.04,0.87,1.58,1.23l1.64,1.08l0.67-1.03l-4.6-3.03L278.86,325.99z"/>
	<polygon class="st0" points="283.52,320.84 282.65,320.26 280.29,323.84 281.16,324.41 282,323.15 285.73,325.61 286.41,324.56 
		282.68,322.11 	"/>
	<path class="st0" d="M285.63,315.74l-0.69,1.04l1.02,1.37l0.86,1.09l-0.02,0.03l-1.35-0.34l-1.7-0.35l-0.72,1.1l4.43,0.68
		l0.09,0.16c0.09,0.18,0.05,0.38-0.08,0.58c-0.12,0.19-0.2,0.25-0.28,0.31l0.78,0.78c0.15-0.1,0.3-0.26,0.48-0.52
		c0.47-0.72,0.32-1.42-0.2-2.17L285.63,315.74z"/>
	<polygon class="st0" points="289.18,312.27 288.31,311.7 285.95,315.27 286.83,315.85 287.66,314.58 291.39,317.04 292.08,316 
		288.35,313.54 	"/>
	<path class="st0" d="M228.14,229.39c-0.24,0.76-0.35,1.19-0.35,1.29h-0.05c0-0.11-0.12-0.55-0.35-1.34
		c-0.24-0.79-0.36-1.24-0.36-1.37h-0.84c0,0.13,0.19,0.7,0.56,1.72c0.37,1.02,0.56,1.59,0.56,1.73h0.73c0-0.14,0.2-0.71,0.61-1.72
		c0.4-1.01,0.6-1.58,0.6-1.73h-0.75C228.5,228.16,228.38,228.63,228.14,229.39z"/>
	<path class="st0" d="M231.92,231.42l0.02-0.58c-0.55,0.03-1.06,0.05-1.55,0.05c-0.01-0.31-0.02-0.65-0.02-1.01
		c0.37,0,0.77,0.01,1.18,0.02v-0.55c-0.42,0.02-0.81,0.03-1.18,0.03c0-0.34-0.01-0.62-0.03-0.87c0.43,0,0.91,0.01,1.44,0.04
		l0.03-0.58h-2.15c0.02,0.45,0.03,1,0.03,1.65c0,0.67-0.01,1.27-0.03,1.8H231.92z"/>
	<path class="st0" d="M233.27,231.42c-0.02-0.46-0.03-0.92-0.03-1.37c0.09,0,0.19,0,0.3,0c0.24,0,0.42,0.07,0.53,0.22
		c0.11,0.15,0.27,0.53,0.47,1.16h0.78c-0.23-0.61-0.41-1.03-0.54-1.26c-0.13-0.23-0.29-0.37-0.47-0.42v-0.04
		c0.46-0.17,0.7-0.48,0.7-0.92c0-0.55-0.4-0.83-1.22-0.83c-0.14,0-0.3,0-0.47,0.01c-0.17,0.01-0.28,0.01-0.33,0.01h-0.46
		c0.02,0.45,0.03,1,0.03,1.65c0,0.67-0.01,1.27-0.03,1.8H233.27z M233.65,228.45c0.45,0,0.68,0.18,0.68,0.53
		c0,0.39-0.28,0.59-0.84,0.59c-0.07,0-0.15,0-0.25,0c0-0.44-0.01-0.8-0.03-1.07C233.34,228.47,233.48,228.45,233.65,228.45z"/>
	<path class="st0" d="M236.52,231.42c-0.02-0.54-0.03-1.14-0.03-1.8c0-0.65,0.01-1.2,0.03-1.65h-0.75c0.02,0.45,0.04,1,0.04,1.65
		c0,0.66-0.01,1.26-0.04,1.8H236.52z"/>
	<path class="st0" d="M238,229.62c0,0.64-0.01,1.24-0.04,1.8h0.74c-0.02-0.57-0.03-1.17-0.03-1.8c0-0.41,0-0.78,0.01-1.11
		c0.31,0,0.64,0.01,1,0.04l0.02-0.57h-2.72l-0.02,0.57c0.43-0.03,0.77-0.04,1.02-0.04C237.99,228.84,238,229.21,238,229.62z"/>
	<path class="st0" d="M240.48,231.42c0-0.12,0.08-0.46,0.25-0.99h1.22c0.16,0.55,0.24,0.87,0.24,0.99h0.85
		c0-0.1-0.19-0.67-0.56-1.72c-0.37-1.05-0.56-1.63-0.56-1.73h-1c0,0.11-0.21,0.69-0.62,1.75c-0.41,1.06-0.62,1.63-0.62,1.7H240.48z
		 M241.32,228.44h0.04c0,0.07,0.15,0.57,0.45,1.48h-0.96C241.16,229,241.32,228.51,241.32,228.44z"/>
	<path class="st0" d="M244.22,230.95c-0.25,0-0.52-0.05-0.81-0.15l-0.13,0.59c0.29,0.08,0.6,0.12,0.94,0.12
		c0.99,0,1.49-0.35,1.49-1.04c0-0.29-0.1-0.53-0.3-0.73c-0.15-0.15-0.38-0.28-0.68-0.4c-0.28-0.11-0.47-0.2-0.55-0.27
		c-0.1-0.07-0.15-0.17-0.15-0.29c0-0.22,0.21-0.34,0.62-0.34c0.28,0,0.54,0.04,0.77,0.13l0.1-0.59c-0.23-0.06-0.52-0.09-0.87-0.09
		c-0.42,0-0.75,0.09-0.97,0.26c-0.22,0.17-0.34,0.41-0.34,0.71c0,0.26,0.09,0.48,0.26,0.66c0.13,0.14,0.34,0.27,0.62,0.39
		c0.31,0.13,0.51,0.24,0.61,0.32c0.12,0.09,0.17,0.21,0.17,0.34c0,0.13-0.06,0.22-0.19,0.27
		C244.71,230.92,244.5,230.95,244.22,230.95z"/>
	<path class="st0" d="M248.69,231.5c0.36,0,0.66-0.04,0.91-0.13l0.05-0.51c-0.3,0.08-0.58,0.12-0.84,0.12
		c-0.24,0-0.43-0.07-0.58-0.2c-0.15-0.13-0.23-0.3-0.26-0.5l1.71-0.03c0.01-0.14,0.02-0.26,0.02-0.35c0-0.32-0.09-0.59-0.27-0.79
		c-0.18-0.2-0.46-0.3-0.83-0.3c-0.41,0-0.73,0.14-0.96,0.41c-0.23,0.27-0.35,0.6-0.35,0.98c0,0.36,0.12,0.67,0.37,0.92
		C247.89,231.37,248.24,231.5,248.69,231.5z M248.56,229.26c0.35,0,0.52,0.2,0.52,0.61l-1.11,0.02
		C248.03,229.47,248.23,229.26,248.56,229.26z"/>
	<path class="st0" d="M250.37,230.34c0,0.44,0.07,0.74,0.22,0.9c0.14,0.15,0.36,0.23,0.65,0.23c0.19,0,0.34-0.03,0.46-0.08
		l0.05-0.47c-0.11,0.03-0.21,0.05-0.31,0.05c-0.16,0-0.27-0.05-0.34-0.16s-0.09-0.32-0.09-0.63c0-0.26,0-0.5,0-0.74
		c0.17,0,0.39,0,0.65,0.01l0.02-0.53c-0.3,0.01-0.52,0.02-0.66,0.02c0-0.19,0.01-0.46,0.04-0.81l-0.63,0.08
		c-0.01,0.4-0.02,0.65-0.02,0.74c-0.12,0-0.24,0-0.38-0.01l-0.02,0.52c0.15-0.01,0.27-0.01,0.37-0.01
		C250.38,229.78,250.37,230.08,250.37,230.34z"/>
	<path class="st0" d="M254.49,231.17c0.24-0.25,0.36-0.66,0.36-1.25c0-0.77,0.01-1.42,0.03-1.95h-0.72c0.03,0.53,0.04,1.2,0.04,2
		c0,0.4-0.07,0.67-0.22,0.82c-0.1,0.1-0.27,0.15-0.5,0.15c-0.12,0-0.24-0.02-0.35-0.08l-0.05,0.57c0.15,0.04,0.31,0.05,0.47,0.05
		C253.96,231.49,254.29,231.38,254.49,231.17z"/>
	<path class="st0" d="M255.92,231.12c0.24,0.26,0.6,0.39,1.07,0.39c0.96,0,1.44-0.59,1.44-1.76c0-0.59,0.01-1.19,0.02-1.78h-0.72
		c0.02,0.61,0.03,1.18,0.03,1.72c0,0.49-0.06,0.82-0.18,1c-0.12,0.18-0.32,0.27-0.59,0.27c-0.26,0-0.45-0.09-0.57-0.27
		c-0.12-0.18-0.18-0.51-0.18-1c0-0.55,0.01-1.13,0.03-1.73h-0.75c0.02,0.57,0.03,1.16,0.03,1.75
		C255.56,230.39,255.68,230.86,255.92,231.12z"/>
	<path class="st0" d="M259.93,230.95c-0.25,0-0.52-0.05-0.81-0.15l-0.13,0.59c0.29,0.08,0.6,0.12,0.94,0.12
		c0.99,0,1.49-0.35,1.49-1.04c0-0.29-0.1-0.53-0.3-0.73c-0.15-0.15-0.38-0.28-0.67-0.4c-0.29-0.11-0.47-0.2-0.55-0.27
		c-0.1-0.07-0.15-0.17-0.15-0.29c0-0.22,0.21-0.34,0.62-0.34c0.27,0,0.53,0.04,0.77,0.13l0.1-0.59c-0.23-0.06-0.52-0.09-0.87-0.09
		c-0.42,0-0.75,0.09-0.97,0.26c-0.22,0.17-0.34,0.41-0.34,0.71c0,0.26,0.08,0.48,0.25,0.66c0.14,0.14,0.35,0.27,0.62,0.39
		c0.31,0.13,0.51,0.24,0.61,0.32c0.12,0.09,0.17,0.21,0.17,0.34c0,0.13-0.06,0.22-0.19,0.27
		C260.42,230.92,260.21,230.95,259.93,230.95z"/>
	<path class="st0" d="M262.72,229.62c0,0.64-0.01,1.24-0.03,1.8h0.74c-0.02-0.57-0.03-1.17-0.03-1.8c0-0.41,0-0.78,0-1.11
		c0.31,0,0.65,0.01,1,0.04l0.02-0.57h-2.72l-0.02,0.57c0.44-0.03,0.78-0.04,1.02-0.04C262.72,228.84,262.72,229.21,262.72,229.62z"
		/>
	<path class="st0" d="M265.62,231.42c-0.02-0.54-0.03-1.14-0.03-1.8c0-0.65,0.01-1.2,0.03-1.65h-0.75c0.02,0.45,0.04,1,0.04,1.65
		c0,0.66-0.01,1.26-0.04,1.8H265.62z"/>
	<path class="st0" d="M267.1,229.62c0,0.64-0.01,1.24-0.03,1.8h0.74c-0.02-0.57-0.03-1.17-0.03-1.8c0-0.41,0-0.78,0-1.11
		c0.31,0,0.65,0.01,1,0.04l0.02-0.57h-2.72l-0.02,0.57c0.44-0.03,0.78-0.04,1.02-0.04C267.1,228.84,267.1,229.21,267.1,229.62z"/>
	<path class="st0" d="M269.25,227.97c0.02,0.45,0.03,1,0.03,1.65c0,0.66-0.01,1.26-0.03,1.8H270c-0.02-0.54-0.04-1.14-0.04-1.8
		c0-0.65,0.01-1.2,0.04-1.65H269.25z"/>
	<path class="st0" d="M272.65,227.97h-1c0,0.11-0.21,0.69-0.62,1.75c-0.41,1.06-0.62,1.63-0.62,1.7h0.8c0-0.12,0.08-0.46,0.25-0.99
		h1.22c0.16,0.55,0.24,0.87,0.24,0.99h0.85c0-0.1-0.19-0.67-0.56-1.72C272.84,228.65,272.65,228.07,272.65,227.97z M271.58,229.92
		c0.31-0.92,0.47-1.41,0.47-1.48h0.05c0,0.07,0.15,0.57,0.45,1.48H271.58z"/>
	<path class="st0" d="M243.99,277.88c-0.01-0.01-0.07-0.08-0.07-0.39v-6.51h-0.64l-0.03,0.11c-0.09,0.34-0.27,0.59-0.53,0.77
		c-0.27,0.18-0.59,0.27-1,0.27h-0.15v0.54h0.56c0.38,0,0.45,0.05,0.45,0.06c0,0,0.06,0.06,0.06,0.37v4.39
		c0,0.32-0.06,0.38-0.07,0.39c-0.02,0.02-0.09,0.07-0.38,0.07h-0.56v0.54h3.25v-0.54h-0.51
		C244.1,277.94,244.01,277.89,243.99,277.88z"/>
	<path class="st0" d="M247.55,270.98c-0.54,0-1.02,0.25-1.41,0.75c-0.38,0.48-0.57,1.07-0.57,1.75c0,0.65,0.16,1.2,0.48,1.62
		c0.33,0.44,0.76,0.66,1.27,0.66c0.28,0,0.52-0.08,0.72-0.22c0.06-0.05,0.13-0.1,0.18-0.17v0.13c0,1.06-0.08,1.77-0.24,2.12
		c-0.14,0.31-0.39,0.46-0.76,0.46c-0.13,0-0.24-0.03-0.32-0.09c-0.07-0.04-0.11-0.09-0.11-0.11c0,0,0.02-0.06,0.18-0.22
		c0.17-0.17,0.26-0.36,0.26-0.55c0-0.2-0.07-0.37-0.21-0.5c-0.14-0.13-0.31-0.19-0.52-0.19c-0.23,0-0.42,0.09-0.57,0.25
		c-0.15,0.16-0.22,0.37-0.22,0.61c0,0.37,0.15,0.68,0.45,0.92c0.29,0.24,0.67,0.36,1.12,0.36c0.71,0,1.29-0.39,1.74-1.16
		c0.43-0.74,0.65-1.72,0.65-2.9c0-1.04-0.19-1.89-0.56-2.53C248.7,271.32,248.19,270.98,247.55,270.98z M248,274.77
		c-0.15,0.36-0.35,0.4-0.49,0.4c-0.12,0-0.3-0.04-0.41-0.35c-0.1-0.28-0.15-0.81-0.15-1.56c0-0.73,0.05-1.22,0.15-1.46
		c0.08-0.2,0.21-0.29,0.41-0.29c0.14,0,0.34,0.04,0.49,0.4c0.13,0.31,0.2,0.79,0.2,1.43C248.2,273.98,248.13,274.46,248,274.77z"/>
	<path class="st0" d="M252.03,273.65c-0.26,0-0.51,0.05-0.73,0.15c-0.11,0.05-0.23,0.12-0.33,0.2c0.01-0.21,0.03-0.42,0.04-0.64
		c0.01-0.28,0.02-0.58,0.03-0.89c0.03,0.01,0.06,0.01,0.1,0.02c0.11,0.02,0.24,0.03,0.4,0.03h0.12c0.51,0,0.94-0.11,1.28-0.33
		c0.35-0.23,0.58-0.55,0.69-0.97l0.05-0.19h-0.49l-0.04,0.04c-0.13,0.13-0.28,0.22-0.43,0.27c-0.16,0.05-0.36,0.08-0.61,0.08
		c-0.3,0-0.57-0.06-0.81-0.18c-0.42-0.21-0.44-0.21-0.48-0.21c-0.06,0-0.19,0.02-0.26,0.18c-0.05,0.09-0.07,0.19-0.07,0.31
		l0.01,0.34c0.01,0.21,0.01,0.41,0.01,0.61c0,0.74-0.06,1.5-0.17,2.24c-0.02,0.14-0.03,0.22-0.03,0.24c0,0.08,0.02,0.15,0.08,0.22
		c0.07,0.09,0.16,0.11,0.21,0.11c0.21,0,0.31-0.25,0.34-0.33c0.04-0.09,0.07-0.16,0.1-0.21c0.09-0.16,0.21-0.29,0.35-0.38
		c0.14-0.09,0.29-0.13,0.43-0.13c0.32,0,0.55,0.14,0.69,0.42c0.15,0.32,0.23,0.87,0.23,1.66c0,0.63-0.08,1.09-0.24,1.35
		c-0.15,0.24-0.39,0.36-0.74,0.36c-0.31,0-0.57-0.09-0.79-0.28c-0.21-0.18-0.32-0.38-0.32-0.62c0-0.05,0.01-0.07,0.04-0.09
		c0.01,0,0.04,0,0.15,0.04c0.12,0.04,0.21,0.06,0.29,0.06c0.2,0,0.36-0.08,0.49-0.22c0.13-0.14,0.19-0.32,0.19-0.53
		c0-0.22-0.07-0.4-0.22-0.54c-0.14-0.14-0.33-0.21-0.55-0.21c-0.3,0-0.54,0.12-0.73,0.36c-0.18,0.23-0.27,0.52-0.27,0.87
		c0,0.49,0.17,0.9,0.52,1.23c0.34,0.32,0.78,0.49,1.3,0.49c0.65,0,1.2-0.24,1.62-0.72c0.42-0.47,0.64-1.08,0.64-1.81
		c0-0.66-0.2-1.23-0.59-1.69C253.11,273.89,252.61,273.65,252.03,273.65z"/>
	<path class="st0" d="M257.14,274.55c0.27-0.14,0.5-0.32,0.68-0.53c0.27-0.32,0.4-0.69,0.4-1.1c0-0.56-0.19-1.02-0.58-1.39
		c-0.38-0.36-0.87-0.55-1.46-0.55c-0.49,0-0.91,0.17-1.26,0.49c-0.35,0.33-0.52,0.73-0.52,1.19c0,0.32,0.09,0.58,0.26,0.79
		c0.18,0.22,0.41,0.33,0.69,0.33c0.22,0,0.41-0.07,0.56-0.22c0.15-0.15,0.23-0.33,0.23-0.54c0-0.22-0.06-0.39-0.17-0.52
		c-0.18-0.2-0.48-0.27-0.81-0.14c-0.06,0.02-0.1,0.04-0.1,0.04c-0.01-0.02-0.02-0.04-0.02-0.08c0-0.2,0.09-0.38,0.29-0.54
		c0.2-0.17,0.44-0.24,0.71-0.24c0.29,0,0.49,0.09,0.61,0.29c0.14,0.22,0.21,0.58,0.21,1.08c0,0.68-0.08,0.99-0.15,1.14
		c-0.08,0.18-0.22,0.26-0.43,0.26c-0.05,0-0.12,0-0.21-0.01c-0.1-0.01-0.17-0.02-0.21-0.02c-0.11,0-0.21,0.03-0.28,0.09
		c-0.08,0.07-0.12,0.16-0.12,0.27c0,0.14,0.06,0.22,0.12,0.26c0.07,0.05,0.16,0.08,0.27,0.08c0.04,0,0.12-0.01,0.22-0.02
		c0.09-0.01,0.16-0.02,0.21-0.02c0.26,0,0.44,0.09,0.54,0.27c0.08,0.14,0.17,0.48,0.17,1.29c0,0.54-0.09,0.94-0.26,1.19
		c-0.16,0.23-0.4,0.34-0.74,0.34c-0.26,0-0.49-0.08-0.69-0.26c-0.2-0.17-0.3-0.34-0.3-0.55l0.02-0.03c0.02,0,0.06,0.01,0.12,0.01
		c0.08,0.01,0.14,0.02,0.18,0.02c0.22,0,0.4-0.07,0.54-0.21c0.14-0.14,0.21-0.31,0.21-0.53c0-0.21-0.08-0.4-0.23-0.55
		c-0.15-0.15-0.34-0.23-0.55-0.23c-0.29,0-0.52,0.12-0.71,0.34c-0.18,0.22-0.27,0.49-0.27,0.82c0,0.49,0.19,0.9,0.56,1.23
		c0.37,0.32,0.84,0.49,1.39,0.49c0.61,0,1.12-0.2,1.52-0.59c0.4-0.39,0.61-0.9,0.61-1.49c0-0.52-0.15-0.98-0.46-1.34
		C257.74,274.88,257.47,274.68,257.14,274.55z"/>
	<path class="st0" d="M264.23,243.8c0.03-0.02,0.06-0.04,0.09-0.06c0.31-0.2,0.63-0.38,0.91-0.61c0.67-0.57,0.68-1.74,0.04-2.3
		c-0.62-0.54-1.77-0.53-2.39,0.02c-0.14,0.12-0.21,0.25-0.19,0.44c0.02,0.28,0.02,0.55,0.03,0.83l-0.15,0.07l0.15,0.33
		c-0.04,0.43-0.25,0.66-0.74,0.74c-0.31,0.05-0.65,0.07-0.96,0.02c-0.99-0.13-1.91-0.49-2.83-0.83c-0.87-0.32-1.74-0.65-2.62-0.96
		c-1.33-0.46-2.67-0.91-4.09-0.89c-0.04-0.06-0.07-0.09-0.09-0.13c-0.27-0.84-0.61-1.64-1.15-2.34c-0.18-0.25-0.13-0.51,0.03-0.75
		c0.09-0.14,0.2-0.27,0.28-0.42c0.17-0.31,0.11-0.6-0.15-0.84c-0.26-0.24-0.66-0.27-0.94-0.08c-0.28,0.19-0.39,0.49-0.27,0.82
		c0.05,0.14,0.14,0.28,0.22,0.4c0.3,0.42,0.32,0.69,0.01,1.07c-0.44,0.54-0.72,1.14-0.88,1.81c-0.09,0.38-0.2,0.44-0.58,0.5
		c-0.63,0.09-1.26,0.17-1.88,0.3c-1.3,0.28-2.52,0.8-3.76,1.25c-1.01,0.36-2.02,0.7-3.05,1.01c-0.5,0.16-1.02,0.19-1.55,0.05
		c-0.4-0.11-0.64-0.34-0.66-0.72c-0.02-0.32-0.01-0.65,0.03-0.97c0.08-0.52-0.08-0.83-0.59-1.01c-0.42-0.15-0.86-0.12-1.29-0.02
		c-0.56,0.14-0.98,0.45-1.12,1.03c-0.15,0.59-0.01,1.13,0.43,1.55c0.22,0.21,0.5,0.37,0.75,0.54c0.11,0.07,0.22,0.14,0.35,0.21
		l-5.4,12.16l0.05,0.02c-0.03,0.17,0,0.31,0.12,0.48c0.6,0.9,1.37,1.61,2.33,2.11c1.47,0.77,3.04,1.01,4.68,0.77
		c1.28-0.19,2.45-0.66,3.45-1.49c0.56-0.46,1.02-1.01,1.36-1.64c-0.04-0.08-0.07-0.15-0.11-0.23l0.22-0.1l-5.34-11.58
		c0.02,0,0.04,0,0.06,0c0.11,0,0.23,0,0.34,0.02c1.15,0.21,2.29,0.14,3.39-0.18c1.01-0.3,1.99-0.7,2.99-1.05
		c0.84-0.29,1.67-0.6,2.52-0.86c0.33-0.1,0.69-0.14,1.04-0.13c0.58,0.01,0.86,0.32,0.91,0.89c0.05,0.45,0.09,0.9,0.19,1.34
		c0.06,0.3,0.17,0.61,0.34,0.85c0.25,0.36,0.33,0.73,0.33,1.15c-0.01,3.31,0,6.63,0,9.94c0,0.49,0,0.99-0.01,1.48
		c-0.01,0.33-0.13,0.63-0.32,0.9c-0.11,0.16-0.2,0.34-0.27,0.52c-0.43,1.07-0.84,2.15-1.3,3.21c-0.3,0.69-0.74,1.3-1.27,1.83
		c-0.91,0.89-1.97,1.36-3.27,1.32c-1.38-0.04-2.76-0.01-4.15-0.01c-0.11,0-0.21,0.02-0.33,0.04c-0.04,0.34-0.06,0.64-0.1,0.98
		c0.22,0.01,0.42,0.04,0.61,0.04c3.09,0,6.18-0.01,9.27-0.01c4.4,0,8.8-0.01,13.21-0.01c0.1,0,0.2,0,0.3,0
		c0.18,0.01,0.27-0.09,0.26-0.25c-0.01-0.25-0.04-0.5-0.06-0.76c-0.17-0.01-0.3-0.02-0.42-0.02c-1.48,0-2.96,0-4.44,0
		c-0.74,0-1.42-0.2-2.04-0.6c-0.86-0.56-1.54-1.28-1.98-2.21c-0.16-0.34-0.32-0.69-0.47-1.04c-0.49-1.12-0.99-2.24-1.46-3.38
		c-0.1-0.24-0.16-0.52-0.16-0.78c-0.01-3.72,0-7.45,0-11.17c0-0.15-0.01-0.31,0.02-0.46c0.03-0.16,0.08-0.33,0.17-0.47
		c0.34-0.49,0.52-1.03,0.58-1.61c0.04-0.34,0.06-0.67,0.1-1.01c0.04-0.33,0.22-0.53,0.55-0.62c0.4-0.11,0.81-0.14,1.21-0.04
		c0.48,0.12,0.95,0.25,1.41,0.42c1,0.38,1.99,0.79,2.99,1.17c1.55,0.59,3.15,0.87,4.81,0.57c0.1-0.02,0.22-0.05,0.32,0l-5.25,11.55
		l0.12,0.06c-0.08,0.35-0.01,0.67,0.26,0.97c0.29,0.33,0.56,0.68,0.91,0.94c2.21,1.68,4.64,2.07,7.26,1.14
		c1.32-0.47,2.42-1.25,3.2-2.45c0.15-0.22,0.18-0.42,0.11-0.65l0.12-0.06L264.23,243.8z M235.71,256.16
		c-1.54,0.03-3.08,0.01-4.61,0.02l4.61-10.38V256.16z M241.44,256.11h-4.87v-10.55L241.44,256.11z M263.24,256.17
		c-0.09,0.01-0.16,0.01-0.23,0.01c-1.45,0-2.9,0-4.36,0c-0.07,0-0.14-0.01-0.21-0.02l4.79-10.56V256.17z M264.11,256.11v-10.45
		l4.63,10.43C267.66,256.14,265.05,256.16,264.11,256.11z"/>
</g>
</svg>
