<?xml version="1.0" encoding="utf-8"?>
<!-- Generator: Adobe Illustrator 26.5.0, SVG Export Plug-In . SVG Version: 6.00 Build 0)  -->
<svg version="1.1" id="Layer_1" xmlns="http://www.w3.org/2000/svg" xmlns:xlink="http://www.w3.org/1999/xlink" x="0px" y="0px"
	 viewBox="0 0 500 500" style="enable-background:new 0 0 500 500;" xml:space="preserve">
<style type="text/css">
	.st0{fill:#131313;}
</style>
<g>
	<g>
		<g>
			<polygon class="st0" points="218.44,318.89 218.23,322.96 215.86,322.03 			"/>
			<path class="st0" d="M248.67,325.03l-1.36,3.81l2.58,0.04L248.67,325.03z M248.67,325.03l-1.36,3.81l2.58,0.04L248.67,325.03z
				 M248.67,325.03l-1.36,3.81l2.58,0.04L248.67,325.03z M260.94,323.89c-0.34-0.25-0.76-0.38-1.27-0.3l-1.95,0.21l0.38,3.22
				l1.86-0.25c0.55-0.04,0.97-0.21,1.23-0.51s0.38-0.72,0.3-1.19C261.45,324.57,261.28,324.19,260.94,323.89z M260.94,323.89
				c-0.34-0.25-0.76-0.38-1.27-0.3l-1.95,0.21l0.38,3.22l1.86-0.25c0.55-0.04,0.97-0.21,1.23-0.51s0.38-0.72,0.3-1.19
				C261.45,324.57,261.28,324.19,260.94,323.89z M248.67,325.03l-1.36,3.81l2.58,0.04L248.67,325.03z M248.67,325.03l-1.36,3.81
				l2.58,0.04L248.67,325.03z M260.94,323.89c-0.34-0.25-0.76-0.38-1.27-0.3l-1.95,0.21l0.38,3.22l1.86-0.25
				c0.55-0.04,0.97-0.21,1.23-0.51s0.38-0.72,0.3-1.19C261.45,324.57,261.28,324.19,260.94,323.89z M260.94,323.89
				c-0.34-0.25-0.76-0.38-1.27-0.3l-1.95,0.21l0.38,3.22l1.86-0.25c0.55-0.04,0.97-0.21,1.23-0.51s0.38-0.72,0.3-1.19
				C261.45,324.57,261.28,324.19,260.94,323.89z M248.67,325.03l-1.36,3.81l2.58,0.04L248.67,325.03z M248.67,325.03l-1.36,3.81
				l2.58,0.04L248.67,325.03z M260.94,323.89c-0.34-0.25-0.76-0.38-1.27-0.3l-1.95,0.21l0.38,3.22l1.86-0.25
				c0.55-0.04,0.97-0.21,1.23-0.51s0.38-0.72,0.3-1.19C261.45,324.57,261.28,324.19,260.94,323.89z M260.94,323.89
				c-0.34-0.25-0.76-0.38-1.27-0.3l-1.95,0.21l0.38,3.22l1.86-0.25c0.55-0.04,0.97-0.21,1.23-0.51s0.38-0.72,0.3-1.19
				C261.45,324.57,261.28,324.19,260.94,323.89z M248.67,325.03l-1.36,3.81l2.58,0.04L248.67,325.03z M248.67,325.03l-1.36,3.81
				l2.58,0.04L248.67,325.03z M260.94,323.89c-0.34-0.25-0.76-0.38-1.27-0.3l-1.95,0.21l0.38,3.22l1.86-0.25
				c0.55-0.04,0.97-0.21,1.23-0.51s0.38-0.72,0.3-1.19C261.45,324.57,261.28,324.19,260.94,323.89z M260.94,323.89
				c-0.34-0.25-0.76-0.38-1.27-0.3l-1.95,0.21l0.38,3.22l1.86-0.25c0.55-0.04,0.97-0.21,1.23-0.51s0.38-0.72,0.3-1.19
				C261.45,324.57,261.28,324.19,260.94,323.89z M248.67,325.03l-1.36,3.81l2.58,0.04L248.67,325.03z M248.67,325.03l-1.36,3.81
				l2.58,0.04L248.67,325.03z M260.94,323.89c-0.34-0.25-0.76-0.38-1.27-0.3l-1.95,0.21l0.38,3.22l1.86-0.25
				c0.55-0.04,0.97-0.21,1.23-0.51s0.38-0.72,0.3-1.19C261.45,324.57,261.28,324.19,260.94,323.89z M260.94,323.89
				c-0.34-0.25-0.76-0.38-1.27-0.3l-1.95,0.21l0.38,3.22l1.86-0.25c0.55-0.04,0.97-0.21,1.23-0.51s0.38-0.72,0.3-1.19
				C261.45,324.57,261.28,324.19,260.94,323.89z M248.67,325.03l-1.36,3.81l2.58,0.04L248.67,325.03z M248.67,325.03l-1.36,3.81
				l2.58,0.04L248.67,325.03z M260.94,323.89c-0.34-0.25-0.76-0.38-1.27-0.3l-1.95,0.21l0.38,3.22l1.86-0.25
				c0.55-0.04,0.97-0.21,1.23-0.51s0.38-0.72,0.3-1.19C261.45,324.57,261.28,324.19,260.94,323.89z M260.94,323.89
				c-0.34-0.25-0.76-0.38-1.27-0.3l-1.95,0.21l0.38,3.22l1.86-0.25c0.55-0.04,0.97-0.21,1.23-0.51s0.38-0.72,0.3-1.19
				C261.45,324.57,261.28,324.19,260.94,323.89z M248.67,325.03l-1.36,3.81l2.58,0.04L248.67,325.03z M248.67,325.03l-1.36,3.81
				l2.58,0.04L248.67,325.03z M260.94,323.89c-0.34-0.25-0.76-0.38-1.27-0.3l-1.95,0.21l0.38,3.22l1.86-0.25
				c0.55-0.04,0.97-0.21,1.23-0.51s0.38-0.72,0.3-1.19C261.45,324.57,261.28,324.19,260.94,323.89z M260.94,323.89
				c-0.34-0.25-0.76-0.38-1.27-0.3l-1.95,0.21l0.38,3.22l1.86-0.25c0.55-0.04,0.97-0.21,1.23-0.51s0.38-0.72,0.3-1.19
				C261.45,324.57,261.28,324.19,260.94,323.89z M248.67,325.03l-1.36,3.81l2.58,0.04L248.67,325.03z M248.67,325.03l-1.36,3.81
				l2.58,0.04L248.67,325.03z M260.94,323.89c-0.34-0.25-0.76-0.38-1.27-0.3l-1.95,0.21l0.38,3.22l1.86-0.25
				c0.55-0.04,0.97-0.21,1.23-0.51s0.38-0.72,0.3-1.19C261.45,324.57,261.28,324.19,260.94,323.89z M260.94,323.89
				c-0.34-0.25-0.76-0.38-1.27-0.3l-1.95,0.21l0.38,3.22l1.86-0.25c0.55-0.04,0.97-0.21,1.23-0.51s0.38-0.72,0.3-1.19
				C261.45,324.57,261.28,324.19,260.94,323.89z M248.67,325.03l-1.36,3.81l2.58,0.04L248.67,325.03z M248.67,325.03l-1.36,3.81
				l2.58,0.04L248.67,325.03z M260.94,323.89c-0.34-0.25-0.76-0.38-1.27-0.3l-1.95,0.21l0.38,3.22l1.86-0.25
				c0.55-0.04,0.97-0.21,1.23-0.51s0.38-0.72,0.3-1.19C261.45,324.57,261.28,324.19,260.94,323.89z M260.94,323.89
				c-0.34-0.25-0.76-0.38-1.27-0.3l-1.95,0.21l0.38,3.22l1.86-0.25c0.55-0.04,0.97-0.21,1.23-0.51s0.38-0.72,0.3-1.19
				C261.45,324.57,261.28,324.19,260.94,323.89z M248.67,325.03l-1.36,3.81l2.58,0.04L248.67,325.03z M248.67,325.03l-1.36,3.81
				l2.58,0.04L248.67,325.03z M260.94,323.89c-0.34-0.25-0.76-0.38-1.27-0.3l-1.95,0.21l0.38,3.22l1.86-0.25
				c0.55-0.04,0.97-0.21,1.23-0.51s0.38-0.72,0.3-1.19C261.45,324.57,261.28,324.19,260.94,323.89z M260.94,323.89
				c-0.34-0.25-0.76-0.38-1.27-0.3l-1.95,0.21l0.38,3.22l1.86-0.25c0.55-0.04,0.97-0.21,1.23-0.51s0.38-0.72,0.3-1.19
				C261.45,324.57,261.28,324.19,260.94,323.89z M248.67,325.03l-1.36,3.81l2.58,0.04L248.67,325.03z M248.67,325.03l-1.36,3.81
				l2.58,0.04L248.67,325.03z M260.94,323.89c-0.34-0.25-0.76-0.38-1.27-0.3l-1.95,0.21l0.38,3.22l1.86-0.25
				c0.55-0.04,0.97-0.21,1.23-0.51s0.38-0.72,0.3-1.19C261.45,324.57,261.28,324.19,260.94,323.89z M260.94,323.89
				c-0.34-0.25-0.76-0.38-1.27-0.3l-1.95,0.21l0.38,3.22l1.86-0.25c0.55-0.04,0.97-0.21,1.23-0.51s0.38-0.72,0.3-1.19
				C261.45,324.57,261.28,324.19,260.94,323.89z M248.67,325.03l-1.36,3.81l2.58,0.04L248.67,325.03z M248.67,325.03l-1.36,3.81
				l2.58,0.04L248.67,325.03z M260.94,323.89c-0.34-0.25-0.76-0.38-1.27-0.3l-1.95,0.21l0.38,3.22l1.86-0.25
				c0.55-0.04,0.97-0.21,1.23-0.51s0.38-0.72,0.3-1.19C261.45,324.57,261.28,324.19,260.94,323.89z M260.94,323.89
				c-0.34-0.25-0.76-0.38-1.27-0.3l-1.95,0.21l0.38,3.22l1.86-0.25c0.55-0.04,0.97-0.21,1.23-0.51s0.38-0.72,0.3-1.19
				C261.45,324.57,261.28,324.19,260.94,323.89z M248.67,325.03l-1.36,3.81l2.58,0.04L248.67,325.03z M248.67,325.03l-1.36,3.81
				l2.58,0.04L248.67,325.03z M260.94,323.89c-0.34-0.25-0.76-0.38-1.27-0.3l-1.95,0.21l0.38,3.22l1.86-0.25
				c0.55-0.04,0.97-0.21,1.23-0.51s0.38-0.72,0.3-1.19C261.45,324.57,261.28,324.19,260.94,323.89z M260.94,323.89
				c-0.34-0.25-0.76-0.38-1.27-0.3l-1.95,0.21l0.38,3.22l1.86-0.25c0.55-0.04,0.97-0.21,1.23-0.51s0.38-0.72,0.3-1.19
				C261.45,324.57,261.28,324.19,260.94,323.89z M248.67,325.03l-1.36,3.81l2.58,0.04L248.67,325.03z M248.67,325.03l-1.36,3.81
				l2.58,0.04L248.67,325.03z M260.94,323.89c-0.34-0.25-0.76-0.38-1.27-0.3l-1.95,0.21l0.38,3.22l1.86-0.25
				c0.55-0.04,0.97-0.21,1.23-0.51s0.38-0.72,0.3-1.19C261.45,324.57,261.28,324.19,260.94,323.89z M260.94,323.89
				c-0.34-0.25-0.76-0.38-1.27-0.3l-1.95,0.21l0.38,3.22l1.86-0.25c0.55-0.04,0.97-0.21,1.23-0.51s0.38-0.72,0.3-1.19
				C261.45,324.57,261.28,324.19,260.94,323.89z M248.67,325.03l-1.36,3.81l2.58,0.04L248.67,325.03z M248.67,325.03l-1.36,3.81
				l2.58,0.04L248.67,325.03z M260.94,323.89c-0.34-0.25-0.76-0.38-1.27-0.3l-1.95,0.21l0.38,3.22l1.86-0.25
				c0.55-0.04,0.97-0.21,1.23-0.51s0.38-0.72,0.3-1.19C261.45,324.57,261.28,324.19,260.94,323.89z M260.94,323.89
				c-0.34-0.25-0.76-0.38-1.27-0.3l-1.95,0.21l0.38,3.22l1.86-0.25c0.55-0.04,0.97-0.21,1.23-0.51s0.38-0.72,0.3-1.19
				C261.45,324.57,261.28,324.19,260.94,323.89z M248.67,325.03l-1.36,3.81l2.58,0.04L248.67,325.03z M248.67,325.03l-1.36,3.81
				l2.58,0.04L248.67,325.03z M260.94,323.89c-0.34-0.25-0.76-0.38-1.27-0.3l-1.95,0.21l0.38,3.22l1.86-0.25
				c0.55-0.04,0.97-0.21,1.23-0.51s0.38-0.72,0.3-1.19C261.45,324.57,261.28,324.19,260.94,323.89z M260.94,323.89
				c-0.34-0.25-0.76-0.38-1.27-0.3l-1.95,0.21l0.38,3.22l1.86-0.25c0.55-0.04,0.97-0.21,1.23-0.51s0.38-0.72,0.3-1.19
				C261.45,324.57,261.28,324.19,260.94,323.89z M248.67,325.03l-1.36,3.81l2.58,0.04L248.67,325.03z M248.67,325.03l-1.36,3.81
				l2.58,0.04L248.67,325.03z M260.94,323.89c-0.34-0.25-0.76-0.38-1.27-0.3l-1.95,0.21l0.38,3.22l1.86-0.25
				c0.55-0.04,0.97-0.21,1.23-0.51s0.38-0.72,0.3-1.19C261.45,324.57,261.28,324.19,260.94,323.89z M260.94,323.89
				c-0.34-0.25-0.76-0.38-1.27-0.3l-1.95,0.21l0.38,3.22l1.86-0.25c0.55-0.04,0.97-0.21,1.23-0.51s0.38-0.72,0.3-1.19
				C261.45,324.57,261.28,324.19,260.94,323.89z M248.67,325.03l-1.36,3.81l2.58,0.04L248.67,325.03z M248.67,325.03l-1.36,3.81
				l2.58,0.04L248.67,325.03z M260.94,323.89c-0.34-0.25-0.76-0.38-1.27-0.3l-1.95,0.21l0.38,3.22l1.86-0.25
				c0.55-0.04,0.97-0.21,1.23-0.51s0.38-0.72,0.3-1.19C261.45,324.57,261.28,324.19,260.94,323.89z M260.94,323.89
				c-0.34-0.25-0.76-0.38-1.27-0.3l-1.95,0.21l0.38,3.22l1.86-0.25c0.55-0.04,0.97-0.21,1.23-0.51s0.38-0.72,0.3-1.19
				C261.45,324.57,261.28,324.19,260.94,323.89z M248.67,325.03l-1.36,3.81l2.58,0.04L248.67,325.03z M248.67,325.03l-1.36,3.81
				l2.58,0.04L248.67,325.03z M260.94,323.89c-0.34-0.25-0.76-0.38-1.27-0.3l-1.95,0.21l0.38,3.22l1.86-0.25
				c0.55-0.04,0.97-0.21,1.23-0.51s0.38-0.72,0.3-1.19C261.45,324.57,261.28,324.19,260.94,323.89z M260.94,323.89
				c-0.34-0.25-0.76-0.38-1.27-0.3l-1.95,0.21l0.38,3.22l1.86-0.25c0.55-0.04,0.97-0.21,1.23-0.51s0.38-0.72,0.3-1.19
				C261.45,324.57,261.28,324.19,260.94,323.89z M248.67,325.03l-1.36,3.81l2.58,0.04L248.67,325.03z M248.67,325.03l-1.36,3.81
				l2.58,0.04L248.67,325.03z M260.94,323.89c-0.34-0.25-0.76-0.38-1.27-0.3l-1.95,0.21l0.38,3.22l1.86-0.25
				c0.55-0.04,0.97-0.21,1.23-0.51s0.38-0.72,0.3-1.19C261.45,324.57,261.28,324.19,260.94,323.89z M260.94,323.89
				c-0.34-0.25-0.76-0.38-1.27-0.3l-1.95,0.21l0.38,3.22l1.86-0.25c0.55-0.04,0.97-0.21,1.23-0.51s0.38-0.72,0.3-1.19
				C261.45,324.57,261.28,324.19,260.94,323.89z M248.67,325.03l-1.36,3.81l2.58,0.04L248.67,325.03z M248.67,325.03l-1.36,3.81
				l2.58,0.04L248.67,325.03z M260.94,323.89c-0.34-0.25-0.76-0.38-1.27-0.3l-1.95,0.21l0.38,3.22l1.86-0.25
				c0.55-0.04,0.97-0.21,1.23-0.51s0.38-0.72,0.3-1.19C261.45,324.57,261.28,324.19,260.94,323.89z M260.94,323.89
				c-0.34-0.25-0.76-0.38-1.27-0.3l-1.95,0.21l0.38,3.22l1.86-0.25c0.55-0.04,0.97-0.21,1.23-0.51s0.38-0.72,0.3-1.19
				C261.45,324.57,261.28,324.19,260.94,323.89z M248.67,325.03l-1.36,3.81l2.58,0.04L248.67,325.03z M248.67,325.03l-1.36,3.81
				l2.58,0.04L248.67,325.03z M260.94,323.89c-0.34-0.25-0.76-0.38-1.27-0.3l-1.95,0.21l0.38,3.22l1.86-0.25
				c0.55-0.04,0.97-0.21,1.23-0.51s0.38-0.72,0.3-1.19C261.45,324.57,261.28,324.19,260.94,323.89z M260.94,323.89
				c-0.34-0.25-0.76-0.38-1.27-0.3l-1.95,0.21l0.38,3.22l1.86-0.25c0.55-0.04,0.97-0.21,1.23-0.51s0.38-0.72,0.3-1.19
				C261.45,324.57,261.28,324.19,260.94,323.89z M248.67,325.03l-1.36,3.81l2.58,0.04L248.67,325.03z M248.67,325.03l-1.36,3.81
				l2.58,0.04L248.67,325.03z M260.94,323.89c-0.34-0.25-0.76-0.38-1.27-0.3l-1.95,0.21l0.38,3.22l1.86-0.25
				c0.55-0.04,0.97-0.21,1.23-0.51s0.38-0.72,0.3-1.19C261.45,324.57,261.28,324.19,260.94,323.89z M260.94,323.89
				c-0.34-0.25-0.76-0.38-1.27-0.3l-1.95,0.21l0.38,3.22l1.86-0.25c0.55-0.04,0.97-0.21,1.23-0.51s0.38-0.72,0.3-1.19
				C261.45,324.57,261.28,324.19,260.94,323.89z M248.67,325.03l-1.36,3.81l2.58,0.04L248.67,325.03z M248.67,325.03l-1.36,3.81
				l2.58,0.04L248.67,325.03z M260.94,323.89c-0.34-0.25-0.76-0.38-1.27-0.3l-1.95,0.21l0.38,3.22l1.86-0.25
				c0.55-0.04,0.97-0.21,1.23-0.51s0.38-0.72,0.3-1.19C261.45,324.57,261.28,324.19,260.94,323.89z M260.94,323.89
				c-0.34-0.25-0.76-0.38-1.27-0.3l-1.95,0.21l0.38,3.22l1.86-0.25c0.55-0.04,0.97-0.21,1.23-0.51s0.38-0.72,0.3-1.19
				C261.45,324.57,261.28,324.19,260.94,323.89z M248.67,325.03l-1.36,3.81l2.58,0.04L248.67,325.03z M248.67,325.03l-1.36,3.81
				l2.58,0.04L248.67,325.03z M260.94,323.89c-0.34-0.25-0.76-0.38-1.27-0.3l-1.95,0.21l0.38,3.22l1.86-0.25
				c0.55-0.04,0.97-0.21,1.23-0.51s0.38-0.72,0.3-1.19C261.45,324.57,261.28,324.19,260.94,323.89z M260.94,323.89
				c-0.34-0.25-0.76-0.38-1.27-0.3l-1.95,0.21l0.38,3.22l1.86-0.25c0.55-0.04,0.97-0.21,1.23-0.51s0.38-0.72,0.3-1.19
				C261.45,324.57,261.28,324.19,260.94,323.89z M248.67,325.03l-1.36,3.81l2.58,0.04L248.67,325.03z M248.67,325.03l-1.36,3.81
				l2.58,0.04L248.67,325.03z M260.94,323.89c-0.34-0.25-0.76-0.38-1.27-0.3l-1.95,0.21l0.38,3.22l1.86-0.25
				c0.55-0.04,0.97-0.21,1.23-0.51s0.38-0.72,0.3-1.19C261.45,324.57,261.28,324.19,260.94,323.89z M260.94,323.89
				c-0.34-0.25-0.76-0.38-1.27-0.3l-1.95,0.21l0.38,3.22l1.86-0.25c0.55-0.04,0.97-0.21,1.23-0.51s0.38-0.72,0.3-1.19
				C261.45,324.57,261.28,324.19,260.94,323.89z M248.67,325.03l-1.36,3.81l2.58,0.04L248.67,325.03z M248.67,325.03l-1.36,3.81
				l2.58,0.04L248.67,325.03z M260.94,323.89c-0.34-0.25-0.76-0.38-1.27-0.3l-1.95,0.21l0.38,3.22l1.86-0.25
				c0.55-0.04,0.97-0.21,1.23-0.51s0.38-0.72,0.3-1.19C261.45,324.57,261.28,324.19,260.94,323.89z M260.94,323.89
				c-0.34-0.25-0.76-0.38-1.27-0.3l-1.95,0.21l0.38,3.22l1.86-0.25c0.55-0.04,0.97-0.21,1.23-0.51s0.38-0.72,0.3-1.19
				C261.45,324.57,261.28,324.19,260.94,323.89z M248.67,325.03l-1.36,3.81l2.58,0.04L248.67,325.03z M248.67,325.03l-1.36,3.81
				l2.58,0.04L248.67,325.03z M260.94,323.89c-0.34-0.25-0.76-0.38-1.27-0.3l-1.95,0.21l0.38,3.22l1.86-0.25
				c0.55-0.04,0.97-0.21,1.23-0.51s0.38-0.72,0.3-1.19C261.45,324.57,261.28,324.19,260.94,323.89z M260.94,323.89
				c-0.34-0.25-0.76-0.38-1.27-0.3l-1.95,0.21l0.38,3.22l1.86-0.25c0.55-0.04,0.97-0.21,1.23-0.51s0.38-0.72,0.3-1.19
				C261.45,324.57,261.28,324.19,260.94,323.89z M248.67,325.03l-1.36,3.81l2.58,0.04L248.67,325.03z M316.27,312.08l-16.21-17.69
				c0,0-1.01,0.97-3.09,2.41c-2.07,1.44-5.21,3.43-9.44,5.38c-8.3,3.94-20.83,7.83-37.5,7.83c-25.1,0-40.76-8.85-46.99-13.21
				c-2.07-1.44-3.09-2.41-3.09-2.41l-16.21,17.69l-1.99,2.16c0,0,18.5,27.94,68.28,27.94s68.24-27.94,68.24-27.94L316.27,312.08z
				 M220.14,327.83l-2.07-0.85l0.08-2.24l-3.47-1.31l-1.4,1.69l-2.12-0.8l7.28-8.21l1.86,0.72L220.14,327.83z M231.99,322.24
				l-3.05-0.85l-2.24,8.26l-2.03-0.55l2.24-8.25l-3.01-0.85l0.47-1.65l8.09,2.2L231.99,322.24z M241.51,332.44l-2.5-0.38l-1.99-4.53
				l-1.23-0.21l-0.59,4.19l-2.12-0.34l1.52-10.16l2.08,0.3l-0.59,4.06l0.97,0.17l3.09-3.73l2.54,0.38l-3.85,4.36L241.51,332.44z
				 M251.12,332.74l-0.68-2.12l-3.73-0.08l-0.76,2.12l-2.24-0.04l4.02-10.2l1.95,0.04l3.68,10.33L251.12,332.74z M262.89,327.32
				c-0.63,0.63-1.52,1.06-2.75,1.19l-1.86,0.21l0.42,3.6l-2.12,0.25l-1.18-10.24l4.02-0.47c0.76-0.08,1.44,0,2.08,0.21
				c0.59,0.21,1.1,0.55,1.48,1.02c0.38,0.51,0.59,1.06,0.68,1.74C263.74,325.79,263.52,326.64,262.89,327.32z M271.91,328.16
				l-0.13,0.59c-0.3,1.02-0.97,1.69-2.08,1.95l-0.72,0.17l-0.42-1.65c0.13-0.04,0.3-0.04,0.55-0.13c0.3-0.08,0.51-0.17,0.68-0.34
				c0.13-0.13,0.25-0.34,0.3-0.64l0.08-0.72l-5.25-6.26l2.2-0.55l3.39,4.19l0.64-5.16l2.24-0.55L271.91,328.16z M282.49,324.78
				l-0.08,0.64c-0.17,1.06-0.76,1.78-1.78,2.16l-0.72,0.21l-0.59-1.57c0.08-0.04,0.25-0.08,0.51-0.17c0.3-0.13,0.47-0.25,0.63-0.42
				c0.13-0.13,0.17-0.38,0.21-0.68v-0.72l-5.97-5.59l2.16-0.8l3.81,3.72l0.08-5.21l2.12-0.8L282.49,324.78z M259.67,323.59
				l-1.95,0.21l0.38,3.22l1.86-0.25c0.55-0.04,0.97-0.21,1.23-0.51s0.38-0.72,0.3-1.19c-0.04-0.51-0.21-0.89-0.55-1.19
				C260.6,323.64,260.18,323.51,259.67,323.59z M247.31,328.84l2.58,0.04l-1.23-3.85L247.31,328.84z M248.67,325.03l-1.36,3.81
				l2.58,0.04L248.67,325.03z M260.94,323.89c-0.34-0.25-0.76-0.38-1.27-0.3l-1.95,0.21l0.38,3.22l1.86-0.25
				c0.55-0.04,0.97-0.21,1.23-0.51s0.38-0.72,0.3-1.19C261.45,324.57,261.28,324.19,260.94,323.89z M260.94,323.89
				c-0.34-0.25-0.76-0.38-1.27-0.3l-1.95,0.21l0.38,3.22l1.86-0.25c0.55-0.04,0.97-0.21,1.23-0.51s0.38-0.72,0.3-1.19
				C261.45,324.57,261.28,324.19,260.94,323.89z M248.67,325.03l-1.36,3.81l2.58,0.04L248.67,325.03z M248.67,325.03l-1.36,3.81
				l2.58,0.04L248.67,325.03z M260.94,323.89c-0.34-0.25-0.76-0.38-1.27-0.3l-1.95,0.21l0.38,3.22l1.86-0.25
				c0.55-0.04,0.97-0.21,1.23-0.51s0.38-0.72,0.3-1.19C261.45,324.57,261.28,324.19,260.94,323.89z M260.94,323.89
				c-0.34-0.25-0.76-0.38-1.27-0.3l-1.95,0.21l0.38,3.22l1.86-0.25c0.55-0.04,0.97-0.21,1.23-0.51s0.38-0.72,0.3-1.19
				C261.45,324.57,261.28,324.19,260.94,323.89z M248.67,325.03l-1.36,3.81l2.58,0.04L248.67,325.03z M248.67,325.03l-1.36,3.81
				l2.58,0.04L248.67,325.03z M260.94,323.89c-0.34-0.25-0.76-0.38-1.27-0.3l-1.95,0.21l0.38,3.22l1.86-0.25
				c0.55-0.04,0.97-0.21,1.23-0.51s0.38-0.72,0.3-1.19C261.45,324.57,261.28,324.19,260.94,323.89z M260.94,323.89
				c-0.34-0.25-0.76-0.38-1.27-0.3l-1.95,0.21l0.38,3.22l1.86-0.25c0.55-0.04,0.97-0.21,1.23-0.51s0.38-0.72,0.3-1.19
				C261.45,324.57,261.28,324.19,260.94,323.89z M248.67,325.03l-1.36,3.81l2.58,0.04L248.67,325.03z M248.67,325.03l-1.36,3.81
				l2.58,0.04L248.67,325.03z M260.94,323.89c-0.34-0.25-0.76-0.38-1.27-0.3l-1.95,0.21l0.38,3.22l1.86-0.25
				c0.55-0.04,0.97-0.21,1.23-0.51s0.38-0.72,0.3-1.19C261.45,324.57,261.28,324.19,260.94,323.89z M260.94,323.89
				c-0.34-0.25-0.76-0.38-1.27-0.3l-1.95,0.21l0.38,3.22l1.86-0.25c0.55-0.04,0.97-0.21,1.23-0.51s0.38-0.72,0.3-1.19
				C261.45,324.57,261.28,324.19,260.94,323.89z M248.67,325.03l-1.36,3.81l2.58,0.04L248.67,325.03z M248.67,325.03l-1.36,3.81
				l2.58,0.04L248.67,325.03z M260.94,323.89c-0.34-0.25-0.76-0.38-1.27-0.3l-1.95,0.21l0.38,3.22l1.86-0.25
				c0.55-0.04,0.97-0.21,1.23-0.51s0.38-0.72,0.3-1.19C261.45,324.57,261.28,324.19,260.94,323.89z M260.94,323.89
				c-0.34-0.25-0.76-0.38-1.27-0.3l-1.95,0.21l0.38,3.22l1.86-0.25c0.55-0.04,0.97-0.21,1.23-0.51s0.38-0.72,0.3-1.19
				C261.45,324.57,261.28,324.19,260.94,323.89z M248.67,325.03l-1.36,3.81l2.58,0.04L248.67,325.03z M248.67,325.03l-1.36,3.81
				l2.58,0.04L248.67,325.03z M260.94,323.89c-0.34-0.25-0.76-0.38-1.27-0.3l-1.95,0.21l0.38,3.22l1.86-0.25
				c0.55-0.04,0.97-0.21,1.23-0.51s0.38-0.72,0.3-1.19C261.45,324.57,261.28,324.19,260.94,323.89z M260.94,323.89
				c-0.34-0.25-0.76-0.38-1.27-0.3l-1.95,0.21l0.38,3.22l1.86-0.25c0.55-0.04,0.97-0.21,1.23-0.51s0.38-0.72,0.3-1.19
				C261.45,324.57,261.28,324.19,260.94,323.89z M248.67,325.03l-1.36,3.81l2.58,0.04L248.67,325.03z M248.67,325.03l-1.36,3.81
				l2.58,0.04L248.67,325.03z M260.94,323.89c-0.34-0.25-0.76-0.38-1.27-0.3l-1.95,0.21l0.38,3.22l1.86-0.25
				c0.55-0.04,0.97-0.21,1.23-0.51s0.38-0.72,0.3-1.19C261.45,324.57,261.28,324.19,260.94,323.89z M260.94,323.89
				c-0.34-0.25-0.76-0.38-1.27-0.3l-1.95,0.21l0.38,3.22l1.86-0.25c0.55-0.04,0.97-0.21,1.23-0.51s0.38-0.72,0.3-1.19
				C261.45,324.57,261.28,324.19,260.94,323.89z M248.67,325.03l-1.36,3.81l2.58,0.04L248.67,325.03z M248.67,325.03l-1.36,3.81
				l2.58,0.04L248.67,325.03z M260.94,323.89c-0.34-0.25-0.76-0.38-1.27-0.3l-1.95,0.21l0.38,3.22l1.86-0.25
				c0.55-0.04,0.97-0.21,1.23-0.51s0.38-0.72,0.3-1.19C261.45,324.57,261.28,324.19,260.94,323.89z M260.94,323.89
				c-0.34-0.25-0.76-0.38-1.27-0.3l-1.95,0.21l0.38,3.22l1.86-0.25c0.55-0.04,0.97-0.21,1.23-0.51s0.38-0.72,0.3-1.19
				C261.45,324.57,261.28,324.19,260.94,323.89z M248.67,325.03l-1.36,3.81l2.58,0.04L248.67,325.03z M248.67,325.03l-1.36,3.81
				l2.58,0.04L248.67,325.03z M260.94,323.89c-0.34-0.25-0.76-0.38-1.27-0.3l-1.95,0.21l0.38,3.22l1.86-0.25
				c0.55-0.04,0.97-0.21,1.23-0.51s0.38-0.72,0.3-1.19C261.45,324.57,261.28,324.19,260.94,323.89z M260.94,323.89
				c-0.34-0.25-0.76-0.38-1.27-0.3l-1.95,0.21l0.38,3.22l1.86-0.25c0.55-0.04,0.97-0.21,1.23-0.51s0.38-0.72,0.3-1.19
				C261.45,324.57,261.28,324.19,260.94,323.89z M248.67,325.03l-1.36,3.81l2.58,0.04L248.67,325.03z M248.67,325.03l-1.36,3.81
				l2.58,0.04L248.67,325.03z M260.94,323.89c-0.34-0.25-0.76-0.38-1.27-0.3l-1.95,0.21l0.38,3.22l1.86-0.25
				c0.55-0.04,0.97-0.21,1.23-0.51s0.38-0.72,0.3-1.19C261.45,324.57,261.28,324.19,260.94,323.89z M260.94,323.89
				c-0.34-0.25-0.76-0.38-1.27-0.3l-1.95,0.21l0.38,3.22l1.86-0.25c0.55-0.04,0.97-0.21,1.23-0.51s0.38-0.72,0.3-1.19
				C261.45,324.57,261.28,324.19,260.94,323.89z M248.67,325.03l-1.36,3.81l2.58,0.04L248.67,325.03z M248.67,325.03l-1.36,3.81
				l2.58,0.04L248.67,325.03z M260.94,323.89c-0.34-0.25-0.76-0.38-1.27-0.3l-1.95,0.21l0.38,3.22l1.86-0.25
				c0.55-0.04,0.97-0.21,1.23-0.51s0.38-0.72,0.3-1.19C261.45,324.57,261.28,324.19,260.94,323.89z M260.94,323.89
				c-0.34-0.25-0.76-0.38-1.27-0.3l-1.95,0.21l0.38,3.22l1.86-0.25c0.55-0.04,0.97-0.21,1.23-0.51s0.38-0.72,0.3-1.19
				C261.45,324.57,261.28,324.19,260.94,323.89z M248.67,325.03l-1.36,3.81l2.58,0.04L248.67,325.03z M248.67,325.03l-1.36,3.81
				l2.58,0.04L248.67,325.03z M260.94,323.89c-0.34-0.25-0.76-0.38-1.27-0.3l-1.95,0.21l0.38,3.22l1.86-0.25
				c0.55-0.04,0.97-0.21,1.23-0.51s0.38-0.72,0.3-1.19C261.45,324.57,261.28,324.19,260.94,323.89z M260.94,323.89
				c-0.34-0.25-0.76-0.38-1.27-0.3l-1.95,0.21l0.38,3.22l1.86-0.25c0.55-0.04,0.97-0.21,1.23-0.51s0.38-0.72,0.3-1.19
				C261.45,324.57,261.28,324.19,260.94,323.89z M248.67,325.03l-1.36,3.81l2.58,0.04L248.67,325.03z M248.67,325.03l-1.36,3.81
				l2.58,0.04L248.67,325.03z M260.94,323.89c-0.34-0.25-0.76-0.38-1.27-0.3l-1.95,0.21l0.38,3.22l1.86-0.25
				c0.55-0.04,0.97-0.21,1.23-0.51s0.38-0.72,0.3-1.19C261.45,324.57,261.28,324.19,260.94,323.89z M260.94,323.89
				c-0.34-0.25-0.76-0.38-1.27-0.3l-1.95,0.21l0.38,3.22l1.86-0.25c0.55-0.04,0.97-0.21,1.23-0.51s0.38-0.72,0.3-1.19
				C261.45,324.57,261.28,324.19,260.94,323.89z M248.67,325.03l-1.36,3.81l2.58,0.04L248.67,325.03z M248.67,325.03l-1.36,3.81
				l2.58,0.04L248.67,325.03z M260.94,323.89c-0.34-0.25-0.76-0.38-1.27-0.3l-1.95,0.21l0.38,3.22l1.86-0.25
				c0.55-0.04,0.97-0.21,1.23-0.51s0.38-0.72,0.3-1.19C261.45,324.57,261.28,324.19,260.94,323.89z M260.94,323.89
				c-0.34-0.25-0.76-0.38-1.27-0.3l-1.95,0.21l0.38,3.22l1.86-0.25c0.55-0.04,0.97-0.21,1.23-0.51s0.38-0.72,0.3-1.19
				C261.45,324.57,261.28,324.19,260.94,323.89z M248.67,325.03l-1.36,3.81l2.58,0.04L248.67,325.03z M248.67,325.03l-1.36,3.81
				l2.58,0.04L248.67,325.03z M260.94,323.89c-0.34-0.25-0.76-0.38-1.27-0.3l-1.95,0.21l0.38,3.22l1.86-0.25
				c0.55-0.04,0.97-0.21,1.23-0.51s0.38-0.72,0.3-1.19C261.45,324.57,261.28,324.19,260.94,323.89z M260.94,323.89
				c-0.34-0.25-0.76-0.38-1.27-0.3l-1.95,0.21l0.38,3.22l1.86-0.25c0.55-0.04,0.97-0.21,1.23-0.51s0.38-0.72,0.3-1.19
				C261.45,324.57,261.28,324.19,260.94,323.89z M248.67,325.03l-1.36,3.81l2.58,0.04L248.67,325.03z M248.67,325.03l-1.36,3.81
				l2.58,0.04L248.67,325.03z M260.94,323.89c-0.34-0.25-0.76-0.38-1.27-0.3l-1.95,0.21l0.38,3.22l1.86-0.25
				c0.55-0.04,0.97-0.21,1.23-0.51s0.38-0.72,0.3-1.19C261.45,324.57,261.28,324.19,260.94,323.89z M260.94,323.89
				c-0.34-0.25-0.76-0.38-1.27-0.3l-1.95,0.21l0.38,3.22l1.86-0.25c0.55-0.04,0.97-0.21,1.23-0.51s0.38-0.72,0.3-1.19
				C261.45,324.57,261.28,324.19,260.94,323.89z M248.67,325.03l-1.36,3.81l2.58,0.04L248.67,325.03z M248.67,325.03l-1.36,3.81
				l2.58,0.04L248.67,325.03z M260.94,323.89c-0.34-0.25-0.76-0.38-1.27-0.3l-1.95,0.21l0.38,3.22l1.86-0.25
				c0.55-0.04,0.97-0.21,1.23-0.51s0.38-0.72,0.3-1.19C261.45,324.57,261.28,324.19,260.94,323.89z M260.94,323.89
				c-0.34-0.25-0.76-0.38-1.27-0.3l-1.95,0.21l0.38,3.22l1.86-0.25c0.55-0.04,0.97-0.21,1.23-0.51s0.38-0.72,0.3-1.19
				C261.45,324.57,261.28,324.19,260.94,323.89z M248.67,325.03l-1.36,3.81l2.58,0.04L248.67,325.03z M248.67,325.03l-1.36,3.81
				l2.58,0.04L248.67,325.03z M260.94,323.89c-0.34-0.25-0.76-0.38-1.27-0.3l-1.95,0.21l0.38,3.22l1.86-0.25
				c0.55-0.04,0.97-0.21,1.23-0.51s0.38-0.72,0.3-1.19C261.45,324.57,261.28,324.19,260.94,323.89z M260.94,323.89
				c-0.34-0.25-0.76-0.38-1.27-0.3l-1.95,0.21l0.38,3.22l1.86-0.25c0.55-0.04,0.97-0.21,1.23-0.51s0.38-0.72,0.3-1.19
				C261.45,324.57,261.28,324.19,260.94,323.89z M248.67,325.03l-1.36,3.81l2.58,0.04L248.67,325.03z M248.67,325.03l-1.36,3.81
				l2.58,0.04L248.67,325.03z M260.94,323.89c-0.34-0.25-0.76-0.38-1.27-0.3l-1.95,0.21l0.38,3.22l1.86-0.25
				c0.55-0.04,0.97-0.21,1.23-0.51s0.38-0.72,0.3-1.19C261.45,324.57,261.28,324.19,260.94,323.89z M260.94,323.89
				c-0.34-0.25-0.76-0.38-1.27-0.3l-1.95,0.21l0.38,3.22l1.86-0.25c0.55-0.04,0.97-0.21,1.23-0.51s0.38-0.72,0.3-1.19
				C261.45,324.57,261.28,324.19,260.94,323.89z M248.67,325.03l-1.36,3.81l2.58,0.04L248.67,325.03z M248.67,325.03l-1.36,3.81
				l2.58,0.04L248.67,325.03z M260.94,323.89c-0.34-0.25-0.76-0.38-1.27-0.3l-1.95,0.21l0.38,3.22l1.86-0.25
				c0.55-0.04,0.97-0.21,1.23-0.51s0.38-0.72,0.3-1.19C261.45,324.57,261.28,324.19,260.94,323.89z M260.94,323.89
				c-0.34-0.25-0.76-0.38-1.27-0.3l-1.95,0.21l0.38,3.22l1.86-0.25c0.55-0.04,0.97-0.21,1.23-0.51s0.38-0.72,0.3-1.19
				C261.45,324.57,261.28,324.19,260.94,323.89z M248.67,325.03l-1.36,3.81l2.58,0.04L248.67,325.03z M248.67,325.03l-1.36,3.81
				l2.58,0.04L248.67,325.03z M260.94,323.89c-0.34-0.25-0.76-0.38-1.27-0.3l-1.95,0.21l0.38,3.22l1.86-0.25
				c0.55-0.04,0.97-0.21,1.23-0.51s0.38-0.72,0.3-1.19C261.45,324.57,261.28,324.19,260.94,323.89z M260.94,323.89
				c-0.34-0.25-0.76-0.38-1.27-0.3l-1.95,0.21l0.38,3.22l1.86-0.25c0.55-0.04,0.97-0.21,1.23-0.51s0.38-0.72,0.3-1.19
				C261.45,324.57,261.28,324.19,260.94,323.89z M248.67,325.03l-1.36,3.81l2.58,0.04L248.67,325.03z M248.67,325.03l-1.36,3.81
				l2.58,0.04L248.67,325.03z M260.94,323.89c-0.34-0.25-0.76-0.38-1.27-0.3l-1.95,0.21l0.38,3.22l1.86-0.25
				c0.55-0.04,0.97-0.21,1.23-0.51s0.38-0.72,0.3-1.19C261.45,324.57,261.28,324.19,260.94,323.89z M260.94,323.89
				c-0.34-0.25-0.76-0.38-1.27-0.3l-1.95,0.21l0.38,3.22l1.86-0.25c0.55-0.04,0.97-0.21,1.23-0.51s0.38-0.72,0.3-1.19
				C261.45,324.57,261.28,324.19,260.94,323.89z M248.67,325.03l-1.36,3.81l2.58,0.04L248.67,325.03z M248.67,325.03l-1.36,3.81
				l2.58,0.04L248.67,325.03z M260.94,323.89c-0.34-0.25-0.76-0.38-1.27-0.3l-1.95,0.21l0.38,3.22l1.86-0.25
				c0.55-0.04,0.97-0.21,1.23-0.51s0.38-0.72,0.3-1.19C261.45,324.57,261.28,324.19,260.94,323.89z M260.94,323.89
				c-0.34-0.25-0.76-0.38-1.27-0.3l-1.95,0.21l0.38,3.22l1.86-0.25c0.55-0.04,0.97-0.21,1.23-0.51s0.38-0.72,0.3-1.19
				C261.45,324.57,261.28,324.19,260.94,323.89z M248.67,325.03l-1.36,3.81l2.58,0.04L248.67,325.03z M248.67,325.03l-1.36,3.81
				l2.58,0.04L248.67,325.03z M260.94,323.89c-0.34-0.25-0.76-0.38-1.27-0.3l-1.95,0.21l0.38,3.22l1.86-0.25
				c0.55-0.04,0.97-0.21,1.23-0.51s0.38-0.72,0.3-1.19C261.45,324.57,261.28,324.19,260.94,323.89z M260.94,323.89
				c-0.34-0.25-0.76-0.38-1.27-0.3l-1.95,0.21l0.38,3.22l1.86-0.25c0.55-0.04,0.97-0.21,1.23-0.51s0.38-0.72,0.3-1.19
				C261.45,324.57,261.28,324.19,260.94,323.89z M248.67,325.03l-1.36,3.81l2.58,0.04L248.67,325.03z M248.67,325.03l-1.36,3.81
				l2.58,0.04L248.67,325.03z M260.94,323.89c-0.34-0.25-0.76-0.38-1.27-0.3l-1.95,0.21l0.38,3.22l1.86-0.25
				c0.55-0.04,0.97-0.21,1.23-0.51s0.38-0.72,0.3-1.19C261.45,324.57,261.28,324.19,260.94,323.89z M260.94,323.89
				c-0.34-0.25-0.76-0.38-1.27-0.3l-1.95,0.21l0.38,3.22l1.86-0.25c0.55-0.04,0.97-0.21,1.23-0.51s0.38-0.72,0.3-1.19
				C261.45,324.57,261.28,324.19,260.94,323.89z M248.67,325.03l-1.36,3.81l2.58,0.04L248.67,325.03z M248.67,325.03l-1.36,3.81
				l2.58,0.04L248.67,325.03z M260.94,323.89c-0.34-0.25-0.76-0.38-1.27-0.3l-1.95,0.21l0.38,3.22l1.86-0.25
				c0.55-0.04,0.97-0.21,1.23-0.51s0.38-0.72,0.3-1.19C261.45,324.57,261.28,324.19,260.94,323.89z M260.94,323.89
				c-0.34-0.25-0.76-0.38-1.27-0.3l-1.95,0.21l0.38,3.22l1.86-0.25c0.55-0.04,0.97-0.21,1.23-0.51s0.38-0.72,0.3-1.19
				C261.45,324.57,261.28,324.19,260.94,323.89z M248.67,325.03l-1.36,3.81l2.58,0.04L248.67,325.03z M248.67,325.03l-1.36,3.81
				l2.58,0.04L248.67,325.03z M260.94,323.89c-0.34-0.25-0.76-0.38-1.27-0.3l-1.95,0.21l0.38,3.22l1.86-0.25
				c0.55-0.04,0.97-0.21,1.23-0.51s0.38-0.72,0.3-1.19C261.45,324.57,261.28,324.19,260.94,323.89z M260.94,323.89
				c-0.34-0.25-0.76-0.38-1.27-0.3l-1.95,0.21l0.38,3.22l1.86-0.25c0.55-0.04,0.97-0.21,1.23-0.51s0.38-0.72,0.3-1.19
				C261.45,324.57,261.28,324.19,260.94,323.89z M248.67,325.03l-1.36,3.81l2.58,0.04L248.67,325.03z M248.67,325.03l-1.36,3.81
				l2.58,0.04L248.67,325.03z M260.94,323.89c-0.34-0.25-0.76-0.38-1.27-0.3l-1.95,0.21l0.38,3.22l1.86-0.25
				c0.55-0.04,0.97-0.21,1.23-0.51s0.38-0.72,0.3-1.19C261.45,324.57,261.28,324.19,260.94,323.89z M260.94,323.89
				c-0.34-0.25-0.76-0.38-1.27-0.3l-1.95,0.21l0.38,3.22l1.86-0.25c0.55-0.04,0.97-0.21,1.23-0.51s0.38-0.72,0.3-1.19
				C261.45,324.57,261.28,324.19,260.94,323.89z M248.67,325.03l-1.36,3.81l2.58,0.04L248.67,325.03z"/>
		</g>
		<g>
			<path class="st0" d="M215.86,322.03l2.37,0.93l0.21-4.06L215.86,322.03z M215.86,322.03l2.37,0.93l0.21-4.06L215.86,322.03z
				 M215.86,322.03l2.37,0.93l0.21-4.06L215.86,322.03z M248.67,325.03l-1.36,3.81l2.58,0.04L248.67,325.03z M248.67,325.03
				l-1.36,3.81l2.58,0.04L248.67,325.03z M215.86,322.03l2.37,0.93l0.21-4.06L215.86,322.03z M215.86,322.03l2.37,0.93l0.21-4.06
				L215.86,322.03z M248.67,325.03l-1.36,3.81l2.58,0.04L248.67,325.03z M260.94,323.89c-0.34-0.25-0.76-0.38-1.27-0.3l-1.95,0.21
				l0.38,3.22l1.86-0.25c0.55-0.04,0.97-0.21,1.23-0.51s0.38-0.72,0.3-1.19C261.45,324.57,261.28,324.19,260.94,323.89z
				 M260.94,323.89c-0.34-0.25-0.76-0.38-1.27-0.3l-1.95,0.21l0.38,3.22l1.86-0.25c0.55-0.04,0.97-0.21,1.23-0.51
				s0.38-0.72,0.3-1.19C261.45,324.57,261.28,324.19,260.94,323.89z M248.67,325.03l-1.36,3.81l2.58,0.04L248.67,325.03z
				 M215.86,322.03l2.37,0.93l0.21-4.06L215.86,322.03z M316.27,312.08l-16.21-17.69c0,0-1.01,0.97-3.09,2.41
				c-2.07,1.44-5.21,3.43-9.44,5.38c-8.3,3.94-20.83,7.83-37.5,7.83c-25.1,0-40.76-8.85-46.99-13.21c-2.07-1.44-3.09-2.41-3.09-2.41
				l-16.21,17.69l-1.99,2.16c0,0,18.5,27.94,68.28,27.94s68.24-27.94,68.24-27.94L316.27,312.08z M220.14,327.83l-2.07-0.85
				l0.08-2.24l-3.47-1.31l-1.4,1.69l-2.12-0.8l7.28-8.21l1.86,0.72L220.14,327.83z M231.99,322.24l-3.05-0.85l-2.24,8.26l-2.03-0.55
				l2.24-8.25l-3.01-0.85l0.47-1.65l8.09,2.2L231.99,322.24z M241.51,332.44l-2.5-0.38l-1.99-4.53l-1.23-0.21l-0.59,4.19l-2.12-0.34
				l1.52-10.16l2.08,0.3l-0.59,4.06l0.97,0.17l3.09-3.73l2.54,0.38l-3.85,4.36L241.51,332.44z M251.12,332.74l-0.68-2.12l-3.73-0.08
				l-0.76,2.12l-2.24-0.04l4.02-10.2l1.95,0.04l3.68,10.33L251.12,332.74z M262.89,327.32c-0.63,0.63-1.52,1.06-2.75,1.19
				l-1.86,0.21l0.42,3.6l-2.12,0.25l-1.18-10.24l4.02-0.47c0.76-0.08,1.44,0,2.08,0.21c0.59,0.21,1.1,0.55,1.48,1.02
				c0.38,0.51,0.59,1.06,0.68,1.74C263.74,325.79,263.52,326.64,262.89,327.32z M271.91,328.16l-0.13,0.59
				c-0.3,1.02-0.97,1.69-2.08,1.95l-0.72,0.17l-0.42-1.65c0.13-0.04,0.3-0.04,0.55-0.13c0.3-0.08,0.51-0.17,0.68-0.34
				c0.13-0.13,0.25-0.34,0.3-0.64l0.08-0.72l-5.25-6.26l2.2-0.55l3.39,4.19l0.64-5.16l2.24-0.55L271.91,328.16z M282.49,324.78
				l-0.08,0.64c-0.17,1.06-0.76,1.78-1.78,2.16l-0.72,0.21l-0.59-1.57c0.08-0.04,0.25-0.08,0.51-0.17c0.3-0.13,0.47-0.25,0.63-0.42
				c0.13-0.13,0.17-0.38,0.21-0.68v-0.72l-5.97-5.59l2.16-0.8l3.81,3.72l0.08-5.21l2.12-0.8L282.49,324.78z M259.67,323.59
				l-1.95,0.21l0.38,3.22l1.86-0.25c0.55-0.04,0.97-0.21,1.23-0.51s0.38-0.72,0.3-1.19c-0.04-0.51-0.21-0.89-0.55-1.19
				C260.6,323.64,260.18,323.51,259.67,323.59z M247.31,328.84l2.58,0.04l-1.23-3.85L247.31,328.84z M218.23,322.96l0.21-4.06
				l-2.58,3.13L218.23,322.96z M215.86,322.03l2.37,0.93l0.21-4.06L215.86,322.03z M248.67,325.03l-1.36,3.81l2.58,0.04
				L248.67,325.03z M260.94,323.89c-0.34-0.25-0.76-0.38-1.27-0.3l-1.95,0.21l0.38,3.22l1.86-0.25c0.55-0.04,0.97-0.21,1.23-0.51
				s0.38-0.72,0.3-1.19C261.45,324.57,261.28,324.19,260.94,323.89z M260.94,323.89c-0.34-0.25-0.76-0.38-1.27-0.3l-1.95,0.21
				l0.38,3.22l1.86-0.25c0.55-0.04,0.97-0.21,1.23-0.51s0.38-0.72,0.3-1.19C261.45,324.57,261.28,324.19,260.94,323.89z
				 M248.67,325.03l-1.36,3.81l2.58,0.04L248.67,325.03z M215.86,322.03l2.37,0.93l0.21-4.06L215.86,322.03z M215.86,322.03
				l2.37,0.93l0.21-4.06L215.86,322.03z M215.86,322.03l2.37,0.93l0.21-4.06L215.86,322.03z M215.86,322.03l2.37,0.93l0.21-4.06
				L215.86,322.03z M215.86,322.03l2.37,0.93l0.21-4.06L215.86,322.03z M248.67,325.03l-1.36,3.81l2.58,0.04L248.67,325.03z
				 M248.67,325.03l-1.36,3.81l2.58,0.04L248.67,325.03z M215.86,322.03l2.37,0.93l0.21-4.06L215.86,322.03z M215.86,322.03
				l2.37,0.93l0.21-4.06L215.86,322.03z M215.86,322.03l2.37,0.93l0.21-4.06L215.86,322.03z M248.67,325.03l-1.36,3.81l2.58,0.04
				L248.67,325.03z M248.67,325.03l-1.36,3.81l2.58,0.04L248.67,325.03z M215.86,322.03l2.37,0.93l0.21-4.06L215.86,322.03z
				 M215.86,322.03l2.37,0.93l0.21-4.06L215.86,322.03z M248.67,325.03l-1.36,3.81l2.58,0.04L248.67,325.03z M260.94,323.89
				c-0.34-0.25-0.76-0.38-1.27-0.3l-1.95,0.21l0.38,3.22l1.86-0.25c0.55-0.04,0.97-0.21,1.23-0.51s0.38-0.72,0.3-1.19
				C261.45,324.57,261.28,324.19,260.94,323.89z M260.94,323.89c-0.34-0.25-0.76-0.38-1.27-0.3l-1.95,0.21l0.38,3.22l1.86-0.25
				c0.55-0.04,0.97-0.21,1.23-0.51s0.38-0.72,0.3-1.19C261.45,324.57,261.28,324.19,260.94,323.89z M248.67,325.03l-1.36,3.81
				l2.58,0.04L248.67,325.03z M215.86,322.03l2.37,0.93l0.21-4.06L215.86,322.03z M316.27,312.08l-16.21-17.69
				c0,0-1.01,0.97-3.09,2.41c-2.07,1.44-5.21,3.43-9.44,5.38c-8.3,3.94-20.83,7.83-37.5,7.83c-25.1,0-40.76-8.85-46.99-13.21
				c-2.07-1.44-3.09-2.41-3.09-2.41l-16.21,17.69l-1.99,2.16c0,0,18.5,27.94,68.28,27.94s68.24-27.94,68.24-27.94L316.27,312.08z
				 M220.14,327.83l-2.07-0.85l0.08-2.24l-3.47-1.31l-1.4,1.69l-2.12-0.8l7.28-8.21l1.86,0.72L220.14,327.83z M231.99,322.24
				l-3.05-0.85l-2.24,8.26l-2.03-0.55l2.24-8.25l-3.01-0.85l0.47-1.65l8.09,2.2L231.99,322.24z M241.51,332.44l-2.5-0.38l-1.99-4.53
				l-1.23-0.21l-0.59,4.19l-2.12-0.34l1.52-10.16l2.08,0.3l-0.59,4.06l0.97,0.17l3.09-3.73l2.54,0.38l-3.85,4.36L241.51,332.44z
				 M251.12,332.74l-0.68-2.12l-3.73-0.08l-0.76,2.12l-2.24-0.04l4.02-10.2l1.95,0.04l3.68,10.33L251.12,332.74z M262.89,327.32
				c-0.63,0.63-1.52,1.06-2.75,1.19l-1.86,0.21l0.42,3.6l-2.12,0.25l-1.18-10.24l4.02-0.47c0.76-0.08,1.44,0,2.08,0.21
				c0.59,0.21,1.1,0.55,1.48,1.02c0.38,0.51,0.59,1.06,0.68,1.74C263.74,325.79,263.52,326.64,262.89,327.32z M271.91,328.16
				l-0.13,0.59c-0.3,1.02-0.97,1.69-2.08,1.95l-0.72,0.17l-0.42-1.65c0.13-0.04,0.3-0.04,0.55-0.13c0.3-0.08,0.51-0.17,0.68-0.34
				c0.13-0.13,0.25-0.34,0.3-0.64l0.08-0.72l-5.25-6.26l2.2-0.55l3.39,4.19l0.64-5.16l2.24-0.55L271.91,328.16z M282.49,324.78
				l-0.08,0.64c-0.17,1.06-0.76,1.78-1.78,2.16l-0.72,0.21l-0.59-1.57c0.08-0.04,0.25-0.08,0.51-0.17c0.3-0.13,0.47-0.25,0.63-0.42
				c0.13-0.13,0.17-0.38,0.21-0.68v-0.72l-5.97-5.59l2.16-0.8l3.81,3.72l0.08-5.21l2.12-0.8L282.49,324.78z M259.67,323.59
				l-1.95,0.21l0.38,3.22l1.86-0.25c0.55-0.04,0.97-0.21,1.23-0.51s0.38-0.72,0.3-1.19c-0.04-0.51-0.21-0.89-0.55-1.19
				C260.6,323.64,260.18,323.51,259.67,323.59z M247.31,328.84l2.58,0.04l-1.23-3.85L247.31,328.84z M218.23,322.96l0.21-4.06
				l-2.58,3.13L218.23,322.96z M215.86,322.03l2.37,0.93l0.21-4.06L215.86,322.03z M248.67,325.03l-1.36,3.81l2.58,0.04
				L248.67,325.03z M260.94,323.89c-0.34-0.25-0.76-0.38-1.27-0.3l-1.95,0.21l0.38,3.22l1.86-0.25c0.55-0.04,0.97-0.21,1.23-0.51
				s0.38-0.72,0.3-1.19C261.45,324.57,261.28,324.19,260.94,323.89z M260.94,323.89c-0.34-0.25-0.76-0.38-1.27-0.3l-1.95,0.21
				l0.38,3.22l1.86-0.25c0.55-0.04,0.97-0.21,1.23-0.51s0.38-0.72,0.3-1.19C261.45,324.57,261.28,324.19,260.94,323.89z
				 M248.67,325.03l-1.36,3.81l2.58,0.04L248.67,325.03z M215.86,322.03l2.37,0.93l0.21-4.06L215.86,322.03z M215.86,322.03
				l2.37,0.93l0.21-4.06L215.86,322.03z M215.86,322.03l2.37,0.93l0.21-4.06L215.86,322.03z M215.86,322.03l2.37,0.93l0.21-4.06
				L215.86,322.03z M215.86,322.03l2.37,0.93l0.21-4.06L215.86,322.03z M260.94,323.89c-0.34-0.25-0.76-0.38-1.27-0.3l-1.95,0.21
				l0.38,3.22l1.86-0.25c0.55-0.04,0.97-0.21,1.23-0.51s0.38-0.72,0.3-1.19C261.45,324.57,261.28,324.19,260.94,323.89z
				 M260.94,323.89c-0.34-0.25-0.76-0.38-1.27-0.3l-1.95,0.21l0.38,3.22l1.86-0.25c0.55-0.04,0.97-0.21,1.23-0.51
				s0.38-0.72,0.3-1.19C261.45,324.57,261.28,324.19,260.94,323.89z M215.86,322.03l2.37,0.93l0.21-4.06L215.86,322.03z
				 M215.86,322.03l2.37,0.93l0.21-4.06L215.86,322.03z M248.67,325.03l-1.36,3.81l2.58,0.04L248.67,325.03z M248.67,325.03
				l-1.36,3.81l2.58,0.04L248.67,325.03z M215.86,322.03l2.37,0.93l0.21-4.06L215.86,322.03z M215.86,322.03l2.37,0.93l0.21-4.06
				L215.86,322.03z M215.86,322.03l2.37,0.93l0.21-4.06L215.86,322.03z M248.67,325.03l-1.36,3.81l2.58,0.04L248.67,325.03z
				 M248.67,325.03l-1.36,3.81l2.58,0.04L248.67,325.03z M215.86,322.03l2.37,0.93l0.21-4.06L215.86,322.03z M215.86,322.03
				l2.37,0.93l0.21-4.06L215.86,322.03z M248.67,325.03l-1.36,3.81l2.58,0.04L248.67,325.03z M260.94,323.89
				c-0.34-0.25-0.76-0.38-1.27-0.3l-1.95,0.21l0.38,3.22l1.86-0.25c0.55-0.04,0.97-0.21,1.23-0.51s0.38-0.72,0.3-1.19
				C261.45,324.57,261.28,324.19,260.94,323.89z M260.94,323.89c-0.34-0.25-0.76-0.38-1.27-0.3l-1.95,0.21l0.38,3.22l1.86-0.25
				c0.55-0.04,0.97-0.21,1.23-0.51s0.38-0.72,0.3-1.19C261.45,324.57,261.28,324.19,260.94,323.89z M248.67,325.03l-1.36,3.81
				l2.58,0.04L248.67,325.03z M215.86,322.03l2.37,0.93l0.21-4.06L215.86,322.03z M316.27,312.08l-16.21-17.69
				c0,0-1.01,0.97-3.09,2.41c-2.07,1.44-5.21,3.43-9.44,5.38c-8.3,3.94-20.83,7.83-37.5,7.83c-25.1,0-40.76-8.85-46.99-13.21
				c-2.07-1.44-3.09-2.41-3.09-2.41l-16.21,17.69l-1.99,2.16c0,0,18.5,27.94,68.28,27.94s68.24-27.94,68.24-27.94L316.27,312.08z
				 M220.14,327.83l-2.07-0.85l0.08-2.24l-3.47-1.31l-1.4,1.69l-2.12-0.8l7.28-8.21l1.86,0.72L220.14,327.83z M231.99,322.24
				l-3.05-0.85l-2.24,8.26l-2.03-0.55l2.24-8.25l-3.01-0.85l0.47-1.65l8.09,2.2L231.99,322.24z M241.51,332.44l-2.5-0.38l-1.99-4.53
				l-1.23-0.21l-0.59,4.19l-2.12-0.34l1.52-10.16l2.08,0.3l-0.59,4.06l0.97,0.17l3.09-3.73l2.54,0.38l-3.85,4.36L241.51,332.44z
				 M251.12,332.74l-0.68-2.12l-3.73-0.08l-0.76,2.12l-2.24-0.04l4.02-10.2l1.95,0.04l3.68,10.33L251.12,332.74z M262.89,327.32
				c-0.63,0.63-1.52,1.06-2.75,1.19l-1.86,0.21l0.42,3.6l-2.12,0.25l-1.18-10.24l4.02-0.47c0.76-0.08,1.44,0,2.08,0.21
				c0.59,0.21,1.1,0.55,1.48,1.02c0.38,0.51,0.59,1.06,0.68,1.74C263.74,325.79,263.52,326.64,262.89,327.32z M271.91,328.16
				l-0.13,0.59c-0.3,1.02-0.97,1.69-2.08,1.95l-0.72,0.17l-0.42-1.65c0.13-0.04,0.3-0.04,0.55-0.13c0.3-0.08,0.51-0.17,0.68-0.34
				c0.13-0.13,0.25-0.34,0.3-0.64l0.08-0.72l-5.25-6.26l2.2-0.55l3.39,4.19l0.64-5.16l2.24-0.55L271.91,328.16z M282.49,324.78
				l-0.08,0.64c-0.17,1.06-0.76,1.78-1.78,2.16l-0.72,0.21l-0.59-1.57c0.08-0.04,0.25-0.08,0.51-0.17c0.3-0.13,0.47-0.25,0.63-0.42
				c0.13-0.13,0.17-0.38,0.21-0.68v-0.72l-5.97-5.59l2.16-0.8l3.81,3.72l0.08-5.21l2.12-0.8L282.49,324.78z M259.67,323.59
				l-1.95,0.21l0.38,3.22l1.86-0.25c0.55-0.04,0.97-0.21,1.23-0.51s0.38-0.72,0.3-1.19c-0.04-0.51-0.21-0.89-0.55-1.19
				C260.6,323.64,260.18,323.51,259.67,323.59z M247.31,328.84l2.58,0.04l-1.23-3.85L247.31,328.84z M218.23,322.96l0.21-4.06
				l-2.58,3.13L218.23,322.96z M215.86,322.03l2.37,0.93l0.21-4.06L215.86,322.03z M248.67,325.03l-1.36,3.81l2.58,0.04
				L248.67,325.03z M260.94,323.89c-0.34-0.25-0.76-0.38-1.27-0.3l-1.95,0.21l0.38,3.22l1.86-0.25c0.55-0.04,0.97-0.21,1.23-0.51
				s0.38-0.72,0.3-1.19C261.45,324.57,261.28,324.19,260.94,323.89z M260.94,323.89c-0.34-0.25-0.76-0.38-1.27-0.3l-1.95,0.21
				l0.38,3.22l1.86-0.25c0.55-0.04,0.97-0.21,1.23-0.51s0.38-0.72,0.3-1.19C261.45,324.57,261.28,324.19,260.94,323.89z
				 M248.67,325.03l-1.36,3.81l2.58,0.04L248.67,325.03z M215.86,322.03l2.37,0.93l0.21-4.06L215.86,322.03z M215.86,322.03
				l2.37,0.93l0.21-4.06L215.86,322.03z M215.86,322.03l2.37,0.93l0.21-4.06L215.86,322.03z M215.86,322.03l2.37,0.93l0.21-4.06
				L215.86,322.03z M215.86,322.03l2.37,0.93l0.21-4.06L215.86,322.03z M260.94,323.89c-0.34-0.25-0.76-0.38-1.27-0.3l-1.95,0.21
				l0.38,3.22l1.86-0.25c0.55-0.04,0.97-0.21,1.23-0.51s0.38-0.72,0.3-1.19C261.45,324.57,261.28,324.19,260.94,323.89z
				 M260.94,323.89c-0.34-0.25-0.76-0.38-1.27-0.3l-1.95,0.21l0.38,3.22l1.86-0.25c0.55-0.04,0.97-0.21,1.23-0.51
				s0.38-0.72,0.3-1.19C261.45,324.57,261.28,324.19,260.94,323.89z M215.86,322.03l2.37,0.93l0.21-4.06L215.86,322.03z
				 M215.86,322.03l2.37,0.93l0.21-4.06L215.86,322.03z"/>
		</g>
	</g>
	<g>
		<path class="st0" d="M194.95,178.27l-2.46-3.9c-7.66,3.3-12.19,5.97-12.28,6.05l-1.4,0.85l-0.97-1.31l-14.18-18.46l-16.85,14.94
			l12.45,31.45C159.26,207.9,173.78,186.57,194.95,178.27z"/>
		<path class="st0" d="M199.94,294.38l-16.21,17.69l19.3-15.28C200.96,295.36,199.94,294.38,199.94,294.38z"/>
		<path class="st0" d="M183.1,267.12c-12.32-24.13-3.64-59.22-3.64-59.22l-16.38,8.68l-10.24-12.28c0,0-11.22,30.27,2.03,65.32
			c9.9,26.16,22.99,37.97,27.39,41.36l16.34-17.82l1.27-1.35l1.31,1.23c0,0,0.76,0.72,2.29,1.82l0.8-3.81
			C204.26,291.04,192.66,285.88,183.1,267.12z M157.74,243.54l3.98-2.54l-0.08-1.19l-4.19,0.34l-0.17-2.12l4.19-0.34l-0.13-1.27
			l-4.36-1.9l-0.21-2.63l5.76,2.75l4.53-3.43l0.21,2.62l-3.94,2.63l0.08,1.06l4.1-0.34l0.17,2.12l-4.1,0.34l0.08,1.02l4.32,1.9
			l0.21,2.58l-4.99-2.58l-5.25,3.6L157.74,243.54z M159.77,255.61l1.95-1.1l-0.72-3.68l-2.2-0.25l-0.42-2.24l10.84,1.82l0.38,1.9
			l-9.4,5.76L159.77,255.61z M161.85,264.03c-0.21-0.72-0.3-1.4-0.21-2.03c0.08-0.68,0.25-1.19,0.59-1.61
			c0.34-0.42,0.81-0.72,1.36-0.89l0.63,2.03c-0.34,0.08-0.59,0.34-0.76,0.72c-0.13,0.38-0.13,0.8,0,1.27
			c0.17,0.55,0.42,0.93,0.76,1.19s0.72,0.3,1.1,0.21c0.51-0.17,0.8-0.42,0.97-0.76c0.13-0.34,0.13-0.81-0.04-1.35l-0.38-1.19
			l1.61-0.51l0.38,1.27c0.3,0.97,0.89,1.31,1.74,1.06c0.38-0.13,0.63-0.34,0.76-0.72c0.13-0.34,0.13-0.76-0.04-1.23
			c-0.13-0.47-0.34-0.76-0.63-1.02c-0.3-0.21-0.63-0.25-0.97-0.17l-0.59-2.03c0.51-0.17,1.06-0.17,1.57,0.04
			c0.51,0.17,0.97,0.47,1.4,0.97c0.38,0.47,0.68,1.02,0.89,1.69c0.34,1.14,0.38,2.07,0.08,2.88c-0.3,0.8-0.89,1.31-1.78,1.61
			c-0.47,0.13-0.89,0.13-1.36-0.04c-0.47-0.13-0.85-0.42-1.23-0.85c-0.04,0.59-0.21,1.1-0.51,1.52c-0.3,0.38-0.72,0.68-1.31,0.85
			c-0.85,0.25-1.65,0.13-2.41-0.38C162.73,266.02,162.18,265.18,161.85,264.03z M165.99,275l-1.61-3.51l9.35-4.28l0.89,1.95
			l-3.39,1.52l0.72,1.52c0.47,1.1,0.63,2.07,0.38,2.96c-0.25,0.89-0.8,1.52-1.73,1.95c-0.89,0.42-1.78,0.42-2.63,0.04
			C167.14,276.77,166.5,276.05,165.99,275z M167.98,279.31l9.36-4.28l0.89,1.9l-9.4,4.32L167.98,279.31z M178.35,286.09l-2.54,5.97
			l-1.4-2.12l1.99-4.53l-0.68-1.01l-3.47,2.33l-1.18-1.74l8.51-5.76l1.19,1.74l-3.39,2.33l0.51,0.81l4.83-0.21l1.44,2.12
			L178.35,286.09z"/>
		<polygon class="st0" points="163.28,253.62 166.84,251.59 162.82,251.08 		"/>
		<path class="st0" d="M169.76,275.17c0.42-0.17,0.68-0.47,0.8-0.85c0.13-0.42,0.08-0.85-0.13-1.35l-0.72-1.57l-2.92,1.31l0.72,1.52
			c0.21,0.51,0.55,0.85,0.93,1.02C168.87,275.42,169.3,275.38,169.76,275.17z"/>
		<path class="st0" d="M229.91,363.85c0.3-0.04,0.59-0.08,0.93-0.17c0,0-5.71-3.51-12.06-6.01l-0.04-0.04
			c-0.04-0.13-0.21-0.42-0.47-0.85c7.49,4.7,16.97,5.16,16.97,5.16c-2.29-2.54-4.4-4.74-6.39-6.65c2.84,2.5,6.81,4.36,10.03,5.59
			l-3.39-2.07l-1.31-0.85h2.92c-3.64-1.9-7.54-5.76-7.71-5.97l0.42-0.42c0.08,0.04,5.08,5.04,8.93,6.39h2.16
			c-7.07-8.13-15.75-10.16-15.75-10.16c-0.25,2.58,0.97,4.87,2.92,6.81c-12.95-12.15-18.5-10.71-18.5-10.71
			c-4.02-5.16-8.68-9.82-12.28-9.95c0,0-2.33,14.52,19.64,23.03c-4.7-1.69-9.48-2.63-12.4-1.06c0,0,3.81,9.44,19.3,8.68
			c-1.56,0.38-2.96,0.93-4.19,1.69c0,0,11.6,8.81,23.07,2.84v-0.04l1.4-3.94C240.79,364.53,235.25,363.64,229.91,363.85z
			 M213.62,353.77c-5.33-4.06-12.49-14.52-12.78-14.99l0.51-0.34c0.08,0.08,7.41,10.84,12.66,14.82L213.62,353.77z M215.44,349.12
			c-0.08-0.13-0.17-0.21-0.17-0.25l0.17-0.17l0.13-0.38c0.13,0.04,0.21,0.13,0.38,0.47c3.43,5.59,9.4,8.72,13.8,10.37l-0.25,0.59
			C225,358.05,218.95,354.83,215.44,349.12z M222.8,362.28c-7.32-0.68-11.56-4.23-11.77-4.36l0.42-0.51
			c0.04,0.04,4.32,3.56,11.43,4.23L222.8,362.28z M233.3,367.74c-1.48,0-2.96-0.08-4.23-0.3l0.08-0.63
			c5.21,0.85,14.06-0.51,14.14-0.51l0.08,0.64C243.08,366.98,238.04,367.74,233.3,367.74z"/>
		<path class="st0" d="M302.98,333.96c-3.6,0.13-8.25,4.78-12.23,9.95c0,0,0,0-0.04,0c-0.55-0.13-6.14-0.85-18.5,10.71
			c1.95-1.95,3.17-4.19,2.92-6.81c0,0-8.68,2.03-15.71,10.16h2.12c3.85-1.35,8.89-6.35,8.93-6.39l0.47,0.42
			c-0.21,0.21-4.06,4.06-7.7,5.97h2.58l-1.31,0.85l-3.89,2.41c3.34-1.23,7.75-3.22,10.84-5.93c-1.95,1.9-4.11,4.11-6.39,6.65
			c0,0,9.52-0.47,17.02-5.16c-0.25,0.42-0.42,0.72-0.47,0.85l-0.04,0.04c-6.35,2.5-12.06,6.01-12.06,6.01
			c0.34,0.08,0.63,0.13,0.93,0.17c-5.5-0.21-11.26,0.72-14.56,1.4l1.36,3.68c11.56,6.35,23.41-2.63,23.41-2.63
			c-1.23-0.76-2.63-1.31-4.19-1.69c15.54,0.8,19.34-8.68,19.34-8.68c-2.92-1.57-7.7-0.63-12.4,1.06
			C305.35,348.53,302.98,333.96,302.98,333.96z M267.04,367.74c-4.78,0-9.82-0.76-10.07-0.8l0.08-0.64c0.08,0,8.89,1.35,14.14,0.51
			l0.08,0.63C270,367.66,268.52,367.74,267.04,367.74z M288.88,357.42l0.38,0.51c-0.17,0.13-4.45,3.68-11.77,4.36l-0.04-0.63
			C284.56,360.97,288.84,357.46,288.88,357.42z M284.9,349.12c-3.51,5.72-9.61,8.93-14.1,10.63l-0.21-0.59
			c4.4-1.65,10.33-4.78,13.76-10.37c0.21-0.34,0.25-0.42,0.38-0.47l0.13,0.3l0.21,0.25C285.03,348.91,284.99,348.99,284.9,349.12z
			 M286.72,353.77l-0.38-0.47c0.04-0.08,0.08-0.13,0.17-0.21l0.04-0.04c5.21-4.11,12.36-14.52,12.4-14.6l0.55,0.34
			C299.21,339.26,292.01,349.71,286.72,353.77z"/>
		<path class="st0" d="M369.1,219.16c-1.82-14.05-4.74-25.02-6.31-30.31l4.1-9.61l2.46-5.88l-4.7-4.32l-12.11-11.18l9.23-11.68
			l6.1-7.79l-8.3-5.42c-20.32-13.21-43.09-22.69-67.6-28.15c-19.47-4.36-34.41-4.83-39.96-4.83c-0.93,0-1.61,0.04-1.99,0.04
			c-0.42,0-1.1-0.04-2.03-0.04c-5.55,0-20.49,0.47-39.92,4.83c-24.55,5.46-47.32,14.94-67.65,28.15l-8.3,5.42l6.14,7.79l9.19,11.68
			l-12.11,11.18l-4.7,4.32l2.46,5.88l4.11,9.61c-1.57,5.29-4.49,16.26-6.31,30.31c-2.29,18.2-3.13,45.25,6.18,70.9
			c9.95,27.35,21.21,46.82,36.49,63.03c17.78,18.88,41.06,33.4,73.19,45.68l3.26,1.23l3.22-1.23c32.13-12.28,55.41-26.8,73.19-45.68
			c15.28-16.21,26.54-35.69,36.49-63.03C372.23,264.41,371.38,237.36,369.1,219.16z M354.41,286.98
			c-16.85,46.35-40.51,78.91-104.39,103.33c-63.92-24.43-87.58-56.98-104.43-103.33c-16.81-46.35,1.23-98.59,1.23-98.59l-5.38-12.7
			l18.33-16.81l-14.39-18.33c45.76-29.76,92.45-31.5,102.61-31.5c1.14,0,1.82,0.04,1.99,0.04h0.04c0.04,0,0.72-0.04,1.99-0.04
			c10.2,0,56.85,1.74,102.61,31.5l-14.39,18.33l18.33,16.81l-5.38,12.7C353.18,188.39,371.21,240.62,354.41,286.98z"/>
		<path class="st0" d="M322.15,179.96l-0.97,1.31l-1.4-0.85c-0.13-0.08-4.66-2.75-12.28-6.05l-2.46,3.9
			c21.17,8.3,35.69,29.63,35.69,29.63l12.45-31.45l-16.85-14.94L322.15,179.96z"/>
		<path class="st0" d="M296.97,296.8l19.3,15.28l-16.21-17.69C300.06,294.38,299.04,295.36,296.97,296.8z"/>
		<path class="st0" d="M347.17,204.3l-10.24,12.28l-16.38-8.68c0,0,8.68,35.09-3.64,59.22c-9.57,18.75-21.17,23.92-21.17,23.92
			l0.81,3.81c1.48-1.1,2.24-1.82,2.29-1.82l1.31-1.23l1.27,1.35l16.34,17.82c4.4-3.39,17.48-15.2,27.39-41.36
			C358.43,234.57,347.17,204.3,347.17,204.3z M324.95,289.81l-7.11-4.78l-1.78,2.58l-1.4-0.97l4.7-6.94l1.4,0.97l-1.74,2.62
			l7.11,4.78L324.95,289.81z M330.49,281.18l-0.38,0.64l-1.52-0.76c0.08-0.13,0.17-0.25,0.3-0.51c0.13-0.25,0.21-0.47,0.21-0.68
			c0-0.21-0.13-0.42-0.3-0.68l-0.47-0.55l-8.21-0.25l1.1-1.99l5.33,0.25l-3.39-3.94l1.06-2.03l5.8,7.15l0.38,0.51
			C330.96,279.27,331,280.2,330.49,281.18z M335.61,270.13l-8-3.17l-1.14,2.92l-1.57-0.63l3.05-7.83l1.61,0.64l-1.14,2.96l7.96,3.13
			L335.61,270.13z M339.17,260.48l-0.25,0.68l-1.65-0.42c0.08-0.08,0.13-0.25,0.21-0.51c0.04-0.3,0.08-0.55,0.04-0.72
			c-0.08-0.21-0.21-0.42-0.47-0.59l-0.55-0.47l-8.04,1.57l0.59-2.2l5.29-0.93l-4.19-3.09l0.59-2.2l7.24,5.71l0.47,0.42
			C339.21,258.49,339.47,259.42,339.17,260.48z M342.68,242.44l-2.79-0.42l-4.78-0.89l7.2,3.85l-0.21,1.44l-7.96,1.65l4.82,0.47
			l2.79,0.42l-0.3,2.07l-10.2-1.48l0.38-2.71l7.79-1.57l-7.03-3.68l0.42-2.75l10.16,1.48L342.68,242.44z M343.36,235.33h-1.69
			c0.04-0.13,0.04-0.3,0.04-0.55c0-0.3-0.04-0.55-0.13-0.72c-0.13-0.21-0.3-0.34-0.59-0.47l-0.64-0.3l-7.45,3.43l0.08-2.29
			l4.91-2.16l-4.82-1.99l0.04-2.29l8.42,3.81l0.55,0.3c0.93,0.55,1.35,1.4,1.31,2.5L343.36,235.33z"/>
		<path class="st0" d="M283.29,247.1c0.08-0.04,0.17-0.08,0.25-0.08c-0.04-0.04-0.08-0.08-0.17-0.08c-0.34-0.13-0.72-0.25-1.06-0.34
			c-1.44-0.42-2.92-0.68-4.4-0.72l0.04,2.16c0.04,0.59,0.04,1.19,0.04,1.78c0.08,1.9,0.13,3.9,0.08,5.84c0,0.34,0,0.76-0.08,1.23
			C280.29,253.96,282.07,250.66,283.29,247.1z"/>
		<path class="st0" d="M240.67,202.44l-0.97-0.42c-4.23,1.31-8.09,3.39-11.43,6.1l0.3-0.47c-0.08,0.17-0.21,0.34-0.34,0.47
			l-0.13,0.17c-0.25,0.25-0.51,0.47-0.8,0.63c-0.63,0.34-1.35,0.51-2.07,0.42c-1.36-0.13-2.54-1.02-3.22-2.16
			c-0.97-1.61-0.8-3.94,0.64-5.16c1.48-1.19,4.06-0.76,4.78,0.97c0.17-0.59,0.25-1.23,0.17-1.82c0-0.51-0.13-0.97-0.25-1.44
			c0-0.04-0.04-0.04-0.04-0.04c-0.17-0.59-0.47-1.1-0.85-1.61c-0.34-0.42-0.76-0.85-1.23-1.14c-0.04-0.04-0.13-0.08-0.17-0.13
			c-1.99-1.27-4.83-1.02-6.6,0.55c-1.78,1.57-2.33,4.36-1.31,6.52c-4.06-2.29-6.48,0.04-6.48,0.04c-0.72,2.24,0.25,4.87,2.24,6.1
			c-2.37-0.17-4.74,1.35-5.59,3.6c-0.85,2.2-0.04,4.91,1.86,6.35c1.4,1.02,3.26,1.31,4.91,0.81c0.04,0,0.04-0.04,0.09-0.04
			c0.04,0,0.13,0,0.17-0.04c0.25-0.08,0.47-0.17,0.72-0.25c0.3-0.13,0.51-0.3,0.76-0.47c-1.91-0.04-3.26-2.33-2.63-4.11
			c0.59-1.82,2.71-2.79,4.57-2.5c1.31,0.21,2.54,1.02,3.13,2.2c0.04,0.13,0.13,0.25,0.13,0.38c-0.76,1.1-1.44,2.29-2.07,3.47
			c0.55-0.13,1.14-0.21,1.69-0.25l-0.08,0.17c0.04-0.04,0.08-0.13,0.13-0.17c1.19-0.17,2.41-0.25,3.64-0.25
			c2.03,0,4.06,0.21,6.05,0.64c0.89,0.21,2.03,0.51,3.13,1.02c1.95-2.2,4.4-4.02,7.15-5.29V202.44z"/>
		<path class="st0" d="M222.04,247.14l0.04-1.27c-1.27,0.04-2.5,0.21-3.72,0.51c-0.51,0.13-1.01,0.3-1.48,0.47
			c-0.04,0-0.04,0-0.04,0c0.04,0,0.04,0.04,0.04,0.04c1.19,3.51,2.92,6.73,5.08,9.65c-0.04-0.34-0.04-0.63-0.04-0.89
			c-0.04-1.95,0-3.94,0.08-5.84C222.04,248.96,222.04,248.03,222.04,247.14z"/>
		<path class="st0" d="M242.02,287.65c-25.19-3.94-44.53-25.78-44.53-52.07c0-25.95,18.84-47.54,43.52-51.86v-9.65
			c-0.25-0.64-0.72-1.69-0.8-3.05c-31.37,4.74-55.41,31.83-55.41,64.55c0,34.5,26.75,62.78,60.66,65.15
			C244.26,298.03,242.95,293.88,242.02,287.65z M225.17,177.93c1.82-0.8,3.94,0.04,4.7,1.9c0.8,1.82-0.04,3.94-1.91,4.7
			c-1.82,0.8-3.94-0.04-4.7-1.9C222.46,180.81,223.35,178.69,225.17,177.93z M210.23,186.95c1.56-1.27,3.81-1.02,5.08,0.51
			c1.23,1.57,1.02,3.81-0.55,5.08c-1.52,1.27-3.81,1.02-5.08-0.55C208.45,190.46,208.66,188.18,210.23,186.95z M198.34,199.73
			c1.14-1.65,3.43-2.03,5.04-0.89c1.65,1.14,2.03,3.39,0.89,5c-1.14,1.65-3.39,2.03-5.04,0.89
			C197.62,203.58,197.24,201.34,198.34,199.73z M190.12,216.33c0.59-1.9,2.62-2.92,4.53-2.33c1.91,0.64,2.92,2.67,2.33,4.57
			c-0.63,1.86-2.67,2.92-4.53,2.29C190.55,220.26,189.49,218.23,190.12,216.33z M187.12,234.61c0-1.99,1.65-3.6,3.64-3.56
			s3.6,1.69,3.56,3.68c-0.04,1.99-1.69,3.56-3.68,3.51C188.64,238.25,187.07,236.6,187.12,234.61z M193.68,254.47
			c-1.95,0.51-3.89-0.64-4.4-2.54c-0.55-1.9,0.59-3.89,2.54-4.4c1.91-0.51,3.89,0.59,4.4,2.54
			C196.73,251.97,195.58,253.96,193.68,254.47z M201.64,270.04c-1.69,1.06-3.89,0.55-4.95-1.14c-1.06-1.69-0.55-3.89,1.14-4.95
			c1.69-1.06,3.89-0.55,4.95,1.14C203.84,266.78,203.33,268.99,201.64,270.04z M213.02,281.98c-1.35,1.48-3.6,1.61-5.08,0.25
			c-1.48-1.31-1.61-3.6-0.3-5.08c1.35-1.48,3.64-1.61,5.12-0.25C214.21,278.21,214.34,280.5,213.02,281.98z M228.18,290.7
			c-0.85,1.82-2.96,2.58-4.78,1.74c-1.78-0.85-2.58-2.96-1.74-4.78c0.85-1.78,3.01-2.58,4.78-1.74
			C228.26,286.76,229.03,288.88,228.18,290.7z"/>
		<path class="st0" d="M259.97,171.03c-0.17,1.31-0.63,2.5-0.97,3.09v9.57c24.85,4.23,43.77,25.91,43.77,51.9
			c0,26.37-19.47,48.26-44.79,52.07c-0.93,6.22-2.24,10.37-3.47,13.08c34.08-2.24,60.96-30.56,60.96-65.15
			C315.47,202.82,291.38,175.77,259.97,171.03z M276.73,182.63c-0.76,1.86-2.88,2.71-4.7,1.9c-1.86-0.76-2.71-2.88-1.91-4.7
			c0.76-1.86,2.88-2.71,4.7-1.9C276.65,178.69,277.54,180.81,276.73,182.63z M290.32,191.99c-1.27,1.57-3.56,1.82-5.08,0.55
			c-1.56-1.27-1.78-3.51-0.55-5.08c1.27-1.52,3.51-1.78,5.08-0.51C291.34,188.18,291.55,190.46,290.32,191.99z M300.78,204.73
			c-1.65,1.14-3.9,0.76-5.04-0.89c-1.14-1.61-0.72-3.85,0.89-5c1.65-1.14,3.9-0.76,5.04,0.89
			C302.77,201.34,302.39,203.58,300.78,204.73z M305.35,214c1.91-0.59,3.94,0.42,4.53,2.33c0.63,1.9-0.42,3.94-2.33,4.53
			c-1.86,0.64-3.89-0.42-4.53-2.29C302.43,216.66,303.44,214.63,305.35,214z M276.61,292.44c-1.82,0.85-3.94,0.08-4.79-1.74
			c-0.85-1.82-0.08-3.94,1.74-4.78c1.78-0.85,3.94-0.04,4.78,1.74C279.19,289.47,278.38,291.59,276.61,292.44z M292.06,282.23
			c-1.48,1.35-3.73,1.23-5.08-0.25c-1.31-1.48-1.18-3.77,0.25-5.08c1.48-1.35,3.77-1.23,5.12,0.25
			C293.67,278.64,293.54,280.92,292.06,282.23z M303.32,268.9c-1.06,1.69-3.26,2.2-4.95,1.14c-1.69-1.06-2.2-3.26-1.14-4.95
			c1.06-1.69,3.26-2.2,4.95-1.14C303.87,265.01,304.37,267.21,303.32,268.9z M310.72,251.93c-0.51,1.9-2.46,3.05-4.4,2.54
			c-1.9-0.51-3.05-2.5-2.54-4.4c0.51-1.95,2.5-3.05,4.4-2.54C310.13,248.03,311.27,250.02,310.72,251.93z M309.37,238.25
			c-1.99,0.04-3.64-1.52-3.68-3.51c-0.04-1.99,1.57-3.64,3.56-3.68c1.99-0.04,3.64,1.57,3.64,3.56
			C312.92,236.6,311.36,238.25,309.37,238.25z"/>
		<path class="st0" d="M249.09,303.32v-2.46V288.2v-17.57v-7.28c-1.06,0.04-2.16,0.08-3.26,0.08c-1.1,0-2.24-0.04-3.34-0.08v3.13
			c0,1.14,0,2.29,0.04,3.34c0.04,2.92,0.13,5.55,0.34,8v0.04c-0.3,0.08-0.63,0.17-0.93,0.17c-0.17,0-0.3-0.04-0.42-0.04
			c-0.17-0.04-0.34-0.08-0.51-0.13c-1.61-0.51-2.75-2.2-2.79-3.94c0-1.31,1.4-3.72,2.46-4.53c0,0,0,0,0.04,0
			c-0.04-0.93-0.04-1.91-0.04-2.92v-3.22c-4.78-0.3-9.48-0.97-14.06-2.07c-0.17-0.04-0.38-0.08-0.59-0.13
			c1.95,1.86,4.06,3.47,6.39,4.83c0.3,0.47,0.47,0.97,0.51,1.48c0.08,1.31-0.51,2.67-1.52,3.56c-1.4,1.23-3.73,1.48-5.21,0.3
			c-1.44-1.23-1.48-3.85,0.08-4.87c-2.37-0.25-4.78,1.23-5.63,3.47c-0.89,2.2-0.13,4.91,1.73,6.39c1.86,1.44,4.7,1.48,6.65,0.08
			c-1.48,4.4,1.27,6.39,1.27,6.39c2.29,0.25,4.7-1.19,5.55-3.34c0.25,2.33,2.2,4.4,4.53,4.83c0.38,0.08,0.81,0.08,1.19,0.08
			l0.89-0.13c0.34-0.08,0.63-0.17,0.93-0.3c0.17,1.44,0.34,2.79,0.55,4.06c1.01,6.52,2.41,10.5,3.64,12.91
			C248.12,302,248.67,302.81,249.09,303.32z"/>
		<path class="st0" d="M256.08,287.91c0.21-1.23,0.38-2.54,0.59-3.98c0.25,0.08,0.55,0.21,0.85,0.25c0.3,0.08,0.59,0.13,0.89,0.13
			c0.42,0.04,0.85,0.04,1.27-0.04c2.33-0.42,4.27-2.5,4.53-4.87c0.85,2.2,3.26,3.64,5.55,3.34c0,0,2.75-1.95,1.27-6.35
			c1.91,1.4,4.74,1.35,6.65-0.13c1.86-1.44,2.62-4.19,1.73-6.39c-0.85-2.2-3.3-3.68-5.63-3.47c1.57,1.01,1.52,3.68,0.08,4.87
			c-1.48,1.23-3.81,0.97-5.21-0.3c-1.01-0.85-1.65-2.2-1.52-3.51c0.04-0.51,0.21-1.02,0.47-1.44c2.41-1.4,4.7-3.05,6.69-5.04
			c-0.34,0.08-0.63,0.17-0.89,0.21c-4.61,1.1-9.31,1.82-14.05,2.12v3.17c0,1.01,0,2.03-0.04,2.96h0.04c1.06,0.8,2.5,3.22,2.46,4.57
			c0,1.74-1.19,3.47-2.84,3.9v0.04c-0.13,0.04-0.3,0.08-0.42,0.08c-0.17,0.04-0.3,0.04-0.47,0.04c-0.3,0-0.63-0.08-0.93-0.17
			c0.21-2.46,0.3-5.08,0.34-8c0.04-1.1,0.04-2.24,0.04-3.43v-3.13c-1.06,0.08-2.07,0.08-3.13,0.08c-1.19,0-2.33-0.04-3.47-0.08v7.32
			v17.53v12.7v2.46c0.38-0.51,0.93-1.31,1.57-2.5C253.66,298.45,255.06,294.47,256.08,287.91z"/>
		<path class="st0" d="M260.27,201.93c0.04,0,0.08,0.04,0.13,0.04l0.13-0.04H260.27z"/>
		<path class="st0" d="M206.76,256.46c1.27,1.99,3.94,3.01,6.22,2.33c2.29-0.68,3.98-2.92,3.98-5.29c-1.18,1.48-3.81,1.19-4.87-0.38
			c-0.72-1.06-0.72-2.46-0.25-3.64l-5.04,3.72l2.37-5.93c0.85-2.08,1.69-4.23,2.24-6.39c-0.34,0.04-0.63,0.04-0.93,0
			c-1.86-0.21-3.64-1.74-3.72-3.64c-0.09-1.9,1.82-3.72,3.64-3.22c-1.44-1.9-4.15-2.67-6.35-1.82c-2.24,0.85-3.77,3.22-3.56,5.59
			c0.21,2.37,2.08,4.49,4.4,4.95c-4.23,1.9-3.85,5.25-3.85,5.25c1.35,1.9,4.06,2.71,6.22,1.86
			C205.7,251.63,205.49,254.47,206.76,256.46z"/>
		<path class="st0" d="M275.55,209.34c-1.31,0.13-2.75-0.51-3.39-1.69l0.93,1.35c-3.64-3.13-7.92-5.59-12.7-7.03l-1.06,0.47v12.7
			c2.84,1.27,5.33,3.09,7.32,5.33c1.06-0.47,2.12-0.72,2.96-0.93c1.99-0.42,4.02-0.64,6.05-0.64c1.52,0,3.01,0.13,4.44,0.38
			c0.42,0,0.8,0.08,1.23,0.21c-0.55-1.06-1.14-2.12-1.82-3.13c0.09-0.3,0.17-0.55,0.3-0.81c0.59-1.18,1.82-1.99,3.13-2.2
			c1.86-0.3,3.98,0.68,4.61,2.5c0.59,1.78-0.76,4.06-2.67,4.11c1.9,1.4,4.74,1.4,6.65,0c1.9-1.44,2.71-4.15,1.86-6.35
			c-0.8-2.24-3.22-3.77-5.59-3.6c1.99-1.23,2.96-3.85,2.28-6.1c0,0-2.41-2.33-6.48-0.04c1.02-2.16,0.42-4.95-1.31-6.52
			c-1.78-1.57-4.61-1.82-6.65-0.55c-0.42,0.25-0.76,0.55-1.06,0.89c-0.72,0.76-1.18,1.74-1.35,2.75c-0.21,0.85-0.17,1.69,0.04,2.54
			c0.72-1.74,3.34-2.16,4.78-0.97c1.44,1.23,1.61,3.56,0.68,5.16C278.09,208.32,276.86,209.21,275.55,209.34z"/>
		<path class="st0" d="M300.23,237.79c0.21-2.37-1.31-4.74-3.51-5.59c-2.2-0.85-4.95-0.08-6.39,1.82c1.82-0.51,3.77,1.31,3.64,3.22
			c-0.08,1.9-1.82,3.43-3.72,3.64c-0.59,0.04-1.14,0-1.69-0.17c0.55,2.24,1.44,4.4,2.29,6.56l2.37,5.93l-4.11-3.05
			c0.25,1.02,0.13,2.07-0.47,2.96c-1.06,1.57-3.68,1.86-4.83,0.38c0,2.37,1.69,4.61,3.98,5.29c2.24,0.68,4.91-0.34,6.18-2.33
			c1.27-1.99,1.06-4.83-0.51-6.6c2.2,0.85,4.87,0.04,6.22-1.86c0,0,0.42-3.34-3.81-5.25C298.15,242.27,300.06,240.16,300.23,237.79z
			"/>
		<polygon class="st0" points="287.57,145.59 285.03,149.99 288.2,150.63 		"/>
		<path class="st0" d="M308.82,159.18c0.63,0.21,1.18,0.25,1.69,0.04c0.51-0.21,0.89-0.64,1.06-1.23c0.21-0.55,0.21-1.06-0.04-1.48
			c-0.26-0.47-0.72-0.8-1.31-1.02l-2.07-0.76l-1.31,3.73L308.82,159.18z"/>
		<path class="st0" d="M237.7,145.72l-2.16,0.13l0.25,3.98l2.12-0.17c0.68-0.04,1.18-0.25,1.56-0.68c0.38-0.38,0.55-0.89,0.51-1.52
			c-0.04-0.55-0.25-1.02-0.68-1.31C238.93,145.8,238.38,145.68,237.7,145.72z"/>
		<path class="st0" d="M242.4,126.54c0.72,0,1.23-0.21,1.61-0.55c0.34-0.34,0.51-0.8,0.47-1.44c0-0.63-0.21-1.1-0.59-1.48
			c-0.42-0.38-0.93-0.55-1.56-0.55l-2.46,0.13l0.17,4.02L242.4,126.54z"/>
		<path class="st0" d="M265.68,131.07c0.42-0.34,0.68-0.8,0.72-1.44c0.08-0.55-0.08-1.06-0.42-1.4c-0.38-0.38-0.89-0.59-1.57-0.68
			l-2.16-0.21l-0.34,3.98l2.12,0.17C264.71,131.54,265.26,131.41,265.68,131.07z"/>
		<path class="st0" d="M226.74,132.43c0.68-0.08,1.23-0.34,1.57-0.72c0.34-0.42,0.51-0.93,0.42-1.57c-0.04-0.59-0.3-1.02-0.72-1.31
			c-0.42-0.3-0.97-0.38-1.65-0.34l-2.16,0.25l0.47,3.94L226.74,132.43z"/>
		<path class="st0" d="M180.43,157.7c0.68-0.25,1.1-0.59,1.31-1.06c0.25-0.42,0.25-0.93,0.04-1.48c-0.21-0.59-0.59-1.02-1.06-1.27
			c-0.51-0.21-1.06-0.21-1.65,0l-2.29,0.89l1.44,3.77L180.43,157.7z"/>
		<path class="st0" d="M250.32,113.25c-0.17,0-0.3,0-0.3,0h-0.34c-4.53,0-53.38,0.64-98.72,28.79l14.05,18.29l14.27,18.54
			c0,0,4.49-2.71,12.19-6.05c12.66-5.46,33.95-12.7,58.54-12.7c24.55,0,45.89,7.24,58.5,12.7c7.71,3.34,12.19,6.05,12.19,6.05
			l14.26-18.54l14.06-18.29C303.7,113.88,254.85,113.25,250.32,113.25z M274.57,131.11l2.63,0.47c-0.08,0.42,0.04,0.85,0.42,1.23
			c0.34,0.38,0.8,0.59,1.44,0.72c0.68,0.08,1.27,0.04,1.69-0.21c0.47-0.25,0.76-0.63,0.81-1.1c0.13-0.68,0.04-1.18-0.3-1.52
			c-0.3-0.34-0.8-0.55-1.48-0.68l-1.57-0.25l0.34-2.07l1.61,0.3c1.27,0.17,1.99-0.3,2.16-1.4c0.08-0.51-0.04-0.89-0.38-1.23
			c-0.34-0.34-0.8-0.55-1.44-0.68c-0.55-0.08-1.02-0.04-1.44,0.17c-0.42,0.21-0.68,0.55-0.76,1.02l-2.58-0.47
			c0.08-0.68,0.38-1.27,0.89-1.74c0.47-0.51,1.1-0.85,1.86-1.02c0.76-0.17,1.57-0.21,2.37-0.08c1.48,0.25,2.58,0.76,3.3,1.52
			s1.01,1.74,0.8,2.88c-0.08,0.55-0.34,1.06-0.76,1.48c-0.42,0.42-0.97,0.72-1.65,0.93c0.68,0.34,1.14,0.8,1.44,1.35
			c0.25,0.55,0.34,1.23,0.25,1.95c-0.21,1.14-0.8,1.99-1.82,2.5c-0.97,0.51-2.24,0.68-3.72,0.42c-0.89-0.17-1.69-0.47-2.41-0.89
			c-0.68-0.42-1.14-0.97-1.44-1.57C274.53,132.51,274.45,131.83,274.57,131.11z M270.93,121.34l2.67,0.21l-1.14,12.83l-2.67-0.21
			L270.93,121.34z M249.43,120.19l8.42,0.13l-0.04,2.16l-5.8-0.08l-0.17,10.71l-2.67-0.04L249.43,120.19z M242.15,120.36
			c0.97-0.04,1.82,0.13,2.58,0.42c0.72,0.34,1.31,0.8,1.74,1.44c0.42,0.63,0.68,1.4,0.68,2.2c0.08,1.27-0.3,2.29-1.14,3.05
			c-0.85,0.76-2.03,1.19-3.56,1.23l-2.29,0.13l0.17,4.53l-2.63,0.08l-0.55-12.83L242.15,120.36z M211.16,124.13l0.97,5.04l1.19-0.21
			l2.12-5.67l3.17-0.59l-2.75,6.73l5.59,5.84l-3.13,0.59l-4.23-4.53l-1.48,0.25l0.97,5.16l-2.58,0.51l-2.41-12.66L211.16,124.13z
			 M184.11,157.4c-0.55,1.01-1.53,1.78-2.96,2.33l-2.16,0.8l1.61,4.23l-2.5,0.97l-4.57-12.06l4.7-1.78
			c0.93-0.34,1.78-0.47,2.58-0.42c0.8,0.08,1.52,0.38,2.12,0.85c0.59,0.47,1.06,1.06,1.35,1.86
			C184.7,155.37,184.66,156.43,184.11,157.4z M188.9,161.72L185,149.44l8.21-2.62l0.63,2.03l-5.67,1.82l0.93,2.92l4.87-1.52
			l0.64,1.95l-4.87,1.57l1.06,3.3l5.67-1.82l0.68,2.03L188.9,161.72z M206.5,155.54c-0.68,1.02-1.78,1.69-3.22,2.07
			c-1.61,0.42-3.01,0.21-4.19-0.63c-1.18-0.85-2.03-2.2-2.54-4.06l-0.17-0.76c-0.34-1.18-0.38-2.33-0.21-3.34
			c0.17-1.02,0.59-1.86,1.27-2.54c0.63-0.72,1.52-1.19,2.54-1.44c1.44-0.38,2.71-0.3,3.77,0.25c1.1,0.51,1.86,1.48,2.37,2.84
			l-2.58,0.68c-0.25-0.8-0.63-1.31-1.1-1.61c-0.47-0.25-1.1-0.3-1.9-0.08c-0.85,0.25-1.4,0.72-1.69,1.44
			c-0.25,0.72-0.21,1.74,0.08,3.01l0.25,0.93c0.34,1.35,0.8,2.29,1.4,2.79c0.55,0.55,1.27,0.68,2.16,0.47
			c0.8-0.21,1.35-0.55,1.65-1.02c0.3-0.47,0.34-1.1,0.21-1.86l2.58-0.68C207.44,153.38,207.18,154.52,206.5,155.54z M217.43,154.31
			l-2.03-10.54l-5.08,1.02l2.07,10.5l-2.62,0.51l-2.46-12.61l10.29-1.99l2.46,12.61L217.43,154.31z M227.33,150.54l-0.25,0.72
			c-0.51,1.27-1.44,1.95-2.79,2.12l-0.93,0.08l-0.3-2.07c0.13,0,0.38-0.04,0.68-0.08c0.38-0.04,0.68-0.13,0.85-0.3
			c0.21-0.17,0.38-0.42,0.51-0.76l0.21-0.89l-5.67-8.51l2.84-0.38l3.6,5.67l1.57-6.35l2.84-0.34L227.33,150.54z M230.42,132.98
			c-0.8,0.85-1.91,1.4-3.34,1.57l-4.83,0.55l-1.48-12.78l2.63-0.3l0.55,4.61l2.08-0.25c1.48-0.17,2.71,0.04,3.68,0.68
			c0.97,0.64,1.52,1.57,1.69,2.79C231.52,131.07,231.18,132.13,230.42,132.98z M234.11,120.74l1.48,12.78l-2.63,0.34l-1.48-12.78
			L234.11,120.74z M241.56,150.37c-0.85,0.85-1.99,1.31-3.43,1.4l-4.83,0.34l-0.89-12.83l8.42-0.59l0.13,2.16l-5.72,0.38l0.17,2.5
			l2.03-0.17c1.52-0.08,2.75,0.21,3.68,0.89c0.93,0.68,1.44,1.61,1.52,2.84C242.74,148.55,242.36,149.57,241.56,150.37z
			 M254.89,151.39h-2.67v-10.71h-3.43l-0.21,4.53c-0.08,1.52-0.25,2.75-0.59,3.64c-0.3,0.85-0.72,1.52-1.31,1.9
			c-0.55,0.42-1.35,0.63-2.33,0.63h-0.72v-2.12l0.47-0.04c0.63-0.08,1.14-0.47,1.4-1.14c0.3-0.72,0.47-1.9,0.55-3.64l0.21-5.93h8.64
			V151.39z M267.33,152.15l-2.63-0.17l0.59-8.55l-5.76,8.21l-2.63-0.21l0.89-12.83l2.63,0.17l-0.59,8.55l5.76-8.17l2.62,0.17
			L267.33,152.15z M267.5,132.76c-0.97,0.68-2.16,0.97-3.64,0.85l-4.78-0.42l1.14-12.83l2.67,0.25l-0.42,4.61l2.03,0.17
			c1.53,0.17,2.71,0.63,3.51,1.44c0.8,0.81,1.19,1.82,1.06,3.05C268.94,131.16,268.44,132.09,267.5,132.76z M288.8,155.66
			l-0.34-2.79l-4.57-0.93l-1.4,2.41l-2.46-0.51l-0.13-0.3l-0.17,0.25l-2.84-0.38l-2.58-5.67l-1.53-0.21l-0.72,5.21l-2.63-0.34
			l1.78-12.74l2.63,0.34l-0.72,5.12l1.19,0.17l3.85-4.7l3.17,0.47l-4.74,5.46l3.3,7.03l7.11-11.39l2.41,0.51l2.12,13.55
			L288.8,155.66z M300.86,157.78c-1.1,0.51-2.37,0.55-3.81,0.17c-1.61-0.42-2.71-1.31-3.3-2.63c-0.63-1.35-0.68-2.92-0.17-4.78
			l0.21-0.76c0.34-1.23,0.85-2.2,1.53-3.01c0.63-0.8,1.44-1.31,2.37-1.57c0.89-0.3,1.86-0.3,2.92,0c1.44,0.38,2.46,1.1,3.13,2.12
			c0.68,1.02,0.89,2.2,0.63,3.64l-2.58-0.72c0.17-0.8,0.13-1.44-0.17-1.9c-0.3-0.47-0.8-0.8-1.61-1.02
			c-0.85-0.25-1.57-0.13-2.16,0.38c-0.59,0.47-1.06,1.35-1.44,2.67l-0.25,0.93c-0.38,1.31-0.42,2.37-0.21,3.09
			c0.25,0.72,0.8,1.23,1.69,1.48c0.76,0.21,1.4,0.17,1.91-0.08c0.47-0.25,0.85-0.72,1.14-1.48l2.54,0.72
			C302.77,156.34,301.96,157.23,300.86,157.78z M311.83,161.3c-1.06,0.42-2.33,0.38-3.68-0.08l-4.57-1.65l4.36-12.11l2.5,0.89
			l-1.57,4.4l1.95,0.68c1.44,0.51,2.46,1.27,3.05,2.24c0.55,1.02,0.63,2.07,0.25,3.26C313.69,160.11,312.92,160.87,311.83,161.3z
			 M316.23,164.09l-2.5-0.89l4.32-12.11l2.5,0.89L316.23,164.09z"/>
		<polygon class="st0" points="256.58,368.55 255.44,365.37 255.02,364.19 258.62,361.94 258.66,361.9 264.24,358.43 262.17,358.43 
			260.98,358.43 259.04,358.43 253.03,358.43 250.02,344.97 246.97,358.43 241.3,358.43 239.35,358.43 238.21,358.43 235.76,358.43 
			240.92,361.65 244.98,364.19 244.6,365.29 243.33,368.76 243.33,368.8 240.54,376.55 250.02,369.1 259.46,376.55 256.58,368.59 		
			"/>
		<polygon class="st0" points="249.98,344.93 250.02,344.97 250.02,344.93 		"/>
		<path class="st0" d="M205.78,229.19c1.91,0,3.43-1.52,3.43-3.47c0-1.9-1.52-3.43-3.43-3.43c-1.95,0-3.47,1.52-3.47,3.43
			C202.31,227.67,203.84,229.19,205.78,229.19z"/>
		<path class="st0" d="M216.79,267c1.91,0,3.47-1.57,3.47-3.47c0-1.9-1.56-3.47-3.47-3.47c-1.9,0-3.47,1.57-3.47,3.47
			C213.32,265.43,214.89,267,216.79,267z"/>
		<path class="st0" d="M294.68,222.29c-1.95,0-3.47,1.52-3.47,3.43c0,1.95,1.52,3.47,3.47,3.47c1.91,0,3.43-1.52,3.43-3.47
			C298.11,223.82,296.59,222.29,294.68,222.29z"/>
		<path class="st0" d="M283.63,267c1.91,0,3.47-1.57,3.47-3.47c0-1.9-1.56-3.47-3.47-3.47c-1.9,0-3.47,1.57-3.47,3.47
			C280.16,265.43,281.73,267,283.63,267z"/>
		<path class="st0" d="M269.83,192.66c-0.08-0.04-0.25-0.04-0.47-0.04c-1.4,0-5.12,0.17-8.17,0.38v-0.47h-4.02v-18.88
			c0,0,0.8-1.31,0.97-2.88c0.25-2.37-0.85-5.25-7.96-5.25c-7.15,0-8.38,2.92-8.17,5.25c0.08,1.57,0.8,2.88,0.8,2.88v3.89h-0.04
			l0.04,0.08v4.49h-0.04l0.04,0.08v5.04h-0.04l0.04,0.08v4.95h-0.04l0.04,0.08v0.17h-3.72V193c-3.09-0.17-7.03-0.38-8.47-0.38
			c-0.21,0-0.38,0-0.47,0.04c-3.13,0.3-3.51,2.75-3.01,4.78c0.51,1.82,1.4,2.41,2.41,2.41c1.23,0,2.63-0.93,3.51-1.65
			c0.3-0.25,0.72-0.38,1.14-0.38c0.21,0,0.47,0.04,0.68,0.13l4.19,1.82l3.39,1.48c0,0,0,0,0,0.04v30.77c2.2,0.13,4.4,0.21,6.61,0.25
			v-32.55h0.93c-3.47,0-6.26-1.27-6.26-2.84c0-1.57,2.79-2.84,6.26-2.84c3.43,0,6.22,1.27,6.22,2.84c0,1.57-2.79,2.84-6.22,2.84
			h0.89v32.55c2.2,0,4.4-0.08,6.6-0.25v-30.14c0-0.42,0-0.68,0-0.68h0.04l3.64-1.61l3.89-1.69c0.21-0.08,0.47-0.13,0.68-0.13
			c0.42,0,0.85,0.13,1.15,0.38c0.89,0.72,2.29,1.65,3.51,1.65c1.02,0,1.91-0.59,2.41-2.41
			C273.34,195.41,272.96,192.96,269.83,192.66z M250.02,167.73c2.5,0,4.57,1.14,4.57,2.54c0,0.04,0,0.13-0.04,0.17
			c-0.13,1.31-2.12,2.37-4.53,2.37c-2.46,0-4.44-1.06-4.57-2.37c-0.04-0.04-0.04-0.13-0.04-0.17
			C245.41,168.87,247.48,167.73,250.02,167.73z M255.52,187.03l-10.29,4.27c-0.13,0.04-0.25,0.08-0.38,0.08
			c-0.34,0-0.68-0.21-0.81-0.55c-0.21-0.47,0-1.02,0.47-1.19l10.29-4.32c0.47-0.17,0.97,0.04,1.19,0.51
			C256.2,186.31,255.95,186.82,255.52,187.03z M255.52,181.78l-2.92,1.23h-0.04l-7.32,3.05c-0.13,0.08-0.25,0.08-0.38,0.08
			c-0.34,0-0.68-0.21-0.81-0.55c-0.21-0.47,0-0.97,0.47-1.19l3.34-1.4h0.04l6.9-2.88c0.47-0.21,0.97,0,1.19,0.47
			C256.2,181.06,255.95,181.57,255.52,181.78z M255.52,176.96l-10.29,4.28c-0.13,0.04-0.25,0.08-0.38,0.08
			c-0.34,0-0.68-0.21-0.81-0.55c-0.21-0.47,0-1.02,0.47-1.19l10.29-4.32c0.47-0.17,0.97,0.04,1.19,0.51
			C256.2,176.24,255.95,176.75,255.52,176.96z"/>
		<path class="st0" d="M222.42,229.96h0.17c0-0.04,0.04-0.08,0.04-0.13c0.3-0.59,1.01-0.85,1.65-0.93c0.25-0.04,0.47-0.04,0.72-0.04
			c1.19,0,2.33,0.34,3.51,0.63c0.51,0.17,1.06,0.3,1.57,0.42c0.59,0.13,1.18,0.21,1.82,0.21c1.4,0,2.79-0.42,3.6-1.52
			c1.02-1.48,0.55-3.64-0.72-4.95c-0.68-0.72-1.56-1.27-2.5-1.61c-0.72-0.34-1.52-0.55-2.29-0.72c-1.86-0.42-3.77-0.59-5.67-0.59
			c-2.16,0-4.28,0.25-6.35,0.76c-1.02,0.21-2.03,0.51-3.01,0.89c-1.23,0.47-2.45,1.1-2.96,2.24c-0.63,1.44,0.08,3.05,0.59,4.53
			c1.14,3.05,1.52,6.39,1.06,9.61c-0.08,0.47-0.13,0.97-0.3,1.44c-0.51,2.67-1.48,5.21-2.5,7.7c1.65-1.23,3.51-2.16,5.46-2.79
			c0.47-0.17,0.93-0.34,1.44-0.47c1.44-0.34,2.88-0.55,4.36-0.55L222.42,229.96z"/>
		<polygon class="st0" points="254.89,243.46 253.11,248.75 256.67,248.75 		"/>
		<path class="st0" d="M276.18,248.07h-0.04l-0.34-15.83c-0.42,0.13-0.89,0.21-1.35,0.25c-0.68,0.08-1.4,0.17-2.07,0.21
			c-4.32,0.51-8.68,0.89-13.04,1.1c-0.3,0.04-0.59,0.04-0.89,0.04c-0.3,0.04-0.59,0.08-0.93,0.04c-2.2,0.17-4.4,0.21-6.6,0.25
			c-0.21,0.04-0.47,0.04-0.68,0.04h-0.21c-0.3,0-0.59,0-0.93-0.04c-2.16-0.04-4.36-0.13-6.61-0.25c-0.3,0-0.59,0-0.93-0.04
			c-0.3,0-0.59,0-0.89-0.04c-4.27-0.25-8.59-0.59-12.78-1.06c-0.8-0.08-1.57-0.17-2.33-0.25c-0.47-0.04-0.97-0.13-1.4-0.25
			l-0.3,14.94h-0.04c0,2.84-0.17,5.63-0.13,8.42c0.04,0.76,0.04,1.57,0.47,2.24c0.55,0.97,1.78,1.31,2.88,1.61
			c4.45,1.06,9.02,1.69,13.63,1.99c0.3,0.04,0.59,0.04,0.89,0.04c0.3,0.04,0.63,0.04,0.93,0.04c1.1,0.04,2.24,0.08,3.34,0.08
			c1.1,0,2.16-0.04,3.26-0.08c0.3,0,0.63,0,0.93-0.04c0.04,0,0.04,0,0.08,0c0.25,0,0.55,0.04,0.8,0.04
			c1.14,0.04,2.29,0.08,3.47,0.08c1.06,0,2.07,0,3.13-0.08c0.3,0,0.63,0,0.93-0.04c0.3,0,0.59,0,0.89-0.04
			c4.57-0.25,9.14-0.93,13.63-1.99c1.1-0.3,2.33-0.63,2.88-1.61c0.42-0.68,0.42-1.48,0.47-2.24
			C276.35,253.11,276.22,250.61,276.18,248.07z M244.56,254.04l-2.08-4.02l-0.93-1.78h-1.69v5.8h-2.5c-0.13-0.08-0.3-0.21-0.42-0.34
			v-5.46h-1.74l-1.4,2.67l-1.65,3.13h-3.64l3.26-5.63l1.14-1.99l-4.19-6.56h3.6l3.17,5.71h1.44v-5.71h2.92v5.71h1.4l0.3-0.55
			l0.93-1.74l1.86-3.43h3.6l-4.1,6.56l4.36,7.62H244.56z M258.45,254.04l-0.93-2.79l-0.04-0.13h-5.12l-0.97,2.92h-3.09l0.81-2.16
			l0.93-2.54l0.89-2.37l2.63-7.11h2.71l1.27,3.39l0.93,2.5l0.89,2.41l2.2,5.88H258.45z M272.37,242.23h-4.36v11.81h-2.92v-11.81
			h-4.28v-2.37h11.56V242.23z"/>
		<path class="st0" d="M277.58,230.8l0.3,13.29c1.69,0,3.34,0.25,4.99,0.76h0.04c0.34,0.08,0.68,0.17,1.01,0.3
			c1.86,0.68,3.64,1.57,5.21,2.75c-1.1-2.75-2.2-5.55-2.67-8.51c-0.08-0.21-0.08-0.42-0.13-0.63c-0.47-3.22-0.08-6.56,1.06-9.61
			c0.51-1.48,1.23-3.09,0.59-4.53c-0.51-1.14-1.73-1.78-2.96-2.24c-0.89-0.34-1.78-0.59-2.71-0.8c-2.16-0.59-4.4-0.85-6.65-0.85
			c-1.91,0-3.81,0.17-5.67,0.59c-0.68,0.17-1.4,0.34-2.07,0.64c-1.01,0.38-1.99,0.89-2.71,1.69c-1.27,1.31-1.73,3.47-0.72,4.95
			c0.8,1.1,2.2,1.52,3.6,1.52c0.63,0,1.23-0.08,1.82-0.21c0.59-0.13,1.18-0.3,1.78-0.47c1.1-0.3,2.2-0.59,3.3-0.59
			c0.25,0,0.47,0,0.72,0.04c0.63,0.08,1.36,0.34,1.65,0.93c0.17,0.3,0.17,0.63,0.08,0.97H277.58z"/>
	</g>
</g>
</svg>
