<?xml version="1.0" encoding="utf-8"?>
<!-- Generator: Adobe Illustrator 26.5.0, SVG Export Plug-In . SVG Version: 6.00 Build 0)  -->
<svg version="1.1" id="Layer_1" xmlns="http://www.w3.org/2000/svg" xmlns:xlink="http://www.w3.org/1999/xlink" x="0px" y="0px"
	 viewBox="0 0 500 500" style="enable-background:new 0 0 500 500;" xml:space="preserve">
<style type="text/css">
	.st0{fill:#131313;}
</style>
<g>
	<path class="st0" d="M131.18,249.67c0.55-31.81,11.65-59.57,34.02-82.67c22.51-23.25,53.02-34.79,80.85-35.55
		c21.62-0.59,41.92,4.12,60.88,14.43c19.31,10.49,34.52,25.35,45.63,44.26c8.57,14.59,13.94,30.37,15.5,47.25
		c3.39,36.64-7.29,68.68-32.87,95.21c-23.18,24.04-51.95,35.7-85.28,36.24c-32.59-0.52-60.82-11.87-83.88-34.93
		C142.96,310.83,131.66,282.6,131.18,249.67z M167.54,277.73c-7.4,2.59-14.81,4.95-22.13,7.53c2.05,7.78,11.9,26.67,15.24,29.25
		c2.29-1.62,4.59-3.26,6.9-4.9c7.64,10.5,16.79,19.15,27.62,26.12c-1.58,2.48-3.1,4.87-4.66,7.32c12,7.69,24.91,12.72,38.82,15.49
		c0.32-1.51,0.64-2.89,0.9-4.28c0.27-1.42,0.44-2.87,0.87-4.24c12.73,2.28,25.32,2.29,37.94-0.02c0.57,2.87,1.12,5.63,1.7,8.54
		c13.92-2.76,26.81-7.81,38.75-15.46c-1.57-2.5-3.07-4.89-4.62-7.38c10.87-6.95,20-15.63,27.62-26.07c2.38,1.69,4.71,3.35,7.02,4.99
		c4.91-5.77,14.19-23.95,15.03-29.42c-7.35-2.48-14.72-4.97-22.08-7.45c-12.44,36.69-46.85,59.48-82.65,59.19
		c-17.95-0.15-34.32-5.18-49.06-15.28C184.86,310.78,173.95,296.04,167.54,277.73z M250,232.96c-2.88,2.72-5.76,5.27-8.45,8.01
		c-3.49,3.55-6.89,7.2-10.21,10.91c-3.32,3.72-6.54,7.52-9.69,11.38c-2.34,2.87-4.45,5.92-6.75,8.82c-0.67,0.85-0.91,1.67-0.9,2.72
		c0.05,3.38,0.02,6.76,0.03,10.15c0,0.37,0.05,0.73,0.07,1.03c1.44,0,2.78,0,4.16,0c0-1.12-0.02-2.12,0.01-3.11
		c0.03-0.97-0.21-1.98,0.19-2.91c4.24,0,8.42,0,12.75,0c0,4.47,0,8.88,0,13.32c2.6,0.16,5.07-0.09,7.65,0.15c0,4.17,0,8.24,0,12.4
		c0.6,0.03,1.06,0.06,1.53,0.07c0.46,0.01,0.93,0,1.4,0c-0.31-4.26-0.16-26.89,0.18-27.93c4.74,0,9.49,0,14.4,0
		c0,9.33,0,18.59,0,27.85c3.67,0,7.17,0,10.76,0c0-1.22,0-2.36,0-3.49c0-1.14,0-2.29,0-3.43c0-1.19-0.01-2.38,0-3.57
		c0.01-1.12,0.03-2.25,0.04-3.35c3.06-0.25,6.12-0.16,7.19,0.23c0,2.6,0,5.25,0,7.96c2.49,0,4.85,0,7.34,0c0-1.61,0-3.17,0-4.73
		c0-1.57,0-3.14,0-4.72c0-1.57,0-3.14,0-4.72s0-3.14,0-4.72s-0.02-3.14,0-4.72c0.02-1.55-0.1-3.1,0.08-4.7c0.64,0,1.11,0,1.59,0
		c0.45,0,0.9,0,1.57,0C274.53,257.65,262.92,244.84,250,232.96z M193.39,193.43c-20.02,19.52-26.07,47.37-22.51,68.02
		c14.77-19.42,31.94-36.19,51.7-50.38C213.11,204.52,203.43,198.66,193.39,193.43z M306.67,193.43
		c-10.15,5.25-19.79,11.13-29.22,17.62c1.67,1.23,3.27,2.39,4.85,3.59c1.62,1.23,3.23,2.49,4.82,3.77c1.55,1.25,3.08,2.52,4.6,3.8
		c1.56,1.31,3.1,2.64,4.63,3.98c1.5,1.31,2.98,2.64,4.44,3.99c1.46,1.35,2.89,2.74,4.32,4.12c1.47,1.42,2.94,2.84,4.36,4.3
		c1.39,1.43,2.74,2.9,4.09,4.37c1.39,1.5,2.78,2.99,4.13,4.52c1.32,1.49,2.6,3.02,3.87,4.55c1.3,1.57,2.55,3.18,3.86,4.74
		c1.26,1.48,2.33,3.13,3.79,4.64C332.62,238.83,325.98,212.64,306.67,193.43z M177.24,283.54c0.75-1.09,1.47-2.07,2.11-3.11
		c3.2-5.16,6.78-10.06,10.41-14.92c3.89-5.21,8.01-10.23,12.33-15.09c0.53-0.6,0.79-1.22,0.74-2.04c-0.07-1.17-0.02-2.35-0.02-3.66
		c1.16,0,2.15-0.05,3.14,0.02c0.92,0.06,1.61-0.17,2.21-0.93c0.83-1.04,1.75-2.01,2.69-2.94c3.05-2.99,6.06-6.01,9.21-8.9
		c3.39-3.11,6.91-6.08,10.38-9.1c1.2-1.05,2.41-2.1,3.75-3.26c-3.04-2.27-5.94-4.44-8.87-6.63c-20.78,14.9-38.72,32.56-53.81,52.97
		C172.76,272.08,174.73,277.84,177.24,283.54z M328.59,266.08c-7.65-10.31-15.91-19.84-24.92-28.72c-9.03-8.9-18.73-17-29.01-24.38
		c-3.03,2.29-5.98,4.4-8.88,6.7c12.28,9.87,23.43,20.64,33.7,32.49c2.11,0,4.28,0,6.59,0c0,0.52,0,0.94,0,1.35
		c0,1.81,0.02,3.62-0.01,5.43c-0.01,0.8,0.16,1.47,0.71,2.09c0.76,0.85,1.46,1.75,2.13,2.67c2.82,3.87,5.66,7.74,8.42,11.66
		c1.86,2.64,3.58,5.37,5.51,8.28c1.16-3.06,2.35-5.89,3.3-8.81C327.08,271.94,327.8,268.95,328.59,266.08z M285.95,178.41
		c-12.7-6.29-25.87-9.1-39.67-8.46c-11.19,0.52-21.89,3.26-32.17,8.47c1.09,0.42,1.91,0.75,2.74,1.07
		c4.86,1.87,9.76,3.64,14.57,5.63c6.04,2.5,11.9,5.38,17.69,8.41c0.68,0.35,1.18,0.32,1.85-0.01c4.07-2.02,8.15-4,12.25-5.96
		c5.99-2.86,12.14-5.32,18.4-7.51C282.97,179.57,284.31,179.03,285.95,178.41z M252.32,230.76c0.52,0.46,0.86,0.73,1.16,1.02
		c2.6,2.5,5.26,4.94,7.78,7.51c4.29,4.37,8.46,8.85,12.5,13.46c3.89,4.44,7.5,9.08,11.16,13.7c1.12,1.41,2.13,2.9,3.15,4.39
		c0.5,0.72,1.07,1.12,2.01,1.05c1.17-0.08,2.36-0.02,3.61-0.02c0.03,0.51,0.07,0.87,0.07,1.24c0.01,1.62-0.03,3.24,0.02,4.86
		c0.02,0.54,0.15,1.14,0.43,1.6c0.61,1.01,1.34,1.95,2.03,2.93c0.6-0.03,1.15-0.06,1.79-0.09c0-0.62,0-1.09,0-1.56
		c-0.01-8-0.04-16.01-0.01-24.01c0-1.04-0.3-1.82-0.97-2.55c-2.85-3.12-5.59-6.35-8.54-9.38c-3.67-3.77-7.49-7.41-11.29-11.06
		c-1.98-1.91-4.01-3.78-6.1-5.58c-2.58-2.23-5.24-4.37-7.99-6.66C259.59,224.63,256.05,227.61,252.32,230.76z M247.62,230.77
		c-3.69-3.18-7.19-6.22-10.78-9.11c-8.92,7.18-17.24,14.77-25.13,23.02c0.83,0.04,1.53,0.07,2.33,0.1c0,7.69,0,15.27,0,23.06
		c5.12-6.78,10.36-13.15,15.91-19.28C235.52,242.4,241.41,236.56,247.62,230.77z M281.41,153.57c-2.35-2.07-4.67-3.73-7.31-4.98
		c-2.69-1.27-5.47-2.06-8.39-2.43c-1.13-0.14-2.26-0.28-3.39-0.28c-1.08,0-2.17,0.17-3.25,0.28c-2.75,0.28-5.41,0.9-7.9,2.11
		c-1.04,0.51-1.91,0.44-2.98,0.06c-2.04-0.73-4.12-1.49-6.24-1.78c-1.93-0.27-3.93-0.36-5.94-0.19c-2.32,0.21-4.58,0.54-6.8,1.22
		c-3.16,0.97-6.01,2.54-8.65,4.49c-0.88,0.65-1.66,1.45-2.48,2.18c11.89-2.81,22.48-0.59,31.57,7.59
		C258.71,153.14,269.17,150.31,281.41,153.57z M274.65,208.99c4.87-3.11,9.63-6.28,14.53-9.24c4.94-2.99,10-5.76,15.18-8.73
		c-2.14-1.74-4.22-3.44-6.31-5.14c-0.41-0.33-0.82-0.34-1.32-0.11c-1.41,0.66-2.86,1.25-4.29,1.88c-6.51,2.86-12.84,6.07-19.05,9.52
		c-2.98,1.65-5.92,3.38-8.91,5.09C267.89,204.53,271.28,206.77,274.65,208.99z M225.25,209.07c3.51-2.32,6.89-4.55,10.24-6.77
		c-10.6-6.37-21.49-12.07-32.89-16.8c-2.57,1.6-4.61,3.7-6.98,5.67C205.98,196.57,215.79,202.48,225.25,209.07z M311.01,184.99
		c-1.51-1.19-2.97-2.35-4.44-3.51c0.65-0.85,1.22-1.61,1.8-2.35c2.09-2.65,4.17-5.3,6.27-7.94c0.59-0.74,1.18-1.49,1.84-2.17
		c0.42-0.43,0.91-0.84,1.63-0.46c0.59,0.31,0.84-0.06,0.96-0.63c-1.94-1.52-3.87-3.03-5.77-4.51c-0.6,0.26-0.7,0.64-0.37,1.06
		c0.53,0.67,0.22,1.25-0.12,1.83c-0.12,0.2-0.27,0.39-0.42,0.58c-2.92,3.75-5.84,7.49-8.76,11.24c-0.17,0.21-0.4,0.38-0.63,0.61
		c-1.38-1.27-3.01-2.16-4.26-3.46c0.14-0.27,0.19-0.41,0.27-0.52c1.76-2.24,3.52-4.48,5.29-6.71c1.17-1.49,2.34-2.99,3.52-4.47
		c0.64-0.8,1.3-1.53,2.5-1.18c0.43,0.13,0.71-0.14,0.81-0.65c-0.42-0.34-0.86-0.69-1.3-1.04c-1.34-1.06-2.69-2.1-4.01-3.18
		c-0.46-0.37-0.76-0.28-1.09,0.26c0.9,1.09,0.43,2.05-0.35,3.03c-2.71,3.43-5.39,6.87-8.07,10.32c-0.78,1-1.65,1.7-3.01,1.12
		c-0.16,0.32-0.28,0.55-0.4,0.79c7.26,5.7,14.45,11.34,21.67,17.01c0.27-0.31,0.42-0.48,0.56-0.65c-0.21-0.47-0.4-0.89-0.61-1.35
		c0.43-0.6,0.83-1.19,1.27-1.75c2.73-3.47,5.49-6.91,8.17-10.42c0.72-0.94,1.4-1.51,2.54-0.9c0.24-0.28,0.42-0.49,0.61-0.71
		c-2.01-1.57-3.98-3.12-5.94-4.65c-0.49,0.33-0.73,0.64-0.32,1.09c0.47,0.53,0.3,1.05-0.01,1.57c-0.22,0.36-0.43,0.73-0.69,1.07
		c-1.3,1.69-2.61,3.38-3.93,5.06C314.53,180.56,312.82,182.71,311.01,184.99z M197.03,261.41c-6.68,8.25-12.68,16.82-18.22,25.66
		c2.57,5.6,10.69,16.66,13.29,18.18c-0.48-0.55-0.78-0.98-1.16-1.31c-0.59-0.52-0.74-1.15-0.74-1.91
		c0.02-8.24,0.02-16.48,0.02-24.72c0-0.36,0.07-0.73,0.11-1.18c2.26,0,4.44,0,6.69,0C197.03,271.19,197.03,266.37,197.03,261.41z
		 M261.85,200.61c10.45-6.7,21.31-12.37,32.85-17.21c-1.44-0.85-2.73-1.48-3.86-2.31c-1.03-0.75-2-0.66-3.07-0.26
		c-3.05,1.13-6.12,2.23-9.17,3.38c-2.48,0.94-4.97,1.87-7.39,2.95c-3.59,1.59-7.12,3.3-10.67,4.98c-2.44,1.16-4.85,2.35-7.33,3.56
		C256.11,197.36,258.95,198.97,261.85,200.61z M246.84,195.69c-3.89-1.88-7.67-3.72-11.46-5.52c-2.26-1.07-4.52-2.16-6.83-3.11
		c-3.72-1.53-7.48-2.96-11.24-4.39c-1.94-0.74-3.91-1.4-5.89-2.04c-0.41-0.13-0.99-0.19-1.34,0c-1.56,0.85-3.06,1.79-4.73,2.79
		c11.62,4.96,22.61,10.67,33.19,17.08C241.33,198.87,243.99,197.33,246.84,195.69z M170.69,194.54c1.97,1.25,3.8,2.42,5.63,3.56
		c0.95,0.59,1.46,1.32,0.84,2.46c0.31,0.17,0.55,0.3,0.85,0.47c1.35-2.14,2.66-4.21,4.03-6.37c-0.42-0.14-0.62-0.58-1.07-0.24
		c-0.88,0.66-1.72,0.32-2.51-0.17c-1.41-0.86-2.79-1.76-4.19-2.66c-2.39-1.53-4.79-3.05-7.16-4.62c-0.5-0.33-1.01-0.77-1.28-1.29
		c-0.21-0.39-0.04-0.97-0.04-1.49c-0.28-0.11-0.52-0.21-0.78-0.31c-1.36,2.14-2.68,4.2-4.13,6.48c0.55,0.04,0.95,0.2,1.1,0.07
		c0.89-0.8,1.71-0.36,2.49,0.1c1.06,0.62,2.05,1.35,3.08,2.02c0.54,0.35,1.1,0.68,1.66,1.02c-1.27,1.96-2.45,3.79-3.71,5.73
		c-1.71-1.11-3.39-2.16-5.02-3.29c-0.59-0.41-1.02-0.99-0.87-1.82c0.07-0.4-0.08-0.75-0.63-0.87c-1.35,2.09-2.7,4.19-4.06,6.3
		c0.4,0.37,0.72,0.71,1.22,0.21c0.52-0.52,1.15-0.38,1.72-0.11c0.51,0.24,0.98,0.57,1.46,0.87c2.41,1.52,4.81,3.04,7.21,4.58
		c1.24,0.79,2.49,1.56,3.67,2.42c0.71,0.52,1.5,1.08,1.05,2.23c-0.05,0.14,0.31,0.44,0.56,0.79c1.46-2.26,2.8-4.35,4.14-6.44
		c-0.37-0.3-0.56-0.66-1.02-0.27c-0.61,0.52-1.42,0.46-2.01,0.11c-1.99-1.17-3.91-2.46-5.94-3.76
		C168.23,198.36,169.41,196.53,170.69,194.54z M321.13,286.93c-4.69-7.36-9.52-14.57-15-21.5c0,11.08,0,21.97,0,32.92
		c1.5,0,2.9,0,4.44,0c0.02-0.66,0.07-1.27,0.07-1.87c0.01-5,0-10,0.01-15c0-0.51,0.03-1.01,0.05-1.59c1.84,0,3.52-0.07,5.22,0.04
		c0,3.6,0,7.03,0,10.58c0.85,0,1.6-0.03,2.35,0.01c0.6,0.03,0.97-0.22,1.25-0.74C320.03,288.81,320.59,287.88,321.13,286.93z
		 M152.05,242.27c-0.76-0.13-1.45-0.26-2.14-0.35c-1.36-0.19-2.71-0.39-4.07-0.54c-0.75-0.08-1.25-0.38-1.44-1.14
		c-0.1-0.4-0.32-0.7-0.92-0.53c-0.42,2.44-0.79,4.92-0.93,7.71c0.47-0.31,0.77-0.4,0.9-0.6c0.54-0.82,1.29-1.06,2.22-0.94
		c1.88,0.26,3.76,0.52,5.64,0.77c2.4,0.31,4.8,0.66,7.2,0.89c1.45,0.14,2.74,0.36,3.16,2.16c0.33-0.25,0.68-0.38,0.71-0.56
		c0.34-2.2,0.64-4.4,0.92-6.61c0.02-0.18-0.19-0.54-0.29-0.54c-0.23,0-0.57,0.12-0.66,0.29c-0.51,1.07-1.38,1.18-2.39,0.99
		c-0.51-0.09-1.03-0.13-1.54-0.2c-1.58-0.22-3.16-0.44-4.73-0.65c0.08-2,0.83-2.95,2.71-3.43c2.47-0.62,4.94-1.2,7.48-1.81
		c0.29-1.97,0.58-3.91,0.86-5.83c-0.45-0.26-0.79-0.43-1.03,0.08c-0.4,0.85-1.12,1.17-2.01,1.4c-1.88,0.48-3.72,1.11-5.58,1.66
		c-1.63,0.48-2.68,1.54-3.19,3.15c-0.07,0.21-0.12,0.41-0.24,0.79c-0.93-1.73-2.28-2.73-3.83-3.51c-0.55-0.28-1.05-0.66-1.51-1.06
		c-1.17-1.02-1.01-1.94,0.39-2.56c0.13-0.06,0.25-0.11,0.39-0.18c0.05-0.57,0.1-1.12,0.16-1.68c-1.19-0.22-2.32-0.56-3.57-0.26
		c-0.53,1.63-0.78,3.22,0,4.84c0.48,1.01,1.35,1.57,2.25,2.1c1.18,0.69,2.43,1.27,3.58,2.01
		C151.96,239.03,152.48,240.49,152.05,242.27z M260.67,219.61c-3.62-2.66-7.11-5.23-10.67-7.85c-3.58,2.64-7.07,5.21-10.65,7.86
		c3.7,2.98,7.06,6.1,10.72,8.92C253.62,225.55,257.06,222.65,260.67,219.61z M349,254.09c2.18,0.3,4.3,0.38,6.36,0.94
		c0.45,0.12,0.69,0.45,0.75,0.94c0.06,0.56,0.33,0.95,1,0.99c0.34-2.62,0.68-5.19,1.03-7.82c-0.41-0.04-0.76-0.13-1.01,0.32
		c-0.53,0.96-1.38,1.01-2.34,0.85c-0.93-0.16-1.87-0.27-2.8-0.38c-1.97-0.22-3.94-0.42-5.91-0.64c-1.31-0.15-2.62-0.31-3.93-0.5
		c-1.3-0.19-2.71-0.22-3.16-1.87c-0.02-0.06-0.16-0.08-0.25-0.13c-0.66,0.09-0.6,0.6-0.66,1.07c-0.24,1.98-0.54,3.95-0.75,5.92
		c-0.16,1.46-0.38,2.94-0.31,4.4c0.13,2.57,0.89,4.89,4.6,5.58c2.89,0.54,5.37-0.46,6.38-3.57
		C348.62,258.27,348.69,256.29,349,254.09z M343.86,232.58c0.09,0.49,0.14,0.9,0.24,1.3c0.29,1.24,0.51,2.51,0.92,3.71
		c0.42,1.23,1.24,2.2,2.38,2.93c1.2,0.77,2.5,0.79,3.85,0.75c2.04-0.06,4.04-1.51,4.52-3.48c0.32-1.32,0.33-2.64,0.13-3.96
		c-0.22-1.44-0.49-2.88-0.74-4.32c-0.3-1.65-0.61-3.29-0.91-4.93c-0.64,0.06-0.9,0.35-1,0.82c-0.14,0.71-0.64,0.99-1.3,1.11
		c-1.49,0.27-2.97,0.57-4.46,0.84c-3.06,0.57-6.12,1.18-9.2,1.66c-1.01,0.16-2.21,0.45-2.9-0.87c-0.19-0.37-0.63-0.3-0.93,0
		c0.47,2.58,0.94,5.12,1.43,7.81c0.31-0.22,0.62-0.34,0.64-0.48c0.17-1.68,1.46-1.92,2.74-2.17c0.88-0.17,1.77-0.34,2.65-0.48
		C342.52,232.73,343.13,232.67,343.86,232.58z M336.73,186.98c-0.61,0.21-1.18,0.45-1.77,0.61c-2.55,0.68-5.11,1.33-7.67,1.99
		c-2.75,0.71-5.5,1.4-8.24,2.14c-0.92,0.25-1.78,0.3-2.62-0.17c-0.43-0.24-0.71-0.15-0.93,0.36c1.15,1.63,2.32,3.28,3.49,4.94
		c0.43-0.11,0.65-0.29,0.57-0.79c-0.21-1.31-0.05-1.69,1.13-2.23c0.97-0.44,2.02-0.72,3.1-1.1c1.29,1.81,2.5,3.5,3.8,5.32
		c-0.92,0.96-1.75,1.94-2.68,2.79c-0.71,0.65-0.94,0.59-1.76,0.06c-0.15-0.1-0.29-0.22-0.46-0.35c-0.21,0.15-0.4,0.28-0.68,0.47
		c1.56,2.2,3.08,4.35,4.68,6.61c0.25-0.28,0.66-0.58,0.61-0.72c-0.39-1.19,0.34-2.01,0.94-2.81c1.71-2.28,3.48-4.5,5.23-6.75
		c1.86-2.38,3.71-4.77,5.57-7.15C338.25,189.08,337.5,188.05,336.73,186.98z M162.62,217.18c1.22,0.14,2.31,0.21,3.38,0.4
		c0.82,0.14,1.56,0.45,1.5,1.55c-0.03,0.54,0.32,0.74,0.85,0.58c0.83-2.47,1.65-4.91,2.53-7.52c-0.47,0.05-0.85-0.03-0.97,0.12
		c-0.72,0.85-1.68,0.81-2.63,0.79c-4.61-0.12-9.22-0.26-13.83-0.39c-0.33-0.01-0.66-0.11-0.99-0.11c-0.99-0.02-1.97-0.01-3.04-0.01
		c-0.39,1.16-0.77,2.32-1.17,3.52c0.23,0.19,0.41,0.35,0.59,0.5c3.89,3.17,7.79,6.34,11.67,9.52c1.45,1.19,3.11,2.22,3.57,4.26
		c0.03,0.12,0.28,0.19,0.51,0.34c0.63-1.83,1.23-3.57,1.82-5.31c0.16-0.48-0.1-0.71-0.54-0.79c-0.99,1.17-1.43,1.32-2.77,0.59
		c-0.94-0.51-1.77-1.22-2.66-1.85C161.19,221.29,161.87,219.33,162.62,217.18z M348.9,208.69c-0.53,0-1.04,0-1.56,0
		c-5.67,0.02-11.33,0.04-17,0.08c-1.05,0.01-1.98-0.17-2.6-1.07c-0.28,0.12-0.49,0.21-0.73,0.31c0.78,1.92,1.55,3.81,2.31,5.71
		c0.43-0.26,0.66-0.53,0.66-0.79c-0.01-1.01,0.6-1.51,1.44-1.67c1.1-0.21,2.24-0.26,3.43-0.38c0.84,2.1,1.63,4.06,2.43,6.04
		c-1.02,0.7-1.87,1.39-2.82,1.91c-0.74,0.41-1.58,0.72-2.26-0.26c-0.3-0.43-0.65-0.22-0.95,0.14c0.95,2.4,1.9,4.82,2.89,7.33
		c0.3-0.19,0.7-0.35,0.69-0.46c-0.12-1.33,0.85-1.96,1.69-2.63c1.92-1.55,3.88-3.04,5.82-4.56c2.65-2.07,5.3-4.13,8.01-6.24
		C349.87,211.01,349.4,209.89,348.9,208.69z M182.47,166.28c-4.18,3.98-8.28,7.89-12.37,11.8c1.2,1.3,2.31,2.5,3.44,3.72
		c0.55-0.49,0.99-0.89,1.42-1.28c-1.57-2.65-1.36-3.9,0.91-5.57c0.16,0.14,0.34,0.28,0.5,0.44c3.22,3.35,6.44,6.71,9.64,10.07
		c0.39,0.41,0.68,0.91,1.03,1.36c0.37,0.48,0.36,0.96,0.04,1.44c-0.14,0.22-0.29,0.43-0.45,0.66c0.27,0.23,0.45,0.38,0.67,0.56
		c1.97-1.86,3.92-3.71,6.13-5.8c-0.6-0.08-0.91-0.22-1.13-0.13c-1.23,0.54-2.08-0.03-2.88-0.88c-1.92-2.04-3.85-4.07-5.79-6.09
		c-1.5-1.57-3.02-3.13-4.56-4.73c0.61-0.82,1.22-1.47,2.12-1.73c1.37-0.39,2.43,0.48,3.59,1.06c0.46-0.48,0.86-0.9,1.34-1.4
		C184.86,168.59,183.74,167.51,182.47,166.28z M228.17,210.91c2.94,2.27,5.75,4.43,8.64,6.67c3.47-2.57,6.9-5.12,10.44-7.74
		c-3.02-1.97-5.86-3.82-8.7-5.68C235.13,206.38,231.76,208.57,228.17,210.91z M263.21,217.6c2.9-2.19,5.75-4.34,8.74-6.59
		c-3.62-2.37-7.05-4.62-10.49-6.88c-2.82,1.97-5.57,3.89-8.43,5.88C256.45,212.55,259.75,215.02,263.21,217.6z M354.66,274.73
		c0.69-2.18,1.15-6.69,0.86-7.97c-0.24,0.17-0.52,0.27-0.64,0.46c-0.61,0.93-1.44,1.13-2.48,0.89c-0.78-0.18-1.58-0.32-2.38-0.42
		c-3.53-0.42-7.06-0.81-10.59-1.22c-0.33-0.04-0.65-0.16-0.97-0.23c-0.79-0.16-1.4-0.49-1.65-1.35c-0.06-0.22-0.42-0.36-0.8-0.67
		c-0.36,2.66-0.69,5.07-1.03,7.59c0.21,0.08,0.45,0.18,0.77,0.3c0.48-1.23,1.42-1.52,2.55-1.4c1.03,0.11,2.07,0.23,3.1,0.36
		c1.92,0.25,3.84,0.52,5.76,0.78c0.75,0.1,1.5,0.2,2.25,0.31c1.03,0.15,2.05,0.35,3.07,0.46c0.82,0.09,1.28,0.49,1.53,1.25
		C354.1,274.13,354.35,274.32,354.66,274.73z M241.52,202.34c2.82,1.85,5.62,3.69,8.5,5.57c2.83-1.86,5.63-3.7,8.49-5.59
		c-2.63-1.5-5.22-2.94-7.76-4.46c-0.67-0.4-1.17-0.19-1.7,0.11C246.56,199.41,244.07,200.86,241.52,202.34z M201.06,256.58
		c0.69,0,1.17,0,1.69,0c0-0.69,0-1.29,0-2.04C202.14,255.28,201.65,255.87,201.06,256.58z"/>
	<path class="st0" d="M339.25,252.83c2.65,0.35,5.26,0.69,7.98,1.05c-0.09,1.39-0.18,2.65-0.68,3.82c-0.47,1.11-1.49,1.58-2.62,1.69
		c-1.29,0.13-2.53-0.07-3.69-0.74c-0.77-0.45-1.25-1.11-1.32-1.91c-0.1-1.13,0-2.27,0.05-3.41
		C338.97,253.16,339.14,253.01,339.25,252.83z"/>
	<path class="st0" d="M353.77,230.76c0.11,0.9,0.28,1.73,0.31,2.56c0.07,1.73-0.42,2.59-2.02,3.16c-1,0.36-2.11,0.56-3.18,0.57
		c-1.32,0.02-2.39-0.64-2.85-1.94c-0.31-0.87-0.45-1.81-0.69-2.82C348.2,231.77,350.92,231.27,353.77,230.76z"/>
	<path class="st0" d="M334.01,190.04c-1.77,2.18-3.5,4.32-5.38,6.63c-1.12-1.57-2.12-2.96-3.14-4.37
		C327.24,191.51,333.05,189.96,334.01,190.04z"/>
	<path class="st0" d="M152.39,216.67c2.77,0.14,5.54,0.29,8.53,0.44c-0.58,1.74-1.12,3.36-1.72,5.19
		C156.73,220.56,154.52,218.73,152.39,216.67z"/>
	<path class="st0" d="M345.5,210.7c-2.29,1.73-4.48,3.4-6.82,5.17c-0.78-1.61-1.46-3.22-2.07-5.02c0.47-0.05,0.82-0.11,1.17-0.13
		c2.03-0.09,4.06-0.19,6.1-0.26C344.36,210.46,344.89,210.28,345.5,210.7z"/>
	<g>
		<path class="st0" d="M253.46,389.07c0.41-0.24,0.9-0.36,1.46-0.38c0.56-0.02,1.05,0.07,1.48,0.28c0.43,0.2,0.77,0.5,1.02,0.89
			c0.25,0.39,0.38,0.85,0.4,1.37l0,0.16c0.02,0.52-0.08,0.98-0.3,1.38c-0.22,0.41-0.54,0.72-0.95,0.96
			c-0.42,0.24-0.91,0.36-1.46,0.38c-0.56,0.02-1.05-0.07-1.48-0.27c-0.43-0.2-0.77-0.49-1.02-0.88c-0.24-0.38-0.38-0.84-0.39-1.35
			l-0.01-0.18c-0.02-0.53,0.08-0.99,0.3-1.4C252.72,389.62,253.04,389.3,253.46,389.07z"/>
		<path class="st0" d="M256.1,386.02c-0.36,0.22-0.78,0.34-1.26,0.36c-0.48,0.02-0.91-0.07-1.28-0.27
			c-0.38-0.19-0.67-0.48-0.89-0.85c-0.22-0.37-0.33-0.81-0.35-1.3l-0.01-0.18c-0.02-0.49,0.07-0.92,0.26-1.29
			c0.19-0.38,0.47-0.67,0.83-0.88c0.36-0.21,0.79-0.33,1.27-0.34c0.48-0.02,0.91,0.07,1.28,0.25s0.67,0.46,0.89,0.82
			c0.22,0.36,0.33,0.78,0.35,1.26l0,0.16c0.02,0.5-0.07,0.95-0.26,1.34C256.74,385.49,256.46,385.8,256.1,386.02z"/>
		<path class="st0" d="M239.78,380.94c0.75,0.06,1.31,0.35,1.69,0.88c0.37,0.52,0.53,1.24,0.46,2.14v0.01
			c-0.07,0.93-0.33,1.63-0.78,2.1c-0.45,0.48-1.05,0.69-1.8,0.63c-0.76-0.06-1.33-0.36-1.7-0.89c-0.37-0.54-0.52-1.27-0.45-2.19
			v-0.01c0.07-0.91,0.33-1.6,0.78-2.06C238.41,381.09,239.02,380.89,239.78,380.94z"/>
		<path class="st0" d="M116.42,259.11c0.11,0.94,0.21,1.77,0.33,2.75c-2.77-0.14-5.36,0.5-8.16,0.53c0.05-4.11-0.57-8.06-0.26-12.09
			c4.94,0,9.77,0,14.72,0c0.17,3.2,0.27,6.32,0.5,9.44c0.23,3.15,0.59,6.29,0.89,9.5c-7.62,1.15-15.16,2.3-22.79,3.45
			c0.26,1.28,0.48,2.37,0.71,3.5c7.61-1.35,15.09-2.67,22.7-4.02c1.1,6.35,2.71,12.41,4.7,18.47c-4.79,1.58-9.39,3.24-14.18,4.72
			c-1.16-3.96-2.27-7.75-3.39-11.59c2.68-0.76,5.21-1.43,7.85-1.92c0.22,0.92,0.4,1.69,0.59,2.48c-1.92,0.76-4,0.82-5.81,1.74
			c0.6,2.04,1.17,3.98,1.78,6.07c3.27-1.09,6.47-2.16,9.67-3.22c-0.05-0.28-0.06-0.42-0.1-0.55c-1.11-3.57-2.14-7.15-2.79-10.84
			c-0.13-0.73-0.44-1.42-0.68-2.17c-6.64,1.33-13.19,2.39-19.65,3.78c0.08,6.77,10.12,35.28,14.09,40.16
			c5.89-3.21,11.78-6.42,17.73-9.66c-0.14-0.31-0.23-0.52-0.33-0.73c-1.01-2.08-2.07-4.15-3.04-6.25c-0.69-1.51-1.26-3.07-1.91-4.6
			c-0.16-0.37-0.41-0.71-0.62-1.08c-3.19,1.14-6.25,2.24-9.45,3.39c0.79,2.05,1.52,4.02,2.53,5.97c1.89-0.83,3.65-1.6,5.5-2.41
			c0.37,0.82,0.71,1.58,1.1,2.46c-2.5,1.14-4.85,2.21-7.28,3.32c-1.7-3.77-3.25-7.45-4.63-11.25c4.7-1.7,9.26-3.36,13.93-5.05
			c0.31,0.73,0.65,1.45,0.93,2.19c1.56,4.07,3.28,8.08,5.31,11.94c0.56,1.07,1.08,2.16,1.61,3.23c-6.8,3.68-13.45,7.27-20.22,10.92
			c0.61,1.1,1.15,2.08,1.71,3.09c6.69-3.84,13.29-7.62,20.01-11.48c3.15,5.53,6.74,10.7,10.66,15.78c-3.93,3.12-7.74,6.14-11.6,9.21
			c-2.6-3.21-4.98-6.43-7.18-9.81c2.27-1.51,4.42-2.95,6.64-4.44c0.56,0.84,1.01,1.53,1.49,2.25c-1.72,1.19-3.32,2.29-5,3.45
			c1.3,1.76,2.56,3.47,3.86,5.22c2.68-2.13,5.3-4.22,7.9-6.28c-2.66-3.9-5.27-7.72-7.9-11.58c-5.85,3.37-11.66,6.71-17.5,10.07
			c7.51,12.45,16.44,23.51,27.15,33.23c4.54-5.13,8.97-10.14,13.43-15.18c-1.7-1.66-3.4-3.25-5.02-4.91
			c-1.61-1.65-3.14-3.38-4.75-5.11c-2.68,2.24-5.22,4.37-7.83,6.55c1.51,1.65,2.93,3.21,4.39,4.8c1.53-1.45,2.95-2.8,4.4-4.17
			c0.68,0.72,1.26,1.33,1.86,1.98c-1.95,1.86-3.83,3.65-5.79,5.52c-2.74-3.01-5.44-5.96-8.16-8.95c3.92-3.26,7.7-6.41,11.51-9.59
			c4.13,4.9,8.51,9.42,13.22,13.68c-5.08,5.88-10.27,11.47-15.23,17.32c0.99,0.71,1.6,1.67,2.7,2.06
			c4.93-5.82,9.83-11.61,14.78-17.46c4.95,4.08,10.01,7.81,15.41,11.18c-2.62,4.27-5.19,8.46-7.83,12.75
			c-3.41-2.31-6.69-4.54-10.09-6.84c1.66-2.25,3.23-4.38,4.81-6.52c0.77,0.6,1.46,1.13,2.14,1.66c-1.21,1.66-2.35,3.22-3.56,4.87
			c1.87,1.25,3.63,2.43,5.42,3.63c1.81-3.02,3.75-5.76,5.27-8.63c-3.83-2.76-7.55-5.44-11.32-8.17
			c-4.34,5.13-8.67,10.26-13.05,15.43c11.31,9.14,23.49,16.46,36.81,22.05c2.52-6.33,4.99-12.53,7.51-18.87
			c-2.21-1-4.34-1.92-6.42-2.92c-2.08-1.01-4.11-2.12-6.18-3.2c-1.75,2.99-3.41,5.85-5.14,8.81c1.97,1.04,3.84,2.02,5.77,3.03
			c0.9-1.83,1.76-3.56,2.67-5.4c0.88,0.4,1.64,0.75,2.46,1.12c-1.17,2.41-2.32,4.78-3.53,7.28c-3.61-1.91-7.16-3.78-10.74-5.67
			c2.57-4.39,5.05-8.64,7.56-12.94c5.57,3.26,11.22,6,17.1,8.33c-2.88,7.19-5.72,14.26-8.6,21.42c8.88,3.58,17.95,6.18,27.25,7.98
			c9.34,1.81,18.79,2.69,28.31,2.68c9.52-0.01,18.96-0.89,28.31-2.71c9.28-1.81,18.34-4.4,27.15-7.98
			c-2.91-7.23-5.75-14.29-8.62-21.42c6-2.37,11.64-5.14,17.13-8.32c2.54,4.33,5,8.54,7.53,12.84c-3.57,2.03-7.03,3.95-10.77,5.64
			c-1.18-2.42-2.31-4.73-3.49-7.15c0.9-0.4,1.66-0.74,2.46-1.1c0.93,1.85,1.8,3.57,2.69,5.35c1.96-1.03,3.84-2.02,5.76-3.03
			c-1.72-2.94-3.4-5.8-5.16-8.81c-2.15,1.12-4.19,2.22-6.28,3.24c-2.07,1.01-4.18,1.93-6.31,2.9c2.54,6.36,5,12.55,7.5,18.81
			c6.77-2.74,13.11-6.02,19.24-9.7c6.13-3.68,11.98-7.75,17.58-12.35c-4.44-5.24-8.76-10.34-13.07-15.41
			c-3.82,2.77-7.56,5.48-11.34,8.22c1.77,2.86,3.44,5.77,5.34,8.59c1.84-1.25,3.55-2.41,5.38-3.64c-1.24-1.69-2.39-3.28-3.58-4.9
			c0.77-0.57,1.48-1.08,2.2-1.6c1.6,2.18,3.13,4.27,4.7,6.41c-3.28,2.56-6.66,4.69-10.07,6.84c-2.62-4.26-5.18-8.41-7.77-12.63
			c5.35-3.43,10.48-7.07,15.38-11.2c4.98,5.86,9.88,11.64,14.85,17.5c1.08-0.61,1.81-1.47,2.75-2.24
			c-5.14-5.75-10.22-11.44-15.38-17.21c4.82-4.21,9.14-8.79,13.27-13.65c3.87,3.22,7.65,6.36,11.5,9.57
			c-2.77,3.05-5.47,6.01-8.2,9.01c-1.97-1.96-3.82-3.78-5.73-5.67c0.71-0.68,1.31-1.25,1.93-1.84c1.52,1.45,2.91,2.78,4.34,4.14
			c1.48-1.65,2.89-3.22,4.35-4.85c-2.68-2.23-5.22-4.35-7.74-6.45c-3.28,3.37-6.52,6.69-9.79,10.04c4.5,5.01,8.98,10.02,13.5,15.05
			c10.67-9.8,19.58-20.82,27.02-33.2c-5.91-3.4-11.75-6.77-17.52-10.01c-2.67,3.92-5.23,7.68-7.87,11.55
			c2.57,2.05,5.19,4.13,7.92,6.31c1.3-1.79,2.54-3.5,3.84-5.28c-1.71-1.17-3.33-2.29-5.01-3.45c0.56-0.79,1.06-1.5,1.57-2.23
			c2.23,1.53,4.37,2.99,6.62,4.54c-2.42,3.31-4.76,6.51-7.15,9.79c-3.96-3.14-7.77-6.16-11.7-9.28c3.94-5.05,7.49-10.25,10.7-15.77
			c6.73,3.8,13.25,7.7,20.03,11.42c0.59-1.09,1.1-2.02,1.66-3.06c-6.84-3.69-13.53-7.3-20.27-10.94c3.09-5.67,5.65-11.42,7.83-17.35
			c4.75,1.72,9.35,3.39,13.95,5.06c-0.94,2.67-3.54,9.52-4.69,11.2c-2.35-1.07-4.7-2.15-7.13-3.25c0.39-0.88,0.73-1.64,1.1-2.46
			c1.88,0.82,3.64,1.59,5.38,2.35c0.93-1.35,2.32-4.82,2.4-6c-3.04-1.09-6.09-2.19-9.25-3.32c-1.93,4.25-3.82,8.42-5.72,12.6
			c1.13,0.95,16.73,9.35,17.83,9.55c6.55-12.71,11.26-26.08,14.03-40.26c-6.72-1.18-13.31-2.33-19.91-3.48
			c-1.16,4.56-2.3,9.03-3.45,13.56c3.16,1.06,6.33,2.12,9.58,3.21c0.62-2.07,1.22-4.05,1.87-6.18c-1.96-0.69-3.96-0.98-5.88-1.59
			c0.21-0.88,0.41-1.69,0.64-2.6c2.65,0.69,5.24,1.15,7.79,2.04c-1.13,3.88-2.23,7.64-3.37,11.57c-4.76-1.6-9.4-3.16-13.96-4.69
			c1.58-6.17,3.13-12.25,4.72-18.49c7.44,1.31,14.96,2.64,22.54,3.97c0.2-1.28,0.37-2.39,0.54-3.53
			c-7.66-1.13-15.21-2.25-22.72-3.36c0-0.64-0.05-1.12,0.01-1.59c0.34-2.97,0.78-5.93,1.04-8.9c0.22-2.51,0.22-5.04,0.33-7.56
			c0.01-0.31,0.08-0.62,0.12-0.89c4.94,0,9.78,0,14.65,0c0.14,4.09-0.21,8.04-0.42,12.13c-1.5-0.13-2.81-0.23-4.12-0.35
			c-1.3-0.11-2.6-0.24-3.92-0.37c0.13-0.94,0.25-1.77,0.38-2.71c2,0.16,3.91,0.31,5.86,0.46c0.24-2.23,0.42-4.33,0.28-6.39
			c-3.45,0-6.72,0-10.09,0c-0.08,0.94-0.2,1.79-0.22,2.64c-0.04,1.38,0.08,2.77-0.04,4.14c-0.18,1.98-0.52,3.94-0.78,5.91
			c-0.05,0.36-0.01,0.73-0.01,1.15c2.29,0.35,4.48,0.69,6.68,1.03c2.25,0.35,4.49,0.75,6.74,1.04c2.17,0.28,4.33,0.74,6.54,0.92
			c0.23-1.53,0.49-2.88,0.63-4.24c0.24-2.41,0.45-4.82,0.58-7.23c0.13-2.42,0.21-4.85,0.21-7.28c0-2.18-0.09-4.37-0.2-6.55
			c-0.15-2.98-0.31-5.96-0.57-8.94c-0.24-2.78-0.61-5.55-0.94-8.32c-0.01-0.08-0.12-0.14-0.22-0.25c-6.56,1.15-13.15,2.3-19.9,3.49
			c0.23,1.63,0.49,3.17,0.66,4.72c0.17,1.51,0.24,3.02,0.36,4.53c0.12,1.54,0.26,3.08,0.4,4.72c3.45-0.15,6.8-0.3,10.32-0.45
			c-0.67-2.1-0.03-4.2-0.77-6.32c-1.96,0.18-3.87,0.35-5.82,0.53c-0.13-0.91-0.24-1.73-0.37-2.67c2.7-0.27,5.27-0.52,7.98-0.79
			c0.52,4.06,0.67,8.06,0.8,12.08c-5.02,0.1-9.86,0.2-14.88,0.3c-0.12-6.42-0.79-12.67-1.84-18.9c7.61-1.32,15.14-2.64,22.74-3.96
			c-0.24-1.21-0.46-2.26-0.7-3.46c-7.56,1.51-15.05,3.01-22.59,4.52c-1.25-6.22-2.89-12.28-5.07-18.33
			c4.67-1.68,9.26-3.34,13.94-5.02c1.55,3.89,2.64,7.74,3.71,11.6c-2.62,0.71-5.16,1.39-7.76,2.09c-0.22-0.91-0.41-1.73-0.62-2.6
			c1.96-0.58,3.84-1.14,5.82-1.72c-0.69-2.13-1.33-4.13-1.99-6.17c-3.3,1.2-6.45,2.34-9.46,3.44c1.11,4.13,2.18,8.1,3.25,12.06
			c0.13,0.48,0.3,0.95,0.45,1.43c6.69-1.36,13.2-2.68,19.82-4.03c-3.16-14.14-8.06-27.44-15.03-40.09
			c-5.93,3.4-11.75,6.73-17.51,10.03c2.04,4.28,4.01,8.42,6.02,12.63c3.12-1.2,6.24-2.4,9.45-3.64c-0.89-2.02-1.75-3.95-2.63-5.95
			c-1.91,0.89-3.7,1.72-5.54,2.58c-0.27-0.94-0.98-1.61-0.92-2.57c2.34-1.12,4.64-2.21,6.98-3.33c1.8,3.7,3.47,7.32,4.84,11.12
			c-2.37,0.95-4.62,1.96-6.95,2.75c-2.3,0.79-4.5,1.9-6.95,2.5c-2.36-5.95-5.02-11.6-8.14-17.07c6.69-3.82,13.33-7.62,20.06-11.46
			c-0.67-1.09-1.24-2.04-1.84-3.02c-6.64,4.02-13.14,7.97-19.69,11.94c-3.33-5.46-6.97-10.61-11.01-15.54
			c3.91-3.24,7.69-6.37,11.48-9.51c2.53,3.21,5.06,6.28,7.3,9.7c-2.2,1.57-4.31,3.07-6.47,4.61c-0.55-0.76-1.06-1.48-1.61-2.24
			c1.66-1.18,3.27-2.32,4.96-3.52c-1.37-1.79-2.65-3.46-3.97-5.18c-2.66,2.24-5.29,4.3-7.72,6.52c2.74,3.84,5.37,7.55,8.07,11.34
			c5.74-3.45,11.49-6.91,17.24-10.37c-4.28-8.36-22.61-29.78-27.85-32.57c-4.33,5.08-8.67,10.16-12.96,15.19
			c3.34,3.3,6.64,6.56,9.97,9.86c2.58-2.23,5.1-4.41,7.64-6.61c-1.54-1.65-2.96-3.17-4.44-4.76c-1.45,1.43-2.87,2.82-4.31,4.24
			c-0.68-0.64-1.32-1.24-1.8-1.69c1.87-1.91,3.69-3.77,5.51-5.62c1.88,1.63,7.39,7.22,8.14,8.73c-3.66,3.18-7.33,6.37-11.1,9.64
			c-4.25-4.85-8.73-9.21-13.51-13.4c5-5.89,9.93-11.69,14.88-17.52c-0.9-0.91-1.67-1.71-2.76-2.21c-4.81,5.96-9.57,11.87-14.4,17.86
			c-4.98-4.02-10.17-7.64-15.66-10.84c2.55-4.34,5.05-8.58,7.56-12.84c3.51,2.09,6.91,4.23,10.18,6.63
			c-1.55,2.21-3.03,4.33-4.55,6.49c-0.81-0.56-1.53-1.06-2.24-1.55c1.18-1.71,2.28-3.3,3.45-4.99c-1.86-1.21-3.62-2.35-5.45-3.54
			c-1.76,2.99-3.46,5.88-5.13,8.72c3.86,2.68,7.62,5.29,11.51,7.99c4.22-5.2,8.45-10.41,12.71-15.65
			c-11.09-8.77-23.15-15.54-36.04-20.91c-0.29-0.12-0.63-0.13-1.03-0.2c-2.43,6.28-4.84,12.5-7.24,18.68
			c4.28,1.97,8.48,3.91,12.67,5.84c1.85-2.84,4.56-7.93,4.71-8.91c-1.82-0.92-3.66-1.84-5.57-2.81c-0.91,1.94-1.74,3.71-2.58,5.51
			c-0.88-0.43-1.64-0.79-2.43-1.18c1.13-2.46,2.22-4.82,3.36-7.29c3.64,1.83,7.25,3.65,10.85,5.47c-2.47,4.43-4.87,8.73-7.31,13.1
			c-5.57-3.21-11.33-5.7-17.25-8.04c2.72-7.28,5.38-14.4,8.07-21.62c-1.22-0.34-2.17-0.98-3.33-0.94c-2.51,7.2-4.98,14.3-7.5,21.54
			c-6.03-1.97-12.07-3.67-18.41-4.83c0.87-4.96,1.78-9.8,2.76-14.74c4.04,0.93,7.92,1.83,11.82,2.73c-0.73,2.71-1.41,5.24-2.1,7.81
			c-0.91-0.25-1.74-0.49-2.57-0.72c0.37-2.05,1.21-3.92,1.37-6c-2.2-0.28-4.13-1.08-6.25-1.24c-0.62,3.36-1.22,6.61-1.82,9.84
			c4.53,1.2,8.94,2.37,13.54,3.59c2.2-6.32,4.4-12.64,6.63-19.04c-0.78-0.27-1.4-0.51-2.03-0.7c-1.13-0.34-2.26-0.65-3.4-0.95
			c-1.73-0.47-3.46-0.95-5.2-1.38c-1.89-0.46-3.78-0.91-5.68-1.29c-2.69-0.54-5.39-1.06-8.1-1.49c-1.92-0.31-3.86-0.47-5.79-0.68
			c-1.65-0.18-3.3-0.32-4.95-0.48c-0.38-0.04-0.76-0.04-1.13-0.11c-1.84-0.38-3.68-0.08-5.66-0.24c-0.09,0.85-0.22,1.55-0.23,2.24
			c-0.03,2.95,0,5.91-0.06,8.86c-0.05,2.57-0.18,5.13-0.26,7.7c-0.01,0.42,0.03,0.84,0.06,1.39c0.91,0.08,1.75,0.16,2.6,0.22
			c1.61,0.11,3.22,0.16,4.83,0.3c1.65,0.15,3.29,0.39,4.94,0.56c0.5,0.05,1.01,0.01,1.56,0.01c0.27-1.79,0.57-3.42,0.75-5.06
			c0.18-1.62,0.84-3.18,0.74-4.87c-2.18-0.27-4.24-0.53-6.33-0.79c-0.23,2.11-0.44,4.06-0.65,6.05c-0.95-0.12-1.78-0.23-2.68-0.34
			c0.23-2.61,0.46-5.17,0.7-7.9c4.02,0.49,8.06,0.72,12.07,1.57c-0.81,4.96-1.59,9.75-2.37,14.53c-2.36-0.26-4.63-0.44-6.88-0.77
			c-2.36-0.35-4.73-0.48-7.11-0.54c-1.65-0.04-3.29-0.22-5.03-0.34c0-7.72,0.57-15.36,0.19-23.13c-1.2,0.22-2.29-0.19-3.38,0.29
			c-0.17,7.64,0.52,15.24,0.2,22.86c-1.76,0.12-3.41,0.23-5.06,0.33c-1.9,0.11-3.8,0.15-5.7,0.34c-1.93,0.19-3.85,0.55-5.78,0.77
			c-0.78,0.09-1.58,0.01-2.41,0.01c-0.79-4.81-1.58-9.54-2.38-14.38c4.07-0.82,8.07-1.05,12.12-1.56c0.22,2.75,0.43,5.32,0.64,7.95
			c-0.94,0.1-1.8,0.2-2.7,0.29c-0.19-2.07-0.37-3.99-0.56-6.06c-2.19,0.28-4.27,0.55-6.47,0.84c0.56,3.38,1.09,6.62,1.65,10
			c4.4-0.47,8.67-1.11,12.99-1.05c0.27,0,0.54-0.13,0.87-0.22c0.02-0.4,0.07-0.77,0.07-1.15c-0.01-5.72-0.02-11.43-0.04-17.15
			c0-0.56,0.09-1.23-0.18-1.66c-0.41-0.68-1.13-0.07-1.72-0.09c-1.14-0.03-2.29-0.07-3.43,0.02c-2.64,0.22-5.28,0.5-7.92,0.8
			c-1.88,0.21-3.76,0.47-5.63,0.76c-1.78,0.28-3.55,0.61-5.31,0.96c-2.46,0.49-4.93,0.97-7.37,1.55c-2.43,0.58-4.86,1.2-7.24,1.96
			c-1.13,0.36-2.37,0.53-3.37,1.28c2.14,6.4,4.26,12.71,6.4,19.1c2.35-0.72,4.54-1.47,6.77-2.05c2.22-0.58,4.49-0.98,6.77-1.57
			c-0.65-3.4-1.26-6.65-1.9-10.02c-2.15,0.49-4.2,0.95-6.37,1.44c0.54,2.05,1.05,3.98,1.56,5.91c-0.94,0.25-1.75,0.47-2.62,0.7
			c-0.7-2.61-1.39-5.18-2.08-7.76c3.99-0.96,7.84-2.03,11.87-2.67c0.91,4.9,1.8,9.71,2.71,14.63c-6.34,1.16-12.37,2.84-18.41,4.84
			c-2.54-7.28-5.04-14.42-7.58-21.7c-1.08,0.35-2.1,0.67-3.25,1.05c1.36,3.7,2.66,7.3,4,10.88c1.33,3.58,2.78,7.12,4.01,10.84
			c-5.99,2.3-11.67,4.88-17.21,7.95c-2.46-4.39-4.87-8.71-7.3-13.07c3.69-1.85,7.27-3.65,10.89-5.47c1.14,2.51,2.22,4.87,3.34,7.32
			c-0.84,0.39-1.63,0.77-2.44,1.15c-0.87-1.86-1.71-3.64-2.59-5.51c-1.99,1-3.84,1.93-5.82,2.93c1.66,2.98,3.32,5.94,4.93,8.82
			c4.29-1.99,8.45-3.91,12.71-5.89c-2.4-6.19-4.83-12.42-7.31-18.81c-13.46,5.32-25.67,12.42-37.03,21.21
			c4.31,5.31,8.54,10.51,12.74,15.68c3.93-2.71,7.7-5.32,11.53-7.97c-1.7-2.88-3.4-5.77-5.15-8.74c-1.87,1.22-3.64,2.38-5.45,3.57
			c1.2,1.74,2.3,3.34,3.45,5c-0.73,0.49-1.47,0.98-2.28,1.52c-1.52-2.2-3-4.33-4.56-6.59c3.45-2.23,6.81-4.41,10.21-6.61
			c2.56,4.36,5.03,8.57,7.58,12.91c-5.48,3.25-10.68,6.85-15.63,10.85c-4.85-6.01-9.61-11.91-14.47-17.93
			c-0.97,0.79-1.85,1.51-2.74,2.25c5.05,5.94,9.99,11.74,14.95,17.57c-4.9,4.17-9.27,8.64-13.56,13.36
			c-3.8-3.29-7.51-6.51-11.23-9.74c2.72-3.05,5.44-6,8.34-8.68c1.93,1.97,3.75,3.82,5.56,5.67c-0.58,0.53-1.2,1.1-1.89,1.73
			c-1.43-1.42-2.84-2.81-4.29-4.26c-1.51,1.62-2.96,3.17-4.46,4.78c2.61,2.24,5.15,4.42,7.67,6.58c3.36-3.33,6.65-6.58,9.94-9.84
			c-4.34-5.1-8.68-10.19-13.1-15.37c-10.85,9.59-20.05,20.41-27.78,32.71c5.82,3.5,11.57,6.96,17.31,10.42
			c2.73-3.85,5.38-7.59,8.1-11.42c-2.59-2.15-5.13-4.28-7.77-6.47c-1.32,1.75-2.6,3.43-3.94,5.21c1.71,1.21,3.32,2.35,4.96,3.51
			c-0.56,0.76-1.08,1.47-1.63,2.21c-2.2-1.56-4.35-3.08-6.57-4.65c2.51-3.29,4.95-6.48,7.38-9.66c3.89,3.22,7.64,6.33,11.52,9.54
			c-4.05,4.93-7.73,10.09-11.02,15.52c-6.63-3.98-13.17-7.9-19.79-11.87c-0.59,1.05-1.13,2.01-1.69,2.99
			c6.76,3.87,13.37,7.64,19.99,11.43c-3.14,5.59-5.86,11.27-8.2,17.2c-4.71-1.82-9.29-3.59-13.88-5.37
			c1.55-3.82,3.06-7.49,4.88-11.13c2.42,1.15,4.75,2.26,7.16,3.4c-0.42,0.93-0.78,1.73-1.12,2.47c-2-0.74-3.65-1.84-5.57-2.51
			c-0.9,2.06-1.72,3.96-2.58,5.92c3.25,1.25,6.37,2.45,9.46,3.64c2.03-4.25,4-8.39,6.02-12.62c-2.92-1.69-5.82-3.38-8.73-5.05
			c-2.94-1.68-5.89-3.33-8.86-5c-3.44,6.51-6.46,12.99-8.97,19.72c-2.49,6.66-5.91,18.4-5.8,20.52c6.53,1.28,13.06,2.57,19.64,3.87
			c1.25-4.52,2.47-8.96,3.72-13.47c-3.12-1.14-6.27-2.28-9.5-3.45c-0.66,2.11-1.3,4.12-1.95,6.19c2.03,0.59,3.92,1.14,5.86,1.7
			c-0.26,0.92-0.49,1.73-0.73,2.6c-2.57-0.7-5.08-1.38-7.67-2.09c0.94-3.93,2.25-7.74,3.64-11.61c4.75,1.7,9.37,3.3,13.99,5.1
			c-2.24,6.01-3.8,12.04-5.12,18.24c-7.61-1.44-15.06-3.06-22.63-4.49c-0.22,1.24-0.4,2.29-0.61,3.46
			c7.63,1.33,15.15,2.65,22.64,3.95c-0.17,1.48-0.31,2.84-0.48,4.19c-0.26,2.02-0.62,4.03-0.78,6.05c-0.19,2.32-0.2,4.65-0.32,6.98
			c-0.03,0.55-0.16,1.09-0.25,1.7c-0.61,0-1.08,0.01-1.55,0c-1.47-0.06-2.95-0.16-4.42-0.19c-2.57-0.05-5.14-0.05-7.72-0.08
			c-0.36,0-0.72-0.07-1.17-0.11c0.28-4.06,0.3-8.03,0.81-12.04c2.74,0.29,5.35,0.56,7.94,0.83c-0.11,0.99-0.2,1.83-0.3,2.65
			c-1.99-0.01-3.89-0.66-5.81-0.4c-0.38,1.29-0.65,5.41-0.39,6.31c3.33-0.26,6.66,0.56,10.01,0.19c0.14-2.13,0.26-4.11,0.39-6.1
			c0.02-0.38,0.02-0.76,0.07-1.14c0.25-1.83,0.53-3.65,0.77-5.48c0.05-0.39-0.04-0.8-0.06-1.12c-2.35-0.44-4.53-0.87-6.71-1.26
			c-2.23-0.4-4.45-0.86-6.7-1.14c-2.17-0.27-4.3-0.9-6.48-0.97c-2.13,14.31-2.48,28.46-0.36,42.67c6.73-0.99,13.32-1.96,19.98-2.94
			c-0.12-1.34-0.22-2.6-0.33-3.86c-0.16-1.89-0.35-3.77-0.48-5.66c-0.07-0.95,0-1.91-0.05-2.86c-0.02-0.5-0.16-0.99-0.24-1.45
			c-2.3-0.25-9.12-0.16-10.18,0.15c0.12,2.04,0.25,4.11,0.38,6.24c1.1-0.09,2.04-0.11,2.97-0.26
			C114.43,259.09,115.41,259.05,116.42,259.11z M265.22,378.39l8.64-1.31l0.34,2.26l-6.26,0.95l0.58,3.81
			c0.26-0.29,0.56-0.52,0.91-0.71c0.35-0.19,0.71-0.31,1.09-0.37c0.98-0.15,1.85-0.08,2.6,0.22c0.76,0.3,1.37,0.81,1.85,1.53
			c0.48,0.72,0.8,1.63,0.97,2.73l0.22,1.42c0.17,1.1,0.12,2.06-0.13,2.89c-0.25,0.83-0.71,1.51-1.36,2.03
			c-0.65,0.52-1.48,0.85-2.48,1c-0.86,0.13-1.64,0.08-2.36-0.15c-0.71-0.23-1.33-0.64-1.84-1.21c-0.51-0.57-0.91-1.3-1.18-2.17
			v-0.01l2.38-0.36v0.01c0.18,0.61,0.51,1.05,0.97,1.34c0.46,0.28,1.02,0.37,1.69,0.27c0.76-0.11,1.31-0.46,1.65-1.03
			c0.34-0.57,0.43-1.32,0.3-2.25l-0.22-1.42c-0.14-0.91-0.46-1.6-0.95-2.04c-0.49-0.45-1.12-0.61-1.88-0.49
			c-0.41,0.06-0.79,0.24-1.14,0.53c-0.34,0.29-0.63,0.67-0.85,1.13l-2.17,0.33L265.22,378.39z M249.82,391.57
			c-0.03-0.86,0.16-1.67,0.56-2.44c0.4-0.77,0.95-1.36,1.65-1.77c-0.62-0.31-1.12-0.77-1.5-1.38c-0.39-0.61-0.59-1.26-0.62-1.95
			l-0.01-0.41c-0.03-0.9,0.14-1.69,0.52-2.39c0.38-0.69,0.92-1.24,1.64-1.64c0.71-0.4,1.56-0.61,2.52-0.65
			c0.97-0.03,1.82,0.12,2.56,0.47c0.74,0.35,1.33,0.85,1.75,1.52c0.42,0.67,0.65,1.45,0.68,2.34l0.02,0.41
			c0.02,0.71-0.14,1.38-0.49,2.01c-0.35,0.63-0.83,1.12-1.43,1.47c0.74,0.37,1.34,0.92,1.8,1.65c0.46,0.73,0.71,1.53,0.74,2.39
			l0.01,0.28c0.03,0.95-0.15,1.79-0.56,2.52c-0.4,0.73-0.99,1.31-1.76,1.73c-0.77,0.42-1.68,0.65-2.72,0.68
			c-1.04,0.04-1.95-0.13-2.75-0.49c-0.8-0.37-1.42-0.9-1.88-1.6c-0.45-0.7-0.7-1.53-0.73-2.48L249.82,391.57z M234.78,383.51
			c0.09-1.1,0.34-2.03,0.78-2.79c0.43-0.75,1.02-1.31,1.77-1.66c0.75-0.35,1.62-0.49,2.63-0.41s1.85,0.35,2.53,0.82
			s1.18,1.12,1.49,1.94c0.31,0.82,0.43,1.79,0.34,2.9v0.01c-0.05,0.61-0.18,1.26-0.38,1.94c-0.21,0.68-0.49,1.35-0.83,2.01
			c-0.05,0.1-0.11,0.2-0.16,0.3c-0.05,0.1-0.11,0.2-0.18,0.3l-4.21,7.04l-2.59-0.2l4.52-7.43c-0.18,0.15-0.31,0.34-0.55,0.42
			c-0.41,0.14-0.89,0.19-1.42,0.14c-0.81-0.06-1.52-0.33-2.11-0.79c-0.58-0.46-1.02-1.09-1.3-1.87c-0.28-0.78-0.38-1.67-0.31-2.67
			V383.51z M227.05,379.83l-2.66,1.06l0.42-2.45l2.68-1.19l2.37,0.41l-2.89,16.9l-2.37-0.41L227.05,379.83z M141.34,189.91
			c11.08-20.13,26.71-35.95,46.59-47.42c20.2-11.65,42.08-17.22,65.4-16.59c20.92,0.56,40.54,6.09,58.69,16.57
			c18.19,10.5,32.84,24.71,43.83,42.61c10.97,17.86,16.93,37.32,18.05,55.27c1.29,25.17-3.11,46.23-13.18,66.03
			c-10.6,20.84-25.97,37.43-45.91,49.62c-21.52,13.15-45.03,19.32-70.21,18.13c-31.23-1.47-58.44-13.08-80.92-34.8
			c-22.11-21.37-34.59-47.66-37.4-78.33C123.98,235.79,129.15,212.05,141.34,189.91z"/>
	</g>
</g>
</svg>
