<?xml version="1.0" encoding="utf-8"?>
<!-- Generator: Adobe Illustrator 26.5.0, SVG Export Plug-In . SVG Version: 6.00 Build 0)  -->
<svg version="1.1" id="Layer_1" xmlns="http://www.w3.org/2000/svg" xmlns:xlink="http://www.w3.org/1999/xlink" x="0px" y="0px"
	 viewBox="0 0 500 500" style="enable-background:new 0 0 500 500;" xml:space="preserve">
<style type="text/css">
	.st0{fill:#131313;}
	.st1{fill-rule:evenodd;clip-rule:evenodd;fill:#131313;}
</style>
<g>
	<g id="circle12_00000055686675539795349430000009379167285378510259_">
		<path class="st0" d="M250,112c76.09,0,138,61.91,138,138s-61.91,138-138,138c-76.09,0-138-61.91-138-138S173.91,112,250,112
			 M250,100c-82.84,0-150,67.16-150,150c0,82.84,67.16,150,150,150c82.84,0,150-67.16,150-150C400,167.16,332.84,100,250,100
			L250,100z"/>
	</g>
	<g id="circle18_00000016768242757499962000000003627509898600456628_">
		<path class="st0" d="M250,154.35c52.58,0,95.35,42.77,95.35,95.35s-42.77,95.35-95.35,95.35s-95.35-42.77-95.35-95.35
			S197.42,154.35,250,154.35 M250,149.91c-55.11,0-99.79,44.68-99.79,99.79s44.68,99.79,99.79,99.79s99.79-44.68,99.79-99.79
			S305.11,149.91,250,149.91L250,149.91z"/>
	</g>
	<g id="path24_00000045620287931235761830000001855241876073819320_">
		<path class="st1" d="M204.43,224.38c0,0.34,0,0.68,0.04,1.02l26.16-26.16l0.42-0.42l4.15,4.19l14.65-14.65L264.5,203l4.19-4.19
			l26.54,26.59c0.04-0.34,0.04-0.68,0.04-1.02c0-25.1-20.32-45.42-45.42-45.42C224.79,178.95,204.43,199.27,204.43,224.38z
			 M231.06,203.68l-25.61,25.57c0.04,0.13,0.13,0.25,0.21,0.38c0.21,0.3,0.42,0.55,0.68,0.8c0.89,1.02,2.03,1.78,3.39,2.24
			c0.8,0.25,1.61,0.38,2.5,0.38c3.47,0,6.39-2.16,7.54-5.25c1.14,3.09,4.06,5.25,7.54,5.25c3.56,0,6.56-2.29,7.62-5.5
			c0.97,3.18,3.94,5.5,7.41,5.5c3.51,0,6.48-2.33,7.45-5.5c1.06,3.22,4.06,5.5,7.62,5.5c3.47,0,6.39-2.16,7.54-5.25
			c1.14,3.09,4.06,5.25,7.54,5.25c3.43,0,6.39-2.16,7.49-5.25c1.14,3.09,4.11,5.25,7.54,5.25c0.47,0,0.89-0.04,1.35-0.13
			c1.65-0.25,3.13-1.06,4.28-2.2c0.25-0.25,0.51-0.51,0.72-0.8c0.17-0.21,0.3-0.42,0.47-0.64l-25.61-25.61l-4.19,4.15l-14.65-14.65
			l-14.65,14.65L231.06,203.68z"/>
	</g>
	<g id="path26_00000057133648582781578860000016527230921965562041_">
		<path class="st1" d="M207.73,241.39c1.52,3.68,3.47,7.15,5.88,10.33c2.84-0.51,5.16-2.5,6.14-5.12c1.14,3.05,4.06,5.21,7.54,5.21
			c3.56,0,6.56-2.29,7.62-5.46c0.97,3.18,3.94,5.46,7.41,5.46c3.51,0,6.48-2.29,7.45-5.46c1.06,3.18,4.06,5.46,7.62,5.46
			c3.47,0,6.39-2.16,7.54-5.21c1.14,3.05,4.06,5.21,7.54,5.21c3.43,0,6.39-2.16,7.49-5.21c1.02,2.62,3.34,4.61,6.18,5.12
			c2.37-3.18,4.36-6.65,5.84-10.33c-1.27,0.85-2.79,1.35-4.49,1.35c-3.43,0-6.39-2.16-7.54-5.25c-1.1,3.09-4.06,5.25-7.49,5.25
			c-3.47,0-6.39-2.16-7.54-5.25c-1.14,3.09-4.06,5.25-7.54,5.25c-3.56,0-6.56-2.29-7.62-5.5c-0.97,3.18-3.94,5.5-7.45,5.5
			c-3.47,0-6.43-2.33-7.41-5.5c-1.06,3.22-4.06,5.5-7.62,5.5c-3.47,0-6.39-2.16-7.54-5.25c-1.14,3.09-4.06,5.25-7.54,5.25
			C210.57,242.75,209.05,242.24,207.73,241.39z M219.04,257.73c8.13,7.49,18.92,12.07,30.82,12.07c11.9,0,22.73-4.57,30.82-12.07
			c-0.25-0.47-0.51-0.93-0.72-1.44c-1.1,3.05-4.06,5.25-7.49,5.25c-3.47,0-6.39-2.2-7.54-5.25c-1.14,3.05-4.06,5.25-7.54,5.25
			c-3.56,0-6.56-2.33-7.62-5.5c-0.97,3.18-3.94,5.5-7.45,5.5c-3.47,0-6.43-2.33-7.41-5.5c-1.06,3.18-4.06,5.5-7.62,5.5
			c-3.47,0-6.39-2.2-7.54-5.25C219.59,256.8,219.33,257.27,219.04,257.73z M204.64,227.64c0,0.04,0.04,0.13,0.08,0.17
			c-0.04-0.08-0.04-0.13-0.04-0.21L204.64,227.64z M205.15,228.69c0,0-0.04,0-0.08-0.04c0.04,0.04,0.04,0.04,0.04,0.08l0.04,0.04
			c0,0,0,0,0-0.04V228.69z M231.06,203.68l-25.61,25.57c0.04,0.13,0.13,0.25,0.21,0.38c0.21,0.3,0.42,0.55,0.68,0.8
			c0.89,1.02,2.03,1.78,3.39,2.24c0.8,0.25,1.61,0.38,2.5,0.38c3.47,0,6.39-2.16,7.54-5.25c1.14,3.09,4.06,5.25,7.54,5.25
			c3.56,0,6.56-2.29,7.62-5.5c0.97,3.18,3.94,5.5,7.41,5.5c3.51,0,6.48-2.33,7.45-5.5c1.06,3.22,4.06,5.5,7.62,5.5
			c3.47,0,6.39-2.16,7.54-5.25c1.14,3.09,4.06,5.25,7.54,5.25c3.43,0,6.39-2.16,7.49-5.25c1.14,3.09,4.11,5.25,7.54,5.25
			c0.47,0,0.89-0.04,1.35-0.13c1.65-0.25,3.13-1.06,4.28-2.2c0.25-0.25,0.51-0.51,0.72-0.8c0.17-0.21,0.3-0.42,0.47-0.64
			l-25.61-25.61l-4.19,4.15l-14.65-14.65l-14.65,14.65L231.06,203.68z"/>
	</g>
	<g id="path28_00000096055047892535358330000006083214620153102744_">
		<path class="st1" d="M249.87,293.88c-0.52-0.67-1.46-1.2-2.6-1.46c-1.22-0.28-2.01-0.18-3.16,0.28c-1.28,0.51-3,1.26-4.93,1.27
			c-2.87,0.01-5.13-1.92-6.78-4.5c-2.59-4.06-4.66-8.78-10.31-8.75c-1.26,0.01-3,1.18-2.95,3.06c0.04,1.43,1.23,2.57,2.87,2.54
			c1.68-0.03,2.91,0.47,2.97,2.26c0.12,3.24-3.99,3.25-6.19,2.1c-3.09-1.62-7.27-4.35-11.67-18.07c-1.19-3.7-3.25-6.3-7.48-6.29
			c-1.74,0-3.85,1.52-3.85,3.39c0,1.58,0.61,2.66,2.07,3.56c0.99,0.61,2.42,0.01,3.57,0.59c0.78,0.39,1.42,1.18,1.39,2.67
			c-0.06,2.34-1.67,2.92-3.49,2.86c-1.33-0.04-2.75-0.8-3.72-1.38c-4.89-2.9-7.96-10.75-7.29-17.59c0.54-5.42,2-10.18,0.78-15.8
			c-0.45-2.09-2.07-3.41-4.4-3.43c-2.04-0.02-3.53,1.96-3.61,3.62c-0.15,3.02,2.32,5.28,2.37,8.2c0.03,1.79-1.56,3.48-3.37,3.4
			c-1.4-0.06-2.71-0.82-3.4-2.03c-1.65-2.91-1.94-7.99-1.63-10.59c0.31-2.57,1.47-6.04,1.43-8.43c-0.03-2.18-1.62-4.2-3.89-4.23
			c-2.27-0.03-3.89,1.76-4.16,3.82c-0.26,1.91-0.31,3.64-0.17,5.46c2,27.21,30.53,56.56,74.31,58.61c-0.05,2.04,0.21,4.67,0.67,6.28
			c0.57,2.02,1.9,2.94,2.33,4.71c0.22,0.9,0.31,1.86,0.39,2.75c0.13,1.45-0.09,3.38,0.93,4.62c0.63,0.77,1.67,1.11,2.97,1.14
			c1.3-0.03,2.34-0.37,2.97-1.14c1.01-1.24,0.8-3.17,0.93-4.62c0.08-0.89,0.17-1.85,0.39-2.75c0.43-1.77,1.75-2.69,2.33-4.71
			c0.46-1.61,0.72-4.25,0.67-6.28c43.78-2.05,72.3-31.4,74.31-58.61c0.13-1.82,0.08-3.55-0.17-5.46c-0.28-2.06-1.89-3.85-4.16-3.82
			c-2.27,0.03-3.86,2.05-3.89,4.23c-0.04,2.39,1.12,5.86,1.43,8.43c0.31,2.59,0.03,7.68-1.63,10.59c-0.69,1.21-1.99,1.97-3.4,2.03
			c-1.81,0.08-3.4-1.61-3.37-3.4c0.05-2.92,2.52-5.18,2.37-8.2c-0.08-1.67-1.57-3.65-3.61-3.62c-2.32,0.02-3.94,1.34-4.4,3.43
			c-1.22,5.62,0.24,10.38,0.78,15.8c0.68,6.84-2.4,14.69-7.29,17.59c-0.97,0.57-2.4,1.34-3.72,1.38c-1.82,0.06-3.43-0.52-3.49-2.86
			c-0.04-1.49,0.61-2.28,1.39-2.67c1.15-0.58,2.58,0.02,3.57-0.59c1.46-0.9,2.07-1.98,2.07-3.56c0-1.87-2.11-3.39-3.85-3.39
			c-4.23-0.01-6.29,2.59-7.48,6.29c-4.4,13.72-8.58,16.45-11.67,18.07c-2.2,1.15-6.31,1.15-6.19-2.1c0.07-1.79,1.29-2.29,2.97-2.26
			c1.64,0.03,2.83-1.11,2.87-2.54c0.05-1.88-1.69-3.05-2.95-3.06c-5.65-0.02-7.72,4.7-10.31,8.75c-1.65,2.58-3.9,4.5-6.78,4.5
			c-1.92,0-3.65-0.76-4.93-1.27c-1.15-0.46-1.94-0.56-3.16-0.28C251.32,292.68,250.38,293.2,249.87,293.88L249.87,293.88z"/>
	</g>
	<g id="path30_00000165208421416094691830000009242365675714075835_">
		<path class="st1" d="M166.11,147.69l20.74,9.21c1.73,0.77,3.06,1.07,4.15,0.11l0.83-0.72l1.75,2.01l-11.75,10.23l-1.75-2.01
			l0.82-0.72c1.18-1.03,1.02-2.39-0.59-3.1l-2.41-1.07l-7.99,6.96l0.88,2.29c0.58,1.52,1.55,2.39,2.73,1.36l0.87-0.76l1.75,2.01
			l-8.49,7.4l-1.75-2.01l0.68-0.59c1.1-0.96,1.77-2.23,0.82-4.67l-5.41-14.06c-0.1-0.26-1.21-3.69-3.82-1.41l-0.86,0.75l-1.75-2.01
			l3.93-3.42L166.11,147.69z M174.44,160.1l-9.42-4.18l3.57,9.28L174.44,160.1z"/>
	</g>
	<g id="path32_00000152231896424313417650000015785715820381708441_">
		<path class="st1" d="M146.07,182.79c-0.81,1.53-2.41,2.37-4.04,2.28l1.73,7.47c1.81-1.82,4.44-4.98,8.96-4.66l4.08,0.29
			c1.44,0.1,3.55-0.65,4.22-1.92l0.37-0.71l2.36,1.24c-0.13,0.25-2.9,5.51-7.08,13.43l-2.36-1.24l0.36-0.68
			c0.75-1.41-0.95-2.35-1.95-2.42l-1.87-0.13c-3.19-0.23-5.35,0.93-6.46,3.04l-1,1.91l5.27,2.78c0.94,0.49,2.71,1.09,3.43-0.27
			l0.26-0.49l2.36,1.24c-1.32,2.51-4.62,8.77-5.94,11.27l-2.36-1.24l0.33-0.62c0.7-1.33-0.88-2.37-1.85-2.88l-13.06-6.88
			c-1.46-0.77-2.92-0.83-3.36,0.02l-0.38,0.71l-2.36-1.24c3.57-6.77,4.28-8.13,5.94-11.27l2.36,1.24l-0.39,0.73
			c-0.54,1.03,0.4,1.98,2.03,2.84l4.66,2.46l0.31-0.59c0.63-1.2,0.45-2.82,0.06-4.49l-1.41-6.09c-0.48-2.08-1.25-5.01-1.28-7.03
			c-0.01-0.69,0.15-1.4,0.49-2.05c1.1-2.09,3.69-2.89,5.77-1.79C146.37,178.11,147.17,180.7,146.07,182.79z"/>
	</g>
	<g id="path34_00000103949491208458414940000008071724138898235032_">
		<path class="st1" d="M216.86,121.64c3.45,0.23,6.59,2.3,7.96,5.62c1.95,4.72-0.43,10.18-5.32,12.2c-3.63,1.5-7.63,0.67-10.24-1.79
			c2.04-0.26,4.6-1.25,6.12-2.71c1.4-1.35,1.91-3.47,1.12-5.38c-1.03-2.49-3.89-3.68-6.38-2.65l-5.98,2.47l6.47,15.65
			c0.42,1.02,1.83,2.12,2.85,1.69l0.79-0.32l1.02,2.46l-13.84,5.72l-1.02-2.46l0.79-0.32c1.02-0.42,1.25-2.19,0.83-3.21L196,134.03
			c-0.4-0.98-1.93-1.69-2.91-1.29l-0.59,0.25l-1.02-2.46l13.31-5.5C208.13,123.65,213.18,121.39,216.86,121.64z"/>
	</g>
	<g id="path36_00000075846406829649781640000003918674703149338515_">
		<path class="st1" d="M338.5,149.91c6.08,5.05,7.04,13.92,2.14,19.82c-4.9,5.9-13.8,6.59-19.88,1.55
			c-6.08-5.05-7.04-13.92-2.14-19.82C323.52,145.56,332.42,144.87,338.5,149.91z M336.03,152.89L336.03,152.89
			c2.39,1.99,2.73,5.57,0.74,7.97l-5.58,6.72c-1.99,2.39-5.57,2.73-7.97,0.74l0,0c-2.39-1.99-2.73-5.57-0.74-7.97l5.58-6.72
			C330.05,151.23,333.63,150.9,336.03,152.89L336.03,152.89z"/>
	</g>
	<g id="path38_00000039827548370053817150000012702488517427583400_">
		<path class="st1" d="M254.84,117.53l9.59,20.57c0.8,1.71,1.61,2.81,3.06,2.81h1.09v2.66H253v-2.66h1.09c1.57,0,2.34-1.14,1.6-2.73
			l-1.12-2.39h-10.6l-0.84,2.3c-0.56,1.53-0.4,2.82,1.17,2.82h1.16v2.66H234.2v-2.66h0.9c1.46,0,2.8-0.52,3.69-2.98l5.15-14.16
			c0.09-0.26,1.51-3.58-1.95-3.58h-1.14v-2.66h5.21L254.84,117.53z M252.98,132.36l-4.36-9.34l-3.4,9.34H252.98z"/>
	</g>
	<g id="path40_00000016034290112253343980000002776989063429070216_">
		<path class="st1" d="M366.67,189.08l-13.41,18.3c-1.12,1.53-1.69,2.76-0.99,4.03l0.53,0.96l-2.33,1.28l-7.5-13.66l2.33-1.28
			l0.52,0.96c0.75,1.37,2.12,1.5,3.16,0.09c5.26-7.18,2.54-3.47,9.89-13.49c-10.36,1.6-9.05,1.4-15.85,2.44
			c-1.61,0.25-2.66,1.01-1.91,2.38l0.56,1.02l-2.33,1.28l-5.42-9.88l2.33-1.28l0.43,0.79c0.7,1.28,1.8,2.2,4.39,1.8l14.89-2.3
			c0.27-0.04,3.86-0.4,2.2-3.43l-0.55-1l2.33-1.28l2.51,4.57L366.67,189.08L366.67,189.08z"/>
	</g>
	<g id="path42_00000072963278129319552830000000718008124734970799_">
		<path class="st1" d="M307.95,140.39c-1.6-0.67-2.57-2.2-2.62-3.82l-7.29,2.37c1.97,1.65,5.35,3.98,5.43,8.51l0.07,4.09
			c0.02,1.44,0.96,3.48,2.29,4.03l0.74,0.31l-1.03,2.45c-0.26-0.11-5.74-2.41-13.99-5.87l1.03-2.46l0.71,0.3
			c1.47,0.62,2.26-1.16,2.24-2.15l-0.03-1.87c-0.05-3.2-1.39-5.25-3.6-6.17l-1.99-0.83l-2.31,5.49c-0.41,0.98-0.85,2.8,0.57,3.39
			l0.51,0.21l-1.03,2.46c-2.61-1.1-9.14-3.84-11.75-4.93l1.03-2.45l0.65,0.27c1.39,0.58,2.28-1.08,2.71-2.1l5.71-13.61
			c0.64-1.52,0.57-2.98-0.32-3.35l-0.74-0.31l1.03-2.45c7.05,2.96,8.47,3.55,11.75,4.93l-1.03,2.45l-0.76-0.32
			c-1.07-0.45-1.94,0.58-2.65,2.27l-2.04,4.86l0.62,0.26c1.25,0.52,2.85,0.2,4.48-0.33l5.94-1.93c2.03-0.66,4.88-1.68,6.89-1.89
			c0.69-0.07,1.4,0.02,2.09,0.31c2.18,0.91,3.2,3.42,2.29,5.6C312.63,140.28,310.13,141.3,307.95,140.39z"/>
	</g>
	<g>
		<g id="path44_00000001625589168713410010000006499860532928783800_">
			<path class="st1" d="M307.68,338c-2.51,2.57-2.75,6.19-0.95,8.58c1.8,2.39,3.94,3.08,6.29,2.96c-1.46,2.2-1.65,4.93,0.26,7.47
				c1.91,2.54,6.29,3.83,9.09,1.84c-1.84,0.09-3.61-0.64-5.18-2.73c-1.07-1.42-1.23-4.24-0.54-6.17c0.51-1.43,2.46-2.82,3.87-3.14
				c-0.11-0.04,2.59-0.48,3.98,1.37c0.84,1.12,0.64,2.69-0.45,3.52c-1.09,0.82-2.88,0.87-3.72-0.25c0.29,1.85,1.65,2.93,3.04,3.31
				c1.61,0.44,3.36,0.18,4.74-0.86c2.46-1.85,2.86-5.47,0.89-8.08c-1.06-1.4-2.58-2.23-4.14-2.41c1.04-1,3.25-3.42,3.8-7.2
				c-2.89,0.74-4.66,1.89-6.79,3.45c0.53-1.64,0.27-3.53-0.87-5.04c-1.83-2.43-5.25-2.95-7.62-1.16c-2.38,1.79-2.89,5.28-0.98,7.65
				c0.72,0.9,1.61,1.43,3.01,0.93c-0.3-0.15-0.58-0.38-0.8-0.67c-0.75-0.99-0.57-2.39,0.4-3.12c0.97-0.73,2.62-0.59,3.37,0.4
				c0.59,0.79,0.88,1.67,0.93,2.35c0.11,1.45-0.65,2.79-1.8,3.74c-1.34,1.11-3.19,1.69-4.81,1.28c-1.7-0.43-3.59-1.23-4.41-2.93
				C307.61,341.64,307.52,339.87,307.68,338z"/>
		</g>
		<g id="path46_00000120550036629874747220000017230829167238606771_">
			<path class="st1" d="M298.88,344.04c3.41-1.13,6.77,0.23,8.14,2.89c1.36,2.67,1.05,4.89-0.09,6.95c2.62-0.36,5.16,0.67,6.61,3.5
				c1.45,2.83,0.7,7.33-2.32,8.98c0.88-1.62,1-3.52-0.19-5.85c-0.81-1.58-3.28-2.95-5.31-3.18c-1.51-0.17-3.61,0.98-4.52,2.11
				c0.01-0.12-1.56,2.12-0.51,4.18c0.64,1.25,2.14,1.75,3.36,1.13c1.22-0.62,2.04-2.21,1.4-3.45c1.53,1.06,1.92,2.76,1.65,4.18
				c-0.31,1.64-1.31,3.1-2.85,3.89c-2.74,1.4-6.17,0.18-7.66-2.73c-0.8-1.56-0.88-3.29-0.35-4.78c-1.35,0.5-4.49,1.43-8.13,0.27
				c1.93-2.28,3.74-3.37,6.07-4.6c-1.71-0.24-3.3-1.3-4.16-2.98c-1.39-2.71-0.37-6.01,2.28-7.36c2.65-1.36,6.01-0.29,7.31,2.46
				c0.49,1.04,0.58,2.07-0.48,3.12c-0.01-0.34-0.09-0.68-0.25-1.01c-0.57-1.11-1.9-1.55-2.98-1c-1.08,0.55-1.68,2.1-1.11,3.21
				c0.45,0.88,1.12,1.52,1.71,1.86c1.26,0.73,2.8,0.63,4.15,0.02c1.58-0.72,2.92-2.14,3.25-3.77c0.35-1.71,0.46-3.76-0.71-5.24
				C302.19,345.57,300.63,344.72,298.88,344.04L298.88,344.04z"/>
		</g>
	</g>
	<g>
		<g id="path44_00000000195491273406160940000017798183543438934974_">
			<path class="st1" d="M255.88,355.16c-3.46,0.97-5.48,3.99-5.12,6.96c0.36,2.97,1.87,4.64,3.96,5.7c-2.37,1.17-3.9,3.45-3.51,6.6
				c0.39,3.16,3.54,6.46,6.95,6.14c-1.64-0.85-2.8-2.36-3.12-4.95c-0.22-1.76,1.06-4.28,2.62-5.61c1.16-0.98,3.54-1.21,4.93-0.79
				c-0.08-0.09,2.48,0.88,2.76,3.18c0.17,1.39-0.79,2.65-2.15,2.82c-1.36,0.17-2.93-0.68-3.1-2.07c-0.67,1.74-0.04,3.36,0.98,4.39
				c1.18,1.19,2.82,1.83,4.54,1.62c3.05-0.38,5.21-3.31,4.81-6.55c-0.21-1.74-1.12-3.22-2.39-4.15c1.4-0.34,4.53-1.33,6.89-4.33
				c-2.88-0.8-4.98-0.69-7.6-0.4c1.28-1.16,2-2.93,1.77-4.8c-0.37-3.02-3.07-5.18-6.02-4.82c-2.95,0.36-5.14,3.13-4.67,6.13
				c0.18,1.14,0.68,2.04,2.14,2.31c-0.19-0.28-0.31-0.61-0.36-0.97c-0.15-1.23,0.7-2.35,1.91-2.5c1.2-0.15,2.57,0.8,2.72,2.03
				c0.12,0.98-0.08,1.89-0.37,2.5c-0.63,1.31-1.96,2.09-3.43,2.34c-1.71,0.3-3.61-0.13-4.8-1.3c-1.25-1.22-2.49-2.86-2.35-4.74
				C253.99,358.28,254.81,356.71,255.88,355.16z"/>
		</g>
		<g id="path46_00000091733572558719738080000017866399545402171530_">
			<path class="st1" d="M245.23,356c3.52,0.72,5.75,3.58,5.6,6.58c-0.15,2.99-1.53,4.76-3.55,5.97c2.45,1,4.13,3.16,3.97,6.34
				c-0.16,3.17-3.06,6.7-6.5,6.62c1.57-0.96,2.63-2.55,2.76-5.16c0.09-1.77-1.36-4.2-3.01-5.41c-1.22-0.9-3.62-0.95-4.97-0.43
				c0.07-0.09-2.41,1.05-2.53,3.37c-0.07,1.4,0.98,2.59,2.35,2.66c1.37,0.07,2.87-0.89,2.94-2.29c0.8,1.69,0.28,3.35-0.66,4.45
				c-1.09,1.27-2.68,2.03-4.41,1.94c-3.07-0.16-5.43-2.93-5.27-6.19c0.09-1.75,0.89-3.29,2.08-4.31c-1.42-0.24-4.61-1-7.18-3.83
				c2.81-1.01,4.92-1.05,7.56-0.95c-1.36-1.06-2.2-2.78-2.11-4.66c0.15-3.04,2.69-5.39,5.66-5.24c2.97,0.15,5.35,2.75,5.1,5.78
				c-0.09,1.15-0.53,2.09-1.97,2.46c0.17-0.3,0.27-0.63,0.29-1c0.06-1.24-0.87-2.3-2.08-2.36c-1.21-0.06-2.5,0.98-2.56,2.22
				c-0.05,0.99,0.21,1.88,0.55,2.47c0.72,1.26,2.11,1.94,3.59,2.09c1.73,0.17,3.59-0.39,4.7-1.64c1.16-1.31,2.28-3.03,2.01-4.9
				C247.33,358.98,246.41,357.47,245.23,356L245.23,356z"/>
		</g>
	</g>
	<g id="path48_00000142176259555053714650000008328595280406373567_">
		<path class="st1" d="M192.32,338c2.51,2.57,2.75,6.19,0.95,8.58c-1.8,2.39-3.94,3.08-6.29,2.96c1.46,2.2,1.65,4.93-0.26,7.47
			c-1.91,2.54-6.29,3.83-9.09,1.84c1.84,0.09,3.61-0.64,5.18-2.73c1.07-1.42,1.23-4.24,0.54-6.17c-0.51-1.43-2.46-2.82-3.87-3.14
			c0.11-0.04-2.59-0.48-3.98,1.37c-0.84,1.12-0.64,2.69,0.45,3.52c1.09,0.82,2.88,0.87,3.72-0.25c-0.29,1.85-1.65,2.93-3.04,3.31
			c-1.61,0.44-3.36,0.18-4.74-0.86c-2.46-1.85-2.86-5.47-0.89-8.08c1.06-1.4,2.58-2.23,4.14-2.41c-1.04-1-3.25-3.42-3.8-7.2
			c2.89,0.74,4.66,1.89,6.79,3.45c-0.53-1.64-0.27-3.53,0.87-5.04c1.83-2.43,5.25-2.95,7.62-1.16c2.38,1.79,2.89,5.28,0.98,7.65
			c-0.72,0.9-1.61,1.43-3.01,0.93c0.3-0.15,0.58-0.38,0.8-0.67c0.75-0.99,0.57-2.39-0.4-3.12c-0.97-0.73-2.62-0.59-3.37,0.4
			c-0.59,0.79-0.88,1.67-0.93,2.35c-0.11,1.45,0.65,2.79,1.8,3.74c1.34,1.11,3.2,1.69,4.81,1.28c1.7-0.43,3.59-1.23,4.41-2.93
			C192.39,341.64,192.48,339.87,192.32,338L192.32,338z"/>
	</g>
	<g id="path50_00000017508576642824438470000017094435569920474805_">
		<path class="st1" d="M201.12,344.04c-3.41-1.13-6.77,0.23-8.14,2.89c-1.36,2.67-1.05,4.89,0.09,6.95
			c-2.62-0.36-5.16,0.67-6.61,3.5c-1.45,2.83-0.7,7.33,2.32,8.98c-0.88-1.62-1-3.52,0.19-5.85c0.81-1.58,3.28-2.95,5.31-3.18
			c1.51-0.17,3.61,0.98,4.52,2.11c-0.01-0.12,1.56,2.12,0.51,4.18c-0.64,1.25-2.14,1.75-3.36,1.13s-2.04-2.21-1.4-3.45
			c-1.53,1.06-1.92,2.76-1.65,4.18c0.31,1.64,1.31,3.1,2.85,3.89c2.74,1.4,6.17,0.18,7.66-2.73c0.8-1.56,0.88-3.29,0.35-4.78
			c1.35,0.5,4.49,1.43,8.13,0.27c-1.93-2.28-3.74-3.37-6.07-4.6c1.71-0.24,3.3-1.3,4.16-2.98c1.39-2.71,0.37-6.01-2.28-7.36
			c-2.65-1.36-6.01-0.29-7.31,2.46c-0.49,1.04-0.58,2.07,0.48,3.12c0.01-0.34,0.09-0.68,0.25-1.01c0.57-1.11,1.9-1.55,2.98-1
			c1.08,0.55,1.68,2.1,1.11,3.21c-0.45,0.88-1.12,1.52-1.71,1.86c-1.26,0.73-2.8,0.63-4.15,0.02c-1.58-0.72-2.92-2.14-3.25-3.77
			c-0.35-1.71-0.46-3.76,0.71-5.24C197.81,345.57,199.37,344.72,201.12,344.04L201.12,344.04z"/>
	</g>
	<g>
		<g>
			<path class="st0" d="M168.05,318.58c-0.34-2.02-2.1-4.5-4.48-7.06c-0.78-0.84-2.79-3.16-3.39-3.86
				c1.42,3.59,0.77,7.66,0.76,11.23c-0.01,3.46,0.44,6.3,2.35,9.32c0.95,0.84,1.99,1.7,3.04,2.55c-1.05-0.85-2.09-1.72-3.04-2.55
				c-1.56-0.66-3.07-1.42-4.58-2.17c-1.72-0.85-3.53-1.05-5.49-1.29c-3.71-0.45-7.02-0.53-10.46-2.41c2.21,2.46,4.42,4.97,6.94,7.13
				c1.7,1.46,3.4,2.56,5.14,3.02c1.39,0.37,2.78,0.43,4.22,0.44c2.69,0.02,5.91-0.37,8.52-0.01c0.6,0.08,1.22,0.18,1.84,0.3
				C165.8,327.61,168.98,324.07,168.05,318.58z"/>
		</g>
		<g>
			<path class="st0" d="M135.56,213.47c-0.14,12.38-9.52,12.09-3.15,27.32C131.84,232.67,143.82,230.21,135.56,213.47z"/>
		</g>
		<g>
			<path class="st0" d="M367.61,240.79c6.36-15.22-3.01-14.94-3.15-27.32C356.2,230.21,368.18,232.67,367.61,240.79z"/>
		</g>
		<g>
			<path class="st0" d="M359.01,244.07c3.68,4.18,8.43,3.94,10.5,10.29c0.3-0.56,0.61-1.1,0.93-1.62c1.36-2.26,3.7-4.51,5.38-6.61
				c0.9-1.12,1.73-2.25,2.32-3.55c0.74-1.64,0.95-3.65,0.89-5.89c-0.09-3.31-0.64-6.61-1.16-9.88c-0.71,3.86-2.74,6.48-4.72,9.64
				c-1.05,1.67-2.03,3.2-2.46,5.07c-0.37,1.65-0.73,3.3-1.2,4.92c-1.14-3.39-3.06-5.53-5.75-7.7c-2.78-2.24-6.34-4.3-8.24-7.67
				c0.16,0.9,0.7,3.92,0.86,5.06C356.83,239.6,357.65,242.53,359.01,244.07z"/>
		</g>
		<g>
			<polygon class="st0" points="339.84,307.66 339.84,307.66 339.84,307.66 			"/>
		</g>
		<g>
			<path class="st0" d="M341.31,326.05c-1.51,0.75-3.02,1.51-4.58,2.17c-0.95,0.84-1.99,1.7-3.04,2.55
				c1.05-0.85,2.09-1.72,3.04-2.55c1.91-3.02,2.37-5.86,2.35-9.32c-0.01-3.57-0.66-7.64,0.76-11.23c-0.6,0.69-2.61,3.02-3.39,3.86
				c-2.38,2.56-4.14,5.04-4.48,7.06c-0.93,5.49,2.25,9.03-1.37,14.64c0.63-0.12,1.24-0.22,1.84-0.3c2.61-0.36,5.83,0.03,8.52,0.01
				c1.44-0.01,2.84-0.07,4.22-0.44c1.74-0.46,3.43-1.56,5.14-3.02c2.52-2.16,4.73-4.66,6.94-7.13c-3.44,1.88-6.75,1.96-10.46,2.41
				C344.83,324.99,343.03,325.2,341.31,326.05z"/>
		</g>
		<g>
			<path class="st0" d="M370.32,283.79c-1.67,1.06-3.21,2.02-4.4,3.53c-1.04,1.33-2.08,2.67-3.2,3.93c0.43-3.55-0.39-6.31-1.89-9.43
				c-1.55-3.21-3.88-6.61-4.15-10.47c-0.24,0.88-1.05,3.84-1.4,4.94c-1.05,3.34-1.57,6.33-1.01,8.31c1.52,5.36,5.92,7.18,5.06,13.8
				c0.51-0.38,1.03-0.73,1.53-1.06c2.2-1.45,5.28-2.49,7.7-3.66c1.3-0.63,2.53-1.29,3.62-2.21c1.37-1.16,2.42-2.89,3.34-4.94
				c1.34-3.03,2.27-6.25,3.2-9.42C376.43,280.28,373.48,281.78,370.32,283.79z"/>
		</g>
		<g>
			<path class="st0" d="M124.2,246.13c1.68,2.1,4.02,4.36,5.38,6.61c0.32,0.52,0.63,1.06,0.93,1.62c2.07-6.35,6.82-6.11,10.5-10.29
				c1.36-1.54,2.17-4.47,2.66-7.93c0.16-1.14,0.7-4.16,0.86-5.06v0c-1.9,3.36-5.46,5.43-8.24,7.67c-2.69,2.17-4.61,4.31-5.75,7.7
				c-0.47-1.62-0.83-3.28-1.2-4.92c-0.42-1.87-1.41-3.4-2.46-5.07c-1.99-3.16-4.01-5.79-4.72-9.64c-0.52,3.26-1.07,6.57-1.16,9.88
				c-0.06,2.24,0.15,4.25,0.89,5.89C122.47,243.88,123.3,245,124.2,246.13z"/>
		</g>
		<g>
			<path class="st0" d="M373.57,268.06c-1.47,1.32-2.83,2.52-3.76,4.21c-0.81,1.48-1.61,2.97-2.51,4.4
				c-0.17-3.57-1.43-6.16-3.42-8.99c-2.06-2.91-4.92-5.88-5.82-9.64c-0.09,0.91-0.4,3.97-0.56,5.1c-0.48,3.47-0.5,6.5,0.38,8.36
				c2.39,5.03,7.03,6.1,7.27,12.78c0,0,0,0,0,0c0.45-0.45,0.89-0.89,1.34-1.3c1.93-1.79,4.79-3.32,6.99-4.88
				c1.17-0.83,2.28-1.69,3.21-2.78c1.16-1.37,1.91-3.25,2.47-5.42c0.82-3.21,1.2-6.53,1.6-9.82
				C379.01,263.59,376.35,265.56,373.57,268.06z"/>
		</g>
		<g>
			<path class="st0" d="M121.38,258.9c0.76,1.22,1.73,2.22,2.77,3.22c1.94,1.86,4.55,3.79,6.2,5.85c0.38,0.47,0.76,0.97,1.13,1.48v0
				c1.22-6.56,5.97-6.95,9.07-11.57c1.14-1.71,1.57-4.71,1.6-8.21c0.01-1.15,0.15-4.21,0.19-5.13c-1.44,3.58-4.71,6.1-7.17,8.68
				c-2.39,2.5-4.01,4.88-4.7,8.39v0c-0.68-1.55-1.25-3.14-1.84-4.72c-0.67-1.8-1.84-3.19-3.1-4.71c-2.38-2.88-4.73-5.21-5.94-8.94
				c-0.09,3.3-0.2,6.65,0.14,9.94C119.96,255.41,120.43,257.37,121.38,258.9z"/>
		</g>
		<g>
			<path class="st0" d="M371.39,256.88c-0.58,1.58-1.16,3.18-1.84,4.72c-0.69-3.51-2.31-5.88-4.7-8.39
				c-2.46-2.58-5.73-5.1-7.17-8.68c0.04,0.92,0.18,3.98,0.19,5.13c0.03,3.5,0.46,6.51,1.6,8.21c3.1,4.63,7.84,5.01,9.07,11.57
				c0.37-0.51,0.75-1.01,1.13-1.48c1.65-2.06,4.26-3.99,6.2-5.85c1.04-1,2.01-2,2.77-3.22c0.95-1.53,1.42-3.49,1.65-5.72
				c0.35-3.29,0.23-6.64,0.14-9.94h0c-1.21,3.73-3.56,6.07-5.94,8.94C373.23,253.7,372.06,255.08,371.39,256.88z"/>
		</g>
		<g>
			<path class="st0" d="M360.05,301.15c-1.2,1.19-2.39,2.39-3.66,3.5c0.86-3.47,0.4-6.31-0.71-9.59c-1.14-3.38-3.03-7.04-2.82-10.9
				c-0.35,0.85-1.52,3.68-2,4.73c-1.45,3.18-2.34,6.09-2.03,8.12c0.85,5.51,4.99,7.86,3.31,14.33c0.56-0.31,1.11-0.6,1.65-0.86
				c2.36-1.17,5.54-1.82,8.09-2.68c1.36-0.46,2.67-0.96,3.87-1.75c1.5-0.98,2.76-2.57,3.92-4.49c1.71-2.84,3.02-5.92,4.34-8.95
				c-2.68,2.87-5.79,3.99-9.17,5.59C363.06,299.04,361.41,299.8,360.05,301.15z"/>
		</g>
		<g>
			<path class="st0" d="M147.77,320.98c2.65,0.44,5.9,0.56,8.42,1.32c0.58,0.18,1.17,0.37,1.77,0.58c-2.7-6.11,0.99-9.1,0.94-14.67
				c-0.02-2.05-1.37-4.78-3.32-7.68c-0.64-0.95-2.26-3.56-2.74-4.34c0.84,3.77-0.44,7.69-1.01,11.21c-0.55,3.41-0.55,6.29,0.86,9.57
				c-1.43-0.89-2.81-1.88-4.18-2.86c-1.57-1.11-3.32-1.59-5.22-2.13c-3.59-1.03-6.85-1.63-9.96-4.02c1.79,2.78,3.59,5.6,5.74,8.12
				c1.45,1.71,2.95,3.06,4.6,3.79C144.98,320.47,146.35,320.75,147.77,320.98z"/>
		</g>
		<g>
			<path class="st0" d="M351.51,314.13c-1.38,0.98-2.75,1.97-4.18,2.86c1.42-3.29,1.42-6.16,0.86-9.57
				c-0.57-3.52-1.84-7.44-1.01-11.21c-0.48,0.78-2.1,3.39-2.74,4.34c-1.95,2.9-3.3,5.62-3.32,7.68c-0.06,5.57,3.64,8.57,0.94,14.67
				c0.6-0.21,1.19-0.41,1.77-0.58c2.52-0.77,5.77-0.89,8.42-1.32c1.42-0.23,2.79-0.51,4.1-1.09c1.65-0.72,3.15-2.08,4.6-3.79
				c2.15-2.52,3.94-5.35,5.74-8.13c-3.11,2.39-6.37,2.99-9.96,4.02C354.83,312.54,353.08,313.02,351.51,314.13z"/>
		</g>
		<g>
			<path class="st0" d="M131.44,293.68c2.42,1.17,5.5,2.21,7.7,3.66c0.51,0.33,1.02,0.69,1.53,1.06c-0.86-6.62,3.54-8.45,5.06-13.8
				c0.56-1.98,0.04-4.97-1.01-8.31c-0.34-1.09-1.16-4.05-1.4-4.94v0c-0.27,3.85-2.6,7.25-4.15,10.47c-1.5,3.12-2.31,5.87-1.89,9.43
				c-1.12-1.26-2.16-2.6-3.2-3.93c-1.19-1.51-2.73-2.47-4.4-3.53c-3.15-2-6.11-3.5-8.41-6.68c0.93,3.17,1.85,6.39,3.2,9.42
				c0.91,2.05,1.96,3.78,3.33,4.94C128.91,292.39,130.15,293.05,131.44,293.68z"/>
		</g>
		<g>
			<path class="st0" d="M126.54,278.1c2.2,1.56,5.06,3.09,6.99,4.88c0.45,0.41,0.89,0.85,1.34,1.3c0.25-6.67,4.88-7.75,7.27-12.78
				c0.88-1.86,0.86-4.89,0.38-8.36c-0.16-1.14-0.47-4.19-0.56-5.1c-0.9,3.76-3.76,6.72-5.82,9.64c-1.99,2.83-3.25,5.41-3.42,8.98
				c-0.9-1.43-1.7-2.92-2.51-4.4c-0.92-1.68-2.28-2.88-3.75-4.21c-2.78-2.5-5.44-4.46-7.19-7.98c0.39,3.28,0.77,6.61,1.6,9.82
				c0.56,2.17,1.31,4.05,2.47,5.42C124.26,276.41,125.37,277.27,126.54,278.1z"/>
		</g>
		<g>
			<path class="st0" d="M138.13,307.79c2.55,0.86,5.73,1.51,8.09,2.68c0.55,0.27,1.1,0.56,1.65,0.86
				c-1.67-6.46,2.46-8.82,3.31-14.32c0.31-2.03-0.57-4.94-2.03-8.12c-0.48-1.04-1.65-3.88-2-4.73v0c0.21,3.86-1.68,7.52-2.82,10.9
				c-1.1,3.28-1.57,6.12-0.71,9.59c-1.27-1.11-2.46-2.31-3.66-3.5c-1.37-1.35-3.01-2.11-4.8-2.96c-3.38-1.6-6.49-2.72-9.17-5.59
				c1.32,3.03,2.63,6.11,4.34,8.95c1.16,1.92,2.42,3.5,3.92,4.49C135.46,306.83,136.76,307.33,138.13,307.79z"/>
		</g>
	</g>
	<g>
		<g>
			<path class="st0" d="M205.15,228.69c0,0-0.04,0-0.08-0.04c0.04,0.04,0.04,0.04,0.04,0.08h0.04V228.69z"/>
			<path class="st0" d="M204.64,227.64c0,0.04,0.04,0.13,0.08,0.17c-0.04-0.08-0.04-0.13-0.04-0.21L204.64,227.64z"/>
			<path class="st0" d="M205.07,228.65c0.04,0.04,0.04,0.04,0.04,0.08l0.04,0.04c0,0,0,0,0-0.04v-0.04
				C205.15,228.69,205.11,228.69,205.07,228.65z"/>
		</g>
	</g>
</g>
</svg>
