<?xml version="1.0" encoding="utf-8"?>
<!-- Generator: Adobe Illustrator 26.5.0, SVG Export Plug-In . SVG Version: 6.00 Build 0)  -->
<svg version="1.1" id="Layer_1" xmlns="http://www.w3.org/2000/svg" xmlns:xlink="http://www.w3.org/1999/xlink" x="0px" y="0px"
	 viewBox="0 0 500 500" style="enable-background:new 0 0 500 500;" xml:space="preserve">
<style type="text/css">
	.st0{fill:#131313;}
</style>
<g>
	<g>
		<path class="st0" d="M394.65,289.77c-0.54-0.68-1.15-0.99-2.03-0.98c-2.87,0.04-5.75,0.01-8.62,0.01c-0.28,0-0.56-0.02-0.89-0.03
			c0-0.43,0-0.77,0-1.11c0.02-5.62,0.03-11.23,0.04-16.85c0.01-3.09,0.01-6.17-0.01-9.26c0-0.49,0.11-0.92,0.31-1.36
			c1.51-3.19,3.01-6.39,4.49-9.59c0.17-0.37,0.27-0.8,0.3-1.2c0.07-1.21,0.09-2.42,0.13-3.63c0.01-0.36,0-0.72,0-1.11
			c1.58-0.16,3.07,0.05,4.55-0.13c0.02-0.19,0.04-0.3,0.04-0.4c0-1.63,0.02-3.27,0-4.9c-0.01-0.47,0.1-0.86,0.36-1.26
			c1.12-1.69,2.24-3.37,3.44-5.01c1.7-2.31,3.16-4.79,4.7-7.22c0.2-0.32,0.33-0.73,0.35-1.11c0.04-1.11,0.02-2.21,0.01-3.32
			c0-0.26-0.07-0.51-0.12-0.85c-0.45,0-0.79,0-1.13,0c-46.94,0-93.88,0-140.81,0c-0.16,0-0.32,0-0.47,0
			c-0.77,0.01-0.8,0.04-0.81,0.81c-0.01,1.85,0,3.69,0,5.54c0,0.28-0.02,0.56-0.03,0.83c-0.96,0.18-16,0.14-16.61-0.05
			c0-2.31,0-4.65,0-6.97c-0.92-0.17-142.86-0.14-143.51,0.04c0,1.01,0.03,2.03-0.01,3.06c-0.03,0.86,0.21,1.6,0.68,2.3
			c0.93,1.41,1.82,2.84,2.75,4.25c1.7,2.57,3.41,5.14,5.13,7.7c0.26,0.39,0.38,0.78,0.37,1.25c-0.02,1.45-0.01,2.9-0.01,4.35
			c0,0.31,0,0.62,0,1.02c1.55,0.06,3.04-0.02,4.59,0.05c0,0.36,0,0.62,0,0.88c0,1.03,0.02,2.06-0.01,3.09
			c-0.01,0.54,0.09,1.03,0.32,1.52c1.55,3.35,3.07,6.71,4.61,10.06c0.2,0.44,0.31,0.88,0.31,1.37c0,4.75,0.03,9.49,0.04,14.24
			c0.01,4.03,0,8.07,0,12.1c0,0.28,0,0.56,0,0.94c-0.38,0-0.66,0-0.94,0c-2.82,0-5.64,0.02-8.46-0.01c-0.87-0.01-1.5,0.3-2.03,0.98
			c-1.09,1.42-2.22,2.82-3.34,4.22c-0.79,0.99-1.6,1.96-2.4,2.94c-0.51,0.62-0.77,1.3-0.5,2.14c100.51,0,200.99,0,301.48,0
			c0.18-0.77,0.11-1.41-0.39-2.03C398.53,294.63,396.58,292.21,394.65,289.77z M292.58,297.74c-28.27,0-56.51,0-84.79,0
			c0-0.7,0-1.38,0-2.1c28.27,0,56.51,0,84.79,0C292.58,296.34,292.58,297.02,292.58,297.74z M209.49,291.4
			c0.57-0.16,80.25-0.21,81.4-0.05c0,0.7,0,1.34,0,2.04c-27.14,0-54.23,0-81.32,0C209.39,292.86,209.37,292.33,209.49,291.4z
			 M380.3,260.55c0,3.01,0,6.01-0.02,9.02c-0.04,6.17-0.09,12.34-0.13,18.51c0,0.21-0.03,0.41-0.04,0.65c-0.18,0-0.32,0-0.55,0
			c0-4.49,0-8.96,0-13.53c-2.95-0.24-5.83-0.18-8.82-0.09c-0.03,1.57-0.01,3.07-0.01,4.56c0,1.5,0,3.01,0,4.51c0,1.5,0,3,0,4.58
			c-1.19,0.11-2.31,0.03-3.52,0.05c0-2.1,0-4.14,0-6.14c-0.63-0.24-2.55-0.3-3.68-0.12c-0.04,0.3-0.11,0.63-0.11,0.96
			c-0.01,1.45-0.01,2.9-0.01,4.35c0,0.26,0,0.52,0,0.76c-0.81,0.23-4.67,0.27-5.7,0.06c0-2,0-4.03,0-6.02
			c-0.6-0.21-2.75-0.24-3.71-0.07c-0.19,2.02-0.01,4.07-0.12,6.18c-1.17,0.12-2.29,0.02-3.51,0.05c-0.03-2.14,0.01-4.21-0.02-6.3
			c-1.24,0-2.36,0-3.58,0c-0.18,2.03-0.01,4.05-0.13,6.16c-1.94,0.24-3.83,0.22-5.84,0.07c0-2.09,0-4.13,0-6.21
			c-1.25,0-2.4,0-3.65,0c-0.15,2.04-0.01,4.09-0.09,6.12c-0.55,0.2-2.28,0.25-3.38,0.08c-0.1-0.99-0.03-2.02-0.04-3.03
			c-0.01-1.03,0-2.05,0-3.06c-0.57-0.21-2.71-0.25-3.71-0.07c0,2.03,0,4.07,0,6.17c-1.69,0-3.28,0-4.97,0c0-2.05,0-4.09,0-6.24
			c-1.26-0.07-2.44-0.02-3.69-0.03c-0.04,0.35-0.09,0.65-0.1,0.95c-0.01,1.5,0,3.01,0,4.51c0,0.26,0,0.52,0,0.83
			c-1.19,0-2.31,0-3.51,0c-0.02-0.28-0.04-0.56-0.04-0.84c0-1.5,0-3.01,0-4.51c0-0.28-0.03-0.56-0.05-0.9c-1.2,0-2.32,0-3.48,0
			c-0.26,0.26-0.22,0.61-0.22,0.95c0,1.45,0,2.9,0,4.35c0,0.26,0,0.52,0,0.76c-0.69,0.29-4.06,0.38-5.7,0.14
			c-0.17-2.03-0.01-4.09-0.09-6.18c-1.23,0-2.4,0-3.66,0c0,2.07,0,4.09,0,6.2c-0.97,0.16-1.87,0.06-2.86,0.06c0-2.11,0-4.15,0-6.25
			c-1.23,0-2.37,0-3.62,0c0,2.06,0,4.1,0,6.19c-1.74,0-3.38,0-5.12,0c0-2.07,0-4.11,0-6.2c-1.27,0-2.44,0-3.72,0
			c-0.02,2.07-0.03,4.11-0.05,6.25c-1.14,0.07-2.2,0.02-3.36,0.01c-0.02-0.35-0.04-0.65-0.04-0.96c0-3.88,0-7.75,0-11.63
			c0-0.31,0-0.62,0-1c-4.52-0.26-8.93-0.23-13.43-0.11c0,4.6,0,9.09,0,13.62c-0.2,0.04-0.33,0.08-0.45,0.08c-0.95,0.01-1.9,0-2.94,0
			c-0.08-0.91-0.03-1.8-0.04-2.68c-0.01-0.92,0-1.85,0-2.77c0-0.9,0-1.79,0-2.69c0-0.92,0-1.85,0-2.77c0-0.89,0-1.79,0-2.77
			c-1.26-0.06-2.45-0.03-3.74-0.02c0,4.58,0,9.08,0,13.63c-0.98,0-1.86,0-2.84,0c-0.07-0.88-0.02-1.77-0.03-2.65
			c-0.01-0.92,0-1.85,0-2.77c0-0.9,0-1.79,0-2.69c0-0.92,0-1.85,0-2.77c0-0.89,0-1.78,0-2.71c-8.02,0-15.95,0-23.89,0
			c-0.23,0.54-0.18,1.09-0.18,1.64c0.01,3.88,0.02,7.75,0.02,11.63c0,0.08-0.03,0.15-0.07,0.34c-0.87,0.12-1.77,0.04-2.76,0.05
			c0-4.59,0-9.08,0-13.69c-1.25-0.14-2.42-0.05-3.69-0.06c-0.06,0.93-0.02,1.81-0.03,2.7c-0.01,0.92,0,1.85,0,2.77
			c0,0.9,0,1.79,0,2.69c0,0.92,0,1.85,0,2.77c0,0.89,0,1.79,0,2.77c-1.14,0.11-2.24,0.04-3.44,0.06c-0.04-4.57,0.01-9.09-0.02-13.59
			c-0.64-0.16-12.36-0.19-13.31-0.04c-0.03,0.34-0.08,0.7-0.08,1.06c-0.01,3.82,0,7.65,0,11.47c0,0.31,0,0.63,0,1.04
			c-1.17,0.13-2.29,0.03-3.5,0.04c0-2.11,0-4.15,0-6.24c-1.24-0.19-2.39-0.06-3.63-0.09c-0.15,2.08,0.01,4.12-0.1,6.23
			c-1.67,0.21-3.32,0.21-5.04,0.06c-0.17-2.08,0.07-4.12-0.08-6.21c-1.17,0-2.29,0-3.45,0c-0.25,0.66-0.1,1.34-0.12,2.01
			c-0.03,0.68-0.01,1.37-0.01,2.06c0,0.68,0,1.36,0,2.13c-0.93,0.08-1.81,0.04-2.79,0.03c-0.12-2.08-0.05-4.13-0.09-6.26
			c-1.21-0.1-2.35-0.03-3.59-0.04c-0.04,0.39-0.11,0.74-0.12,1.09c-0.01,1.42-0.01,2.85-0.01,4.27c0,0.26,0,0.52,0,0.76
			c-0.71,0.27-4.34,0.33-5.71,0.1c-0.03-1.99,0.01-4.01-0.02-6c-0.6-0.28-2.59-0.34-3.71-0.13c0,2,0,4.02,0,6.13
			c-1.19,0.19-2.31,0.12-3.52,0.06c-0.1-2.05,0.01-4.06-0.06-6.14c-1.26-0.24-2.47-0.23-3.76-0.01c0,2.05,0,4.05,0,6.14
			c-1.66,0.17-3.25,0.01-4.9,0.07c-0.22-2.13-0.07-4.2-0.16-6.31c-1.22,0-2.37,0-3.62,0c-0.1,0.66-0.03,1.34-0.04,2.01
			c-0.01,0.71,0,1.42,0,2.14c0,0.68,0,1.36,0,2.08c-1.18,0-2.27,0-3.44,0c0-2.06,0-4.08,0-6.14c-1.24-0.29-2.42-0.07-3.66-0.13
			c-0.04,0.36-0.1,0.66-0.1,0.96c-0.01,1.45,0,2.9,0,4.35c0,0.28,0,0.57,0,0.95c-2,0.13-3.9,0.12-5.89,0.02c0-2.11,0-4.13,0-6.2
			c-1.2,0-2.32,0-3.55,0c-0.21,2.06,0,4.13-0.14,6.23c-1.15,0-2.24,0-3.43,0c-0.03-0.31-0.08-0.61-0.08-0.92
			c-0.01-1.48,0-2.95,0-4.43c0-0.29,0-0.57,0-0.91c-1.26,0-2.44,0-3.71,0c-0.09,0.65-0.03,1.33-0.04,2.01c-0.01,0.71,0,1.42,0,2.14
			c0,0.68,0,1.36,0,2.08c-1.92,0-3.75,0-5.68,0c-0.02-0.28-0.05-0.55-0.05-0.83c-0.01-1.53,0-3.06,0-4.59
			c0-0.79-0.06-0.86-0.84-0.88c-0.89-0.02-1.79,0-2.76,0c-0.04,0.33-0.11,0.6-0.11,0.87c-0.01,1.48,0,2.95,0,4.43
			c0,0.29,0,0.58,0,0.96c-1.18,0.17-2.31,0.11-3.55,0.03c0-4.55,0-9.01,0-13.54c-2.98-0.29-5.86-0.2-8.84-0.1c0,4.61,0,9.11,0,13.64
			c-0.27,0-0.44,0-0.65,0c-0.02-0.17-0.06-0.32-0.06-0.47c-0.01-1.85-0.03-3.69-0.03-5.54c0-7.15,0-14.29,0-21.44
			c0-0.51-0.09-0.98-0.31-1.45c-1.56-3.37-3.08-6.76-4.64-10.14c-0.21-0.47-0.32-0.93-0.32-1.44c0.02-1.93,0.01-3.85,0.01-5.78
			c0-0.26,0-0.52,0-0.87c-1.53,0-3,0-4.56,0c0-0.69-0.05-1.29,0.01-1.88c0.16-1.43-0.21-2.67-1.1-3.82
			c-0.58-0.74-1.02-1.58-1.57-2.46c0.33-0.04,0.55-0.07,0.78-0.09c0.21-0.02,0.42-0.02,0.63-0.02c12.26-0.02,24.52-0.06,36.78-0.06
			c73.6-0.01,147.2-0.02,220.8-0.03c8.23,0,16.45,0.02,24.68,0.03c0.42,0,0.83,0.05,1.35,0.08c-0.12,0.24-0.18,0.43-0.28,0.59
			c-0.67,1.07-1.35,2.14-2.04,3.2c-0.22,0.34-0.34,0.69-0.33,1.11c0.02,0.82,0.01,1.63,0.01,2.45c0,0.26,0,0.51,0,0.87
			c-1.54,0-3.01,0-4.56,0c0,0.38,0,0.66,0,0.94c0,1.95-0.01,3.9,0,5.85c0,0.43-0.08,0.82-0.27,1.21c-1.52,3.22-3.02,6.44-4.54,9.65
			C380.39,259.68,380.3,260.09,380.3,260.55z"/>
		<path class="st0" d="M251.82,369.23c-0.49-0.27-0.86-0.2-1.31,0.04c-8.32,4.45-16.64,8.89-24.97,13.33
			c-0.22,0.12-0.44,0.25-0.72,0.42c0.26,0.16,0.43,0.27,0.62,0.37c8.37,4.47,16.74,8.93,25.11,13.41c0.47,0.25,0.83,0.26,1.31,0
			c2.36-1.29,4.74-2.54,7.11-3.81c5.93-3.16,11.86-6.32,17.79-9.49c0.26-0.14,0.51-0.29,0.84-0.48c-0.26-0.15-0.39-0.23-0.53-0.3
			C268.65,378.22,260.23,373.74,251.82,369.23z"/>
		<path class="st0" d="M248.93,224.79c1.67,0.85,3.89-0.15,4.36-1.97c0.33-1.27,0.03-2.35-1-3.19c-0.39-0.31-0.81-0.58-1.19-0.85
			c0-6.64,0-13.25,0-19.86c1.47-0.54,2.92-0.61,4.39-0.25c2.03,0.5,3.5,1.64,4.29,3.61c0.35,0.88,0.75,1.74,1.16,2.6
			c0.62,1.33,1.54,2.39,2.9,3c1.43,0.65,2.91,0.64,4.42,0.37c0.81-0.15,0.85-0.18,0.85-1.02c0-2.74,0-5.48,0-8.23
			c0-0.23,0-0.47,0-0.75c-0.65-0.18-1.26-0.35-1.87-0.52c-1.22-0.34-2.17-1.02-2.76-2.18c-0.48-0.94-1.01-1.86-1.59-2.73
			c-0.61-0.92-1.23-1.85-1.98-2.66c-1.42-1.55-3.16-2.65-5.3-2.88c-0.88-0.09-1.79-0.04-2.67,0.05c-1.14,0.11-2.28,0.32-3.47,0.5
			c0,10.39,0,20.69,0,30.95c-0.37,0.24-0.69,0.43-0.99,0.65c-0.56,0.42-1.02,0.91-1.25,1.59
			C246.75,222.52,247.43,224.03,248.93,224.79z"/>
		<path class="st0" d="M167.53,166.04c0.31-0.04,0.56-0.07,0.82-0.1c0.9-0.13,1.04-0.08,1.31,0.81c0.37,1.24,0.68,2.49,1.01,3.74
			c0.04,0.16,0.05,0.34,0.09,0.58c-0.17-0.08-0.27-0.1-0.35-0.16c-1.92-1.34-3.85-2.67-5.75-4.05c-0.32-0.23-0.57-0.62-0.74-0.99
			c-0.19-0.4-0.41-0.47-0.81-0.37c-0.92,0.25-1.84,0.46-2.76,0.69c-0.45,0.11-0.9,0.24-1.41,0.38c0.14,0.51,0.26,0.96,0.38,1.39
			c0.13,0.02,0.21,0.05,0.29,0.05c0.1,0,0.22,0.02,0.31-0.02c1.02-0.32,1.92,0.01,2.77,0.55c1.5,0.94,2.98,1.89,4.47,2.84
			c0.12,0.08,0.22,0.2,0.36,0.33c-0.56,1.25-1.1,2.48-1.65,3.7c-0.67,1.49-1.35,2.97-2.03,4.46c-0.32,0.71-0.79,1.24-1.61,1.37
			c-0.04,0.01-0.06,0.08-0.14,0.18c0.12,0.42,0.24,0.89,0.39,1.41c1.52-0.37,2.94-0.74,4.37-1.05c0.55-0.12,0.82-0.4,1.03-0.92
			c0.96-2.39,1.98-4.77,2.98-7.15c0.08-0.2,0.21-0.38,0.36-0.62c0.65,1.49,1.16,4.49,0.97,5.49c-0.5,0.22-0.99,0.44-1.52,0.68
			c0.16,0.52,0.3,0.96,0.45,1.47c2.59-0.66,5.14-1.24,7.71-1.94c-0.16-0.54-0.29-0.99-0.43-1.48c-0.47,0.07-0.88,0.13-1.3,0.19
			c-0.35,0.05-0.61,0-0.72-0.41c-0.42-1.63-0.85-3.25-1.28-4.87c0.06-0.05,0.11-0.09,0.17-0.14c0.38,0.28,0.77,0.53,1.13,0.83
			c1.77,1.5,3.54,2.99,5.29,4.52c0.46,0.4,0.92,0.54,1.52,0.37c1.14-0.31,2.3-0.58,3.44-0.88c0.27-0.07,0.52-0.2,0.82-0.32
			c-0.13-0.47-0.24-0.86-0.37-1.3c-1.19,0.14-2.05-0.44-2.9-1.11c-1.94-1.54-3.9-3.06-5.84-4.59c-0.2-0.16-0.38-0.35-0.61-0.55
			c0.98-1.67,1.94-3.31,2.88-4.95c0.47-0.82,1.1-1.39,2-1.69c0.26-0.09,0.5-0.24,0.77-0.37c-0.19-0.52-0.35-0.95-0.52-1.41
			c-1.58,0.4-3.07,0.78-4.59,1.16c0,0.35,0.02,0.61-0.01,0.87c-0.02,0.26-0.03,0.54-0.14,0.76c-1,2-2.03,3.99-3.05,5.98
			c-0.1,0.2-0.26,0.37-0.48,0.68c-0.41-1.84-0.87-3.5-1.12-5.24c0.6-0.26,1.14-0.5,1.73-0.76c-0.18-0.51-0.33-0.94-0.47-1.37
			c-1.4,0.16-7.22,1.65-7.67,1.96c0.07,0.22,0.14,0.45,0.22,0.67C167.35,165.57,167.44,165.79,167.53,166.04z"/>
		<path class="st0" d="M317.6,163.06c0.37,0.1,0.72,0.11,1.12-0.1c0-0.5,0-1,0-1.53c-1.64-0.05-3.12-0.73-4.69-0.79
			c-0.35,1.12-0.35,1.12-1.41,1.84c-1.53,1.04-3.05,2.07-4.58,3.1c-0.43,0.29-0.89,0.54-1.37,0.84c-0.03-0.16-0.08-0.24-0.06-0.3
			c0.32-1.47,0.64-2.93,0.96-4.4c0.08-0.36,0.29-0.53,0.67-0.51c0.44,0.02,0.88,0,1.37,0c0.12-0.52,0.23-0.97,0.35-1.48
			c-2.68-0.56-5.26-1.09-7.93-1.65c-0.09,0.58-0.16,1.06-0.23,1.57c0.61,0.21,1.12,0.39,1.6,0.55c0.12,1.43-1.86,11.21-2.58,12.76
			c-0.4,0-0.82,0.03-1.23-0.01c-0.44-0.04-0.66,0.19-0.72,0.56c-0.05,0.32,0,0.65,0,0.99c2.62,0.53,5.14,1.05,7.73,1.58
			c0.09-0.59,0.17-1.07,0.25-1.57c-0.46-0.15-0.83-0.26-1.2-0.39c-0.55-0.19-0.58-0.21-0.47-0.8c0.28-1.53,0.58-3.05,0.88-4.58
			c0.01-0.06,0.09-0.1,0.17-0.19c0.1,0.15,0.2,0.28,0.28,0.41c1.17,2.12,2.34,4.25,3.51,6.37c0.19,0.35,0.37,0.7,0.58,1.03
			c0.3,0.47,0.72,0.76,1.27,0.85c0.78,0.14,1.55,0.28,2.33,0.43c0.61,0.12,1.22,0.26,1.9,0.4c0.13-0.57,0.24-1.08,0.39-1.74
			c-0.9,0.06-1.38-0.4-1.74-1.03c-1.26-2.23-2.52-4.45-3.77-6.67c-0.32-0.57-0.59-1.16-0.92-1.8c2.07-1.22,4.09-2.42,6.11-3.59
			C316.58,162.96,317.09,162.92,317.6,163.06z"/>
		<path class="st0" d="M207.77,156.96c-2.76-0.52-5.46-0.07-8,1.12c-2.05,0.96-3.37,2.59-3.94,4.77c-0.68,2.58-0.37,5.08,0.85,7.44
			c0.99,1.9,2.56,3.14,4.66,3.6c2.88,0.63,5.68,0.33,8.28-1.08c2.87-1.55,4.19-4.1,4.32-7.32c-0.08-0.73-0.13-1.47-0.24-2.2
			C213.22,159.93,211.1,157.59,207.77,156.96z M208.95,170.11c-0.6,0.92-1.42,1.58-2.52,1.75c-0.75,0.12-1.52,0.17-2.28,0.13
			c-0.75-0.04-1.43-0.4-1.95-0.94c-0.42-0.43-0.85-0.89-1.14-1.4c-1.25-2.2-1.73-4.57-1.28-7.07c0.38-2.13,1.49-3.19,3.63-3.62
			c2.36-0.47,4.07,0.36,5.16,2.5c0.79,1.55,1.14,3.02,1.24,5.18C209.84,167.88,209.64,169.05,208.95,170.11z"/>
		<path class="st0" d="M252.78,170.3c2.33,0.73,4.68,0.7,7.01,0.05c2.61-0.73,4.39-2.41,5.34-4.96c0.44-1.17,0.64-2.39,0.62-3.64
			c0-0.29,0.02-0.58,0-0.87c-0.27-3.63-2.47-6.19-6.03-7c-1.98-0.45-3.97-0.5-5.96-0.06c-3.12,0.7-5.2,2.53-6.09,5.65
			c-0.48,1.68-0.5,3.37-0.15,5.08C248.13,167.53,249.92,169.41,252.78,170.3z M252.14,158.45c0.72-2.2,2.76-3.26,5.18-2.84
			c2.33,0.41,3.61,1.78,4,4.35c0.11,0.73,0.14,1.47,0.22,2.42c-0.11,0.78-0.2,1.78-0.4,2.75c-0.11,0.53-0.34,1.06-0.61,1.53
			c-0.8,1.43-2.06,2.14-3.69,2.17c-2.26,0.03-3.74-0.97-4.6-3.04C251.24,163.36,251.35,160.89,252.14,158.45z"/>
		<path class="st0" d="M284.54,329.03c0,0.79-0.07,0.86-0.91,0.95c-0.76,0.09-1.33,0.29-1.79,0.65l-0.21,0.17l0.15,0.23
			c0.48,0.72,0.87,0.93,1.71,0.93h24.84c0.12,0,0.23-0.01,0.34-0.01c0.14-0.01,0.29-0.01,0.44-0.01c0.56,0,0.99-0.22,1.27-0.64
			l0.06-0.1l-0.02-0.11c-0.1-0.72-0.26-0.86-0.76-0.97l-0.14-0.03c-0.22-0.05-0.44-0.09-0.67-0.12c-0.13-0.02-0.26-0.04-0.4-0.07
			c-0.41-0.07-0.41-0.07-0.45-0.46c-0.02-0.23-0.02-0.46-0.02-0.69v-4.71c0-2.62,0-5.23-0.01-7.85c0-1.1,0-1.1,1.23-1.21
			c0.18-0.02,0.37-0.03,0.55-0.04l0.6-0.04l0.01-0.26c0.02-0.5,0.04-1-0.16-1.55l-0.09-0.22l-0.24,0.04
			c-2.2,0.37-4.33,0.25-6.59,0.12c-0.42-0.03-0.85-0.05-1.28-0.07l-0.34-0.02l0.19,2.08l0.74-0.01c0.28,0,0.54-0.01,0.79,0.01
			c0.62,0.03,0.64,0.05,0.71,0.6c0.15,1.3,0.22,2.35,0.23,3.3c0.02,2.58-0.01,5.2-0.04,7.73l-0.01,1.1
			c-0.01,0.63-0.03,1.16-0.19,1.67h-6.03l-0.01-0.08c-0.03-0.24-0.05-0.47-0.05-0.71c-0.01-3.66-0.01-7.32,0-10.99
			c0-0.67,0.07-1.34,0.14-1.95c0.07-0.58,0.13-0.64,0.74-0.72c0.24-0.03,0.48-0.05,0.72-0.06l0.52-0.04l0.04-0.22
			c0.11-0.65,0.04-1.08-0.22-1.36c-0.25-0.27-0.61-0.33-0.92-0.33c-0.19,0-0.3,0.02-0.56,0.05c-1.56,0.21-3.11,0.18-4.62-0.03
			c-1.15-0.18-1.74,0.27-1.99,1.47v0.21l0.15,0.11c0.04,0.04,0.12,0.09,0.22,0.1c0.19,0.03,0.38,0.05,0.58,0.08l0.27,0.04
			c1.27,0.16,1.27,0.16,1.27,1.42v1.13c0,2.27,0.01,4.53,0,6.8c-0.01,1.59-0.03,3.18-0.06,4.77c0,0.14-0.03,0.27-0.05,0.41
			c-0.47,0.01-0.93,0.01-1.39,0.02c-1.57,0.03-3.06,0.05-4.6-0.07v-0.55c0-2.18-0.01-4.37-0.01-6.56l0-1.71
			c0-1.55-0.01-3.09,0.02-4.64c0.01-0.89,0.1-0.97,1.06-0.99c0.18-0.01,0.35-0.01,0.54-0.02l0.72-0.03l-0.09-1.78l-0.21-0.05
			c-0.08-0.02-0.14-0.04-0.21-0.06c-0.14-0.04-0.26-0.08-0.37-0.09c-0.16-0.02-0.33-0.01-0.47,0.02l-0.09,0.01
			c-1.97,0.2-3.72,0.19-5.34-0.03c-1.23-0.14-1.7,0.22-1.94,1.56l-0.06,0.31l0.84,0.08c0.43,0.04,0.87,0.08,1.31,0.13
			c0.41,0.05,0.51,0.14,0.57,0.56c0.02,0.15,0.03,0.31,0.03,0.46v1.84C284.54,321.65,284.55,325.33,284.54,329.03z"/>
		<path class="st0" d="M236.47,329.98c-0.93,0.09-1.52,0.66-2,1.2l-0.36,0.4l0.53,0.08c0.19,0.03,0.37,0.07,0.56,0.11
			c0.42,0.08,0.86,0.17,1.3,0.17c1.72,0.03,3.46,0.02,5.14,0l0.51-0.01c0.35,0,0.75-0.04,0.97-0.33c0.24-0.3,0.17-0.74,0.07-1.17
			l-0.04-0.18l-0.63-0.14c-0.3-0.07-0.62-0.13-0.93-0.19c-0.25-0.05-0.36-0.16-0.4-0.41c-0.02-0.13-0.04-0.26-0.04-0.39
			c-0.05-1.95-0.1-3.9-0.14-5.85c0-0.02,0.01-0.05,0.01-0.09l0.44-0.01c2.86-0.07,5.82-0.13,8.77,0.03v1.05
			c0,1.15,0.01,2.27-0.01,3.38c-0.01,0.54-0.04,1.11-0.09,1.68c-0.05,0.48-0.1,0.53-0.6,0.61c-0.26,0.04-0.52,0.08-0.78,0.11
			l-0.2,0.03c-0.49,0.07-0.8,0.38-0.85,0.85c-0.01,0.14-0.01,0.27-0.01,0.42l0,0.47l0.26,0.03c0.08,0.01,0.16,0.02,0.24,0.03
			c0.17,0.03,0.33,0.05,0.5,0.05l0.57,0.01c0.8,0.01,1.63,0.03,2.44-0.02c0.68-0.04,1.29,0.13,1.93,0.51
			c0.37,0.22,0.52,0.47,0.54,0.85c0.02,0.42,0.07,0.84,0.13,1.28c0.03,0.19,0.05,0.38,0.07,0.58l0.05,0.43l0.68-0.38
			c0.18-0.11,0.34-0.2,0.5-0.28c0.45-0.23,0.68-0.58,0.7-1.09c0.03-0.63,0.07-1.26,0.11-1.89c0.03-0.37,0.05-0.73,0.07-1.09
			c0.01-0.12-0.02-0.22-0.04-0.32l-0.07-0.34l-0.71-0.11c-0.4-0.06-0.8-0.11-1.19-0.18c-0.46-0.08-0.49-0.12-0.57-0.59
			c-0.04-0.25-0.04-0.51-0.04-0.73c0-4.12,0-8.23,0-12.35v-0.12c0-0.16,0-0.32,0.02-0.48c0.06-0.47,0.1-0.51,0.55-0.57
			c0.36-0.05,0.73-0.08,1.08-0.1l0.48-0.04l0.07-0.17c0.24-0.61,0.25-1.05,0.02-1.37c-0.22-0.3-0.6-0.4-1.18-0.38l-0.11,0.02
			c-1.72,0.21-3.59,0.22-5.7,0.02c-0.28-0.02-0.55,0.01-0.84,0.03c-0.13,0.02-0.26,0.03-0.4,0.04l-0.32,0.02l0.32,1.92l0.72-0.01
			c0.28,0,0.54-0.01,0.79,0.01c0.51,0.03,0.58,0.09,0.69,0.6c0.02,0.08,0.03,0.16,0.04,0.24l0.03,0.97
			c0.03,1.17,0.06,2.34,0.09,3.51c0,0.12-0.03,0.25-0.06,0.4c0,0.02-0.01,0.03-0.01,0.04c-3.15,0.19-6.13,0.17-9.11-0.07v-4.95
			c0-0.03,0.01-0.05,0.02-0.08l0.02-0.08c0.09-0.44,0.11-0.46,0.54-0.54c0.29-0.05,0.58-0.08,0.87-0.12l0.61-0.08l0.06-0.17
			c0.14-0.41,0.29-0.98-0.03-1.38c-0.22-0.28-0.62-0.37-1.22-0.32c-1.78,0.21-3.57,0.1-5.29-0.01c-0.33-0.02-0.66,0-0.93,0.06
			c-0.35,0.08-0.76,0.33-0.71,1.06c0.04,0.55,0.23,0.76,0.81,0.84c0.19,0.03,0.39,0.05,0.58,0.07c0.18,0.02,0.37,0.04,0.55,0.06
			c0.31,0.05,0.35,0.09,0.39,0.39c0.04,0.31,0.06,0.64,0.06,1.02c0.01,4.14,0.01,8.28,0,12.42
			C237.38,329.9,237.38,329.9,236.47,329.98z"/>
		<path class="st0" d="M193.06,329.35c-0.01,0.52-0.06,0.57-0.58,0.67c-0.06,0.02-0.13,0.01-0.19,0.03
			c-0.71-0.05-1.26,0.31-1.72,0.64l-0.35,0.26l0.23,0.24c0.49,0.52,1.07,0.76,1.84,0.76c0.02,0,0.04,0,0.06,0
			c1.44-0.03,2.89-0.03,4.34-0.02l2.82,0.01l-0.3-0.68c-0.07-0.16-0.13-0.29-0.18-0.43c-0.18-0.51-0.56-0.76-1.11-0.76
			c-0.22-0.02-0.44-0.06-0.66-0.11l-0.07-0.02c-0.43-0.11-0.43-0.11-0.44-0.55c-0.01-1.8-0.01-3.61,0-5.41c0,0,0.01,0.01,0.01,0.01
			l0.31,0.28c0.76,0.68,1.52,1.37,2.27,2.06c1.81,1.7,3.45,3.23,5.08,4.8c0.38,0.36,0.96,0.82,1.82,0.82c0.09,0,0.17-0.01,0.26-0.02
			c0.2-0.03,0.4-0.02,0.62-0.02c0.15,0.01,0.29,0.01,0.43,0.01c0.46-0.02,0.93-0.04,1.39-0.07l0.58-0.04l0.04-0.23
			c0.13-0.83,0.11-0.95-0.51-1.41l-0.28-0.2c-0.58-0.43-1.19-0.87-1.72-1.36c-1.69-1.55-3.35-3.12-5.02-4.7l-1.54-1.45
			c-0.32-0.3-0.64-0.6-0.99-0.94l0.34-0.32c0.4-0.37,0.77-0.71,1.16-1.06c1.46-1.33,2.92-2.65,4.39-3.97
			c1.03-0.93,2.01-1.33,3.14-1.21c0.09-0.02,0.2-0.03,0.28-0.06l0.31-0.12l-0.18-0.81c-0.2-0.9-0.64-1.02-1.37-0.93
			c-0.58,0.07-1.19,0.07-1.78,0.06c-0.46-0.02-0.94-0.01-1.33-0.04l-0.41-0.03l-0.09,0.14c-0.15,0.22-0.29,0.43-0.43,0.64
			c-0.26,0.41-0.51,0.79-0.81,1.1c-1.68,1.79-3.42,3.56-4.95,5.12c-0.27,0.28-0.56,0.52-0.87,0.77c-0.04,0.04-0.09,0.08-0.13,0.11
			v-0.22c0-1.71,0-3.42,0.02-5.13c0-0.29,0.05-0.38,0.41-0.46c0.13-0.03,0.26-0.04,0.4-0.06l0.13-0.01
			c0.59-0.07,0.96-0.12,1.18-0.39c0.21-0.27,0.18-0.64,0.11-1.22c-0.01-0.1-0.06-0.16-0.1-0.22l-0.15-0.24l-0.57-0.01
			c-0.34,0-0.69-0.01-1.04,0.01c-0.36,0.02-0.72,0.03-1.08,0.05c-1.31,0.07-2.67,0.14-4-0.03c-0.45-0.04-0.84,0.08-1.06,0.37
			c-0.25,0.33-0.27,0.82-0.04,1.38l0.07,0.16l0.17,0.02c0.4,0.04,0.83,0.09,1.25,0.13c0.57,0.06,0.57,0.06,0.58,0.59
			c0.02,0.64,0.04,1.28,0.04,1.91c0,2.34,0,4.68,0,7.01v3.06C193.07,328.22,193.07,328.78,193.06,329.35z"/>
		<path class="st0" d="M226.76,332.09c0.67-0.03,1.55-0.1,2.39-0.44l0.17-0.07l0.24-4.58l-0.17-0.09c-0.33-0.16-0.83-0.36-1.23-0.18
			c-0.41,0.18-0.58,0.64-0.67,0.98c-0.11,0.41-0.21,0.81-0.3,1.23l-0.1,0.43c-2.26,0.62-4.45,0.46-6.33,0.18
			c-0.16-1.89-0.16-3.87,0.01-6.05c1.37,0.01,2.74,0.01,4.1,0.02c0.13,0,0.28,0.04,0.36,0.29c0.07,0.21,0.12,0.41,0.17,0.62
			l0.47,1.92l0.36-0.29c0.11-0.09,0.22-0.15,0.34-0.22c0.33-0.19,0.75-0.42,0.74-1.03c-0.01-1.62-0.01-3.23-0.02-4.85
			c0-0.26-0.09-0.61-0.53-0.82c-0.16-0.08-0.32-0.15-0.5-0.22l-0.54-0.23l-0.16,0.93c-0.06,0.37-0.12,0.73-0.2,1.08
			c-0.08,0.4-0.08,0.4-0.5,0.42c-0.65,0.05-1.3,0.05-1.95,0.06c-0.7,0.02-1.44,0.03-2.16-0.08v-5.63c2.18-0.37,4.12-0.28,5.91,0.28
			l0.32,2.44l1.76-0.16l0.08-0.74c0.03-0.32,0.04-0.63,0.06-0.94c0.02-0.59,0.04-1.15,0.19-1.7c0.07-0.26,0.02-0.52-0.02-0.75
			l-0.02-0.14c-0.07-0.5-0.41-0.78-0.93-0.78c-1.44,0.02-2.88,0.03-4.32,0.03c-0.24,0-0.47,0-0.72,0c-0.65,0-1.31,0.04-1.95,0.08
			c-1.16,0.07-2.35,0.13-3.52-0.03c-0.32-0.04-0.67-0.09-1.03-0.1c-0.59,0.01-1.36,0.02-2.11,0.32l-0.25,0.1l0.08,0.26
			c0.38,1.2,0.47,1.29,1.62,1.51c0.1,0.02,0.2,0.04,0.29,0.05l0.14,0.03c0.41,0.08,0.41,0.08,0.45,0.46l0.03,0.28
			c0.08,0.85,0.17,1.74,0.18,2.61c0.03,2.57,0.03,5.34,0,8.48c-0.01,0.77-0.09,1.56-0.18,2.39c-0.04,0.38-0.04,0.38-0.47,0.48
			c-0.31,0.07-0.61,0.15-0.91,0.22l-0.65,0.16l-0.01,0.22c-0.02,0.49,0.02,0.86,0.26,1.11c0.23,0.24,0.58,0.29,1.04,0.3
			c1.54,0.02,3.09,0.05,4.63,0.08l3.51,0.06c0.5,0.01,1.01,0.02,1.53,0.02C226.07,332.1,226.41,332.1,226.76,332.09z"/>
		<path class="st0" d="M273.73,315.77l0.18,2.46l1.76-0.21l0.66-4.66l-0.27-0.06c-0.16-0.04-0.32-0.08-0.46-0.11
			c-0.33-0.09-0.65-0.17-0.98-0.18c-1.94-0.04-3.51-0.01-4.93,0.04l-0.7,0.03c-1.6,0.06-3.26,0.13-4.88-0.09
			c-0.58-0.07-1.14-0.01-1.68,0.05l-0.1,0.01c-0.56,0.07-0.92,0.46-0.91,1c0.01,0.49,0.27,0.79,0.81,0.94
			c0.07,0.02,0.14,0.04,0.22,0.07c0.24,0.07,0.48,0.15,0.75,0.15c0.03-0.01,0.06,0,0.1,0c0.47,0,0.49,0.11,0.62,0.65l0.03,0.13
			c0.02,0.1,0.02,0.22,0.02,0.34l0,0.17l0.02,11.78c0,0.26,0,0.51-0.02,0.76c-0.05,0.71-0.21,0.89-0.91,1.02
			c-0.27,0.05-0.54,0.11-0.8,0.17l-0.29,0.06l-0.02,0.22c-0.04,0.43-0.03,0.86,0.23,1.15c0.24,0.25,0.6,0.29,0.93,0.29
			c0.01,0,0.02,0,0.03,0l1.74-0.01c0.58,0,1.16,0,1.74,0c1.4-0.01,2.81,0,4.22,0.04c0.35,0.01,0.69,0.03,1.04,0.06
			c0.44,0.03,0.89,0.06,1.34,0.06c1-0.02,1.95-0.11,2.83-0.34l0.2-0.05l0.02-0.21c0.03-0.35,0.06-0.7,0.09-1.04
			c0.07-0.87,0.14-1.69,0.26-2.51c0.06-0.44,0.05-1.06-0.74-1.37l-0.1-0.04l-0.1,0.04c-0.7,0.25-1.11,0.77-1.23,1.57
			c-0.02,0.18-0.06,0.35-0.1,0.52c-0.03,0.13-0.06,0.25-0.08,0.37c-0.06,0.34-0.22,0.47-0.56,0.51l-0.21,0.03
			c-1.24,0.14-2.54,0.3-3.79,0.19c-0.54-0.05-1.08-0.11-1.61-0.17l-0.33-0.04c-0.22-1.46-0.14-5.04,0.08-6.03h0.91
			c0.95,0,1.89-0.01,2.84,0.01c0.7,0.01,0.77,0.07,0.83,0.77c0.03,0.29,0.04,0.57,0.05,0.85l0.03,0.59h1.92l0-0.29
			c0-0.8,0-1.59,0-2.37c0-1.23,0-2.45-0.02-3.67l-0.01-0.29h-1.77l-0.1,0.67c-0.04,0.32-0.09,0.62-0.15,0.92
			c-0.09,0.4-0.16,0.41-0.43,0.42c-1.14,0.03-2.28,0.05-3.42,0.05c-0.22,0-0.46-0.04-0.71-0.07l-0.06-0.01v-5.62
			C270.13,315.13,271.99,315.21,273.73,315.77z"/>
		<path class="st0" d="M320.21,369.65c-7.77,1.46-14.6,4.88-20.56,10.05c-0.1,0.09-0.17,0.21-0.34,0.43c0.39-0.09,0.64-0.14,0.9-0.2
			c3.59-0.82,7.18-1.7,10.79-2.44c3.36-0.68,6.76-1.09,10.2-1.06c2.41,0.02,4.78,0.3,7.06,1.15c0.21,0.08,0.41,0.19,0.73,0.35
			c-0.38,0.18-0.63,0.32-0.89,0.43c-2.81,1.28-5.71,2.32-8.69,3.15c-6.07,1.69-12.28,2.46-18.55,2.86c-1.13,0.07-2.26,0.13-3.39,0.2
			c-0.01,0.05-0.02,0.09-0.03,0.14c0.14,0.06,0.27,0.13,0.41,0.19c5.62,2.09,11.4,3.41,17.41,3.6c6.48,0.2,12.69-1,18.63-3.57
			c5.82-2.52,10.92-6.14,15.57-10.41c0.15-0.14,0.28-0.3,0.49-0.53c-1.25-0.54-2.41-1.09-3.61-1.56
			C337.88,369.07,329.18,367.97,320.21,369.65z"/>
		<path class="st0" d="M374.4,336.72c-5.13,0.02-10.12,0.88-14.97,2.56c-10,3.47-17.74,9.75-23.14,18.87
			c-0.13,0.22-0.23,0.44-0.35,0.66c0.03,0.02,0.05,0.05,0.08,0.07c0.21-0.14,0.43-0.27,0.64-0.41c1.89-1.25,3.73-2.57,5.67-3.75
			c5.78-3.53,11.95-6.1,18.57-7.61c0.95-0.22,1.84-0.06,2.86,0.16c-0.27,0.26-0.46,0.44-0.65,0.61
			c-4.98,4.46-10.56,8.04-16.55,10.97c-3.17,1.55-6.43,2.92-9.73,4.16c-0.19,0.07-0.37,0.19-0.7,0.35
			c20.76,2.39,39.15-10.4,45.53-26.33c-0.27-0.04-0.52-0.11-0.77-0.12C378.71,336.84,376.55,336.72,374.4,336.72z"/>
		<path class="st0" d="M336.67,144.34c3.43,9.45,9.37,16.89,17.97,22.16c0.24,0.14,0.48,0.27,0.73,0.4
			c0.03-0.03,0.05-0.06,0.08-0.08c-0.09-0.17-0.18-0.35-0.28-0.52c-0.5-0.78-0.99-1.55-1.5-2.33c-2.91-4.48-5.43-9.16-7.28-14.18
			c-0.93-2.53-1.72-5.09-2.22-7.74c-0.14-0.77-0.17-1.55,0.16-2.38c0.19,0.16,0.34,0.26,0.45,0.39c1.16,1.33,2.41,2.59,3.46,4.01
			c5.23,7.07,9.22,14.79,11.88,23.18c0.08,0.25,0.18,0.5,0.27,0.74c0.71-7.96-0.19-15.67-3.19-23.07
			c-2.92-7.19-7.49-13.16-13.5-18.04c-3-2.44-8.11-5.67-9.4-5.92c-0.05,0.34-0.11,0.67-0.14,1.01c-0.24,2.73-0.35,5.46-0.23,8.21
			C334.15,135.05,335.01,139.77,336.67,144.34z"/>
		<path class="st0" d="M375.92,202.95c0.25,0.3,0.52,0.58,0.78,0.87c-0.06-0.78-0.25-1.48-0.45-2.18
			c-2.15-7.42-3.21-14.98-2.86-22.72c0.07-1.45,0.23-2.89,0.89-4.22c0.09-0.17,0.21-0.32,0.37-0.55c0.17,0.32,0.31,0.55,0.42,0.78
			c1.76,3.71,3.12,7.56,3.81,11.61c0.85,4.98,1.51,10,2.24,15c0.18,1.24,0.34,2.48,0.52,3.72c0.05,0,0.11,0,0.16,0
			c0.04-0.09,0.09-0.18,0.13-0.28c1.94-5.39,3.13-10.93,3.31-16.67c0.15-4.73-0.39-9.36-1.7-13.91
			c-2.12-7.34-5.94-13.69-11.17-19.22c-0.5-0.53-1.04-1.04-1.63-1.62c-0.16,0.31-0.28,0.53-0.39,0.76c-3.22,6.82-4.7,14-4.5,21.53
			c0.09,3.38,0.53,6.72,1.36,10C368.8,192.21,371.64,197.94,375.92,202.95z"/>
		<path class="st0" d="M385.4,264.56c-0.23,0.48-0.42,0.94-0.42,1.5c0.02,4.11,0.01,8.23,0.01,12.34c0,0.19,0.04,0.39,0.08,0.77
			c0.2-0.41,0.31-0.64,0.43-0.87c0.82-1.62,1.6-3.27,2.46-4.86c1.57-2.91,3.36-5.67,5.66-8.07c0.93-0.97,1.92-1.87,3.1-2.61
			c-1.41,8.43-4.81,16.09-9.15,23.41c0.18,0.05,0.25,0.09,0.32,0.09c1.27,0.01,2.53,0.03,3.8-0.01c0.26-0.01,0.55-0.17,0.75-0.35
			c0.64-0.59,1.27-1.2,1.85-1.84c8.53-9.35,12.7-20.35,12.38-33.02c-0.06-2.35-0.38-4.67-0.88-6.97c-0.04-0.17-0.12-0.33-0.2-0.52
			c-0.25,0.14-0.46,0.24-0.67,0.36c-2.46,1.44-4.81,3.05-7.02,4.85C392.58,253.11,388.36,258.33,385.4,264.56z"/>
		<path class="st0" d="M397.01,301.69c-5.04,0-10.07-0.01-15.11,0.01c-0.34,0-0.73,0.13-1.03,0.31c-3.57,2.18-6.68,4.87-9.25,8.18
			c-3.74,4.8-5.93,10.29-7.26,16.17c-0.02,0.1,0.01,0.22,0.02,0.47c0.29-0.31,0.48-0.52,0.67-0.73c3.16-3.65,6.35-7.27,9.83-10.62
			c1.84-1.78,3.76-3.47,5.87-4.92c1.64-1.12,3.37-2.06,5.29-2.63c0.24-0.07,0.49-0.11,0.75-0.17c0,0.14,0.02,0.2,0,0.25
			c-0.09,0.19-0.19,0.38-0.29,0.56c-1.83,3.19-3.95,6.17-6.3,9c-3.79,4.56-8.12,8.57-12.67,12.34c-0.47,0.39-0.93,0.77-1.48,1.22
			c0.45,0.2,0.84,0.12,1.19,0.04c1.4-0.36,2.82-0.67,4.18-1.15c3.67-1.3,7.05-3.19,10.32-5.29c4.36-2.81,8.02-6.33,10.91-10.64
			c2.46-3.67,3.88-7.76,4.89-12.02c0.02-0.09-0.01-0.2-0.03-0.31C397.32,301.72,397.16,301.69,397.01,301.69z"/>
		<path class="st0" d="M281.24,379.19c0.21-0.24,0.36-0.41,0.51-0.59c2.42-2.86,4.95-5.62,7.7-8.16c2.41-2.22,4.93-4.3,7.76-5.97
			c1.48-0.87,3.02-1.61,4.71-2.01c0.32-0.08,0.65-0.11,1.12-0.19c-0.22,0.4-0.34,0.65-0.49,0.89c-1.98,3.29-4.36,6.27-7.04,9.02
			c-2.92,2.99-6.12,5.64-9.42,8.19c-0.13,0.1-0.25,0.22-0.37,0.33c0.28,0.04,0.51,0,0.73-0.06c1.11-0.33,2.23-0.64,3.32-1.02
			c7.15-2.48,13.16-6.59,17.91-12.5c3.86-4.79,6.47-10.22,8.25-16.08c0.2-0.67,0.38-1.36,0.59-2.08c-0.91-0.1-1.71,0.08-2.5,0.22
			c-3.85,0.64-7.49,1.93-11.02,3.56c-5.76,2.66-10.8,6.24-14.6,11.42c-2.46,3.35-4.71,6.81-6.22,10.7
			c-0.44,1.12-0.67,2.32-0.98,3.49C281.12,378.58,281.06,378.87,281.24,379.19z"/>
		<path class="st0" d="M329.87,352.42c-1.84,3.35-3.8,6.63-5.71,9.94c-0.22,0.38-0.44,0.76-0.66,1.14c0.06,0.05,0.11,0.09,0.17,0.14
			c7.34-4.27,12.79-10.28,16.29-18.03c3.17-7.01,4.29-14.36,3.59-22.15c-4.99,2.29-9.32,5.26-13.05,9.1
			c-3.76,3.87-6.56,8.36-8.54,13.37c-2.17,5.48-3.26,13.25-2.9,15.48c0.12-0.21,0.23-0.38,0.33-0.57c1.32-2.49,2.62-4.99,3.96-7.47
			c1.48-2.73,3.04-5.43,4.92-7.92c1.37-1.8,2.98-3.34,4.91-4.54c0.23-0.14,0.47-0.27,0.83-0.46c-0.06,0.39-0.08,0.63-0.12,0.85
			C333.15,345.24,331.78,348.94,329.87,352.42z"/>
		<path class="st0" d="M364.5,203.87c2.37,1.86,4.48,4,6.46,6.27c2.04,2.35,4.01,4.75,6.01,7.13c0.19,0.22,0.3,0.56,0.76,0.61
			c-0.09-0.49-0.16-0.93-0.26-1.36c-1.78-7.92-5.64-14.65-11.57-20.18c-4.78-4.46-10.37-7.55-16.56-9.58
			c-1.12-0.37-2.26-0.68-3.42-1.03c-0.07,0.18-0.1,0.23-0.1,0.28c0.01,0.16,0.01,0.32,0.04,0.47c0.61,3.62,1.51,7.16,2.83,10.59
			c3.41,8.81,9.1,15.71,17.29,20.5c0.4,0.23,0.79,0.37,1.26,0.36c1-0.03,2-0.01,3-0.01c0.17,0,0.33-0.05,0.6-0.09
			c-0.3-0.31-0.52-0.53-0.73-0.76c-1.73-1.88-3.51-3.71-5.17-5.66c-2.52-2.97-4.54-6.27-5.91-9.94c-0.08-0.2-0.12-0.42-0.2-0.71
			c0.26,0.07,0.41,0.11,0.55,0.16C361.27,201.6,362.94,202.65,364.5,203.87z"/>
		<path class="st0" d="M300.91,111.82c1.24,5.09,3.24,9.85,6.28,14.15c4.57,6.47,10.75,10.83,18.06,13.7
			c0.58,0.23,1.21,0.29,1.82,0.43c0.03-0.06,0.06-0.13,0.09-0.19c-0.52-0.95-1.27-1.73-2.04-2.48c-2.07-2.03-4.09-4.11-5.93-6.36
			c-2.26-2.76-4.22-5.72-5.7-8.98c-0.37-0.82-0.59-1.67-0.73-2.56c0.11,0,0.17-0.02,0.21,0c0.18,0.1,0.36,0.21,0.54,0.33
			c3.43,2.27,6.45,5,9.23,8.02c2.61,2.83,4.97,5.87,7.29,8.95c0.17,0.22,0.34,0.43,0.51,0.65c0.05-0.03,0.1-0.06,0.15-0.09
			c-0.86-4.67-2.46-9.06-4.89-13.15c-3.7-6.23-8.77-11.02-15.16-14.4c-3.45-1.83-7.09-3.13-10.99-3.91
			c0.13,0.56,0.24,0.99,0.33,1.42C300.28,108.83,300.55,110.34,300.91,111.82z"/>
		<path class="st0" d="M353.48,335.52c-0.06,0.18-0.1,0.38-0.15,0.56c4.06-4.13,6.92-8.96,8.73-14.41
			c2.15-6.49,2.66-13.13,1.6-19.91c-0.22-0.03-0.4-0.07-0.58-0.07c-3.43,0-6.85,0.01-10.28-0.02c-0.49,0-0.7,0.22-0.91,0.59
			c-3,5.53-4.75,11.42-5.07,17.71c-0.25,4.84,0.41,9.57,2.02,14.15c0.06,0.18,0.15,0.35,0.29,0.66c0.07-0.45,0.13-0.73,0.15-1.02
			c0.27-3.07,0.7-6.12,1.32-9.15c0.62-3.02,1.4-6,2.65-8.84c0.66-1.5,1.44-2.94,2.53-4.17c0.25-0.29,0.55-0.54,0.92-0.89
			c0.23,1.33,0.58,2.51,0.52,3.72c-0.13,2.42-0.24,4.85-0.53,7.25C356.11,326.4,354.98,331,353.48,335.52z"/>
		<path class="st0" d="M312.7,139.31c-6.35-1.37-12.64-1.08-18.93,0.95c0.25,0.33,0.41,0.56,0.59,0.79c1.5,1.87,3.12,3.64,4.91,5.25
			c4.14,3.71,8.83,6.48,14.17,8.07c2.69,0.8,5.47,1.12,8.26,1.29c2.4,0.15,4.8,0.11,7.17-0.27c0.77-0.12,1.56-0.23,2.36-0.72
			c-0.97-0.24-1.83-0.48-2.7-0.67c-5.22-1.19-10.18-3.1-14.99-5.41c-1.16-0.56-2.24-1.26-3.18-2.22c7.05-0.4,13.78,1.23,20.47,3.19
			C325.84,144.27,319.78,140.85,312.7,139.31z"/>
		<path class="st0" d="M277,126.98c6.43,5.5,13.84,8.23,22.33,7.83c1.31-0.06,2.61-0.27,3.91-0.41c-0.19-0.22-0.38-0.29-0.58-0.34
			c-0.72-0.17-1.44-0.32-2.15-0.5c-3.61-0.94-7.11-2.17-10.35-4.04c-1.38-0.79-2.69-1.67-3.74-2.89c-0.18-0.21-0.33-0.44-0.56-0.76
			c0.25,0,0.35,0,0.45,0c2.7,0.08,5.34,0.55,7.94,1.28c3.28,0.92,6.41,2.25,9.51,3.66c0.17,0.08,0.35,0.12,0.7,0.24
			c-0.28-0.37-0.42-0.59-0.6-0.78c-1.17-1.25-2.27-2.57-3.52-3.74c-4.51-4.21-9.83-6.87-15.93-7.87c-3.83-0.63-7.67-0.51-11.49,0.09
			c-0.82,0.13-1.66,0.27-2.48,0.76c0.15,0.24,0.26,0.43,0.38,0.6C272.61,122.66,274.64,124.97,277,126.98z"/>
		<path class="st0" d="M391.49,217.87c0.26-0.41,0.52-0.82,0.85-1.34c0.23,0.51,0.4,0.91,0.58,1.33c2.93,0,5.84,0,8.8,0
			c0.2-3.97-0.49-7.75-1.69-11.46c-1.19-3.68-2.81-7.17-4.75-10.62c-6.01,6.35-10.12,13.57-12.14,22.09
			C386,217.87,388.74,217.87,391.49,217.87z"/>
		<path class="st0" d="M293.18,389.12c-4.96-2.07-11.68-2.42-14.92-1.74c0.36,0.12,0.63,0.21,0.9,0.31
			c2.15,0.78,4.32,1.52,6.45,2.36c2.21,0.87,4.28,2.05,6.15,3.52c0.21,0.17,0.4,0.36,0.63,0.57c-0.17,0.1-0.23,0.15-0.31,0.17
			c-0.97,0.31-1.92,0.2-2.87-0.13c-3.04-1.05-6.08-2.08-9.12-3.11c-0.26-0.09-0.53-0.17-0.87-0.27c1.07,2.43,6.66,6.33,11.23,7.9
			c4.45,1.53,12.66,1.77,15.22,0.4C302.35,394.71,298.31,391.25,293.18,389.12z"/>
		<path class="st0" d="M283.66,112.58c2.46,1.82,5.12,3.24,8.11,3.96c0.85,0.21,1.72,0.35,2.78,0.35c-0.34-0.26-0.54-0.43-0.74-0.57
			c-1.08-0.76-2.17-1.5-3.23-2.28c-2.08-1.52-3.95-3.25-5.4-5.39c-0.15-0.22-0.36-0.42-0.38-0.73c0.11-0.01,0.16-0.03,0.21-0.01
			c0.23,0.07,0.45,0.15,0.67,0.23c2.95,1.12,5.69,2.63,8.19,4.56c0.69,0.53,1.44,0.95,2.44,1.32c-0.19-0.33-0.28-0.49-0.37-0.65
			c-1.37-2.18-3-4.13-4.86-5.91c-2.69-2.57-5.71-4.67-9.16-6.09c-2.29-0.94-4.66-1.52-7.16-1.36c-0.16,0.01-0.32,0.07-0.6,0.14
			c0.42,1,0.74,1.95,1.19,2.84C277.29,106.91,280.18,110.01,283.66,112.58z"/>
		<path class="st0" d="M202.56,384.71c-0.01-0.05-0.02-0.09-0.03-0.14c-1.13-0.07-2.26-0.13-3.39-0.2
			c-6.27-0.4-12.48-1.18-18.55-2.86c-2.98-0.83-5.87-1.87-8.69-3.15c-0.26-0.12-0.51-0.25-0.89-0.43c0.32-0.16,0.52-0.27,0.73-0.35
			c2.28-0.85,4.65-1.12,7.06-1.15c3.44-0.03,6.85,0.38,10.2,1.06c3.61,0.74,7.19,1.62,10.79,2.44c0.25,0.06,0.51,0.11,0.9,0.2
			c-0.17-0.22-0.24-0.34-0.34-0.43c-5.97-5.17-12.79-8.59-20.56-10.05c-8.98-1.69-17.68-0.58-26.13,2.76
			c-1.19,0.47-2.36,1.02-3.61,1.56c0.21,0.23,0.34,0.39,0.49,0.53c4.65,4.28,9.75,7.89,15.57,10.41c5.94,2.58,12.15,3.77,18.63,3.57
			c6.02-0.18,11.79-1.51,17.41-3.6C202.29,384.84,202.43,384.77,202.56,384.71z"/>
		<path class="st0" d="M163.89,363.37c-0.33-0.17-0.51-0.28-0.7-0.35c-3.31-1.24-6.56-2.61-9.73-4.16
			c-6-2.93-11.57-6.51-16.55-10.97c-0.19-0.17-0.38-0.35-0.65-0.61c1.01-0.22,1.91-0.38,2.86-0.16c6.61,1.51,12.79,4.08,18.57,7.61
			c1.93,1.18,3.78,2.5,5.67,3.75c0.21,0.14,0.42,0.27,0.64,0.41c0.03-0.02,0.05-0.05,0.08-0.07c-0.12-0.22-0.22-0.45-0.35-0.66
			c-5.4-9.12-13.13-15.4-23.14-18.87c-4.84-1.68-9.84-2.54-14.97-2.56c-2.16-0.01-4.31,0.12-6.47,0.2c-0.25,0.01-0.5,0.08-0.77,0.12
			C124.74,352.98,143.13,365.76,163.89,363.37z"/>
		<path class="st0" d="M139.88,167.26c2.66-8.39,6.65-16.11,11.88-23.18c1.05-1.41,2.3-2.68,3.46-4.01
			c0.12-0.13,0.27-0.23,0.45-0.39c0.33,0.82,0.3,1.61,0.16,2.38c-0.49,2.65-1.29,5.22-2.22,7.74c-1.85,5.02-4.37,9.7-7.28,14.18
			c-0.5,0.77-1,1.55-1.5,2.33c-0.11,0.17-0.19,0.35-0.28,0.52c0.03,0.03,0.05,0.06,0.08,0.08c0.24-0.13,0.49-0.26,0.73-0.4
			c8.6-5.27,14.54-12.71,17.97-22.16c1.66-4.57,2.52-9.29,2.75-14.15c0.13-2.75,0.01-5.48-0.23-8.21c-0.03-0.34-0.1-0.67-0.14-1.01
			c-1.29,0.24-6.4,3.48-9.4,5.92c-6.01,4.88-10.58,10.85-13.5,18.04c-3.01,7.4-3.91,15.1-3.19,23.07
			C139.7,167.75,139.8,167.51,139.88,167.26z"/>
		<path class="st0" d="M118.2,205.26c0.05,0,0.11,0,0.16,0c0.17-1.24,0.33-2.48,0.52-3.72c0.74-5,1.4-10.02,2.24-15
			c0.69-4.04,2.05-7.9,3.81-11.61c0.11-0.23,0.24-0.46,0.42-0.78c0.16,0.23,0.28,0.38,0.37,0.55c0.66,1.33,0.83,2.77,0.89,4.22
			c0.35,7.74-0.7,15.29-2.86,22.72c-0.2,0.7-0.39,1.4-0.45,2.18c0.26-0.29,0.53-0.57,0.78-0.87c4.27-5,7.12-10.73,8.72-17.1
			c0.83-3.28,1.27-6.62,1.36-10c0.19-7.53-1.28-14.71-4.5-21.53c-0.11-0.23-0.23-0.45-0.39-0.76c-0.59,0.59-1.12,1.09-1.63,1.62
			c-5.24,5.53-9.06,11.88-11.17,19.22c-1.31,4.54-1.85,9.18-1.7,13.91c0.18,5.74,1.37,11.28,3.31,16.67
			C118.11,205.07,118.16,205.16,118.2,205.26z"/>
		<path class="st0" d="M107.57,285.9c0.2,0.18,0.49,0.34,0.75,0.35c1.26,0.03,2.53,0.01,3.8,0.01c0.07,0,0.14-0.04,0.32-0.09
			c-4.35-7.32-7.74-14.98-9.15-23.41c1.18,0.74,2.17,1.64,3.1,2.61c2.29,2.4,4.08,5.16,5.66,8.07c0.86,1.6,1.65,3.24,2.46,4.86
			c0.12,0.23,0.23,0.46,0.43,0.87c0.04-0.39,0.08-0.58,0.08-0.77c0-4.11-0.01-8.23,0.01-12.34c0-0.56-0.19-1.03-0.42-1.5
			c-2.96-6.23-7.18-11.45-12.51-15.8c-2.21-1.81-4.56-3.41-7.02-4.85c-0.2-0.12-0.41-0.22-0.67-0.36c-0.07,0.2-0.16,0.35-0.2,0.52
			c-0.5,2.3-0.82,4.62-0.88,6.97c-0.32,12.67,3.84,23.67,12.38,33.02C106.3,284.7,106.93,285.31,107.57,285.9z"/>
		<path class="st0" d="M132.77,331.14c0.35,0.09,0.74,0.17,1.19-0.04c-0.54-0.45-1.01-0.83-1.48-1.22
			c-4.56-3.77-8.88-7.79-12.67-12.34c-2.35-2.82-4.47-5.81-6.3-9c-0.1-0.18-0.2-0.37-0.29-0.56c-0.02-0.04,0-0.1,0-0.25
			c0.26,0.06,0.51,0.1,0.75,0.17c1.92,0.57,3.65,1.51,5.29,2.63c2.12,1.45,4.03,3.14,5.87,4.92c3.48,3.35,6.67,6.97,9.83,10.62
			c0.19,0.22,0.38,0.42,0.67,0.73c0.01-0.24,0.04-0.36,0.02-0.47c-1.33-5.88-3.52-11.37-7.26-16.17c-2.58-3.3-5.68-6-9.25-8.18
			c-0.3-0.18-0.68-0.31-1.03-0.31c-5.04-0.02-10.07-0.01-15.11-0.01c-0.16,0-0.31,0.03-0.5,0.04c-0.01,0.11-0.05,0.22-0.03,0.31
			c1.01,4.26,2.43,8.35,4.89,12.02c2.89,4.31,6.55,7.83,10.91,10.64c3.27,2.1,6.65,3.99,10.32,5.29
			C129.95,330.47,131.37,330.79,132.77,331.14z"/>
		<path class="st0" d="M183.49,348.95c0.2,0.73,0.38,1.41,0.59,2.08c1.78,5.86,4.39,11.29,8.25,16.08
			c4.76,5.91,10.77,10.02,17.91,12.5c1.09,0.38,2.21,0.69,3.32,1.02c0.22,0.07,0.45,0.1,0.73,0.06c-0.12-0.11-0.24-0.23-0.37-0.33
			c-3.3-2.55-6.51-5.2-9.42-8.19c-2.68-2.74-5.06-5.72-7.04-9.02c-0.15-0.24-0.27-0.5-0.49-0.89c0.47,0.08,0.8,0.12,1.12,0.19
			c1.68,0.4,3.23,1.14,4.71,2.01c2.83,1.67,5.35,3.74,7.76,5.97c2.75,2.54,5.28,5.3,7.7,8.16c0.15,0.18,0.31,0.35,0.51,0.59
			c0.18-0.32,0.12-0.6,0.05-0.86c-0.31-1.17-0.55-2.37-0.98-3.49c-1.51-3.89-3.76-7.35-6.22-10.7c-3.8-5.18-8.84-8.76-14.6-11.42
			c-3.53-1.63-7.18-2.91-11.02-3.56C185.19,349.03,184.39,348.85,183.49,348.95z"/>
		<path class="st0" d="M171.74,345.46c1.88,2.49,3.44,5.18,4.92,7.92c1.35,2.48,2.64,4.98,3.96,7.47c0.1,0.18,0.21,0.36,0.33,0.57
			c0.36-2.23-0.73-10-2.9-15.48c-1.99-5.01-4.78-9.5-8.54-13.37c-3.73-3.84-8.07-6.81-13.05-9.1c-0.71,7.78,0.42,15.14,3.59,22.15
			c3.5,7.75,8.95,13.76,16.29,18.03c0.06-0.05,0.11-0.09,0.17-0.14c-0.22-0.38-0.44-0.76-0.66-1.14c-1.91-3.31-3.87-6.59-5.71-9.94
			c-1.92-3.48-3.29-7.18-4.01-11.11c-0.04-0.23-0.07-0.46-0.12-0.85c0.36,0.2,0.6,0.32,0.83,0.46
			C168.76,342.12,170.37,343.66,171.74,345.46z"/>
		<path class="st0" d="M135.05,211.4c-1.65,1.95-3.44,3.78-5.17,5.66c-0.21,0.23-0.44,0.45-0.73,0.76c0.27,0.04,0.44,0.09,0.6,0.09
			c1,0.01,2-0.02,3,0.01c0.47,0.01,0.86-0.12,1.26-0.36c8.18-4.79,13.88-11.68,17.29-20.5c1.33-3.43,2.22-6.97,2.83-10.59
			c0.03-0.16,0.03-0.31,0.04-0.47c0-0.05-0.03-0.09-0.1-0.28c-1.16,0.35-2.3,0.66-3.42,1.03c-6.19,2.04-11.77,5.13-16.56,9.58
			c-5.94,5.53-9.79,12.27-11.57,20.18c-0.1,0.43-0.16,0.87-0.26,1.36c0.46-0.05,0.57-0.38,0.76-0.61c2.01-2.37,3.97-4.78,6.01-7.13
			c1.97-2.27,4.08-4.41,6.46-6.27c1.56-1.23,3.23-2.28,5.1-2.96c0.14-0.05,0.3-0.09,0.55-0.16c-0.08,0.29-0.13,0.5-0.2,0.71
			C139.59,205.13,137.57,208.42,135.05,211.4z"/>
		<path class="st0" d="M169.99,136.83c2.32-3.07,4.67-6.11,7.29-8.95c2.78-3.01,5.8-5.75,9.23-8.02c0.18-0.12,0.36-0.23,0.54-0.33
			c0.04-0.02,0.1,0,0.21,0c-0.14,0.89-0.36,1.74-0.73,2.56c-1.48,3.26-3.44,6.22-5.7,8.98c-1.84,2.25-3.85,4.33-5.93,6.36
			c-0.77,0.75-1.52,1.53-2.04,2.48c0.03,0.06,0.06,0.13,0.09,0.19c0.61-0.14,1.25-0.21,1.82-0.43c7.31-2.86,13.49-7.23,18.06-13.7
			c3.03-4.29,5.04-9.06,6.28-14.15c0.36-1.48,0.63-2.99,0.94-4.48c0.09-0.43,0.2-0.87,0.33-1.42c-3.9,0.78-7.54,2.08-10.99,3.91
			c-6.39,3.39-11.47,8.18-15.16,14.4c-2.43,4.09-4.03,8.49-4.89,13.15c0.05,0.03,0.1,0.06,0.15,0.09
			C169.64,137.26,169.82,137.05,169.99,136.83z"/>
		<path class="st0" d="M144.23,311.61c1.09,1.24,1.87,2.67,2.53,4.17c1.24,2.84,2.03,5.82,2.64,8.84c0.62,3.02,1.05,6.07,1.32,9.15
			c0.03,0.29,0.08,0.57,0.15,1.02c0.14-0.32,0.23-0.49,0.29-0.66c1.61-4.58,2.26-9.31,2.02-14.15c-0.32-6.29-2.07-12.18-5.07-17.71
			c-0.2-0.38-0.42-0.6-0.91-0.59c-3.43,0.02-6.85,0.01-10.28,0.02c-0.18,0-0.36,0.04-0.58,0.07c-1.06,6.78-0.56,13.42,1.6,19.91
			c1.81,5.45,4.67,10.28,8.73,14.41c-0.05-0.19-0.09-0.38-0.15-0.56c-1.5-4.51-2.63-9.11-3.2-13.83c-0.29-2.4-0.4-4.83-0.53-7.25
			c-0.06-1.21,0.28-2.38,0.52-3.72C143.68,311.08,143.97,311.33,144.23,311.61z"/>
		<path class="st0" d="M171.46,153.99c-0.87,0.2-1.72,0.43-2.7,0.67c0.8,0.49,1.59,0.59,2.36,0.72c2.38,0.38,4.77,0.42,7.17,0.27
			c2.79-0.17,5.57-0.49,8.26-1.29c5.34-1.59,10.03-4.36,14.17-8.07c1.79-1.61,3.41-3.37,4.91-5.25c0.18-0.22,0.34-0.46,0.59-0.79
			c-6.29-2.03-12.57-2.32-18.93-0.95c-7.09,1.53-13.14,4.96-18.15,10.23c6.69-1.96,13.42-3.59,20.47-3.19
			c-0.93,0.97-2.01,1.66-3.18,2.22C181.63,150.89,176.67,152.8,171.46,153.99z"/>
		<path class="st0" d="M215.58,118.67c-6.1,1.01-11.41,3.66-15.93,7.87c-1.25,1.17-2.36,2.48-3.52,3.74
			c-0.18,0.19-0.32,0.41-0.6,0.78c0.35-0.12,0.53-0.17,0.7-0.24c3.1-1.41,6.22-2.73,9.51-3.66c2.6-0.73,5.24-1.19,7.94-1.28
			c0.1,0,0.2,0,0.45,0c-0.23,0.31-0.38,0.55-0.56,0.76c-1.05,1.21-2.36,2.1-3.74,2.89c-3.25,1.86-6.74,3.1-10.35,4.04
			c-0.71,0.19-1.44,0.33-2.15,0.5c-0.2,0.05-0.39,0.12-0.58,0.34c1.3,0.14,2.61,0.35,3.92,0.41c8.49,0.4,15.9-2.34,22.33-7.83
			c2.36-2.01,4.4-4.32,6.17-6.86c0.12-0.17,0.22-0.35,0.38-0.6c-0.82-0.5-1.66-0.63-2.48-0.76
			C223.25,118.16,219.41,118.04,215.58,118.67z"/>
		<path class="st0" d="M107.66,216.53c0.33,0.52,0.59,0.93,0.85,1.34c2.76,0,5.49,0,8.34,0c-2.02-8.52-6.13-15.74-12.14-22.09
			c-1.94,3.46-3.56,6.95-4.75,10.62c-1.2,3.7-1.89,7.49-1.69,11.46c2.97,0,5.88,0,8.8,0C107.26,217.44,107.43,217.04,107.66,216.53z
			"/>
		<path class="st0" d="M206.82,389.12c-5.13,2.14-9.16,5.59-12.5,9.98c2.55,1.37,10.77,1.13,15.22-0.4
			c4.57-1.57,10.17-5.47,11.23-7.9c-0.33,0.1-0.6,0.18-0.87,0.27c-3.04,1.04-6.08,2.07-9.12,3.11c-0.95,0.33-1.9,0.44-2.87,0.13
			c-0.07-0.02-0.13-0.07-0.31-0.17c0.23-0.21,0.42-0.4,0.63-0.57c1.88-1.48,3.94-2.65,6.15-3.52c2.13-0.84,4.3-1.58,6.45-2.36
			c0.27-0.1,0.54-0.19,0.9-0.31C218.5,386.69,211.77,387.05,206.82,389.12z"/>
		<path class="st0" d="M214.33,108.15c0.22-0.08,0.45-0.16,0.67-0.23c0.04-0.01,0.1,0,0.21,0.01c-0.02,0.3-0.23,0.51-0.38,0.73
			c-1.45,2.14-3.32,3.87-5.4,5.39c-1.06,0.78-2.16,1.52-3.23,2.28c-0.21,0.15-0.4,0.31-0.75,0.57c1.06,0,1.92-0.15,2.78-0.35
			c3-0.72,5.66-2.14,8.11-3.96c3.48-2.58,6.37-5.68,8.32-9.58c0.45-0.89,0.77-1.84,1.19-2.84c-0.28-0.07-0.43-0.13-0.6-0.14
			c-2.5-0.16-4.87,0.42-7.16,1.36c-3.46,1.42-6.47,3.51-9.16,6.09c-1.86,1.77-3.49,3.73-4.86,5.91c-0.1,0.15-0.18,0.31-0.37,0.65
			c1-0.38,1.74-0.79,2.43-1.32C208.64,110.78,211.37,109.26,214.33,108.15z"/>
		<path class="st0" d="M330.87,184.08c-0.66,0.58-1.58,0.55-2.22-0.06c-0.13-0.13-0.23-0.28-0.35-0.42
			c-0.42-0.5-0.79-0.51-1.11,0.03c-0.38,0.63-0.7,1.29-1.05,1.94c0.12,0.15,0.19,0.25,0.28,0.34c1.27,1.26,3.59,1.5,5.11,0.41
			c0.81-0.57,1.54-1.29,2.18-2.05c2.69-3.22,5.32-6.48,7.98-9.71c0.86-1.04,1.77-2.03,2.64-3.05c0.32-0.37,0.66-0.57,1.17-0.45
			c0.27,0.06,0.56,0.01,0.87,0.01c0.16-0.47,0.3-0.88,0.46-1.36c-2-0.63-3.92-1.23-5.91-1.86c-0.17,0.54-0.31,1-0.46,1.5
			c0.59,0.29,1.1,0.54,1.6,0.78c-0.63,1.3-5.27,7.3-6.14,7.92c-0.02-0.12-0.05-0.21-0.06-0.3c-0.3-3.09-0.59-6.19-0.87-9.28
			c-0.01-0.13,0.09-0.28,0.15-0.45c0.59,0.05,1.13,0.09,1.72,0.14c0.16-0.46,0.31-0.9,0.48-1.41c-2.65-0.83-5.22-1.64-7.88-2.47
			c-0.13,0.53-0.25,0.99-0.38,1.53c0.36,0.18,0.65,0.35,0.96,0.48c0.34,0.16,0.53,0.4,0.58,0.78c0.31,2.56,0.66,5.12,0.95,7.68
			c0.26,2.3,0.45,4.61,0.69,6.91c0.06,0.62-0.11,1.15-0.53,1.59C331.45,183.55,331.16,183.82,330.87,184.08z"/>
		<path class="st0" d="M282.92,164.54c0.3,0.1,0.62,0.21,0.95,0.3c2.53,0.71,6.16-0.58,6.83-4.2c0.46-2.48-0.86-4.03-2.72-4.47
			c-0.92-0.22-1.86-0.35-2.8-0.46c-2.28-0.26-4.56-0.48-6.83-0.74c-0.72-0.08-0.95,0.09-0.97,0.83c0,0.23,0.05,0.46,0.09,0.75
			c0.41,0.09,0.75,0.17,1.08,0.24c0.34,0.07,0.47,0.27,0.44,0.63c-0.08,1-0.09,2-0.2,2.99c-0.22,2.17-0.47,4.35-0.74,6.51
			c-0.12,0.96-0.18,1.93-0.57,2.94c-0.56,0-1.13,0-1.71,0c0,0.61,0,1.13,0,1.63c2.79,0.49,7.25,0.91,8.13,0.74
			c0.03-0.43,0.07-0.89,0.1-1.36c-0.73-0.19-1.38-0.36-2-0.53c-0.12-0.83,0.33-6.03,0.57-6.67
			C282.7,163.99,282.8,164.25,282.92,164.54z M283.25,157.65c0.92-0.16,1.7-0.04,2.43,0.39c0.11,0.07,0.21,0.16,0.31,0.24
			c1.06,0.96,0.8,3.9-0.73,4.55c-0.52,0.22-1.03,0.23-1.54,0.09c-0.45-0.13-0.83-0.11-1.09,0.39c-0.04-0.03-0.09-0.06-0.13-0.09
			C282.75,161.37,283,159.52,283.25,157.65z"/>
		<path class="st0" d="M224.11,155.83c0.02,0.15,0.06,0.3,0.09,0.46c0.55,0.09,1.06,0.18,1.71,0.29c0.1,0.77,0.21,1.49,0.27,2.22
			c0.16,1.97,0.31,3.94,0.45,5.91c0.08,1.21,0.15,2.42,0.18,3.63c0.04,1.37,0.11,1.22-1.16,1.43c-0.23,0.04-0.45,0.08-0.74,0.14
			c0.05,0.55,0.1,1.03,0.16,1.58c2.86-0.2,5.63-0.39,8.48-0.59c-0.15-0.59-0.27-1.06-0.4-1.55c-0.42,0-0.76,0.01-1.1,0
			c-0.89-0.02-0.96-0.06-1.04-0.91c-0.19-1.94-0.38-3.88-0.53-5.82c-0.12-1.44-0.19-2.89-0.26-4.34c-0.03-0.57,0.01-1.14,0.02-1.73
			c1.34-0.21,2.58-0.41,3.85-0.2c0.44,0.07,0.64,0.24,0.68,0.69c0.04,0.46,0.16,0.91,0.26,1.4c0.54-0.02,1-0.05,1.51-0.07
			c0-1.49,0-2.93,0-4.38c-0.45,0-0.84-0.02-1.23,0c-3.47,0.26-6.94,0.52-10.4,0.78C224.08,154.85,223.98,154.99,224.11,155.83z"/>
		<path class="st0" d="M239.31,248.23c1.05-0.02,2.1-0.05,3.16-0.06c6.24-0.01,12.48,0,18.73,0c0.3,0,0.6-0.03,0.89-0.04
			c0-1.52,0-2.93,0-4.35c-7.97,0-15.89,0-23.84,0c-0.19,1.03-0.15,3.87,0.06,4.45C238.63,248.23,238.97,248.23,239.31,248.23z"/>
		<path class="st0" d="M238.19,251.96c0,1.37,0,2.76,0,4.2c7.99,0,15.93,0,23.86,0c0.17-0.8,0.16-3.66-0.01-4.25
			C261.02,251.75,238.79,251.8,238.19,251.96z"/>
		<path class="st0" d="M238.19,272.22c2.04,0,4.03,0.01,6.02,0c1.97-0.01,3.95-0.04,5.92-0.05c2,0,4.01,0.09,6,0
			c1.99-0.08,3.98,0.17,5.94-0.04c0-1.5,0-2.91,0-4.36c-7.98,0-15.9,0-23.89,0C238.19,269.26,238.19,270.7,238.19,272.22z"/>
		<path class="st0" d="M256.61,259.8c-5.56-0.01-11.12-0.03-16.68-0.03c-0.57,0-1.14,0.06-1.74,0.09c0,1.48,0,2.89,0,4.38
			c2.08,0,4.05,0,6.02,0c2-0.01,4-0.03,6-0.03c1.97,0,3.95,0.13,5.91,0.01c1.99-0.12,3.97,0.23,5.97-0.05c0-1.48,0-2.89,0-4.38
			c-0.34,0-0.62,0-0.9,0C259.66,259.8,258.13,259.8,256.61,259.8z"/>
		<path class="st0" d="M182.8,243.79c0,1.49,0,2.9,0,4.36c4.38,0.22,8.71,0.15,13-0.06c0.28-1.07,0.19-3.71-0.12-4.3
			C191.44,243.79,187.17,243.79,182.8,243.79z"/>
		<path class="st0" d="M370.85,243.88c-0.13,1.05-0.09,3.67,0.07,4.23c0.07,0.02,0.15,0.05,0.22,0.05
			c4.05-0.01,8.11-0.02,12.16-0.03c0.2,0,0.4-0.06,0.65-0.11c-0.07-1.43,0.14-2.82-0.09-4.17
			C382.78,243.68,371.41,243.73,370.85,243.88z"/>
		<path class="st0" d="M133.23,275.32c0,1.36,0,2.71,0,4.15c4.38,0.16,8.7,0.12,13.06-0.03c0-1.47,0-2.86,0-4.23
			C145,274.89,134.11,274.99,133.23,275.32z"/>
		<path class="st0" d="M133.24,243.85c0,1.46,0,2.84,0,4.29c4.38,0.17,8.7,0.11,13.06-0.03c0-1.48,0-2.86,0-4.34
			C141.93,243.66,137.6,243.64,133.24,243.85z"/>
		<path class="st0" d="M182.76,272.11c1.02,0.15,12.69,0.1,13.17-0.05c0-1.37,0-2.76,0-4.26c-4.39,0-8.72,0-13.15,0
			C182.73,269.26,182.75,270.69,182.76,272.11z"/>
		<path class="st0" d="M320.4,267.89c0,1.35,0,2.71,0,4.12c1.15,0.25,12.35,0.28,13.16,0.06c0.15-1.07,0.1-3.67-0.08-4.21
			C332.69,267.7,321.02,267.73,320.4,267.89z"/>
		<path class="st0" d="M367.11,272.17c0.07-1.49,0.12-2.94-0.06-4.44c-0.38,0-0.67,0-0.96,0c-1.29,0.01-2.58,0.02-3.87,0.02
			c-2.53,0-5.06-0.01-7.59-0.01c-0.23,0-0.45,0.06-0.66,0.08c-0.14,1.28-0.09,3.76,0.09,4.35
			C358.38,272.17,362.71,272.17,367.11,272.17z"/>
		<path class="st0" d="M367.07,251.87c-0.24-0.02-0.4-0.05-0.55-0.05c-3.98,0-7.96,0-11.94,0c-0.2,0-0.41,0.05-0.6,0.07
			c0,1.44,0,2.82,0,4.25c4.37,0,8.69,0,13.16,0C367.08,254.68,367.24,253.28,367.07,251.87z"/>
		<path class="st0" d="M133.29,272.12c4.38,0,8.7,0,13.08,0c0.05-1.48,0.05-2.89,0.01-4.34c-4.41,0-8.72,0-13.09,0
			C133.29,269.26,133.29,270.69,133.29,272.12z"/>
		<path class="st0" d="M133.28,251.96c0,1.38,0,2.76,0,4.18c4.37,0,8.68,0,12.99,0c0.16-0.59,0.19-3.19,0.06-4.22
			C145.44,251.76,133.87,251.79,133.28,251.96z"/>
		<path class="st0" d="M222.96,251.82c-2.42-0.01-4.85-0.03-7.27-0.04c-0.3,0-0.61,0.06-0.96,0.1c0,1.47-0.1,2.85,0.07,4.25
			c4.41,0,8.74,0,13.12,0c0-1.43,0-2.79,0-4.24c-0.23-0.03-0.38-0.07-0.53-0.07C225.91,251.83,224.44,251.83,222.96,251.82z"/>
		<path class="st0" d="M342.42,256.33c0.95,0.02,1.89-0.01,2.84-0.03c0.5-0.01,0.99-0.08,1.49-0.08c1.15-0.01,2.3,0,3.5,0
			c0-1.48,0-2.88,0-4.28c-0.8-0.16-12.44-0.14-13.06,0.02c0,1.38,0,2.76,0,4.24c0.67,0,1.3-0.02,1.93,0
			C340.22,256.23,341.32,256.31,342.42,256.33z"/>
		<path class="st0" d="M158.81,251.82c-2.63,0.01-5.26,0-7.9,0c-0.3,0-0.61,0.03-0.89,0.04c-0.14,1.29-0.09,3.76,0.09,4.42
			c0.41,0.02,0.85,0.05,1.28,0.05c1.49-0.02,2.99-0.08,4.48-0.1c2.21-0.03,4.42-0.04,6.63-0.06c0.18,0,0.35-0.04,0.57-0.06
			c0-1.42,0-2.81,0-4.26c-0.44-0.03-0.86-0.08-1.27-0.08C160.8,251.79,159.81,251.82,158.81,251.82z"/>
		<path class="st0" d="M358.58,259.82c-1.29,0-2.58-0.02-3.87-0.02c-0.25,0-0.5,0.03-0.76,0.05c0,1.47,0,2.86,0,4.34
			c4.38,0,8.72,0,13.15,0c0.11-1.46,0.1-2.88-0.01-4.35c-0.31-0.02-0.54-0.04-0.78-0.04C363.73,259.81,361.16,259.82,358.58,259.82z
			"/>
		<path class="st0" d="M139.83,264.2c2.17-0.05,4.35,0.1,6.51-0.04c0-1.49,0-2.88,0-4.28c-0.18-0.02-0.31-0.05-0.44-0.05
			c-3.98-0.02-7.96-0.05-11.94-0.06c-0.23,0-0.46,0.06-0.67,0.1c-0.14,1.16-0.1,3.73,0.09,4.35
			C135.52,264.21,137.68,264.25,139.83,264.2z"/>
		<path class="st0" d="M182.93,264.26c2.14,0,4.29,0.04,6.44-0.01c2.17-0.06,4.34,0.09,6.59-0.03c0.02-1.51,0.03-2.92,0-4.36
			c-4.42,0-8.74,0-13.1,0C182.68,260.82,182.72,263.67,182.93,264.26z"/>
		<path class="st0" d="M304.41,267.89c0,1.4,0,2.81,0,4.2c0.81,0.15,12.56,0.12,13.12-0.03c0-1.4,0-2.81,0-4.24
			C316.31,267.66,304.91,267.74,304.41,267.89z"/>
		<path class="st0" d="M330.77,264.25c0.89,0.06,1.79,0.01,2.66,0.01c0.28-0.92,0.28-3.41,0-4.43c-4.29,0-8.61,0-12.9,0
			c-0.19,0.6-0.22,3.47-0.04,4.31C323.9,264.45,327.34,264.02,330.77,264.25z"/>
		<path class="st0" d="M353.94,275.29c0,1.36-0.12,2.74,0.09,4.16c4.41,0,8.68,0,12.99,0c0.23-1.45,0.19-2.85-0.01-4.25
			C365.82,274.9,355.29,274.96,353.94,275.29z"/>
		<path class="st0" d="M150.11,275.24c0,1.38,0,2.77,0,4.2c4.32,0.19,8.59,0.13,12.9,0c0-1.47,0-2.86,0-4.23
			C162.21,275.01,150.68,275.04,150.11,275.24z"/>
		<path class="st0" d="M317.11,251.83c-2.24-0.02-4.48-0.04-6.72-0.05c-1.63-0.01-3.27,0-4.9,0.01c-0.36,0-0.72,0.05-1.1,0.08
			c0,1.45,0,2.81,0,4.22c1.07,0.17,12.53,0.13,13.09-0.04c0.11-1.38,0.16-2.76-0.03-4.15C317.31,251.87,317.21,251.84,317.11,251.83
			z"/>
		<path class="st0" d="M215.52,264.21c1.81,0.02,3.63,0.05,5.44,0.04c1.08,0,2.16-0.08,3.23-0.09c1-0.01,2,0.04,3,0.05
			c0.23,0,0.46-0.04,0.7-0.06c0-1.46,0-2.84,0-4.31c-4.4,0-8.73,0-13.06,0c-0.25,1.47-0.15,2.85-0.01,4.32
			C215.11,264.18,215.31,264.21,215.52,264.21z"/>
		<path class="st0" d="M129.42,243.74c-4.35-0.07-8.65-0.14-12.92,0.12c-0.16,1.15-0.12,3.7,0.06,4.26c4.28,0,8.56,0,12.93,0
			C129.67,246.63,129.69,245.23,129.42,243.74z"/>
		<path class="st0" d="M214.83,267.79c0,1.5,0,2.93,0,4.43c0.34,0,0.62,0,0.9,0c2.1,0,4.2,0.01,6.3,0c0.68,0,1.37-0.09,2.05-0.08
			c1.05,0.01,2.1,0.06,3.15,0.08c0.22,0,0.44-0.07,0.64-0.1c0.15-1.43,0.09-3.78-0.09-4.33
			C223.48,267.79,219.17,267.79,214.83,267.79z"/>
		<path class="st0" d="M350.25,272.07c0-1.39,0-2.8,0-4.26c-4.4,0-8.71,0-13.06,0c0,1.45,0,2.85,0,4.25
			C338.01,272.22,349.65,272.24,350.25,272.07z"/>
		<path class="st0" d="M285.53,251.88c-0.26-0.02-0.44-0.05-0.62-0.05c-0.92,0-1.84,0-2.76,0c-2.92,0-5.85,0-8.77,0
			c-0.31,0-0.61,0.02-0.91,0.04c0,1.48,0,2.86,0,4.23c1.05,0.17,12.5,0.12,13.07-0.05C285.53,254.69,285.53,253.33,285.53,251.88z"
			/>
		<path class="st0" d="M150.09,272.14c4.31,0,8.62,0,12.97,0c0-1.49,0-2.89,0-4.33c-4.36,0-8.67,0-13.01,0
			C149.9,268.75,149.92,271.52,150.09,272.14z"/>
		<path class="st0" d="M272.5,267.8c-0.17,0.88-0.14,3.78,0.04,4.38c4.29,0,8.59,0,13.02,0c0.01-1.51,0.06-2.94-0.08-4.38
			C281.1,267.8,276.8,267.8,272.5,267.8z"/>
		<path class="st0" d="M288.77,267.87c0,1.37,0,2.75,0,4.22c0.35,0.04,0.68,0.1,1.01,0.1c2.26,0.01,4.52,0.01,6.78,0
			c0.45,0,0.89-0.04,1.34-0.04c1.11,0,2.21,0.03,3.32,0.03c0.2,0,0.4-0.08,0.62-0.13c0-1.43,0-2.81,0-4.19
			C301.12,267.69,289.65,267.69,288.77,267.87z"/>
		<path class="st0" d="M304.48,275.23c0,1.38,0,2.77,0,4.18c4.35,0,8.65,0,13,0c0-1.44,0-2.83,0-4.21
			C316.73,275.02,305.08,275.04,304.48,275.23z"/>
		<path class="st0" d="M211.33,251.93c-0.81-0.16-12.44-0.14-13.06,0.02c0,1.38,0,2.76,0,4.19c4.36,0,8.67,0,13.06,0
			C211.33,254.69,211.33,253.31,211.33,251.93z"/>
		<path class="st0" d="M301.83,256.15c0-1.44,0-2.82,0-4.27c-0.19-0.02-0.29-0.05-0.39-0.05c-4.06,0-8.11,0-12.17,0
			c-0.17,0-0.34,0.07-0.5,0.1c-0.13,1.38-0.09,3.65,0.09,4.22C293.17,256.15,297.48,256.15,301.83,256.15z"/>
		<path class="st0" d="M333.47,256.14c0-1.48,0-2.86,0-4.23c-1.15-0.18-12.5-0.12-13.05,0.06c-0.12,1.16-0.08,3.59,0.08,4.17
			C324.8,256.14,329.11,256.14,333.47,256.14z"/>
		<path class="st0" d="M285.49,248.09c0-1.44,0-2.82,0-4.28c-4.39,0-8.7,0-13,0c-0.15,0.89-0.12,3.7,0.04,4.28
			C276.83,248.09,281.13,248.09,285.49,248.09z"/>
		<path class="st0" d="M195.92,251.95c-0.63-0.16-12.27-0.18-13.07-0.02c0,1.37,0,2.76,0,4.21c4.4,0,8.71,0,13.07,0
			C195.92,254.71,195.92,253.33,195.92,251.95z"/>
		<path class="st0" d="M179.63,251.95c-0.63-0.16-12.27-0.18-13.07-0.02c0,1.37,0,2.76,0,4.21c4.4,0,8.71,0,13.07,0
			C179.63,254.71,179.63,253.33,179.63,251.95z"/>
		<path class="st0" d="M179.24,267.77c-3.93-0.02-7.85-0.03-11.78-0.04c-0.3,0-0.61,0.05-0.92,0.08c0,1.46,0,2.83,0,4.33
			c0.35,0.02,0.64,0.06,0.92,0.06c1.13-0.01,2.26-0.05,3.39-0.06c1.39-0.01,2.78,0,4.17,0c0.18,0,0.37,0.02,0.55,0.02
			c1.08,0.02,2.16,0.04,3.23,0.04c0.28,0,0.55-0.09,0.8-0.14c0.13-1.35,0.09-3.68-0.08-4.25
			C179.44,267.79,179.34,267.77,179.24,267.77z"/>
		<path class="st0" d="M198.26,272.08c0.4,0.04,0.79,0.11,1.18,0.11c1.95,0.02,3.89,0.03,5.84,0.03c1.23,0,2.47-0.02,3.7-0.02
			c0.58,0,1.16,0.01,1.74-0.01c0.2,0,0.4-0.05,0.62-0.09c0-1.45,0-2.84,0-4.31c-4.41,0-8.72,0-13.07,0
			C198.26,269.24,198.26,270.62,198.26,272.08z"/>
		<path class="st0" d="M150.05,243.9c0,1.38,0,2.77,0,4.2c4.33,0,8.61,0,12.96,0c0.1-1.45,0.16-2.85-0.05-4.27
			C161.36,243.65,150.62,243.72,150.05,243.9z"/>
		<path class="st0" d="M182.87,279.45c4.36,0,8.65,0,12.95,0c0-1.46,0-2.87,0-4.32c-4.34,0-8.63,0-12.97,0
			C182.62,276.57,182.66,277.97,182.87,279.45z"/>
		<path class="st0" d="M214.78,248.05c1.24,0.17,12.54,0.12,13.12-0.05c0-1.35,0-2.72,0-4.23c-4.39-0.12-8.72-0.13-13.12,0.08
			C214.77,245.32,214.77,246.69,214.78,248.05z"/>
		<path class="st0" d="M317.48,248.09c0-1.44,0-2.82,0-4.35c-4.4-0.03-8.72-0.13-13.02,0.12c-0.17,1.16-0.12,3.66,0.07,4.23
			C308.82,248.09,313.13,248.09,317.48,248.09z"/>
		<path class="st0" d="M288.77,259.87c0,1.42,0,2.8,0,4.21c0.18,0.06,0.36,0.16,0.53,0.16c3.91,0,7.83-0.01,11.74-0.03
			c0.26,0,0.51-0.06,0.8-0.09c0-1.43,0-2.81,0-4.26c-3.98-0.04-7.92-0.08-11.85-0.11C289.59,259.75,289.2,259.82,288.77,259.87z"/>
		<path class="st0" d="M367.03,248.13c0-1.45,0-2.86,0-4.36c-4.32-0.07-8.6-0.12-12.96,0.07c-0.21,1.5-0.23,2.88,0.02,4.3
			C358.42,248.13,362.7,248.13,367.03,248.13z"/>
		<path class="st0" d="M179.61,264.08c0.14-1.18,0.1-3.63-0.06-4.19c-1.08-0.14-12.49-0.1-12.99,0.05c0,1.38,0,2.76,0,4.14
			C167.47,264.3,178.29,264.3,179.61,264.08z"/>
		<path class="st0" d="M317.47,264.12c0-1.39,0-2.8,0-4.2c-0.94-0.16-12.47-0.13-13.07,0.04c0,1.35,0,2.72,0,4.12
			C305.41,264.29,316.74,264.32,317.47,264.12z"/>
		<path class="st0" d="M337.32,243.9c0,1.38,0,2.77,0,4.14c0.86,0.16,12.29,0.14,12.88-0.02c0.22-1.18,0.19-3.2-0.07-4.18
			C349.04,243.67,337.88,243.73,337.32,243.9z"/>
		<path class="st0" d="M211.33,259.87c-4.4,0-8.71,0-13.07,0c0,1.43,0,2.82,0,4.31c4.37,0.06,8.7,0,13.07,0.02
			C211.33,262.71,211.33,261.32,211.33,259.87z"/>
		<path class="st0" d="M272.43,264.15c0.27,0.02,0.5,0.06,0.73,0.06c1.97,0.02,3.95,0.04,5.92,0.04c0.84,0,1.68-0.09,2.52-0.09
			c0.94,0,1.89,0.07,2.83,0.09c0.36,0.01,0.72-0.05,1.08-0.08c0-1.47,0-2.86,0-4.29c-4.37,0-8.7,0-13.08,0
			C272.43,261.32,272.43,262.7,272.43,264.15z"/>
		<path class="st0" d="M337.32,275.22c0,1.38,0,2.77,0,4.2c4.36,0,8.61,0,12.86,0c0.15-0.86,0.13-3.67-0.02-4.25
			C349.15,275.01,337.89,275.05,337.32,275.22z"/>
		<path class="st0" d="M150.04,264.15c0.27,0.02,0.55,0.06,0.83,0.06c1.55,0.01,3.1,0.01,4.65,0c2.34-0.01,4.68-0.04,7.02-0.06
			c0.17,0,0.35-0.05,0.52-0.07c0-1.43,0-2.81,0-4.23c-4.36,0-8.66,0-12.96,0C149.92,260.41,149.88,263.14,150.04,264.15z"/>
		<path class="st0" d="M337.19,259.94c0,1.38,0,2.76,0,4.2c4.38,0,8.71,0,13.1,0c0.01-1.45,0.03-2.85-0.01-4.24
			C349.02,259.74,337.69,259.79,337.19,259.94z"/>
		<path class="st0" d="M333.55,248.1c0-1.47,0-2.83,0-4.24c-0.89-0.17-11.68-0.14-12.26,0.02c-0.14,0.85-0.11,3.64,0.06,4.29
			C325.39,248.26,329.45,248.29,333.55,248.1z"/>
		<path class="st0" d="M211.19,247.97c0-1.34,0-2.7,0-4.1c-0.99-0.18-11.75-0.15-12.35,0.03c-0.04,1.4-0.11,2.81,0.03,4.2
			C201.22,248.39,210.15,248.29,211.19,247.97z"/>
		<path class="st0" d="M321.22,275.21c-0.13,0.99-0.09,3.67,0.06,4.22c1.03,0.16,11.72,0.1,12.3-0.08c0-1.37,0-2.75,0-4.13
			C332.9,275.04,321.87,275.04,321.22,275.21z"/>
		<path class="st0" d="M179.07,247.98c0-1.35,0-2.71,0-4.17c-4.18,0-8.22,0-12.34,0c0.01,1.46-0.02,2.86,0.02,4.25
			C168.07,248.24,178.51,248.17,179.07,247.98z"/>
		<path class="st0" d="M289.18,248.1c1.59,0.18,11.75,0.1,12.28-0.08c0-1.41,0-2.82,0-4.26c-0.23-0.02-0.41-0.04-0.59-0.05
			c-3.61,0-7.22,0-10.84,0c-0.28,0-0.56,0.06-0.85,0.09C289.18,245.28,289.18,246.67,289.18,248.1z"/>
		<path class="st0" d="M289.27,275.24c-0.13,1.37-0.17,2.75,0.08,4.18c4.09,0,8.08,0,12.12,0c0-1.45,0-2.85,0-4.24
			C300.48,275.01,289.86,275.05,289.27,275.24z"/>
		<path class="st0" d="M166.78,275.21c0,1.46,0,2.82,0,4.21c4.11,0,8.17,0,12.27,0c0-1.43,0-2.81,0-4.24
			c-2.08-0.17-4.13-0.14-6.17-0.14C170.84,275.04,168.81,275.03,166.78,275.21z"/>
		<path class="st0" d="M198.86,275.19c0,1.45,0,2.81,0,4.21c1.27,0.15,11.59,0.1,12.14-0.05c0-1.38,0-2.77,0-4.22
			C206.93,274.99,202.92,274.98,198.86,275.19z"/>
		<path class="st0" d="M129.55,259.87c-2.64,0-5.26,0-7.95,0c0,1.47,0,2.9,0,4.35c1.2,0,2.35,0,3.5,0c0.21,0,0.42-0.06,0.62-0.05
			c1.07,0.03,2.14,0.1,3.22,0.11c0.61,0.01,0.68-0.09,0.69-0.69c0.01-1.08,0.01-2.16,0-3.23
			C129.62,260.2,129.58,260.05,129.55,259.87z"/>
		<path class="st0" d="M121.63,251.97c0,1.36,0,2.72,0,4.18c2.68,0,5.28,0,7.94,0c0-1.43,0-2.83,0-4.22
			C128.63,251.76,122.23,251.79,121.63,251.97z"/>
		<path class="st0" d="M121.66,267.89c0,1.41,0,2.82,0,4.22c1.36,0.2,7.3,0.15,7.94-0.08c0.04-1.39,0.04-2.8,0.01-4.19
			C128.48,267.68,122.22,267.73,121.66,267.89z"/>
		<path class="st0" d="M378.74,256.13c0-1.44,0-2.82,0-4.28c-2.66,0-5.28,0-7.98,0c-0.02,1.47-0.1,2.88,0.06,4.28
			C373.51,256.13,376.1,256.13,378.74,256.13z"/>
		<path class="st0" d="M378.73,259.88c-1.03-0.16-7.37-0.13-7.94,0.05c0,1.16,0,2.34,0,3.51c0,0.23,0.02,0.46,0.04,0.75
			c2.68,0,5.27,0,7.9,0C378.73,262.73,378.73,261.3,378.73,259.88z"/>
		<path class="st0" d="M370.83,272.21c2.65-0.09,5.26,0.09,7.91-0.03c0-1.51,0-2.92,0-4.37c-2.69,0-5.28,0-7.91,0
			C370.83,269.28,370.83,270.69,370.83,272.21z"/>
		<path class="st0" d="M140.94,240.97c0.22,0.42,0.54,0.63,1.01,0.64c0.79,0,1.58,0,2.38,0c0.02-0.12,0.04-0.15,0.03-0.17
			c-1.03-2.07-2.07-4.14-3.11-6.22c-0.19-0.38-0.52-0.49-0.92-0.49c-0.69,0-1.37-0.01-2.06,0c-0.17,0-0.34,0.05-0.51,0.08
			c0.01,0.11,0.01,0.17,0.03,0.21C138.84,237.01,139.9,238.99,140.94,240.97z"/>
		<path class="st0" d="M342.11,234.74c-0.97,0-1.78,0.03-2.59-0.01c-0.57-0.02-0.86,0.22-1.06,0.73c-0.74,1.86-1.51,3.7-2.27,5.55
			c-0.06,0.16-0.09,0.33-0.14,0.54c1.07,0,2.06,0,3.13,0C340.13,239.34,341.08,237.13,342.11,234.74z"/>
		<path class="st0" d="M133.34,240.33c-0.9-1.64-1.8-3.28-2.69-4.92c-0.15-0.28-0.3-0.6-0.66-0.63c-0.94-0.07-1.87-0.06-2.91,0
			c0.1,0.28,0.15,0.48,0.24,0.65c0.25,0.46,0.52,0.92,0.78,1.38c0.78,1.37,1.57,2.75,2.34,4.12c0.19,0.33,0.38,0.67,0.81,0.68
			c0.88,0.02,1.76,0.01,2.79,0.01C133.76,241.1,133.56,240.71,133.34,240.33z"/>
		<path class="st0" d="M120.26,240.94c0.22,0.33,0.45,0.66,0.91,0.65c0.81-0.01,1.62,0,2.53,0c-0.07-0.24-0.09-0.46-0.19-0.62
			c-1.21-1.91-2.42-3.83-3.66-5.72c-0.14-0.22-0.44-0.46-0.67-0.47c-0.91-0.05-1.83-0.02-2.95-0.02c0.52,0.81,0.93,1.45,1.34,2.08
			C118.47,238.21,119.37,239.57,120.26,240.94z"/>
		<path class="st0" d="M151.74,241.57c0.88,0.01,1.76,0,2.64,0c0.01-0.1,0.03-0.16,0.01-0.21c-0.91-2.04-1.81-4.09-2.75-6.12
			c-0.09-0.21-0.37-0.45-0.58-0.46c-0.93-0.05-1.87-0.02-2.77-0.02c-0.04,0.11-0.06,0.14-0.05,0.15c0.94,2.06,1.89,4.11,2.84,6.17
			C151.2,241.37,151.42,241.57,151.74,241.57z"/>
		<path class="st0" d="M380.31,235.66c-1.04,1.83-2.13,3.64-3.19,5.46c-0.07,0.13-0.11,0.27-0.21,0.51c0.82,0,1.55-0.02,2.28,0.01
			c0.59,0.02,0.99-0.21,1.29-0.72c1.05-1.77,2.12-3.52,3.17-5.29c0.14-0.24,0.23-0.51,0.4-0.89c-0.76,0-1.39,0.05-2.01-0.01
			C381.23,234.65,380.71,234.96,380.31,235.66z"/>
		<path class="st0" d="M373.78,234.8c-0.98,0-1.82,0.02-2.66-0.01c-0.46-0.02-0.71,0.14-0.92,0.55c-1.02,1.9-2.07,3.79-3.1,5.68
			c-0.09,0.17-0.14,0.36-0.24,0.62c0.8,0,1.51-0.02,2.22,0.01c0.62,0.03,1.04-0.22,1.35-0.76c0.94-1.65,1.9-3.27,2.84-4.92
			C373.47,235.63,373.58,235.26,373.78,234.8z"/>
		<path class="st0" d="M163,237.53c-0.31-0.75-0.62-1.51-0.94-2.26c-0.09-0.21-0.15-0.46-0.46-0.46c-0.96,0-1.93,0-3.03,0
			c0.96,2.39,1.97,4.6,2.93,6.82c1.08-0.02,2.07,0.06,3.13-0.06c-0.12-0.33-0.18-0.55-0.27-0.76
			C163.91,239.71,163.45,238.62,163,237.53z"/>
		<path class="st0" d="M215.55,240.96c-0.16-1.25-0.29-2.51-0.44-3.76c-0.1-0.8-0.21-1.6-0.32-2.41c-1.06,0-2.05,0-3.15,0
			c0.27,2.33,0.53,4.52,0.8,6.78c0.95,0,1.84,0.01,2.72,0C215.56,241.56,215.59,241.29,215.55,240.96z"/>
		<path class="st0" d="M359.94,240.96c0.86-1.86,1.76-3.71,2.64-5.57c0.06-0.14,0.11-0.29,0.21-0.56c-0.94,0-1.76,0.04-2.57-0.01
			c-0.54-0.03-0.79,0.17-1,0.66c-0.77,1.79-1.59,3.56-2.39,5.34c-0.1,0.23-0.18,0.47-0.29,0.75c0.89,0,1.7-0.01,2.5,0
			C359.51,241.57,359.75,241.37,359.94,240.96z"/>
		<path class="st0" d="M256.9,241.58c0.41-1.14,0.29-2.27,0.26-3.39c-0.02-1.11,0.27-2.22,0.05-3.3c-1.05,0-2.01,0-3,0
			c-0.23,2.25-0.36,4.45-0.18,6.69C255.03,241.58,255.96,241.58,256.9,241.58z"/>
		<path class="st0" d="M246.89,241.51c-0.05-1.8-0.09-3.48-0.15-5.16c-0.01-0.37-0.02-0.74-0.1-1.1c-0.04-0.17-0.23-0.42-0.37-0.42
			c-0.91-0.04-1.82-0.02-2.8-0.02c0.1,2.33,0.19,4.54,0.28,6.81C244.84,241.59,245.83,241.73,246.89,241.51z"/>
		<path class="st0" d="M346.3,241.48c1.14,0,2.16,0,3.23,0c0.94-2.19,1.87-4.38,2.83-6.64c-1.17,0-2.21,0-3.31,0
			C348.15,237.04,347.24,239.22,346.3,241.48z"/>
		<path class="st0" d="M185.22,241.43c-0.74-2.25-1.45-4.41-2.16-6.57c-1.07,0-2.07,0-3.18,0c0.74,2.3,1.43,4.54,2.2,6.78
			C183.15,241.55,184.17,241.8,185.22,241.43z"/>
		<path class="st0" d="M232.8,234.79c0.11,2.26,0.22,4.45,0.33,6.68c1.09,0,2.1,0,3.2,0c-0.16-2.26-0.23-4.48-0.46-6.68
			C234.82,234.79,233.85,234.79,232.8,234.79z"/>
		<path class="st0" d="M278.42,234.79c-1.03,0-2,0-3.09,0c-0.19,2.25-0.51,4.42-0.58,6.68c1.08,0,2.07,0,3.13,0
			C278.07,239.24,278.24,237.05,278.42,234.79z"/>
		<path class="st0" d="M286.2,234.87c-0.26,2.22-0.77,4.36-0.87,6.61c1.06,0,2.05,0,3.09,0c0.32-2.21,0.64-4.38,0.97-6.61
			C288.28,234.87,287.27,234.87,286.2,234.87z"/>
		<path class="st0" d="M174.92,241.49c-0.76-2.3-1.49-4.48-2.22-6.69c-0.57,0-1.07,0-1.57,0c-0.51,0-1.02,0.02-1.61,0.03
			c0.75,2.29,1.46,4.46,2.19,6.69C172.82,241.51,173.83,241.56,174.92,241.49z"/>
		<path class="st0" d="M225.88,241.46c0.1-1.61-0.37-6-0.73-6.72c-0.91,0.11-1.88-0.24-2.84,0.19c0.18,2.22,0.35,4.38,0.53,6.53
			C223.93,241.46,224.91,241.46,225.88,241.46z"/>
		<path class="st0" d="M331.02,234.84c-1.03,0-1.94,0-2.84,0c-0.73,1.2-2.16,5.8-2.06,6.63c0.96,0,1.92,0,2.9,0
			C329.8,239.28,330.62,237.16,331.02,234.84z"/>
		<path class="st0" d="M267.56,234.88c-1.03,0-1.98,0-3.03,0c-0.13,2.21-0.26,4.38-0.39,6.59c1.12,0,2.13,0,3.21,0
			C267.33,239.25,267.73,237.09,267.56,234.88z"/>
		<path class="st0" d="M193.98,241.52c0.51-0.01,1.02-0.02,1.62-0.03c-0.66-2.29-1.27-4.46-1.9-6.65c-1.04,0-2.03,0-3.1,0
			c0.61,2.26,1.2,4.46,1.79,6.68C192.99,241.52,193.49,241.53,193.98,241.52z"/>
		<path class="st0" d="M317.48,234.83c-0.63,2.2-1.26,4.39-1.91,6.64c1.11,0,2.12,0,3.21,0c0.59-2.2,1.18-4.39,1.79-6.64
			C319.47,234.83,318.51,234.83,317.48,234.83z"/>
		<path class="st0" d="M299.21,234.86c-1.09,0-2.07,0-3.07,0c-0.2,2.24-0.52,4.41-0.53,6.61c1.07,0,2.03,0,3.07,0
			C298.86,239.22,299.03,237.06,299.21,234.86z"/>
		<path class="st0" d="M205.38,241.38c-0.39-2.21-0.78-4.37-1.16-6.53c-0.99,0-1.89,0-2.86,0c0.15,2.25,0.53,4.41,0.88,6.56
			C203.29,241.67,204.26,241.72,205.38,241.38z"/>
		<path class="st0" d="M309.66,234.88c-1,0-1.91,0-2.87,0c-0.32,0.97-1.14,6.04-1.07,6.58c1.01,0,2.02,0,3.05,0
			C309.07,239.25,309.36,237.09,309.66,234.88z"/>
		<path class="st0" d="M268.67,243.71c-1.07,0-2.04-0.01-3.02,0.01c-0.55,0.01-0.61,0.08-0.61,0.67c-0.01,1.11-0.01,2.21,0,3.32
			c0,0.15,0.05,0.3,0.09,0.5c1.2,0.01,2.37,0.06,3.54-0.07C268.67,246.65,268.67,245.23,268.67,243.71z"/>
		<path class="st0" d="M265.22,267.77c-0.25,1.3-0.25,3.28,0,4.41c1.15,0.08,2.31,0.08,3.45,0c0.16-1.09,0.12-3.84-0.06-4.43
			C267.48,267.75,266.34,267.7,265.22,267.77z"/>
		<path class="st0" d="M265.17,259.81c-0.15,1.21-0.11,3.77,0.06,4.38c1.15,0.02,2.31,0.05,3.46-0.01c0.14-1.29,0.09-3.78-0.07-4.37
			C267.49,259.81,266.34,259.81,265.17,259.81z"/>
		<path class="st0" d="M231.57,267.76c-0.01,1.51-0.1,2.94,0.06,4.42c1.22,0.01,2.36,0.02,3.49,0c0.16-1.09,0.12-3.86-0.05-4.42
			C233.95,267.76,232.82,267.76,231.57,267.76z"/>
		<path class="st0" d="M231.61,259.83c0,1.47,0,2.88,0,4.41c1.23,0,2.37,0.03,3.49-0.02c0.18-0.89,0.15-3.82-0.02-4.4
			C233.94,259.83,232.79,259.83,231.61,259.83z"/>
		<path class="st0" d="M265.25,256.18c1.13-0.02,2.27,0.09,3.41-0.06c0-1.47,0-2.83,0-4.24c-1.2,0-2.34,0-3.48,0
			C265.02,252.8,265.06,255.59,265.25,256.18z"/>
		<path class="st0" d="M235.18,248.13c0.13-1.36,0.1-2.64,0.03-3.92c-0.02-0.33-0.19-0.46-0.51-0.45c-0.71,0.01-1.42,0-2.13,0
			c-0.31,0-0.61,0.03-0.95,0.04c-0.1,1.49-0.13,2.89,0.03,4.33C232.85,248.13,233.97,248.13,235.18,248.13z"/>
		<path class="st0" d="M231.64,251.96c0,1.35,0,2.71,0,4.06c0.73,0.17,2.92,0.17,3.57-0.01c0-1.35,0-2.71,0-4.06
			C234.36,251.74,232.25,251.75,231.64,251.96z"/>
	</g>
</g>
</svg>
