<?xml version="1.0" encoding="UTF-8"?>
<svg id="Layer_1" data-name="Layer 1" xmlns="http://www.w3.org/2000/svg" viewBox="0 0 302 277.28">
  <defs>
    <style>
      .cls-1 {
        fill-rule: evenodd;
      }

      .cls-1, .cls-2 {
        fill: #d7b46a;
      }

      .cls-3 {
        fill: #174b82;
        stroke: #c0a264;
        stroke-miterlimit: 2.41;
        stroke-width: 2px;
      }
    </style>
  </defs>
  <g id="_Слой_2" data-name="Слой 2">
    <g id="Page_1" data-name="Page 1">
      <g id="Layer_1-2" data-name="Layer 1">
        <ellipse class="cls-3" cx="151" cy="138.64" rx="150" ry="137.64"/>
        <path class="cls-2" d="M150.2,35.02c29.59-.23,58.22,10.48,80.4,30.07,20.62,18.55,33.39,44.16,33.39,72.28s-12.77,53.82-33.39,72.28c-22.18,19.59-50.81,30.3-80.4,30.07-29.56,.29-58.19-10.34-80.4-29.85-20.62-18.53-33.39-44.19-33.39-72.4s12.77-53.82,33.39-72.37c22.18-19.59,50.81-30.3,80.4-30.07Zm-1.61,99.21l1.64,1.47,1.64-1.47-1.64-1.47-1.64,1.47Zm3.71,3.35l1.64,1.47,1.64-1.47-1.64-1.47s-1.64,1.47-1.64,1.47Zm-.46,3.35l-1.64-1.47-1.64,1.47,1.64,1.47,1.64-1.47Zm-3.71-3.35l-1.64-1.47-1.64,1.47,1.64,1.47,1.64-1.47Zm25.2-.22l-.77-.7-3.49-3.16-1.06-.96,1.06-.94,2.67-2.41,2.12,1.9-1.61,1.47,1.37,1.23,2.67-2.41-4.82-4.34-11.66,10.5,11.4,10.41,4.82-4.34-2.67-2.41-1.37,1.23,1.61,1.47-2.12,1.9-2.67-2.41-1.06-.96,1.06-.94,3.52-3.18,1.01-.89v-.07Zm-23.1-8.41l11.66-10.5-4.82-4.34-2.67,2.41,1.37,1.23,1.61-1.47,2.12,1.9-2.67,2.41-1.06,.96-1.06-.96-3.49-3.13-1.01-.82-1.01,.89-3.49,3.13-1.06,.96-1.06-.96-2.67-2.41,2.12-1.9,1.61,1.47,1.37-1.23-2.67-2.41-4.82,4.34,11.66,10.5,.05-.07Zm0,29.22l.77-.7,3.49-3.13,1.06-.96,1.06,.94,2.67,2.41-2.12,1.9-1.61-1.47-1.37,1.23,2.67,2.41,4.82-4.34-11.44-10.29-11.44,10.29,4.82,4.34,2.67-2.41-1.37-1.23-1.61,1.47-2.12-1.9,2.67-2.41,1.06-.94,1.06,.96,3.49,3.13,.77,.7h0Zm-9.64-20.6l-11.66-10.5-4.82,4.34,2.67,2.41,1.37-1.23-1.59-1.49,2.12-1.9,2.67,2.41,1.06,.94-1.06,.96-3.49,3.13-.77,.7,1.01,.89,3.49,3.13,1.06,.96-1.06,.94-2.67,2.41-2.12-1.9,1.61-1.47-1.37-1.23-2.67,2.41,4.82,4.34,11.54-10.24h-.14Zm11.81-45.41c14.46,25.35,19.95,30.33,48.19,43.37h.96c-.19-17.53-3.53-34.89-9.85-51.24-12.61,4.45-25.85,6.82-39.22,7.04v.89l-.07-.05Zm48.19,47.32c-28.14,12.96-33.73,17.97-48.19,43.37v.92c13.37,.21,26.61,2.59,39.22,7.04,6.33-16.35,9.66-33.71,9.85-51.24l-.89-.07Zm-52.62,43.29c-14.46-25.35-19.95-30.33-48.19-43.37h-.96c.19,17.53,3.53,34.89,9.85,51.24,12.64-4.43,25.91-6.78,39.29-6.96v-.92Zm-17.13-60.79l13.54,12.19-1.64,1.47-12.72-11.44h0l-1.06-.94-1.06,.94-6.91,6.24-1.06,.94,1.06,.96,4.82,4.31,1.01,.89-.77,.7-4.82,4.31-1.06,.94,1.06,.96,6.94,6.24,1.06,.94,.63-.55,.43-.39,12.5-11.25,1.64,1.47-13.78,12.41,2.07,1.88,13.78-12.41,1.64,1.47-12.5,11.25-.43,.39-.63,.55,1.06,.96,6.94,6.24,1.06,.94,1.06-.96,4.82-4.31,.77-.7,.77,.7,4.82,4.31,1.06,.96,1.06-.96,6.84-6.22,1.06-.94-.63-.55-.43-.41-12.5-11.25,1.64-1.47,13.78,12.38,2.07-1.88-13.78-12.41,1.64-1.47,12.5,11.25,.43,.39,.63,.55,1.06-.96,6.99-6.19,1.06-.94-1.06-.96-4.82-4.24-.77-.7,1.01-.89,4.82-4.31,1.06-.96-1.06-.94-6.94-6.24-1.06-.94-1.06,.94h0l-12.87,11.4-1.64-1.47,13.68-12.21-2.07-1.88-13.54,12.19-1.64-1.47,12.72-11.44h0l1.06-.94-1.06-.96-6.94-6.24-1.06-.94-1.06,.94-4.82,4.31-1.01,.89-1.01-.89-4.82-4.31-1.06-.94-1.06,.94-6.94,6.24-1.06,.94,1.06,.94h0l12.72,11.44-1.64,1.47-13.54-12.19-2.07,1.88,.02,.02Zm-2.41-2.94l1.73-1.57c6.22-5.88,11.03-13.32,17.88-25.35v-.92c-13.37-.21-26.61-2.59-39.22-7.04-6.33,16.35-9.66,33.71-9.85,51.24h.82c13.59-6.26,21.92-10.67,28.5-16.38h.14Zm67.46,73.19c10.53,4.17,20.4,9.85,29.3,16.86l2.41-2.07c19.58-17.07,31.19-41.5,32.07-67.46h-53.68c-.19,18.07-3.64,35.95-10.19,52.79l.1-.12Zm25.97,19.51c-8.42-6.49-17.71-11.74-27.61-15.61-5.35,12.62-12.59,24.35-21.47,34.79-.98,1.14-1.98,2.26-2.99,3.37,18.93-3.03,36.79-10.77,51.94-22.5l.12-.05Zm-31.73-17.27c-12.11-4.28-24.84-6.58-37.68-6.79v48.19c3.58,0,7.12-.22,10.62-.65,2.14-2.15,4.2-4.39,6.19-6.72,8.65-10.21,15.69-21.68,20.86-34.02Zm-42.16-6.79c-12.84,.22-25.57,2.51-37.68,6.79,5.16,12.33,12.18,23.79,20.82,33.99,1.99,2.33,4.06,4.57,6.19,6.72,3.49,.37,7.03,.59,10.62,.65v-48.19l.05,.02Zm-41.78,8.46c-9.87,3.91-19.13,9.21-27.51,15.73,15.17,11.7,33.03,19.4,51.94,22.41-1.01-1.09-2.01-2.22-2.99-3.37-8.87-10.43-16.1-22.16-21.44-34.77Zm-30.84,13.03c8.89-7.02,18.76-12.7,29.3-16.86-6.55-16.84-10-34.72-10.19-52.79H40.9c.88,25.96,12.49,50.39,32.07,67.46l2.41,2.07-.02,.12Zm19.11-73.63c.16-18.1,3.6-36.01,10.14-52.88-10.53-4.17-20.4-9.85-29.3-16.86l-2.41,2.07c-19.58,17.07-31.19,41.5-32.07,67.46l53.63,.22Zm11.73-56.57c5.34-12.65,12.58-24.42,21.47-34.89,.98-1.14,1.98-2.26,2.99-3.37-18.93,3.03-36.79,10.77-51.94,22.5,8.38,6.52,17.64,11.82,27.51,15.73l-.02,.02Zm31.18-39.27c-2.14,2.15-4.22,4.39-6.26,6.72-8.64,10.22-15.66,21.71-20.82,34.07,12.12,4.26,24.84,6.53,37.68,6.72V39.04c-3.58,0-7.12,.22-10.62,.65l.02,.02Zm15.08-.65v48.19c12.84-.2,25.57-2.48,37.68-6.75-5.18-12.33-12.21-23.8-20.86-33.99-1.99-2.33-4.06-4.57-6.19-6.72-3.49-.37-7.03-.59-10.62-.65v-.07Zm17.35,1.57c1.01,1.11,2.01,2.23,2.99,3.37,8.89,10.47,16.13,22.23,21.47,34.89,9.87-3.91,19.13-9.21,27.51-15.73-15.16-11.73-33.02-19.47-51.94-22.5l-.02-.02Zm26,42.04c6.55,16.84,10,34.72,10.19,52.79h53.53c-.85-25.98-12.46-50.44-32.04-67.53l-2.41-2.07c-8.89,7.01-18.76,12.7-29.3,16.86l.02-.05Z"/>
        <path class="cls-1" d="M23.14,107.71c.11-.85,.04-1.71-.22-2.53-.29-.67-.71-1.29-1.23-1.81-.86-.81-1.67-1.68-2.41-2.6-.3-.44-.53-.92-.7-1.42-.14-.44-.14-.91,0-1.35,.11-.39,.37-.71,.72-.92,.28-.19,.63-.25,.96-.17,.27,.09,.51,.27,.67,.51,.21,.25,.26,.59,.14,.89-.18,.53-.67,.88-1.23,.87-.32,0-.5,.08-.53,.24-.06,.22-.06,.45,0,.67,.54,.88,1.2,1.69,1.95,2.41,.53,.54,1.02,1.11,1.47,1.71,.38,.58,.58,1.26,.58,1.95,.16-.54,.43-1.04,.8-1.47,.39-.38,.85-.69,1.35-.92,1.57-.64,3.18-1.19,4.82-1.64,.66-.18,1.31-.42,1.93-.72,.44-.26,.79-.66,.99-1.13,.17-.19,.35-.36,.55-.51,.06-.04,.13-.04,.19,0h.14m0,.14c-.12,.39-.31,.87-.55,1.45s-.27,.65-.34,.89c-.12,.39-.21,.8-.27,1.2-1.37,.32-2.93,.75-4.7,1.3-1.2,.3-2.34,.78-3.4,1.42-.56,.48-.97,1.1-1.18,1.81l1.66,.55,1.59,.46,2.41,.75c.26,.11,.56,.07,.77-.12,.26-.3,.47-.64,.6-1.01,.06-.13,.13-.25,.22-.36h.27c.09,.03,.15,.1,.17,.19v.36c0,.14-.19,.51-.43,1.04s-.39,.96-.48,1.23c-.09,.3-.16,.61-.22,.92-.14,.64-.32,1.26-.53,1.88v.31h-.34c-.04-.07-.04-.15,0-.22,.16-.62,.22-1.26,.17-1.9-.13-.24-.36-.41-.63-.46l-1.08-.34-2.07-.67-.89-.31-3.13-.94-2.02-.67-1.83-.65c-.42-.18-.87-.25-1.33-.22-.17,.16-.3,.36-.36,.58v.17c0,.14-.17,.39-.31,.75-.09,.13-.26,.18-.41,.12h-.14l.14-.75c.67-2.06,1.1-3.49,1.28-4.29,.12-.28,.22-.57,.31-.87,.06-.03,.13-.03,.19,0h.14c.03,.18,.03,.35,0,.53-.13,.45-.13,.92,0,1.37,.17,.31,.46,.53,.8,.6h.22l4.19,1.4,.63,.22,10.89-7.71Zm-9.47-16.31l.31,.29-.43,1.42c-.11,.28-.16,.59-.14,.89,.09,.24,.25,.44,.46,.58,.55,.4,1.12,.76,1.71,1.08l1.83,.96,.22,.12,.41,.22c.41-.95,.89-1.88,1.42-2.77,1.09-1.91,2.18-3,3.25-3.25,1.08-.26,2.22-.08,3.16,.51,1.1,.64,1.82,1.77,1.93,3.04,.16,1.54-.2,3.08-1.04,4.38l-.87,1.52-.24,.48-.72,1.3-1.23,2.17c-.13,.23-.28,.46-.43,.67h0c-.14,0-.19-.24,0-.43,.22-.54,.38-1.11,.48-1.69,0-.17-.14-.36-.43-.58-.57-.4-1.17-.77-1.78-1.11l-1.2-.65-4.7-2.63-2-1.11-.51-.31c-.29-.2-.62-.33-.96-.39-.17,0-.39,.17-.63,.51-.35,.5-.75,.97-1.18,1.4-.11,.04-.23,.04-.34,0l.24-.43,.36-.65,.34-.53,1.13-1.88c.5-.87,1.03-1.9,1.59-3.08v-.05Zm4.82,5.95l1.06,.63c2.49,1.45,3.89,2.25,4.22,2.41,.36,.09,.74,.04,1.06-.14,.52-.35,.94-.83,1.2-1.4,.7-.96,.94-2.17,.65-3.32-.23-.93-.83-1.73-1.66-2.22-.86-.56-1.93-.68-2.89-.34-1.04,.4-1.89,1.16-2.41,2.14-.44,.71-.83,1.44-1.18,2.19l-.05,.05Zm10.87-3.71c.02-.18,.07-.36,.14-.53,.16-.33,.31-.67,.43-1.01h0c.15-.31,.15-.68,0-.99-.73-.64-1.54-1.17-2.41-1.59l-1.16-.65-4.82-2.7-1.57-.94c-.35-.21-.78-.43-1.28-.65h-.34c-.41,.31-.75,.69-1.01,1.13-.17,.28-.38,.54-.63,.77h-.41l1.13-1.88,.99-1.66,1.54-2.79,.29,.22s0,.34-.29,.75c-.22,.44-.39,.91-.48,1.4,0,.24,.66,.75,1.98,1.52l6.14,3.49,.43,.27,.53,.31c.67,.42,1.37,.78,2.1,1.08,.25,.06,.52,0,.72-.17,.27-.22,.5-.49,.67-.8,.27-.43,.46-.63,.58-.63l.34,.14-.77,1.4-.55,.89-.8,1.42-1.4,2.41v.19l-.31-.14,.19-.27Zm-6.6-17.39l.14-.24,.84-1.01,.41-.51,.63-.89,1.13-1.64c.29-.45,.65-.95,1.08-1.49,.58-.82,1.34-1.5,2.22-2,.74-.37,1.59-.48,2.41-.31,.77,.12,1.5,.43,2.12,.89,.95,.73,1.56,1.8,1.71,2.99,.15,1.29-.24,2.58-1.08,3.57-.21,.27-.45,.52-.72,.72-.3,.2-.62,.35-.96,.46-.13,.05-.28,.05-.41,0-.02-.05-.02-.11,0-.17,.07-.09,.16-.16,.27-.22,.28-.2,.52-.44,.72-.72,.38-.48,.63-1.05,.72-1.66,.1-.61,0-1.23-.27-1.78-.27-.56-.66-1.04-1.16-1.42-.49-.38-1.07-.64-1.69-.75-.59-.15-1.21-.15-1.81,0-.43,.16-.82,.4-1.16,.7-.35,.27-.68,.58-.96,.92-.41,.42-.71,.93-.89,1.49h.12l1.08,.77,.17,.14,.75,.63c1.25,.98,2.06,1.57,2.41,1.78l.53,.41,4.34,3.18,.31,.29,.41,.36c.22,.19,.46,.34,.72,.46l1.33-.84,.58-.43c.07-.02,.15-.02,.22,0,.02,.08,.02,.16,0,.24-.02,.1-.07,.19-.14,.27l-.46,.48c-.37,.38-.73,.77-1.06,1.18l-1.2,1.69-.8,.96-.41,.55-.24-.17,.72-1.4c.04-.16,.04-.32,0-.48-.1-.2-.25-.36-.43-.48l-.36-.29-.53-.43c-.72-.58-2.33-1.76-4.82-3.54l-3.11-2.7-.17-.12c-.45-.35-.79-.51-1.01-.46-.71,.29-1.33,.74-1.83,1.33h-.19c-.05-.05-.1-.12-.12-.19l-.1-.1Zm19.01-21.54h.19l.29,.36,.29,.36c.58,.56,1.09,1.02,1.54,1.37,.67,.53,0,0,0,.17h-.89l-.87-.29h-.36c-.35-.08-.71-.08-1.06,0-.46,.34-.88,.73-1.25,1.16l-2.63,2.53-.17,.17c-.14,.14-.19,.24-.17,.34,.19,.26,.41,.49,.65,.7l2.41,2.41,2.89,2.63,.53,.51,1.57,1.54,.51,.48,.53,.48c.43,.41,.75,.58,.94,.51,.49-.34,.93-.74,1.33-1.18,.16-.17,.34-.32,.53-.46l.36,.27c-.17,.19-.46,.53-.89,.99l-.6,.55-.63,.6-.14,.17h0l-.22,.22-.17,.19-.39,.39-.14,.19-.53,.6-.67,.72-.48,.55h-.14l-.29-.1c.48-.64,.9-1.33,1.25-2.05-.22-.37-.51-.69-.84-.96l-1.54-1.52-2.41-2.41-1.52-1.47-1.98-1.81c-.34-.34-.71-.66-1.11-.94-.08-.04-.18-.04-.27,0l-.82,.48-.89,.58c-.11-.03-.2-.08-.29-.14l.77-.75,1.42-1.4,1.01-1.08,.82-.92,1.88-1.88,.58-.58,1.11-1.18h.29l.34-.36,.31-.36h.12l-.1-.39Zm9.23-7.93l.14,.41-1.01,1.11c-.23,.21-.41,.46-.53,.75-.02,.25,.03,.51,.17,.72,.33,.58,.69,1.15,1.08,1.69,.22,.31,.63,.84,1.25,1.64l.14,.19,.29,.36c.76-.68,1.57-1.32,2.41-1.9,1.19-1.05,2.73-1.61,4.31-1.57,1.09,.21,2.04,.86,2.65,1.78,.72,1.04,.89,2.37,.46,3.57-.5,1.46-1.49,2.71-2.79,3.54l-1.45,1.01-.43,.34-1.2,.89-2.02,1.45-.67,.43h0v-.46c.48-.43,.92-.9,1.3-1.42,.05-.24,0-.49-.14-.7-.34-.61-.72-1.2-1.13-1.76l-.82-1.11-2.96-4.17-1.35-1.86-.34-.51c-.17-.3-.41-.57-.7-.77-.17,0-.41,0-.77,.22-.52,.3-1.07,.56-1.64,.77-.11-.04-.2-.12-.27-.22l.39-.29,.6-.43,.53-.34,1.83-1.23c.82-.58,1.73-1.29,2.75-2.14h-.07Zm1.95,7.49l.7,1.01c1.61,2.36,2.55,3.65,2.84,3.85,.29,.21,.66,.29,1.01,.24,.62-.09,1.2-.35,1.69-.75,.95-.59,1.6-1.55,1.81-2.65,.18-.95-.02-1.93-.58-2.72-.53-.85-1.42-1.41-2.41-1.52-1.08-.05-2.15,.28-3.01,.94-.69,.46-1.35,.96-1.98,1.49l-.07,.1Zm11.42,1.23c.1-.16,.22-.3,.36-.41,.29-.23,.56-.47,.82-.72h0c.39-.34,.55-.63,.53-.84-.39-.86-.89-1.67-1.49-2.41l-.77-1.08-3.16-4.43-1.04-1.52c-.24-.34-.53-.72-.89-1.13l-.19-.43c-.5,.1-.98,.31-1.4,.6-.28,.18-.58,.33-.89,.43,0,0-.22,0-.34-.24l1.81-1.23,1.59-1.08,2.58-1.88c.07,.1,.12,.2,.17,.31l-.58,.55c-.39,.31-.74,.68-1.04,1.08-.11,.21,.27,.94,1.16,2.19l4.1,5.78,.29,.43,.34,.51c.42,.66,.9,1.29,1.42,1.88,.2,.16,.47,.21,.72,.14,.34-.09,.67-.23,.96-.43,.41-.27,.67-.39,.8-.31,.09,.08,.17,.17,.24,.27l-1.28,.94-.87,.55-1.18,1.06-2.29,1.59-.17,.12-.24-.27-.07-.02Zm7.52-14.46c1.29-.47,2.33-1.43,2.92-2.67,.27-.79,.22-1.65-.12-2.41-.32-.72-.92-1.28-1.66-1.57-.8-.27-1.68-.18-2.41,.27-.68,.37-1.23,.92-1.61,1.59-.47,.8-.64,1.74-.48,2.65h-.39l-.24-.43c-.29-.55-.53-1.12-.72-1.71,.27-.49,.63-.92,1.06-1.28,.67-.62,1.42-1.14,2.24-1.54,1.12-.69,2.44-.94,3.73-.72,.96,.21,1.77,.84,2.22,1.71,.29,.54,.38,1.16,.24,1.76-.24,.79-.61,1.53-1.11,2.19,2.11-.91,4.57,.06,5.48,2.17,.55,1.26,.43,2.71-.3,3.87-.69,1.41-1.84,2.55-3.25,3.23-1.15,.64-2.44,1-3.76,1.06-1.14,0-1.88-.32-2.22-.96-.11-.29-.11-.6,0-.89,.07-.3,.28-.55,.55-.67,.49-.28,1.11-.14,1.45,.31,.26,.32,.57,.58,.92,.8,.42,.17,.87,.23,1.33,.19,.58,0,1.16-.13,1.69-.39,.99-.47,1.73-1.35,2.02-2.41,.31-1.05,.19-2.17-.34-3.13-.44-.97-1.3-1.69-2.34-1.95-.96-.23-1.97-.08-2.82,.41l-.94,.55-.92,.51-.14-.58-.07,.05Zm16.14-14.65h.24l1.28-.34,.65-.41,1.04-.31,1.88-.7c.48-.19,1.06-.39,1.73-.6,.95-.33,1.96-.46,2.96-.36,.8,.12,1.54,.5,2.1,1.08,.56,.54,.98,1.21,1.23,1.95,.37,1.13,.28,2.36-.27,3.42-.59,1.19-1.66,2.06-2.94,2.41-.66,.24-1.39,.24-2.05,0-.14-.03-.27-.1-.36-.22-.01-.05-.01-.1,0-.14h.34c.34,0,.69-.06,1.01-.17,.59-.18,1.12-.51,1.54-.96,.43-.44,.72-1,.82-1.61,.14-.6,.14-1.23,0-1.83-.18-.59-.51-1.13-.94-1.57-.42-.45-.94-.79-1.52-.99-.45-.08-.9-.08-1.35,0-.45,.02-.89,.08-1.33,.19-.58,.11-1.12,.35-1.59,.7v.17l.43,1.25v.22c0,.22,.14,.53,.27,.94,.47,1.61,.78,2.55,.94,2.84l.19,.63,1.71,4.89v.43c0,.22,0,.39,.14,.53,.07,.28,.19,.55,.34,.8h2.41c.06-.02,.13-.02,.19,0,.03,.09,.03,.18,0,.27-.07,.07-.17,.12-.27,.14l-.65,.14c-.52,.09-1.03,.22-1.54,.36l-1.95,.67-1.2,.34-.65,.22v-.29l1.37-.72c.22-.14,.34-.27,.39-.34,.06-.21,.06-.44,0-.65l-.12-.43-.31-.65c-.27-.88-.88-2.75-1.83-5.61-.45-1.35-.88-2.71-1.3-4.1v-.19c-.17-.53-.36-.87-.55-.94-.74-.18-1.52-.18-2.26,0-.01-.06-.01-.13,0-.19-.02-.08-.02-.16,0-.24l-.22-.02Zm18.48,9.88l.17-.17,.65-.22c.47-.09,.93-.25,1.35-.48,.07-.22,.07-.45,0-.67l-.17-.8-.41-2.99-.29-1.37-.55-2.89-.7-3.28c-.04-.46-.18-.9-.41-1.3-.42-.13-.86-.13-1.28,0h-.8c-.09-.01-.17-.08-.19-.17-.02-.08-.02-.16,0-.24h.55l1.25-.34,.84-.19,2.14-.34,2.41-.51,1.16-.27,1.33-.22,1.64-.34h.12l.94-.22h.12c.05,.06,.09,.12,.12,.19,.01,.17,.01,.34,0,.51v.43c.16,.8,.32,1.48,.48,2.02h-.24c-.18-.22-.34-.46-.48-.7-.29-.33-.6-.63-.94-.92-.15-.2-.34-.36-.55-.48-.23-.05-.47-.05-.7,0l-1.06,.17h-.51l-3.28,.72h-.29c-.43,0-.67,.19-.72,.31-.12,.55-.12,1.11,0,1.66l.6,2.77,.31,1.61h1.06l.82-.14h.24l3.2-.67c.39-.14,.63-.27,.67-.39,.09-.37,.09-.76,0-1.13,0-.6,0-.94,.19-1.06h.29v.17c0,.09,0,.18,0,.27,0,.29,.17,1.18,.46,2.7,0,.41,.19,.84,.31,1.33l.22,.8c0,.1,0,.19,0,.29h-.14c-.22-.29-.41-.6-.55-.94-.08-.51-.28-1-.58-1.42-.37-.13-.77-.13-1.13,0l-.58,.12-1.25,.27-.75,.14c-.71,.12-1.41,.28-2.1,.48v.39l.43,2.12,.24,1.35,.27,1.3c.05,.46,.19,.91,.41,1.33,.29,.14,.63,.14,.92,0l.7-.14,.72-.12,1.57-.29c1.01-.15,2.01-.41,2.96-.77,.44-.2,.81-.52,1.08-.92,.39-.76,.66-1.57,.8-2.41,.08-.34,.19-.52,.34-.55,.08-.02,.16-.02,.24,0-.03,.52-.03,1.04,0,1.57,.02,.57,.08,1.13,.17,1.69,.07,.22,.07,.46,0,.67h-.24l-3.23,.67-1.47,.27-3.45,.72-1.42,.27h-.51l-3.04,.67c-.08,.03-.16,.03-.24,0-.02-.05-.02-.11,0-.17h0l-.27,.24Zm29.15-18.21c.14,.61,.22,1.23,.27,1.86v.51h-.43c-.34-.84-.95-1.54-1.73-2-.86-.47-1.84-.66-2.82-.55-.5,.03-.98,.13-1.45,.31-1.31,.53-2.38,1.5-3.04,2.75-.35,.7-.6,1.45-.72,2.22-.15,.83-.2,1.67-.14,2.51,.05,1.43,.42,2.82,1.06,4.1,.49,.96,1.29,1.74,2.26,2.19,.85,.39,1.79,.56,2.72,.51h.55c.43-.07,.86-.18,1.28-.31,.48-.17,.95-.39,1.37-.67,.39-.29,.73-.63,1.01-1.01,.34-.46,.62-.96,.82-1.49h.31v.36c-.24,1.35-.42,2.27-.53,2.77l-.46,.17c-1.17,.43-2.39,.68-3.64,.72-.93,.12-1.87,.12-2.79,0-.71-.15-1.4-.37-2.07-.65-.74-.3-1.42-.73-2-1.28-.62-.6-1.12-1.32-1.47-2.12-.4-.91-.64-1.89-.7-2.89-.08-.89,0-1.79,.22-2.65,.24-.85,.61-1.66,1.08-2.41,.49-.78,1.11-1.48,1.83-2.05,.72-.56,1.54-.99,2.41-1.25,.9-.23,1.82-.37,2.75-.41,.81-.06,1.62,0,2.41,.17,.56,.09,1.1,.27,1.59,.55l.05,.07Zm18.09,1.01c-1.22-.19-2.45-.31-3.69-.36l-3.16-.29c-.58-.05-1.16-.05-1.73,0-.08,.37-.13,.74-.17,1.11l-.14,2.79-.31,3.47-.31,3.08v.67c-.04,.63-.04,1.25,0,1.88,0,.2,.06,.41,.17,.58,.29,.17,.61,.29,.94,.36,.27,.07,.54,.17,.8,.29,.01,.04,.01,.08,0,.12,0,0,0,.14-.27,.14h-.72l-1.49-.19h-3.98v-.27c.3-.13,.61-.21,.94-.22,.45,.03,.9-.07,1.3-.29,.24-.32,.36-.71,.34-1.11v-.7l.12-1.93c0-.34,0-.8,.14-1.4v-.89l.39-4.82v-1.16c.07-.44,.07-.89,0-1.33-.29-.17-.62-.27-.96-.29l-.75-.14c-.02-.07-.02-.15,0-.22v-.22h.55l5.23,.51h3.23l3.28,.14h3.93c.01,.14,.01,.27,0,.41-.35,.11-.72,.16-1.08,.14-.22-.03-.45-.03-.67,0-.18,.16-.28,.4-.27,.65v2.12l-.22,2.63-.14,2.96-.22,2.26v.67c-.04,.63-.04,1.25,0,1.88,0,.2,.06,.4,.17,.58,.3,.17,.63,.29,.96,.36,.27,.07,.54,.17,.8,.29,.01,.04,.01,.08,0,.12,0,0,0,.14-.27,.14h-.7l-1.47-.19h-4.05v-.58c.3-.13,.61-.21,.94-.22,.45,.02,.9-.08,1.3-.29,.25-.32,.37-.73,.34-1.13v-1.37l.27-3.08,.14-1.59,.41-6.12h.1Zm12.58,13.81c-.07-.46-.17-.92-.29-1.37v-.55l-.55-2.19-.87-3.37-1.11-3.85c-.19-.52-.46-1-.8-1.45-.35-.27-.75-.46-1.18-.55h-.27v-.51l1.86,.39,2.6,.58,1.35,.24,.55,.17c.03,.07,.03,.15,0,.22v.12h-1.42c-.2-.05-.4-.05-.6,0-.17,0-.27,.17-.31,.29-.03,.18-.03,.36,0,.53l.48,2.22,.75,3.32,1.04,4.48c.22-.22,.72-.87,1.59-1.98l.55-.7c1.65-1.85,3.08-3.88,4.26-6.05,0-.27,0-.48-.39-.65-.38-.2-.79-.37-1.2-.48h-.22c-.02-.08-.02-.16,0-.24v-.14h.6l.7,.17,1.47,.31,1.78,.31h.46v.41h-.77c-.17,0-.33,.05-.48,.12-.37,.31-.72,.65-1.04,1.01-.58,.6-1.37,1.52-2.41,2.72s-1.95,2.41-2.87,3.61l-1.57,2c-.51,.65-1.06,1.26-1.66,1.83-.39,.4-.82,.76-1.28,1.08-.28,.15-.58,.25-.89,.29-.35,.06-.71,.06-1.06,0-.42-.07-.8-.28-1.08-.6-.27-.29-.37-.7-.29-1.08,.04-.27,.18-.52,.39-.7,.23-.18,.53-.25,.82-.17,.19,.02,.38,.1,.53,.22,.18,.23,.32,.49,.41,.77,.12,.44,.58,.69,1.01,.56,.07-.02,.13-.05,.19-.08,.33-.23,.63-.51,.89-.82l.29-.29,.02-.14Z"/>
        <path class="cls-1" d="M202.63,19.45c.01,.07,.01,.15,0,.22l-.19,.41-.22,.43c-.26,.77-.46,1.43-.6,1.98-.22,.82,0,0-.17,0h-.14c-.02-.27-.02-.55,0-.82-.03-.47-.1-.94-.19-1.4-.02-.34-.13-.66-.31-.94-.19-.13-.4-.23-.63-.29l-.99-.36-.46-.17-1.37-.46-1.2-.31-.7-.17-.92,2.7c-.12,.36-.31,1.01-.6,1.98v.24l-.12,.46,1.18,.34h.43l1.37,.41c.96,.31,1.88,.74,2.72,1.3,.65,.45,1.13,1.12,1.35,1.88,.22,.85,.17,1.76-.14,2.58-.44,1.18-1.42,2.07-2.63,2.41-1.48,.46-3.07,.4-4.51-.17l-1.66-.58-.6,.14-1.42-.46-2.41-.8-.75-.29v-.12c0-.14,.19-.22,.41-.19,.58,.11,1.17,.15,1.76,.14,.14,0,.31-.22,.48-.53,.3-.63,.56-1.29,.77-1.95l.41-1.33,1.64-4.82,.7-2.17,.22-.55c.14-.32,.2-.66,.19-1.01,0-.17-.24-.34-.63-.51-.48-.28-.94-.59-1.37-.94-.03-.09-.03-.19,0-.29l1.16,.39,3.4,1.25,1.13,.36,1.54,.41,.51,.19,.75,.29,1.59,.53h.17l.92,.29h0l.14,.29Zm-9.16,4.26l-.41,1.16c-.56,1.5-1.05,3.03-1.45,4.58-.03,.38,.1,.76,.36,1.04,.51,.46,1.12,.79,1.78,.96,.95,.33,2,.28,2.92-.14,.92-.38,1.64-1.15,1.95-2.1,.38-.93,.31-1.99-.19-2.87-.62-.95-1.57-1.65-2.67-1.95l-1.01-.34-1.01-.29h-.27v-.05Zm20.43,2.41c-1.85,1.61-3.58,3.35-5.18,5.2l-.99,1.04-2.6,2.82c-.14,.13-.26,.27-.36,.43-.02,.12-.02,.24,0,.36,.36,.3,.76,.56,1.18,.77l.77,.43c.03,.07,.03,.15,0,.22v.14l-.94-.41-1.95-.99-.75-.36-1.01-.43-.31-.12-.65-.34c.04-.09,.1-.17,.17-.24,.1-.03,.21-.03,.31,0,.52,.3,1.11,.48,1.71,.51,.52-.15,1-.45,1.37-.84,.58-.51,1.6-1.52,3.06-3.01l1.13-1.11,2.41-2.41,1.57-1.54c1.03-1,1.78-1.8,2.26-2.41l.31,.12,.36,.19s0,1.88-.34,5.44-.51,6.31-.72,8.17v1.73c-.04,.17-.04,.34,0,.51,.17,.21,.37,.4,.6,.55l.36,.34,.36,.36c0,.06,0,.13,0,.19v.14l-.48-.22-1.9-.92-1.18-.58-1.33-.34c-.33-.13-.64-.32-.92-.55,.05-.1,.11-.19,.19-.27,.4,.06,.8,.19,1.16,.39,.31,.15,.64,.25,.99,.29,.08-.08,.14-.17,.19-.27,.11-.36,.17-.73,.19-1.11,0-.41,0-.8,.14-1.18s.12-1.35,.31-3.69,.34-4.24,.41-5.71v-1.18c0-.09,0-.18,0-.27l.07,.12Zm21.95,13.25c.2-.25,.35-.54,.43-.84,0,0-.22-.34-.65-.7l-.27-.27-.27-.43c.03-.13,.09-.25,.17-.36l.46,.24,1.2,.96,1.25,.92,1.83,1.13-.29,.31c-.36-.09-.7-.23-1.01-.43-.21-.15-.46-.24-.72-.27-.12,0-.34,.24-.6,.63l-.31,.46-1.25,1.81-.65,.89-1.16,1.69-1.16,1.61-.96,1.45c-.59,.74-1.09,1.55-1.49,2.41,0,.14,.22,.41,.6,.82,.25,.25,.48,.53,.67,.82,.08,.11,.08,.25,0,.36h-.12c-.63-.63-1.31-1.2-2.05-1.71-.97-.67-2-1.26-3.06-1.78v-.19l.14-.17c.39,.06,.77,.2,1.11,.41,.67,.37,1.18,.31,1.52-.17l.96-1.37,.27-.36,.31-.41,4.82-6.79-6.58,1.57-2.12,.51c-.84,.19-1.78,.46-2.77,.77l-1.52,.46c-.23,.3-.43,.64-.58,.99-.06,.15-.06,.31,0,.46,.15,.22,.33,.42,.53,.6,.25,.25,.48,.53,.67,.82,.07,.1,.07,.23,0,.34h0c-.63-.64-1.31-1.22-2.05-1.73-.97-.67-2-1.26-3.06-1.78l.12-.19,.12-.17c.39,.06,.77,.2,1.11,.41,.67,.39,1.18,.34,1.52-.14l.96-1.37,.27-.34,.29-.41,.67-.99,.8-1.16,2.41-3.3,1.47-2.12c.16-.21,.29-.43,.39-.67,.03-.08,.03-.16,0-.24-.19-.22-.4-.42-.63-.6l-.27-.27-.27-.27c.04-.13,.11-.25,.19-.36l.46,.24,1.2,.94,1.25,.92,1.83,1.13c-.08,.12-.18,.22-.29,.31-.36-.09-.7-.24-1.01-.43-.36-.22-.6-.29-.72-.27s-.31,.24-.6,.63l-.96,.43-1.25,1.81-.65,.89-1.18,1.69-1.16,1.64-1.25,1.83,3.28-.89,2.41-.58,3.18-.75c1.45-.34,2.77-.67,4.05-1.04v.05Zm6.07,12.21c.73,.46,1.55,.75,2.41,.87,.73,.01,1.46-.11,2.14-.36,1.09-.4,2.21-.73,3.35-.99,.53-.07,1.06-.07,1.59,0,.46,.04,.9,.22,1.25,.53,.3,.26,.49,.64,.53,1.04,.05,.35-.06,.7-.29,.96-.2,.2-.46,.34-.75,.39-.31,.08-.64-.01-.87-.24-.4-.38-.5-.97-.27-1.47,.1-.31,.1-.5,0-.58-.2-.12-.42-.19-.65-.19-1.02,.12-2.03,.37-2.99,.75-.71,.25-1.43,.45-2.17,.6-.69,.1-1.39,0-2.02-.29,.48,.38,.86,.85,1.13,1.4,.18,.51,.27,1.05,.27,1.59-.09,1.72-.28,3.43-.58,5.13-.11,.68-.16,1.36-.14,2.05,.05,.51,.26,.99,.6,1.37,.15,.17,.27,.36,.39,.55,.04,.06,.04,.13,0,.19h0m-.14,0c-.29-.29-.65-.65-1.08-1.11l-.67-.67c-.31-.27-.64-.52-.99-.75,.29-1.37,.55-2.97,.8-4.82,.24-1.21,.3-2.46,.17-3.69-.2-.71-.59-1.34-1.13-1.83l-1.2,1.28-1.08,1.23c-.47,.55-1.04,1.18-1.71,1.9-.21,.19-.3,.48-.22,.75,.15,.37,.37,.7,.65,.99,.09,.1,.17,.22,.24,.34-.02,.09-.06,.17-.12,.24-.08,.05-.18,.05-.27,0l-.29-.24-.77-.84c-.41-.46-.7-.77-.92-.96l-.75-.6c-.51-.39-1-.81-1.47-1.25l-.24-.24,.22-.27c.07-.04,.15-.04,.22,0,.5,.41,1.06,.74,1.66,.96,.27-.01,.52-.15,.67-.36l.77-.84,1.49-1.59,.67-.67,2.17-2.41,1.47-1.54,1.13-1.25c.34-.3,.61-.68,.77-1.11-.06-.22-.19-.42-.36-.58v-.14l-.55-.6c-.05-.1-.05-.22,0-.31h.14l.48,.39c1.61,1.48,2.72,2.47,3.35,2.96l.65,.65c.04,.07,.04,.15,0,.22h-.12c-.17-.06-.32-.15-.46-.27-.35-.31-.77-.52-1.23-.6-.35,.02-.68,.2-.89,.48l-.14,.17-3.04,3.23-.82,.48,2.79,13.3Zm1.01,.41c.1,.03,.19,.09,.27,.17l.17,.22,.19,.22c.23,.28,.5,.53,.8,.75,.35,.11,.71,.11,1.06,0,1.19-.26,2.37-.6,3.52-1.01l1.28-.43,1.52-.46,3.11-1.04,3.4-1.08,1.76-.63,.22,.27,.24,.34c-.34,.7-.72,1.38-1.16,2.02-.24,.36-.58,.92-1.01,1.66l-2.7,4.38-1.47,2.41c-.87,1.32-1.39,2.12-1.57,2.41-.14,.24-.23,.5-.27,.77,.04,.15,.1,.3,.17,.43l.22,.51c.11,.24,.2,.49,.27,.75l-.12,.17h-.17l-.34-.41-1.28-1.69-.7-.94-.89-1.11-.17-.24-.14-.22-.17-.19c-.01-.07-.01-.15,0-.22l.29-.14,.22,.14,.82,.92c.16,.2,.34,.37,.55,.51l.29-.14c.26-.28,.49-.59,.67-.92l.65-.99c.21-.31,.87-1.35,1.98-3.13-.13-.25-.29-.49-.46-.72l-1.57-1.98-.46-.6c-.18-.23-.37-.45-.58-.65l-.53,.14-3.18,1.18c-.68,.2-1.35,.44-2,.72-.09,.08-.16,.18-.22,.29,.09,.21,.2,.41,.31,.6l.87,1.35c.03,.07,.03,.15,0,.22h-.17l-.51-.63c-.39-.5-.82-1.08-1.3-1.76l-.48-.65-.55-.67-.36-.43-.43-.6h.22l-.1,.14Zm9.01,0c.48,.69,1.05,1.49,1.71,2.41,.37,.48,.71,.89,1.04,1.23,.18-.24,.35-.49,.51-.75l1.25-2.05,1.49-2.41v-.22l-1.28,.34c-1.28,.36-2.24,.65-2.92,.92l-.92,.31-.63,.22-.36,.14h0l.1-.14Zm20.74,19.11c-.49,.39-1,.75-1.54,1.06l-.43,.24-.14-.19v-.19c.6-.67,.96-1.51,1.04-2.41,.04-.98-.22-1.94-.75-2.77-.24-.44-.55-.84-.92-1.18-1.05-.94-2.4-1.48-3.81-1.52-.81-.02-1.63,.08-2.41,.31-.84,.24-1.65,.58-2.41,1.01-1.26,.67-2.36,1.61-3.23,2.75-.65,.86-1,1.91-.99,2.99,.03,.94,.28,1.86,.75,2.67l.29,.48c.26,.36,.54,.7,.84,1.01,.36,.36,.77,.68,1.2,.94,.43,.23,.89,.39,1.37,.48,.56,.08,1.13,.08,1.69,0h0c.02,.06,.02,.13,0,.19l-.34,.17-2.72,.75-.36-.34c-.9-.86-1.66-1.86-2.24-2.96-.5-.79-.89-1.64-1.18-2.53-.17-.7-.28-1.42-.31-2.14-.06-.81,.03-1.63,.27-2.41,.27-.83,.69-1.6,1.25-2.26,.68-.78,1.49-1.42,2.41-1.9,.74-.45,1.56-.78,2.41-.96,.85-.12,1.72-.12,2.58,0,.92,.09,1.82,.34,2.65,.75,.83,.41,1.57,.96,2.19,1.64,.6,.75,1.13,1.55,1.57,2.41,.43,.75,.74,1.56,.92,2.41,.16,.54,.23,1.1,.19,1.66l.17-.14Zm5.95,12.26h-.43l-.77-1.28c-.14-.28-.33-.53-.58-.72-.24-.08-.5-.08-.75,0-.65,.15-1.3,.33-1.93,.55l-1.93,.72h-.24l-.43,.17c.43,.95,.8,1.92,1.11,2.92,.67,1.45,.75,3.09,.24,4.6-.51,.96-1.37,1.68-2.41,2-1.21,.39-2.53,.16-3.54-.6-1.26-.91-2.17-2.22-2.58-3.71l-.55-1.66-.19-.51c-.19-.53-.36-1-.51-1.4l-.8-2.41c-.09-.25-.16-.51-.22-.77h0c.14,0,.29,0,.41,.22,.26,.53,.58,1.03,.94,1.49,.23,.1,.49,.1,.72,0,.69-.15,1.36-.34,2.02-.58l1.3-.46,4.82-1.61,2.17-.75,.58-.17c.34-.08,.66-.24,.94-.46,0-.12,.12-.41,0-.82-.13-.59-.21-1.2-.24-1.81,.07-.09,.16-.16,.27-.19l.14,.46,.24,.7,.17,.6,.65,2.1c.31,.95,.71,2.03,1.23,3.25l.14,.12Zm-7.73-.31l-1.18,.36c-2.73,.88-4.24,1.41-4.53,1.59-.31,.2-.53,.53-.6,.89-.09,.62-.02,1.25,.22,1.83,.31,1.04,1.03,1.91,2,2.41,.85,.45,1.85,.54,2.77,.24,.99-.26,1.8-.98,2.19-1.93,.37-1.02,.37-2.14,0-3.16-.23-.82-.51-1.62-.84-2.41l-.02,.17Zm-4.46,10.65c.12,.13,.22,.29,.29,.46,.13,.35,.29,.68,.46,1.01h0c.19,.46,.43,.7,.67,.75,.96-.12,1.9-.36,2.79-.72l1.28-.43,5.16-1.71,1.73-.55,1.35-.51,.27-.24c.04-.5-.01-1.01-.17-1.49-.1-.32-.16-.65-.17-.99,0,0,.12-.19,.31-.24l.65,2.1,.55,1.83,1.11,3.16h-.24s-.17-.31-.36-.7c-.18-.47-.42-.9-.72-1.3-.16-.18-.96-.02-2.41,.46l-6.72,2.24-.51,.14-.6,.19c-.76,.21-1.5,.49-2.22,.82-.22,.15-.35,.39-.36,.65-.01,.35,.04,.7,.14,1.04,.14,.48,.17,.77,0,.84l-.31,.14-.53-1.49-.29-.99-.53-1.54-.84-2.65v-.19l.34-.14-.12,.07Z"/>
        <path class="cls-1" d="M24.39,141.24l1.81,.36c.15-.04,.31-.04,.46,0,.03,.06,.03,.13,0,.19,0,.14-.16,.31-.48,.51-.17,.09-.31,.22-.43,.36-.03,.13-.03,.26,0,.39v.63l.17,2.77,.24,3.28v.96l.17,1.81v1.28c0,.11,.06,.2,.14,.27l.82,.34c.24,0,.36,.22,.36,.36,.01,.08,.01,.16,0,.24h-4.51c-.02-.07-.02-.15,0-.22-.02-.05-.02-.11,0-.17,.17-.1,.34-.17,.53-.22,.53-.13,1.03-.37,1.47-.7,.2-.19,.33-.43,.39-.7,.07-.7,.07-1.42,0-2.12,0-.9-.06-1.56-.19-1.98h-.87l-7.23,.6h-1.64l-1.57,.12h-.87c-.33,.13-.56,.42-.6,.77-.17,.23-.27,.51-.29,.8-.13,.74-.2,1.23-.22,1.47,.02,.12,.02,.24,0,.36h-.43v-3.73l-.19-1.71-.14-1.25c-.01-.22-.01-.43,0-.65v-.17c.12-.04,.24-.04,.36,0,.08,.13,.13,.28,.14,.43,.09,.38,.2,.76,.34,1.13,.08,.32,.23,.61,.43,.87,.08,.03,.16,.05,.24,.05,.67,.05,1.35,.05,2.02,0h2l4.36-.36h.94l3.13-.22c.03-.63,.03-1.27,0-1.9,0-.7-.12-1.39-.36-2.05-.62-.71-1.37-1.3-2.22-1.73-.41-.22-.63-.43-.65-.63h.12l.87,.12,1.25,.19,.12-.14Zm4.82,20.79h-.43l-.65-1.35c-.16-.27-.37-.5-.63-.67-.24-.08-.5-.08-.75,0-.67,.09-1.33,.22-1.98,.39l-1.98,.53h-.24l-.46,.12c.35,.98,.63,1.99,.84,3.01,.53,1.5,.47,3.15-.17,4.6-.61,.93-1.56,1.57-2.65,1.78-1.24,.28-2.55-.06-3.49-.92-1.17-1.01-1.96-2.39-2.24-3.9l-.39-1.71-.14-.53c-.14-.55-.27-1.03-.36-1.45l-.58-2.41c-.06-.26-.11-.53-.14-.8h.12c.17,0,.29,0,.39,.24,.22,.55,.49,1.07,.82,1.57,.2,.14,.46,.19,.7,.14,.74-.18,1.46-.4,2.17-.67l1.33-.34,4.99-1.18,2.22-.55,.58-.12c.34-.05,.67-.17,.96-.36,.12,0,.17-.39,0-.8-.05-.6-.05-1.21,0-1.81,.08-.08,.18-.14,.29-.17l.17,.51,.17,.72,.12,.63,.46,2.14c.22,.96,.53,2.1,.96,3.35Zm-7.66-.99l-1.2,.27c-2.79,.64-4.34,1.04-4.65,1.18-.32,.17-.57,.47-.67,.82-.17,.61-.17,1.25,0,1.86,.19,1.1,.83,2.07,1.76,2.67,.81,.53,1.8,.7,2.75,.48,1.03-.16,1.93-.8,2.41-1.73,.45-.99,.54-2.11,.24-3.16-.17-.82-.39-1.62-.65-2.41l.02,.02Zm-5.42,10.12c.11,.15,.19,.31,.24,.48,.1,.35,.22,.7,.36,1.04h0c.17,.46,.36,.75,.6,.82,.99,.01,1.98-.11,2.94-.36l1.3-.31,5.3-1.25,1.78-.39,1.37-.39,.29-.22c.1-.5,.1-1.02,0-1.52-.04-.33-.04-.66,0-.99,0,0,.14-.17,.34-.22l.46,2.14,.41,1.88,.8,3.11h-.36s-.14-.31-.31-.75c-.14-.48-.34-.93-.6-1.35-.14-.18-.95-.1-2.41,.24l-6.89,1.64h-.51l-.96,.27c-.77,.15-1.53,.36-2.26,.63-.23,.13-.38,.36-.41,.63-.06,.35-.06,.71,0,1.06v.87l-.34,.12-.27-1.47-.19-1.01-.39-1.57-.6-2.7v-.22h.34l-.02-.22Zm12.89,30.81l-3.16-6.65-3.18-6.65-.65-1.35-1.76-3.23-.82-1.57c-.17-.36-.53-.99-1.04-1.88l.41-.14c.27,.24,.5,.53,.67,.84,.1,.21,.24,.4,.41,.55,.68-.12,1.33-.36,1.93-.7l1.86-.94,6.53-3.11c.57-.26,1.13-.56,1.66-.89,.24-.17,.39-.31,.41-.41,0-.34-.06-.67-.17-.99-.07-.28-.13-.56-.17-.84-.01-.04-.01-.08,0-.12,0,0,.17,0,.24,.17v.22l.22,.46c.17,.36,.36,.82,.58,1.37s.29,.67,.41,.94l1.33,2.22,.24,.48h-.24c-.27-.19-.5-.44-.67-.72-.2-.41-.51-.75-.89-.99-.4-.05-.81,.04-1.16,.27l-.6,.31-.63,.31-2.79,1.3-1.45,.7-5.54,2.75c.11,.33,.23,.65,.39,.96l.67,1.35,.77,1.64,.46,.99c.22,.44,.48,.86,.77,1.25,.43-.12,.85-.29,1.25-.51l1.93-.94,6.91-3.3c.57-.26,1.13-.56,1.66-.89,.24-.17,.39-.31,.41-.41,0-.34-.06-.67-.17-.99-.08-.28-.13-.56-.17-.84-.01-.04-.01-.08,0-.12,0,0,.17,0,.24,.17v.22l.22,.46c.18,.35,.37,.81,.58,1.37,.14,.36,.29,.67,.41,.94l1.11,2.14,.24,.48h-.24c-.27-.19-.5-.44-.67-.72-.2-.41-.51-.75-.89-.99-.4-.05-.81,.04-1.16,.27l-.6,.31-.63,.31-2.79,1.3-5.01,2.41-1.93,.96c.14,.4,.59,1.38,1.33,2.94l.84,1.81c.25,.5,.54,.99,.87,1.45l1.01-.41,2.41-1.25,3.52-1.35,2.75-1.28,.63-.29c.57-.26,1.13-.56,1.66-.89,.24-.17,.39-.31,.41-.41,0-.34-.06-.67-.17-.99-.07-.28-.13-.56-.17-.84-.01-.04-.01-.08,0-.12,0,0,.17,0,.24,.17v.22l.22,.46c.17,.36,.36,.82,.58,1.37s.29,.67,.41,.94l1.11,2.14,.24,.48h-.24c-.26-.19-.48-.42-.65-.7-.2-.41-.51-.75-.89-.99-.4-.05-.81,.04-1.16,.27l-.6,.31-.63,.31-2.75,1.28-.72,.34-2.1,1.04-2.41,1.13c-.92,.45-1.41,.78-1.49,.99-.05,.49,.01,.99,.19,1.45,.14,.48,.12,.75,0,.82l-.17,.07Zm10.65,.63c.65,.57,1.41,.98,2.24,1.23,.72,.13,1.45,.13,2.17,0,1.12-.23,2.26-.38,3.4-.46,.53,0,1.06,.07,1.57,.22,.44,.11,.84,.37,1.13,.72,.26,.31,.39,.71,.36,1.11,0,.35-.17,.67-.43,.89-.23,.17-.51,.26-.8,.27-.31,.02-.62-.13-.8-.39-.32-.45-.32-1.05,0-1.49,.14-.29,.14-.48,0-.58-.18-.15-.4-.25-.63-.29-1.04-.04-2.07,.04-3.08,.27-.74,.14-1.49,.23-2.24,.27-.69,0-1.37-.22-1.95-.6,.36,.43,.63,.93,.8,1.47,.09,.53,.09,1.08,0,1.61-.36,1.68-.82,3.34-1.37,4.96-.22,.65-.38,1.32-.48,2-.03,.51,.11,1.02,.39,1.45,.12,.19,.23,.39,.31,.6,.03,.05,.03,.12,0,.17h-.12m-.14,0c-.24-.31-.55-.75-.89-1.25l-.55-.77c-.27-.32-.56-.62-.87-.89,.5-1.3,1.01-2.84,1.54-4.63,.42-1.16,.66-2.38,.72-3.61-.09-.73-.38-1.41-.84-1.98l-1.4,1.06-1.28,1.06-1.98,1.61c-.25,.15-.38,.44-.34,.72,.1,.38,.27,.74,.51,1.06,.08,.12,.14,.25,.19,.39-.04,.08-.1,.16-.17,.22-.08,.05-.18,.05-.27,0l-.24-.29-.63-.94c-.34-.51-.58-.87-.75-1.08-.2-.24-.41-.48-.63-.7-.44-.47-.86-.96-1.25-1.47l-.22-.27,.27-.24c.07-.04,.15-.04,.22,0,.43,.48,.93,.89,1.49,1.2,.27,.03,.53-.07,.72-.27l.89-.7,1.73-1.35,.77-.55,2.53-2.07,1.69-1.3,1.33-1.06c.55-.46,.87-.77,.92-.99-.03-.23-.12-.45-.27-.63v-.17l-.43-.67c-.05-.1-.05-.22,0-.31h.17l.41,.46c1.33,1.7,2.28,2.85,2.84,3.45,.16,.26,.34,.51,.53,.75,.03,.06,.03,.13,0,.19h-.14c-.16-.09-.29-.2-.41-.34-.29-.36-.67-.63-1.11-.8-.35-.03-.69,.1-.94,.34l-.17,.14-3.49,2.7-.53,.41,.31,13.56Zm17.06-3.95l-.36,.22-1.28-.77c-.25-.18-.54-.31-.84-.36-.25,.03-.49,.14-.67,.31-.51,.44-.99,.9-1.45,1.4l-1.37,1.54-.17,.17-.31,.36c.85,.63,1.65,1.31,2.41,2.05,1.28,.96,2.15,2.37,2.41,3.95-.05,1.12-.55,2.17-1.4,2.92-.89,.91-2.16,1.34-3.42,1.13-1.54-.2-2.95-.93-4.02-2.05l-1.25-1.23-.41-.36-1.08-1.11-1.86-1.61-.55-.58h.46c.48,.34,.98,.63,1.52,.87,.17,0,.39,0,.67-.27,.53-.45,1.04-.93,1.52-1.45l.94-1.01,3.54-3.71,1.54-1.88,.43-.43c.26-.23,.47-.52,.6-.84,0-.17,0-.41-.36-.72-.4-.46-.75-.95-1.06-1.47,.02-.11,.07-.21,.14-.29l.36,.34,.53,.51,.43,.46,1.57,1.57c.72,.69,1.6,1.45,2.63,2.29l.17,.07Zm-7.01,3.35l-.87,.89c-1.99,2.07-3.08,3.25-3.25,3.54-.14,.34-.14,.72,0,1.06,.21,.59,.58,1.12,1.06,1.52,.76,.82,1.82,1.28,2.94,1.28,.92-.03,1.79-.41,2.43-1.06,.74-.7,1.12-1.71,1.01-2.72-.16-1.08-.69-2.07-1.52-2.79-.59-.59-1.2-1.14-1.86-1.66l.05-.05Zm.96,11.44c.17,.06,.34,.15,.48,.27,.28,.24,.57,.47,.87,.67h0c.39,.31,.7,.43,.94,.36,.8-.55,1.52-1.21,2.14-1.95l.92-.96,3.76-3.95,1.28-1.3c.29-.29,.6-.65,.94-1.08,0-.11,0-.23,0-.34-.19-.47-.48-.9-.84-1.25-.23-.24-.44-.5-.6-.8,0,0,0-.22,.17-.36l1.54,1.54,1.37,1.37,2.41,2.17-.27,.24-.65-.46c-.38-.32-.8-.59-1.25-.8-.22,0-.88,.51-1.95,1.54l-4.82,5.13-.36,.36-.43,.43c-.57,.54-1.09,1.13-1.57,1.76-.12,.23-.12,.51,0,.75,.15,.32,.35,.62,.6,.87,.36,.36,.51,.6,.48,.72-.06,.11-.13,.2-.22,.29l-1.16-1.08-.72-.75-1.18-1.11-2-1.93-.14-.14,.22-.27,.05,.05Zm31.32,7.73c.26-.24,.47-.54,.6-.87,0,0-.24-.34-.65-.7l-.29-.27-.29-.27c.03-.13,.09-.25,.17-.36l.46,.24,1.23,.94,1.25,.89,1.83,1.11-.29,.31c-.36-.08-.7-.22-1.01-.41-.21-.14-.46-.23-.72-.24-.12,0-.34,.24-.6,.63l-.29,.46-1.23,1.83-.63,.89-1.13,1.71-1.13,1.64-.94,1.45c-.57,.75-1.06,1.55-1.45,2.41,0,.14,.21,.41,.63,.8,.25,.25,.47,.53,.67,.82,.08,.11,.08,.25,0,.36h0c-.64-.62-1.33-1.19-2.07-1.69-.99-.65-2.03-1.23-3.11-1.73v-.22l.14-.17c.39,.06,.77,.2,1.11,.41,.67,.37,1.18,.31,1.52-.19l.94-1.4,.27-.36,.31-.41,4.6-6.89-6.84,1.78-2.1,.55c-.85,.21-1.77,.48-2.75,.82l-1.49,.48c-.23,.31-.41,.65-.55,1.01-.06,.15-.06,.31,0,.46,.16,.22,.35,.42,.55,.6,.26,.25,.49,.52,.7,.82,.07,.1,.07,.23,0,.34h0c-.64-.62-1.33-1.19-2.07-1.69-.99-.65-2.03-1.23-3.11-1.73l.12-.19,.12-.17c.39,.06,.77,.2,1.11,.41,.7,.36,1.2,.31,1.52-.17l.94-1.4,.27-.34,.29-.41,.65-1.01,.77-1.16,2.24-3.32,1.42-2.14c.15-.21,.27-.43,.36-.67,.03-.08,.03-.16,0-.24-.19-.22-.4-.42-.63-.6l-.29-.27-.29-.27c.03-.13,.09-.25,.17-.36l.46,.24,1.23,.94,1.28,.89,1.83,1.11c-.08,.12-.16,.24-.27,.34-.36-.08-.7-.22-1.01-.41-.36-.19-.63-.29-.75-.24s-.31,.24-.58,.63l-.29,.46-1.23,1.83-.63,.89-1.16,1.69-1.13,1.66-1.23,1.86,2.94-1.23,2.41-.63,3.18-.82c1.42-.36,2.77-.72,4.02-1.11l-.1,.05Zm20.07,23.97l-6.75-2.96-6.79-2.87-1.37-.6-3.37-1.35-1.66-.65c-.39-.17-1.04-.41-2.02-.72,.05-.14,.13-.27,.22-.39,.36,.01,.72,.09,1.06,.22,.21,.09,.44,.14,.67,.14,.43-.53,.76-1.14,.99-1.78l.8-1.9,2.89-6.63c.26-.57,.49-1.16,.67-1.76,.06-.19,.06-.39,0-.58-.23-.26-.5-.48-.8-.65l-.67-.53s-.02-.1,0-.14h.51l.46,.19c.36,.14,.82,.39,1.35,.67l.92,.43,2.24,.89,.51,.19v.24c-.32,.06-.65,.06-.96,0-.42-.18-.88-.24-1.33-.17-.22,0-.46,.41-.7,.96l-.24,.63-.27,.65-1.25,2.82-.63,1.47-2.41,5.66c.29,.18,.6,.34,.92,.48l1.37,.58,1.66,.75,.99,.46c.45,.19,.92,.34,1.4,.46,.25-.38,.46-.78,.63-1.2l.84-1.95,3.04-7.04c.26-.57,.49-1.16,.67-1.76,.06-.2,.06-.41,0-.6-.22-.25-.48-.47-.77-.65-.24-.16-.46-.34-.67-.53-.02-.05-.02-.1,0-.14h.51l.46,.19c.37,.16,.82,.38,1.35,.65l.92,.43,2.24,.89,.51,.19v.24c-.32,.06-.65,.06-.96,0-.42-.18-.88-.24-1.33-.17-.22,0-.46,.41-.7,.96l-.24,.63-.27,.65-1.25,2.82-2.29,5.16-.82,2c.37,.21,1.35,.66,2.94,1.35l1.83,.82c.52,.21,1.05,.39,1.59,.53,.22-.4,.39-.73,.51-.99l1.06-2.58,1.42-3.2,1.23-2.77,.27-.63c.26-.57,.49-1.16,.67-1.76,.06-.19,.06-.39,0-.58-.23-.26-.5-.48-.8-.65l-.67-.53s-.02-.1,0-.14h.51l.46,.19c.37,.16,.81,.38,1.33,.65l.94,.43,2.24,.89,.51,.19-.12,.22c-.32,.06-.65,.06-.96,0-.42-.18-.88-.24-1.33-.17-.22,0-.46,.41-.7,.96l-.24,.63-.27,.65-1.25,2.82-.34,.72-.89,2.14-1.13,2.41c-.3,.52-.46,1.11-.48,1.71,0,.22,.43,.53,1.08,.96s.58,.48,.53,.63h0l-.17,.1Zm5.78-12.21l.94-1.59c.06-.17,.17-.32,.31-.43,.07-.03,.15-.03,.22,0,.14,0,.24,.24,.34,.6,.03,.19,.1,.37,.19,.53,.09,.11,.21,.19,.34,.24h0l.48,.17,2.67,.75,3.18,.84,.94,.24,1.76,.43h.29l.94,.31c.1,.05,.21,.05,.31,0l.58-.67c.17-.19,.31-.27,.46-.24h.22c.02,.14,.02,.29,0,.43l-.14,.46-.24,.96-.67,2.26c.01,.07,.01,.15,0,.22h-.24c-.06-.02-.12-.06-.14-.12-.03-.19-.03-.39,0-.58,.05-.54,0-1.09-.17-1.61-.12-.25-.31-.45-.55-.58-.64-.29-1.31-.52-2-.67l-1.93-.46c0,.29-.17,.58-.24,.82l-1.81,7.08c0,.27-.16,.8-.48,1.57l-.39,1.52-.24,.84c-.07,.2-.07,.41,0,.6,.17,.23,.39,.41,.65,.53l1.3,.7c.12,.04,.24,.11,.34,.19v.34l-1.59-.48-2.19-.36-1.69-.36-1.23-.27-.63-.19h-.14c.03-.12,.1-.23,.19-.31,.15-.04,.31-.04,.46,0h1.18c.32,.02,.64-.02,.94-.12,.11-.07,.19-.17,.24-.29,.26-.62,.47-1.27,.63-1.93l.51-1.93,1.08-4.22,.19-.92,.92-3.2c-.59-.23-1.19-.42-1.81-.58-.66-.24-1.35-.35-2.05-.34-.8,.34-1.53,.82-2.17,1.42-.34,.31-.6,.46-.8,.41h0s-.02-.1,0-.14c.12-.27,.25-.53,.41-.77,.31-.53,.51-.92,.58-1.11h-.24Zm12.29,16.5h1.01c.47,.07,.95,.07,1.42,0,.15-.18,.24-.4,.27-.63l.12-.82,.53-2.94,.22-1.4,.53-2.92,.53-3.3c.1-.44,.1-.9,0-1.35,0-.17-.51-.34-1.18-.48l-.77-.22c-.04-.07-.04-.17,0-.24-.01-.07-.01-.15,0-.22h.58l1.4,.31,.87,.12,2.02,.41,2.41,.39,1.16,.17,1.3,.29,1.64,.29h.19l.96,.14h0c.01,.07,.01,.15,0,.22-.04,.16-.09,.32-.14,.48,0,.22,0,.36-.12,.41-.14,.8-.23,1.49-.27,2.05h-.22c-.08-.28-.15-.56-.19-.84-.1-.48-.23-.94-.41-1.4-.07-.24-.18-.46-.34-.65-.2-.12-.42-.19-.65-.22l-1.04-.22h-.51l-3.32-.51h-1.08c-.27,.49-.44,1.03-.48,1.59l-.43,2.79-.29,1.61h1.04l.8,.17h.24l3.23,.53c.24,.07,.5,.07,.75,0,.23-.3,.39-.66,.46-1.04,.17-.58,.36-.89,.55-.94h.27c0,.06,0,.11,0,.17v.27c0,.29-.27,1.18-.53,2.67,0,.41-.12,.84-.17,1.35s0,.77,0,.82c0,.09,0,.18,0,.27h-.24c-.11-.35-.17-.72-.19-1.08,0-.55-.13-1.1-.39-1.59-.27-.28-.63-.45-1.01-.48h-.6l-1.28-.22-.75-.14c-.7-.14-1.41-.25-2.12-.31v.39l-.36,2.14-.24,1.35-.22,1.3c-.09,.46-.09,.94,0,1.4,0,.19,.39,.34,.82,.41h.7l.72,.14,1.57,.29c.99,.22,2,.33,3.01,.34,.48-.02,.95-.18,1.35-.46,.62-.54,1.16-1.18,1.59-1.88,.19-.29,.39-.43,.53-.39,.08,.02,.16,.06,.22,.12-.25,.47-.46,.95-.65,1.45-.18,.54-.32,1.08-.43,1.64-.03,.23-.13,.44-.29,.6h-.24l-3.25-.53-1.47-.27-3.47-.55-1.42-.24-.8,.12-3.08-.46c-.07,.02-.15,.02-.22,0-.03-.06-.03-.13,0-.19h0l-.12-.1Z"/>
        <path class="cls-1" d="M137.99,250.57h7.25c1.01,0,2,.21,2.92,.63,.72,.38,1.29,.98,1.64,1.71,.35,.7,.52,1.46,.51,2.24-.03,1.19-.53,2.32-1.4,3.13-.95,.89-2.24,1.34-3.54,1.23-.71,.01-1.4-.23-1.95-.67-.13-.08-.22-.2-.27-.34,.05-.01,.1-.01,.14,0,.11-.02,.23-.02,.34,0,.33,.11,.67,.17,1.01,.17,.62,.02,1.23-.12,1.78-.41,.55-.27,1.01-.71,1.3-1.25,.3-.55,.46-1.16,.48-1.78,.02-.62-.11-1.24-.39-1.81-.26-.56-.65-1.05-1.13-1.42-.38-.25-.81-.43-1.25-.53-.43-.13-.88-.21-1.33-.24-.58-.08-1.18-.04-1.73,.14v12.74c-.04,.29-.04,.58,0,.87l1.64,.43,.7,.19c.07,.03,.13,.09,.17,.17-.02,.08-.06,.16-.12,.22-.1,.03-.21,.03-.31,0h-.65c-.53-.08-1.06-.14-1.59-.17h-3.98v-.31l1.54-.24c.17-.02,.33-.09,.46-.19,.11-.2,.16-.42,.14-.65v-11.56c0-.55,0-.92-.22-1.08-.65-.4-1.38-.64-2.14-.7-.02-.07-.02-.15,0-.22-.02-.07-.02-.15,0-.22l-.02-.07Zm21.68,14.94c.38-.26,.8-.43,1.25-.51,.3-.03,.6-.11,.87-.24,.02-.06,.02-.13,0-.19,.1-.8,.1-1.61,0-2.41-.13-1.61-.29-3.82-.48-6.65-.12-2.12-.24-3.45-.29-3.95v-.31h-2.7c-.13-.13-.14-.34,0-.48,0,0,0,0,0,0h.7c.53,.04,1.06,.04,1.59,0l1.11-.19h1.06l.19,.19,.63,1.04,4.19,6.91,1.73,2.92c.72-1.97,1.33-3.98,1.81-6.02,0-.12,0-.24,0-.36,.06-.15,.11-.3,.14-.46l.53-1.95c.12-.46,.22-.84,.29-1.18,.29-1.3,.46-2.05,.53-2.24l.39-.12h.48l2.12-.22,1.49-.22v.19c0,.07,0,.14,0,.22-.26,.18-.56,.29-.87,.34-.45,.06-.88,.18-1.3,.34-.15,.06-.27,.17-.34,.31-.04,.36-.04,.72,0,1.08v1.08c.14,1.17,.42,3.13,.82,5.88l.27,2.41,.19,1.47c.02,.35,.09,.69,.22,1.01,.14,.14,.31,.22,.51,.24,.7,.12,1.41,.18,2.12,.19,.02,.05,.02,.1,0,.14v.24h-.53l-1.49,.14h-.87c-1.59,.19-2.65,.34-3.18,.43h-.77v-.14c-.01-.07-.01-.14,0-.22,.33-.17,.67-.29,1.04-.36,.36-.13,.7-.32,1.01-.55,.06-.61,.06-1.22,0-1.83l-.34-2.41c0-.27,0-.75-.14-1.45s-.19-1.86-.39-3.42-.29-2.19-.43-2.84c0,.29-.29,.92-.55,1.88l-.12,.46h0l-1.23,4.31-.43,1.66-.58,2.02c-.24,.93-.44,1.73-.6,2.41,0,.31-.12,.58-.17,.77h-.27c-1.19-2.46-2.56-4.96-4.12-7.52-1.56-2.55-2.63-4.23-3.23-5.04,0,.34,0,1.33,.14,2.94s.36,4.14,.65,6.5c.12,.81,.28,1.62,.48,2.41,.05,.24,.2,.44,.41,.55,.51,.11,1.03,.11,1.54,0h.89c.01,.08,.01,.16,0,.24,.01,.07,.01,.14,0,.22l-3.66,.31-1.23,.22-1.33,.22v-.31l.24-.12Zm30.5-18.77c-.06-.31-.19-.6-.36-.87-.32-.07-.65-.07-.96,0h-.77c-.08-.11-.13-.23-.17-.36l.48-.19,1.52-.31,1.49-.39,2.05-.67c.02,.14,.02,.29,0,.43-.29,.21-.62,.37-.96,.48-.26,.06-.49,.2-.67,.39-.08,.28-.08,.58,0,.87l.14,.53,.58,2.12,.27,1.06,.53,1.98,.48,1.93,.48,1.66c.19,.92,.48,1.82,.87,2.67,.33,.09,.68,.09,1.01,0,.35-.03,.71-.03,1.06,0,.12,.03,.22,.12,.24,.24,.01,.05,.01,.1,0,.14h-.19c-.89,.07-1.77,.22-2.63,.46-1.14,.32-2.26,.72-3.35,1.2v-.22c0-.07,0-.14,0-.22,.3-.26,.65-.46,1.04-.58,.72-.27,1-.69,.84-1.25l-.43-1.61v-.94l-2.17-8-3.04,6.05c-.24,.53-.56,1.18-.96,1.95s-.8,1.64-1.2,2.6l-.63,1.45c.08,.38,.21,.74,.39,1.08,0,.19,.22,.29,.31,.31,.26,.03,.53,.03,.8,0,.35-.03,.71-.03,1.06,0,.12,.03,.22,.12,.24,.24,0,.05,0,.1,0,.14h-.31c-.9,.07-1.78,.22-2.65,.46-1.14,.32-2.26,.72-3.35,1.2v-.43c.3-.26,.66-.46,1.04-.58,.72-.29,1.01-.7,.87-1.28l-.46-1.61v-.92l-.34-1.16-.39-1.35-1.04-3.88c-.34-1.24-.56-2.04-.67-2.41-.05-.25-.14-.5-.27-.72-.05-.07-.11-.12-.19-.14-.29-.03-.58-.03-.87,0h-.77c-.08-.11-.13-.23-.17-.36l.48-.19,1.52-.31,1.49-.39,2.05-.67c.02,.14,.02,.29,0,.43-.3,.21-.64,.37-.99,.48-.39,.14-.63,.29-.67,.39-.07,.28-.07,.58,0,.87l.14,.53,.58,2.12,.27,1.06,.53,1.98,.51,1.93,.6,2.14,1.42-3.08,1.11-2.22,1.47-2.92c.67-1.33,1.25-2.58,1.81-3.78l-.12,.43Zm9.64,11.11v-.24c.2-.26,.46-.47,.75-.63,.32-.16,.62-.36,.89-.6,.1-.11,.16-.26,.17-.41,0-.27-.04-.54-.14-.8l-.36-.82-.31-.77-.41-.87-.55-1.4-.34-.89-1.25-2.96c-.19-.47-.39-.98-.6-1.54l-.46-1.16c-.14-.37-.31-.72-.51-1.06-.06-.08-.16-.14-.27-.14-.28,.03-.56,.11-.82,.22l-.72,.22c-.06-.05-.11-.1-.14-.17v-.22l.39-.19,1.04-.43c.72-.31,1.48-.66,2.26-1.06l1.76-.84v.17c.02,.06,.02,.13,0,.19-.02,.06-.07,.11-.12,.14-.58,.23-1.1,.6-1.52,1.06-.1,.22-.02,.66,.24,1.3,.5,1.17,1.03,2.37,1.59,3.59l.48,1.01c.49-.13,.98-.29,1.45-.48l.43-.17,1.59-.7,1.06-.41,2.72-1.25,.6-.31c-.48-1.27-.98-2.5-1.49-3.69-.26-.68-.56-1.34-.92-1.98-.06-.1-.15-.17-.27-.19l-1.2,.31h-.36c-.09-.1-.16-.21-.22-.34l.43-.27,.75-.27,2-.8c.43-.17,1.11-.53,2.07-1.01,.01,.14,.01,.27,0,.41-.26,.25-.56,.46-.89,.63-.2,.1-.39,.23-.55,.39-.11,.22-.11,.48,0,.7v.24l.22,.51,.53,1.25,.34,.77,.41,1.01,.82,1.88,.72,1.78,.75,1.64,.6,1.47c.13,.36,.33,.69,.58,.99,.08,.08,.2,.12,.31,.12l.96-.17c.3-.04,.6-.04,.89,0,.1,.03,.18,.1,.22,.19v.14h-.14c-.88,.2-1.75,.48-2.58,.84l-1.42,.65-1.69,.99v-.41c.26-.3,.58-.55,.94-.72,.3-.15,.55-.39,.7-.7,.09-.21,.09-.44,0-.65l-.67-1.57-.29-.77-1.18-2.67c-.04-.08-.11-.13-.19-.14-.99,.35-1.95,.77-2.87,1.28l-.77,.36-1.11,.43-1.54,.63-.63,.29-.55,.24c-.12,.04-.23,.13-.29,.24-.05,.13-.05,.28,0,.41l.34,.75,.82,2.07,.27,.63c.26,.67,.57,1.31,.94,1.93,.07,.12,.2,.21,.34,.24,.32,0,.63-.05,.94-.12h.84c-.04,.07-.1,.12-.17,.14h-.22l-.48,.19-1.4,.51-.96,.36-2.19,1.01-.51,.22,.14,.24Zm22.36-25.88c-.31-.46-.51-.7-.6-.72-.32,.03-.64,.14-.92,.31l-.36,.14-.36,.14c-.11-.09-.2-.19-.27-.31l.41-.31,1.37-.72,1.33-.77c.29-.17,.89-.58,1.78-1.2,.07,.12,.13,.25,.17,.39-.22,.29-.49,.54-.8,.75-.31,.24-.51,.43-.53,.55,.02,.3,.13,.58,.31,.82l.29,.46,1.13,1.88,.55,.94,1.06,1.76,1.01,1.73,.92,1.47c.43,.86,.95,1.67,1.57,2.41,.34,.01,.68-.06,.99-.22,.34-.12,.68-.21,1.04-.27,.13-.01,.25,.05,.31,.17,.01,.05,.01,.1,0,.14h-.14c-.84,.31-1.64,.7-2.41,1.16-1.01,.62-1.98,1.31-2.89,2.07l-.14-.19v-.19c.22-.34,.51-.62,.84-.84,.61-.47,.77-.95,.48-1.45l-.87-1.45-.22-.39-.24-.46-4.34-7.08-1.25,6.65c0,.58-.22,1.3-.39,2.14s-.31,1.81-.43,2.84l-.19,1.57c.18,.34,.41,.66,.67,.94,.1,.12,.25,.2,.41,.22,.26-.05,.52-.13,.77-.24,.34-.13,.68-.23,1.04-.29,.13-.01,.25,.05,.31,.17,0,.05,0,.1,0,.14h-.12c-.84,.32-1.64,.71-2.41,1.18-1.01,.62-1.98,1.31-2.89,2.07l-.12-.19v-.19c.22-.34,.51-.62,.84-.84,.63-.48,.8-.96,.48-1.45l-.87-1.45-.22-.39-.24-.43-.65-1.01-.72-1.18-2.26-3.45-1.4-2.14c-.12-.23-.28-.44-.46-.63-.07-.02-.15-.02-.22,0-.27,.08-.54,.18-.8,.31l-.36,.14-.36,.14c-.1-.09-.18-.2-.24-.31l.41-.31,1.35-.72,1.33-.77,1.78-1.2c.08,.12,.14,.25,.19,.39-.22,.29-.49,.54-.8,.75-.34,.24-.53,.43-.53,.55,.04,.29,.15,.56,.31,.8l.29,.46,1.13,1.88,.55,.94,1.06,1.76,1.01,1.71,1.16,1.9,.53-3.37,.46-2.41,.6-3.23c.29-1.45,.51-2.82,.7-4.12l.05-.05Zm14.05-11.85c.45,.43,.87,.88,1.25,1.37l.31,.41-.17,.19h-.17c-.76-.5-1.67-.74-2.58-.67-.96,.14-1.86,.57-2.58,1.23-.4,.3-.75,.66-1.04,1.06-.78,1.17-1.12,2.58-.96,3.98,.09,.77,.31,1.53,.63,2.24,.36,.8,.81,1.55,1.35,2.24,.84,1.16,1.91,2.12,3.16,2.82,.94,.52,2.02,.72,3.08,.55,.93-.15,1.81-.53,2.55-1.11l.43-.34c.31-.3,.6-.62,.87-.96,.3-.41,.55-.85,.75-1.33,.17-.46,.27-.94,.29-1.42,.03-.57-.03-1.14-.17-1.69v-.12h.17l.22,.29c.56,1.25,.93,2.11,1.11,2.58l-.29,.41c-.7,.97-1.55,1.82-2.51,2.53-.74,.61-1.55,1.12-2.41,1.52-.67,.27-1.36,.48-2.07,.63-.8,.15-1.61,.15-2.41,0-.86-.15-1.67-.47-2.41-.94-.85-.53-1.6-1.2-2.22-2-.57-.72-1.01-1.54-1.3-2.41-.27-.83-.41-1.69-.43-2.55-.04-.92,.08-1.84,.36-2.72,.29-.88,.74-1.7,1.33-2.41,.62-.69,1.3-1.32,2.05-1.88,.65-.51,1.37-.93,2.14-1.23,.52-.24,1.07-.37,1.64-.41l.02,.14Zm1.86-.29l-.96-1.61c-.1-.12-.18-.26-.22-.41-.03-.06-.03-.13,0-.19h.7c.18,.03,.37,.03,.55,0,.13-.02,.26-.08,.36-.17h0l.39-.31,2.02-1.9,2.41-2.41,.7-.67,1.28-1.3,.22-.19,.77-.63c.08-.07,.12-.18,.12-.29,0,0,0-.31-.29-.84s0-.41,0-.51l.19-.12,.34,.27,.31,.34,.7,.72,1.59,1.73c.05,.06,.09,.12,.12,.19,.02,.07,.02,.15,0,.22-.05,.02-.11,.02-.17,0-.18-.06-.35-.15-.51-.27-.44-.32-.94-.55-1.47-.67-.28-.03-.55,.03-.8,.17-.58,.4-1.13,.86-1.61,1.37-.64,.63-1.11,1.1-1.4,1.42l.58,.63,5.13,5.18,1.11,1.23,1.08,1.11,.6,.63c.13,.16,.31,.27,.51,.31,.29-.02,.56-.12,.8-.29l1.28-.77c.1-.08,.21-.15,.34-.19l.24,.27-1.23,1.13c-.67,.63-1.18,1.08-1.54,1.4l-1.18,1.25-.87,.92-.48,.43h-.17c-.09-.09-.15-.19-.17-.31,.05-.15,.13-.28,.24-.39,.24-.32,.45-.65,.65-.99,.19-.27,.32-.57,.39-.89,0-.13-.04-.26-.12-.36-.4-.55-.84-1.06-1.33-1.54l-1.4-1.45-3.06-3.11-.48-.36-2.19-2.26c-.5,.39-.97,.81-1.42,1.25-.54,.44-.98,.98-1.33,1.59-.15,.85-.15,1.73,0,2.58v.89h-.12c-.17-.24-.32-.49-.46-.75-.31-.55-.53-.92-.65-1.08l-.1,.02Zm9.4-11.64l.14-.24,.84-1.01,.41-.53,.63-.92,1.11-1.66c.27-.45,.62-.96,1.04-1.52,.57-.83,1.32-1.52,2.19-2.02,.74-.39,1.59-.52,2.41-.36,.77,.11,1.51,.41,2.14,.87,.95,.71,1.59,1.76,1.76,2.94,.17,1.29-.2,2.59-1.04,3.59-.39,.59-.98,1.01-1.66,1.2-.13,.05-.28,.05-.41,0-.02-.05-.02-.11,0-.17,.07-.09,.16-.16,.27-.22,.28-.2,.52-.44,.72-.72,.38-.49,.62-1.07,.7-1.69,.09-.61,0-1.23-.29-1.78-.28-.56-.68-1.05-1.18-1.42-.5-.37-1.07-.62-1.69-.72-.59-.15-1.21-.15-1.81,0-.43,.17-.82,.41-1.16,.72-.35,.28-.68,.59-.96,.94-.4,.43-.7,.95-.87,1.52h.12l1.08,.77,.17,.14,.77,.6c1.27,.96,2.07,1.54,2.41,1.73l.53,.39,4.38,3.11,.34,.29,.43,.36c.23,.18,.48,.32,.75,.43l1.3-1.08,.55-.46c.07-.02,.15-.02,.22,0,.02,.08,.02,.16,0,.24-.02,.1-.07,.19-.14,.27l-.43,.48c-.37,.38-.71,.79-1.04,1.2l-1.18,1.69-.77,.96-.39,.55-.24-.17,.67-1.4c.04-.16,.04-.32,0-.48-.1-.2-.25-.36-.43-.48l-.36-.29-.53-.41c-.74-.56-2.35-1.72-4.82-3.47l-3.47-2.55-.17-.12c-.46-.34-.8-.48-1.01-.43-.7,.3-1.32,.76-1.81,1.35h-.22c-.06-.05-.11-.12-.14-.19l.12,.17Zm12.84-15.2c1.47,1.93,3.08,3.75,4.82,5.44l.96,1.06,2.67,2.75c.12,.15,.25,.28,.41,.39h.36c.31-.35,.59-.73,.82-1.13l.46-.75c.07-.03,.15-.03,.22,0h.14l-.36,.72c-.31,.56-.67,1.2-1.08,1.9l-.41,.72-.48,.99-.14,.29-.39,.63c-.09-.05-.17-.11-.24-.19-.03-.1-.03-.21,0-.31,.33-.51,.52-1.09,.58-1.69-.12-.52-.38-1-.75-1.4-.48-.61-1.43-1.69-2.84-3.23l-1.04-1.2-2.22-2.41-1.45-1.66c-.95-1.08-1.68-1.88-2.19-2.41l.14-.31,.22-.36s1.86,.17,5.42,.63,6.29,.84,8.12,1.16l1.73,.19c.17,.04,.34,.04,.51,0,.22-.16,.42-.36,.58-.58l.36-.36,.36-.34h.34l-.24,.48-1.04,1.86-.65,1.16-.58,1.13c-.14,.33-.34,.63-.58,.89-.09-.05-.17-.11-.24-.19,.08-.4,.23-.78,.43-1.13,.17-.31,.28-.64,.34-.99l-.24-.22c-.36-.12-.73-.2-1.11-.24l-1.16-.22-3.47-.31c-2.31-.32-4.21-.56-5.69-.72l-1.18-.17-.24,.14Z"/>
        <path class="cls-1" d="M269.94,172.97c-.29-.14-.6-.22-.92-.24,0,0-.29,.29-.55,.77l-.19,.31-.19,.31c-.13,.02-.26,.02-.39,0,.04-.17,.09-.34,.14-.51l.58-1.57c.1-.16,.31-.63,.63-1.42,.13-.32,.37-1,.72-2.02l.36,.22c-.01,.36-.09,.72-.22,1.06-.07,.25-.07,.52,0,.77,0,.12,.29,.29,.75,.46l.51,.22,2.02,.84,.99,.46,1.88,.8,1.83,.8,1.61,.65c.84,.42,1.73,.74,2.65,.96,.14,0,.36-.29,.67-.77,.2-.29,.43-.57,.67-.82,.11-.08,.25-.08,.36,0h0v.12c-.49,.76-.91,1.57-1.25,2.41-.45,1.1-.82,2.22-1.11,3.37h-.41c-.03-.4,.03-.8,.17-1.18,.22-.75,0-1.23-.48-1.45l-1.54-.65-.41-.19-.46-.22-7.54-3.18,2.89,6.12c.27,.53,.58,1.18,.94,1.95s.82,1.64,1.33,2.55l.75,1.37c.34,.17,.71,.29,1.08,.36,.15,.06,.31,.06,.46,0,.18-.2,.34-.42,.48-.65,.2-.29,.42-.57,.67-.82,.1-.07,.23-.07,.34,0h0v.12c-.49,.76-.91,1.57-1.25,2.41-.45,1.1-.82,2.22-1.11,3.37h-.41c-.02-.4,.05-.8,.19-1.18,.24-.75,0-1.23-.46-1.47l-1.54-.65-.39-.19-.46-.22-1.11-.58-1.3-.53-3.71-1.57-2.41-.99c-.24-.12-.49-.2-.75-.24-.07-.02-.15-.02-.22,0-.18,.22-.33,.47-.46,.72l-.19,.31-.19,.31c-.13,.02-.26,.02-.39,0,.04-.16,.09-.32,.14-.48l.67-1.37c.1-.16,.31-.63,.63-1.42,.13-.32,.37-1,.72-2.02l.39,.22c-.02,.37-.09,.74-.22,1.08-.12,.41-.17,.65,0,.77,.2,.21,.45,.37,.72,.46l.51,.22,2.02,.84,.99,.46,1.88,.8,1.83,.8,2.05,.84-1.57-3.04-1.06-2.24-1.4-2.96c-.63-1.33-1.24-2.58-1.86-3.73l-.14-.05Zm2.96-16.53h.22l.43,.14,.43,.17c.79,.19,1.46,.34,2.02,.43,.84,.14,0,0,0,.17v.14l-.82,.14-.92,.19h-.36c-.34,.09-.67,.25-.94,.48-.23,.53-.4,1.08-.51,1.64l-.89,3.71v.6c.29,.13,.6,.23,.92,.29l3.35,.8,3.78,.96,.7,.17,2.12,.55,.67,.14,.7,.14c.58,.14,.94,.14,1.06,0,.25-.54,.44-1.1,.55-1.69,.05-.22,.13-.44,.22-.65h.46c0,.27-.14,.7-.29,1.3-.07,.26-.15,.52-.24,.77,0,0-.12,.39-.24,.84v.96l-.14,.53v.24c0,.19,0,.46-.14,.77l-.22,.96-.14,.72h-.36c.08-.8,.08-1.61,0-2.41-.38-.2-.78-.34-1.2-.41l-2.1-.53-3.37-.82-2.05-.53-2.6-.58c-.47-.13-.94-.21-1.42-.27-.08-.03-.16-.03-.24,0l-.48,.82-.48,.94c-.11,.03-.23,.03-.34,0,.11-.43,.21-.78,.29-1.04l.53-1.93,.31-1.45,.27-1.2,.67-2.58,.22-.8,.36-1.57v-1.33h.22Zm2.75-12.05c-.31-.06-.63-.06-.94,0-.15,.28-.24,.59-.27,.92v.36c0,.12,0,.24,0,.36h-.41c0-.18,0-.35,0-.53l.19-1.54c0-.19,.04-.71,.12-1.54,0-.34,0-1.05,0-2.14h.41c.11,.35,.16,.72,.14,1.08-.02,.26,.03,.52,.14,.75,.26,.14,.55,.21,.84,.19h.55l2.19,.14h1.08l2.05,.12,2,.17h1.73c.94,.11,1.88,.11,2.82,0,.21-.27,.34-.6,.39-.94,.09-.35,.21-.69,.36-1.01,.07-.11,.19-.16,.31-.14h.14s0,.1,0,.14c-.22,.86-.35,1.74-.41,2.63-.09,1.18-.09,2.36,0,3.54h-.46c-.15-.37-.23-.78-.22-1.18,0-.77-.34-1.18-.92-1.23h-2.63l-8.26-.53,4.82,4.82c.43,.4,.94,.92,1.52,1.54,.58,.63,1.27,1.28,2.07,1.98l1.16,1.06c.38,.05,.77,.05,1.16,0,.16,0,.3-.08,.41-.19-.02-.15-.04-.29-.07-.43,.09-.35,.21-.69,.36-1.01,.07-.11,.19-.16,.31-.14h.14v.14c-.22,.87-.36,1.76-.41,2.65-.09,1.19-.09,2.38,0,3.57h-.41c-.15-.37-.23-.78-.22-1.18,0-.77-.34-1.18-.92-1.23h-5.23l-3.9-.39-2.55-.17c-.26-.04-.52-.04-.77,0-.07,.02-.14,.06-.19,.12-.09,.27-.16,.56-.19,.84v.36c0,.12,0,.24,0,.36-.14,.02-.27,.02-.41,0,0-.17,0-.34,0-.51l.19-1.52c0-.19,.04-.71,.12-1.54v-2.14h.41c.1,.35,.15,.72,.14,1.08,0,.43,0,.67,.14,.77,.26,.13,.55,.2,.84,.19h.48l2.19,.14h1.08l2.05,.14,2,.14,2.22,.12-2.41-2.41-1.73-1.78-2.29-2.41c-1.03-1.06-2.02-2.04-2.99-2.94l-.12,.34Z"/>
      </g>
    </g>
  </g>
</svg>