<?xml version="1.0" encoding="utf-8"?>
<!-- Generator: Adobe Illustrator 26.5.0, SVG Export Plug-In . SVG Version: 6.00 Build 0)  -->
<svg version="1.1" id="Layer_1" xmlns="http://www.w3.org/2000/svg" xmlns:xlink="http://www.w3.org/1999/xlink" x="0px" y="0px"
	 viewBox="0 0 500 500" style="enable-background:new 0 0 500 500;" xml:space="preserve">
<style type="text/css">
	.st0{fill:#131313;}
</style>
<g>
	<path class="st0" d="M250,112.28c-82.71,0-150,61.78-150,137.72s67.29,137.72,150,137.72S400,325.94,400,250
		S332.71,112.28,250,112.28z M250,385.74c-81.62,0-148.01-60.89-148.01-135.74S168.38,114.26,250,114.26S398.01,175.16,398.01,250
		S331.62,385.74,250,385.74z"/>
	<path class="st0" d="M362.24,248.73c0-27.93-12.69-53.37-33.17-71.8c-22.03-19.46-50.47-30.1-79.87-29.87
		c-29.39-0.23-57.83,10.41-79.87,29.87c-20.48,18.43-33.17,43.87-33.17,71.89s12.69,53.51,33.17,71.92
		c22.06,19.38,50.5,29.94,79.87,29.65c29.39,0.23,57.83-10.41,79.87-29.87C349.56,302.2,362.24,276.66,362.24,248.73z
		 M325.96,179.76c19.46,16.98,30.98,41.27,31.83,67.08h-53.18c-0.19-17.93-3.62-35.68-10.11-52.4c10.45-4.14,20.25-9.77,29.07-16.74
		L325.96,179.76z M300.21,246.91h-0.95c-28.05-12.94-33.39-17.7-47.75-42.89l-0.04-0.15v-0.88c13.28-0.21,26.43-2.57,38.96-6.98
		C296.71,212.25,300.02,229.5,300.21,246.91z M268.7,152.67c18.8,3.01,36.55,10.7,51.6,22.35c-8.32,6.48-17.52,11.74-27.33,15.63
		c-5.3-12.57-12.5-24.26-21.33-34.66c-0.97-1.13-1.97-2.25-2.97-3.35L268.7,152.67z M251.43,151.16L251.43,151.16
		c3.59,0.06,7.1,0.28,10.56,0.65c2.13,2.14,4.17,4.36,6.15,6.68c8.59,10.13,15.59,21.52,20.72,33.76
		c-12.03,4.24-24.68,6.51-37.43,6.71V151.16z M236.43,151.71c3.48-0.43,6.99-0.65,10.55-0.65v47.86
		c-12.75-0.19-25.4-2.44-37.43-6.68c5.13-12.27,12.1-23.68,20.68-33.84c2.03-2.31,4.1-4.54,6.22-6.68L236.43,151.71z M247.05,202.89
		v0.91c-6.79,11.94-11.58,19.34-17.76,25.18l-1.72,1.56h-0.14c-6.54,5.67-14.81,10.05-28.31,16.27h-0.81
		c0.19-17.42,3.51-34.67,9.78-50.91C220.62,200.33,233.77,202.69,247.05,202.89z M229.77,152.74c-1,1.1-2,2.22-2.97,3.35
		c-8.82,10.39-16.01,22.06-21.31,34.63c-9.8-3.88-19-9.15-27.32-15.63C193.24,163.44,210.98,155.75,229.77,152.74z M172.41,179.71
		l2.39-2.06c8.83,6.97,18.64,12.62,29.11,16.75c-6.5,16.76-9.91,34.56-10.07,52.53l-53.27-0.22
		C141.42,220.93,152.96,196.67,172.41,179.71z M172.48,317.9c-19.45-16.96-30.98-41.23-31.86-67.01h53.21
		c0.19,17.95,3.62,35.71,10.12,52.44c-10.46,4.14-20.26,9.78-29.11,16.75l0.02-0.12L172.48,317.9z M178.15,322.75
		c8.32-6.48,17.52-11.74,27.33-15.63c5.3,12.53,12.49,24.17,21.3,34.54c0.97,1.15,1.97,2.26,2.97,3.35
		C210.96,342.03,193.22,334.38,178.15,322.75z M246.93,346.58c-3.57-0.07-7.08-0.29-10.55-0.66c-2.13-2.14-4.17-4.36-6.15-6.68
		c-8.57-10.13-15.55-21.53-20.68-33.76c12.02-4.25,24.64-6.53,37.38-6.75V346.58z M246.98,294.75c-13.3,0.18-26.48,2.51-39.03,6.91
		c-6.29-16.24-9.6-33.49-9.78-50.9h0.95c28.05,12.94,33.51,17.9,47.87,43.08C246.98,293.85,246.98,294.75,246.98,294.75z
		 M249.28,269.87l-0.76,0.7l-4.79,4.28l-1.05,0.95l-1.05-0.93l-6.89-6.2l-1.05-0.95l0.63-0.55l0.43-0.39l12.42-11.18l-1.63-1.46
		l-13.69,12.33l-2.06-1.87l13.69-12.33l-1.63-1.46l-12.42,11.18l-0.43,0.39l-0.63,0.55l-1.05-0.93l-6.89-6.2l-1.05-0.95l1.05-0.93
		l4.79-4.28l0.76-0.7l-1-0.88l-4.79-4.28l-1.05-0.95l1.05-0.93l6.86-6.2l1.05-0.93l1.05,0.93l12.64,11.36l1.63-1.46l-13.45-12.11
		l-0.02-0.02l2.06-1.87l13.45,12.11l1.63-1.46l-12.64-11.36l-1.05-0.93l1.05-0.93l6.89-6.2l1.05-0.93l1.05,0.93l4.79,4.28l1,0.88
		l1-0.88l4.79-4.28l1.05-0.93l1.05,0.93l6.89,6.2l1.05,0.95l-1.05,0.93l-12.64,11.36l1.63,1.46l13.45-12.11l2.06,1.87l-13.59,12.13
		l1.63,1.46l12.78-11.32l1.05-0.93l1.05,0.93l6.89,6.2l1.05,0.93l-1.05,0.95l-4.79,4.28l-1,0.88l0.76,0.7l4.79,4.21l1.05,0.95
		l-1.05,0.93l-6.94,6.15l-1.05,0.95l-0.63-0.55l-0.43-0.39l-12.42-11.18l-1.63,1.46l13.69,12.33l-2.06,1.87l-13.69-12.3l-1.63,1.46
		l12.42,11.18l0.43,0.41l0.63,0.55l-1.05,0.93l-6.79,6.18l-1.05,0.95l-1.05-0.95l-4.79-4.28L249.28,269.87z M251.39,293.92
		c14.36-25.22,19.91-30.2,47.87-43.08l0.88,0.07c-0.19,17.41-3.51,34.66-9.78,50.9c-12.53-4.42-25.68-6.77-38.96-6.99L251.39,293.92
		L251.39,293.92z M261.99,345.95c-3.48,0.43-6.99,0.65-10.55,0.65v-47.86c12.75,0.22,25.4,2.49,37.43,6.75
		c-5.15,12.26-12.13,23.65-20.72,33.79C266.16,341.58,264.12,343.8,261.99,345.95z M320.27,322.69
		c-15.06,11.65-32.8,19.34-51.6,22.35c1-1.1,2-2.22,2.97-3.35c8.82-10.37,16.01-22.02,21.33-34.56c9.83,3.84,19.06,9.06,27.43,15.51
		L320.27,322.69z M323.69,320c-8.83-6.97-18.64-12.62-29.11-16.75l-0.1,0.12c6.51-16.73,9.93-34.49,10.12-52.44h53.32
		c-0.87,25.79-12.41,50.06-31.86,67.01L323.69,320z"/>
	<polygon class="st0" points="254.52,268.41 253.16,269.63 255.81,272.02 260.6,267.71 249.24,257.49 237.87,267.71 242.65,272.02 
		245.31,269.63 243.94,268.41 242.34,269.87 240.24,267.97 242.89,265.58 243.94,264.64 244.99,265.61 248.47,268.72 249.24,269.41 
		250,268.72 253.47,265.61 254.52,264.64 255.57,265.58 258.24,267.97 256.13,269.87 	"/>
	<polygon class="st0" points="245.52,247.49 243.9,248.95 245.52,250.41 247.15,248.95 	"/>
	<polygon class="st0" points="249.24,244.16 247.61,245.62 249.24,247.08 250.86,245.62 	"/>
	<polygon class="st0" points="249.24,240.37 260.82,229.94 256.03,225.63 253.38,228.03 254.74,229.25 256.34,227.79 258.44,229.69 
		255.79,232.07 254.74,233.03 253.69,232.07 250.22,228.96 249.21,228.15 248.2,229.03 244.74,232.15 243.68,233.1 242.63,232.15 
		239.98,229.75 242.08,227.86 243.68,229.32 245.04,228.11 242.39,225.71 237.6,230.01 249.19,240.45 	"/>
	<polygon class="st0" points="252.92,250.41 254.55,248.95 252.92,247.49 251.29,248.95 	"/>
	<polygon class="st0" points="247.59,252.27 249.21,253.74 250.83,252.27 249.21,250.81 	"/>
	<polygon class="st0" points="228.08,238.52 223.29,242.82 225.95,245.21 227.31,243.99 225.73,242.51 227.84,240.62 230.49,243.01 
		231.54,243.94 230.49,244.9 227.02,248.01 226.26,248.71 227.26,249.59 230.74,252.7 231.79,253.67 230.74,254.6 228.08,256.98 
		225.97,255.1 227.58,253.64 226.21,252.41 223.56,254.81 228.34,259.12 239.81,248.95 239.66,248.95 	"/>
	<polygon class="st0" points="274.86,254.96 272.21,252.56 270.84,253.78 272.45,255.25 270.34,257.13 267.68,254.74 266.63,253.78 
		267.68,252.85 271.18,249.69 272.18,248.81 272.18,248.73 271.42,248.03 267.95,244.9 266.9,243.94 267.95,243.01 270.6,240.62 
		272.71,242.51 271.11,243.97 272.47,245.19 275.13,242.8 270.34,238.49 258.76,248.93 270.08,259.26 	"/>
	<path class="st0" d="M121.16,201.92c0.44-0.43,0.83-0.89,1.18-1.39c0.24-0.34,0.46-0.51,0.63-0.51c0.35,0.06,0.67,0.19,0.95,0.39
		l0.51,0.31l1.99,1.1l4.67,2.61l1.19,0.65c0.62,0.33,1.2,0.7,1.77,1.1c0.29,0.22,0.43,0.41,0.43,0.58c-0.1,0.58-0.27,1.13-0.48,1.68
		c-0.19,0.19-0.14,0.43,0,0.43c0.16-0.22,0.3-0.44,0.43-0.67l1.22-2.16l0.72-1.29l0.24-0.48l0.86-1.51
		c0.82-1.29,1.19-2.83,1.03-4.35c-0.11-1.26-0.82-2.38-1.92-3.02c-0.93-0.59-2.07-0.76-3.14-0.51s-2.15,1.33-3.23,3.23
		c-0.53,0.88-1,1.81-1.41,2.75l-0.41-0.22l-0.22-0.12l-1.82-0.95c-0.59-0.33-1.15-0.69-1.7-1.07c-0.21-0.14-0.37-0.34-0.46-0.58
		c-0.02-0.3,0.03-0.61,0.14-0.88l0.43-1.41l-0.31-0.29v0.05c-0.56,1.18-1.08,2.21-1.58,3.06l-1.12,1.87l-0.34,0.53l-0.36,0.65
		l-0.24,0.43C120.93,201.96,121.05,201.96,121.16,201.92z M129.3,201.21c0.35-0.75,0.74-1.48,1.17-2.18
		c0.52-0.97,1.36-1.74,2.39-2.13c0.95-0.35,2.02-0.22,2.87,0.34c0.82,0.48,1.42,1.27,1.65,2.21c0.29,1.14,0.05,2.35-0.65,3.3
		c-0.27,0.57-0.68,1.04-1.19,1.39c-0.32,0.19-0.7,0.24-1.05,0.14c-0.32-0.16-1.72-0.95-4.19-2.39l-1.05-0.63L129.3,201.21z"/>
	<path class="st0" d="M128.13,189.69c0.26-0.44,0.6-0.82,1-1.12h0.34c0.5,0.22,0.91,0.44,1.27,0.65l1.56,0.93l4.79,2.68l1.15,0.65
		c0.86,0.42,1.67,0.95,2.39,1.58c0.15,0.31,0.15,0.68,0,0.98c-0.13,0.34-0.27,0.68-0.43,1c-0.08,0.17-0.13,0.35-0.14,0.53
		l-0.19,0.27l0.31,0.14v-0.19l1.39-2.39l0.79-1.41l0.55-0.88l0.76-1.39l-0.34-0.14c-0.12,0-0.31,0.19-0.58,0.63
		c-0.18,0.3-0.41,0.57-0.67,0.79c-0.2,0.17-0.47,0.23-0.72,0.17c-0.73-0.31-1.42-0.67-2.09-1.07l-0.53-0.31l-0.43-0.27l-6.1-3.47
		c-1.31-0.76-1.97-1.27-1.97-1.51c0.1-0.49,0.26-0.95,0.48-1.39c0.29-0.41,0.29-0.75,0.29-0.75l-0.29-0.22l-1.53,2.77l-0.98,1.65
		l-1.12,1.87c0.19,0,0.41,0,0.41,0C127.75,190.23,127.96,189.97,128.13,189.69z"/>
	<path class="st0" d="M234.09,133.28c0.35,0.79,0.84,1.51,1.46,2.11c0.58,0.54,1.25,0.97,1.99,1.27c0.67,0.28,1.35,0.5,2.06,0.65
		c0.92,0.12,1.86,0.12,2.77,0c1.23-0.05,2.45-0.29,3.62-0.72l0.46-0.17c0.11-0.5,0.29-1.41,0.53-2.75c0-0.05,0-0.17,0-0.36h-0.17
		h-0.14c-0.2,0.54-0.47,1.03-0.81,1.48c-0.29,0.39-0.63,0.73-1,1c-0.43,0.28-0.88,0.51-1.36,0.67c-0.42,0.14-0.83,0.24-1.27,0.31
		h-0.55c-0.93,0.06-1.86-0.12-2.7-0.51c-0.97-0.46-1.77-1.22-2.25-2.18c-0.65-1.26-1-2.65-1.05-4.07c-0.05-0.83,0-1.67,0.14-2.49
		c0.13-0.76,0.37-1.51,0.72-2.21c0.65-1.24,1.72-2.21,3.02-2.73c0.46-0.18,0.94-0.29,1.44-0.31c0.96-0.11,1.95,0.09,2.8,0.55
		c0.77,0.46,1.38,1.15,1.72,1.99h0.19h0.24c0-0.21,0-0.38,0-0.51c-0.04-0.62-0.13-1.23-0.27-1.85l-0.05-0.07
		c-0.49-0.28-1.02-0.47-1.58-0.55c-0.78-0.17-1.59-0.23-2.39-0.17c-0.92,0.04-1.84,0.18-2.73,0.41c-0.86,0.27-1.68,0.69-2.39,1.24
		c-0.73,0.57-1.34,1.25-1.82,2.04c-0.48,0.75-0.83,1.55-1.07,2.39c-0.22,0.85-0.3,1.75-0.22,2.63
		C233.45,131.4,233.68,132.37,234.09,133.28z"/>
	<path class="st0" d="M214.27,126.5h0.79c0.42-0.13,0.85-0.13,1.27,0c0.23,0.4,0.37,0.83,0.41,1.29l0.7,3.26l0.55,2.87l0.29,1.36
		l0.41,2.97l0.17,0.79c0.07,0.22,0.07,0.45,0,0.67c-0.42,0.23-0.87,0.39-1.34,0.48l2.71-0.36h0.51l1.41-0.27l3.43-0.72l1.46-0.27
		l3.21-0.67h0.24c0.07-0.22,0.07-0.46,0-0.67c-0.09-0.56-0.15-1.11-0.17-1.68c-0.03-0.52-0.03-1.03,0-1.56
		c-0.08-0.02-0.16-0.02-0.24,0c-0.14,0.03-0.26,0.22-0.34,0.55c-0.14,0.83-0.41,1.64-0.79,2.39c-0.27,0.4-0.64,0.72-1.07,0.91
		c-0.95,0.36-1.94,0.62-2.94,0.76l-1.56,0.29l-0.72,0.12l-0.7,0.14c-0.29,0.14-0.63,0.14-0.91,0c-0.22-0.41-0.36-0.85-0.41-1.32
		l-0.27-1.29l-0.24-1.34l-0.43-2.11v-0.39c0.69-0.2,1.38-0.36,2.09-0.48l0.75-0.14l1.24-0.27l0.58-0.12c0.37-0.13,0.76-0.13,1.12,0
		c0.3,0.42,0.5,0.9,0.58,1.41c0.14,0.34,0.33,0.65,0.55,0.93h0.14c0.01-0.1,0.01-0.19,0-0.29l-0.22-0.79
		c-0.12-0.48-0.31-0.91-0.31-1.32c-0.29-1.51-0.46-2.39-0.46-2.68c0-0.09,0-0.18,0-0.27v-0.17h-0.29c-0.19,0.12-0.19,0.46-0.19,1.05
		c0.09,0.37,0.09,0.75,0,1.12c-0.05,0.12-0.29,0.24-0.67,0.39l-3.18,0.67h-0.24l-0.81,0.14h-0.58h-0.19h-0.29l-0.31-1.6l-0.6-2.75
		c-0.12-0.55-0.12-1.1,0-1.65c0.05-0.12,0.29-0.31,0.72-0.31h0.29l3.26-0.72h0.51l1.05-0.17c0.23-0.05,0.47-0.05,0.7,0
		c0.22,0.12,0.4,0.28,0.55,0.48c0.34,0.28,0.65,0.59,0.93,0.91c0.15,0.24,0.31,0.48,0.48,0.7h0.24c-0.16-0.55-0.32-1.21-0.48-2.01
		c0-0.07,0-0.22,0-0.43c0.01-0.17,0.01-0.34,0-0.51c-0.03-0.07-0.07-0.14-0.12-0.19h-0.12l-0.93,0.22h-0.12l-1.63,0.34l-1.32,0.22
		l-1.15,0.27l-2.39,0.51l-2.13,0.34l-0.83,0.19l-1.24,0.34h-0.39h-0.17c-0.02,0.08-0.02,0.16,0,0.24
		C214.1,126.42,214.18,126.49,214.27,126.5z"/>
	<path class="st0" d="M178.56,143.19h0.24h0.14c-0.16-0.9,0.01-1.84,0.48-2.63c0.38-0.67,0.93-1.21,1.6-1.58
		c0.72-0.44,1.6-0.54,2.39-0.27c0.74,0.28,1.33,0.83,1.65,1.56c0.35,0.75,0.39,1.61,0.12,2.39c-0.57,1.2-1.58,2.15-2.82,2.62
		l0.14,0.57l0.91-0.51l0.93-0.55c0.84-0.49,1.85-0.64,2.8-0.41c1.03,0.26,1.89,0.97,2.32,1.94c0.52,0.95,0.64,2.07,0.34,3.11
		c-0.3,1.05-1.02,1.93-2.01,2.39c-0.53,0.25-1.09,0.39-1.68,0.39c-0.45,0.04-0.89-0.03-1.32-0.19c-0.35-0.21-0.66-0.48-0.91-0.79
		c-0.33-0.46-0.94-0.59-1.44-0.31c-0.28,0.13-0.48,0.38-0.55,0.67c-0.11,0.29-0.11,0.6,0,0.88c0.34,0.64,1.07,0.95,2.21,0.95
		c1.31-0.06,2.58-0.42,3.74-1.05c1.41-0.68,2.54-1.81,3.23-3.21c0.73-1.15,0.83-2.59,0.3-3.84c-0.9-2.1-3.35-3.07-5.44-2.16
		c0.5-0.66,0.86-1.39,1.1-2.18c0.13-0.6,0.05-1.21-0.24-1.75c-0.45-0.86-1.25-1.49-2.21-1.7c-1.28-0.22-2.6,0.04-3.71,0.72
		c-0.81,0.4-1.56,0.91-2.23,1.53c-0.43,0.35-0.78,0.78-1.05,1.27c0.2,0.59,0.44,1.15,0.72,1.7L178.56,143.19z"/>
	<path class="st0" d="M166.76,147.8c0.32-0.1,0.61-0.25,0.88-0.43c0.42-0.29,0.89-0.5,1.39-0.6l0.19,0.43
		c0.36,0.41,0.65,0.79,0.88,1.12l1.03,1.51l3.14,4.4l0.76,1.07c0.6,0.73,1.09,1.53,1.48,2.39c0.02,0.22-0.14,0.51-0.53,0.83
		c-0.26,0.26-0.53,0.5-0.81,0.72c-0.14,0.11-0.27,0.25-0.36,0.41l0.07,0.02l0.24,0.27l0.17-0.12l2.27-1.58l1.17-1.05l0.86-0.55
		l1.27-0.93c-0.07-0.1-0.15-0.19-0.24-0.27c-0.12-0.07-0.39,0.05-0.79,0.31c-0.29,0.2-0.62,0.35-0.95,0.43
		c-0.25,0.07-0.52,0.02-0.72-0.14c-0.52-0.59-0.99-1.21-1.41-1.87l-0.34-0.51l-0.29-0.43l-4.07-5.74c-0.87-1.24-1.26-1.97-1.15-2.18
		c0.29-0.41,0.64-0.76,1.03-1.07l0.58-0.55c-0.04-0.11-0.1-0.22-0.17-0.31l-2.56,1.87l-1.58,1.07l-1.8,1.22
		C166.55,147.8,166.76,147.8,166.76,147.8z"/>
	<path class="st0" d="M182.37,145.27l-0.08,0.05C182.32,145.31,182.34,145.29,182.37,145.27L182.37,145.27z"/>
	<path class="st0" d="M161.62,151.01h-0.08l0.02,0.05C161.58,151.04,161.6,151.03,161.62,151.01z"/>
	<path class="st0" d="M145.05,167.29l0.81-0.48c0.08-0.04,0.18-0.04,0.27,0c0.39,0.28,0.75,0.6,1.1,0.93l1.97,1.8l1.51,1.46
		l2.39,2.39l1.53,1.51c0.33,0.27,0.62,0.6,0.83,0.95c-0.35,0.72-0.76,1.4-1.24,2.04l0.29,0.1h0.14l0.48-0.55l0.67-0.72l0.53-0.6
		l0.14-0.19l0.39-0.39l0.17-0.19l0.22-0.22l0.14-0.17l0.63-0.6l0.6-0.55c0.43-0.46,0.72-0.79,0.88-0.98l-0.36-0.27
		c-0.19,0.14-0.37,0.29-0.53,0.46c-0.39,0.44-0.83,0.83-1.32,1.17c-0.19,0.07-0.51-0.1-0.93-0.51l-0.53-0.48l-0.51-0.48l-1.56-1.53
		l-0.53-0.51l-2.87-2.61l-2.39-2.39c-0.24-0.21-0.46-0.44-0.65-0.7c-0.02-0.1,0.02-0.19,0.17-0.34l0.17-0.17l2.61-2.51
		c0.38-0.43,0.79-0.81,1.24-1.15c0.35-0.08,0.71-0.08,1.05,0h0.36l0.86,0.29h0.75h0.14c0-0.17,0.67,0.36,0-0.17
		c-0.45-0.35-0.95-0.8-1.53-1.36l-0.29-0.36l-0.29-0.36h-0.19l0.1,0.39h-0.12l-0.31,0.36l-0.34,0.36h-0.17h-0.12l-1.1,1.17
		l-0.58,0.58l-1.87,1.87l-0.81,0.91l-1,1.07l-1.41,1.39l-0.76,0.75c0.08,0.07,0.18,0.12,0.29,0.14L145.05,167.29z"/>
	<path class="st0" d="M155.81,155.65c0.58-0.23,1.12-0.48,1.64-0.78c0.36-0.22,0.6-0.22,0.76-0.22c0.29,0.2,0.52,0.47,0.7,0.76
		l0.34,0.51l1.34,1.85l2.94,4.14l0.81,1.1c0.41,0.56,0.78,1.14,1.12,1.75c0.14,0.2,0.19,0.46,0.14,0.7
		c-0.38,0.52-0.81,0.99-1.29,1.41c0,0.17,0,0.31,0,0.46l0.67-0.43l2.01-1.44l1.19-0.88l0.43-0.34l1.44-1
		c1.3-0.82,2.27-2.07,2.77-3.52c0.44-1.18,0.27-2.5-0.46-3.55c-0.61-0.92-1.55-1.56-2.63-1.77c-1.57-0.05-3.11,0.51-4.28,1.56
		c-0.83,0.58-1.64,1.21-2.39,1.89l-0.29-0.36l-0.14-0.19c-0.63-0.79-1.03-1.32-1.24-1.63c-0.39-0.54-0.75-1.09-1.07-1.68
		c-0.13-0.22-0.19-0.47-0.17-0.72c0.12-0.29,0.3-0.54,0.53-0.75l1-1.1l-0.13-0.36c-0.98,0.82-1.88,1.52-2.67,2.09l-1.82,1.22
		l-0.53,0.34l-0.6,0.43l-0.39,0.29C155.6,155.53,155.7,155.6,155.81,155.65z M163.56,158.36c0.63-0.54,1.28-1.02,1.97-1.48
		c0.85-0.66,1.92-0.98,2.99-0.93c0.98,0.11,1.87,0.67,2.39,1.51c0.55,0.78,0.75,1.76,0.58,2.7c-0.21,1.09-0.85,2.05-1.8,2.63
		c-0.48,0.4-1.06,0.65-1.68,0.75c-0.36,0.05-0.72-0.03-1-0.24c-0.29-0.21-1.23-1.48-2.82-3.82l-0.7-1L163.56,158.36z"/>
	<path class="st0" d="M133.71,180.57h0.19c0.5-0.58,1.11-1.02,1.82-1.32c0.22-0.05,0.56,0.1,1,0.46l0.17,0.12l3.09,2.68
		c2.47,1.77,4.07,2.94,4.79,3.52l0.53,0.43l0.36,0.29c0.19,0.12,0.34,0.28,0.43,0.48c0.04,0.16,0.04,0.32,0,0.48l-0.72,1.39
		l0.24,0.17l0.41-0.55l0.79-0.95l1.19-1.68c0.33-0.41,0.69-0.79,1.05-1.17l0.46-0.48c0.07-0.07,0.12-0.17,0.14-0.27
		c0.02-0.08,0.02-0.16,0-0.24c-0.07-0.02-0.15-0.02-0.22,0l-0.58,0.43l-1.32,0.83c-0.26-0.12-0.5-0.27-0.72-0.46l-0.41-0.36
		l-0.31-0.29l-4.31-3.16l-0.53-0.41c-0.35-0.21-1.15-0.79-2.39-1.77l-0.75-0.63l-0.17-0.14l-1.07-0.76h-0.12
		c0.18-0.56,0.48-1.06,0.88-1.48c0.29-0.34,0.61-0.65,0.95-0.91c0.34-0.3,0.73-0.54,1.15-0.7c0.59-0.15,1.2-0.15,1.8,0
		c0.61,0.11,1.18,0.37,1.68,0.75c0.49,0.38,0.88,0.85,1.15,1.41c0.27,0.55,0.36,1.17,0.27,1.77c-0.09,0.61-0.34,1.17-0.72,1.65
		c-0.2,0.28-0.44,0.52-0.72,0.72c-0.1,0.05-0.19,0.13-0.27,0.22c-0.02,0.05-0.02,0.11,0,0.17c0.13,0.05,0.28,0.05,0.41,0
		c0.34-0.11,0.67-0.26,0.95-0.46c0.27-0.21,0.52-0.45,0.72-0.72c0.84-0.97,1.23-2.26,1.07-3.55c-0.15-1.17-0.75-2.25-1.7-2.97
		c-0.62-0.46-1.34-0.76-2.11-0.88c-0.81-0.17-1.65-0.06-2.39,0.31c-0.87,0.5-1.62,1.17-2.21,1.99c-0.43,0.55-0.79,1.03-1.07,1.48
		l-1.12,1.63l-0.63,0.88l-0.41,0.51l-0.83,1l-0.14,0.24l0.1,0.1C133.62,180.45,133.66,180.51,133.71,180.57z"/>
	<path class="st0" d="M272.52,124.5c0.33,0.44,0.6,0.92,0.79,1.44l1.1,3.82l0.86,3.35l0.55,2.18v0.55c0.12,0.45,0.22,0.9,0.29,1.36
		l-0.02,0.14l-0.29,0.29c-0.26,0.31-0.56,0.58-0.88,0.81c-0.06,0.04-0.13,0.06-0.19,0.08c-0.44,0.12-0.88-0.13-1-0.56
		c-0.09-0.28-0.23-0.54-0.41-0.76c-0.15-0.12-0.34-0.19-0.53-0.22c-0.28-0.08-0.59-0.02-0.81,0.17c-0.21,0.18-0.34,0.43-0.39,0.7
		c-0.08,0.39,0.02,0.78,0.29,1.07c0.28,0.32,0.66,0.53,1.07,0.6c0.35,0.06,0.71,0.06,1.05,0c0.31-0.04,0.62-0.14,0.88-0.29
		c0.45-0.33,0.87-0.69,1.27-1.07c0.6-0.57,1.14-1.17,1.65-1.82l1.56-1.99c0.91-1.19,1.82-2.39,2.85-3.59s1.82-2.11,2.39-2.7
		c0.32-0.37,0.66-0.7,1.03-1c0.15-0.07,0.32-0.11,0.48-0.12h0.76v-0.41h-0.46l-1.77-0.31l-1.46-0.31l-0.7-0.17h-0.6v0.14
		c-0.02,0.08-0.02,0.16,0,0.24h0.22c0.42,0.12,0.81,0.28,1.19,0.48c0.39,0.17,0.39,0.39,0.39,0.65c-1.18,2.16-2.6,4.17-4.23,6.01
		l-0.55,0.7c-0.86,1.1-1.36,1.75-1.58,1.97l-1.03-4.45l-0.74-3.3l-0.48-2.21c-0.03-0.17-0.03-0.36,0-0.53
		c0.05-0.12,0.14-0.29,0.31-0.29c0.2-0.05,0.4-0.05,0.6,0h0.34h0.65h0.12h0.31v-0.12c0.03-0.07,0.03-0.15,0-0.22l-0.55-0.17
		l-1.34-0.24l-2.58-0.58l-1.85-0.39v0.51h0.27C271.77,124.04,272.18,124.23,272.52,124.5z"/>
	<path class="st0" d="M198.54,131.03c-0.01,0.06-0.01,0.13,0,0.19c0.74-0.18,1.51-0.18,2.25,0c0.19,0.07,0.39,0.41,0.55,0.93v0.19
		c0.42,1.37,0.84,2.73,1.29,4.07c0.94,2.84,1.55,4.7,1.82,5.57l0.31,0.65l0.12,0.43c0.06,0.21,0.06,0.44,0,0.65
		c-0.05,0.07-0.17,0.19-0.39,0.34l-1.36,0.72v0.29l0.65-0.22l1.19-0.34l1.94-0.67c0.51-0.15,1.01-0.27,1.53-0.36l0.65-0.14
		c0.1-0.02,0.19-0.07,0.27-0.14c0.03-0.09,0.03-0.18,0-0.27c-0.06-0.02-0.13-0.02-0.19,0h-0.72h-1.68
		c-0.15-0.25-0.26-0.52-0.34-0.79c-0.14-0.14-0.14-0.31-0.14-0.53s0-0.43,0-0.43l-1.7-4.86l-0.19-0.63
		c-0.16-0.29-0.47-1.23-0.93-2.82c-0.12-0.41-0.27-0.72-0.27-0.93v-0.22l-0.43-1.24v-0.17c0.47-0.35,1-0.59,1.58-0.7
		c0.43-0.11,0.87-0.18,1.32-0.19c0.45-0.08,0.89-0.08,1.34,0c0.58,0.2,1.09,0.54,1.51,0.98c0.43,0.44,0.75,0.97,0.93,1.56
		c0.14,0.6,0.14,1.22,0,1.82c-0.1,0.61-0.38,1.16-0.81,1.6c-0.42,0.45-0.94,0.77-1.53,0.95c-0.33,0.11-0.67,0.17-1,0.17h-0.34
		c-0.01,0.05-0.01,0.1,0,0.14c0.09,0.11,0.22,0.19,0.36,0.22c0.66,0.24,1.38,0.24,2.04,0c1.27-0.34,2.33-1.21,2.92-2.39
		c0.54-1.05,0.64-2.27,0.27-3.4c-0.25-0.74-0.67-1.4-1.22-1.94c-0.56-0.58-1.29-0.95-2.09-1.07c-0.99-0.1-2,0.03-2.94,0.36
		c-0.67,0.21-1.24,0.41-1.72,0.6l-1.87,0.7l-1.03,0.31l-0.65,0.41l-1.27,0.34h-0.24l0.22,0.02
		C198.52,130.86,198.52,130.95,198.54,131.03z"/>
	<path class="st0" d="M252.58,137.1v-0.04h1l1.48,0.19h0.48h0.24c0.27,0,0.27-0.14,0.27-0.14c0.01-0.04,0.01-0.08,0-0.12
		c-0.26-0.12-0.52-0.22-0.79-0.29c-0.33-0.07-0.65-0.19-0.93-0.36c-0.11-0.17-0.17-0.37-0.17-0.58c-0.04-0.63-0.04-1.24,0-1.87
		v-0.67l0.31-3.06l0.31-3.45l0.14-2.77c0.04-0.37,0.09-0.74,0.17-1.1c0.58-0.05,1.17,0.12,1.74,0.17l3.12,0.12
		c1.22,0.05,2.45,0.17,3.67,0.36h-0.1l-0.41,6.08l-0.14,1.58l-0.27,3.06v0.7c0,0.29,0,0.51,0,0.67c0.03,0.41-0.09,0.8-0.34,1.12
		c-0.4,0.21-0.84,0.31-1.29,0.29c-0.32,0.01-0.64,0.08-0.93,0.22v0.58h0.63h2.39h1l1.46,0.19h0.51h0.19c0.27,0,0.27-0.14,0.27-0.14
		c0.01-0.04,0.01-0.08,0-0.12c-0.26-0.12-0.52-0.22-0.79-0.29c-0.34-0.07-0.66-0.19-0.95-0.36c-0.11-0.17-0.17-0.37-0.17-0.58
		c-0.04-0.63-0.04-1.24,0-1.87v-0.67l0.22-2.25l0.14-2.94l0.22-2.61c0-0.67,0-1.29,0-1.85c0-0.1,0-0.27,0-0.27
		c-0.02-0.25,0.08-0.49,0.27-0.65c0.22-0.03,0.45-0.03,0.67,0c0.37,0.02,0.73-0.03,1.07-0.14c0.01-0.14,0.01-0.27,0-0.41h-2.13
		l-13.98-0.65c0,0.07,0,0.22,0,0.22c-0.02,0.07-0.02,0.15,0,0.22l0.75,0.14c0.34,0.02,0.67,0.12,0.95,0.29
		c0.07,0.44,0.07,0.88,0,1.32v1.15l-0.39,4.79v0.88c-0.14,0.6-0.14,1.05-0.14,1.39l-0.12,1.92c0,0.29,0,0.53,0,0.7
		c0.02,0.4-0.1,0.78-0.34,1.1c-0.4,0.22-0.84,0.32-1.29,0.29c-0.32,0.01-0.64,0.08-0.93,0.22v0.27h0.55H252.58z"/>
	<path class="st0" d="M350.06,177.48c-1.14,0.41-2.3,0.75-3.5,1c-0.35,0.11-0.71,0.11-1.05,0c-0.29-0.22-0.56-0.47-0.79-0.75
		l-0.19-0.22l-0.17-0.22c-0.07-0.08-0.16-0.13-0.27-0.17l0.31,0.46l0.36,0.43l0.55,0.67l0.48,0.65c0.48,0.67,0.91,1.25,1.29,1.75
		l0.51,0.63h0.17c0.03-0.07,0.03-0.15,0-0.22l-0.86-1.34c-0.12-0.19-0.22-0.4-0.31-0.6c0.06-0.11,0.13-0.21,0.22-0.29
		c0.65-0.28,1.31-0.52,1.99-0.72l3.16-1.17l0.53-0.14c0.21,0.2,0.4,0.42,0.58,0.65l0.46,0.6l1.56,1.97
		c0.17,0.23,0.32,0.47,0.46,0.72c-1.1,1.77-1.76,2.81-1.97,3.11l-0.65,0.98c-0.19,0.33-0.42,0.64-0.67,0.91l-0.29,0.14
		c-0.21-0.14-0.4-0.31-0.55-0.51l-0.81-0.91l-0.22-0.14l-0.29,0.14c-0.01,0.07-0.01,0.15,0,0.22l0.17,0.19l0.14,0.22l0.17,0.24
		l0.88,1.1l0.7,0.93l1.27,1.68l0.34,0.41h0.17l0.12-0.17c-0.07-0.26-0.16-0.51-0.27-0.75l-0.22-0.51c-0.07-0.14-0.13-0.28-0.17-0.43
		c0.04-0.27,0.13-0.53,0.27-0.76c0.18-0.29,0.7-1.08,1.56-2.39l1.46-2.39l2.68-4.35c0.43-0.75,0.76-1.29,1-1.65
		c0.43-0.65,0.81-1.31,1.15-2.01l-0.24-0.34l-0.22-0.27l-1.75,0.63l-3.38,1.07l-3.09,1.03l-1.51,0.46L350.06,177.48z M353.32,177.15
		l0.63-0.22l0.91-0.31c0.67-0.27,1.63-0.55,2.9-0.91l1.27-0.34v0.22l-1.48,2.39l-1.24,2.04c-0.15,0.26-0.32,0.51-0.51,0.75
		c-0.32-0.34-0.67-0.75-1.03-1.22c-0.63-0.87-1.17-1.64-1.64-2.31L353.32,177.15z"/>
	<path class="st0" d="M358.68,190.31c-0.56,0.67-0.98,1.43-1.24,2.25c-0.24,0.77-0.33,1.59-0.27,2.39c0.04,0.72,0.14,1.43,0.31,2.13
		c0.29,0.88,0.68,1.73,1.17,2.51c0.58,1.09,1.33,2.09,2.23,2.94l0.36,0.34l2.7-0.75l0.34-0.17c0.02-0.06,0.02-0.13,0-0.19
		c-0.56,0.08-1.12,0.08-1.68,0c-0.48-0.09-0.93-0.25-1.36-0.48c-0.44-0.26-0.83-0.58-1.19-0.93c-0.31-0.32-0.59-0.65-0.83-1
		l-0.29-0.48c-0.47-0.81-0.72-1.72-0.75-2.65c-0.01-1.07,0.33-2.12,0.98-2.97c0.85-1.13,1.96-2.07,3.21-2.73
		c0.75-0.44,1.56-0.77,2.39-1c0.77-0.23,1.58-0.34,2.39-0.31c1.4,0.04,2.74,0.58,3.78,1.51c0.36,0.34,0.67,0.74,0.91,1.17
		c0.52,0.82,0.78,1.78,0.75,2.75c-0.07,0.88-0.44,1.73-1.03,2.39v0.19l0.14,0.19l0.43-0.24c0.48-0.28,0.93-0.59,1.36-0.92
		c0.03-0.55-0.03-1.1-0.19-1.63c-0.18-0.84-0.49-1.65-0.91-2.39c-0.44-0.85-0.95-1.65-1.56-2.39c-0.62-0.68-1.36-1.22-2.18-1.63
		c-0.82-0.4-1.72-0.66-2.63-0.75c-0.84-0.12-1.71-0.12-2.56,0c-0.84,0.19-1.66,0.51-2.39,0.95
		C360.17,188.9,359.35,189.53,358.68,190.31z"/>
	<path class="st0" d="M381.11,216.85l-1.34,0.53l-1.72,0.55l-5.13,1.7l-1.27,0.43c-0.89,0.36-1.83,0.61-2.77,0.72
		c-0.24-0.05-0.48-0.29-0.67-0.75c-0.17-0.33-0.32-0.67-0.46-1c-0.07-0.17-0.17-0.32-0.29-0.46l-0.22,0.07v0.19l0.83,2.63l0.53,1.53
		l0.29,0.98l0.53,1.48l0.31-0.14c0.17-0.07,0.14-0.36,0-0.83c-0.11-0.33-0.16-0.68-0.14-1.03c0.01-0.26,0.14-0.5,0.36-0.65
		c0.72-0.33,1.45-0.61,2.21-0.81l0.6-0.19l0.51-0.14l6.68-2.23c1.44-0.48,2.24-0.63,2.39-0.46c0.3,0.4,0.54,0.83,0.72,1.29
		c0.19,0.39,0.36,0.7,0.36,0.7h0.24l-1.1-3.14l-0.55-1.82l-0.65-2.09c-0.19,0.05-0.31,0.24-0.31,0.24c0.01,0.34,0.07,0.67,0.17,0.98
		c0.15,0.48,0.21,0.98,0.17,1.48L381.11,216.85z"/>
	<path class="st0" d="M368.54,206.9l-1.29,0.46c-0.66,0.23-1.33,0.43-2.01,0.58c-0.23,0.1-0.49,0.1-0.72,0
		c-0.36-0.47-0.68-0.96-0.93-1.48c-0.12-0.22-0.27-0.22-0.41-0.22c0.06,0.26,0.13,0.52,0.22,0.76l0.79,2.39
		c0.14,0.4,0.31,0.86,0.51,1.39l0.19,0.51l0.55,1.65c0.41,1.48,1.31,2.78,2.56,3.69c1,0.75,2.31,0.98,3.52,0.6
		c1.02-0.32,1.89-1.03,2.39-1.99c0.51-1.5,0.43-3.14-0.24-4.57c-0.31-0.98-0.68-1.96-1.1-2.9l0.43-0.17h0.24l1.92-0.72
		c0.63-0.22,1.26-0.41,1.92-0.55c0.24-0.08,0.5-0.08,0.74,0c0.24,0.19,0.44,0.44,0.58,0.72l0.76,1.27h0.43l-0.14-0.12
		c-0.51-1.21-0.91-2.28-1.22-3.23l-0.65-2.09l-0.17-0.6l-0.24-0.7l-0.14-0.46c-0.11,0.04-0.2,0.1-0.27,0.19
		c0.03,0.61,0.11,1.2,0.24,1.8c0.12,0.41,0,0.7,0,0.81c-0.28,0.22-0.6,0.38-0.93,0.46l-0.58,0.17l-2.16,0.75L368.54,206.9z
		 M372.75,210.23c0.37,1.01,0.37,2.13,0,3.14c-0.39,0.94-1.19,1.65-2.18,1.92c-0.91,0.3-1.91,0.21-2.75-0.24
		c-0.96-0.5-1.68-1.36-1.99-2.39c-0.23-0.58-0.31-1.2-0.22-1.82c0.07-0.37,0.29-0.69,0.6-0.88c0.29-0.18,1.79-0.71,4.5-1.58
		l1.17-0.36l0.02-0.17C372.25,208.61,372.52,209.41,372.75,210.23z"/>
	<path class="st0" d="M299.95,146.71c-0.07,0.07-0.13,0.15-0.17,0.24l0.65,0.34l0.31,0.12l1,0.43l0.75,0.36l1.94,0.98l0.93,0.41
		v-0.14c0.03-0.07,0.03-0.15,0-0.22l-0.76-0.43c-0.42-0.21-0.81-0.47-1.17-0.76c-0.02-0.12-0.02-0.24,0-0.36
		c0.1-0.16,0.22-0.31,0.36-0.43l2.58-2.8l0.98-1.03c1.57-1.82,3.27-3.53,5.08-5.11c0-0.06,0.01-0.13,0-0.19l0.07,0.12
		c-0.02,0.02-0.05,0.05-0.07,0.07c0,0.03,0,0.05,0,0.08v1.17c-0.07,1.46-0.22,3.35-0.41,5.67c-0.19,2.32-0.17,3.28-0.31,3.67
		c-0.14,0.39-0.14,0.76-0.14,1.17c-0.02,0.38-0.09,0.75-0.19,1.1c-0.05,0.1-0.12,0.19-0.19,0.27c-0.34-0.04-0.68-0.14-0.98-0.29
		c-0.36-0.19-0.74-0.32-1.15-0.39c-0.08,0.08-0.15,0.17-0.19,0.27c0.27,0.24,0.58,0.42,0.91,0.55l1.32,0.34l1.17,0.58l1.89,0.91
		l0.48,0.22v-0.14c0.01-0.06,0.01-0.13,0-0.19l-0.36-0.36l-0.36-0.34c-0.23-0.15-0.43-0.34-0.6-0.55c-0.04-0.17-0.04-0.34,0-0.51
		c0-0.24,0-0.81,0-1.72c0.22-1.85,0.39-4.57,0.72-8.12c0.34-3.55,0.34-5.4,0.34-5.4l-0.36-0.19l-0.31-0.12
		c-0.48,0.61-1.23,1.4-2.25,2.39l-1.56,1.53l-2.39,2.39l-1.12,1.1c-1.45,1.48-2.46,2.48-3.04,2.99c-0.37,0.4-0.84,0.69-1.36,0.83
		c-0.6-0.03-1.18-0.2-1.7-0.51C300.16,146.68,300.05,146.68,299.95,146.71z"/>
	<path class="st0" d="M285.51,141.68v0.12l0.75,0.29l2.39,0.79l1.41,0.46l0.6-0.14l1.65,0.58c1.43,0.57,3.01,0.63,4.48,0.17
		c1.2-0.34,2.18-1.22,2.61-2.39c0.32-0.81,0.37-1.71,0.14-2.56c-0.22-0.75-0.69-1.42-1.34-1.87c-0.83-0.56-1.75-0.99-2.7-1.29
		l-1.36-0.41h-0.43l-1.17-0.34l0.12-0.46v-0.24c0.29-0.95,0.48-1.6,0.6-1.97l0.91-2.68l0.7,0.17l1.19,0.31l1.36,0.46l0.46,0.17
		l0.98,0.36c0.22,0.06,0.43,0.16,0.63,0.29c0.18,0.28,0.29,0.6,0.31,0.93c0.1,0.46,0.16,0.92,0.19,1.39c-0.02,0.27-0.02,0.55,0,0.81
		h0.14c0.17,0-0.05,0.81,0.17,0c0.14-0.55,0.35-1.19,0.6-1.97l0.22-0.43l0.19-0.41c0.01-0.07,0.01-0.15,0-0.22l-0.14-0.29
		l-0.91-0.29h-0.17l-1.58-0.53l-0.75-0.29l-0.51-0.19l-1.53-0.41l-1.12-0.36l-3.38-1.24l-1.15-0.39c-0.03,0.09-0.03,0.19,0,0.29
		c0.43,0.35,0.88,0.66,1.36,0.93c0.39,0.17,0.63,0.34,0.63,0.51c0.01,0.35-0.06,0.69-0.19,1l-0.22,0.55l-0.7,2.16l-1.63,4.79
		l-0.41,1.32c-0.21,0.67-0.47,1.31-0.76,1.94c-0.17,0.31-0.34,0.53-0.48,0.53c-0.59,0.01-1.17-0.04-1.75-0.14
		C285.71,141.46,285.51,141.53,285.51,141.68z M291.79,136.99l0.41-1.15v0.05h0.27l1,0.29l1,0.34c1.09,0.3,2.04,0.99,2.65,1.94
		c0.5,0.87,0.57,1.92,0.19,2.85c-0.32,0.94-1.02,1.7-1.94,2.09c-0.91,0.43-1.95,0.48-2.9,0.14c-0.66-0.17-1.27-0.5-1.77-0.95
		c-0.26-0.28-0.39-0.66-0.36-1.03C290.75,139.99,291.23,138.47,291.79,136.99z"/>
	<path class="st0" d="M321.75,158.5c0.07-0.1,0.07-0.23,0-0.34c-0.2-0.29-0.42-0.57-0.67-0.81c-0.2-0.18-0.38-0.38-0.53-0.6
		c-0.06-0.15-0.06-0.31,0-0.46c0.15-0.35,0.35-0.68,0.58-0.98l1.51-0.46c0.98-0.31,1.92-0.58,2.75-0.76l2.11-0.51l6.54-1.56
		l-4.79,6.75l-0.31,0.41l-0.27,0.36l-0.95,1.36c-0.34,0.48-0.83,0.54-1.51,0.17c-0.34-0.21-0.71-0.35-1.1-0.41l-0.14,0.17v0.19
		c1.05,0.52,2.07,1.1,3.04,1.77c0.73,0.51,1.41,1.07,2.04,1.7h0.12c0.08-0.11,0.08-0.25,0-0.36c-0.2-0.29-0.43-0.57-0.67-0.81
		c-0.39-0.41-0.6-0.67-0.6-0.81c0.4-0.85,0.9-1.66,1.48-2.39l0.95-1.44l1.15-1.6l1.15-1.68l0.65-0.88l1.24-1.8l0.31-0.46
		c0.27-0.39,0.48-0.63,0.6-0.63c0.26,0.02,0.51,0.11,0.72,0.27c0.31,0.2,0.65,0.35,1,0.43l0.29-0.31l-1.82-1.12l-1.24-0.91
		l-1.19-0.95l-0.46-0.24c-0.08,0.11-0.13,0.23-0.17,0.36l0.27,0.43l0.27,0.27c0.43,0.36,0.65,0.7,0.65,0.7
		c-0.09,0.31-0.23,0.59-0.43,0.83v-0.05c-1.27,0.36-2.58,0.7-4.02,1.03l-3.16,0.75l-2.39,0.58l-3.26,0.88l1.24-1.82l1.15-1.63
		l1.17-1.68l0.65-0.88l1.24-1.8l0.95-0.43c0.29-0.39,0.48-0.6,0.6-0.63c0.12-0.02,0.36,0.05,0.72,0.27c0.31,0.2,0.65,0.34,1,0.43
		c0.11-0.09,0.21-0.2,0.29-0.31l-1.82-1.12l-1.24-0.91l-1.19-0.93l-0.46-0.24c-0.09,0.11-0.15,0.23-0.19,0.36l0.27,0.27l0.27,0.27
		c0.23,0.18,0.44,0.38,0.63,0.6c0.03,0.08,0.03,0.16,0,0.24c-0.1,0.24-0.23,0.47-0.39,0.67l-1.46,2.11l-2.39,3.28l-0.79,1.15
		l-0.67,0.98l-0.29,0.41l-0.27,0.34l-0.95,1.36c-0.34,0.48-0.83,0.53-1.51,0.14c-0.34-0.21-0.72-0.35-1.1-0.41l-0.12,0.17
		l-0.12,0.19c1.05,0.52,2.07,1.1,3.04,1.77C320.45,157.29,321.13,157.86,321.75,158.5z"/>
	<path class="st0" d="M337.12,164.44l-1.48,1.58l-0.76,0.83c-0.16,0.22-0.41,0.35-0.67,0.36c-0.6-0.23-1.16-0.55-1.65-0.95
		c-0.07-0.04-0.15-0.04-0.22,0l-0.22,0.27l0.24,0.24c0.47,0.44,0.95,0.85,1.46,1.24l0.74,0.6c0.22,0.19,0.51,0.51,0.91,0.95
		l0.76,0.83l0.29,0.24c0.08,0.05,0.18,0.05,0.27,0c0.06-0.07,0.1-0.15,0.12-0.24c-0.07-0.12-0.15-0.23-0.24-0.34
		c-0.28-0.29-0.5-0.62-0.65-0.98c-0.08-0.27,0.01-0.56,0.22-0.75c0.67-0.72,1.23-1.35,1.7-1.89l1.07-1.22l1.19-1.27
		c0.1,0.09,0.18,0.19,0.27,0.28l0.02,0.02c0.37,0.45,0.67,0.96,0.82,1.54c0.08,0.78,0.08,1.57,0.01,2.34l-0.01,0.17
		c-0.04,0.39-0.09,0.76-0.17,1.14c-0.24,1.84-0.51,3.43-0.79,4.79c0.35,0.22,0.68,0.47,0.98,0.75l0.67,0.67
		c0.43,0.46,0.79,0.81,1.07,1.1l-0.12-0.57c-0.04-0.06-0.07-0.12-0.12-0.17c-0.33-0.39-0.54-0.86-0.59-1.37
		c-0.01-0.5,0.06-1.31,0.12-1.81c0.01-0.08,0.01-0.15,0.03-0.23c0.29-1.69,0.49-3.39,0.58-5.1c0-0.54-0.09-1.07-0.27-1.58
		c-0.27-0.54-0.66-1.01-1.12-1.39c0.63,0.29,1.33,0.39,2.01,0.29c0.74-0.15,1.45-0.35,2.16-0.6c0.95-0.38,1.95-0.63,2.97-0.75
		c0.23,0,0.46,0.07,0.65,0.19c0.1,0.08,0.1,0.27,0,0.58c-0.24,0.5-0.13,1.08,0.27,1.46c0.23,0.23,0.56,0.32,0.86,0.24
		c0.28-0.05,0.54-0.18,0.75-0.39c0.23-0.26,0.34-0.62,0.29-0.95c-0.04-0.4-0.23-0.76-0.53-1.03c-0.35-0.31-0.78-0.49-1.24-0.53
		c-0.53-0.07-1.05-0.07-1.58,0c-1.13,0.25-2.25,0.58-3.33,0.98c-0.69,0.25-1.4,0.38-2.13,0.36c-0.85-0.11-1.66-0.43-2.39-0.88
		l0.8-0.47l3.02-3.21l0.14-0.17c0.21-0.28,0.54-0.46,0.88-0.48c0.46,0.09,0.87,0.29,1.22,0.6c0.14,0.12,0.29,0.21,0.46,0.27h0.12
		c0.04-0.07,0.04-0.15,0-0.22l-0.65-0.65c-0.63-0.5-1.73-1.48-3.33-2.94l-0.48-0.39h-0.16c-0.05,0.1-0.05,0.22,0,0.31l0.55,0.6v0.14
		c0.17,0.16,0.3,0.36,0.36,0.58c-0.16,0.43-0.43,0.8-0.76,1.1l-1.12,1.24l-1.46,1.53l-2.16,2.39L337.12,164.44z"/>
	<path class="st0" d="M114.59,218.19l0.36-0.73l0.13-0.05c0.09-0.22,0.22-0.41,0.41-0.54c0.46-0.01,0.91,0.1,1.31,0.31l1.57,0.59
		l1.96,0.8l3.02,1.13l0.9,0.36l2.01,0.8l1.06,0.41c0.26,0.07,0.47,0.25,0.58,0.49c0.01,0.64-0.08,1.28-0.28,1.88
		c-0.01,0.08,0.02,0.15,0.08,0.2l0.33,0.11l0.13-0.31c0.24-0.59,0.45-1.2,0.62-1.81l0.28-0.91c0.1-0.27,0.29-0.66,0.55-1.2l0.5-1.02
		l0.12-0.36c0.02-0.09-0.02-0.18-0.1-0.25c-0.09-0.03-0.18-0.04-0.27-0.02c-0.09,0.11-0.16,0.22-0.23,0.35
		c-0.17,0.36-0.39,0.69-0.68,0.96c-0.22,0.17-0.52,0.19-0.77,0.07c-0.91-0.36-1.71-0.65-2.38-0.89l-1.53-0.55l-1.62-0.64
		c0.05-0.13,0.11-0.24,0.16-0.35l0.01-0.03c0.28-0.51,0.65-0.97,1.13-1.33c0.7-0.36,1.43-0.65,2.18-0.87l0.16-0.05
		c0.38-0.1,0.74-0.2,1.13-0.26c1.8-0.45,3.38-0.78,4.75-1.01c0.08-0.4,0.19-0.8,0.33-1.19l0.38-0.86c0.27-0.56,0.47-1.04,0.63-1.4
		l-0.48,0.32c-0.04,0.06-0.09,0.11-0.11,0.17c-0.24,0.45-0.61,0.82-1.06,1.05c-0.46,0.19-1.24,0.42-1.73,0.55
		c-0.08,0.02-0.14,0.05-0.22,0.06c-1.68,0.35-3.33,0.79-4.95,1.33c-0.5,0.2-0.97,0.48-1.37,0.83c-0.4,0.45-0.7,0.98-0.88,1.55
		c0.04-0.69-0.13-1.38-0.47-1.97c-0.41-0.63-0.85-1.22-1.34-1.79c-0.7-0.75-1.29-1.58-1.78-2.49c-0.08-0.21-0.1-0.45-0.06-0.67
		c0.04-0.12,0.21-0.19,0.54-0.21c0.55,0.04,1.06-0.28,1.26-0.78c0.13-0.3,0.09-0.63-0.09-0.89c-0.15-0.24-0.36-0.43-0.63-0.55
		c-0.32-0.12-0.7-0.09-0.99,0.08c-0.36,0.18-0.63,0.49-0.77,0.87c-0.16,0.44-0.17,0.91-0.04,1.35c0.13,0.52,0.32,1.01,0.58,1.47
		c0.65,0.96,1.36,1.88,2.13,2.74c0.48,0.55,0.86,1.17,1.11,1.85c0.21,0.84,0.21,1.7,0.05,2.55l-0.73-0.57l-4.09-1.64l-0.21-0.07
		c-0.34-0.09-0.62-0.33-0.77-0.65c-0.08-0.46-0.05-0.92,0.11-1.36c0.06-0.17,0.09-0.34,0.08-0.52l-0.04-0.11
		c-0.08-0.01-0.15,0.02-0.2,0.08l-0.37,0.84c-0.23,0.76-0.75,2.15-1.52,4.17l-0.19,0.59l0.06,0.15
		C114.41,218.32,114.52,218.27,114.59,218.19z"/>
	<path class="st0" d="M141.43,317.37c-0.17-0.58-0.46-1.12-0.85-1.57c0.56,0.4,1.24,0.62,1.92,0.65c0.75-0.01,1.49-0.08,2.23-0.19
		c1.01-0.2,2.03-0.26,3.06-0.19c0.22,0.04,0.44,0.15,0.6,0.3c0.08,0.1,0.05,0.28-0.11,0.57c-0.33,0.44-0.32,1.04,0,1.48
		c0.18,0.27,0.49,0.41,0.81,0.39c0.28,0,0.56-0.08,0.8-0.24c0.27-0.21,0.44-0.54,0.46-0.89c0.03-0.4-0.09-0.79-0.33-1.11
		c-0.29-0.37-0.68-0.62-1.12-0.74c-0.5-0.16-1.02-0.26-1.55-0.29c-1.16,0.04-2.31,0.16-3.45,0.36c-0.72,0.12-1.45,0.12-2.16-0.04
		c-0.82-0.26-1.56-0.72-2.19-1.3l0.87-0.31l3.55-2.6l0.17-0.14c0.26-0.24,0.61-0.35,0.96-0.31c0.43,0.17,0.81,0.44,1.09,0.81
		c0.11,0.14,0.25,0.26,0.4,0.35l0.12,0.02c0.05-0.06,0.07-0.14,0.04-0.21l-0.52-0.75c-0.52-0.6-1.43-1.77-2.74-3.5l-0.4-0.47
		l-0.16-0.03c-0.07,0.09-0.09,0.21-0.06,0.3l0.43,0.69l-0.03,0.14c0.14,0.19,0.23,0.41,0.25,0.63c-0.23,0.39-0.57,0.71-0.95,0.94
		l-1.33,1.02l-1.71,1.24l-2.56,1.96l-0.78,0.57l-1.74,1.28l-0.9,0.68c-0.2,0.19-0.46,0.27-0.72,0.23c-0.54-0.33-1.04-0.75-1.45-1.24
		c-0.06-0.05-0.14-0.07-0.21-0.04l-0.26,0.22l0.19,0.28c0.38,0.51,0.78,1.01,1.21,1.49l0.62,0.72c0.18,0.23,0.41,0.59,0.72,1.1
		l0.6,0.96l0.24,0.29c0.07,0.06,0.17,0.08,0.26,0.05c0.07-0.06,0.12-0.13,0.16-0.21c-0.05-0.13-0.1-0.25-0.17-0.38
		c-0.22-0.33-0.38-0.7-0.46-1.08c-0.03-0.28,0.11-0.55,0.35-0.69c0.78-0.58,1.46-1.1,2.01-1.55l1.28-1.01l1.4-1.03
		c0.08,0.11,0.14,0.22,0.21,0.32l0.02,0.02c0.28,0.51,0.48,1.07,0.53,1.66c-0.07,0.79-0.21,1.56-0.42,2.31l-0.04,0.16
		c-0.11,0.37-0.23,0.74-0.37,1.09c-0.57,1.76-1.12,3.28-1.66,4.56c0.3,0.28,0.58,0.58,0.83,0.91l0.53,0.78
		c0.34,0.53,0.63,0.95,0.85,1.28l-0.01-0.58c-0.03-0.07-0.05-0.13-0.09-0.19c-0.25-0.44-0.37-0.95-0.33-1.45
		c0.08-0.49,0.3-1.28,0.45-1.76c0.02-0.08,0.04-0.14,0.07-0.22c0.59-1.61,1.1-3.24,1.5-4.91
		C141.5,318.44,141.51,317.9,141.43,317.37z"/>
	<path class="st0" d="M207.8,355.67l0.12-0.22l-0.51-0.19l-2.23-0.88l-0.93-0.43c-0.51-0.27-0.95-0.49-1.32-0.65l-0.46-0.19h-0.22
		c-0.17,0-0.29,0-0.29,0c-0.02,0.05-0.02,0.1,0,0.14l0.67,0.53c0.3,0.17,0.57,0.39,0.79,0.65c0.06,0.19,0.06,0.39,0,0.58
		c-0.19,0.6-0.41,1.18-0.67,1.75l-0.27,0.63l-1.22,2.75l-1.41,3.18l-1.05,2.56c-0.11,0.26-0.28,0.59-0.51,0.98
		c-0.54-0.14-1.06-0.32-1.58-0.53l-1.82-0.81c-1.58-0.69-2.55-1.13-2.92-1.34l0.81-1.99l2.27-5.13l1.24-2.8l0.27-0.65l0.24-0.63
		c0.24-0.55,0.48-0.95,0.7-0.95c0.45-0.07,0.9-0.01,1.32,0.17c0.32,0.06,0.65,0.06,0.95,0v-0.24l-0.51-0.19l-2.23-0.88l-0.91-0.43
		c-0.53-0.27-0.97-0.49-1.34-0.65l-0.46-0.19h-0.22c-0.17,0-0.29,0-0.29,0c-0.02,0.05-0.02,0.1,0,0.14
		c0.21,0.19,0.44,0.37,0.67,0.53c0.29,0.18,0.55,0.4,0.76,0.65c0.06,0.2,0.06,0.41,0,0.6c-0.19,0.6-0.41,1.18-0.67,1.75l-3.02,6.99
		l-0.83,1.94c-0.17,0.42-0.38,0.82-0.63,1.19c-0.48-0.12-0.93-0.27-1.39-0.46l-0.98-0.46l-1.65-0.75l-1.36-0.58
		c-0.32-0.14-0.62-0.3-0.91-0.48l2.39-5.62l0.63-1.46l1.24-2.8l0.27-0.65l0.24-0.63c0.24-0.55,0.48-0.95,0.7-0.95
		c0.45-0.07,0.9-0.01,1.32,0.17c0.32,0.06,0.65,0.06,0.95,0v-0.24l-0.51-0.19l-2.23-0.88l-0.91-0.43c-0.53-0.29-0.98-0.53-1.34-0.67
		l-0.46-0.19h-0.18l-0.18,0.19c0,0-0.01,0-0.01,0l-0.03,0.03c0,0,0,0-0.01,0l0.59,0.46c0.3,0.17,0.57,0.39,0.79,0.65
		c0.06,0.19,0.06,0.39,0,0.58c-0.19,0.6-0.41,1.18-0.67,1.75l-2.87,6.59l-0.79,1.89c-0.23,0.65-0.56,1.24-0.98,1.77
		c-0.23-0.01-0.46-0.05-0.67-0.14c-0.34-0.13-0.7-0.2-1.05-0.22c-0.09,0.12-0.16,0.25-0.22,0.39c0.98,0.31,1.63,0.55,2.01,0.72
		l1.65,0.65l3.35,1.34l1.36,0.6l6.75,2.85l6.71,2.94l0.17-0.1c0.05-0.14,0.12-0.19-0.53-0.63c-0.65-0.44-1.07-0.75-1.07-0.95
		c0.02-0.6,0.19-1.18,0.48-1.7l1.12-2.39l0.88-2.13l0.34-0.72l1.24-2.8l0.27-0.65l0.24-0.63c0.24-0.55,0.48-0.95,0.7-0.95
		c0.45-0.07,0.9-0.01,1.32,0.17C207.17,355.73,207.49,355.73,207.8,355.67z"/>
	<path class="st0" d="M234.25,372.21c-0.43,0.7-0.96,1.33-1.58,1.87c-0.4,0.28-0.86,0.43-1.34,0.46c-1-0.01-2.01-0.12-2.99-0.34
		l-1.56-0.29l-0.72-0.14h-0.7c-0.43-0.07-0.81-0.22-0.81-0.41c-0.09-0.46-0.09-0.93,0-1.39l0.22-1.29l0.24-1.34l0.36-2.13v-0.39
		c0.71,0.07,1.41,0.17,2.11,0.31l0.75,0.14l1.27,0.22h0.6c0.38,0.03,0.74,0.21,1,0.48c0.26,0.49,0.39,1.03,0.39,1.58
		c0.02,0.37,0.08,0.73,0.19,1.07h0.24c0.01-0.09,0.01-0.18,0-0.27c0-0.05-0.05-0.31,0-0.81s0.17-0.93,0.17-1.34
		c0.27-1.48,0.53-2.37,0.53-2.65v-0.27c0.01-0.06,0.01-0.11,0-0.17h-0.27c-0.19,0.05-0.39,0.36-0.55,0.93
		c-0.07,0.38-0.23,0.73-0.46,1.03c-0.24,0.07-0.5,0.07-0.75,0l-3.21-0.53h-0.24l-0.79-0.17h-0.58h-0.19h-0.27l0.29-1.6l0.43-2.77
		c0.04-0.56,0.21-1.09,0.48-1.58c0.1,0,0.36,0,0.79,0h0.29l3.3,0.51h0.51l1.03,0.22c0.23,0.02,0.45,0.1,0.65,0.22
		c0.16,0.19,0.27,0.41,0.34,0.65c0.18,0.45,0.31,0.91,0.41,1.39c0.05,0.29,0.11,0.57,0.19,0.83h0.22c0.03-0.56,0.12-1.23,0.27-2.04
		c0.12-0.05,0.12-0.19,0.12-0.41c0.06-0.16,0.11-0.32,0.14-0.48c0.01-0.07,0.01-0.15,0-0.22l-0.95-0.14h-0.19l-1.63-0.29l-1.29-0.29
		l-1.15-0.17l-2.39-0.39l-2.01-0.41l-0.86-0.12l-1.39-0.31h-0.39h-0.19c-0.01,0.07-0.01,0.15,0,0.22c-0.04,0.07-0.04,0.17,0,0.24
		l0.76,0.22c0.67,0.14,1.17,0.31,1.17,0.48c0.1,0.44,0.1,0.89,0,1.34l-0.53,3.28l-0.53,2.9l-0.22,1.39l-0.53,2.92l-0.12,0.81
		c-0.02,0.23-0.12,0.45-0.27,0.63c-0.47,0.07-0.94,0.07-1.41,0h-0.79h-0.22l0.12,0.1c-0.03,0.06-0.03,0.13,0,0.19
		c0.07,0.02,0.15,0.02,0.22,0l3.06,0.46l0.79-0.12l1.41,0.24l3.45,0.55l1.46,0.27l3.23,0.53h0.24c0.16-0.17,0.26-0.38,0.29-0.6
		c0.11-0.55,0.26-1.09,0.43-1.63c0.19-0.49,0.4-0.97,0.65-1.44c-0.06-0.06-0.13-0.1-0.22-0.12
		C234.63,371.77,234.44,371.92,234.25,372.21z"/>
	<path class="st0" d="M219.92,360.19c0.17,0.52,0.22,1.06,0.17,1.6c-0.03,0.19-0.03,0.39,0,0.58c0.03,0.06,0.08,0.1,0.14,0.12h0.24
		c0.01-0.07,0.01-0.15,0-0.22l0.67-2.25l0.24-0.95l0.14-0.46c0.02-0.14,0.02-0.29,0-0.43h-0.22c-0.14-0.02-0.29,0.05-0.46,0.24
		l-0.58,0.67c-0.1,0.05-0.21,0.05-0.31,0l-0.93-0.31h-0.29l-1.75-0.43l-0.93-0.24l-3.16-0.83l-2.65-0.75l-0.48-0.17
		c-0.13-0.05-0.25-0.13-0.34-0.24c-0.1-0.16-0.16-0.34-0.19-0.53c-0.1-0.36-0.19-0.6-0.34-0.6c-0.07-0.03-0.15-0.03-0.22,0
		c-0.14,0.11-0.25,0.26-0.31,0.43l-0.93,1.58c0,0-0.63,1.6-0.75,1.87c-0.02,0.05-0.02,0.1,0,0.14c0.19,0.05,0.46-0.1,0.79-0.41
		c0.63-0.6,1.36-1.07,2.16-1.41c0.7-0.01,1.38,0.1,2.04,0.34c0.61,0.16,1.21,0.35,1.8,0.58l-0.91,3.18l-0.19,0.91l-1.07,4.19
		l-0.51,1.92c-0.16,0.66-0.37,1.29-0.63,1.92c-0.05,0.12-0.13,0.22-0.24,0.29c-0.3,0.1-0.62,0.14-0.93,0.12h-1.17
		c-0.15-0.04-0.31-0.04-0.46,0c-0.1,0.08-0.16,0.19-0.19,0.31h0.14l0.63,0.19l1.22,0.27l1.68,0.36l2.18,0.36l1.58,0.48v-0.34
		c-0.1-0.08-0.21-0.15-0.34-0.19l-1.29-0.7c-0.26-0.12-0.48-0.3-0.65-0.53c-0.07-0.2-0.07-0.41,0-0.6l0.24-0.83l0.39-1.51
		c0.32-0.76,0.48-1.28,0.48-1.56l1.8-7.03c0.07-0.24,0.24-0.53,0.24-0.81l1.92,0.46c0.69,0.16,1.35,0.38,1.99,0.67
		C219.6,359.74,219.8,359.95,219.92,360.19z"/>
	<path class="st0" d="M116.53,280.69c0.93,0.84,2.24,1.19,3.47,0.9c1.08-0.21,2.03-0.85,2.63-1.77c0.64-1.45,0.7-3.08,0.17-4.57
		c-0.22-1.01-0.5-2.02-0.83-2.99l0.46-0.12h0.24l1.97-0.53c0.65-0.17,1.3-0.3,1.97-0.39c0.24-0.08,0.5-0.08,0.75,0
		c0.26,0.18,0.47,0.41,0.63,0.67l0.65,1.34h0.43c-0.43-1.24-0.75-2.37-0.95-3.33l-0.46-2.13l-0.12-0.63l-0.17-0.72l-0.07-0.21
		l-0.39,0c-0.04,0.56-0.04,1.12,0.01,1.68c0.17,0.41,0.12,0.79,0,0.79c-0.29,0.19-0.62,0.31-0.95,0.36l-0.58,0.12l-2.21,0.55
		l-4.96,1.17l-1.32,0.34c-0.71,0.27-1.42,0.5-2.16,0.67c-0.24,0.05-0.49-0.01-0.7-0.14c-0.32-0.49-0.6-1.01-0.81-1.56
		c-0.1-0.24-0.22-0.24-0.39-0.24h-0.12c0.03,0.27,0.08,0.53,0.14,0.79l0.58,2.39c0.1,0.42,0.22,0.89,0.36,1.44l0.14,0.53l0.39,1.7
		C114.58,278.32,115.37,279.68,116.53,280.69z M114.92,276.35c-0.17-0.61-0.17-1.24,0-1.85c0.11-0.35,0.35-0.65,0.67-0.81
		c0.31-0.14,1.85-0.54,4.62-1.17l1.18-0.26c0,0,0-0.01,0-0.01h0.01c0-0.01-0.01-0.01-0.01-0.02l0.02,0.02h-0.01c0,0,0,0.01,0,0.01
		l-0.01,0c0.26,0.77,0.46,1.56,0.63,2.35c0.3,1.04,0.21,2.16-0.24,3.14c-0.48,0.92-1.37,1.56-2.39,1.72
		c-0.93,0.22-1.92,0.04-2.73-0.48C115.75,278.4,115.11,277.44,114.92,276.35z"/>
	<path class="st0" d="M185.94,346.16l0.12-0.12l-1.82-1.1l-1.24-0.88l-1.22-0.93l-0.46-0.24c-0.08,0.11-0.13,0.23-0.17,0.36
		l0.29,0.27l0.29,0.27c0.41,0.36,0.65,0.7,0.65,0.7c-0.13,0.32-0.33,0.6-0.58,0.83c0.02-0.01-0.03,0.03-0.03,0.03
		c0.01-0.01,0.01-0.02,0.02-0.03c-1.22,0.38-2.54,0.73-3.92,1.08l-3.16,0.81l-2.39,0.63l-2.92,1.22l1.22-1.85l1.12-1.65l1.15-1.68
		l0.63-0.88l1.22-1.82l0.29-0.46c0.27-0.39,0.46-0.58,0.58-0.63s0.39,0.05,0.75,0.24c0.31,0.19,0.66,0.33,1,0.41
		c0.1-0.1,0.19-0.22,0.27-0.34l-1.82-1.1l-1.27-0.88l-1.22-0.93l-0.46-0.24c-0.08,0.11-0.13,0.23-0.17,0.36l0.29,0.27l0.29,0.27
		c0.23,0.18,0.44,0.38,0.63,0.6c0.03,0.08,0.03,0.16,0,0.24c-0.09,0.24-0.21,0.47-0.36,0.67l-1.41,2.13l-2.23,3.3l-0.76,1.15
		l-0.65,1l-0.29,0.41l-0.27,0.34l-0.93,1.39c-0.31,0.48-0.81,0.53-1.51,0.17c-0.34-0.21-0.72-0.35-1.1-0.41l-0.12,0.17l-0.12,0.19
		c1.07,0.5,2.11,1.07,3.09,1.72c0.74,0.5,1.42,1.05,2.06,1.68c0.07-0.1,0.07-0.23,0-0.34c-0.21-0.29-0.44-0.57-0.7-0.81
		c-0.21-0.18-0.39-0.38-0.55-0.6c-0.06-0.15-0.06-0.31,0-0.46c0.14-0.36,0.33-0.7,0.55-1l1.48-0.48c0.97-0.34,1.89-0.61,2.73-0.81
		l2.09-0.55l6.79-1.77l-4.57,6.84l-0.31,0.41l-0.27,0.36l-0.93,1.39c-0.34,0.5-0.83,0.56-1.51,0.19c-0.34-0.21-0.71-0.35-1.1-0.41
		l-0.14,0.17v0.22c1.07,0.5,2.11,1.07,3.09,1.72c0.74,0.5,1.42,1.05,2.06,1.68c0.08-0.11,0.08-0.25,0-0.36
		c-0.2-0.29-0.43-0.57-0.67-0.81c-0.42-0.39-0.63-0.65-0.63-0.79c0.39-0.85,0.86-1.65,1.44-2.39l0.93-1.44l1.12-1.63l1.12-1.7
		l0.63-0.88l1.22-1.82l0.29-0.46c0.27-0.39,0.48-0.63,0.6-0.63c0.26,0.01,0.51,0.1,0.72,0.24c0.3,0.19,0.64,0.32,0.98,0.4l0.17-0.19
		H185.94z"/>
	<path class="st0" d="M121.1,285.92h0.51l6.84-1.63c1.45-0.34,2.25-0.42,2.39-0.24c0.26,0.42,0.46,0.86,0.6,1.34
		c0.17,0.43,0.31,0.74,0.31,0.74l0.52-0.05c-0.01-0.04-0.95-3.06-0.95-3.06l-0.41-1.87l-0.46-2.13c-0.19,0.05-0.34,0.22-0.34,0.22
		c-0.04,0.33-0.04,0.66,0,0.98c0.1,0.5,0.1,1.01,0,1.51l-0.29,0.22l-1.36,0.39l-1.77,0.39l-5.26,1.24l-1.29,0.31
		c-0.95,0.25-1.94,0.38-2.92,0.36c-0.24-0.07-0.43-0.36-0.6-0.81c-0.14-0.34-0.26-0.68-0.36-1.03c-0.05-0.17-0.13-0.34-0.24-0.48
		l0.02,0.22h-0.34v0.22l0.6,2.68l0.39,1.56l0.19,1l0.27,1.46l0.34-0.12c0-0.1,0-0.39,0-0.86c-0.06-0.35-0.06-0.71,0-1.05
		c0.03-0.26,0.18-0.5,0.41-0.63c0.74-0.27,1.48-0.48,2.25-0.63L121.1,285.92z"/>
	<path class="st0" d="M130.27,309.62l2.39-1.12l2.09-1.03l0.72-0.34l2.73-1.27l0.63-0.31l0.6-0.31c0.34-0.22,0.75-0.32,1.15-0.27
		c0.38,0.24,0.69,0.58,0.88,0.98c0.17,0.27,0.39,0.51,0.65,0.7h0.24l-0.01-0.02l-0.11-0.17c0-0.04-0.01-0.07-0.01-0.1l-0.1-0.19
		l-1.1-2.13c-0.12-0.27-0.19-0.39-0.41-0.93c-0.22-0.55-0.41-1-0.58-1.36l-0.22-0.46v-0.22c-0.07-0.17-0.24-0.17-0.24-0.17
		c-0.01,0.04-0.01,0.08,0,0.12c0.04,0.28,0.09,0.57,0.17,0.83c0.11,0.32,0.16,0.65,0.17,0.98c-0.02,0.1-0.17,0.24-0.41,0.41
		c-0.53,0.33-1.08,0.63-1.65,0.88l-0.63,0.29l-2.73,1.27l-3.5,1.34l-2.39,1.24l-1,0.41c-0.32-0.46-0.61-0.93-0.86-1.44l-0.83-1.8
		c-0.74-1.55-1.17-2.52-1.32-2.92l1.92-0.95l4.98-2.39l2.77-1.29l0.63-0.31l0.6-0.31c0.34-0.22,0.75-0.32,1.15-0.27
		c0.38,0.24,0.69,0.58,0.88,0.98c0.17,0.28,0.4,0.53,0.67,0.72h0.24l-0.24-0.48l-1.1-2.13c-0.12-0.27-0.27-0.58-0.41-0.93
		c-0.21-0.56-0.4-1.01-0.58-1.36l-0.22-0.46v-0.22c-0.07-0.17-0.24-0.17-0.24-0.17c-0.01,0.04-0.01,0.08,0,0.12
		c0.04,0.28,0.09,0.57,0.17,0.83c0.11,0.32,0.16,0.65,0.17,0.98c-0.02,0.1-0.17,0.24-0.41,0.41c-0.53,0.33-1.08,0.63-1.65,0.88
		l-6.86,3.28l-1.92,0.93c-0.4,0.21-0.81,0.38-1.24,0.51c-0.29-0.4-0.55-0.81-0.76-1.24l-0.46-0.98l-0.76-1.63l-0.67-1.34
		c-0.15-0.31-0.28-0.63-0.39-0.95l5.5-2.73l1.44-0.7l2.77-1.29l0.63-0.31l0.6-0.31c0.34-0.22,0.75-0.32,1.15-0.27
		c0.38,0.24,0.69,0.58,0.88,0.98c0.17,0.28,0.4,0.53,0.67,0.72h0.24l-0.24-0.48l-1.32-2.21c-0.12-0.27-0.19-0.39-0.41-0.93
		c-0.22-0.55-0.25-0.76-0.41-1.11l-0.59,0.07c0,0,0.65,0.89-0.1,1.19c-0.53,0.33-1.08,0.63-1.65,0.88l-6.49,3.09l-1.85,0.93
		c-0.6,0.34-1.24,0.58-1.92,0.7c-0.17-0.16-0.31-0.35-0.41-0.55c-0.18-0.32-0.41-0.6-0.67-0.83l-0.41,0.14
		c0.51,0.88,0.86,1.51,1.03,1.87l0.81,1.56l1.75,3.21l0.65,1.34l3.16,6.61l3.14,6.61l0.17-0.07c0.12-0.07,0.14-0.34,0-0.81
		c-0.18-0.46-0.25-0.95-0.19-1.44C128.87,310.4,129.36,310.07,130.27,309.62z"/>
	<path class="st0" d="M153.64,334.66c0.83-0.74,1.34-1.78,1.39-2.9c-0.26-1.57-1.12-2.98-2.39-3.92c-0.75-0.73-1.55-1.41-2.39-2.04
		l0.31-0.36l0.17-0.17l1.36-1.53c0.45-0.49,0.93-0.95,1.44-1.39c0.18-0.18,0.42-0.29,0.67-0.31c0.3,0.06,0.59,0.18,0.83,0.36
		l1.27,0.76l0.36-0.22l-0.17-0.07c-1.02-0.83-1.89-1.59-2.61-2.27l-1.56-1.56l-0.43-0.46l-0.53-0.51l-0.36-0.34
		c-0.08,0.08-0.13,0.18-0.14,0.29c0.31,0.52,0.66,1,1.05,1.46c0.36,0.31,0.36,0.55,0.36,0.72c-0.14,0.32-0.34,0.61-0.6,0.83
		l-0.43,0.43l-1.53,1.87l-3.52,3.69l-0.93,1c-0.48,0.51-0.97,0.98-1.51,1.44c-0.29,0.27-0.51,0.27-0.67,0.27
		c-0.53-0.24-1.03-0.53-1.51-0.86c-0.19,0-0.46,0-0.46,0l0.55,0.58l1.85,1.6l1.07,1.1l0.41,0.36l1.24,1.22
		c1.06,1.11,2.47,1.83,3.99,2.04C151.5,335.98,152.77,335.56,153.64,334.66z M149.58,334.51c-1.1,0-2.17-0.46-2.92-1.27
		c-0.48-0.4-0.84-0.92-1.05-1.51c-0.14-0.34-0.14-0.72,0-1.05c0.18-0.29,1.25-1.46,3.23-3.52l0.81-0.83
		c0.65,0.52,1.26,1.06,1.84,1.65c0.81,0.72,1.35,1.7,1.51,2.77c0.11,1.01-0.27,2.01-1,2.7C151.36,334.1,150.49,334.48,149.58,334.51
		z"/>
	<path class="st0" d="M165.66,332.3l0.27-0.24l-2.39-2.16l-1.36-1.36l-1.53-1.53c-0.17,0.14-0.17,0.36-0.17,0.36
		c0.16,0.29,0.37,0.56,0.6,0.79c0.36,0.36,0.65,0.77,0.83,1.24c0.01,0.11,0.01,0.23,0,0.34c-0.34,0.43-0.65,0.79-0.93,1.07
		l-1.27,1.29l-3.74,3.92l-0.91,0.95c-0.62,0.74-1.34,1.39-2.13,1.94c-0.24,0.07-0.55-0.05-0.93-0.36c-0.3-0.21-0.59-0.43-0.86-0.67
		c-0.14-0.12-0.31-0.21-0.48-0.27l-0.05-0.05l-0.22,0.27l0.14,0.14l1.99,1.92l1.17,1.1l0.72,0.75l1.15,1.07
		c0.09-0.09,0.16-0.18,0.22-0.29c0.02-0.12-0.12-0.36-0.48-0.72c-0.25-0.25-0.45-0.55-0.6-0.86c-0.12-0.23-0.12-0.51,0-0.75
		c0.47-0.63,0.99-1.21,1.56-1.75l0.43-0.43l0.36-0.36l4.79-5.1c1.07-1.02,1.72-1.53,1.94-1.53c0.45,0.21,0.86,0.47,1.24,0.79
		L165.66,332.3z"/>
	<path class="st0" d="M127.08,266.22h0.19l0,0.01l0.2,0c0.01-0.08,0.01-0.16,0-0.24c0-0.14-0.12-0.36-0.36-0.36l-0.81-0.34
		c-0.08-0.06-0.14-0.16-0.14-0.27c0-0.12,0-0.46,0-0.98c0-0.12,0-0.29,0-0.29l-0.17-1.8v-0.95l-0.24-3.26l-0.17-2.75v-0.63
		c-0.03-0.13-0.03-0.26,0-0.39c0.12-0.15,0.27-0.27,0.43-0.36c0.32-0.19,0.48-0.36,0.48-0.51c0.03-0.06,0.03-0.13,0-0.19
		c-0.15-0.04-0.31-0.04-0.46,0l-1.8-0.36l-0.12,0.14l-1.24-0.19L122,252.4h-0.12c0.02,0.19,0.24,0.41,0.65,0.63
		c0.83,0.43,1.58,1.01,2.21,1.72c0.25,0.65,0.37,1.34,0.36,2.04c0.03,0.63,0.03,1.26,0,1.89l-3.11,0.22h-0.93l-4.33,0.36h-1.99
		c-0.67,0.05-1.34,0.05-2.01,0c-0.08,0-0.16-0.02-0.24-0.05c-0.2-0.26-0.35-0.55-0.43-0.86c-0.13-0.37-0.25-0.75-0.34-1.12
		c-0.01-0.15-0.06-0.3-0.14-0.43c-0.12-0.04-0.24-0.04-0.36,0v0.17c-0.01,0.22-0.01,0.43,0,0.65l0.14,1.24l0.19,1.7
		c0,0.46,0,1.15,0,2.06v1.65h0.43c0.02-0.12,0.02-0.24,0-0.36c0.02-0.24,0.09-0.73,0.22-1.46c0.02-0.29,0.12-0.56,0.29-0.79
		c0.05-0.35,0.28-0.64,0.6-0.76h0.86l1.56-0.12h1.63l7.18-0.6h0.86c0.13,0.42,0.19,1.07,0.19,1.97c0.07,0.7,0.07,1.41,0,2.11
		c-0.05,0.27-0.19,0.51-0.39,0.7c-0.44,0.33-0.93,0.57-1.46,0.7c-0.19,0.05-0.36,0.12-0.53,0.22c-0.02,0.05-0.02,0.11,0,0.17
		c-0.02,0.07-0.02,0.15,0,0.22h0.24h2.39h0.98l0.27,0c0,0,0,0,0,0H127.08z"/>
	<path class="st0" d="M247.18,361.81c-0.9-0.42-1.9-0.63-2.9-0.63c-0.7,0-1.29,0-1.82,0h-1.99h-1.75h-1.32h-0.34l0.02,0.07
		c-0.02,0.07-0.02,0.15,0,0.22c-0.02,0.07-0.02,0.15,0,0.22c0.75,0.06,1.48,0.3,2.13,0.7c0.22,0.17,0.22,0.53,0.22,1.07v0.19
		c0,1.45,0,2.88,0,4.28c0,3,0,4.97,0,5.89c0,0.29,0,0.43,0,0.67c0,0.24,0,0.46,0,0.46c0.02,0.23-0.03,0.45-0.14,0.65
		c-0.13,0.1-0.29,0.17-0.46,0.19l-1.53,0.24v0.31h0.67h1.22h2.06c0.53,0.03,1.05,0.09,1.58,0.17h0.65c0.1,0.03,0.21,0.03,0.31,0
		c0.06-0.06,0.11-0.13,0.12-0.22c-0.03-0.07-0.09-0.13-0.17-0.17l-0.7-0.19l-1.63-0.43c-0.04-0.29-0.04-0.58,0-0.86
		c0-0.17,0-0.34,0-0.55c0-0.22,0-0.43,0-0.43v-6.01c0-0.39,0-1.39,0-2.97c0-0.46,0-0.76,0-0.98v-1.72c0.56-0.18,1.14-0.23,1.72-0.14
		c0.45,0.03,0.88,0.11,1.32,0.24c0.45,0.1,0.86,0.28,1.24,0.53c0.49,0.38,0.87,0.85,1.12,1.41c0.27,0.56,0.41,1.17,0.39,1.8
		c-0.02,0.62-0.18,1.22-0.48,1.77c-0.29,0.54-0.75,0.97-1.29,1.24c-0.55,0.29-1.15,0.43-1.77,0.41c-0.34,0-0.69-0.06-1-0.17
		c-0.11-0.02-0.23-0.02-0.34,0c-0.05-0.01-0.1-0.01-0.14,0c0.05,0.14,0.14,0.26,0.27,0.34c0.55,0.45,1.23,0.69,1.94,0.67
		c1.29,0.11,2.57-0.34,3.52-1.22c0.85-0.81,1.36-1.93,1.39-3.11c0.01-0.77-0.16-1.54-0.51-2.23
		C248.46,362.79,247.89,362.19,247.18,361.81z"/>
	<path class="st0" d="M330.72,351.88c-0.35,0.06-0.7,0.15-1.03,0.27c-0.3,0.16-0.65,0.23-0.98,0.22c-0.61-0.74-1.13-1.54-1.56-2.39
		l-0.91-1.46l-1-1.72l-1.05-1.75l-0.55-0.93l-1.12-1.87l-0.29-0.46c-0.18-0.24-0.29-0.52-0.31-0.81c0.02-0.12,0.22-0.31,0.53-0.55
		c0.3-0.2,0.57-0.46,0.79-0.75c-0.04-0.13-0.1-0.26-0.17-0.39c-0.88,0.63-1.48,1.03-1.77,1.19l-1.32,0.76l-1.36,0.72l-0.41,0.31
		c0.07,0.12,0.16,0.23,0.27,0.31l0.36-0.14l0.36-0.14c0.28-0.17,0.59-0.28,0.91-0.31c0.1,0.02,0.29,0.27,0.6,0.72l-0.05,0.05
		c-0.19,1.29-0.41,2.65-0.7,4.09l-0.6,3.21l-0.46,2.39l-0.53,3.35l-1.15-1.89l-1-1.7l-1.05-1.75l-0.55-0.93l-1.12-1.87l-0.29-0.46
		c-0.17-0.24-0.28-0.51-0.31-0.79c0-0.12,0.19-0.31,0.53-0.55c0.3-0.21,0.57-0.46,0.79-0.75c-0.05-0.14-0.11-0.26-0.19-0.39
		l-1.77,1.19l-1.32,0.76l-1.34,0.72l-0.41,0.31c0.06,0.12,0.14,0.22,0.24,0.31l0.36-0.14l0.36-0.14c0.25-0.13,0.52-0.24,0.79-0.31
		c0.07-0.02,0.15-0.02,0.22,0c0.18,0.19,0.34,0.4,0.46,0.63l1.39,2.13l2.24,3.43l0.72,1.17l0.65,1l0.24,0.43l0.22,0.39l0.86,1.44
		c0.31,0.48,0.14,0.95-0.48,1.44c-0.34,0.22-0.62,0.51-0.83,0.83v0.19l0.12,0.19c0.9-0.75,1.87-1.44,2.87-2.06
		c0.76-0.47,1.56-0.85,2.39-1.17h0.12c0.01-0.05,0.01-0.1,0-0.14c-0.06-0.12-0.18-0.18-0.31-0.17c-0.35,0.06-0.7,0.16-1.03,0.29
		c-0.25,0.11-0.51,0.19-0.76,0.24c-0.16-0.01-0.31-0.09-0.41-0.22c-0.26-0.28-0.49-0.6-0.67-0.93l0.19-1.56
		c0.12-1.03,0.27-1.99,0.43-2.82c0.17-0.83,0.39-1.56,0.39-2.13l1.24-6.61l4.31,7.03l0.24,0.46l0.22,0.39l0.86,1.44
		c0.29,0.5,0.13,0.97-0.48,1.44c-0.34,0.22-0.62,0.51-0.83,0.83v0.19l0.14,0.19c0.9-0.75,1.87-1.44,2.87-2.06
		c0.76-0.46,1.56-0.84,2.39-1.15h0.14c0.01-0.05,0.01-0.1,0-0.14C330.98,351.93,330.85,351.87,330.72,351.88z"/>
	<path class="st0" d="M361.87,322.17l-0.57,0.45l-1.29,1.07c-0.27-0.11-0.52-0.25-0.75-0.43l-0.43-0.36l-0.34-0.29l-4.35-3.09
		l-0.53-0.39c-0.34-0.19-1.13-0.76-2.39-1.72l-0.76-0.6l-0.17-0.14l-1.07-0.76h-0.12c0.17-0.57,0.47-1.08,0.86-1.51
		c0.29-0.35,0.61-0.66,0.95-0.93c0.34-0.31,0.73-0.56,1.15-0.72c0.59-0.15,1.2-0.15,1.8,0c0.61,0.1,1.18,0.35,1.68,0.72
		c0.5,0.37,0.89,0.85,1.17,1.41c0.28,0.55,0.38,1.16,0.29,1.77c-0.08,0.61-0.32,1.19-0.7,1.68c-0.2,0.28-0.44,0.52-0.72,0.72
		c-0.1,0.05-0.19,0.13-0.27,0.22c-0.02,0.05-0.02,0.11,0,0.17c0.13,0.05,0.28,0.05,0.41,0c0.68-0.19,1.26-0.62,1.65-1.19
		c0.82-0.99,1.2-2.28,1.03-3.57c-0.17-1.16-0.79-2.22-1.75-2.92c-0.63-0.46-1.36-0.75-2.13-0.86c-0.81-0.16-1.66-0.03-2.39,0.36
		c-0.86,0.51-1.61,1.19-2.18,2.01c-0.42,0.56-0.76,1.06-1.03,1.51l-1.1,1.65l-0.63,0.91l-0.41,0.53l-0.83,1l-0.14,0.24
		c0.01,0.01,0.01,0.02,0.02,0.03h0.22c0.49-0.59,1.1-1.04,1.8-1.34c0.22-0.05,0.55,0.1,1,0.43l0.17,0.12l3.45,2.53
		c2.45,1.74,4.05,2.89,4.79,3.45l0.53,0.41l0.36,0.29c0.19,0.12,0.34,0.28,0.43,0.48c0.04,0.16,0.04,0.32,0,0.48l-0.67,1.39
		l0.24,0.17l0.39-0.55l0.76-0.95l1.17-1.68c0.32-0.42,0.67-0.81,1.03-1.19l0.43-0.48c0.07-0.07,0.12-0.17,0.14-0.27
		c0.02-0.08,0.02-0.16,0-0.24C362.02,322.15,361.94,322.15,361.87,322.17z"/>
	<path class="st0" d="M313.75,361.24c-0.3-0.04-0.6-0.04-0.88,0l-0.95,0.17c-0.12,0-0.23-0.04-0.31-0.12
		c-0.25-0.29-0.44-0.63-0.58-0.98l-0.6-1.46l-0.75-1.63l-0.72-1.77l-0.81-1.87l-0.41-1l-0.34-0.76l-0.53-1.24l-0.22-0.51v-0.24
		c-0.11-0.22-0.11-0.48,0-0.7c0.16-0.16,0.35-0.29,0.55-0.39c0.33-0.16,0.63-0.37,0.88-0.63c0.01-0.14,0.01-0.27,0-0.41
		c-0.95,0.48-1.63,0.83-2.06,1l-1.99,0.79l-0.75,0.27l-0.43,0.27c0.05,0.12,0.13,0.24,0.22,0.34h0.36l1.19-0.31
		c0.11,0.02,0.21,0.09,0.27,0.19c0.35,0.64,0.66,1.29,0.91,1.97c0.51,1.18,1,2.4,1.48,3.67l-0.6,0.31l-2.7,1.24l-1.05,0.41
		l-1.58,0.7l-0.43,0.17c-0.47,0.19-0.94,0.35-1.44,0.48l-0.48-1c-0.56-1.21-1.08-2.4-1.58-3.57c-0.26-0.64-0.34-1.07-0.24-1.29
		c0.42-0.46,0.93-0.82,1.51-1.05c0.06-0.03,0.1-0.08,0.12-0.14c0.02-0.06,0.02-0.13,0-0.19v-0.17l-1.75,0.83
		c-0.78,0.4-1.53,0.75-2.24,1.05l-1.03,0.43l-0.39,0.19v0.22c0.04,0.07,0.09,0.12,0.14,0.17l0.72-0.22
		c0.26-0.11,0.54-0.18,0.81-0.22c0.11,0.01,0.2,0.06,0.27,0.14c0.2,0.34,0.37,0.69,0.51,1.05l0.46,1.15
		c0.21,0.56,0.41,1.07,0.6,1.53l1.24,2.94l0.34,0.88l0.55,1.39l0.41,0.86l0.31,0.76l0.36,0.81c0.1,0.25,0.15,0.52,0.14,0.79
		c-0.01,0.15-0.07,0.3-0.17,0.41c-0.27,0.24-0.57,0.44-0.88,0.6c-0.25,0.13-0.46,0.31-0.64,0.52l0.26-0.11l2.18-1l0.95-0.36
		l1.39-0.51l0.48-0.19h0.22c0.07-0.03,0.13-0.08,0.17-0.14h-0.83c-0.31,0.07-0.62,0.11-0.93,0.12c-0.14-0.03-0.26-0.12-0.34-0.24
		c-0.37-0.61-0.68-1.25-0.93-1.92l-0.27-0.63l-0.81-2.06l-0.34-0.75c-0.05-0.13-0.05-0.28,0-0.41c0.06-0.11,0.17-0.2,0.29-0.24
		l0.55-0.24l0.63-0.29l1.53-0.63l1.1-0.43l0.76-0.36c0.91-0.5,1.87-0.92,2.85-1.27c0.08,0.01,0.16,0.07,0.19,0.14l1.17,2.65
		l0.29,0.76l0.67,1.56c0.09,0.21,0.09,0.44,0,0.65c-0.15,0.3-0.39,0.55-0.7,0.7c-0.36,0.18-0.68,0.42-0.93,0.72v0.22v0.19l1.68-0.98
		l1.41-0.65c0.82-0.36,1.68-0.64,2.56-0.83h0.14v-0.14C313.93,361.34,313.85,361.27,313.75,361.24z"/>
	<path class="st0" d="M341.78,339.34h-0.17v0.12c0.14,0.55,0.19,1.11,0.17,1.68c-0.02,0.49-0.12,0.95-0.29,1.41
		c-0.19,0.47-0.44,0.91-0.75,1.32c-0.27,0.34-0.56,0.66-0.86,0.95l-0.43,0.34c-0.75,0.57-1.61,0.95-2.53,1.1
		c-1.05,0.16-2.14-0.03-3.06-0.55c-1.23-0.7-2.3-1.65-3.14-2.8c-0.54-0.69-0.98-1.43-1.34-2.23c-0.32-0.71-0.53-1.46-0.63-2.23
		c-0.16-1.39,0.18-2.79,0.95-3.95c0.29-0.4,0.64-0.75,1.03-1.05c0.72-0.66,1.6-1.08,2.56-1.22c0.9-0.07,1.81,0.17,2.56,0.67h0.17
		l0.17-0.19l-0.31-0.41c-0.38-0.49-0.79-0.94-1.24-1.36l-0.02-0.14c-0.57,0.04-1.11,0.17-1.63,0.41c-0.76,0.3-1.48,0.72-2.13,1.22
		c-0.74,0.56-1.42,1.18-2.04,1.87c-0.59,0.71-1.03,1.52-1.32,2.39c-0.28,0.87-0.4,1.79-0.36,2.7c0.02,0.86,0.17,1.72,0.43,2.53
		c0.29,0.86,0.73,1.68,1.29,2.39c0.61,0.79,1.35,1.46,2.21,1.99c0.73,0.47,1.54,0.78,2.39,0.93c0.79,0.15,1.6,0.15,2.39,0
		c0.71-0.14,1.39-0.35,2.06-0.63c0.85-0.4,1.66-0.9,2.39-1.51c0.95-0.71,1.79-1.55,2.49-2.51l0.29-0.41
		c-0.18-0.47-0.55-1.32-1.1-2.56L341.78,339.34z"/>
	<path class="st0" d="M352.81,332.59l-1.27,0.76c-0.23,0.17-0.51,0.27-0.79,0.29c-0.2-0.05-0.38-0.16-0.51-0.31l-0.6-0.63l-1.07-1.1
		l-1.1-1.22l-5.1-5.15l-0.58-0.63c0.29-0.32,0.74-0.79,1.39-1.41c0.49-0.51,1.02-0.96,1.6-1.36c0.24-0.14,0.52-0.2,0.79-0.17
		c0.53,0.12,1.02,0.35,1.46,0.67c0.16,0.11,0.33,0.2,0.51,0.27c0.05,0.02,0.11,0.02,0.17,0c0.02-0.07,0.02-0.15,0-0.22
		c-0.03-0.07-0.07-0.14-0.12-0.19l-1.58-1.72l-0.7-0.72l-0.31-0.34l-0.34-0.27l-0.19,0.12c0,0.1-0.29-0.02,0,0.51
		c0.29,0.53,0.29,0.83,0.29,0.83c0,0.11-0.04,0.21-0.12,0.29l-0.76,0.63l-0.22,0.19l-1.27,1.29l-0.7,0.67l-2.39,2.39l-2.01,1.89
		l-0.39,0.31c-0.1,0.09-0.23,0.14-0.36,0.17c-0.18,0.03-0.37,0.03-0.55,0c-0.36,0-0.7,0-0.7,0c-0.03,0.06-0.03,0.13,0,0.19
		c0.04,0.15,0.11,0.29,0.22,0.41l0.95,1.6l0.1-0.02c0.12,0.17,0.34,0.53,0.65,1.07c0.13,0.26,0.29,0.51,0.46,0.75h0.12
		c0-0.14,0-0.43,0-0.88c-0.15-0.84-0.15-1.72,0-2.56c0.34-0.61,0.78-1.14,1.32-1.58c0.45-0.44,0.92-0.85,1.41-1.24l2.18,2.25
		l0.48,0.36l3.04,3.09l1.39,1.44c0.48,0.48,0.92,0.98,1.32,1.53c0.08,0.11,0.12,0.23,0.12,0.36c-0.07,0.32-0.2,0.62-0.39,0.88
		c-0.2,0.34-0.41,0.67-0.65,0.98c-0.11,0.11-0.19,0.24-0.24,0.39c0.02,0.12,0.08,0.23,0.17,0.31h0.17l0.48-0.43l0.86-0.91l1.17-1.24
		c0.36-0.31,0.86-0.76,1.53-1.39l1.22-1.12l-0.24-0.27C353.03,332.44,352.91,332.51,352.81,332.59z"/>
	<path class="st0" d="M295.92,368.64c-0.35-0.03-0.71-0.03-1.05,0c-0.33,0.09-0.68,0.09-1,0c-0.39-0.85-0.68-1.74-0.86-2.65
		l-0.48-1.65l-0.48-1.92l-0.53-1.97l-0.27-1.05l-0.58-2.11l-0.14-0.53c-0.08-0.28-0.08-0.58,0-0.86c0.18-0.19,0.42-0.32,0.67-0.39
		c0.35-0.11,0.67-0.27,0.95-0.48c0.02-0.14,0.02-0.29,0-0.43l-2.04,0.67l-1.48,0.39l-1.51,0.31l-0.48,0.19
		c0.03,0.13,0.09,0.25,0.17,0.36h0.39h0.39c0.32-0.07,0.65-0.07,0.95,0c0.16,0.23,0.26,0.49,0.33,0.75
		c0.05-0.11-1.03,2.23-1.64,3.42l-1.46,2.9l-1.1,2.21l-1.41,3.06l-0.6-2.13l-0.51-1.92l-0.53-1.97l-0.27-1.05l-0.58-2.11l-0.14-0.53
		c-0.07-0.28-0.07-0.58,0-0.86c0.05-0.1,0.29-0.24,0.67-0.39c0.35-0.11,0.69-0.27,0.98-0.48c0.02-0.14,0.02-0.29,0-0.43l-2.04,0.67
		l-1.48,0.39l-1.51,0.31l-0.48,0.19c0.04,0.13,0.09,0.25,0.17,0.36h0.39h0.39c0.29-0.03,0.58-0.03,0.86,0
		c0.08,0.03,0.15,0.08,0.19,0.14c0.12,0.23,0.21,0.47,0.27,0.72c0.11,0.37,0.34,1.16,0.67,2.39l1.03,3.85l0.39,1.34l0.34,1.15v0.48
		v0.43l0.46,1.6c0.14,0.58-0.14,0.98-0.86,1.27c-0.38,0.12-0.73,0.32-1.03,0.58v0.22v0.22c1.08-0.48,2.19-0.88,3.33-1.19
		c0.86-0.23,1.74-0.39,2.63-0.46h0.31c0.01-0.05,0.01-0.1,0-0.14c-0.03-0.12-0.12-0.22-0.24-0.24c-0.35-0.03-0.71-0.03-1.05,0
		c-0.26,0.03-0.53,0.03-0.79,0c-0.1-0.02-0.31-0.12-0.31-0.31c-0.17-0.34-0.3-0.71-0.39-1.07l0.63-1.44
		c0.4-0.95,0.79-1.82,1.19-2.58c0.4-0.76,0.72-1.41,0.95-1.94l3.02-6.01l2.16,7.95v0.51v0.43l0.43,1.6
		c0.16,0.56-0.12,0.97-0.83,1.24c-0.38,0.12-0.73,0.32-1.03,0.58c-0.01,0.07-0.01,0.14,0,0.22v0.22c1.08-0.48,2.19-0.88,3.33-1.19
		c0.85-0.23,1.73-0.39,2.61-0.46h0.19c0.01-0.05,0.01-0.1,0-0.14C296.14,368.76,296.04,368.66,295.92,368.64z"/>
	<path class="st0" d="M275.65,373.98c-0.21-0.03-0.39-0.11-0.52-0.25c-0.12-0.32-0.2-0.67-0.22-1l-0.19-1.46l-0.27-2.39
		c-0.4-2.73-0.67-4.68-0.81-5.84v-0.55v-0.53c-0.04-0.36-0.04-0.72,0-1.07c0.07-0.14,0.19-0.26,0.34-0.31
		c0.42-0.16,0.85-0.27,1.29-0.34c0.31-0.04,0.61-0.16,0.86-0.34c0.01-0.07,0.01-0.14,0-0.22v-0.19l-1.48,0.22l-2.11,0.22h-0.48
		l-0.39,0.12c-0.07,0.19-0.24,0.93-0.53,2.23c-0.07,0.34-0.17,0.72-0.29,1.17l-0.53,1.94c-0.04,0.16-0.09,0.31-0.14,0.46
		c-0.01,0.12-0.01,0.24,0,0.36c-0.48,2.03-1.07,4.02-1.8,5.98l-1.72-2.9l-4.16-6.86l-0.63-1.03l-0.19-0.19h-0.43h-0.63l-1.1,0.19
		c-0.53,0.04-1.05,0.04-1.58,0h-0.41h-0.29c-0.13,0.13-0.13,0.35,0,0.48c1.22,0,2.11,0,2.68,0v0.31c0.05,0.51,0.17,1.82,0.29,3.92
		c0.19,2.81,0.35,5.01,0.48,6.61c0.1,0.79,0.1,1.6,0,2.39c0.02,0.06,0.02,0.13,0,0.19c-0.27,0.13-0.57,0.22-0.86,0.24
		c-0.45,0.08-0.87,0.25-1.24,0.51l-0.24,0.12v0.31l1.32-0.22l1.22-0.22l3.64-0.31c0.01-0.07,0.01-0.14,0-0.22
		c0.01-0.08,0.01-0.16,0-0.24h-0.88c-0.51,0.11-1.02,0.11-1.53,0c-0.21-0.11-0.36-0.32-0.41-0.55c-0.21-0.78-0.37-1.59-0.48-2.39
		c-0.29-2.34-0.51-4.86-0.65-6.47c-0.14-1.6-0.14-2.58-0.14-2.92c0.59,0.79,1.66,2.46,3.21,5.01c1.55,2.54,2.91,5.03,4.09,7.47h0.27
		c0.05-0.19,0.17-0.46,0.17-0.76c0.16-0.67,0.36-1.47,0.6-2.39l0.58-2.01l0.43-1.65l1.22-4.28l0.12-0.46
		c0.27-0.95,0.55-1.58,0.55-1.87c0.14,0.65,0.24,1.27,0.43,2.82c0.19,1.55,0.24,2.7,0.39,3.4c0.14,0.7,0.14,1.17,0.14,1.44
		l0.34,2.39c0.06,0.61,0.06,1.21,0,1.82c-0.31,0.23-0.65,0.42-1,0.55c-0.36,0.07-0.71,0.19-1.03,0.36c-0.01,0.07-0.01,0.14,0,0.22
		v0.14h0.17h0.6c0.53-0.1,1.58-0.24,3.16-0.43h0.86l1.48-0.14h0.53c0-0.1,0-0.24,0-0.24c0.02-0.05,0.02-0.1,0-0.14
		C277.05,374.16,276.34,374.1,275.65,373.98z"/>
	<path class="st0" d="M373.78,302.52v0.01l-0.36,0.34l-0.36,0.36c-0.16,0.22-0.36,0.42-0.58,0.58c-0.17,0.04-0.34,0.04-0.51,0
		l-1.72-0.19c-1.82-0.31-4.52-0.7-8.07-1.15s-5.38-0.63-5.38-0.63l-0.22,0.36l-0.14,0.31c0.51,0.53,1.23,1.32,2.18,2.39l1.44,1.65
		l2.21,2.39l1.03,1.19c1.4,1.53,2.34,2.6,2.82,3.21c0.37,0.39,0.62,0.86,0.75,1.39c-0.05,0.6-0.25,1.17-0.58,1.68
		c-0.03,0.1-0.03,0.21,0,0.31c0.07,0.08,0.15,0.14,0.24,0.19l0.39-0.63l0.14-0.29l0.48-0.98l0.41-0.72
		c0.42-0.71,0.77-1.33,1.07-1.89l0.36-0.72h-0.14c-0.07-0.03-0.15-0.03-0.22,0l-0.46,0.75c-0.23,0.41-0.5,0.78-0.81,1.12h-0.36
		c-0.16-0.11-0.29-0.24-0.41-0.39l-2.65-2.73l-0.95-1.05c-1.72-1.69-3.32-3.5-4.79-5.4l0.24-0.14l1.17,0.17
		c1.47,0.16,3.35,0.4,5.65,0.72l3.45,0.31l1.15,0.22c0.38,0.04,0.75,0.12,1.1,0.24l0.24,0.22c-0.05,0.35-0.17,0.68-0.34,0.98
		c-0.21,0.35-0.36,0.73-0.43,1.12c0.07,0.08,0.15,0.14,0.24,0.19c0.24-0.26,0.44-0.56,0.58-0.88l0.58-1.12l0.65-1.15l1.03-1.85
		l0.24-0.48H374H373.78z"/>
	<path class="st0" d="M383.52,276.87c-0.12,0.58-0.3,1.14-0.55,1.68c-0.12,0.14-0.48,0.14-1.05,0l-0.7-0.14l-0.67-0.14l-2.11-0.55
		l-0.7-0.17L374,276.6l-3.33-0.79c-0.32-0.06-0.62-0.16-0.91-0.29c0-0.05,0-0.17,0-0.36v-0.24l0.88-3.69
		c0.11-0.56,0.28-1.1,0.51-1.63c0.27-0.23,0.59-0.39,0.93-0.48h0.36l0.91-0.19l0.81-0.14v-0.14c0-0.17,0.83-0.02,0-0.17
		c-0.56-0.1-1.23-0.24-2.01-0.43l-0.84-0.38h-0.22h-0.22v0.48v0.48v0.19V269l-0.36,1.56l-0.22,0.79l-0.67,2.56l-0.27,1.19
		l-0.31,1.44l-0.53,1.92c-0.08,0.26-0.18,0.6-0.29,1.03c0.11,0.03,0.23,0.03,0.34,0l0.48-0.93l0.48-0.81c0.08-0.03,0.16-0.03,0.24,0
		c0.48,0.05,0.95,0.14,1.41,0.27l2.58,0.58l2.04,0.53l3.35,0.81l2.09,0.53c0.42,0.07,0.82,0.21,1.19,0.41c0.08,0.79,0.08,1.6,0,2.39
		h0.19h0.17l0.14-0.72l0.22-0.95c0.14-0.31,0.14-0.58,0.14-0.76v-0.24l0.14-0.53v-0.27v-0.31v-0.14v-0.24
		c0.12-0.46,0.24-0.83,0.24-0.83c0.1-0.25,0.18-0.51,0.24-0.76c0.14-0.6,0.29-1.03,0.29-1.29h-0.46
		C383.65,276.43,383.58,276.65,383.52,276.87z"/>
	<path class="st0" d="M381.63,285.37c-0.25,0.25-0.48,0.53-0.67,0.81c-0.31,0.48-0.53,0.76-0.67,0.76c-0.91-0.22-1.8-0.54-2.63-0.95
		l-1.6-0.65l-1.82-0.79l-1.87-0.79l-0.98-0.46l-2.01-0.83l-0.51-0.22c-0.46-0.17-0.75-0.34-0.75-0.46c-0.07-0.25-0.07-0.52,0-0.76
		c0.13-0.34,0.2-0.7,0.22-1.05l-0.36-0.22c-0.35,1.02-0.59,1.69-0.72,2.01c-0.32,0.78-0.53,1.25-0.63,1.41l-0.58,1.56
		c-0.06,0.17-0.11,0.33-0.14,0.51c0.13,0.02,0.26,0.02,0.39,0l0.19-0.31l0.19-0.31c0.27-0.48,0.55-0.76,0.55-0.76
		c0.32,0.02,0.63,0.1,0.91,0.24l0.14,0.05c0.61,1.15,1.22,2.38,1.85,3.71l1.39,2.94l1.05,2.23l1.56,3.02l-2.04-0.83l-1.82-0.79
		l-1.87-0.79l-0.98-0.46l-2.01-0.83l-0.51-0.22c-0.27-0.09-0.52-0.25-0.72-0.46c-0.17-0.12-0.12-0.36,0-0.76
		c0.13-0.35,0.2-0.71,0.22-1.07l-0.39-0.22c-0.35,1.02-0.59,1.69-0.72,2.01c-0.32,0.78-0.53,1.25-0.63,1.41l-0.67,1.36
		c-0.06,0.16-0.11,0.32-0.14,0.48c0.13,0.02,0.26,0.02,0.39,0l0.19-0.31l0.19-0.31c0.13-0.26,0.28-0.5,0.46-0.72
		c0.07-0.02,0.15-0.02,0.22,0c0.26,0.04,0.51,0.12,0.74,0.24l2.39,0.98l3.69,1.56l1.29,0.53l1.1,0.58l0.46,0.22l0.39,0.19l1.53,0.65
		c0.46,0.24,0.7,0.72,0.46,1.46c-0.14,0.38-0.21,0.77-0.19,1.17h0.19h0.22c0.29-1.14,0.66-2.26,1.1-3.35
		c0.34-0.83,0.75-1.64,1.24-2.39v-0.12c-0.1-0.07-0.23-0.07-0.34,0c-0.25,0.25-0.48,0.53-0.67,0.81c-0.14,0.23-0.3,0.45-0.48,0.65
		c-0.15,0.06-0.31,0.06-0.46,0c-0.38-0.07-0.74-0.2-1.07-0.36l-0.74-1.36c-0.51-0.91-0.95-1.77-1.32-2.53
		c-0.36-0.76-0.67-1.41-0.93-1.94l-2.87-6.08l7.49,3.16l0.46,0.22l0.41,0.19l1.53,0.65c0.48,0.22,0.7,0.7,0.48,1.44
		c-0.14,0.38-0.2,0.77-0.17,1.17h0.19h0.22c0.29-1.14,0.66-2.26,1.1-3.35c0.34-0.83,0.75-1.64,1.24-2.39v-0.12
		C381.88,285.29,381.74,285.29,381.63,285.37z"/>
	<path class="st0" d="M387.47,251.64L387.47,251.64c-0.12-0.03-0.25,0.03-0.31,0.13c-0.15,0.33-0.27,0.66-0.36,1
		c-0.04,0.34-0.18,0.67-0.39,0.93c-0.93,0.11-1.87,0.11-2.8,0h-1.72l-1.99-0.17l-2.04-0.12h-1.07l-2.18-0.14h-0.55
		c-0.29,0.02-0.59-0.05-0.83-0.19c-0.12-0.23-0.17-0.49-0.14-0.75c0.01-0.37-0.04-0.73-0.14-1.07h-0.41c0,1.08,0,1.8,0,2.13
		c-0.08,0.83-0.12,1.34-0.12,1.53l-0.19,1.53c-0.01,0.18-0.01,0.35,0,0.53h0.41c0.01-0.12,0.01-0.24,0-0.36v-0.36
		c0.02-0.32,0.11-0.63,0.27-0.91c0.31-0.06,0.63-0.06,0.93,0l0.12-0.34c0.95,0.89,1.95,1.87,2.97,2.92l2.27,2.39l1.72,1.77
		l2.39,2.39l-2.21-0.12l-1.99-0.14l-2.04-0.14h-1.07l-2.18-0.14h-0.48c-0.29,0.01-0.58-0.06-0.83-0.19
		c-0.14-0.1-0.14-0.34-0.14-0.76c0.01-0.37-0.04-0.73-0.14-1.07h-0.41c0,1.08,0,1.8,0,2.13c-0.08,0.83-0.12,1.34-0.12,1.53
		l-0.19,1.51c-0.01,0.1,0,0.2,0,0.31l0.24,0.08l0.17,0.07c0-0.1,0.01-0.2,0-0.31v-0.36c0.04-0.29,0.1-0.57,0.19-0.83
		c0.05-0.06,0.12-0.1,0.19-0.12c0.26-0.04,0.52-0.04,0.76,0l2.53,0.17l3.87,0.39h1.39h1.19h0.51h0.43h1.68
		c0.58,0.05,0.91,0.46,0.91,1.22c-0.01,0.4,0.07,0.8,0.22,1.17h0.41c-0.09-1.18-0.09-2.36,0-3.55c0.05-0.88,0.19-1.77,0.41-2.63
		v-0.14h-0.14c-0.12-0.02-0.25,0.04-0.31,0.14c-0.15,0.33-0.27,0.66-0.36,1c0.03,0.14,0.06,0.29,0.07,0.43
		c-0.11,0.12-0.25,0.18-0.41,0.19c-0.38,0.05-0.76,0.05-1.15,0l-1.15-1.05c-0.79-0.69-1.48-1.34-2.06-1.97s-1.07-1.13-1.51-1.53
		l-4.79-4.79l8.21,0.53h0.51H384h1.68c0.58,0.05,0.91,0.46,0.91,1.22c-0.01,0.4,0.06,0.8,0.22,1.17h0.22h0.24
		c-0.09-1.17-0.09-2.34,0-3.52c0.06-0.88,0.19-1.76,0.41-2.61c0-0.05,0-0.1,0-0.14H387.47z"/>
</g>
</svg>
