<?xml version="1.0" encoding="utf-8"?>
<!-- Generator: Adobe Illustrator 26.5.0, SVG Export Plug-In . SVG Version: 6.00 Build 0)  -->
<svg version="1.1" id="Layer_1" xmlns="http://www.w3.org/2000/svg" xmlns:xlink="http://www.w3.org/1999/xlink" x="0px" y="0px"
	 viewBox="0 0 500 500" style="enable-background:new 0 0 500 500;" xml:space="preserve">
<style type="text/css">
	.st0{fill:#131313;}
</style>
<g>
	<path class="st0" d="M250,111.36c-83.26,0-151,62.19-151,138.64c0,76.45,67.74,138.64,151,138.64S401,326.45,401,250
		C401,173.55,333.26,111.36,250,111.36z M250,386.64c-82.16,0-149-61.3-149-136.64s66.84-136.64,149-136.64
		c82.16,0,149,61.3,149,136.64S332.16,386.64,250,386.64z"/>
	<polygon class="st0" points="254.55,268.53 253.18,269.76 255.85,272.17 260.67,267.83 249.23,257.54 237.79,267.83 242.6,272.17 
		245.28,269.76 243.9,268.53 242.29,270 240.17,268.09 242.84,265.68 243.9,264.74 244.96,265.71 248.46,268.84 249.23,269.54 
		250,268.84 253.49,265.71 254.55,264.74 255.61,265.68 258.29,268.09 256.17,270 	"/>
	<polygon class="st0" points="245.49,247.47 243.86,248.94 245.49,250.41 247.13,248.94 	"/>
	<path class="st0" d="M362.99,248.72c0-28.12-12.77-53.73-33.39-72.28c-22.18-19.59-50.81-30.3-80.4-30.07
		c-29.59-0.23-58.22,10.48-80.4,30.07c-20.62,18.55-33.39,44.16-33.39,72.37s12.77,53.87,33.39,72.4
		c22.21,19.51,50.84,30.14,80.4,29.85c29.59,0.23,58.22-10.48,80.4-30.07C350.22,302.55,362.99,276.84,362.99,248.72z
		 M326.47,179.29c19.59,17.09,31.19,41.55,32.04,67.53h-53.53c-0.19-18.05-3.64-35.92-10.18-52.75
		c10.52-4.17,20.38-9.84,29.26-16.85L326.47,179.29z M268.82,152.02c18.93,3.03,36.79,10.77,51.94,22.5
		c-8.38,6.52-17.64,11.82-27.51,15.73c-5.34-12.65-12.58-24.42-21.47-34.89c-0.98-1.14-1.98-2.26-2.99-3.37L268.82,152.02z
		 M251.45,150.5c3.6,0.06,7.14,0.28,10.62,0.65c2.14,2.15,4.2,4.39,6.19,6.72c8.65,10.2,15.69,21.66,20.86,33.99
		c-12.11,4.27-24.84,6.55-37.68,6.75V150.5z M251.47,203.57v-0.89c13.37-0.21,26.61-2.59,39.22-7.03
		c6.33,16.35,9.66,33.71,9.85,51.24h-0.96c-28.24-13.03-33.73-18.02-48.18-43.37L251.47,203.57z M207.81,195.55
		c12.61,4.45,25.85,6.82,39.22,7.03v0.92c-6.84,12.02-11.66,19.47-17.88,25.35l-1.73,1.57h-0.14c-6.58,5.71-14.91,10.12-28.5,16.38
		h-0.82C198.15,229.26,201.49,211.9,207.81,195.55z M236.34,151.05c3.5-0.43,7.04-0.65,10.62-0.65v48.18
		c-12.84-0.19-25.57-2.46-37.68-6.72c5.16-12.35,12.18-23.84,20.82-34.07c2.04-2.33,4.13-4.57,6.26-6.72L236.34,151.05z
		 M229.64,152.09c-1.01,1.11-2.01,2.23-2.99,3.37c-8.88,10.46-16.12,22.21-21.45,34.86c-9.87-3.91-19.13-9.21-27.5-15.73
		C192.86,162.86,210.72,155.12,229.64,152.09z M171.89,179.24l2.41-2.07c8.89,7.02,18.76,12.7,29.3,16.86
		c-6.54,16.87-9.98,34.79-10.14,52.88l-53.63-0.22C140.7,220.74,152.31,196.31,171.89,179.24z M171.96,318.35
		c-19.58-17.07-31.19-41.5-32.07-67.46h53.56c0.19,18.07,3.64,35.95,10.19,52.79c-10.53,4.17-20.4,9.85-29.3,16.86l0.02-0.12
		L171.96,318.35z M177.67,323.24c8.38-6.52,17.64-11.82,27.51-15.73c5.34,12.61,12.57,24.33,21.44,34.77
		c0.98,1.16,1.98,2.28,2.99,3.37C210.7,342.64,192.84,334.94,177.67,323.24z M236.29,346.56c-2.14-2.15-4.2-4.39-6.19-6.72
		c-8.63-10.2-15.65-21.67-20.82-33.99c12.1-4.28,24.8-6.57,37.63-6.79v48.16C243.32,347.15,239.78,346.93,236.29,346.56z
		 M246.96,295.05c-13.39,0.18-26.66,2.53-39.29,6.96c-6.33-16.35-9.66-33.71-9.85-51.24h0.96c28.24,13.03,33.73,18.02,48.19,43.37
		C246.96,294.14,246.96,295.05,246.96,295.05z M249.28,270l-0.77,0.7l-4.82,4.31l-1.06,0.96l-1.06-0.94l-6.94-6.24l-1.06-0.96
		l0.63-0.55l0.43-0.39l12.5-11.25l-1.64-1.47l-13.78,12.41l-2.07-1.88l13.78-12.41l-1.64-1.47l-12.5,11.25l-0.43,0.39l-0.63,0.55
		l-1.06-0.94l-6.94-6.24l-1.06-0.96l1.06-0.94l4.82-4.31l0.77-0.7l-1.01-0.89l-4.82-4.31l-1.06-0.96l1.06-0.94l6.91-6.24l1.06-0.94
		l1.06,0.94l12.72,11.44l1.64-1.47l-13.54-12.19l-0.02-0.02l2.07-1.88l13.54,12.19l1.64-1.47l-12.72-11.44l-1.06-0.94l1.06-0.94
		l6.94-6.24l1.06-0.94l1.06,0.94l4.82,4.31l1.01,0.89l1.01-0.89l4.82-4.31l1.06-0.94l1.06,0.94l6.94,6.24l1.06,0.96l-1.06,0.94
		l-12.72,11.44l1.64,1.47l13.54-12.19l2.07,1.88l-13.68,12.21l1.64,1.47l12.87-11.4l1.06-0.94l1.06,0.94l6.94,6.24l1.06,0.94
		l-1.06,0.96l-4.82,4.31l-1.01,0.89l0.77,0.7l4.82,4.24l1.06,0.96l-1.06,0.94l-6.99,6.19l-1.06,0.96l-0.63-0.55l-0.43-0.39
		l-12.5-11.25l-1.64,1.47l13.78,12.41l-2.07,1.88l-13.78-12.38l-1.64,1.47l12.5,11.25l0.43,0.41l0.63,0.55l-1.06,0.94l-6.84,6.22
		l-1.06,0.96l-1.06-0.96l-4.82-4.31L249.28,270z M251.4,294.21c14.46-25.39,20.04-30.4,48.19-43.37l0.89,0.07
		c-0.19,17.53-3.53,34.89-9.85,51.24c-12.61-4.45-25.85-6.82-39.22-7.04V294.21z M262.07,346.59c-3.5,0.43-7.04,0.65-10.62,0.65
		v-48.18c12.84,0.22,25.57,2.51,37.68,6.79c-5.18,12.34-12.21,23.81-20.86,34.02C266.27,342.19,264.21,344.43,262.07,346.59z
		 M320.74,323.17c-15.16,11.73-33.02,19.47-51.94,22.5c1.01-1.11,2.01-2.23,2.99-3.37c8.88-10.44,16.12-22.17,21.47-34.79
		c9.9,3.87,19.19,9.12,27.61,15.61L320.74,323.17z M324.18,320.47c-8.89-7.02-18.76-12.7-29.3-16.86l-0.1,0.12
		c6.55-16.84,10-34.72,10.19-52.79h53.68c-0.88,25.96-12.49,50.39-32.07,67.46L324.18,320.47z"/>
	<polygon class="st0" points="249.23,244.12 247.59,245.59 249.23,247.06 250.87,245.59 	"/>
	<polygon class="st0" points="249.23,240.31 260.89,229.81 256.07,225.47 253.4,227.88 254.77,229.11 256.38,227.64 258.5,229.55 
		255.83,231.95 254.77,232.92 253.71,231.95 250.22,228.82 249.2,228 248.19,228.89 244.7,232.03 243.64,232.99 242.58,232.03 
		239.91,229.62 242.03,227.71 243.64,229.18 245.01,227.96 242.34,225.55 237.52,229.88 249.18,240.39 	"/>
	<polygon class="st0" points="252.94,250.41 254.58,248.94 252.94,247.47 251.3,248.94 	"/>
	<polygon class="st0" points="247.57,252.29 249.2,253.76 250.84,252.29 249.2,250.82 	"/>
	<polygon class="st0" points="227.93,238.44 223.11,242.77 225.79,245.18 227.16,243.95 225.57,242.46 227.69,240.56 230.36,242.96 
		231.42,243.9 230.36,244.87 226.87,248 226.1,248.7 227.11,249.59 230.61,252.72 231.67,253.69 230.61,254.63 227.93,257.03 
		225.81,255.13 227.43,253.66 226.05,252.43 223.38,254.84 228.2,259.18 239.74,248.94 239.59,248.94 	"/>
	<polygon class="st0" points="275.03,254.99 272.36,252.58 270.98,253.81 272.6,255.28 270.48,257.18 267.8,254.77 266.74,253.81 
		267.8,252.87 271.32,249.69 272.33,248.8 272.33,248.72 271.56,248.02 268.07,244.87 267.01,243.9 268.07,242.96 270.74,240.56 
		272.86,242.46 271.25,243.93 272.62,245.16 275.3,242.75 270.48,238.41 258.82,248.92 270.21,259.32 	"/>
	<path class="st0" d="M216.66,139.67l0.07-0.02c0-0.01-0.01-0.03,0-0.04L216.66,139.67z"/>
	<path class="st0" d="M132.96,211.14c-0.06-0.04-0.13-0.04-0.19,0c-0.2,0.15-0.39,0.32-0.55,0.51c-0.04,0.09-0.11,0.17-0.16,0.25
		l1.05-0.76H132.96z"/>
	<path class="st0" d="M121.49,200.2c0.24-0.34,0.46-0.51,0.63-0.51c0.35,0.06,0.67,0.19,0.96,0.39l0.51,0.31l2,1.11l4.7,2.63
		l1.2,0.65c0.62,0.33,1.21,0.7,1.78,1.11c0.29,0.22,0.43,0.41,0.43,0.58c-0.1,0.58-0.27,1.14-0.48,1.69c-0.19,0.19-0.14,0.43,0,0.43
		c0.16-0.22,0.3-0.44,0.43-0.67l1.23-2.17l0.72-1.3l0.24-0.48l0.87-1.52c0.83-1.3,1.2-2.85,1.04-4.38c-0.11-1.27-0.83-2.4-1.93-3.04
		c-0.94-0.59-2.08-0.77-3.16-0.51c-1.08,0.26-2.16,1.34-3.25,3.25c-0.53,0.89-1.01,1.82-1.42,2.77l-0.41-0.22l-0.22-0.12l-1.83-0.96
		c-0.59-0.33-1.16-0.69-1.71-1.08c-0.21-0.14-0.37-0.34-0.46-0.58c-0.02-0.3,0.03-0.61,0.14-0.89l0.43-1.42l-0.31-0.29v0.05
		c-0.56,1.19-1.09,2.22-1.59,3.08l-1.13,1.88l-0.34,0.53l-0.36,0.65l-0.24,0.43c0.11,0.04,0.23,0.04,0.34,0
		C120.74,201.17,121.14,200.7,121.49,200.2z M128.5,200.88c0.35-0.75,0.74-1.49,1.18-2.19c0.52-0.98,1.37-1.75,2.41-2.14
		c0.96-0.35,2.03-0.22,2.89,0.34c0.83,0.48,1.43,1.28,1.66,2.22c0.29,1.15,0.05,2.37-0.65,3.32c-0.27,0.57-0.68,1.05-1.2,1.4
		c-0.32,0.19-0.7,0.24-1.06,0.14c-0.32-0.16-1.73-0.96-4.22-2.41l-1.06-0.63L128.5,200.88z"/>
	<path class="st0" d="M127.32,189.29c0.26-0.44,0.6-0.83,1.01-1.13h0.34c0.5,0.22,0.92,0.44,1.28,0.65l1.57,0.94l4.82,2.7l1.16,0.65
		c0.87,0.42,1.68,0.96,2.41,1.59c0.15,0.31,0.15,0.68,0,0.99c-0.13,0.34-0.27,0.68-0.43,1.01c-0.08,0.17-0.13,0.35-0.14,0.53
		l-0.19,0.27l0.31,0.14v-0.19l1.4-2.41l0.8-1.42l0.55-0.89l0.77-1.4l-0.34-0.14c-0.12,0-0.31,0.19-0.58,0.63
		c-0.18,0.3-0.41,0.57-0.67,0.8c-0.2,0.17-0.47,0.23-0.72,0.17c-0.73-0.31-1.43-0.67-2.1-1.08l-0.53-0.31l-0.43-0.27l-6.14-3.49
		c-1.32-0.77-1.98-1.28-1.98-1.52c0.1-0.49,0.26-0.96,0.48-1.4c0.29-0.41,0.29-0.75,0.29-0.75l-0.29-0.22l-1.54,2.79l-0.99,1.66
		l-1.13,1.88c0.19,0,0.41,0,0.41,0C126.94,189.83,127.15,189.57,127.32,189.29z"/>
	<path class="st0" d="M233.98,132.5c0.35,0.8,0.85,1.52,1.47,2.12c0.58,0.54,1.26,0.98,2,1.28c0.67,0.28,1.36,0.5,2.07,0.65
		c0.93,0.12,1.87,0.12,2.79,0c1.24-0.05,2.47-0.29,3.64-0.72l0.46-0.17c0.11-0.5,0.29-1.42,0.53-2.77c0-0.05,0-0.17,0-0.36h-0.17
		h-0.14c-0.2,0.54-0.47,1.04-0.82,1.49c-0.29,0.39-0.63,0.73-1.01,1.01c-0.43,0.28-0.89,0.51-1.37,0.67
		c-0.42,0.14-0.84,0.24-1.28,0.31h-0.55c-0.94,0.06-1.87-0.12-2.72-0.51c-0.98-0.46-1.78-1.23-2.26-2.19
		c-0.65-1.27-1.01-2.67-1.06-4.1c-0.05-0.84,0-1.68,0.14-2.51c0.13-0.77,0.37-1.52,0.72-2.22c0.65-1.25,1.73-2.22,3.04-2.75
		c0.46-0.18,0.95-0.29,1.45-0.31c0.97-0.11,1.96,0.09,2.82,0.55c0.78,0.46,1.39,1.16,1.73,2h0.19h0.24c0-0.21,0-0.38,0-0.51
		c-0.04-0.62-0.13-1.24-0.27-1.86l-0.05-0.07c-0.49-0.28-1.03-0.47-1.59-0.55c-0.79-0.17-1.6-0.23-2.41-0.17
		c-0.93,0.04-1.85,0.18-2.75,0.41c-0.87,0.27-1.69,0.69-2.41,1.25c-0.73,0.57-1.35,1.26-1.83,2.05c-0.48,0.75-0.84,1.56-1.08,2.41
		c-0.22,0.86-0.3,1.76-0.22,2.65C233.34,130.61,233.57,131.59,233.98,132.5z"/>
	<path class="st0" d="M123.16,218.33l0.37-0.27l-0.36,0.26C123.17,218.32,123.17,218.32,123.16,218.33z"/>
	<path class="st0" d="M131.22,212.78c-0.19,0.09-0.39,0.17-0.59,0.25l-5.31,3.76c0.62-0.27,1.26-0.5,1.92-0.66
		c1.77-0.55,3.33-0.98,4.7-1.3c0.06-0.41,0.15-0.81,0.27-1.2c0.07-0.24,0.1-0.31,0.34-0.89c0.24-0.58,0.43-1.06,0.55-1.45
		l-1.19,0.85C131.72,212.38,131.5,212.61,131.22,212.78z"/>
	<polygon class="st0" points="216.46,139.85 216.66,139.67 216.63,139.68 	"/>
	<path class="st0" d="M123.53,218.06l1.79-1.27c-0.04,0.02-0.07,0.03-0.1,0.05L123.53,218.06z"/>
	<path class="st0" d="M214.03,125.68h0.8c0.42-0.13,0.86-0.13,1.28,0c0.23,0.4,0.37,0.84,0.41,1.3l0.7,3.28l0.55,2.89l0.29,1.37
		l0.41,2.99l0.17,0.8c0.07,0.22,0.07,0.45,0,0.67c-0.42,0.23-0.88,0.39-1.35,0.48l-0.55,0.18c-0.01,0.04-0.02,0.09,0,0.13
		c0.08,0.03,0.16,0.03,0.24,0l3.04-0.67h0.51l1.42-0.27l3.45-0.72l1.47-0.27l3.23-0.67h0.24c0.07-0.22,0.07-0.46,0-0.67
		c-0.09-0.56-0.15-1.12-0.17-1.69c-0.03-0.52-0.03-1.04,0-1.57c-0.08-0.02-0.16-0.02-0.24,0c-0.14,0.03-0.26,0.22-0.34,0.55
		c-0.14,0.84-0.41,1.65-0.8,2.41c-0.27,0.4-0.64,0.72-1.08,0.92c-0.96,0.36-1.95,0.62-2.96,0.77l-1.57,0.29l-0.72,0.12l-0.7,0.14
		c-0.29,0.14-0.63,0.14-0.92,0c-0.22-0.41-0.36-0.86-0.41-1.33l-0.27-1.3l-0.24-1.35l-0.43-2.12v-0.39c0.69-0.2,1.39-0.36,2.1-0.48
		l0.75-0.14l1.25-0.27l0.58-0.12c0.37-0.13,0.77-0.13,1.13,0c0.3,0.42,0.5,0.91,0.58,1.42c0.14,0.34,0.33,0.65,0.55,0.94h0.14
		c0.01-0.1,0.01-0.19,0-0.29l-0.22-0.8c-0.12-0.48-0.31-0.92-0.31-1.33c-0.29-1.52-0.46-2.41-0.46-2.7c0-0.09,0-0.18,0-0.27v-0.17
		h-0.29c-0.19,0.12-0.19,0.46-0.19,1.06c0.09,0.37,0.09,0.76,0,1.13c-0.05,0.12-0.29,0.24-0.67,0.39l-3.2,0.67h-0.24l-0.82,0.14
		h-0.58h-0.19h-0.29l-0.31-1.61l-0.6-2.77c-0.12-0.55-0.12-1.11,0-1.66c0.05-0.12,0.29-0.31,0.72-0.31h0.29l3.28-0.72h0.51
		l1.06-0.17c0.23-0.05,0.47-0.05,0.7,0c0.22,0.12,0.4,0.28,0.55,0.48c0.34,0.28,0.65,0.59,0.94,0.92c0.15,0.24,0.31,0.48,0.48,0.7
		h0.24c-0.16-0.55-0.32-1.22-0.48-2.02c0-0.07,0-0.22,0-0.43c0.01-0.17,0.01-0.34,0-0.51c-0.03-0.07-0.07-0.14-0.12-0.19h-0.12
		l-0.94,0.22h-0.12l-1.64,0.34l-1.33,0.22l-1.16,0.27l-2.41,0.51l-2.14,0.34l-0.84,0.19l-1.25,0.34h-0.39h-0.17
		c-0.02,0.08-0.02,0.16,0,0.24C213.86,125.6,213.94,125.67,214.03,125.68z"/>
	<path class="st0" d="M178.08,142.48h0.24h0.14c-0.16-0.91,0.01-1.85,0.48-2.65c0.38-0.67,0.94-1.22,1.61-1.59
		c0.72-0.44,1.61-0.54,2.41-0.27c0.74,0.28,1.34,0.84,1.66,1.57c0.35,0.76,0.39,1.62,0.12,2.41c-0.57,1.21-1.59,2.16-2.84,2.64
		l0.14,0.57l0.92-0.51l0.94-0.55c0.85-0.49,1.86-0.64,2.82-0.41c1.04,0.26,1.9,0.98,2.34,1.95c0.52,0.96,0.64,2.08,0.34,3.13
		c-0.3,1.06-1.03,1.94-2.02,2.41c-0.53,0.25-1.1,0.39-1.69,0.39c-0.45,0.04-0.9-0.03-1.33-0.19c-0.35-0.21-0.66-0.48-0.92-0.8
		c-0.33-0.46-0.95-0.59-1.45-0.31c-0.28,0.13-0.48,0.38-0.55,0.67c-0.11,0.29-0.11,0.6,0,0.89c0.34,0.64,1.08,0.96,2.22,0.96
		c1.32-0.06,2.6-0.42,3.76-1.06c1.42-0.68,2.56-1.82,3.25-3.23c0.73-1.16,0.84-2.61,0.3-3.87c-0.91-2.11-3.37-3.09-5.48-2.17
		c0.5-0.66,0.87-1.4,1.11-2.19c0.13-0.6,0.05-1.22-0.24-1.76c-0.45-0.87-1.26-1.5-2.22-1.71c-1.29-0.22-2.62,0.04-3.73,0.72
		c-0.82,0.4-1.57,0.92-2.24,1.54c-0.43,0.35-0.79,0.79-1.06,1.28c0.2,0.59,0.44,1.16,0.72,1.71L178.08,142.48z"/>
	<path class="st0" d="M166.21,147.12c0.32-0.1,0.61-0.25,0.89-0.43c0.42-0.29,0.9-0.5,1.4-0.6l0.19,0.43
		c0.36,0.41,0.65,0.8,0.89,1.13l1.04,1.52l3.16,4.43l0.77,1.08c0.6,0.73,1.1,1.54,1.49,2.41c0.02,0.22-0.14,0.51-0.53,0.84
		c-0.26,0.26-0.53,0.5-0.82,0.72c-0.14,0.11-0.27,0.25-0.36,0.41l0.07,0.02l0.24,0.27l0.17-0.12l2.29-1.59l1.18-1.06l0.87-0.55
		l1.28-0.94c-0.07-0.1-0.15-0.19-0.24-0.27c-0.12-0.07-0.39,0.05-0.8,0.31c-0.29,0.2-0.62,0.35-0.96,0.43
		c-0.25,0.07-0.52,0.02-0.72-0.14c-0.52-0.59-1-1.22-1.42-1.88l-0.34-0.51l-0.29-0.43l-4.1-5.78c-0.88-1.25-1.27-1.98-1.16-2.19
		c0.29-0.41,0.64-0.77,1.04-1.08l0.58-0.55c-0.04-0.11-0.1-0.22-0.17-0.31l-2.58,1.88l-1.59,1.08l-1.81,1.23
		C165.99,147.12,166.21,147.12,166.21,147.12z"/>
	<path class="st0" d="M181.84,144.62c0.03-0.01,0.05-0.03,0.08-0.04l0-0.01L181.84,144.62z"/>
	<path class="st0" d="M160.95,150.35l0.02,0.05c0.02-0.02,0.04-0.03,0.06-0.05H160.95z"/>
	<path class="st0" d="M131.91,212.13c0.05-0.07,0.1-0.15,0.14-0.23l-1.78,1.29c0.12-0.05,0.24-0.11,0.36-0.16L131.91,212.13z"/>
	<path class="st0" d="M144.35,166.74l0.82-0.48c0.08-0.04,0.18-0.04,0.27,0c0.39,0.28,0.76,0.6,1.11,0.94l1.98,1.81l1.52,1.47
		l2.41,2.41l1.54,1.52c0.33,0.27,0.62,0.6,0.84,0.96c-0.35,0.72-0.77,1.41-1.25,2.05l0.29,0.1h0.14l0.48-0.55l0.67-0.72l0.53-0.6
		l0.14-0.19l0.39-0.39l0.17-0.19l0.22-0.22l0.14-0.17l0.63-0.6l0.6-0.55c0.43-0.46,0.72-0.8,0.89-0.99l-0.36-0.27
		c-0.19,0.14-0.37,0.29-0.53,0.46c-0.39,0.44-0.84,0.84-1.33,1.18c-0.19,0.07-0.51-0.1-0.94-0.51l-0.53-0.48l-0.51-0.48l-1.57-1.54
		l-0.53-0.51l-2.89-2.63l-2.41-2.41c-0.24-0.21-0.46-0.44-0.65-0.7c-0.02-0.1,0.02-0.19,0.17-0.34l0.17-0.17l2.63-2.53
		c0.38-0.43,0.8-0.82,1.25-1.16c0.35-0.08,0.71-0.08,1.06,0h0.36l0.87,0.29h0.75h0.14c0-0.17,0.67,0.36,0-0.17
		c-0.45-0.35-0.96-0.81-1.54-1.37l-0.29-0.36l-0.29-0.36h-0.19l0.1,0.39h-0.12l-0.31,0.36l-0.34,0.36h-0.17h-0.12l-1.11,1.18
		l-0.58,0.58l-1.88,1.88l-0.82,0.92l-1.01,1.08l-1.42,1.4l-0.77,0.75c0.08,0.07,0.18,0.12,0.29,0.14L144.35,166.74z"/>
	<path class="st0" d="M156.83,154.23c0.36-0.22,0.6-0.22,0.77-0.22c0.29,0.2,0.52,0.47,0.7,0.77l0.34,0.51l1.35,1.86l2.96,4.17
		l0.82,1.11c0.41,0.56,0.79,1.15,1.13,1.76c0.14,0.2,0.19,0.46,0.14,0.7c-0.38,0.52-0.82,1-1.3,1.42c0,0.17,0,0.31,0,0.46l0.67-0.43
		l2.02-1.45l1.2-0.89l0.43-0.34l1.45-1.01c1.31-0.83,2.29-2.08,2.79-3.54c0.44-1.19,0.27-2.52-0.46-3.57
		c-0.61-0.93-1.56-1.57-2.65-1.78c-1.58-0.05-3.13,0.51-4.31,1.57c-0.84,0.58-1.65,1.22-2.41,1.9l-0.29-0.36l-0.14-0.19
		c-0.63-0.8-1.04-1.33-1.25-1.64c-0.39-0.54-0.76-1.1-1.08-1.69c-0.13-0.22-0.19-0.47-0.17-0.72c0.12-0.29,0.3-0.54,0.53-0.75
		l1.01-1.11l-0.13-0.36c-0.99,0.83-1.89,1.53-2.69,2.1l-1.83,1.23l-0.53,0.34l-0.6,0.43l-0.39,0.29c0.06,0.1,0.16,0.17,0.27,0.22
		C155.76,154.79,156.31,154.54,156.83,154.23z M162.98,157.75c0.63-0.54,1.29-1.03,1.98-1.49c0.86-0.66,1.93-0.99,3.01-0.94
		c0.99,0.11,1.88,0.67,2.41,1.52c0.55,0.79,0.76,1.77,0.58,2.72c-0.21,1.1-0.86,2.06-1.81,2.65c-0.48,0.4-1.07,0.65-1.69,0.75
		c-0.36,0.05-0.72-0.03-1.01-0.24c-0.29-0.21-1.24-1.49-2.84-3.85l-0.7-1.01L162.98,157.75z"/>
	<path class="st0" d="M132.93,180.11h0.19c0.5-0.58,1.12-1.03,1.83-1.33c0.22-0.05,0.56,0.1,1.01,0.46l0.17,0.12l3.11,2.7
		c2.49,1.78,4.1,2.96,4.82,3.54l0.53,0.43l0.36,0.29c0.19,0.12,0.34,0.28,0.43,0.48c0.04,0.16,0.04,0.32,0,0.48l-0.72,1.4l0.24,0.17
		l0.41-0.55l0.8-0.96l1.2-1.69c0.33-0.41,0.69-0.8,1.06-1.18l0.46-0.48c0.07-0.07,0.12-0.17,0.14-0.27c0.02-0.08,0.02-0.16,0-0.24
		c-0.07-0.02-0.15-0.02-0.22,0l-0.58,0.43l-1.33,0.84c-0.26-0.12-0.5-0.27-0.72-0.46l-0.41-0.36l-0.31-0.29l-4.34-3.18l-0.53-0.41
		c-0.35-0.21-1.16-0.8-2.41-1.78l-0.75-0.63l-0.17-0.14l-1.08-0.77h-0.12c0.18-0.56,0.48-1.07,0.89-1.49
		c0.29-0.34,0.61-0.65,0.96-0.92c0.34-0.3,0.73-0.54,1.16-0.7c0.59-0.15,1.21-0.15,1.81,0c0.61,0.11,1.19,0.37,1.69,0.75
		c0.49,0.38,0.89,0.86,1.16,1.42c0.27,0.55,0.36,1.18,0.27,1.78c-0.09,0.61-0.34,1.18-0.72,1.66c-0.2,0.28-0.44,0.52-0.72,0.72
		c-0.1,0.05-0.19,0.13-0.27,0.22c-0.02,0.05-0.02,0.11,0,0.17c0.13,0.05,0.28,0.05,0.41,0c0.34-0.11,0.67-0.26,0.96-0.46
		c0.27-0.21,0.52-0.45,0.72-0.72c0.85-0.98,1.24-2.28,1.08-3.57c-0.15-1.18-0.76-2.26-1.71-2.99c-0.62-0.46-1.35-0.77-2.12-0.89
		c-0.82-0.17-1.66-0.06-2.41,0.31c-0.88,0.5-1.63,1.18-2.22,2c-0.43,0.55-0.8,1.04-1.08,1.49l-1.13,1.64l-0.63,0.89l-0.41,0.51
		l-0.84,1.01l-0.14,0.24l0.1,0.1C132.84,179.99,132.88,180.05,132.93,180.11z"/>
	<path class="st0" d="M114.87,220.66c0.14-0.36,0.31-0.6,0.31-0.75v-0.17c0.06-0.22,0.19-0.42,0.36-0.58
		c0.45-0.04,0.91,0.04,1.33,0.22l1.83,0.65l2.02,0.67l3.13,0.94l0.89,0.31l2.07,0.67l1.08,0.34c0.27,0.05,0.5,0.22,0.63,0.46
		c0.05,0.64-0.01,1.28-0.17,1.9c-0.04,0.07-0.04,0.15,0,0.22h0.34v-0.31c0.21-0.62,0.39-1.24,0.53-1.88
		c0.06-0.31,0.13-0.61,0.22-0.92c0.1-0.27,0.24-0.7,0.48-1.23c0.24-0.53,0.43-0.89,0.43-1.04v-0.36c-0.02-0.09-0.08-0.16-0.17-0.19
		h-0.27c-0.09,0.11-0.16,0.23-0.22,0.36c-0.14,0.37-0.34,0.71-0.6,1.01c-0.21,0.19-0.51,0.23-0.77,0.12l-2.41-0.75l-1.59-0.46
		l-1.66-0.55c0.11-0.37,0.28-0.71,0.49-1.03l-1.02,0.74c0-0.03,0-0.06,0.01-0.09l-0.56-0.19l-4.19-1.4h-0.22
		c-0.34-0.08-0.63-0.3-0.8-0.6c-0.13-0.45-0.13-0.92,0-1.37c0.03-0.18,0.03-0.35,0-0.53h-0.14c-0.06-0.03-0.13-0.03-0.19,0
		c-0.09,0.29-0.19,0.58-0.31,0.87c-0.18,0.8-0.6,2.23-1.28,4.29l-0.14,0.75h0.14C114.6,220.84,114.77,220.79,114.87,220.66z"/>
	<path class="st0" d="M272.67,123.66c0.33,0.44,0.6,0.93,0.8,1.45l1.11,3.85l0.87,3.37l0.55,2.19v0.55
		c0.12,0.45,0.22,0.91,0.29,1.37l-0.02,0.14l-0.29,0.29c-0.26,0.31-0.56,0.58-0.89,0.82c-0.06,0.04-0.13,0.06-0.19,0.08
		c-0.44,0.12-0.89-0.13-1.01-0.56c-0.09-0.28-0.23-0.54-0.41-0.77c-0.15-0.12-0.34-0.19-0.53-0.22c-0.28-0.08-0.59-0.02-0.82,0.17
		c-0.21,0.18-0.34,0.43-0.39,0.7c-0.08,0.39,0.02,0.79,0.29,1.08c0.28,0.32,0.66,0.53,1.08,0.6c0.35,0.06,0.71,0.06,1.06,0
		c0.31-0.04,0.62-0.14,0.89-0.29c0.45-0.33,0.88-0.69,1.28-1.08c0.6-0.57,1.15-1.18,1.66-1.83l1.57-2c0.92-1.2,1.83-2.41,2.87-3.61
		c1.04-1.2,1.83-2.12,2.41-2.72c0.32-0.37,0.66-0.7,1.04-1.01c0.15-0.07,0.32-0.11,0.48-0.12h0.77v-0.41h-0.46l-1.78-0.31
		l-1.47-0.31l-0.7-0.17h-0.6v0.14c-0.02,0.08-0.02,0.16,0,0.24h0.22c0.42,0.12,0.82,0.28,1.2,0.48c0.39,0.17,0.39,0.39,0.39,0.65
		c-1.19,2.17-2.62,4.2-4.26,6.05l-0.55,0.7c-0.87,1.11-1.37,1.76-1.59,1.98l-1.04-4.48l-0.75-3.32l-0.48-2.22
		c-0.03-0.17-0.03-0.36,0-0.53c0.05-0.12,0.14-0.29,0.31-0.29c0.2-0.05,0.4-0.05,0.6,0h0.34h0.65h0.12h0.31v-0.12
		c0.03-0.07,0.03-0.15,0-0.22l-0.55-0.17l-1.35-0.24l-2.6-0.58l-1.86-0.39v0.51h0.27C271.92,123.2,272.33,123.39,272.67,123.66z"/>
	<path class="st0" d="M198.2,130.24c-0.01,0.06-0.01,0.13,0,0.19c0.74-0.18,1.52-0.18,2.26,0c0.19,0.07,0.39,0.41,0.55,0.94v0.19
		c0.42,1.38,0.85,2.75,1.3,4.1c0.95,2.86,1.56,4.73,1.83,5.61l0.31,0.65l0.12,0.43c0.06,0.21,0.06,0.44,0,0.65
		c-0.05,0.07-0.17,0.19-0.39,0.34l-1.37,0.72v0.29l0.65-0.22l1.2-0.34l1.95-0.67c0.51-0.15,1.02-0.27,1.54-0.36l0.65-0.14
		c0.1-0.02,0.19-0.07,0.27-0.14c0.03-0.09,0.03-0.18,0-0.27c-0.06-0.02-0.13-0.02-0.19,0h-0.72h-1.69c-0.15-0.25-0.26-0.52-0.34-0.8
		c-0.14-0.14-0.14-0.31-0.14-0.53c0-0.22,0-0.43,0-0.43l-1.71-4.89l-0.19-0.63c-0.16-0.29-0.47-1.24-0.94-2.84
		c-0.12-0.41-0.27-0.72-0.27-0.94v-0.22l-0.43-1.25v-0.17c0.47-0.35,1.01-0.59,1.59-0.7c0.43-0.11,0.88-0.18,1.33-0.19
		c0.45-0.08,0.9-0.08,1.35,0c0.58,0.2,1.1,0.54,1.52,0.99c0.43,0.44,0.76,0.98,0.94,1.57c0.14,0.6,0.14,1.23,0,1.83
		c-0.1,0.61-0.38,1.17-0.82,1.61c-0.42,0.45-0.95,0.78-1.54,0.96c-0.33,0.11-0.67,0.17-1.01,0.17h-0.34c-0.01,0.05-0.01,0.1,0,0.14
		c0.09,0.11,0.22,0.19,0.36,0.22c0.66,0.24,1.39,0.24,2.05,0c1.28-0.34,2.35-1.22,2.94-2.41c0.54-1.06,0.64-2.29,0.27-3.42
		c-0.25-0.74-0.67-1.41-1.23-1.95c-0.56-0.58-1.3-0.96-2.1-1.08c-1-0.1-2.01,0.03-2.96,0.36c-0.67,0.21-1.25,0.41-1.73,0.6
		l-1.88,0.7l-1.04,0.31l-0.65,0.41l-1.28,0.34h-0.24l0.22,0.02C198.18,130.07,198.18,130.16,198.2,130.24z"/>
	<path class="st0" d="M252.6,136.31h1.01l1.49,0.19h0.48h0.24c0.27,0,0.27-0.14,0.27-0.14c0.01-0.04,0.01-0.08,0-0.12
		c-0.26-0.12-0.52-0.22-0.8-0.29c-0.33-0.07-0.65-0.19-0.94-0.36c-0.11-0.17-0.17-0.37-0.17-0.58c-0.04-0.63-0.04-1.25,0-1.88v-0.67
		l0.31-3.08l0.31-3.47l0.14-2.79c0.04-0.37,0.09-0.74,0.17-1.11c0.58-0.05,1.16-0.05,1.73,0l3.16,0.29
		c1.23,0.05,2.47,0.17,3.69,0.36h-0.1l-0.41,6.12l-0.14,1.59l-0.27,3.08v0.7c0,0.29,0,0.51,0,0.67c0.03,0.41-0.09,0.81-0.34,1.13
		c-0.4,0.21-0.85,0.31-1.3,0.29c-0.32,0.01-0.64,0.08-0.94,0.22v0.58h0.63h2.41h1.01l1.47,0.19h0.51h0.19
		c0.27,0,0.27-0.14,0.27-0.14c0.01-0.04,0.01-0.08,0-0.12c-0.26-0.12-0.52-0.22-0.8-0.29c-0.34-0.07-0.66-0.19-0.96-0.36
		c-0.11-0.17-0.17-0.37-0.17-0.58c-0.04-0.63-0.04-1.25,0-1.88v-0.67l0.22-2.26l0.14-2.96l0.22-2.63c0-0.67,0-1.3,0-1.86
		c0-0.1,0-0.27,0-0.27c-0.02-0.25,0.08-0.49,0.27-0.65c0.22-0.03,0.45-0.03,0.67,0c0.37,0.02,0.73-0.03,1.08-0.14
		c0.01-0.14,0.01-0.27,0-0.41h-2.14h-1.78l-3.28-0.14h-0.94h-0.58h-1.71l-5.23-0.51h-0.55c0,0.07,0,0.22,0,0.22
		c-0.02,0.07-0.02,0.15,0,0.22l0.75,0.14c0.34,0.02,0.67,0.12,0.96,0.29c0.07,0.44,0.07,0.89,0,1.33v1.16l-0.39,4.82v0.89
		c-0.14,0.6-0.14,1.06-0.14,1.4l-0.12,1.93c0,0.29,0,0.53,0,0.7c0.02,0.4-0.1,0.79-0.34,1.11c-0.4,0.22-0.85,0.32-1.3,0.29
		c-0.32,0.01-0.64,0.08-0.94,0.22v0.27h0.55H252.6z"/>
	<path class="st0" d="M123.17,218.31c0.19-0.28,0.42-0.54,0.68-0.77c0.44-0.27,0.9-0.5,1.37-0.71l5.05-3.65
		c-0.32,0.12-0.65,0.23-0.98,0.31c-1.64,0.45-3.25,1-4.82,1.64c-0.5,0.23-0.95,0.54-1.35,0.92c-0.36,0.43-0.63,0.93-0.8,1.47
		c0-0.69-0.2-1.37-0.58-1.95c-0.45-0.6-0.94-1.17-1.47-1.71c-0.75-0.72-1.41-1.53-1.95-2.41c-0.06-0.22-0.06-0.45,0-0.67
		c0.03-0.16,0.21-0.24,0.53-0.24c0.55,0.01,1.05-0.34,1.23-0.87c0.12-0.3,0.06-0.64-0.14-0.89c-0.17-0.24-0.4-0.41-0.67-0.51
		c-0.33-0.08-0.68-0.02-0.96,0.17c-0.35,0.2-0.61,0.53-0.72,0.92c-0.14,0.44-0.14,0.91,0,1.35c0.17,0.5,0.4,0.98,0.7,1.42
		c0.74,0.92,1.55,1.79,2.41,2.6c0.52,0.52,0.94,1.13,1.23,1.81c0.24,0.79,0.32,1.62,0.22,2.43l0.07,0.02L123.17,218.31z"/>
	<path class="st0" d="M341.09,163.68c0,0-0.01-0.01-0.01-0.01l0.86,4.09c0.01-0.06,0.01-0.11,0.01-0.17L341.09,163.68z"/>
	<path class="st0" d="M350.73,177c-1.15,0.41-2.32,0.75-3.52,1.01c-0.35,0.11-0.71,0.11-1.06,0c-0.29-0.22-0.56-0.47-0.8-0.75
		l-0.19-0.22l-0.17-0.22c-0.07-0.08-0.16-0.13-0.27-0.17l0.1-0.14h-0.22l0.43,0.6l0.36,0.43l0.55,0.67l0.48,0.65
		c0.48,0.67,0.92,1.26,1.3,1.76l0.51,0.63h0.17c0.03-0.07,0.03-0.15,0-0.22l-0.87-1.35c-0.12-0.19-0.22-0.4-0.31-0.6
		c0.06-0.11,0.13-0.21,0.22-0.29c0.65-0.28,1.32-0.52,2-0.72l3.18-1.18l0.53-0.14c0.21,0.2,0.4,0.42,0.58,0.65l0.46,0.6l1.57,1.98
		c0.17,0.23,0.32,0.47,0.46,0.72c-1.11,1.78-1.77,2.83-1.98,3.13l-0.65,0.99c-0.19,0.33-0.42,0.64-0.67,0.92l-0.29,0.14
		c-0.21-0.14-0.4-0.31-0.55-0.51l-0.82-0.92l-0.22-0.14l-0.29,0.14c-0.01,0.07-0.01,0.15,0,0.22l0.17,0.19l0.14,0.22l0.17,0.24
		l0.89,1.11l0.7,0.94l1.28,1.69l0.34,0.41h0.17l0.12-0.17c-0.07-0.26-0.16-0.51-0.27-0.75l-0.22-0.51
		c-0.07-0.14-0.13-0.28-0.17-0.43c0.04-0.27,0.13-0.53,0.27-0.77c0.18-0.29,0.7-1.09,1.57-2.41l1.47-2.41l2.7-4.38
		c0.43-0.75,0.77-1.3,1.01-1.66c0.43-0.65,0.82-1.32,1.16-2.02l-0.24-0.34l-0.22-0.27l-1.76,0.63l-3.4,1.08l-3.11,1.04l-1.52,0.46
		L350.73,177z M353.74,176.66c0.02,0.03,0.04,0.06,0.06,0.08l0.21-0.08l0.63-0.22l0.92-0.31c0.67-0.27,1.64-0.55,2.92-0.92
		l1.28-0.34v0.22l-1.49,2.41l-1.25,2.05c-0.15,0.26-0.32,0.51-0.51,0.75c-0.32-0.34-0.67-0.75-1.04-1.23
		c-0.63-0.88-1.18-1.65-1.65-2.33l-0.15,0.06L353.74,176.66z"/>
	<path class="st0" d="M343.86,176.06c-0.02-0.03-0.04-0.06-0.06-0.09l0.06,0.28C343.9,176.19,343.9,176.12,343.86,176.06z"/>
	<path class="st0" d="M359.4,189.91c-0.56,0.67-0.99,1.44-1.25,2.26c-0.24,0.78-0.33,1.6-0.27,2.41c0.04,0.72,0.14,1.44,0.31,2.14
		c0.29,0.89,0.68,1.74,1.18,2.53c0.58,1.1,1.34,2.1,2.24,2.96l0.36,0.34l2.72-0.75l0.34-0.17c0.02-0.06,0.02-0.13,0-0.19
		c-0.56,0.08-1.13,0.08-1.69,0c-0.48-0.09-0.94-0.25-1.37-0.48c-0.44-0.26-0.84-0.58-1.2-0.94c-0.31-0.32-0.59-0.65-0.84-1.01
		l-0.29-0.48c-0.47-0.82-0.72-1.73-0.75-2.67c-0.01-1.08,0.33-2.13,0.99-2.99c0.86-1.14,1.97-2.08,3.23-2.75
		c0.76-0.44,1.57-0.78,2.41-1.01c0.78-0.23,1.59-0.34,2.41-0.31c1.41,0.04,2.76,0.58,3.81,1.52c0.36,0.34,0.67,0.74,0.92,1.18
		c0.52,0.83,0.79,1.79,0.75,2.77c-0.07,0.89-0.44,1.74-1.04,2.41v0.19l0.14,0.19l0.43-0.24c0.48-0.28,0.94-0.59,1.37-0.93
		c0.03-0.55-0.03-1.11-0.19-1.64c-0.18-0.85-0.49-1.66-0.92-2.41c-0.44-0.86-0.96-1.66-1.57-2.41c-0.62-0.68-1.37-1.23-2.19-1.64
		c-0.83-0.4-1.73-0.66-2.65-0.75c-0.85-0.12-1.72-0.12-2.58,0c-0.85,0.19-1.67,0.51-2.41,0.96
		C360.9,188.49,360.08,189.13,359.4,189.91z"/>
	<path class="st0" d="M374.49,195.77c-0.05,0.04-0.11,0.08-0.17,0.13c0,0.01,0,0.01,0,0.02L374.49,195.77z"/>
	<path class="st0" d="M380.63,217.16l-1.73,0.55l-5.16,1.71l-1.28,0.43c-0.9,0.36-1.84,0.61-2.79,0.72
		c-0.24-0.05-0.48-0.29-0.67-0.75c-0.17-0.33-0.32-0.67-0.46-1.01c-0.07-0.17-0.17-0.32-0.29-0.46l0.12-0.07l-0.34,0.14v0.19
		l0.84,2.65l0.53,1.54l0.29,0.99l0.53,1.49l0.31-0.14c0.17-0.07,0.14-0.36,0-0.84c-0.11-0.33-0.16-0.68-0.14-1.04
		c0.01-0.26,0.14-0.5,0.36-0.65c0.72-0.33,1.46-0.61,2.22-0.82l0.6-0.19l0.51-0.14l6.72-2.24c1.45-0.48,2.25-0.63,2.41-0.46
		c0.3,0.4,0.54,0.84,0.72,1.3c0.19,0.39,0.36,0.7,0.36,0.7h0.24l-1.11-3.16l-0.55-1.83l-0.65-2.1c-0.19,0.05-0.31,0.24-0.31,0.24
		c0.01,0.34,0.07,0.67,0.17,0.99c0.15,0.48,0.21,0.99,0.17,1.49l-0.27,0.24L380.63,217.16z"/>
	<path class="st0" d="M369.33,206.61l-1.3,0.46c-0.66,0.23-1.34,0.43-2.02,0.58c-0.23,0.1-0.49,0.1-0.72,0
		c-0.36-0.47-0.68-0.97-0.94-1.49c-0.12-0.22-0.27-0.22-0.41-0.22c0.06,0.26,0.13,0.52,0.22,0.77l0.8,2.41
		c0.14,0.4,0.31,0.87,0.51,1.4l0.19,0.51l0.55,1.66c0.41,1.49,1.32,2.8,2.58,3.71c1.01,0.76,2.33,0.99,3.54,0.6
		c1.03-0.32,1.9-1.04,2.41-2c0.51-1.51,0.43-3.16-0.24-4.6c-0.31-0.99-0.68-1.97-1.11-2.92l0.43-0.17h0.24l1.93-0.72
		c0.63-0.22,1.27-0.41,1.93-0.55c0.24-0.08,0.5-0.08,0.75,0c0.24,0.19,0.44,0.44,0.58,0.72l0.77,1.28h0.43l-0.14-0.12
		c-0.51-1.22-0.92-2.3-1.23-3.25l-0.65-2.1l-0.17-0.6l-0.24-0.7l-0.14-0.46c-0.11,0.04-0.2,0.1-0.27,0.19
		c0.03,0.61,0.11,1.21,0.24,1.81c0.12,0.41,0,0.7,0,0.82c-0.28,0.22-0.6,0.38-0.94,0.46l-0.58,0.17l-2.17,0.75L369.33,206.61z
		 M373.57,209.96c0.37,1.02,0.37,2.14,0,3.16c-0.39,0.95-1.2,1.66-2.19,1.93c-0.92,0.3-1.92,0.21-2.77-0.24
		c-0.97-0.5-1.69-1.37-2-2.41c-0.23-0.58-0.31-1.21-0.22-1.83c0.07-0.37,0.29-0.69,0.6-0.89c0.29-0.18,1.8-0.71,4.53-1.59l1.18-0.36
		l0.02-0.17C373.06,208.33,373.34,209.14,373.57,209.96z"/>
	<path class="st0" d="M337.7,163.87l-1.49,1.59l-0.77,0.84c-0.16,0.22-0.41,0.35-0.67,0.36c-0.6-0.23-1.17-0.55-1.66-0.96
		c-0.07-0.04-0.15-0.04-0.22,0l-0.22,0.27l0.24,0.24c0.47,0.44,0.96,0.86,1.47,1.25l0.75,0.6c0.22,0.19,0.51,0.51,0.92,0.96
		l0.77,0.84l0.29,0.24c0.08,0.05,0.18,0.05,0.27,0c0.06-0.07,0.1-0.15,0.12-0.24c-0.07-0.12-0.15-0.23-0.24-0.34
		c-0.28-0.29-0.5-0.62-0.65-0.99c-0.08-0.27,0.01-0.56,0.22-0.75c0.67-0.72,1.24-1.36,1.71-1.9l1.08-1.23l1.2-1.28
		c0.1,0.09,0.18,0.19,0.27,0.28l-0.15-0.72l0.82-0.48l3.04-3.23l0.14-0.17c0.21-0.28,0.54-0.46,0.89-0.48
		c0.46,0.09,0.88,0.29,1.23,0.6c0.14,0.12,0.29,0.21,0.46,0.27h0.12c0.04-0.07,0.04-0.15,0-0.22l-0.65-0.65
		c-0.63-0.5-1.74-1.49-3.35-2.96l-0.48-0.39H343c-0.05,0.1-0.05,0.22,0,0.31l0.55,0.6v0.14c0.17,0.16,0.3,0.36,0.36,0.58
		c-0.16,0.43-0.43,0.81-0.77,1.11l-1.13,1.25l-1.47,1.54l-2.17,2.41L337.7,163.87z"/>
	<path class="st0" d="M300.28,146.02c-0.07,0.07-0.13,0.15-0.17,0.24l0.65,0.34l0.31,0.12l1.01,0.43l0.75,0.36l1.95,0.99l0.94,0.41
		v-0.14c0.03-0.07,0.03-0.15,0-0.22l-0.77-0.43c-0.42-0.21-0.82-0.47-1.18-0.77c-0.02-0.12-0.02-0.24,0-0.36
		c0.1-0.16,0.22-0.31,0.36-0.43l2.6-2.82l0.99-1.04c1.58-1.83,3.29-3.55,5.11-5.14c0-0.06,0.01-0.13,0-0.19l0.07,0.12
		c-0.02,0.02-0.05,0.05-0.07,0.07c0,0.03,0,0.05,0,0.08v1.18c-0.07,1.47-0.22,3.37-0.41,5.71c-0.19,2.34-0.17,3.3-0.31,3.69
		c-0.14,0.39-0.14,0.77-0.14,1.18c-0.02,0.38-0.09,0.75-0.19,1.11c-0.05,0.1-0.12,0.19-0.19,0.27c-0.34-0.04-0.68-0.14-0.99-0.29
		c-0.36-0.19-0.75-0.32-1.16-0.39c-0.08,0.08-0.15,0.17-0.19,0.27c0.27,0.24,0.58,0.42,0.92,0.55l1.33,0.34l1.18,0.58l1.9,0.92
		l0.48,0.22v-0.14c0.01-0.06,0.01-0.13,0-0.19l-0.36-0.36l-0.36-0.34c-0.23-0.15-0.43-0.34-0.6-0.55c-0.04-0.17-0.04-0.34,0-0.51
		c0-0.24,0-0.82,0-1.73c0.22-1.86,0.39-4.6,0.72-8.17c0.34-3.57,0.34-5.44,0.34-5.44l-0.36-0.19l-0.31-0.12
		c-0.48,0.61-1.24,1.41-2.26,2.41l-1.57,1.54l-2.41,2.41l-1.13,1.11c-1.46,1.49-2.48,2.5-3.06,3.01c-0.37,0.4-0.85,0.69-1.37,0.84
		c-0.6-0.03-1.19-0.2-1.71-0.51C300.49,145.99,300.38,145.99,300.28,146.02z"/>
	<path class="st0" d="M285.75,140.96v0.12l0.75,0.29l2.41,0.8l1.42,0.46l0.6-0.14l1.66,0.58c1.44,0.57,3.03,0.63,4.51,0.17
		c1.21-0.34,2.19-1.23,2.63-2.41c0.32-0.82,0.37-1.72,0.14-2.58c-0.22-0.76-0.69-1.43-1.35-1.88c-0.84-0.56-1.76-1-2.72-1.3
		l-1.37-0.41h-0.43l-1.18-0.34l0.12-0.46v-0.24c0.29-0.96,0.48-1.61,0.6-1.98l0.92-2.7l0.7,0.17l1.2,0.31l1.37,0.46l0.46,0.17
		l0.99,0.36c0.22,0.06,0.43,0.16,0.63,0.29c0.18,0.28,0.29,0.6,0.31,0.94c0.1,0.46,0.16,0.93,0.19,1.4c-0.02,0.27-0.02,0.55,0,0.82
		h0.14c0.17,0-0.05,0.82,0.17,0c0.14-0.55,0.35-1.2,0.6-1.98l0.22-0.43l0.19-0.41c0.01-0.07,0.01-0.15,0-0.22l-0.14-0.29l-0.92-0.29
		h-0.17l-1.59-0.53l-0.75-0.29l-0.51-0.19l-1.54-0.41l-1.13-0.36l-3.4-1.25l-1.16-0.39c-0.03,0.09-0.03,0.19,0,0.29
		c0.43,0.35,0.89,0.66,1.37,0.94c0.39,0.17,0.63,0.34,0.63,0.51c0.01,0.35-0.06,0.69-0.19,1.01l-0.22,0.55l-0.7,2.17l-1.64,4.82
		l-0.41,1.33c-0.21,0.67-0.47,1.32-0.77,1.95c-0.17,0.31-0.34,0.53-0.48,0.53c-0.59,0.01-1.18-0.04-1.76-0.14
		C285.95,140.74,285.75,140.81,285.75,140.96z M292.07,136.24l0.41-1.16v0.05h0.27l1.01,0.29l1.01,0.34c1.1,0.3,2.05,1,2.67,1.95
		c0.5,0.88,0.57,1.93,0.19,2.87c-0.32,0.95-1.03,1.71-1.95,2.1c-0.92,0.43-1.96,0.48-2.92,0.14c-0.66-0.17-1.28-0.5-1.78-0.96
		c-0.26-0.28-0.39-0.66-0.36-1.04C291.02,139.26,291.5,137.73,292.07,136.24z"/>
	<path class="st0" d="M322.23,157.89c0.07-0.1,0.07-0.23,0-0.34c-0.2-0.29-0.42-0.57-0.67-0.82c-0.2-0.18-0.38-0.38-0.53-0.6
		c-0.06-0.15-0.06-0.31,0-0.46c0.15-0.35,0.35-0.68,0.58-0.99l1.52-0.46c0.99-0.31,1.93-0.58,2.77-0.77l2.12-0.51l6.58-1.57
		l-4.82,6.79l-0.31,0.41l-0.27,0.36l-0.96,1.37c-0.34,0.48-0.84,0.54-1.52,0.17c-0.34-0.21-0.71-0.35-1.11-0.41l-0.14,0.17v0.19
		c1.06,0.52,2.08,1.11,3.06,1.78c0.73,0.51,1.42,1.08,2.05,1.71h0.12c0.08-0.11,0.08-0.25,0-0.36c-0.2-0.29-0.43-0.57-0.67-0.82
		c-0.39-0.41-0.6-0.67-0.6-0.82c0.4-0.86,0.91-1.67,1.49-2.41l0.96-1.45l1.16-1.61l1.16-1.69l0.65-0.89l1.25-1.81l0.31-0.46
		c0.27-0.39,0.48-0.63,0.6-0.63c0.26,0.02,0.51,0.11,0.72,0.27c0.31,0.2,0.65,0.35,1.01,0.43l0.29-0.31l-1.83-1.13l-1.25-0.92
		l-1.2-0.96l-0.46-0.24c-0.08,0.11-0.13,0.23-0.17,0.36l0.27,0.43l0.27,0.27c0.43,0.36,0.65,0.7,0.65,0.7
		c-0.09,0.31-0.23,0.59-0.43,0.84l0-0.05c-1.28,0.36-2.6,0.7-4.05,1.04l-3.18,0.75l-2.41,0.58l-3.28,0.89l1.25-1.83l1.16-1.64
		l1.18-1.69l0.65-0.89l1.25-1.81l0.96-0.43c0.29-0.39,0.48-0.6,0.6-0.63c0.12-0.02,0.36,0.05,0.72,0.27
		c0.31,0.2,0.65,0.34,1.01,0.43c0.11-0.09,0.21-0.2,0.29-0.31l-1.83-1.13l-1.25-0.92l-1.2-0.94l-0.46-0.24
		c-0.09,0.11-0.15,0.23-0.19,0.36l0.27,0.27l0.27,0.27c0.23,0.18,0.44,0.38,0.63,0.6c0.03,0.08,0.03,0.16,0,0.24
		c-0.1,0.24-0.23,0.47-0.39,0.67l-1.47,2.12l-2.41,3.3l-0.8,1.16l-0.67,0.99l-0.29,0.41l-0.27,0.34l-0.96,1.37
		c-0.34,0.48-0.84,0.53-1.52,0.14c-0.34-0.21-0.72-0.35-1.11-0.41l-0.12,0.17l-0.12,0.19c1.06,0.52,2.08,1.11,3.06,1.78
		C320.92,156.67,321.6,157.25,322.23,157.89z"/>
	<path class="st0" d="M343.6,175.68c0.07,0.09,0.14,0.19,0.2,0.29l-0.81-3.66c-0.01,0.1-0.02,0.21-0.04,0.31L343.6,175.68z"/>
	<path class="st0" d="M341.94,165.22c0.08,0.79,0.08,1.58,0.01,2.36l1.05,4.73c0.01-0.08,0.01-0.15,0.03-0.23
		c0.29-1.7,0.49-3.41,0.58-5.13c0-0.54-0.09-1.08-0.27-1.59c-0.27-0.54-0.66-1.02-1.13-1.4c0.63,0.29,1.34,0.39,2.02,0.29
		c0.74-0.15,1.46-0.35,2.17-0.6c0.96-0.38,1.96-0.63,2.99-0.75c0.23,0,0.46,0.07,0.65,0.19c0.1,0.08,0.1,0.27,0,0.58
		c-0.24,0.5-0.13,1.09,0.27,1.47c0.23,0.23,0.56,0.32,0.87,0.24c0.28-0.05,0.54-0.18,0.75-0.39c0.23-0.26,0.34-0.62,0.29-0.96
		c-0.04-0.4-0.23-0.77-0.53-1.04c-0.35-0.31-0.79-0.49-1.25-0.53c-0.53-0.07-1.06-0.07-1.59,0c-1.14,0.25-2.26,0.58-3.35,0.99
		c-0.69,0.25-1.41,0.38-2.14,0.36c-0.86-0.11-1.68-0.41-2.41-0.87l0.16,0.73C341.48,164.12,341.78,164.64,341.94,165.22z"/>
	<path class="st0" d="M342.88,174.13c-0.01-0.5,0.02-1.01,0.08-1.51l-1.02-4.87c-0.04,0.39-0.09,0.77-0.17,1.15
		c-0.24,1.85-0.51,3.45-0.8,4.82c0.35,0.22,0.68,0.47,0.99,0.75l0.67,0.67c0.43,0.46,0.8,0.82,1.08,1.11l-0.12-0.57
		c-0.04-0.06-0.07-0.12-0.12-0.17C343.14,175.12,342.93,174.64,342.88,174.13z"/>
	<path class="st0" d="M207.52,356.37l0.12-0.22l-0.51-0.19l-2.24-0.89l-0.94-0.43c-0.51-0.27-0.96-0.49-1.33-0.65l-0.46-0.19h-0.22
		c-0.17,0-0.29,0-0.29,0c-0.02,0.05-0.02,0.1,0,0.14l0.67,0.53c0.3,0.17,0.57,0.39,0.8,0.65c0.06,0.19,0.06,0.39,0,0.58
		c-0.19,0.6-0.41,1.19-0.67,1.76l-0.27,0.63l-1.23,2.77l-1.42,3.2l-1.06,2.58c-0.11,0.26-0.28,0.59-0.51,0.99
		c-0.54-0.14-1.07-0.32-1.59-0.53l-1.83-0.82c-1.59-0.69-2.57-1.14-2.94-1.35l0.82-2l2.29-5.16l1.25-2.82l0.27-0.65l0.24-0.63
		c0.24-0.55,0.48-0.96,0.7-0.96c0.45-0.07,0.91-0.01,1.33,0.17c0.32,0.06,0.65,0.06,0.96,0v-0.24l-0.51-0.19l-2.24-0.89l-0.92-0.43
		c-0.53-0.27-0.98-0.49-1.35-0.65l-0.46-0.19h-0.22c-0.17,0-0.29,0-0.29,0c-0.02,0.05-0.02,0.1,0,0.14
		c0.21,0.19,0.44,0.37,0.67,0.53c0.29,0.18,0.55,0.4,0.77,0.65c0.06,0.2,0.06,0.41,0,0.6c-0.19,0.6-0.41,1.19-0.67,1.76l-3.04,7.04
		l-0.84,1.95c-0.17,0.42-0.38,0.83-0.63,1.2c-0.48-0.12-0.94-0.27-1.4-0.46l-0.99-0.46l-1.66-0.75l-1.37-0.58
		c-0.32-0.14-0.62-0.3-0.92-0.48l2.41-5.66l0.63-1.47l1.25-2.82l0.27-0.65l0.24-0.63c0.24-0.55,0.48-0.96,0.7-0.96
		c0.45-0.07,0.91-0.01,1.33,0.17c0.32,0.06,0.65,0.06,0.96,0v-0.24l-0.51-0.19l-2.24-0.89l-0.92-0.43
		c-0.53-0.29-0.99-0.53-1.35-0.67l-0.46-0.19h-0.21l-0.2,0.22c0,0,0,0-0.01,0l0.59,0.46c0.3,0.17,0.57,0.39,0.8,0.65
		c0.06,0.19,0.06,0.39,0,0.58c-0.19,0.6-0.41,1.19-0.67,1.76l-2.89,6.63l-0.8,1.9c-0.23,0.65-0.56,1.25-0.99,1.78
		c-0.23-0.01-0.46-0.05-0.67-0.14c-0.34-0.13-0.7-0.2-1.06-0.22c-0.09,0.12-0.16,0.25-0.22,0.39c0.99,0.31,1.64,0.55,2.02,0.72
		l1.66,0.65l3.37,1.35l1.37,0.6l6.79,2.87l6.75,2.96l0.17-0.1c0.05-0.14,0.12-0.19-0.53-0.63s-1.08-0.75-1.08-0.96
		c0.02-0.6,0.19-1.19,0.48-1.71l1.13-2.41l0.89-2.14l0.34-0.72l1.25-2.82l0.27-0.65l0.24-0.63c0.24-0.55,0.48-0.96,0.7-0.96
		c0.45-0.07,0.91-0.01,1.33,0.17C206.88,356.43,207.21,356.43,207.52,356.37z"/>
	<path class="st0" d="M234.15,373.02c-0.43,0.7-0.97,1.34-1.59,1.88c-0.4,0.28-0.87,0.43-1.35,0.46c-1.01-0.01-2.02-0.12-3.01-0.34
		l-1.57-0.29l-0.72-0.14h-0.7c-0.43-0.07-0.82-0.22-0.82-0.41c-0.09-0.46-0.09-0.94,0-1.4l0.22-1.3l0.24-1.35l0.36-2.14v-0.39
		c0.71,0.07,1.42,0.17,2.12,0.31l0.75,0.14l1.28,0.22h0.6c0.38,0.03,0.74,0.21,1.01,0.48c0.26,0.49,0.39,1.04,0.39,1.59
		c0.02,0.37,0.08,0.73,0.19,1.08h0.24c0.01-0.09,0.01-0.18,0-0.27c0-0.05-0.05-0.31,0-0.82c0.05-0.51,0.17-0.94,0.17-1.35
		c0.27-1.49,0.53-2.39,0.53-2.67v-0.27c0.01-0.06,0.01-0.11,0-0.17h-0.27c-0.19,0.05-0.39,0.36-0.55,0.94
		c-0.07,0.38-0.23,0.73-0.46,1.04c-0.24,0.07-0.5,0.07-0.75,0l-3.23-0.53h-0.24l-0.8-0.17h-0.58h-0.19h-0.27l0.29-1.61l0.43-2.79
		c0.04-0.56,0.21-1.1,0.48-1.59c0.1,0,0.36,0,0.8,0h0.29l3.32,0.51h0.51l1.04,0.22c0.23,0.02,0.45,0.1,0.65,0.22
		c0.16,0.19,0.27,0.41,0.34,0.65c0.18,0.45,0.31,0.92,0.41,1.4c0.05,0.29,0.11,0.57,0.19,0.84h0.22c0.03-0.56,0.12-1.24,0.27-2.05
		c0.12-0.05,0.12-0.19,0.12-0.41c0.06-0.16,0.11-0.32,0.14-0.48c0.01-0.07,0.01-0.15,0-0.22l-0.96-0.14h-0.19l-1.64-0.29l-1.3-0.29
		l-1.16-0.17l-2.41-0.39l-2.02-0.41l-0.87-0.12l-1.4-0.31h-0.39h-0.19c-0.01,0.07-0.01,0.15,0,0.22c-0.04,0.07-0.04,0.17,0,0.24
		l0.77,0.22c0.67,0.14,1.18,0.31,1.18,0.48c0.1,0.44,0.1,0.9,0,1.35l-0.53,3.3l-0.53,2.92l-0.22,1.4l-0.53,2.94l-0.12,0.82
		c-0.02,0.23-0.12,0.45-0.27,0.63c-0.47,0.07-0.95,0.07-1.42,0h-0.8h-0.22l0.12,0.1c-0.03,0.06-0.03,0.13,0,0.19
		c0.07,0.02,0.15,0.02,0.22,0l3.08,0.46l0.8-0.12l1.42,0.24l3.47,0.55l1.47,0.27l3.25,0.53h0.24c0.16-0.17,0.26-0.38,0.29-0.6
		c0.11-0.55,0.26-1.1,0.43-1.64c0.19-0.49,0.4-0.98,0.65-1.45c-0.06-0.06-0.13-0.1-0.22-0.12
		C234.53,372.58,234.34,372.73,234.15,373.02z"/>
	<path class="st0" d="M219.72,360.92c0.17,0.52,0.22,1.07,0.17,1.61c-0.03,0.19-0.03,0.39,0,0.58c0.03,0.06,0.08,0.1,0.14,0.12h0.24
		c0.01-0.07,0.01-0.15,0-0.22l0.67-2.26l0.24-0.96l0.14-0.46c0.02-0.14,0.02-0.29,0-0.43h-0.22c-0.14-0.02-0.29,0.05-0.46,0.24
		l-0.58,0.67c-0.1,0.05-0.21,0.05-0.31,0l-0.94-0.31h-0.29l-1.76-0.43l-0.94-0.24l-3.18-0.84l-2.67-0.75l-0.48-0.17
		c-0.13-0.05-0.25-0.13-0.34-0.24c-0.1-0.16-0.16-0.34-0.19-0.53c-0.1-0.36-0.19-0.6-0.34-0.6c-0.07-0.03-0.15-0.03-0.22,0
		c-0.14,0.11-0.25,0.26-0.31,0.43l-0.94,1.59l0.24,0c-0.07,0.19-0.27,0.58-0.58,1.11c-0.16,0.25-0.29,0.5-0.41,0.77
		c-0.02,0.05-0.02,0.1,0,0.14c0.19,0.05,0.46-0.1,0.8-0.41c0.63-0.6,1.37-1.08,2.17-1.42c0.7-0.01,1.39,0.1,2.05,0.34
		c0.61,0.16,1.22,0.35,1.81,0.58l-0.92,3.2l-0.19,0.92l-1.08,4.22l-0.51,1.93c-0.16,0.66-0.37,1.3-0.63,1.93
		c-0.05,0.12-0.13,0.22-0.24,0.29c-0.3,0.1-0.62,0.14-0.94,0.12h-1.18c-0.15-0.04-0.31-0.04-0.46,0c-0.1,0.08-0.16,0.19-0.19,0.31
		h0.14l0.63,0.19l1.23,0.27l1.69,0.36l2.19,0.36l1.59,0.48v-0.34c-0.1-0.08-0.21-0.15-0.34-0.19l-1.3-0.7
		c-0.26-0.12-0.48-0.3-0.65-0.53c-0.07-0.2-0.07-0.41,0-0.6l0.24-0.84l0.39-1.52c0.32-0.77,0.48-1.29,0.48-1.57l1.81-7.08
		c0.07-0.24,0.24-0.53,0.24-0.82l1.93,0.46c0.69,0.16,1.36,0.38,2,0.67C219.4,360.47,219.6,360.68,219.72,360.92z"/>
	<path class="st0" d="M138.67,313.97C138.67,313.97,138.67,313.97,138.67,313.97v-0.14l0.53-0.41l3.49-2.7l0.17-0.14
		c0.25-0.24,0.59-0.36,0.94-0.34c0.43,0.16,0.82,0.44,1.11,0.8c0.11,0.14,0.25,0.25,0.41,0.34h0.14c0.03-0.06,0.03-0.13,0-0.19
		c-0.19-0.24-0.37-0.49-0.53-0.75c-0.56-0.59-1.51-1.74-2.84-3.45l-0.41-0.46h-0.17c-0.04,0.07-0.04,0.14-0.02,0.22l0.13,0.26
		l0.33,0.51v0.17c0.14,0.18,0.24,0.4,0.27,0.63c-0.05,0.22-0.36,0.53-0.92,0.99l-1.33,1.06l-1.69,1.3l-2.53,2.07l-0.77,0.55
		l-1.73,1.35l-0.89,0.7c-0.19,0.19-0.45,0.29-0.72,0.27c-0.56-0.32-1.07-0.72-1.49-1.2c-0.07-0.04-0.15-0.04-0.22,0l-0.27,0.24
		l0.22,0.27c0.39,0.51,0.81,1,1.25,1.47c0.22,0.22,0.43,0.45,0.63,0.7c0.17,0.22,0.41,0.58,0.75,1.08l0.63,0.94l0.24,0.29
		c0.08,0.05,0.18,0.05,0.27,0c0.07-0.06,0.13-0.13,0.17-0.22c-0.05-0.14-0.11-0.26-0.19-0.39c-0.23-0.32-0.4-0.68-0.51-1.06
		c-0.04-0.29,0.09-0.57,0.34-0.72l1.98-1.61l1.28-1.06l1.4-1.06c0.26,0.32,0.47,0.69,0.61,1.07l-0.02-1.06L138.67,313.97z"/>
	<path class="st0" d="M119.13,281.8c1.09-0.21,2.04-0.86,2.65-1.78c0.64-1.46,0.7-3.1,0.17-4.6c-0.22-1.02-0.5-2.03-0.84-3.01
		l0.46-0.12h0.24l1.98-0.53c0.65-0.17,1.31-0.3,1.98-0.39c0.24-0.08,0.5-0.08,0.75,0c0.26,0.18,0.47,0.41,0.63,0.67l0.65,1.35h0.43
		c-0.43-1.25-0.75-2.39-0.96-3.35l-0.46-2.14l-0.12-0.63l-0.17-0.72l-0.07-0.22h-0.19h-0.2c-0.04,0.56-0.04,1.13,0.01,1.69
		c0.17,0.41,0.12,0.8,0,0.8c-0.29,0.19-0.62,0.31-0.96,0.36l-0.58,0.12l-2.22,0.55l-4.99,1.18l-1.33,0.34
		c-0.71,0.27-1.43,0.5-2.17,0.67c-0.24,0.05-0.49-0.01-0.7-0.14c-0.32-0.49-0.6-1.02-0.82-1.57c-0.1-0.24-0.22-0.24-0.39-0.24h-0.12
		c0.03,0.27,0.08,0.53,0.14,0.8l0.58,2.41c0.1,0.42,0.22,0.9,0.36,1.45l0.14,0.53l0.39,1.71c0.28,1.52,1.07,2.89,2.24,3.9
		C116.58,281.74,117.89,282.09,119.13,281.8z M114.02,276.53c-0.17-0.61-0.17-1.25,0-1.86c0.11-0.35,0.35-0.65,0.67-0.82
		c0.31-0.14,1.86-0.54,4.65-1.18l1.19-0.26c0-0.01-0.01-0.02-0.01-0.03l0.02,0.02l-0.02,0c0.26,0.78,0.47,1.58,0.64,2.38
		c0.3,1.05,0.21,2.17-0.24,3.16c-0.48,0.93-1.38,1.57-2.41,1.73c-0.94,0.22-1.93,0.04-2.75-0.48
		C114.85,278.59,114.21,277.62,114.02,276.53z"/>
	<path class="st0" d="M185.24,346.78c0,0,0.14,0,0.29,0h0.01l0.09-0.1l-1.83-1.11l-1.25-0.89l-1.23-0.94l-0.46-0.24
		c-0.08,0.11-0.13,0.23-0.17,0.36l0.29,0.27l0.29,0.27c0.41,0.36,0.65,0.7,0.65,0.7c-0.13,0.32-0.33,0.6-0.58,0.84
		c0.02-0.01,0.05-0.01,0.07-0.02l-0.1,0.05c0.01-0.01,0.01-0.02,0.02-0.03c-1.23,0.38-2.56,0.73-3.95,1.09l-3.18,0.82l-2.41,0.63
		l-2.94,1.23l1.23-1.86l1.13-1.66l1.16-1.69l0.63-0.89l1.23-1.83l0.29-0.46c0.27-0.39,0.46-0.58,0.58-0.63s0.39,0.05,0.75,0.24
		c0.31,0.19,0.66,0.33,1.01,0.41c0.1-0.1,0.19-0.22,0.27-0.34l-1.83-1.11l-1.28-0.89l-1.23-0.94l-0.46-0.24
		c-0.08,0.11-0.13,0.23-0.17,0.36l0.29,0.27l0.29,0.27c0.23,0.18,0.44,0.38,0.63,0.6c0.03,0.08,0.03,0.16,0,0.24
		c-0.09,0.24-0.21,0.47-0.36,0.67l-1.42,2.14l-2.24,3.32l-0.77,1.16l-0.65,1.01l-0.29,0.41l-0.27,0.34l-0.94,1.4
		c-0.31,0.48-0.82,0.53-1.52,0.17c-0.34-0.21-0.72-0.35-1.11-0.41l-0.12,0.17l-0.12,0.19c1.08,0.5,2.12,1.08,3.11,1.73
		c0.74,0.5,1.43,1.06,2.07,1.69c0.07-0.1,0.07-0.23,0-0.34c-0.21-0.29-0.44-0.57-0.7-0.82c-0.21-0.18-0.39-0.38-0.55-0.6
		c-0.06-0.15-0.06-0.31,0-0.46c0.14-0.36,0.33-0.7,0.55-1.01l1.49-0.48c0.98-0.34,1.9-0.61,2.75-0.82l2.1-0.55l6.84-1.78l-4.6,6.89
		l-0.31,0.41l-0.27,0.36l-0.94,1.4c-0.34,0.5-0.84,0.56-1.52,0.19c-0.34-0.21-0.71-0.35-1.11-0.41l-0.14,0.17v0.22
		c1.08,0.5,2.12,1.08,3.11,1.73c0.74,0.5,1.43,1.06,2.07,1.69c0.08-0.11,0.08-0.25,0-0.36c-0.2-0.29-0.43-0.57-0.67-0.82
		c-0.42-0.39-0.63-0.65-0.63-0.8c0.39-0.86,0.87-1.66,1.45-2.41l0.94-1.45l1.13-1.64l1.13-1.71l0.63-0.89l1.23-1.83l0.29-0.46
		c0.27-0.39,0.48-0.63,0.6-0.63c0.26,0.01,0.51,0.1,0.72,0.24c0.31,0.19,0.65,0.33,1,0.41l-0.09-0.07
		C185.22,346.88,185.22,346.83,185.24,346.78z"/>
	<path class="st0" d="M139.25,327.39c0.03-0.05,0.03-0.12,0-0.17c-0.04-0.09-0.09-0.17-0.14-0.26l0.01,0.43H139.25z"/>
	<path class="st0" d="M130.96,285.39c-0.01-0.04-0.01-0.08,0-0.12c0,0,0.04,0,0.09,0.02l-0.52-2.04l-0.41-1.88l-0.46-2.14
		c-0.19,0.05-0.34,0.22-0.34,0.22c-0.04,0.33-0.04,0.66,0,0.99c0.1,0.5,0.1,1.02,0,1.52l-0.29,0.22l-1.37,0.39l-1.78,0.39l-5.3,1.25
		l-1.3,0.31c-0.96,0.25-1.95,0.38-2.94,0.36c-0.24-0.07-0.43-0.36-0.6-0.82c-0.14-0.34-0.26-0.68-0.36-1.04
		c-0.05-0.17-0.13-0.34-0.24-0.48l0.02,0.22h-0.34v0.22l0.6,2.7l0.39,1.57l0.19,1.01l0.27,1.47l0.34-0.12c0-0.1,0-0.39,0-0.87
		c-0.06-0.35-0.06-0.71,0-1.06c0.03-0.26,0.18-0.5,0.41-0.63c0.74-0.27,1.49-0.48,2.26-0.63l0.96-0.26h0.51l6.89-1.64
		c1.46-0.34,2.26-0.42,2.41-0.24c0.26,0.42,0.46,0.87,0.6,1.35c0.17,0.43,0.31,0.75,0.31,0.75h0.2c-0.01-0.04-0.02-0.08-0.03-0.12
		C131.05,285.96,131,285.68,130.96,285.39z"/>
	<path class="st0" d="M141.49,306.74l-0.1-0.19l-1.11-2.14c-0.12-0.27-0.19-0.39-0.41-0.94c-0.22-0.55-0.41-1.01-0.58-1.37
		l-0.22-0.46v-0.22c-0.07-0.17-0.24-0.17-0.24-0.17c-0.01,0.04-0.01,0.08,0,0.12c0.04,0.28,0.09,0.57,0.17,0.84
		c0.11,0.32,0.16,0.65,0.17,0.99c-0.02,0.1-0.17,0.24-0.41,0.41c-0.53,0.33-1.09,0.63-1.66,0.89l-0.63,0.29l-2.75,1.28l-3.52,1.35
		l-2.41,1.25l-1.01,0.41c-0.32-0.46-0.61-0.94-0.87-1.45l-0.84-1.81c-0.74-1.56-1.18-2.54-1.33-2.94l1.93-0.96l5.01-2.41l2.79-1.3
		l0.63-0.31l0.6-0.31c0.34-0.22,0.75-0.32,1.16-0.27c0.38,0.24,0.69,0.58,0.89,0.99c0.17,0.28,0.4,0.53,0.67,0.72h0.24l-0.24-0.48
		l-1.11-2.14c-0.12-0.27-0.27-0.58-0.41-0.94c-0.21-0.56-0.4-1.02-0.58-1.37l-0.22-0.46v-0.22c-0.07-0.17-0.24-0.17-0.24-0.17
		c-0.01,0.04-0.01,0.08,0,0.12c0.04,0.28,0.09,0.57,0.17,0.84c0.11,0.32,0.16,0.65,0.17,0.99c-0.02,0.1-0.17,0.24-0.41,0.41
		c-0.53,0.33-1.09,0.63-1.66,0.89l-6.91,3.3l-1.93,0.94c-0.4,0.21-0.82,0.38-1.25,0.51c-0.29-0.4-0.55-0.82-0.77-1.25l-0.46-0.99
		l-0.77-1.64l-0.67-1.35c-0.15-0.31-0.28-0.63-0.39-0.96l5.54-2.75l1.45-0.7l2.79-1.3l0.63-0.31l0.6-0.31
		c0.34-0.22,0.75-0.32,1.16-0.27c0.38,0.24,0.69,0.58,0.89,0.99c0.17,0.28,0.4,0.53,0.67,0.72h0.24l-0.24-0.48l-1.33-2.22
		c-0.12-0.27-0.19-0.39-0.41-0.94c-0.22-0.55-0.41-1.01-0.58-1.37l-0.22-0.46v-0.22c-0.04-0.09-0.1-0.13-0.15-0.15l0.27,1.06h-0.16
		c0.08,0.28,0.13,0.57,0.14,0.87c-0.02,0.1-0.17,0.24-0.41,0.41c-0.53,0.33-1.09,0.63-1.66,0.89l-6.53,3.11l-1.86,0.94
		c-0.6,0.34-1.25,0.58-1.93,0.7c-0.17-0.16-0.31-0.35-0.41-0.55c-0.18-0.32-0.41-0.6-0.67-0.84l-0.41,0.14
		c0.51,0.89,0.87,1.52,1.04,1.88l0.82,1.57l1.76,3.23l0.65,1.35l3.18,6.65l3.16,6.65l0.17-0.07c0.12-0.07,0.14-0.34,0-0.82
		c-0.18-0.46-0.25-0.96-0.19-1.45c0.08-0.21,0.58-0.54,1.49-0.99l2.41-1.13l2.1-1.04l0.72-0.34l2.75-1.28l0.63-0.31l0.6-0.31
		c0.34-0.22,0.75-0.32,1.16-0.27c0.38,0.24,0.69,0.58,0.89,0.99c0.17,0.27,0.39,0.51,0.65,0.7h0.24l-0.01-0.02l-0.11-0.17
		C141.5,306.8,141.49,306.77,141.49,306.74z"/>
	<path class="st0" d="M138.97,326.68c0.06,0.09,0.1,0.19,0.15,0.28l-0.12-3.64c-0.03,0.1-0.06,0.21-0.09,0.32L138.97,326.68z"/>
	<path class="st0" d="M140.4,318.21c0.09-0.53,0.09-1.08,0-1.61c-0.16-0.54-0.43-1.04-0.8-1.47c0.58,0.38,1.26,0.59,1.95,0.6
		c0.75-0.04,1.5-0.13,2.24-0.27c1.01-0.22,2.05-0.31,3.08-0.27c0.23,0.04,0.45,0.14,0.63,0.29c0.14,0.1,0.14,0.29,0,0.58
		c-0.32,0.45-0.32,1.05,0,1.49c0.18,0.26,0.48,0.41,0.8,0.39c0.29,0,0.56-0.1,0.8-0.27c0.27-0.22,0.42-0.55,0.43-0.89
		c0.03-0.4-0.1-0.8-0.36-1.11c-0.29-0.35-0.69-0.61-1.13-0.72c-0.51-0.14-1.04-0.22-1.57-0.22c-1.14,0.08-2.28,0.23-3.4,0.46
		c-0.72,0.13-1.45,0.13-2.17,0c-0.82-0.24-1.59-0.66-2.24-1.23l0.01,0.3l0.04,1.1c0.1,0.28,0.18,0.57,0.22,0.87
		c-0.02,0.44-0.07,0.88-0.14,1.32l0.2,5.77c0.02-0.05,0.03-0.1,0.04-0.15C139.59,321.54,140.04,319.89,140.4,318.21z"/>
	<path class="st0" d="M153,335.22c0.84-0.74,1.35-1.79,1.4-2.92c-0.26-1.58-1.13-3-2.41-3.95c-0.76-0.73-1.56-1.42-2.41-2.05
		l0.31-0.36l0.17-0.17l1.37-1.54c0.45-0.49,0.94-0.96,1.45-1.4c0.18-0.18,0.42-0.29,0.67-0.31c0.3,0.06,0.59,0.18,0.84,0.36
		l1.28,0.77l0.36-0.22l-0.17-0.07c-1.03-0.84-1.9-1.6-2.63-2.29l-1.57-1.57l-0.43-0.46l-0.53-0.51l-0.36-0.34
		c-0.08,0.08-0.13,0.18-0.14,0.29c0.31,0.52,0.66,1.01,1.06,1.47c0.36,0.31,0.36,0.55,0.36,0.72c-0.14,0.32-0.34,0.61-0.6,0.84
		l-0.43,0.43l-1.54,1.88l-3.54,3.71l-0.94,1.01c-0.48,0.51-0.98,0.99-1.52,1.45c-0.29,0.27-0.51,0.27-0.67,0.27
		c-0.53-0.24-1.04-0.53-1.52-0.87c-0.19,0-0.46,0-0.46,0l0.55,0.58l1.86,1.61l1.08,1.11l0.41,0.36l1.25,1.23
		c1.07,1.12,2.49,1.84,4.02,2.05C150.84,336.55,152.12,336.13,153,335.22z M148.91,335.07c-1.11,0-2.18-0.46-2.94-1.28
		c-0.48-0.4-0.85-0.93-1.06-1.52c-0.14-0.34-0.14-0.72,0-1.06c0.18-0.29,1.26-1.47,3.25-3.54l0.82-0.84c0,0,0,0,0,0l0.05-0.05
		l-0.05,0.05c0.65,0.52,1.27,1.07,1.85,1.66c0.82,0.72,1.36,1.71,1.52,2.79c0.11,1.02-0.27,2.02-1.01,2.72
		C150.7,334.66,149.83,335.04,148.91,335.07z"/>
	<path class="st0" d="M165.1,332.85l0.27-0.24l-2.41-2.17l-1.37-1.37l-1.54-1.54c-0.17,0.14-0.17,0.36-0.17,0.36
		c0.16,0.29,0.37,0.56,0.6,0.8c0.36,0.36,0.65,0.78,0.84,1.25c0.01,0.11,0.01,0.23,0,0.34c-0.34,0.43-0.65,0.8-0.94,1.08l-1.28,1.3
		l-3.76,3.95l-0.92,0.96c-0.62,0.74-1.35,1.4-2.14,1.95c-0.24,0.07-0.55-0.05-0.94-0.36c-0.3-0.21-0.59-0.43-0.87-0.67
		c-0.14-0.12-0.31-0.21-0.48-0.27l-0.05-0.05l-0.22,0.27l0.14,0.14l2,1.93l1.18,1.11l0.72,0.75l1.16,1.08
		c0.09-0.09,0.16-0.18,0.22-0.29c0.02-0.12-0.12-0.36-0.48-0.72c-0.25-0.25-0.45-0.55-0.6-0.87c-0.12-0.23-0.12-0.51,0-0.75
		c0.47-0.63,1-1.22,1.57-1.76l0.43-0.43l0.36-0.36l4.82-5.13c1.08-1.03,1.73-1.54,1.95-1.54c0.45,0.21,0.87,0.47,1.25,0.8
		L165.1,332.85z"/>
	<path class="st0" d="M126.33,266.05l0.1,0.29h0.22c0.01-0.08,0.01-0.16,0-0.24c0-0.14-0.12-0.36-0.36-0.36l-0.82-0.34
		c-0.08-0.06-0.14-0.16-0.14-0.27c0-0.12,0-0.46,0-0.99c0-0.12,0-0.29,0-0.29l-0.17-1.81v-0.96l-0.24-3.28l-0.17-2.77v-0.63
		c-0.03-0.13-0.03-0.26,0-0.39c0.12-0.15,0.27-0.27,0.43-0.36c0.32-0.19,0.48-0.36,0.48-0.51c0.03-0.06,0.03-0.13,0-0.19
		c-0.15-0.04-0.31-0.04-0.46,0l-1.81-0.36l-0.12,0.14l-1.25-0.19l-0.87-0.12h-0.12c0.02,0.19,0.24,0.41,0.65,0.63
		c0.84,0.43,1.59,1.02,2.22,1.73c0.25,0.65,0.37,1.35,0.36,2.05c0.03,0.63,0.03,1.27,0,1.9l-3.13,0.22h-0.94l-4.36,0.36h-2
		c-0.67,0.05-1.35,0.05-2.02,0c-0.08,0-0.16-0.02-0.24-0.05c-0.2-0.26-0.35-0.55-0.43-0.87c-0.13-0.37-0.25-0.75-0.34-1.13
		c-0.01-0.15-0.06-0.3-0.14-0.43c-0.12-0.04-0.24-0.04-0.36,0v0.17c-0.01,0.22-0.01,0.43,0,0.65l0.14,1.25l0.19,1.71
		c0,0.46,0,1.16,0,2.07v1.66h0.43c0.02-0.12,0.02-0.24,0-0.36c0.02-0.24,0.09-0.73,0.22-1.47c0.02-0.29,0.12-0.56,0.29-0.8
		c0.05-0.35,0.28-0.64,0.6-0.77h0.87l1.57-0.12h1.64l7.23-0.6h0.87c0.13,0.42,0.19,1.08,0.19,1.98c0.07,0.7,0.07,1.42,0,2.12
		c-0.05,0.27-0.19,0.51-0.39,0.7c-0.44,0.33-0.94,0.57-1.47,0.7c-0.19,0.05-0.36,0.12-0.53,0.22c-0.02,0.05-0.02,0.11,0,0.17
		c-0.02,0.07-0.02,0.15,0,0.22h0.24h2.41h0.99h0.26c0-0.04,0-0.08,0.01-0.12C126.12,266.13,126.22,266.07,126.33,266.05z"/>
	<path class="st0" d="M138.55,325.17c0.07-0.52,0.2-1.03,0.35-1.54l-0.14-5.89c-0.12,0.71-0.3,1.42-0.55,2.1
		c-0.53,1.78-1.04,3.32-1.54,4.63c0.31,0.27,0.6,0.57,0.87,0.89l0.55,0.77c0.34,0.51,0.65,0.94,0.89,1.25l-0.02-0.71
		c-0.01-0.02-0.02-0.04-0.03-0.06C138.65,326.19,138.52,325.68,138.55,325.17z"/>
	<path class="st0" d="M138.72,315.36c0-0.01-0.01-0.03-0.01-0.04l0.06,2.42c0.01-0.07,0.02-0.13,0.03-0.2L138.72,315.36z"/>
	<path class="st0" d="M247.16,362.56c-0.91-0.42-1.91-0.63-2.92-0.63c-0.7,0-1.3,0-1.83,0h-2h-1.76h-1.33h-0.34l0.02,0.07
		c-0.02,0.07-0.02,0.15,0,0.22c-0.02,0.07-0.02,0.15,0,0.22c0.76,0.06,1.49,0.3,2.14,0.7c0.22,0.17,0.22,0.53,0.22,1.08v0.19
		c0,1.46,0,2.9,0,4.31c0,3.02,0,5,0,5.93c0,0.29,0,0.43,0,0.67c0,0.24,0,0.46,0,0.46c0.02,0.23-0.03,0.45-0.14,0.65
		c-0.13,0.1-0.29,0.17-0.46,0.19l-1.54,0.24v0.31h0.67h1.23h2.07c0.53,0.03,1.06,0.09,1.59,0.17h0.65c0.1,0.03,0.21,0.03,0.31,0
		c0.06-0.06,0.11-0.13,0.12-0.22c-0.03-0.07-0.09-0.13-0.17-0.17l-0.7-0.19l-1.64-0.43c-0.04-0.29-0.04-0.58,0-0.87
		c0-0.17,0-0.34,0-0.55c0-0.22,0-0.43,0-0.43v-6.05c0-0.39,0-1.4,0-2.99c0-0.46,0-0.77,0-0.99v-1.73c0.56-0.18,1.15-0.23,1.73-0.14
		c0.45,0.03,0.89,0.11,1.33,0.24c0.45,0.1,0.87,0.28,1.25,0.53c0.49,0.38,0.88,0.86,1.13,1.42c0.27,0.56,0.41,1.18,0.39,1.81
		c-0.02,0.62-0.18,1.23-0.48,1.78c-0.29,0.54-0.75,0.98-1.3,1.25c-0.55,0.29-1.16,0.43-1.78,0.41c-0.34,0-0.69-0.06-1.01-0.17
		c-0.11-0.02-0.23-0.02-0.34,0c-0.05-0.01-0.1-0.01-0.14,0c0.05,0.14,0.14,0.26,0.27,0.34c0.55,0.45,1.24,0.69,1.95,0.67
		c1.3,0.11,2.59-0.34,3.54-1.23c0.86-0.82,1.37-1.94,1.4-3.13c0.01-0.78-0.16-1.55-0.51-2.24
		C248.45,363.54,247.88,362.94,247.16,362.56z"/>
	<path class="st0" d="M331.26,352.56c-0.35,0.06-0.7,0.15-1.04,0.27c-0.3,0.16-0.65,0.23-0.99,0.22c-0.61-0.74-1.14-1.55-1.57-2.41
		l-0.92-1.47l-1.01-1.73l-1.06-1.76l-0.55-0.94l-1.13-1.88l-0.29-0.46c-0.18-0.24-0.29-0.52-0.31-0.82
		c0.02-0.12,0.22-0.31,0.53-0.55c0.3-0.2,0.57-0.46,0.8-0.75c-0.04-0.13-0.1-0.26-0.17-0.39c-0.89,0.63-1.49,1.04-1.78,1.2
		l-1.33,0.77l-1.37,0.72l-0.41,0.31c0.07,0.12,0.16,0.23,0.27,0.31l0.36-0.14l0.36-0.14c0.28-0.17,0.59-0.28,0.92-0.31
		c0.1,0.02,0.29,0.27,0.6,0.72l-0.05,0.05c-0.19,1.3-0.41,2.67-0.7,4.12l-0.6,3.23l-0.46,2.41l-0.53,3.37l-1.16-1.9l-1.01-1.71
		l-1.06-1.76l-0.55-0.94l-1.13-1.88l-0.29-0.46c-0.17-0.24-0.28-0.51-0.31-0.8c0-0.12,0.19-0.31,0.53-0.55
		c0.3-0.21,0.57-0.46,0.8-0.75c-0.05-0.14-0.11-0.26-0.19-0.39l-1.78,1.2l-1.33,0.77l-1.35,0.72l-0.41,0.31
		c0.06,0.12,0.14,0.22,0.24,0.31l0.36-0.14l0.36-0.14c0.25-0.13,0.52-0.24,0.8-0.31c0.07-0.02,0.15-0.02,0.22,0
		c0.18,0.19,0.34,0.4,0.46,0.63l1.4,2.14l2.26,3.45l0.72,1.18l0.65,1.01l0.24,0.43l0.22,0.39l0.87,1.45
		c0.31,0.48,0.14,0.96-0.48,1.45c-0.34,0.22-0.62,0.51-0.84,0.84v0.19l0.12,0.19c0.91-0.76,1.88-1.45,2.89-2.07
		c0.76-0.47,1.57-0.86,2.41-1.18h0.12c0.01-0.05,0.01-0.1,0-0.14c-0.06-0.12-0.18-0.18-0.31-0.17c-0.35,0.06-0.7,0.16-1.04,0.29
		c-0.25,0.11-0.51,0.19-0.77,0.24c-0.16-0.01-0.31-0.09-0.41-0.22c-0.26-0.28-0.49-0.6-0.67-0.94l0.19-1.57
		c0.12-1.04,0.27-2,0.43-2.84c0.17-0.84,0.39-1.57,0.39-2.14l1.25-6.65l4.34,7.08l0.24,0.46l0.22,0.39l0.87,1.45
		c0.29,0.5,0.13,0.98-0.48,1.45c-0.34,0.22-0.62,0.51-0.84,0.84v0.19l0.14,0.19c0.91-0.76,1.88-1.45,2.89-2.07
		c0.77-0.46,1.57-0.85,2.41-1.16h0.14c0.01-0.05,0.01-0.1,0-0.14C331.52,352.61,331.39,352.55,331.26,352.56z"/>
	<path class="st0" d="M362.05,323.1l-1.3,1.08c-0.27-0.11-0.52-0.25-0.75-0.43l-0.43-0.36l-0.34-0.29l-4.38-3.11l-0.53-0.39
		c-0.34-0.19-1.14-0.77-2.41-1.73l-0.77-0.6l-0.17-0.14l-1.08-0.77h-0.12c0.17-0.57,0.47-1.09,0.87-1.52
		c0.29-0.35,0.61-0.66,0.96-0.94c0.34-0.31,0.73-0.56,1.16-0.72c0.59-0.15,1.21-0.15,1.81,0c0.61,0.1,1.19,0.35,1.69,0.72
		c0.5,0.37,0.9,0.86,1.18,1.42c0.28,0.55,0.38,1.17,0.29,1.78c-0.08,0.61-0.32,1.2-0.7,1.69c-0.2,0.28-0.44,0.52-0.72,0.72
		c-0.1,0.05-0.19,0.13-0.27,0.22c-0.02,0.05-0.02,0.11,0,0.17c0.13,0.05,0.28,0.05,0.41,0c0.68-0.19,1.27-0.62,1.66-1.2
		c0.83-1,1.21-2.3,1.04-3.59c-0.17-1.17-0.8-2.23-1.76-2.94c-0.63-0.46-1.37-0.76-2.14-0.87c-0.82-0.16-1.67-0.03-2.41,0.36
		c-0.87,0.51-1.62,1.2-2.19,2.02c-0.42,0.56-0.76,1.07-1.04,1.52l-1.11,1.66l-0.63,0.92l-0.41,0.53l-0.84,1.01l-0.14,0.24
		c0.01,0.01,0.01,0.02,0.02,0.03h0.22c0.49-0.59,1.11-1.05,1.81-1.35c0.22-0.05,0.55,0.1,1.01,0.43l0.17,0.12l3.47,2.55
		c2.47,1.75,4.08,2.91,4.82,3.47l0.53,0.41l0.36,0.29c0.19,0.12,0.34,0.28,0.43,0.48c0.04,0.16,0.04,0.32,0,0.48l-0.67,1.4
		l0.24,0.17l0.39-0.55l0.77-0.96l1.18-1.69c0.32-0.42,0.67-0.82,1.04-1.2l0.43-0.48c0.07-0.07,0.12-0.17,0.14-0.27
		c0.02-0.08,0.02-0.16,0-0.24c-0.07-0.02-0.15-0.02-0.22,0L362.05,323.1z"/>
	<path class="st0" d="M298.81,369.21v-0.24c0.03-0.04,0.07-0.07,0.1-0.11l-0.25,0.11L298.81,369.21z"/>
	<path class="st0" d="M314.18,361.98c-0.3-0.04-0.6-0.04-0.89,0l-0.96,0.17c-0.12,0-0.23-0.04-0.31-0.12
		c-0.25-0.29-0.44-0.63-0.58-0.99l-0.6-1.47l-0.75-1.64l-0.72-1.78l-0.82-1.88l-0.41-1.01l-0.34-0.77l-0.53-1.25l-0.22-0.51v-0.24
		c-0.11-0.22-0.11-0.48,0-0.7c0.16-0.16,0.35-0.29,0.55-0.39c0.33-0.16,0.63-0.37,0.89-0.63c0.01-0.14,0.01-0.27,0-0.41
		c-0.96,0.48-1.64,0.84-2.07,1.01l-2,0.8l-0.75,0.27l-0.43,0.27c0.05,0.12,0.13,0.24,0.22,0.34h0.36l1.2-0.31
		c0.11,0.02,0.21,0.09,0.27,0.19c0.35,0.64,0.66,1.3,0.92,1.98c0.51,1.19,1.01,2.42,1.49,3.69l-0.6,0.31l-2.72,1.25l-1.06,0.41
		l-1.59,0.7l-0.43,0.17c-0.47,0.19-0.95,0.35-1.45,0.48l-0.48-1.01c-0.56-1.22-1.09-2.42-1.59-3.59c-0.26-0.64-0.34-1.08-0.24-1.3
		c0.42-0.46,0.94-0.83,1.52-1.06c0.06-0.03,0.1-0.08,0.12-0.14c0.02-0.06,0.02-0.13,0-0.19v-0.17l-1.76,0.84
		c-0.79,0.4-1.54,0.75-2.26,1.06l-1.04,0.43l-0.39,0.19v0.22c0.04,0.07,0.09,0.12,0.14,0.17l0.72-0.22
		c0.26-0.11,0.54-0.18,0.82-0.22c0.11,0.01,0.2,0.06,0.27,0.14c0.2,0.34,0.37,0.69,0.51,1.06l0.46,1.16
		c0.21,0.56,0.41,1.08,0.6,1.54l1.25,2.96l0.34,0.89l0.55,1.4l0.41,0.87l0.31,0.77l0.36,0.82c0.1,0.25,0.15,0.52,0.14,0.8
		c-0.01,0.15-0.07,0.3-0.17,0.41c-0.27,0.24-0.57,0.44-0.89,0.6c-0.25,0.13-0.46,0.31-0.64,0.52l0.26-0.11l2.19-1.01l0.96-0.36
		l1.4-0.51l0.48-0.19h0.22c0.07-0.03,0.13-0.08,0.17-0.14h-0.84c-0.31,0.07-0.62,0.11-0.94,0.12c-0.14-0.03-0.26-0.12-0.34-0.24
		c-0.37-0.61-0.68-1.26-0.94-1.93l-0.27-0.63l-0.82-2.07l-0.34-0.75c-0.05-0.13-0.05-0.28,0-0.41c0.06-0.11,0.17-0.2,0.29-0.24
		l0.55-0.24l0.63-0.29l1.54-0.63l1.11-0.43l0.77-0.36c0.92-0.5,1.88-0.93,2.87-1.28c0.08,0.01,0.16,0.07,0.19,0.14l1.18,2.67
		l0.29,0.77l0.67,1.57c0.09,0.21,0.09,0.44,0,0.65c-0.15,0.3-0.39,0.55-0.7,0.7c-0.36,0.18-0.68,0.42-0.94,0.72v0.22v0.19l1.69-0.99
		l1.42-0.65c0.83-0.36,1.69-0.64,2.58-0.84h0.14v-0.14C314.36,362.08,314.28,362.01,314.18,361.98z"/>
	<path class="st0" d="M342.39,339.94h-0.17v0.12c0.14,0.55,0.19,1.12,0.17,1.69c-0.02,0.49-0.12,0.96-0.29,1.42
		c-0.19,0.47-0.44,0.92-0.75,1.33c-0.27,0.34-0.56,0.66-0.87,0.96l-0.43,0.34c-0.75,0.57-1.62,0.96-2.55,1.11
		c-1.06,0.16-2.15-0.03-3.08-0.55c-1.24-0.7-2.32-1.66-3.16-2.82c-0.54-0.69-0.99-1.44-1.35-2.24c-0.32-0.71-0.53-1.47-0.63-2.24
		c-0.16-1.4,0.18-2.81,0.96-3.98c0.29-0.4,0.64-0.76,1.04-1.06c0.72-0.66,1.61-1.09,2.58-1.23c0.91-0.07,1.82,0.17,2.58,0.67h0.17
		l0.17-0.19l-0.31-0.41c-0.38-0.49-0.8-0.95-1.25-1.37l-0.02-0.14c-0.57,0.04-1.12,0.17-1.64,0.41c-0.77,0.3-1.49,0.72-2.14,1.23
		c-0.74,0.56-1.43,1.19-2.05,1.88c-0.59,0.71-1.04,1.53-1.33,2.41c-0.28,0.88-0.4,1.8-0.36,2.72c0.02,0.87,0.17,1.73,0.43,2.55
		c0.29,0.87,0.73,1.69,1.3,2.41c0.61,0.8,1.36,1.47,2.22,2c0.73,0.47,1.55,0.79,2.41,0.94c0.8,0.15,1.61,0.15,2.41,0
		c0.71-0.14,1.4-0.35,2.07-0.63c0.86-0.4,1.67-0.91,2.41-1.52c0.96-0.71,1.8-1.56,2.51-2.53l0.29-0.41
		c-0.18-0.47-0.55-1.33-1.11-2.58L342.39,339.94z"/>
	<path class="st0" d="M346.47,319.56L346.47,319.56c-0.05-0.05-0.09-0.1-0.12-0.17L346.47,319.56z"/>
	<path class="st0" d="M353.5,333.14l-1.28,0.77c-0.23,0.17-0.51,0.27-0.8,0.29c-0.2-0.05-0.38-0.16-0.51-0.31l-0.6-0.63l-1.08-1.11
		l-1.11-1.23l-5.13-5.18l-0.58-0.63c0.29-0.32,0.75-0.8,1.4-1.42c0.49-0.51,1.03-0.97,1.61-1.37c0.24-0.14,0.52-0.2,0.8-0.17
		c0.53,0.12,1.03,0.35,1.47,0.67c0.16,0.11,0.33,0.2,0.51,0.27c0.05,0.02,0.11,0.02,0.17,0c0.02-0.07,0.02-0.15,0-0.22
		c-0.03-0.07-0.07-0.14-0.12-0.19l-1.59-1.73l-0.7-0.72l-0.31-0.34l-0.34-0.27l-0.19,0.12c0,0.1-0.29-0.02,0,0.51
		c0.29,0.53,0.29,0.84,0.29,0.84c0,0.11-0.04,0.21-0.12,0.29l-0.77,0.63l-0.22,0.19l-1.28,1.3l-0.7,0.67l-2.41,2.41l-2.02,1.9
		l-0.39,0.31c-0.1,0.09-0.23,0.14-0.36,0.17c-0.18,0.03-0.37,0.03-0.55,0c-0.36,0-0.7,0-0.7,0c-0.03,0.06-0.03,0.13,0,0.19
		c0.04,0.15,0.11,0.29,0.22,0.41l0.96,1.61l0.1-0.02c0.12,0.17,0.34,0.53,0.65,1.08c0.13,0.26,0.29,0.51,0.46,0.75h0.12
		c0-0.14,0-0.43,0-0.89c-0.15-0.85-0.15-1.73,0-2.58c0.34-0.61,0.79-1.15,1.33-1.59c0.45-0.44,0.93-0.86,1.42-1.25l2.19,2.26
		l0.48,0.36l3.06,3.11l1.4,1.45c0.48,0.48,0.93,0.99,1.33,1.54c0.08,0.11,0.12,0.23,0.12,0.36c-0.07,0.32-0.2,0.62-0.39,0.89
		c-0.2,0.34-0.41,0.67-0.65,0.99c-0.11,0.11-0.19,0.24-0.24,0.39c0.02,0.12,0.08,0.23,0.17,0.31h0.17l0.48-0.43l0.87-0.92l1.18-1.25
		c0.36-0.31,0.87-0.77,1.54-1.4l1.23-1.13l-0.24-0.27C353.72,332.99,353.6,333.06,353.5,333.14z"/>
	<path class="st0" d="M296.23,369.43c-0.35-0.03-0.71-0.03-1.06,0c-0.33,0.09-0.68,0.09-1.01,0c-0.39-0.86-0.68-1.75-0.87-2.67
		l-0.48-1.66l-0.48-1.93l-0.53-1.98l-0.27-1.06l-0.58-2.12l-0.14-0.53c-0.08-0.28-0.08-0.58,0-0.87c0.18-0.19,0.42-0.32,0.67-0.39
		c0.35-0.11,0.67-0.27,0.96-0.48c0.02-0.14,0.02-0.29,0-0.43l-2.05,0.67l-1.49,0.39l-1.52,0.31l-0.48,0.19
		c0.03,0.13,0.09,0.25,0.17,0.36h0.39h0.39c0.32-0.07,0.65-0.07,0.96,0c0.16,0.23,0.26,0.49,0.33,0.76c0.05-0.11,0.1-0.22,0.15-0.33
		l-0.12,0.43c-0.01-0.04-0.02-0.07-0.03-0.11c-0.51,1.11-1.04,2.25-1.65,3.45l-1.47,2.92l-1.11,2.22l-1.42,3.08l-0.6-2.14
		l-0.51-1.93l-0.53-1.98l-0.27-1.06l-0.58-2.12l-0.14-0.53c-0.07-0.28-0.07-0.58,0-0.87c0.05-0.1,0.29-0.24,0.67-0.39
		c0.35-0.11,0.69-0.27,0.99-0.48c0.02-0.14,0.02-0.29,0-0.43l-2.05,0.67l-1.49,0.39l-1.52,0.31l-0.48,0.19
		c0.04,0.13,0.09,0.25,0.17,0.36h0.39h0.39c0.29-0.03,0.58-0.03,0.87,0c0.08,0.03,0.15,0.08,0.19,0.14
		c0.12,0.23,0.21,0.47,0.27,0.72c0.11,0.37,0.34,1.17,0.67,2.41l1.04,3.88l0.39,1.35l0.34,1.16v0.48v0.43l0.46,1.61
		c0.14,0.58-0.14,0.99-0.87,1.28c-0.38,0.12-0.73,0.32-1.04,0.58v0.22v0.22c1.09-0.48,2.2-0.89,3.35-1.2
		c0.87-0.23,1.75-0.39,2.65-0.46h0.31c0.01-0.05,0.01-0.1,0-0.14c-0.03-0.12-0.12-0.22-0.24-0.24c-0.35-0.03-0.71-0.03-1.06,0
		c-0.26,0.03-0.53,0.03-0.8,0c-0.1-0.02-0.31-0.12-0.31-0.31c-0.17-0.34-0.3-0.71-0.39-1.08l0.63-1.45c0.4-0.96,0.8-1.83,1.2-2.6
		c0.4-0.77,0.72-1.42,0.96-1.95l3.04-6.05l2.17,8v0.51v0.43l0.43,1.61c0.16,0.56-0.12,0.98-0.84,1.25
		c-0.38,0.12-0.73,0.32-1.04,0.58c-0.01,0.07-0.01,0.14,0,0.22v0.22c1.09-0.48,2.2-0.89,3.35-1.2c0.86-0.23,1.74-0.39,2.63-0.46
		h0.19c0.01-0.05,0.01-0.1,0-0.14C296.45,369.55,296.35,369.45,296.23,369.43z"/>
	<path class="st0" d="M275.3,374.56c-0.12-0.32-0.2-0.67-0.22-1.01l-0.19-1.47l-0.27-2.41c-0.4-2.75-0.67-4.71-0.82-5.88v-0.55
		v-0.53c-0.04-0.36-0.04-0.72,0-1.08c0.07-0.14,0.19-0.26,0.34-0.31c0.42-0.16,0.86-0.27,1.3-0.34c0.31-0.04,0.61-0.16,0.87-0.34
		c0.01-0.07,0.01-0.14,0-0.22v-0.19l-1.49,0.22l-2.12,0.22h-0.48l-0.39,0.12c-0.07,0.19-0.24,0.94-0.53,2.24
		c-0.07,0.34-0.17,0.72-0.29,1.18l-0.53,1.95c-0.04,0.16-0.09,0.31-0.14,0.46c-0.01,0.12-0.01,0.24,0,0.36
		c-0.48,2.04-1.08,4.05-1.81,6.02l-1.73-2.92l-4.19-6.91l-0.63-1.04l-0.19-0.19h-0.43h-0.63l-1.11,0.19c-0.53,0.04-1.06,0.04-1.59,0
		h-0.41h-0.29c0,0,0,0,0,0c-0.13,0.13-0.13,0.35,0,0.48c1.23,0,2.12,0,2.7,0v0.31c0.05,0.51,0.17,1.83,0.29,3.95
		c0.19,2.83,0.35,5.04,0.48,6.65c0.1,0.8,0.1,1.61,0,2.41c0.02,0.06,0.02,0.13,0,0.19c-0.27,0.13-0.57,0.22-0.87,0.24
		c-0.45,0.08-0.88,0.25-1.25,0.51l-0.24,0.12v0.31l1.33-0.22l1.23-0.22l3.66-0.31c0.01-0.07,0.01-0.14,0-0.22
		c0.01-0.08,0.01-0.16,0-0.24h-0.89c-0.51,0.11-1.03,0.11-1.54,0c-0.21-0.11-0.36-0.32-0.41-0.55c-0.21-0.79-0.37-1.6-0.48-2.41
		c-0.29-2.36-0.51-4.89-0.65-6.51c-0.14-1.61-0.14-2.6-0.14-2.94c0.59,0.8,1.67,2.48,3.23,5.04s2.93,5.06,4.12,7.52h0.27
		c0.05-0.19,0.17-0.46,0.17-0.77c0.16-0.67,0.36-1.48,0.6-2.41l0.58-2.02l0.43-1.66l1.23-4.31l0.12-0.46
		c0.27-0.96,0.55-1.59,0.55-1.88c0.14,0.65,0.24,1.28,0.43,2.84s0.24,2.72,0.39,3.42c0.14,0.7,0.14,1.18,0.14,1.45l0.34,2.41
		c0.06,0.61,0.06,1.22,0,1.83c-0.31,0.23-0.65,0.42-1.01,0.55c-0.36,0.07-0.71,0.19-1.04,0.36c-0.01,0.07-0.01,0.14,0,0.22v0.14
		h0.17h0.6c0.53-0.1,1.59-0.24,3.18-0.43h0.87l1.49-0.14h0.53c0-0.1,0-0.24,0-0.24c0.02-0.05,0.02-0.1,0-0.14
		c-0.71-0.01-1.42-0.07-2.12-0.19C275.61,374.78,275.43,374.7,275.3,374.56z"/>
	<path class="st0" d="M374.61,302.88l-0.36,0.34l-0.36,0.36c-0.16,0.22-0.36,0.42-0.58,0.58c-0.17,0.04-0.34,0.04-0.51,0l-1.73-0.19
		c-1.83-0.31-4.55-0.7-8.12-1.16c-3.57-0.46-5.42-0.63-5.42-0.63l-0.22,0.36l-0.14,0.31c0.51,0.53,1.24,1.33,2.19,2.41l1.45,1.66
		l2.22,2.41l1.04,1.2c1.41,1.54,2.36,2.62,2.84,3.23c0.37,0.39,0.62,0.87,0.75,1.4c-0.05,0.6-0.25,1.18-0.58,1.69
		c-0.03,0.1-0.03,0.21,0,0.31c0.07,0.08,0.15,0.14,0.24,0.19l0.39-0.63l0.14-0.29l0.48-0.99l0.41-0.72c0.42-0.71,0.78-1.34,1.08-1.9
		l0.36-0.72h-0.14c-0.07-0.03-0.15-0.03-0.22,0l-0.46,0.75c-0.23,0.41-0.5,0.79-0.82,1.13h-0.36c-0.16-0.11-0.29-0.24-0.41-0.39
		l-2.67-2.75l-0.96-1.06c-1.73-1.7-3.34-3.52-4.82-5.44l0.24-0.14l1.18,0.17c1.48,0.16,3.37,0.4,5.69,0.72l3.47,0.31l1.16,0.22
		c0.38,0.04,0.75,0.12,1.11,0.24l0.24,0.22c-0.05,0.35-0.17,0.68-0.34,0.99c-0.21,0.35-0.36,0.73-0.43,1.13
		c0.07,0.08,0.15,0.14,0.24,0.19c0.24-0.26,0.44-0.56,0.58-0.89l0.58-1.13l0.65-1.16l1.04-1.86l0.24-0.48h-0.14H374.61z"/>
	<path class="st0" d="M372.32,268.07c0-0.07,0-0.13,0-0.2l-0.19-0.06h-0.22h-0.22v0.48v0.48v0.19v0.17l-0.36,1.57l-0.22,0.8
		l-0.67,2.58l-0.27,1.2l-0.31,1.45l-0.53,1.93c-0.08,0.26-0.18,0.6-0.29,1.04c0.11,0.03,0.23,0.03,0.34,0l0.48-0.94l0.48-0.82
		c0.08-0.03,0.16-0.03,0.24,0c0.48,0.05,0.96,0.14,1.42,0.27l2.6,0.58l2.05,0.53l3.37,0.82l2.1,0.53c0.42,0.07,0.83,0.21,1.2,0.41
		c0.08,0.8,0.08,1.61,0,2.41h0.19h0.17l0.14-0.72l0.22-0.96c0.14-0.31,0.14-0.58,0.14-0.77v-0.24l0.14-0.53v-0.27v-0.31v-0.14v-0.24
		c0.12-0.46,0.24-0.84,0.24-0.84c0.1-0.25,0.18-0.51,0.24-0.77c0.14-0.6,0.29-1.04,0.29-1.3h-0.46c-0.09,0.21-0.16,0.43-0.22,0.65
		c-0.12,0.58-0.3,1.15-0.55,1.69c-0.12,0.14-0.48,0.14-1.06,0l-0.7-0.14l-0.67-0.14l-2.12-0.55l-0.7-0.17l-3.78-0.96l-3.35-0.8
		c-0.32-0.06-0.62-0.16-0.92-0.29c0-0.05,0-0.17,0-0.36v-0.24l0.89-3.71c0.11-0.56,0.28-1.11,0.51-1.64
		c0.27-0.23,0.59-0.39,0.94-0.48h0.36l0.92-0.19l0.82-0.14v-0.14c0-0.17,0.84-0.02,0-0.17c-0.56-0.1-1.24-0.24-2.02-0.43l-0.27-0.1
		c0,0.02,0,0.04,0,0.05C372.59,268.09,372.45,268.09,372.32,268.07z"/>
	<path class="st0" d="M382.51,285.61c-0.25,0.25-0.48,0.53-0.67,0.82c-0.31,0.48-0.53,0.77-0.67,0.77
		c-0.92-0.22-1.81-0.54-2.65-0.96l-1.61-0.65l-1.83-0.8l-1.88-0.8l-0.99-0.46l-2.02-0.84l-0.51-0.22c-0.46-0.17-0.75-0.34-0.75-0.46
		c-0.07-0.25-0.07-0.52,0-0.77c0.13-0.34,0.2-0.7,0.22-1.06l-0.36-0.22c-0.35,1.03-0.59,1.7-0.72,2.02
		c-0.32,0.79-0.53,1.26-0.63,1.42l-0.58,1.57c-0.06,0.17-0.11,0.33-0.14,0.51c0.13,0.02,0.26,0.02,0.39,0l0.19-0.31l0.19-0.31
		c0.27-0.48,0.55-0.77,0.55-0.77c0.32,0.02,0.63,0.1,0.92,0.24l0.14,0.05c0.61,1.16,1.23,2.4,1.86,3.73l1.4,2.96l1.06,2.24
		l1.57,3.04l-2.05-0.84l-1.83-0.8l-1.88-0.8l-0.99-0.46l-2.02-0.84l-0.51-0.22c-0.27-0.09-0.52-0.25-0.72-0.46
		c-0.17-0.12-0.12-0.36,0-0.77c0.13-0.35,0.2-0.71,0.22-1.08l-0.39-0.22c-0.35,1.03-0.59,1.7-0.72,2.02
		c-0.32,0.79-0.53,1.26-0.63,1.42l-0.67,1.37c-0.06,0.16-0.11,0.32-0.14,0.48c0.13,0.02,0.26,0.02,0.39,0l0.19-0.31l0.19-0.31
		c0.13-0.26,0.28-0.5,0.46-0.72c0.07-0.02,0.15-0.02,0.22,0c0.26,0.04,0.51,0.12,0.75,0.24l2.41,0.99l3.71,1.57l1.3,0.53l1.11,0.58
		l0.46,0.22l0.39,0.19l1.54,0.65c0.46,0.24,0.7,0.72,0.46,1.47c-0.14,0.38-0.21,0.78-0.19,1.18h0.19h0.22
		c0.29-1.15,0.66-2.28,1.11-3.37c0.34-0.84,0.76-1.65,1.25-2.41v-0.12c-0.1-0.07-0.23-0.07-0.34,0c-0.25,0.25-0.48,0.53-0.67,0.82
		c-0.14,0.23-0.3,0.45-0.48,0.65c-0.15,0.06-0.31,0.06-0.46,0c-0.38-0.07-0.74-0.2-1.08-0.36l-0.75-1.37
		c-0.51-0.92-0.96-1.78-1.33-2.55c-0.36-0.77-0.67-1.42-0.94-1.95l-2.89-6.12l7.54,3.18l0.46,0.22l0.41,0.19l1.54,0.65
		c0.48,0.22,0.7,0.7,0.48,1.45c-0.14,0.38-0.2,0.78-0.17,1.18h0.19h0.22c0.29-1.15,0.66-2.28,1.11-3.37
		c0.34-0.84,0.76-1.65,1.25-2.41v-0.12C382.76,285.53,382.62,285.53,382.51,285.61z"/>
	<path class="st0" d="M388.39,252c-0.12-0.02-0.25,0.04-0.31,0.14c-0.15,0.33-0.27,0.66-0.36,1.01c-0.04,0.34-0.18,0.67-0.39,0.94
		c-0.94,0.11-1.88,0.11-2.82,0h-1.73l-2-0.17l-2.05-0.12h-1.08l-2.19-0.14h-0.55c-0.29,0.02-0.59-0.05-0.84-0.19
		c-0.12-0.23-0.17-0.49-0.14-0.75c0.01-0.37-0.04-0.73-0.14-1.08h-0.41c0,1.09,0,1.81,0,2.14c-0.08,0.84-0.12,1.35-0.12,1.54
		l-0.19,1.54c-0.01,0.18-0.01,0.35,0,0.53h0.41c0.01-0.12,0.01-0.24,0-0.36v-0.36c0.02-0.32,0.11-0.63,0.27-0.92
		c0.31-0.06,0.63-0.06,0.94,0l0.12-0.34c0.96,0.9,1.96,1.88,2.99,2.94l2.29,2.41l1.73,1.78l2.41,2.41l-2.22-0.12l-2-0.14l-2.05-0.14
		h-1.08l-2.19-0.14h-0.48c-0.29,0.01-0.58-0.06-0.84-0.19c-0.14-0.1-0.14-0.34-0.14-0.77c0.01-0.37-0.04-0.73-0.14-1.08h-0.41
		c0,1.09,0,1.81,0,2.14c-0.08,0.84-0.12,1.35-0.12,1.54l-0.19,1.52c-0.01,0.1,0,0.2,0,0.31l0.24,0.08l0.17,0.07
		c0-0.1,0.01-0.2,0-0.31v-0.36c0.04-0.29,0.1-0.57,0.19-0.84c0.05-0.06,0.12-0.1,0.19-0.12c0.26-0.04,0.52-0.04,0.77,0l2.55,0.17
		l3.9,0.39h1.4h1.2h0.51h0.43h1.69c0.58,0.05,0.92,0.46,0.92,1.23c-0.01,0.4,0.07,0.81,0.22,1.18h0.41c-0.09-1.19-0.09-2.38,0-3.57
		c0.05-0.89,0.19-1.78,0.41-2.65v-0.14h-0.14c-0.12-0.02-0.25,0.04-0.31,0.14c-0.15,0.33-0.27,0.66-0.36,1.01
		c0.03,0.14,0.06,0.29,0.07,0.43c-0.11,0.12-0.25,0.18-0.41,0.19c-0.38,0.05-0.77,0.05-1.16,0l-1.16-1.06
		c-0.8-0.69-1.49-1.35-2.07-1.98c-0.58-0.63-1.08-1.14-1.52-1.54l-4.82-4.82l8.26,0.53h0.51h0.43h1.69
		c0.58,0.05,0.92,0.46,0.92,1.23c-0.01,0.4,0.06,0.81,0.22,1.18h0.22h0.24c-0.09-1.18-0.09-2.36,0-3.54
		c0.06-0.89,0.19-1.77,0.41-2.63c0-0.05,0-0.1,0-0.14H388.39z"/>
</g>
</svg>
