<?xml version="1.0" encoding="utf-8"?>
<!-- Generator: Adobe Illustrator 26.5.0, SVG Export Plug-In . SVG Version: 6.00 Build 0)  -->
<svg version="1.1" id="Layer_1" xmlns="http://www.w3.org/2000/svg" xmlns:xlink="http://www.w3.org/1999/xlink" x="0px" y="0px"
	 viewBox="0 0 500 500" style="enable-background:new 0 0 500 500;" xml:space="preserve">
<style type="text/css">
	.st0{fill:#131313;}
</style>
<g>
	<path class="st0" d="M249.99,100C167.14,100,100,167.16,100,250.01C100,332.84,167.14,400,249.99,400S400,332.84,400,250.01
		C400,167.16,332.84,100,249.99,100z M249.99,385C175.56,385,115,324.44,115,250.01C115,175.57,175.56,115,249.99,115
		C324.43,115,385,175.57,385,250.01C385,324.44,324.43,385,249.99,385z"/>
	<path class="st0" d="M249.99,138.02c-61.94,0-112.15,50.21-112.15,112.15c0,61.96,50.21,112.17,112.15,112.17
		c61.94,0,112.15-50.21,112.15-112.17C362.14,188.23,311.93,138.02,249.99,138.02z M143.63,231.87c0.94-5.5,2.31-10.86,4.05-16.04
		c-1.61,13.09,0.39,24.41,6.03,33.74c9.58,15.85,26.21,20.48,28.95,21.15c0.49,0.73,0.99,1.46,1.48,2.12
		c0.36,0.49,0.86,0.57,1.4,0.21c0.4-0.26,0.8-0.54,1.19-0.82l0.73-0.51c0.72,0.96,1.4,1.95,2.06,2.91c0.33,0.48,0.67,0.96,1,1.43
		c0.71,1,1.41,2.01,2.12,3.02l0.89,1.27l-0.66,0.37c-0.77,0.43-1.52,0.85-2.26,1.28c-0.67,0.38-1.33,0.76-2,1.16l-1.04,0.6
		l-0.22-0.1c-0.19-0.08-0.38-0.17-0.57-0.26l-15-7.16c-0.12-0.06-0.25-0.12-0.38-0.17c-0.43-0.19-0.84-0.14-1.14,0.13
		c-0.37,0.33-0.48,0.79-0.3,1.25c0.02,0.05,0.05,0.1,0.07,0.16l-1.36,0.95c-1.37-0.17-10.09-1.56-16.94-9.98
		C144.96,260.24,142.27,247.88,143.63,231.87z M184.68,269.96l1.03-0.72l0.54,0.77c-0.34,0.26-0.68,0.5-1.03,0.72L184.68,269.96z
		 M230.12,292.37c-0.27-0.04-0.53-0.04-0.84-0.04v-0.75c0-0.27,0.04-0.49,0.04-0.71c2.03-0.13,10.6-0.09,11.31,0.04v3.8
		c-1.33,0.53-2.61,1.1-3.84,1.63c-2.87,1.24-5.7,2.47-8.53,3.67c-1.02,0.44-1.55,1.19-1.55,2.3c0.04,0.49,0.04,0.93,0,1.41
		c0,0.18,0,0.4-0.04,0.62c-0.35,0-0.62,0-0.93,0.04c-0.62,0.04-1.06,0.49-1.1,1.06c-0.09,0.57,0.18,1.1,0.71,1.28
		c0.22,0.13,0.53,0.18,0.8,0.18h0c-4.81,6.1-10.26,9.54-16.21,10.18c-7.44,0.83-13.74-2.96-16.22-4.71l0.47-0.33
		c0.04,0.04,0.08,0.08,0.12,0.12c0.37,0.35,0.82,0.41,1.27,0.18c0.4-0.2,0.6-0.6,0.54-1.09c-0.02-0.19-0.04-0.37-0.05-0.56
		l-0.31-3.23c-0.43-4.49-0.87-8.99-1.32-13.48c-0.03-0.33,0.04-0.52,0.28-0.72c0.89-0.74,1.78-1.49,2.66-2.23
		c0.28-0.24,0.56-0.48,0.84-0.72c0.28-0.24,0.56-0.48,0.84-0.71c0.19-0.16,0.38-0.31,0.6-0.48l6.02,8.6l-1.52,1.06
		c-1.01,0.71-1.07,1.06-0.37,2.08l0.23,0.34c0.38,0.55,0.76,1.1,1.15,1.64c0.26,0.36,0.52,0.56,0.8,0.6
		c0.01,0.01,0.01,0.03,0.02,0.04c0.15,0.12,3.29,2.66,7.85,2.66c0.65,0,1.34-0.05,2.05-0.17c4.76-0.8,9.08-4.32,12.84-10.46
		c0.12-0.19,0.1-0.41,0.1-0.63h1.13c0.13,0,0.27,0,0.4-0.04c0.57-0.09,0.93-0.44,0.97-1.02
		C231.4,293.03,230.96,292.46,230.12,292.37z M234.27,288.22c2.16-0.88,4.2-1.77,6.36-2.7v2.65
		C240.06,288.35,236.04,288.39,234.27,288.22z M240.59,297.5v2.7h-6.01c0-0.04,0-0.04-0.04-0.09
		C236.53,299.26,238.52,298.38,240.59,297.5z M196.83,281.32c0.41,0.03,0.82,0.05,1.23,0.08c1,0.06,2.03,0.12,3.06,0.22l-1.21,4.17
		C199.04,284.63,197.45,282.32,196.83,281.32z M203.56,291.01l1.34,0.08l-0.38,1.3C204.2,291.92,203.89,291.48,203.56,291.01z
		 M206.87,299.46l0.53,0.75l-1.01,0.71l-0.53-0.75L206.87,299.46z M206.27,293.84c0.24-0.65,0.42-1.33,0.61-1.98
		c0.06-0.2,0.12-0.41,0.17-0.61l0.41,0.04c0.19,1.26,0.49,4.5,0.59,6.13c-0.02-0.03-0.05-0.07-0.07-0.1
		c-0.47-0.68-0.95-1.39-1.47-2.05C206.13,294.78,206.07,294.4,206.27,293.84z M207.32,276.18c-0.34-0.14-0.68-0.31-1.04-0.49
		c-0.05-0.02-0.09-0.04-0.14-0.07c0.65-0.45,1.81-1.12,2.47-1.41l1.98,2.83l-2.21,1.87c0-0.04-0.01-0.07-0.01-0.11
		c-0.05-0.45-0.1-0.88-0.12-1.32C208.23,276.86,207.92,276.43,207.32,276.18z M206.2,277.97l0.17,1.88l-2.51-0.16
		c0.24-0.85,0.48-1.66,0.73-2.48L206.2,277.97z M204.93,281.84l-2.24,1.91l0.57-2.01l0.38,0.02
		C204.05,281.78,204.48,281.81,204.93,281.84z M203.74,285.61c0.6-0.51,1.19-1.02,1.79-1.53c0.36-0.31,0.72-0.61,1.12-0.93
		l0.05-0.04c0,0.06,0.01,0.12,0.02,0.18c0.07,0.69,0.14,1.29-0.07,1.91c-0.3,0.9-0.56,1.79-0.82,2.74c-0.1,0.36-0.2,0.72-0.31,1.08
		h-0.04c-0.16,0-0.3-0.01-0.44-0.02l-0.52-0.03c-0.58-0.04-1.16-0.07-1.74-0.12l-0.26-0.02c-0.45-0.03-0.45-0.03-0.6-0.26
		c-0.06-0.09-0.14-0.21-0.28-0.4c-0.19-0.29-0.15-0.62,0.11-0.85c0.23-0.21,0.47-0.41,0.71-0.6L203.74,285.61z M201.72,279.55
		l-2.29-0.15l2.79-1.59L201.72,279.55z M201.46,275.84c-1.24,0.71-2.47,1.41-3.71,2.12l-0.37,0.21c-0.41,0.23-0.83,0.47-1.25,0.69
		c-0.84,0.43-0.88,0.41-1.36-0.4c-0.09-0.14-0.09-0.23-0.06-0.33c0.23-0.78,0.45-1.55,0.67-2.35l0.24-0.83h0.04
		c0.14,0,0.26,0,0.38,0.01c0.41,0.03,0.82,0.06,1.23,0.09c0.89,0.07,1.81,0.14,2.72,0.17c0.55,0.02,1,0.24,1.53,0.5
		c0.02,0.01,0.04,0.02,0.06,0.03C201.54,275.79,201.5,275.82,201.46,275.84z M198.41,287.37c-1.42,1.2-2.83,2.39-4.27,3.61
		c-0.01-0.13-0.03-0.25-0.04-0.37l-0.09-0.96c-0.07-0.7-0.14-1.39-0.19-2.09c-0.04-0.61-0.32-1.01-0.88-1.26
		c-0.95-0.43-1.88-0.88-2.82-1.34l-0.19-0.09c-0.02-0.01-0.04-0.02-0.05-0.03l4.84-2.76L198.41,287.37z M188.04,298.9l4.1-3.46
		l-1.07,3.66C190.28,299.11,188.87,299.03,188.04,298.9z M190.45,301.21c-0.1,0.41-0.22,0.82-0.36,1.26
		c-0.39-0.49-0.72-0.98-0.91-1.34L190.45,301.21z M170.03,301.07c0.95,0.06,1.93,0.12,2.91,0.21l-1.33,4.56l-3.43-4.89
		C168.81,301,169.42,301.03,170.03,301.07z M166.89,298.76l-0.1,0c-0.17-0.01-0.18-0.02-0.21-0.05c-0.38-0.54-0.76-1.09-1.15-1.64
		l-0.23-0.33l1.54-0.37c1.44-0.35,2.89-0.69,4.33-1.04c0.3-0.07,0.74-0.19,1.14-0.41c0.6-0.33,1.19-0.67,1.78-1.01
		c0.33-0.19,0.67-0.39,1.01-0.58c0.1-0.06,0.2-0.11,0.31-0.16c-0.22,0.75-0.43,1.48-0.64,2.21c-0.38,1.29-0.74,2.56-1.13,3.82
		L166.89,298.76z M172.4,310.69l0.89,1.27c-0.37,0.66-1.46,2.32-2.28,3.5L172.4,310.69z M173.23,308.23c-0.07-0.11-0.08-0.18,0-0.42
		c0.52-1.77,1.03-3.53,1.54-5.3l0.32-1.09l6.29,0.41c-0.24,0.21-0.49,0.41-0.74,0.62c-0.55,0.46-1.1,0.92-1.63,1.4
		c-0.44,0.39-0.81,0.8-1.11,1.22c-0.41,0.57-0.8,1.17-1.17,1.74l-2.18,3.29c-0.14-0.21-0.29-0.42-0.44-0.62
		C173.83,309.05,173.54,308.63,173.23,308.23z M180.32,299.67l-4.63-0.3c0.05-0.2,0.1-0.38,0.16-0.57l0.64-2.18
		c0.43-1.49,0.87-2.99,1.31-4.5c0.04-0.12,0.1-0.36,0.17-0.4c0.43-0.31,0.88-0.62,1.37-0.8l5.56,7.94
		c-0.05,0.04-0.11,0.08-0.16,0.12c-0.26,0.2-0.51,0.39-0.73,0.63v0c-0.21,0.23-0.42,0.29-0.76,0.27
		C182.28,299.79,181.3,299.73,180.32,299.67z M179.05,284.92c-0.13,0.42-0.25,0.82-0.37,1.23c-0.34-0.42-0.69-0.93-0.91-1.31
		L179.05,284.92z M176.52,282.66c-0.24-0.01-0.38-0.09-0.52-0.3c-0.47-0.69-0.94-1.37-1.42-2.05l-0.46-0.66l5.68,2.72l-0.14,0.49
		l-0.63-0.05C178.17,282.76,177.34,282.7,176.52,282.66z M182.4,291.43l4.29,0.28c-0.41,1.39-0.8,2.73-1.2,4.12L182.4,291.43z
		 M182.09,289.29l5.56-3.17l0.57,0.28l-0.94,3.21C186.28,289.61,183.47,289.44,182.09,289.29z M180.39,287.86l0.81-2.78l3.64,0.24
		L180.39,287.86z M188.82,291.86l3.31,0.22l0.06,0.57c-1.6,1.35-3.2,2.7-4.79,4.05L188.82,291.86z M189.42,289.79l0.72-2.48
		l0.31,0.14c0.43,0.2,0.85,0.39,1.24,0.6c0.02,0.01,0.05,0.06,0.06,0.08c0.06,0.52,0.11,1.05,0.16,1.61l0.02,0.23L189.42,289.79z
		 M191.71,304.81c-0.07-0.1-0.07-0.17-0.01-0.37c0.23-0.79,0.45-1.58,0.68-2.37l0.08-0.26l0.14-0.45l0.43,0.05l0.15,1.56
		c0.15,1.52,0.3,3.03,0.44,4.55l-0.24-0.33C192.83,306.39,192.28,305.59,191.71,304.81z M192.93,310.33l-1.02,0.71l-0.53-0.75
		l1.02-0.71L192.93,310.33z M194.09,272.75l-0.79-0.05c-0.85-0.06-1.68-0.11-2.52-0.16c-0.12-0.01-0.19-0.05-0.26-0.15
		c-0.56-0.8-1.12-1.6-1.68-2.4l-0.33-0.47l5.73,2.74L194.09,272.75z M193.49,274.81c-0.07,0.25-0.13,0.47-0.21,0.7
		c-0.03,0.11-0.06,0.21-0.09,0.32c-0.02,0.09-0.05,0.18-0.07,0.27c-0.39-0.49-0.74-1-0.94-1.37L193.49,274.81z M171.77,280.1
		l-1.02,0.71l-0.52-0.74l1.01-0.71L171.77,280.1z M153.01,297.52c-6.65-13.57-10.51-28.73-10.89-44.74
		c1.41,6.86,3.99,12.66,7.77,17.31c7.18,8.83,16.18,10.54,18.36,10.83c0.45,0.66,0.91,1.32,1.38,1.97c0.42,0.58,0.89,0.65,1.5,0.27
		c0.36-0.23,0.7-0.48,1.05-0.73l0.81-0.57l5.11,7.29l-0.58,0.34c-0.55,0.33-1.11,0.65-1.66,0.97c-0.31,0.18-0.62,0.35-0.94,0.52
		c-0.29,0.16-0.58,0.32-0.87,0.48c-0.36,0.21-0.73,0.42-1.09,0.63c-0.54,0.31-1.08,0.63-1.63,0.93c-0.18,0.1-0.41,0.16-0.62,0.2
		c-4.62,1.13-9.24,2.25-13.87,3.37c-1.26,0.3-2.51,0.6-3.77,0.9L153.01,297.52z M163.91,298.56l-4.98-0.33
		c1.34-0.33,2.7-0.65,4.07-0.97L163.91,298.56z M167.57,319.78c-5.12-6.05-9.57-12.67-13.28-19.75c1.49,0.1,2.99,0.19,4.48,0.29
		c2.09,0.14,4.18,0.27,6.27,0.41c0.33,0.02,0.52,0.12,0.7,0.39c1.74,2.53,3.32,4.79,4.84,6.9c0.23,0.32,0.26,0.56,0.14,0.97
		c-0.46,1.55-0.91,3.1-1.36,4.65l-0.57,1.96C168.38,316.98,167.97,318.38,167.57,319.78z M227.03,354.18c0,0-0.27,0.66-0.48,1.36
		c-22.52-5.01-42.41-17.06-57.22-33.73c0.35-0.53,0.7-1.06,1.05-1.59l1.3-1.97c2.62-3.96,5.23-7.92,7.85-11.88
		c0.26-0.4,0.6-0.76,1.07-1.15c0.61-0.5,1.21-1.01,1.8-1.52c0.32-0.27,0.63-0.54,0.95-0.81c0.9-0.76,1.8-1.53,2.71-2.29
		c0,0,0-0.01,0.01-0.01c0.84,1.04,4.35,6.02,5.13,7.27l-0.93,0.64c-0.31,0.21-0.61,0.42-0.91,0.64c-0.71,0.53-0.55,1.11-0.28,1.5
		c0.54,0.8,1.12,1.64,1.73,2.47c0.03,0.04,0.08,0.04,0.11,0.07c0.04,0.04,0.03,0.11,0.07,0.14c0.32,0.27,7.38,6.27,16.83,6.27
		c0.76,0,1.55-0.04,2.34-0.12c6.89-0.74,13.11-4.72,18.48-11.85c0.16-0.22,0.19-0.47,0.19-0.72h1.41c0.71-0.13,1.1-0.66,1.06-1.37
		c-0.04-0.71-0.44-1.1-1.19-1.15c-0.27-0.04-0.53-0.04-0.8-0.04v-1.55c1.9,0,3.76-0.04,5.61,0c1.9,0,3.8-0.09,5.7,0.04
		c0,0.8,0,1.55,0.04,2.25c0.09,1.55-0.22,3.05-0.66,4.51c-2.3,7.86-4.6,15.69-6.85,23.55c-1.55,5.26-3.05,10.47-4.59,15.73
		C228.09,350.6,227.56,352.37,227.03,354.18z M246.16,336.82c-4.29,1.55-8.44,3.05-12.55,4.51l-0.13-0.13
		c0.75-2.65,1.55-5.3,2.34-8.04C239.27,334.39,242.63,335.58,246.16,336.82z M237.15,329.09c0-0.62,1.81-7.07,2.34-8.26H255
		c0.04,0.04,0.04,0.04,0.04,0.09c0,0,0,0.04-0.04,0.04c-5.83,2.7-11.71,5.35-17.54,8C237.37,329,237.23,329.04,237.15,329.09z
		 M250.36,335.32c-0.22,0.04-0.57,0.13-0.8,0.04c-2.34-0.84-4.64-1.68-6.98-2.52c0,0,0-0.04,0-0.09h14.62c0,0.04,0,0.04,0.04,0.09
		c-1.19,0.44-2.39,0.84-3.58,1.28C252.57,334.52,251.46,334.92,250.36,335.32z M250.49,338.41c3.31,1.19,6.67,2.39,10.03,3.58
		c0,0.04,0,0.09,0,0.09l-0.04,0.04c-6.98,0-13.92,0.04-20.85,0.04c-0.09,0-0.22-0.04-0.31-0.04v-0.13
		c3.36-1.19,6.72-2.39,10.03-3.58C249.74,338.23,250.09,338.23,250.49,338.41z M245.45,348.92c-5.26,1.55-10.29,3.05-15.42,4.6
		c0-0.18-0.04-0.35,0-0.49c0.71-2.43,1.41-4.86,2.12-7.29c0.04-0.22,0.13-0.4,0.22-0.71C236.7,346.32,240.99,347.6,245.45,348.92z
		 M241.3,345.04c-0.13-0.04-0.27-0.09-0.4-0.13c0-0.04,0.04-0.09,0.04-0.09h18.03c0,0,0.04,0.04,0.04,0.09
		c-0.88,0.27-1.77,0.53-2.61,0.75c-1.94,0.62-3.89,1.19-5.83,1.77c-0.35,0.09-0.71,0.18-1.06,0.09
		C246.78,346.67,244.04,345.83,241.3,345.04z M267.41,345.08c0.57,1.37,0.88,2.78,1.28,4.2c0.44,1.37,0.8,2.74,1.28,4.29
		c-5.26-1.59-10.34-3.09-15.55-4.64C258.84,347.6,263.08,346.36,267.41,345.08z M266.31,341.37c-4.24-1.5-8.35-3-12.64-4.55
		c3.49-1.24,6.85-2.43,10.21-3.67c0.09,0.18,0.22,0.31,0.27,0.44c0.75,2.47,1.46,4.95,2.16,7.42
		C266.35,341.06,266.31,341.15,266.31,341.37z M240.95,330.15c6.63-2.96,13.08-5.92,19.62-8.88c0.88,3,1.72,5.92,2.56,8.88H240.95z
		 M256.59,306.24h-10.43c3.53-2.7,6.94-5.35,10.34-7.95C256.68,298.86,256.72,304.79,256.59,306.24z M256.9,308.81
		c0.75,2.56,1.5,5.13,2.34,7.86c-4.33-2.65-8.48-5.21-12.64-7.73c0-0.04,0.04-0.09,0.04-0.13H256.9z M256.59,292.77
		c-0.04,0-0.04,0.04-0.04,0.04c-0.04,0-0.09,0-0.09,0c-3.45-2.56-6.85-5.08-10.29-7.64c-0.09-0.09-0.18-0.13-0.27-0.18
		c0-0.04,0.04-0.09,0.09-0.13h10.6V292.77z M244.26,282.25c1.81-2.87,3.62-5.7,5.39-8.53c0.49,0.4,5.21,7.42,5.79,8.53H244.26z
		 M253.89,294.09c-0.62,0.18-9.63,0.22-10.65,0.04v-8C246.82,288.84,250.31,291.44,253.89,294.09z M254.11,296.92
		c-3.62,2.78-7.16,5.48-10.65,8.13c-0.13,0-0.18,0-0.18-0.04c-0.04,0-0.04-0.04-0.04-0.04c-0.04-0.27-0.04-0.49-0.04-0.75v-7.25
		C243.86,296.79,253.01,296.79,254.11,296.92z M256.54,318.04c0,0.04,0,0.09-0.04,0.13h-16.3c0.8-2.92,1.63-5.74,2.52-8.66
		C247.4,312.38,251.99,315.21,256.54,318.04z M249.99,358.13c-6.92,0-13.67-0.68-20.23-1.93c3.34-0.73,7.21-2.02,7.21-2.11
		c4.29-1.24,8.35-2.47,12.46-3.67c0.31-0.09,0.62-0.13,0.88-0.04c4.15,1.19,8.26,2.43,12.46,3.67c0,0.06,4.09,1.39,7.54,2.14
		C263.73,357.45,256.94,358.13,249.99,358.13z M273.45,355.54c-0.32-0.79-0.74-1.61-0.74-1.66c-2.21-7.56-4.42-15.15-6.63-22.75
		c-2.25-7.69-4.51-15.42-6.76-23.15c-0.09-0.31-0.13-0.71-0.13-1.06c-0.04-1.15-0.04-2.34-0.04-3.53c0.04-0.18,0.09-0.35,0.09-0.53
		c0.93-0.13,10.65-0.09,11.22,0.04v1.5h-0.88c-0.62,0.04-0.97,0.4-1.06,0.97c-0.09,0.66,0.13,1.15,0.66,1.41
		c0.22,0.09,0.49,0.13,0.75,0.13h1.05c0,0.25,0.03,0.51,0.19,0.72c5.38,7.13,11.6,11.11,18.48,11.85c0.8,0.08,1.58,0.12,2.34,0.12
		c9.4,0,16.43-5.92,16.82-6.25c0.15-0.08,0.32-0.13,0.44-0.3c0.64-0.88,1.2-1.69,1.73-2.47c0.26-0.39,0.43-0.97-0.28-1.5
		c-0.3-0.22-0.6-0.44-0.91-0.65l-0.92-0.64c0.79-1.25,4.3-6.24,5.13-7.28c0,0,0.01,0.01,0.02,0.01c0.9,0.76,1.8,1.52,2.7,2.29
		l0.89,0.76c0.62,0.53,1.23,1.06,1.86,1.57c0.47,0.39,0.81,0.75,1.07,1.15c1.72,2.6,3.43,5.19,5.14,7.79l4.01,6.07
		c0.35,0.52,0.69,1.06,1.04,1.58C315.91,338.44,296,350.52,273.45,355.54z M270.55,290.91c0,0.49,0.04,0.93-0.09,1.46
		c-0.22,0-0.4-0.04-0.57,0c-0.22,0-0.49,0.04-0.66,0.13c-0.57,0.22-0.8,0.71-0.71,1.37c0.09,0.57,0.44,0.97,1.06,0.97
		c0.47,0.01,0.95,0.01,1.42,0.01c-0.01,0.22-0.02,0.45,0.1,0.66c3.76,6.14,8.09,9.66,12.84,10.46c0.71,0.12,1.39,0.17,2.05,0.17
		c4.56,0,7.7-2.53,7.85-2.66c0.05-0.04,0.05-0.12,0.09-0.17c0.35,0.01,0.67-0.12,0.98-0.55c0.3-0.42,0.59-0.84,0.88-1.26l0.5-0.72
		c0.7-1.01,0.64-1.36-0.37-2.08l-1.53-1.07l6.02-8.6l0.05,0.04c0.19,0.15,0.37,0.29,0.55,0.44c0.31,0.26,0.62,0.53,0.93,0.79
		l0.74,0.64c0.88,0.75,1.77,1.49,2.67,2.23c0.24,0.2,0.31,0.39,0.28,0.72c-0.45,4.53-0.89,9.06-1.33,13.59l-0.3,3.12
		c-0.01,0.19-0.03,0.37-0.05,0.56c-0.06,0.49,0.13,0.88,0.54,1.09c0.44,0.22,0.9,0.17,1.27-0.18c0.04-0.04,0.08-0.07,0.12-0.12
		l0.39,0.28c-2.32,1.68-8.71,5.67-16.39,4.83c-5.95-0.64-11.4-4.09-16.21-10.18h0.37c0.71-0.09,1.19-0.62,1.15-1.28
		c0-0.71-0.49-1.19-1.19-1.24c-0.27-0.04-0.57-0.04-0.93-0.04v-2.39c-0.04-0.75-0.4-1.28-1.02-1.68c-0.18-0.13-0.44-0.22-0.66-0.31
		c-3.18-1.37-6.32-2.74-9.5-4.11c-0.88-0.4-1.77-0.8-2.7-1.15v-3.8C260.03,290.78,269.84,290.78,270.55,290.91z M259.19,288.26
		v-2.74c2.12,0.88,4.15,1.77,6.23,2.65c0,0.04,0,0.04-0.04,0.09H259.19z M306.77,272.63l-0.79,0.05l-0.15-0.5l5.73-2.74l-0.33,0.47
		c-0.56,0.8-1.12,1.6-1.68,2.4c-0.07,0.11-0.14,0.14-0.26,0.15C308.45,272.51,307.62,272.57,306.77,272.63z M307.88,274.65
		c-0.2,0.37-0.54,0.88-0.94,1.37c-0.03-0.08-0.05-0.18-0.07-0.27c-0.02-0.11-0.05-0.22-0.09-0.32c-0.07-0.22-0.14-0.45-0.21-0.7
		L307.88,274.65z M310.2,284.78c-0.02,0.01-0.04,0.02-0.05,0.03l-0.45,0.22c-0.85,0.41-1.7,0.82-2.55,1.21
		c-0.56,0.26-0.84,0.66-0.88,1.27c-0.05,0.75-0.13,1.49-0.21,2.24l-0.08,0.81c-0.01,0.12-0.02,0.24-0.04,0.37l-4.27-3.61l3.7-5.28
		L310.2,284.78z M321.05,282.75l-0.63,0.05l-0.14-0.49l5.68-2.72l-0.52,0.74c-0.46,0.65-0.92,1.3-1.37,1.97
		c-0.14,0.21-0.27,0.29-0.52,0.3C322.72,282.63,321.89,282.69,321.05,282.75z M322.29,284.77c-0.22,0.38-0.57,0.9-0.9,1.31
		l-0.37-1.23L322.29,284.77z M320.72,290.84c0.5,0.18,0.96,0.51,1.37,0.8c0.06,0.05,0.14,0.28,0.17,0.42
		c0.36,1.18,0.69,2.36,1.04,3.54l0.27,0.95c0.19,0.64,0.38,1.29,0.57,1.93l0.07,0.25c0.06,0.19,0.11,0.37,0.16,0.57l-4.67,0.31
		c-0.96,0.06-1.93,0.12-2.89,0.2c-0.33,0.03-0.55-0.05-0.76-0.27c-0.22-0.24-0.48-0.43-0.74-0.64c-0.05-0.04-0.1-0.07-0.14-0.11
		L320.72,290.84z M328.46,305.77c-0.45-1.52-0.88-3.02-1.33-4.56c0.98-0.08,1.96-0.15,2.91-0.2c0.61-0.04,1.22-0.08,1.84-0.12
		L328.46,305.77z M329.06,315.39c-0.83-1.18-1.92-2.84-2.29-3.5l0.89-1.27L329.06,315.39z M328.04,299.03l-1.5,0.1
		c-0.39-1.26-0.75-2.53-1.13-3.82c-0.21-0.73-0.42-1.47-0.64-2.22c0.11,0.06,0.21,0.11,0.31,0.17c0.33,0.19,0.67,0.38,1,0.57
		c0.6,0.35,1.19,0.69,1.79,1.01c0.38,0.2,0.79,0.32,1.14,0.41c1.36,0.33,2.74,0.66,4.11,0.99l1.76,0.42
		c-0.47,0.67-0.93,1.32-1.38,1.97c-0.02,0.04-0.05,0.05-0.21,0.05l-0.1,0C331.47,298.81,329.76,298.92,328.04,299.03z
		 M324.97,301.34l0.14,0.49c0.57,1.97,1.14,3.93,1.72,5.9c0.07,0.23,0.07,0.31,0,0.42c-0.32,0.44-0.64,0.88-0.95,1.33l-0.38,0.52
		l-1.71-2.58c-0.17-0.26-0.35-0.53-0.52-0.8c-0.36-0.56-0.72-1.11-1.11-1.65c-0.31-0.43-0.69-0.84-1.12-1.22
		c-0.55-0.49-1.1-0.95-1.67-1.42c-0.24-0.2-0.47-0.39-0.7-0.59L324.97,301.34z M314.58,295.76l-1.2-4.12l4.28-0.28L314.58,295.76z
		 M317.98,289.22c-1.38,0.15-4.19,0.32-5.2,0.33l-0.94-3.21l0.57-0.29L317.98,289.22z M315.23,285.25l3.64-0.24l0.81,2.78
		L315.23,285.25z M312.66,296.64l-4.78-4.05c0.02-0.19,0.04-0.38,0.06-0.57l3.31-0.22L312.66,296.64z M308.99,299.03
		c-0.36-1.21-0.71-2.44-1.07-3.66l4.1,3.46C311.2,298.96,309.74,299.06,308.99,299.03z M310.88,301.06
		c-0.19,0.36-0.52,0.85-0.91,1.34c-0.14-0.43-0.25-0.85-0.36-1.26L310.88,301.06z M307.66,309.51l1.02,0.71l-0.53,0.75l-1.02-0.71
		L307.66,309.51z M306.66,307.14l-0.22,0.31c0.14-1.53,0.29-3.03,0.44-4.55l0.15-1.56l0.43-0.05l0.29,0.98
		c0.2,0.7,0.41,1.4,0.61,2.1v0c0.06,0.2,0.06,0.27-0.01,0.37C307.78,305.53,307.22,306.34,306.66,307.14z M308.14,289.89l0.02-0.22
		c0.05-0.56,0.1-1.09,0.16-1.61c0-0.02,0.03-0.07,0.05-0.07c0.44-0.22,0.88-0.43,1.35-0.65l0.22-0.1c0.24,0.84,0.48,1.64,0.72,2.48
		L308.14,289.89z M300.15,285.71l-1.21-4.17c1.03-0.1,2.06-0.16,3.06-0.22c0.41-0.02,0.82-0.05,1.23-0.08
		C302.62,282.25,301.03,284.56,300.15,285.71z M305.3,278.39c-0.48,0.81-0.54,0.81-1.36,0.39c-0.42-0.22-0.84-0.45-1.25-0.69
		l-0.37-0.21c-1.24-0.7-2.48-1.41-3.71-2.11c-0.04-0.02-0.08-0.05-0.12-0.08c0.02-0.01,0.04-0.02,0.06-0.03
		c0.53-0.26,0.98-0.49,1.53-0.5c0.91-0.03,1.83-0.1,2.72-0.17c0.41-0.03,0.82-0.07,1.23-0.09c0.12-0.01,0.24-0.01,0.38-0.01
		l0.28,0.83c0.23,0.8,0.45,1.57,0.67,2.35C305.39,278.16,305.39,278.24,305.3,278.39z M300.63,279.32l-2.29,0.16
		c-0.16-0.56-0.33-1.13-0.5-1.74L300.63,279.32z M298.33,287.25c0.26,0.24,0.31,0.56,0.12,0.85l0.25,0.17l-0.28-0.12
		c-0.11,0.15-0.19,0.26-0.25,0.36c-0.15,0.23-0.15,0.23-0.6,0.26l-0.27,0.02c-0.63,0.05-1.27,0.09-1.91,0.13l-0.35,0.02
		c-0.13,0.01-0.26,0.01-0.41,0.01l-0.07,0c-0.11-0.36-0.21-0.73-0.31-1.08c-0.26-0.95-0.52-1.84-0.82-2.74
		c-0.21-0.62-0.15-1.21-0.07-1.9c0.01-0.06,0.02-0.13,0.02-0.19l0.05,0.04c0.39,0.33,0.76,0.63,1.12,0.93
		c0.6,0.51,1.19,1.02,1.79,1.53l1.3,1.11C297.86,286.85,298.1,287.05,298.33,287.25z M296.51,290.94c-0.32,0.47-0.63,0.91-0.96,1.38
		l-0.38-1.3L296.51,290.94z M293.2,299.39l1.01,0.71l-0.53,0.75l-1.02-0.71L293.2,299.39z M292.03,297.33
		C292.03,297.33,292.02,297.33,292.03,297.33c0.1-1.62,0.38-4.86,0.58-6.12l0.41-0.04c0.06,0.22,0.12,0.44,0.19,0.65
		c0.18,0.64,0.36,1.31,0.59,1.95c0.2,0.56,0.13,0.95-0.24,1.42C293.02,295.88,292.52,296.62,292.03,297.33z M295.14,281.77
		c0.47-0.04,0.91-0.06,1.34-0.08l0.33-0.02l0.58,2.02L295.14,281.77z M293.69,279.78l0.17-1.88l1.61-0.77
		c0.24,0.83,0.48,1.64,0.73,2.48L293.69,279.78z M293.82,275.6c-0.37,0.18-0.72,0.35-1.07,0.5c-0.6,0.25-0.91,0.69-0.94,1.32
		c-0.02,0.45-0.07,0.9-0.13,1.38l0,0.04l-2.21-1.87l1.98-2.83c0.67,0.29,1.82,0.96,2.47,1.41L293.82,275.6z M265.29,300.1
		c0,0.04,0,0.04-0.04,0.09h-6.01v-2.7C261.31,298.38,263.3,299.22,265.29,300.1z M332.5,319.69l-1.69-5.82
		c-0.48-1.65-0.96-3.31-1.45-4.96c-0.12-0.4-0.08-0.66,0.14-0.97c1.47-2.06,3.06-4.32,4.84-6.9c0.18-0.27,0.37-0.37,0.7-0.39
		c2.09-0.13,4.18-0.27,6.27-0.41c1.48-0.1,2.96-0.19,4.44-0.29C342.05,307.03,337.6,313.64,332.5,319.69z M336.16,298.5l0.91-1.3
		c1.38,0.32,2.73,0.64,4.07,0.97L336.16,298.5z M347.03,297.44c-1.27-0.3-2.54-0.6-3.81-0.91c-3.98-0.96-7.95-1.93-11.94-2.9
		l-1.93-0.47c-0.21-0.05-0.44-0.11-0.61-0.2c-0.55-0.31-1.1-0.63-1.65-0.94c-0.36-0.21-0.71-0.41-1.07-0.61
		c-0.28-0.16-0.56-0.31-0.85-0.47c-0.32-0.18-0.64-0.35-0.96-0.54c-0.62-0.36-1.24-0.72-1.86-1.09l-0.38-0.22l5.11-7.3l0.79,0.56
		c0.36,0.25,0.71,0.5,1.07,0.74c0.61,0.4,1.08,0.3,1.5-0.26c0.44-0.6,0.86-1.22,1.28-1.84c0.02,0,0.04,0,0.06,0
		c0.44-0.04,10.83-1,18.88-10.9c3.31-4.06,5.66-9.04,7.15-14.79C357.11,270.35,353.31,284.61,347.03,297.44z M328.3,280.03
		l0.52-0.74l1.01,0.71l-0.52,0.74L328.3,280.03z M357.25,238.04c0.23,13-2.54,23.26-8.4,30.49c-7.39,9.12-17.16,10.05-17.26,10.06
		c-0.01,0-0.02,0.02-0.03,0.02l-1.54-1.08c0.03-0.06,0.05-0.11,0.07-0.16c0.18-0.45,0.07-0.91-0.3-1.25
		c-0.31-0.27-0.71-0.32-1.14-0.13c-0.13,0.06-0.25,0.11-0.37,0.17l-15.01,7.16c-0.21,0.1-0.43,0.2-0.63,0.29l-0.16,0.07l-1.03-0.6
		c-0.67-0.39-1.34-0.78-2.01-1.16c-0.74-0.42-1.48-0.84-2.26-1.28l-0.66-0.37l0.89-1.27c0.71-1.02,1.41-2.02,2.12-3.02
		c0.33-0.47,0.65-0.93,0.98-1.4c0.67-0.97,1.36-1.97,2.09-2.94l0.72,0.51c0.4,0.28,0.79,0.56,1.19,0.82
		c0.54,0.36,1.04,0.28,1.4-0.21c0.45-0.6,0.9-1.27,1.35-1.93c0,0,0,0,0,0c0.08,0,0.17-0.01,0.25-0.03
		c0.78-0.17,19.08-4.3,29.32-21.24c5.31-8.79,7.35-19.36,6.23-31.49C355.08,224.5,356.48,231.18,357.25,238.04z M313.82,269.94
		l0.54-0.77l1.03,0.72l-0.54,0.77C314.5,270.44,314.16,270.19,313.82,269.94z M344.81,248.3c-9.61,15.93-27.31,20.05-27.76,20.16
		l-1.5-1.05c0.04-0.07,0.07-0.13,0.09-0.19c0.16-0.42,0.07-0.84-0.26-1.18c-0.19-0.21-0.55-0.4-1.12-0.2
		c-0.13,0.05-0.25,0.11-0.37,0.17l-11.7,5.58c-1.88,0.89-3.75,1.79-5.61,2.69c-0.27,0.13-0.37,0.15-0.52,0.05
		c-0.47-0.3-0.95-0.57-1.43-0.85l-0.66-0.38c-0.73-0.42-1.46-0.84-2.2-1.25c-0.57-0.32-1.11-0.21-1.5,0.33
		c-1.02,1.44-2.03,2.88-3.03,4.33c-0.38,0.55-0.31,1.06,0.21,1.5c0.36,0.31,0.73,0.62,1.09,0.93s0.73,0.62,1.09,0.93
		c0.42,0.36,0.83,0.73,1.24,1.09l0.51,0.45l-1.84,19.19l-0.02,0.15c-0.02,0.18-0.04,0.37-0.02,0.56c0.02,0.38,0.23,0.7,0.55,0.86
		c0.31,0.17,0.7,0.15,1.03-0.05c0.13-0.08,0.24-0.18,0.34-0.27l0.28,0.2c-1.17,0.74-3.94,2.14-7.36,1.55
		c-3.87-0.65-7.48-3.62-10.76-8.73c0.17,0,0.33,0,0.5,0c0.44,0,0.75-0.27,0.93-0.62c0.49-0.84,0-1.77-1.02-1.9
		c-0.27-0.04-0.57-0.04-0.93-0.09v-2.16c0-0.93-0.49-1.55-1.28-1.99c-0.22-0.09-0.44-0.18-0.71-0.31
		c-3.89-1.68-7.82-3.36-11.71-5.04c-0.4-0.18-0.71-0.4-0.97-0.75c-2.03-3.14-4.15-6.23-6.19-9.32c-0.49-0.75-0.91-1.58-1.81-1.81
		c-0.32-0.08-1-0.07-1.33,0c-0.81,0.18-1.24,0.97-1.68,1.64c-1.94,3.09-3.89,6.14-5.83,9.19c-0.35,0.57-0.8,0.97-1.41,1.24
		l-11.8,5.04c-0.09,0.04-0.18,0.09-0.27,0.13c-0.84,0.4-1.33,1.06-1.33,2.03c-0.04,0.71-0.04,1.41-0.04,2.16
		c-0.4,0-0.71,0-1.02,0.04c-0.53,0.09-0.88,0.4-1.06,0.93c-0.13,0.49,0.04,0.88,0.35,1.24c0.27,0.31,0.62,0.35,1.02,0.35h0.22
		c-3.26,5.08-6.86,8.05-10.72,8.72c-3.28,0.56-5.94-0.68-7.2-1.44l0.34-0.23c0.1,0.1,0.21,0.19,0.34,0.27
		c0.32,0.2,0.71,0.21,1.03,0.05c0.32-0.17,0.53-0.49,0.55-0.86c0.02-0.2,0-0.38-0.02-0.57l-1.83-19.03l-0.02-0.31l0.66-0.58
		c0.36-0.32,0.73-0.64,1.1-0.96c0.35-0.3,0.69-0.59,1.04-0.89c0.38-0.32,0.77-0.65,1.15-0.98c0.52-0.45,0.6-0.95,0.21-1.51
		c-1.01-1.45-2.02-2.89-3.03-4.33c-0.38-0.54-0.92-0.65-1.5-0.33c-0.88,0.49-1.75,0.99-2.61,1.49l-0.18,0.1
		c-0.5,0.29-1.01,0.58-1.5,0.89c-0.14,0.09-0.24,0.08-0.52-0.05c-2.19-1.05-4.38-2.1-6.57-3.14l-10.77-5.14
		c-0.11-0.06-0.23-0.11-0.35-0.15c-0.59-0.22-0.93-0.01-1.12,0.2c-0.33,0.34-0.42,0.76-0.26,1.17c0.02,0.07,0.05,0.13,0.09,0.2
		l-1.29,0.9c-2.38-0.6-18.47-5.17-27.47-20.08c-7.02-11.63-8.08-26.62-3.2-44.53c17.38-36.36,54.52-61.54,97.44-61.54
		c43.96,0,81.84,26.42,98.66,64.2C352.72,223.15,351.48,237.25,344.81,248.3z"/>
	<polygon class="st0" points="195.27,351.66 188.69,364.1 186.17,362.77 185.24,364.52 192.13,368.17 193.06,366.42 190.54,365.08 
		197.13,352.65 	"/>
	<polygon class="st0" points="189.88,348.56 186.19,354.41 183.49,352.7 187.18,346.85 185.41,345.73 176.82,359.31 178.6,360.43 
		182.42,354.38 185.12,356.09 181.3,362.13 183.08,363.26 191.66,349.69 	"/>
	<polygon class="st0" points="183,344 183,344 178.34,340.53 177.15,342.13 181,344.99 178.02,349 174.62,346.46 173.43,348.06 
		176.83,350.59 173.79,354.68 169.94,351.82 168.75,353.42 172.6,356.28 172.6,356.28 174.28,357.53 183.87,344.65 	"/>
	<polygon class="st0" points="172.43,338.81 168.75,335.35 170.44,333.55 168.91,332.11 167.22,333.91 166.36,333.1 164.99,334.55 
		165.85,335.36 162.46,338.98 163.99,340.41 167.38,336.8 169.39,338.68 159,344.84 160.58,346.33 171.16,340.17 	"/>
	<polygon class="st0" points="165.96,329.04 164.54,327.49 154.18,337.02 152.25,334.92 150.79,336.27 156.07,342.01 157.53,340.66 
		155.6,338.57 	"/>
	<polygon class="st0" points="160.52,322.81 155.09,327.09 153.12,324.58 158.55,320.3 157.25,318.65 144.63,328.6 145.93,330.24 
		151.55,325.81 153.53,328.32 147.91,332.75 149.22,334.41 161.83,324.46 	"/>
	<polygon class="st0" points="152.58,311.8 143.6,317.14 149.05,311 148.36,309.84 139.97,311.83 149.3,306.28 148.32,304.63 
		134.51,312.84 135.45,314.42 145.82,312.13 138.81,320.07 139.79,321.72 153.6,313.52 	"/>
	<polygon class="st0" points="147.05,301.97 147.05,301.97 144.54,296.74 142.75,297.6 144.82,301.93 140.32,304.09 138.49,300.26 
		136.69,301.12 138.53,304.95 133.93,307.16 131.86,302.83 130.06,303.69 132.57,308.92 132.57,308.92 133.05,309.91 147.52,302.96 
			"/>
	<polygon class="st0" points="143.25,293.56 143.25,293.56 141.5,289.1 139.65,289.83 141.41,294.29 136.76,296.12 135.21,292.17 
		133.35,292.9 134.91,296.85 130.16,298.72 128.4,294.26 126.55,294.99 128.68,300.38 128.68,300.38 129.08,301.4 144.02,295.51 	
		"/>
	<polygon class="st0" points="126.99,289.96 140.42,285.75 139.79,283.75 126.36,287.95 125.51,285.23 123.61,285.82 125.94,293.27 
		127.84,292.67 	"/>
	
		<rect x="122.6" y="279.7" transform="matrix(0.9692 -0.2462 0.2462 0.9692 -65.1071 40.8083)" class="st0" width="16.06" height="2.1"/>
	<polygon class="st0" points="137.25,273.87 126.45,275.93 136.5,269.91 136.16,268.09 120.38,271.09 120.76,273.05 131.92,270.93 
		121.52,277.03 121.86,278.83 137.63,275.84 	"/>
	<path class="st0" d="M123.86,267.51l8.34-0.87c0.81-0.08,1.5-0.31,2.04-0.67s0.94-0.85,1.19-1.47c0.24-0.62,0.32-1.34,0.24-2.16
		c-0.08-0.81-0.32-1.48-0.7-2.02c-0.38-0.54-0.89-0.93-1.54-1.17c-0.64-0.24-1.4-0.31-2.26-0.22l-4.67,0.49l0.4,3.89l1.98-0.21
		l-0.19-1.8l2.72-0.29c0.43-0.04,0.81-0.01,1.12,0.1s0.57,0.28,0.75,0.53c0.19,0.24,0.3,0.55,0.33,0.91c0.04,0.38,0,0.72-0.11,1
		c-0.12,0.29-0.3,0.51-0.56,0.69c-0.26,0.17-0.58,0.28-0.97,0.32l-8.34,0.87c-0.44,0.05-0.82,0.02-1.14-0.09
		c-0.32-0.1-0.58-0.28-0.77-0.53c-0.19-0.25-0.3-0.55-0.34-0.92c-0.03-0.33,0.01-0.62,0.14-0.86c0.12-0.25,0.33-0.44,0.61-0.6
		c0.28-0.15,0.62-0.25,1.04-0.29l0.79-0.08l-0.23-2.22l-0.79,0.08c-0.84,0.09-1.54,0.31-2.1,0.67c-0.56,0.36-0.98,0.84-1.23,1.43
		c-0.25,0.6-0.33,1.29-0.26,2.08c0.09,0.81,0.32,1.48,0.7,2.02c0.38,0.54,0.89,0.93,1.53,1.17
		C122.24,267.52,122.99,267.6,123.86,267.51z"/>
	<path class="st0" d="M122.63,252.08l8.33,0.14c0.85,0.01,1.58-0.13,2.18-0.43c0.61-0.3,1.08-0.75,1.41-1.34
		c0.33-0.59,0.5-1.31,0.51-2.15c0.01-0.84-0.13-1.56-0.44-2.16s-0.76-1.06-1.36-1.39c-0.6-0.32-1.32-0.49-2.17-0.51l-8.33-0.14
		c-0.86-0.01-1.59,0.13-2.2,0.43c-0.61,0.3-1.07,0.75-1.4,1.34c-0.32,0.59-0.49,1.31-0.51,2.15c-0.01,0.84,0.13,1.56,0.43,2.16
		c0.3,0.6,0.75,1.06,1.35,1.39C121.05,251.89,121.78,252.06,122.63,252.08z M120.95,247.04c0.16-0.28,0.38-0.49,0.67-0.63
		c0.29-0.14,0.64-0.21,1.04-0.2l8.46,0.15c0.41,0.01,0.75,0.09,1.03,0.24c0.29,0.15,0.5,0.37,0.64,0.66
		c0.14,0.29,0.21,0.63,0.21,1.03c-0.01,0.4-0.09,0.74-0.25,1.02c-0.15,0.28-0.38,0.49-0.67,0.63c-0.29,0.14-0.64,0.21-1.04,0.2
		l-8.46-0.15c-0.41-0.01-0.75-0.09-1.03-0.24c-0.29-0.15-0.5-0.37-0.64-0.66c-0.14-0.29-0.21-0.63-0.21-1.03
		C120.72,247.66,120.8,247.32,120.95,247.04z"/>
	<polygon class="st0" points="135.28,240.54 128.47,239.91 128.87,235.67 126.89,235.49 126.49,239.72 121.27,239.24 121.71,234.45 
		119.73,234.27 119.29,239.05 119.29,239.05 119.09,241.14 135.09,242.63 	"/>
	<polygon class="st0" points="123.14,225.74 136.94,228.52 137.35,226.46 123.56,223.69 124.12,220.89 122.17,220.5 120.63,228.15 
		122.58,228.54 	"/>
	<polygon class="st0" points="138.76,220.53 132.11,218.65 132.97,215.58 139.63,217.46 140.2,215.44 124.74,211.07 124.17,213.09 
		131.06,215.04 130.19,218.11 123.3,216.16 122.73,218.19 138.19,222.56 	"/>
	<polygon class="st0" points="140.83,213.57 141.55,211.6 143.21,207.1 141.34,206.42 139.69,210.92 135,209.19 136.47,205.21 
		134.6,204.52 133.13,208.51 128.34,206.74 130,202.24 128.13,201.56 126.13,207 126.13,207 125.75,208.03 	"/>
	<polygon class="st0" points="146.33,200.13 137.06,195.31 145.15,196.7 145.77,195.51 139.66,189.43 149.29,194.44 150.17,192.73 
		135.92,185.32 135.07,186.96 142.49,194.56 132.04,192.79 131.15,194.5 145.4,201.9 	"/>
	
		<rect x="143.87" y="178.05" transform="matrix(0.5226 -0.8526 0.8526 0.5226 -89.4628 212.3991)" class="st0" width="2.1" height="16.06"/>
	<polygon class="st0" points="154.45,186.07 145.43,179.77 156.75,182.76 157.81,181.24 144.66,172.05 143.51,173.68 152.83,180.19 
		141.19,177.01 140.14,178.51 153.3,187.71 	"/>
	
		<rect x="152.35" y="165.91" transform="matrix(0.6208 -0.7839 0.7839 0.6208 -78.197 186.21)" class="st0" width="2.1" height="16.06"/>
	<path class="st0" d="M152.18,168.26l0.69,0.62c0.6,0.54,1.19,0.86,1.79,0.99c0.59,0.12,1.14,0.12,1.65,0
		c0.51-0.13,1.1-0.34,1.79-0.64l0.15-0.07c0.02-0.01,0.03-0.01,0.05-0.02c0.01-0.01,0.02-0.02,0.04-0.02
		c0.51-0.23,0.92-0.39,1.24-0.49c0.32-0.1,0.65-0.13,0.98-0.09c0.33,0.04,0.64,0.19,0.93,0.45l1.05,0.93
		c0.44,0.39,0.67,0.8,0.7,1.24c0.03,0.43-0.14,0.86-0.53,1.28c-0.38,0.43-0.8,0.66-1.24,0.69c-0.44,0.02-0.88-0.16-1.31-0.54
		l-0.54-0.48l-1.4,1.56l0.6,0.53c0.6,0.54,1.22,0.88,1.84,1.04c0.62,0.15,1.24,0.1,1.84-0.14s1.19-0.67,1.74-1.3
		c0.55-0.61,0.91-1.23,1.07-1.86c0.17-0.62,0.14-1.23-0.09-1.83c-0.22-0.6-0.63-1.17-1.24-1.71l-1.1-0.98
		c-0.59-0.53-1.16-0.86-1.71-0.98c-0.55-0.12-1.05-0.13-1.51-0.01c-0.45,0.12-1,0.32-1.64,0.61c-0.04,0.02-0.07,0.04-0.12,0.05
		c-0.04,0.02-0.08,0.04-0.12,0.05c-0.05,0.02-0.1,0.04-0.14,0.06s-0.1,0.04-0.14,0.06c-0.5,0.23-0.91,0.39-1.22,0.49
		s-0.64,0.13-0.98,0.09c-0.33-0.04-0.65-0.2-0.95-0.47l-0.75-0.67c-0.41-0.36-0.62-0.76-0.64-1.18c-0.01-0.42,0.17-0.85,0.56-1.29
		c0.36-0.41,0.76-0.61,1.18-0.62c0.42-0.01,0.85,0.18,1.29,0.58l0.56,0.5l1.4-1.57l-0.62-0.56c-0.6-0.54-1.21-0.88-1.82-1.04
		c-0.62-0.16-1.22-0.12-1.81,0.1c-0.59,0.23-1.16,0.64-1.7,1.25c-0.55,0.62-0.92,1.24-1.09,1.87c-0.17,0.63-0.15,1.23,0.07,1.83
		C151.18,167.18,151.59,167.74,152.18,168.26z"/>
	<polygon class="st0" points="159.41,158.23 169.2,168.34 170.7,166.88 160.92,156.76 162.97,154.78 161.58,153.35 155.98,158.78 
		157.36,160.21 	"/>
	<polygon class="st0" points="173.68,164.1 174.52,163.39 174.52,163.39 178.96,159.67 177.68,158.15 174.01,161.23 170.8,157.4 
		174.05,154.67 172.78,153.15 169.52,155.87 166.25,151.96 169.92,148.88 168.65,147.36 164.2,151.08 164.2,151.08 163.36,151.79 	
		"/>
	<path class="st0" d="M179.96,158.89l1.71-1.22l-3.95-5.53l1.35-0.96c0.04-0.03,0.07-0.06,0.11-0.09l5.66,4.32l1.87-1.33l-6.12-4.5
		c0.01-0.01,0.02-0.02,0.03-0.04c0.33-0.6,0.45-1.21,0.39-1.86c-0.07-0.64-0.33-1.29-0.79-1.93l-1.09-1.53
		c-0.44-0.62-0.95-1.07-1.53-1.33c-0.58-0.26-1.2-0.33-1.86-0.2c-0.66,0.12-1.34,0.43-2.04,0.93l-2.26,1.61l0,0l-0.8,0.57
		L179.96,158.89z M174.99,145.13c0.31-0.22,0.61-0.35,0.91-0.38c0.31-0.04,0.6,0.02,0.88,0.17c0.28,0.15,0.53,0.39,0.76,0.71
		l0.95,1.33c0.22,0.31,0.35,0.61,0.39,0.9c0.04,0.3-0.01,0.58-0.15,0.85c-0.14,0.27-0.36,0.51-0.66,0.73l-1.5,1.07l-3.08-4.32
		L174.99,145.13z"/>
	<path class="st0" d="M181.63,143.59c0.41,0.69,0.88,1.18,1.41,1.47c0.53,0.29,1.05,0.45,1.58,0.49c0.52,0.03,1.15,0.01,1.89-0.08
		l0.17-0.02c0.02,0,0.03,0,0.05-0.01c0.02,0,0.03-0.01,0.05-0.01c0.55-0.06,1-0.1,1.34-0.1c0.33,0,0.65,0.07,0.96,0.2
		c0.3,0.14,0.55,0.37,0.76,0.7l0.72,1.2c0.31,0.51,0.41,0.97,0.31,1.39c-0.1,0.42-0.39,0.78-0.88,1.07c-0.5,0.3-0.96,0.39-1.39,0.29
		c-0.43-0.11-0.79-0.41-1.09-0.91l-0.37-0.62l-1.8,1.08l0.41,0.68c0.42,0.69,0.9,1.21,1.45,1.53c0.55,0.33,1.15,0.47,1.8,0.42
		c0.65-0.05,1.33-0.29,2.05-0.72c0.71-0.42,1.24-0.91,1.58-1.45c0.34-0.55,0.5-1.14,0.46-1.77c-0.03-0.63-0.26-1.3-0.68-2
		l-0.75-1.26c-0.41-0.68-0.86-1.17-1.34-1.45c-0.49-0.28-0.97-0.44-1.44-0.46c-0.47-0.02-1.05,0.01-1.75,0.09
		c-0.04,0.01-0.08,0.01-0.12,0.02c-0.05,0.01-0.09,0.01-0.12,0.02c-0.06,0.01-0.11,0.01-0.16,0.02c-0.05,0-0.1,0.01-0.16,0.02
		c-0.55,0.07-0.98,0.1-1.31,0.11c-0.33,0-0.65-0.07-0.96-0.2c-0.31-0.14-0.57-0.38-0.77-0.73l-0.52-0.86
		c-0.28-0.47-0.36-0.91-0.26-1.31c0.11-0.41,0.42-0.76,0.92-1.06c0.47-0.28,0.9-0.36,1.31-0.24c0.41,0.12,0.76,0.43,1.06,0.93
		l0.39,0.64l1.8-1.08l-0.43-0.72c-0.41-0.69-0.89-1.2-1.43-1.53c-0.54-0.33-1.12-0.48-1.76-0.44c-0.63,0.04-1.29,0.27-1.99,0.68
		c-0.71,0.43-1.24,0.92-1.6,1.46s-0.51,1.13-0.48,1.76c0.03,0.63,0.25,1.29,0.66,1.97L181.63,143.59z"/>
	<path class="st0" d="M198.21,143.11c0.34,0.78,0.78,1.37,1.31,1.8c0.53,0.43,1.13,0.66,1.81,0.71c0.67,0.05,1.4-0.1,2.16-0.44
		c0.77-0.34,1.36-0.78,1.78-1.31s0.64-1.13,0.69-1.81c0.04-0.68-0.11-1.41-0.45-2.18l-3.37-7.62c-0.34-0.78-0.79-1.38-1.31-1.81
		c-0.53-0.43-1.13-0.66-1.8-0.7c-0.67-0.05-1.39,0.1-2.16,0.44c-0.76,0.34-1.36,0.78-1.78,1.3c-0.42,0.53-0.65,1.13-0.69,1.81
		c-0.04,0.68,0.11,1.41,0.45,2.19L198.21,143.11z M196.84,132.68c0.2-0.25,0.48-0.46,0.84-0.62c0.36-0.16,0.71-0.23,1.03-0.21
		c0.32,0.02,0.6,0.14,0.86,0.34c0.25,0.2,0.46,0.49,0.62,0.86l3.43,7.74c0.16,0.37,0.24,0.72,0.21,1.04
		c-0.02,0.32-0.12,0.61-0.32,0.86c-0.2,0.25-0.48,0.46-0.84,0.62c-0.36,0.16-0.71,0.23-1.03,0.21c-0.32-0.02-0.61-0.14-0.86-0.34
		c-0.25-0.2-0.46-0.49-0.62-0.86l-3.43-7.73c-0.17-0.37-0.24-0.72-0.22-1.04C196.53,133.22,196.64,132.93,196.84,132.68z"/>
	<polygon class="st0" points="210.5,142.17 208.21,135.72 212.22,134.3 211.55,132.43 207.54,133.85 205.78,128.91 210.31,127.3 
		209.64,125.42 204.18,127.37 204.18,127.37 203.14,127.74 208.52,142.87 	"/>
	<polygon class="st0" points="221.46,138.76 221.46,138.76 227.1,137.43 226.65,135.5 221.98,136.6 220.83,131.74 224.96,130.76 
		224.51,128.83 220.38,129.8 219.21,124.83 223.87,123.73 223.42,121.8 218.75,122.9 218.75,122.9 216.71,123.38 220.39,139.01 	"/>
	<polygon class="st0" points="230.37,136.86 228.69,125.99 234.35,136.24 236.18,135.96 233.74,120.1 231.76,120.4 233.49,131.62 
		227.76,121.02 225.94,121.3 228.39,137.16 	"/>
	<polygon class="st0" points="240.17,135.63 240.17,135.62 244.95,135.27 244.8,133.28 240.02,133.64 239.64,128.66 243.87,128.35 
		243.72,126.36 239.49,126.68 239.11,121.59 243.89,121.23 243.74,119.25 238.96,119.61 238.96,119.61 236.87,119.77 238.07,135.78 
			"/>
	<path class="st0" d="M248.4,128.39l1.66,0.03c0.05,0,0.08-0.02,0.13-0.02l1.99,6.85l2.3,0.04l-2.26-7.27
		c0.01-0.01,0.03,0,0.04-0.01c0.62-0.28,1.09-0.7,1.42-1.26c0.33-0.56,0.5-1.23,0.52-2.02l0.03-1.88c0.01-0.77-0.14-1.43-0.45-1.98
		c-0.31-0.55-0.77-0.98-1.38-1.27c-0.6-0.29-1.34-0.45-2.19-0.46l-1.65-0.03v0l-2.1-0.03l-0.26,16.07l2.1,0.03L248.4,128.39z
		 M248.51,121.1l1.84,0.03c0.38,0.01,0.69,0.08,0.96,0.24c0.26,0.15,0.47,0.37,0.6,0.66c0.13,0.29,0.2,0.63,0.19,1.03l-0.02,1.63
		c-0.01,0.38-0.08,0.69-0.23,0.96c-0.14,0.26-0.35,0.46-0.62,0.6c-0.27,0.13-0.6,0.2-0.97,0.19l-1.84-0.03L248.51,121.1z"/>
	<path class="st0" d="M257.53,135.15c0.56,0.35,1.25,0.56,2.08,0.63c0.81,0.07,1.51-0.04,2.12-0.31c0.6-0.27,1.08-0.71,1.43-1.3
		c0.35-0.59,0.56-1.31,0.63-2.18l0.39-4.68l-3.9-0.32l-0.17,1.98l1.81,0.15l-0.22,2.73c-0.04,0.43-0.14,0.8-0.3,1.09
		c-0.17,0.29-0.38,0.51-0.66,0.64s-0.6,0.19-0.96,0.16c-0.38-0.03-0.7-0.13-0.96-0.3c-0.26-0.17-0.45-0.39-0.57-0.68
		c-0.12-0.29-0.17-0.62-0.13-1.01l0.69-8.36c0.03-0.44,0.13-0.81,0.29-1.11c0.16-0.3,0.38-0.51,0.66-0.66
		c0.28-0.14,0.6-0.19,0.97-0.16c0.33,0.03,0.61,0.12,0.83,0.29c0.21,0.17,0.38,0.41,0.47,0.71c0.1,0.3,0.13,0.66,0.1,1.07
		l-0.07,0.79l2.22,0.18l0.07-0.79c0.07-0.84-0.02-1.57-0.27-2.19s-0.64-1.11-1.18-1.47c-0.54-0.36-1.2-0.57-2-0.64
		c-0.81-0.07-1.51,0.04-2.12,0.31s-1.08,0.71-1.43,1.29c-0.35,0.59-0.56,1.32-0.63,2.18l-0.69,8.36c-0.07,0.81,0.03,1.53,0.29,2.13
		C256.56,134.32,256.97,134.79,257.53,135.15z"/>
	<polygon class="st0" points="267.18,136.48 269.25,136.81 270.3,130.18 274.82,121.43 272.71,121.1 269.65,127.61 268.63,120.45 
		266.53,120.12 268.23,129.85 	"/>
	<path class="st0" d="M279.01,138.56c0.49,0.47,1.14,0.81,1.95,1.04c0.81,0.23,1.55,0.27,2.2,0.12c0.66-0.14,1.22-0.47,1.69-0.96
		c0.46-0.5,0.81-1.16,1.04-1.97l2.24-8.02c0.23-0.82,0.28-1.57,0.14-2.23c-0.14-0.67-0.45-1.23-0.95-1.69
		c-0.49-0.46-1.14-0.81-1.95-1.03c-0.81-0.23-1.54-0.27-2.2-0.13c-0.66,0.14-1.22,0.46-1.69,0.96c-0.46,0.5-0.81,1.16-1.04,1.98
		l-2.24,8.02c-0.23,0.82-0.27,1.56-0.13,2.22C278.21,137.53,278.53,138.1,279.01,138.56z M280.21,135.27l2.27-8.15
		c0.11-0.39,0.27-0.7,0.49-0.94c0.22-0.24,0.49-0.39,0.8-0.46c0.31-0.07,0.67-0.05,1.05,0.06c0.38,0.11,0.69,0.27,0.93,0.49
		c0.23,0.22,0.38,0.49,0.44,0.81c0.07,0.32,0.05,0.67-0.07,1.06l-2.27,8.15c-0.11,0.39-0.27,0.7-0.49,0.94
		c-0.22,0.24-0.48,0.39-0.8,0.46c-0.31,0.07-0.66,0.05-1.05-0.06c-0.38-0.11-0.69-0.27-0.92-0.49c-0.23-0.22-0.38-0.49-0.45-0.81
		C280.08,136.01,280.1,135.66,280.21,135.27z"/>
	<polygon class="st0" points="288.35,141.75 290.68,135.33 294.67,136.78 295.35,134.91 291.36,133.46 293.14,128.52 297.66,130.16 
		298.34,128.29 293.52,126.54 291.85,125.94 286.37,141.04 	"/>
	<polygon class="st0" points="301.48,147.34 307.67,134.69 310.23,135.95 311.1,134.16 304.1,130.74 303.23,132.52 305.78,133.77 
		299.6,146.41 	"/>
	<polygon class="st0" points="306.91,150.23 310.42,144.27 313.17,145.89 309.66,151.85 311.47,152.91 319.62,139.07 317.8,138 
		314.18,144.17 311.43,142.56 315.06,136.39 313.24,135.32 305.09,149.16 	"/>
	<polygon class="st0" points="314.77,155.15 314.78,155.15 318.71,157.89 319.85,156.25 315.91,153.52 318.76,149.42 322.24,151.84 
		323.38,150.21 319.9,147.78 322.81,143.6 326.75,146.33 327.88,144.7 323.95,141.96 323.95,141.96 322.22,140.76 313.05,153.95 	
		"/>
	<path class="st0" d="M324.67,160.43c-0.17,0.66-0.13,1.31,0.11,1.94c0.24,0.63,0.67,1.23,1.3,1.78c0.63,0.56,1.27,0.91,1.93,1.07
		c0.66,0.16,1.3,0.11,1.93-0.13c0.64-0.25,1.23-0.68,1.79-1.32l5.51-6.24c0.57-0.64,0.93-1.29,1.1-1.95
		c0.17-0.66,0.13-1.3-0.11-1.93c-0.24-0.63-0.67-1.22-1.3-1.78c-0.63-0.56-1.27-0.91-1.93-1.07c-0.65-0.16-1.3-0.12-1.93,0.13
		c-0.63,0.25-1.23,0.69-1.8,1.33l-5.51,6.24C325.2,159.13,324.84,159.78,324.67,160.43z M327.29,159.93l5.6-6.34
		c0.27-0.3,0.55-0.51,0.85-0.63c0.3-0.12,0.61-0.14,0.92-0.07c0.31,0.07,0.62,0.24,0.91,0.51c0.3,0.26,0.5,0.55,0.62,0.85
		c0.12,0.3,0.13,0.61,0.05,0.92c-0.08,0.31-0.25,0.62-0.52,0.92l-5.6,6.34c-0.27,0.3-0.55,0.51-0.85,0.63
		c-0.3,0.12-0.61,0.14-0.92,0.06c-0.31-0.07-0.62-0.24-0.91-0.51c-0.3-0.26-0.5-0.55-0.62-0.85c-0.12-0.3-0.13-0.61-0.05-0.92
		C326.85,160.54,327.02,160.24,327.29,159.93z"/>
	<path class="st0" d="M331.78,169.29l4.9-4.7l1.15,1.19c0.03,0.04,0.07,0.06,0.11,0.09l-3.46,6.22l1.59,1.66l3.57-6.71
		c0.01,0,0.03,0.02,0.04,0.02c0.64,0.24,1.27,0.27,1.9,0.12c0.63-0.16,1.23-0.51,1.79-1.06l1.36-1.3c0.55-0.53,0.92-1.1,1.09-1.71
		c0.17-0.61,0.15-1.24-0.07-1.87c-0.22-0.64-0.62-1.27-1.22-1.88l-1.15-1.2l0,0l-1.46-1.52l-11.6,11.13L331.78,169.29z
		 M341.95,159.54l1.27,1.33c0.26,0.27,0.43,0.56,0.51,0.85c0.08,0.3,0.06,0.59-0.05,0.89c-0.11,0.3-0.3,0.58-0.59,0.86l-1.18,1.13
		c-0.27,0.26-0.55,0.43-0.84,0.51s-0.57,0.07-0.86-0.02c-0.29-0.1-0.56-0.28-0.82-0.55l-1.28-1.33L341.95,159.54z"/>
	<path class="st0" d="M338.37,173.96c-0.26,0.6-0.32,1.23-0.18,1.88c0.13,0.65,0.46,1.29,0.98,1.93c0.51,0.63,1.07,1.06,1.69,1.31
		c0.62,0.24,1.26,0.29,1.93,0.13c0.67-0.16,1.34-0.51,2.01-1.06l3.64-2.97l-2.47-3.03l-1.54,1.26l1.15,1.4l-2.12,1.73
		c-0.34,0.27-0.67,0.45-1,0.54c-0.32,0.08-0.63,0.08-0.92-0.03c-0.29-0.1-0.55-0.3-0.78-0.58c-0.24-0.3-0.39-0.6-0.45-0.9
		s-0.03-0.6,0.1-0.88c0.12-0.29,0.33-0.55,0.64-0.8l6.5-5.3c0.34-0.28,0.68-0.46,1-0.55c0.33-0.09,0.63-0.08,0.93,0.02
		c0.29,0.1,0.56,0.3,0.79,0.58c0.21,0.26,0.33,0.52,0.36,0.8c0.03,0.27-0.03,0.55-0.19,0.83c-0.15,0.28-0.38,0.55-0.7,0.81
		l-0.62,0.5l1.41,1.73l0.62-0.5c0.65-0.53,1.11-1.1,1.39-1.71c0.28-0.61,0.36-1.23,0.24-1.87c-0.12-0.64-0.43-1.27-0.93-1.88
		c-0.51-0.63-1.07-1.06-1.69-1.31c-0.62-0.24-1.26-0.29-1.93-0.13c-0.67,0.15-1.34,0.51-2.01,1.05l-6.49,5.3
		C339.07,172.8,338.62,173.36,338.37,173.96z"/>
	<path class="st0" d="M343.31,182.85l3.26-1.45l2,2.89l-2.5,2.54l1.28,1.85l11.09-12.2l-1.1-1.58l-15.32,6.1L343.31,182.85z
		 M355.18,177.56l-5.21,5.29l-1.57-2.27L355.18,177.56z"/>
	<polygon class="st0" points="348.91,191.35 358.45,185.87 350.92,194.84 351.85,196.46 365.76,188.45 364.77,186.72 354.92,192.38 
		362.75,183.21 361.83,181.62 347.92,189.62 	"/>
	
		<rect x="352.32" y="194.55" transform="matrix(0.8955 -0.4451 0.4451 0.8955 -49.3978 180.8154)" class="st0" width="16.06" height="2.1"/>
	<polygon class="st0" points="369.08,200.11 356.06,200.98 354.42,201.69 357.07,207.81 358.9,207.02 357.14,202.96 370.13,202.04 
		371.77,201.33 369.24,195.49 367.41,196.28 	"/>
	<path class="st0" d="M358.09,210.55l3.53-0.51l1.14,3.32l-3.1,1.77l0.74,2.13l13.98-8.74l-0.62-1.82l-16.4,1.72L358.09,210.55z
		 M370.95,208.68l-6.44,3.68l-0.9-2.61L370.95,208.68z"/>
	<polygon class="st0" points="374.59,215.99 360.99,219.61 361.53,221.64 375.13,218.02 375.86,220.77 377.78,220.26 375.77,212.73 
		373.85,213.24 	"/>
	
		<rect x="362.53" y="224.02" transform="matrix(0.9789 -0.2044 0.2044 0.9789 -38.1762 80.4845)" class="st0" width="16.06" height="2.1"/>
	<path class="st0" d="M377.63,227.96c-0.64-0.22-1.38-0.27-2.23-0.15l-8.24,1.21c-0.84,0.12-1.53,0.38-2.09,0.78
		c-0.55,0.4-0.94,0.91-1.17,1.55c-0.23,0.64-0.28,1.37-0.16,2.2c0.12,0.83,0.38,1.52,0.79,2.06c0.4,0.54,0.92,0.93,1.56,1.15
		c0.64,0.22,1.38,0.27,2.22,0.15l8.24-1.21c0.84-0.12,1.54-0.38,2.1-0.78c0.55-0.4,0.94-0.91,1.16-1.55
		c0.22-0.64,0.27-1.37,0.15-2.2c-0.12-0.83-0.38-1.52-0.78-2.06C378.79,228.57,378.27,228.18,377.63,227.96z M377.87,232.52
		c-0.11,0.3-0.29,0.55-0.55,0.73c-0.26,0.19-0.6,0.31-1,0.37l-8.37,1.23c-0.4,0.06-0.76,0.04-1.06-0.07
		c-0.31-0.11-0.55-0.29-0.74-0.55c-0.19-0.26-0.31-0.58-0.37-0.98c-0.06-0.39-0.03-0.74,0.07-1.04c0.11-0.3,0.29-0.55,0.56-0.73
		c0.26-0.19,0.6-0.31,0.99-0.37l8.38-1.23c0.4-0.06,0.75-0.04,1.06,0.07c0.31,0.11,0.55,0.29,0.74,0.55s0.31,0.58,0.37,0.98
		S377.98,232.22,377.87,232.52z"/>
	<polygon class="st0" points="364.8,241.19 375.77,240.51 365.05,245.21 365.17,247.07 381.18,246.08 381.06,244.08 369.72,244.78 
		380.81,240.03 380.7,238.21 364.68,239.2 	"/>
	<path class="st0" d="M379.49,254.52c-0.58-0.35-1.3-0.55-2.15-0.6l-8.32-0.49c-0.84-0.05-1.58,0.06-2.2,0.34
		c-0.62,0.28-1.11,0.7-1.46,1.28s-0.55,1.28-0.6,2.12c-0.05,0.84,0.07,1.56,0.35,2.18c0.28,0.62,0.72,1.1,1.3,1.44
		c0.59,0.35,1.3,0.55,2.15,0.6l8.32,0.49c0.85,0.05,1.59-0.06,2.21-0.34c0.62-0.28,1.11-0.7,1.46-1.28c0.35-0.58,0.55-1.29,0.6-2.12
		c0.05-0.84-0.07-1.56-0.34-2.18C380.51,255.35,380.08,254.87,379.49,254.52z M378.8,259.02c-0.17,0.27-0.4,0.48-0.69,0.61
		c-0.29,0.13-0.64,0.18-1.05,0.16l-8.45-0.5c-0.41-0.02-0.74-0.12-1.03-0.28c-0.28-0.16-0.48-0.39-0.62-0.68
		c-0.14-0.29-0.19-0.63-0.17-1.03c0.02-0.4,0.12-0.73,0.29-1.01c0.17-0.27,0.4-0.48,0.69-0.61c0.29-0.13,0.64-0.18,1.05-0.16
		l8.45,0.49c0.41,0.02,0.74,0.12,1.02,0.28c0.28,0.17,0.49,0.39,0.62,0.68c0.13,0.29,0.19,0.64,0.17,1.03
		C379.07,258.42,378.97,258.75,378.8,259.02z"/>
	<polygon class="st0" points="364.21,264.95 370.99,265.86 370.42,270.08 372.39,270.35 372.96,266.13 378.16,266.83 377.52,271.59 
		379.49,271.86 380.13,267.1 380.41,265.02 364.5,262.87 	"/>
	<polygon class="st0" points="375.73,280.25 362.06,276.89 361.56,278.93 375.23,282.28 374.55,285.05 376.48,285.53 378.34,277.95 
		376.41,277.48 	"/>
	<path class="st0" d="M362.05,283.16c-0.62,0.09-1.16,0.35-1.6,0.78c-0.44,0.43-0.79,1.01-1.03,1.76c-0.24,0.75-0.31,1.43-0.2,2.04
		c0.11,0.61,0.38,1.13,0.84,1.58s1.06,0.79,1.83,1.04l11.84,3.83l0.64-2l-11.93-3.85c-0.5-0.16-0.85-0.42-1.04-0.76
		c-0.19-0.34-0.2-0.76-0.05-1.24c0.15-0.48,0.41-0.8,0.76-0.96c0.35-0.16,0.78-0.17,1.29,0l11.93,3.85l0.64-2l-11.85-3.83
		C363.37,283.14,362.67,283.06,362.05,283.16z"/>
	<path class="st0" d="M357.92,290.73l-0.81,1.94l6.28,2.6l-0.63,1.53c-0.02,0.05-0.02,0.09-0.04,0.13l-7.09-0.68l-0.88,2.12
		l7.58,0.57c0,0.01,0,0.03,0,0.05c0.04,0.68,0.25,1.27,0.65,1.78c0.4,0.51,0.96,0.92,1.69,1.22l1.73,0.72
		c0.71,0.29,1.38,0.4,2.01,0.31c0.63-0.08,1.19-0.36,1.69-0.81s0.91-1.08,1.24-1.87l1.06-2.56l0,0l0.38-0.91L357.92,290.73z
		 M369.42,299.77c-0.14,0.35-0.33,0.62-0.57,0.81s-0.52,0.3-0.83,0.32c-0.31,0.02-0.66-0.05-1.03-0.2l-1.51-0.63
		c-0.35-0.14-0.62-0.33-0.81-0.56c-0.19-0.23-0.3-0.5-0.33-0.8c-0.03-0.3,0.03-0.63,0.17-0.97l0.71-1.7l4.9,2.03L369.42,299.77z"/>
	<polygon class="st0" points="353.08,301.7 356.84,303.64 358.88,306.49 351.16,305.41 350.07,307.53 360.41,308.63 364.57,314.46 
		365.62,312.41 360.26,305.41 367.35,309.08 368.31,307.21 354.04,299.84 	"/>
	
		<rect x="354.85" y="305.23" transform="matrix(0.5116 -0.8592 0.8592 0.5116 -95.338 458.7948)" class="st0" width="2.1" height="16.06"/>
	<path class="st0" d="M357.53,318.49l-6.76-4.57c-0.72-0.48-1.41-0.77-2.08-0.87c-0.67-0.1-1.3-0.01-1.89,0.27
		c-0.58,0.28-1.09,0.75-1.53,1.4c-0.44,0.65-0.68,1.3-0.73,1.95c-0.05,0.64,0.11,1.26,0.45,1.85c0.34,0.58,0.88,1.12,1.59,1.6
		l0.57,0.38l1.19-1.76l-0.57-0.38c-0.36-0.24-0.63-0.5-0.82-0.78c-0.19-0.28-0.28-0.56-0.27-0.85c0-0.29,0.1-0.58,0.29-0.86
		c0.19-0.28,0.42-0.48,0.69-0.58c0.27-0.11,0.57-0.13,0.9-0.06c0.33,0.07,0.67,0.22,1.03,0.47l6.77,4.57
		c0.36,0.25,0.64,0.51,0.82,0.79c0.19,0.28,0.28,0.56,0.28,0.85c0,0.29-0.1,0.57-0.28,0.86c-0.19,0.28-0.42,0.48-0.69,0.59
		c-0.27,0.11-0.57,0.13-0.9,0.06c-0.33-0.07-0.67-0.23-1.03-0.47l-0.57-0.38l-1.19,1.76l0.57,0.38c0.72,0.48,1.41,0.78,2.08,0.88
		c0.67,0.1,1.3,0.01,1.88-0.27c0.58-0.28,1.1-0.75,1.53-1.4c0.44-0.65,0.68-1.3,0.73-1.94c0.04-0.64-0.11-1.26-0.45-1.84
		C358.78,319.51,358.25,318.97,357.53,318.49z"/>
	<path class="st0" d="M349.16,330.8l-0.7-0.61c-0.61-0.53-1.21-0.85-1.8-0.96c-0.6-0.11-1.15-0.1-1.65,0.03
		c-0.5,0.13-1.1,0.36-1.77,0.67l-0.15,0.07c-0.02,0.01-0.03,0.01-0.04,0.02c-0.01,0.01-0.02,0.02-0.04,0.02
		c-0.5,0.24-0.92,0.41-1.24,0.51c-0.32,0.1-0.64,0.14-0.98,0.11c-0.33-0.03-0.64-0.18-0.94-0.43l-1.06-0.92
		c-0.45-0.39-0.69-0.79-0.72-1.22c-0.04-0.43,0.13-0.86,0.5-1.29c0.38-0.44,0.79-0.68,1.23-0.71c0.44-0.03,0.88,0.14,1.32,0.52
		l0.55,0.47l1.37-1.59l-0.6-0.52c-0.61-0.53-1.23-0.86-1.86-1c-0.62-0.14-1.24-0.08-1.84,0.17c-0.6,0.25-1.17,0.69-1.72,1.33
		c-0.54,0.62-0.88,1.25-1.04,1.87c-0.16,0.62-0.12,1.23,0.12,1.83c0.23,0.6,0.65,1.16,1.27,1.69l1.11,0.96
		c0.6,0.52,1.18,0.84,1.73,0.95c0.55,0.12,1.05,0.11,1.5-0.01c0.45-0.13,1-0.33,1.63-0.63c0.04-0.02,0.07-0.04,0.12-0.06
		c0.04-0.02,0.08-0.04,0.11-0.06c0.05-0.02,0.1-0.05,0.14-0.06c0.05-0.02,0.1-0.04,0.14-0.07c0.49-0.24,0.9-0.41,1.22-0.51
		c0.31-0.11,0.64-0.14,0.98-0.11c0.33,0.04,0.65,0.19,0.96,0.45l0.76,0.66c0.41,0.36,0.63,0.75,0.65,1.17
		c0.02,0.42-0.15,0.86-0.53,1.3c-0.36,0.41-0.75,0.63-1.17,0.64c-0.42,0.01-0.86-0.17-1.3-0.55l-0.57-0.49l-1.37,1.59l0.64,0.55
		c0.61,0.53,1.22,0.86,1.84,1.01c0.62,0.15,1.22,0.11,1.81-0.13c0.59-0.24,1.15-0.66,1.68-1.27c0.54-0.63,0.9-1.26,1.06-1.89
		c0.17-0.63,0.13-1.24-0.1-1.83C350.18,331.87,349.77,331.32,349.16,330.8z"/>
	<polygon class="st0" points="342.1,340.96 332.15,331.01 330.67,332.49 340.62,342.45 338.6,344.46 340.01,345.87 345.52,340.35 
		344.12,338.95 	"/>
	<path class="st0" d="M327.3,335.7l1.8,3.08l-2.65,2.3l-2.8-2.21l-1.7,1.48l13.34,9.69l1.45-1.26L329,334.22L327.3,335.7z
		 M333.85,346.92l-5.82-4.6l2.08-1.81L333.85,346.92z"/>
	<polygon class="st0" points="328.46,353.01 320,341.76 318.32,343.03 326.78,354.27 324.51,355.98 325.71,357.57 331.94,352.88 
		330.74,351.29 	"/>
	<polygon class="st0" points="314.09,346.02 314.09,346.02 313.77,346.22 313.24,346.56 313.25,346.57 309.22,349.17 310.3,350.84 
		314.32,348.24 317.03,352.43 313.47,354.73 314.55,356.4 318.11,354.1 320.88,358.39 316.85,360.99 317.92,362.66 321.95,360.06 
		321.96,360.06 323.72,358.92 315.01,345.43 	"/>
	<path class="st0" d="M313.64,360c-0.38-0.71-0.83-1.22-1.34-1.53c-0.51-0.32-1.03-0.5-1.55-0.55c-0.52-0.05-1.15-0.06-1.89-0.01
		l-0.17,0.02c-0.02,0-0.03,0-0.05,0.01c-0.01,0-0.03,0-0.05,0.01c-0.55,0.04-1,0.05-1.34,0.04c-0.33-0.01-0.65-0.1-0.95-0.25
		c-0.3-0.15-0.54-0.39-0.72-0.74l-0.67-1.23c-0.28-0.52-0.36-0.99-0.24-1.4c0.12-0.42,0.43-0.76,0.93-1.03
		c0.51-0.28,0.98-0.35,1.41-0.23c0.42,0.13,0.77,0.44,1.05,0.96l0.34,0.63l1.84-1l-0.38-0.7c-0.39-0.71-0.85-1.24-1.38-1.6
		c-0.53-0.35-1.12-0.52-1.77-0.5c-0.65,0.02-1.35,0.23-2.08,0.63c-0.73,0.39-1.27,0.85-1.64,1.38c-0.37,0.53-0.55,1.11-0.54,1.75
		c0,0.64,0.2,1.31,0.59,2.02l0.7,1.29c0.38,0.7,0.81,1.2,1.28,1.51c0.48,0.3,0.95,0.48,1.41,0.52c0.47,0.05,1.05,0.04,1.75-0.01
		c0.04,0,0.08-0.01,0.12-0.01c0.05,0,0.09-0.01,0.13-0.01c0.05,0,0.11-0.01,0.16-0.01c0.05,0,0.1,0,0.16-0.01
		c0.55-0.04,0.98-0.06,1.32-0.05c0.33,0.01,0.65,0.1,0.95,0.25c0.3,0.15,0.55,0.41,0.74,0.76l0.48,0.88
		c0.26,0.48,0.33,0.92,0.2,1.32c-0.13,0.41-0.45,0.74-0.96,1.02c-0.48,0.26-0.92,0.32-1.32,0.19c-0.4-0.14-0.74-0.46-1.02-0.98
		l-0.36-0.66l-1.84,1l0.4,0.74c0.38,0.71,0.84,1.24,1.36,1.6c0.53,0.36,1.1,0.53,1.74,0.52c0.64-0.01,1.31-0.21,2.02-0.6
		c0.73-0.4,1.29-0.86,1.66-1.39c0.38-0.53,0.56-1.11,0.56-1.74c0-0.63-0.19-1.3-0.57-1.99L313.64,360z"/>
	<path class="st0" d="M206.66,359.58c-2.81,0-5.09,2.28-5.09,5.09s2.28,5.09,5.09,5.09c2.81,0,5.09-2.28,5.09-5.09
		S209.47,359.58,206.66,359.58z"/>
	<path class="st0" d="M292.86,360.94c-2.81,0-5.09,2.28-5.09,5.09c0,2.81,2.28,5.09,5.09,5.09c2.81,0,5.09-2.28,5.09-5.09
		C297.95,363.22,295.67,360.94,292.86,360.94z"/>
	<path class="st0" d="M227.48,363.99c-0.46-0.36-1.05-0.61-1.77-0.76l-2.46-0.53l-1.29-0.28l-3.38,15.7l2.05,0.44v0l2,0.43
		c0.7,0.15,1.34,0.16,1.89,0.01c0.55-0.14,1.01-0.43,1.37-0.85c0.36-0.42,0.62-0.98,0.76-1.66l0.45-2.07
		c0.12-0.53,0.13-1.02,0.04-1.46c-0.09-0.44-0.27-0.82-0.55-1.14c-0.28-0.32-0.64-0.57-1.08-0.74c0.44,0,0.83-0.08,1.18-0.27
		c0.35-0.18,0.65-0.44,0.89-0.79c0.24-0.35,0.41-0.76,0.52-1.25l0.36-1.66c0.14-0.66,0.13-1.26-0.03-1.79
		C228.26,364.78,227.94,364.34,227.48,363.99z M225.05,373.94l-0.44,2.05c-0.09,0.43-0.29,0.73-0.6,0.9
		c-0.31,0.17-0.69,0.21-1.15,0.11l-1.83-0.39l1.13-5.26l1.72,0.37c0.31,0.07,0.57,0.2,0.78,0.4c0.2,0.2,0.34,0.45,0.41,0.76
		C225.14,373.19,225.13,373.54,225.05,373.94z M226.03,368.37c-0.12,0.54-0.32,0.93-0.62,1.18c-0.3,0.24-0.67,0.32-1.1,0.23
		l-1.72-0.37l0.99-4.61l1.74,0.37c0.42,0.09,0.72,0.28,0.91,0.56c0.19,0.28,0.24,0.63,0.15,1.05L226.03,368.37z"/>
	
		<rect x="222.72" y="371.26" transform="matrix(0.1535 -0.9881 0.9881 0.1535 -172.578 543.1655)" class="st0" width="16.06" height="2.1"/>
	<path class="st0" d="M240.64,365.69c-0.53-0.34-1.2-0.55-2.01-0.63c-0.83-0.08-1.55-0.01-2.15,0.22s-1.09,0.61-1.44,1.13
		c-0.35,0.53-0.56,1.18-0.64,1.97l-0.09,0.92c-0.08,0.8,0.01,1.47,0.26,2.02c0.25,0.55,0.57,0.99,0.97,1.33
		c0.4,0.33,0.92,0.69,1.57,1.06l0.15,0.08c0.01,0.01,0.03,0.02,0.04,0.02c0.02,0.01,0.03,0.01,0.04,0.02
		c0.48,0.28,0.86,0.51,1.13,0.72c0.27,0.2,0.48,0.45,0.65,0.74c0.16,0.29,0.23,0.63,0.19,1.02l-0.14,1.4
		c-0.06,0.59-0.25,1.02-0.58,1.3c-0.33,0.28-0.78,0.39-1.34,0.33c-0.58-0.06-1.01-0.25-1.29-0.6c-0.28-0.34-0.39-0.8-0.33-1.38
		l0.07-0.72l-2.09-0.2l-0.08,0.79c-0.08,0.81,0.01,1.5,0.25,2.1c0.25,0.59,0.64,1.06,1.19,1.4c0.55,0.35,1.24,0.56,2.08,0.64
		c0.82,0.08,1.53,0,2.13-0.23c0.6-0.23,1.07-0.62,1.43-1.15c0.35-0.53,0.57-1.2,0.64-2.01l0.14-1.46c0.07-0.79,0-1.45-0.22-1.96
		c-0.22-0.52-0.52-0.93-0.88-1.22c-0.36-0.3-0.85-0.62-1.46-0.97c-0.04-0.02-0.07-0.04-0.11-0.06c-0.04-0.02-0.07-0.04-0.11-0.06
		c-0.05-0.03-0.1-0.05-0.14-0.08c-0.04-0.03-0.09-0.05-0.14-0.08c-0.48-0.27-0.85-0.5-1.12-0.7c-0.27-0.2-0.48-0.44-0.65-0.74
		c-0.16-0.29-0.22-0.64-0.19-1.04l0.1-1c0.05-0.54,0.24-0.95,0.58-1.21c0.33-0.26,0.79-0.37,1.37-0.31
		c0.54,0.05,0.94,0.25,1.19,0.58c0.26,0.33,0.36,0.8,0.3,1.38l-0.07,0.75l2.09,0.2l0.08-0.84c0.07-0.8,0-1.49-0.24-2.08
		C241.56,366.5,241.17,366.03,240.64,365.69z"/>
	<polygon class="st0" points="249.12,372.94 245.93,372.88 246.07,365.72 243.96,365.68 243.64,381.74 245.75,381.78 245.89,374.86 
		249.08,374.93 248.94,381.84 251.04,381.88 251.36,365.82 249.26,365.78 	"/>
	<polygon class="st0" points="261.23,365.32 258.93,365.45 255.65,373.64 255.19,365.67 253.09,365.79 254.02,381.82 256.11,381.7 
		255.87,377.48 257.28,374.27 260.28,381.46 262.66,381.32 258.34,371.86 	"/>
	<polygon class="st0" points="266.49,378.81 265.82,373.86 270.03,373.3 269.76,371.32 265.56,371.89 264.87,366.84 269.63,366.19 
		269.36,364.22 263.61,365 263.61,365 262.53,365.15 264.68,381.06 265.76,380.92 265.76,380.92 271.51,380.14 271.24,378.17 	"/>
	<polygon class="st0" points="278.56,362.31 276.31,362.79 274.3,371.38 272.64,363.57 270.59,364.01 273.93,379.72 275.98,379.28 
		275.1,375.14 276.01,371.77 280.07,378.41 282.4,377.92 276.7,369.22 	"/>
	<path class="st0" d="M306.22,209.62c-6.11-0.11-12.44-2.24-18.24-3.44c5.27-3.18,13.42,0.33,17.56-5.36
		c-6,0.78-12.58-0.27-18.49-0.53c4.69-4,13.31-1.84,16.49-8c-5.87,1.78-12.53,1.71-18.42,2.38c4.02-4.71,12.87-3.89,15.04-10.58
		c-5.53,2.67-12.11,3.64-17.82,5.22c3.24-5.24,12.11-5.8,13.2-12.76c-5,3.49-11.38,5.49-16.76,7.93
		c2.36-5.69,11.02-7.62,11.02-14.67c-4.4,4.24-10.38,7.22-15.33,10.49c1.47-6,9.73-9.27,8.64-16.22c-3.71,4.82-9.16,8.8-13.51,12.76
		c0.56-6.13,8.13-10.67,5.98-17.33c-2.89,5.44-7.64,10.07-11.33,14.69c-0.47-6.18,6.36-11.8,3.18-18.07c-2,5.78-6,11.13-8.91,16.29
		c-1.42-5.98,4.44-12.67,0.31-18.36c-1.07,6.02-4.16,11.93-6.24,17.47c-2.33-5.69,2.42-13.18-2.56-18.16
		c-0.11,6.13-2.24,12.44-3.42,18.24c-3.22-5.24,0.31-13.42-5.38-17.56c0.78,6-0.27,12.58-0.53,18.49
		c-3.98-4.69-1.78-13.29-8.04-16.49c1.76,5.84,1.69,12.51,2.36,18.4c-4.69-4-3.87-12.84-10.56-15.02c2.71,5.51,3.69,12.11,5.27,17.8
		c-5.24-3.22-5.8-12.11-12.76-13.2c3.49,5.02,5.47,11.38,7.93,16.78c-5.69-2.36-7.64-11.04-14.67-11.04
		c4.24,4.42,7.2,10.4,10.47,15.33c-5.98-1.44-9.24-9.73-16.2-8.62c4.89,3.71,8.78,9.13,12.73,13.51
		c-6.13-0.49-10.64-8.16-17.36-5.98c5.44,2.89,10.07,7.67,14.69,11.36c-6.18,0.44-11.8-6.38-18.07-3.2c5.78,2.02,11.13,6,16.29,8.91
		c-6.02,1.49-12.62-4.4-18.36-0.27c6.02,1.09,11.96,4.22,17.53,6.24c-5.69,2.33-13.2-2.42-18.18,2.56
		c6.13,0.13,12.47,2.27,18.27,3.44c-5.29,3.2-13.49-0.33-17.56,5.31c6-0.78,12.58,0.29,18.49,0.56c-4.69,3.98-13.31,1.78-16.49,8.04
		c5.84-1.78,12.51-1.71,18.4-2.38c-4,4.71-12.84,3.89-15.02,10.58c5.49-2.73,12.11-3.71,17.8-5.29c-3.22,5.24-12.09,5.8-13.2,12.76
		c5.02-3.49,11.4-5.49,16.78-7.93c-2.36,5.69-11.02,7.62-11.02,14.67c4.4-4.24,10.38-7.22,15.31-10.49c-1.44,6-9.71,9.27-8.62,16.22
		c3.71-4.89,9.16-8.8,13.51-12.76c-0.49,6.16-8.13,10.67-5.98,17.36c2.89-5.44,7.67-10.07,11.36-14.69
		c0.47,6.18-6.38,11.82-3.18,18.07c2-5.71,5.98-11.13,8.89-16.29c1.42,6-4.44,12.67-0.31,18.36c1.09-6.02,4.18-11.93,6.24-17.47
		c2.36,5.67-2.42,13.18,2.56,18.16c0.13-6.11,2.24-12.42,3.44-18.22c3.2,5.24-0.33,13.4,5.36,17.53c-0.78-6,0.29-12.58,0.53-18.49
		c4,4.67,1.8,13.29,8.07,16.49c-1.78-5.87-1.71-12.53-2.38-18.42c4.71,4,3.89,12.87,10.56,15.02c-2.67-5.49-3.62-12.11-5.2-17.8
		c5.24,3.22,5.8,12.11,12.76,13.22c-3.49-5.02-5.47-11.4-7.93-16.78c5.69,2.36,7.62,11.04,14.67,11.04
		c-4.24-4.42-7.22-10.4-10.47-15.33c5.91,1.42,9.24,9.69,16.13,8.6c-4.8-3.71-8.76-9.16-12.71-13.51
		c6.11,0.49,10.64,8.16,17.33,5.98c-5.44-2.89-10.04-7.67-14.69-11.36c6.13-0.44,11.8,6.38,18.09,3.2c-5.8-2.02-11.16-6-16.36-8.89
		c0.64-0.18,1.31-0.27,2-0.27c0.67,0,1.33,0.09,1.98,0.27c4.4,0.44,10.16,3.58,14.36,0.29c-6.02-1.07-11.93-4.16-17.49-6.24
		C293.76,209.84,301.25,214.6,306.22,209.62z M271.24,222.69l-9.24-3.98l-3.73,9.42l-3.82-9.42l-9.24,3.96l3.98-9.24l-9.4-3.73
		l9.47-3.76l-3.98-9.27l9.24,3.98l3.76-9.4l3.73,9.4l9.24-3.96l-3.96,9.24l9.4,3.78l-9.4,3.73L271.24,222.69z M257.93,180.69h-0.13
		c-15.71,0-29.31,12.29-29.31,28.78c0,16.51,13.84,28.73,29.31,28.73c7.47,0,16.33-1.47,20.18-7.87
		c-10.58,17.53-31.53,14.76-31.53,14.76c-2.58-0.36-5.13-0.87-7.64-1.51c-5.31-1.64-10.38-4.29-14.24-8.27
		c-14.33-14.8-11.4-32.11-8.22-39.85c1.56-3.78,3.78-7.24,6.58-10.2c6.78-7.31,16.29-11.47,26.27-11.47
		c7.13,0,14.11,2.13,20.02,6.13c3.47,2.33,6.47,5.31,8.87,8.73C272.62,183.53,265.42,180.69,257.93,180.69z"/>
</g>
</svg>
