<?xml version="1.0" encoding="utf-8"?>
<!-- Generator: Adobe Illustrator 26.5.0, SVG Export Plug-In . SVG Version: 6.00 Build 0)  -->
<svg version="1.1" id="Layer_1" xmlns="http://www.w3.org/2000/svg" xmlns:xlink="http://www.w3.org/1999/xlink" x="0px" y="0px"
	 viewBox="0 0 500 500" style="enable-background:new 0 0 500 500;" xml:space="preserve">
<style type="text/css">
	.st0{fill:#131313;}
</style>
<g>
	<path class="st0" d="M382.79,188.31c11.07-7.32,13.73-21.33,17.21-33.2c-15.9,9.6-32.99,17.13-50.57,23.09
		c-17.13,5.92-34.79,10.61-52.73,12.98c0.12,0.14-1.09,4.43-1.77,5.6c-1.13,3.24-2.71,6.24-4.53,9.12
		c-4.27,5.96-9.96,10.64-16.43,14.14c-2.69,1.45-5.08,2.26-7.62,3.35c-1.95-3.45-2.54-7.53-2.65-11.45c0.05-1.52-0.1-8.12,0.7-9.17
		c0.91-1.21,1.74-1.82,3.02-2.12c1.73-0.4,3.54-0.02,5.01,0.98c0.3,0.21,0.6,0.42,0.92,0.64c1.82-2.92-0.06-5.15-2.43-6.88
		c-1.94-1.41-4.06-2.21-6.29-2.76c-3.8-1.22-6.75-3.66-10.99-3.19c-9.76-0.21-12.53,5.89-14.4,14.3
		c-1.55,5.02-4.74,18.51-5.03,19.48c-4.47-1.12-8.71-3.23-12.57-5.92c-4.62-3.21-8.59-7.27-11.8-11.89
		c-1.51-2.17-2.98-4.38-4.04-6.85c-0.87-2.34-1.57-4.8-1.99-7.2c-36.33-5.65-72.05-17.61-103.77-36.38
		c3.57,11.1,5.76,23.58,14.85,31.38c7.13,5.61,16.24,7.66,24.91,9.85c10.05,2.45,20.38,3.61,30.6,4.73
		c-18.49,4.71-38.13,0.62-56.5-3.26c12.45,34.61,37.14,24.66,65.99,23.71c-14.66,6.67-31.55,7.54-47.47,9.11
		c10.74,13.66,25.11,22.08,42.52,15.36c7.53-2.26,14.17-7.05,21.11-10.3c-7.8,8.95-17.79,15.6-27.72,21.98
		c19.74,9.58,28.03,10.45,43.5-6.36c0.64,1.28-1.83,5.28-2.49,6.67c-2.89,5.3-7.44,9.35-11.6,13.58c2.76,0.57,5.54,0.37,8.3,0.9
		c3.59,0.44,7.76,0.83,10.52-2c3.09-2.83,4.49-6.95,5.69-10.86c0.44-1.1,0.37-2.47,1.27-3.33c0.53,6.24-1.9,12.47-5.27,17.63
		c2.51,0.27,5.17,0.22,7.62-0.6c1.22-0.26,1.95-1.29,3.14-1.5c-1.18,2.12-2.9,3.71-4.48,5.5c-5.43,5.61-0.63,10.49-5.56,14.2
		c-3.1,2.04-7.4,2.19-9.79,5.27c-2.89,3.3,1.57,7.3,4.99,7.28c-0.76-2.07-3.2-4.11-0.77-6.13c0.52-0.3,3.05-1.33,2.71-0.08
		c-2.45,1.6-0.81,6.46,2.12,5.95c0.34-1.2-0.63-2.2-0.45-3.42c0.11-1.66,1.7-2.78,3.29-2.53c3.31,0.69,4.36,4.32,1.04,5.93
		c0.39,1.55,3.67-0.05,4.11-1.1c2.18-3.09,0.87-5.22-0.34-8.2c3.12-0.05,5.39-1.81,7.72-3.65c-1.38,5.71-3.72,11.11-5.87,16.59
		c-2.03,5.36-4.84,11.48-2.87,17.2c3.36-2.41,5.91-5.45,7.87-9.19c-0.46,5.35-1.9,10.68-0.66,16.06c0.54,4.07,2.34,1.11,4.08-0.36
		c2.04-1.96,6-10.96,7.22-12.74c1.31,9.02,1.37,18.86,6.64,26.75c1.88-1.54,2.47-4.25,3.34-6.44c2.65-6.53,2.34-13.69,3.6-20.46
		c1.7,5.28,4.26,10.24,8.4,14.05c2.35,2.32,2.39,1.39,2.93-1.3c0.41-2.96,0.35-6.02,0.15-9c-0.17-1.45-0.73-6.25-0.73-6.25
		s4.36,6.73,7.86,8.85c2.78-10.18-6.86-23.35-8.79-33.71c2.28,1.82,4.5,3.68,7.57,3.51c0.35,0.65-0.41,1.31-0.63,1.91
		c-0.57,0.97-0.7,2.15-0.72,3.27c0.11,2.77,2.52,5.37,5.43,4.7c-0.69-1.22-2.44-1.61-2.51-3.23c0.38-2.13,3.1-4.17,5.17-2.86
		c1.79,0.95,1.57,3.08,0.99,4.81c-0.04,2.86,5.83-2.02,1.86-5.55c1.89-0.69,4.65,1.14,3.97,3.29c-0.24,1.29-1.4,2.04-1.75,3.23
		c5.19-0.12,8.28-5.79,3.05-8.88c-2.91-1.69-6.54-2.06-8.98-4.56c-2.1-2.07-1.16-5.19-1.67-7.82c-0.61-4.75-5.34-7.25-7.32-11.21
		c3.1,2.31,7.2,3.03,10.91,2.23c-3.52-4.98-5.93-11.37-5.27-17.46c6.07,18.08,7.49,17.53,25.78,15.27
		c-5.95-5.7-12.48-11.84-14.34-20.15c16.09,16.31,23.17,16.26,43.46,6.31c-9.67-6.45-19.61-13.01-27.31-21.88
		c0.05-0.06,0.04-0.05,0.09-0.11c18.11,10.61,37.43,20.56,55.15,3.14c0.04,0.06,5.7-5.11,8.3-8.13
		c-10.65-0.91-21.33-1.97-31.81-4.18c-5.45-1.29-11.24-2.37-16.11-5.17c27.74,1.57,55.1,10.5,66.12-23.49
		c-17.28,3.64-39.46,8.25-56.6,3c8.96-0.38,17.78-1.88,26.59-3.6C365.29,195.19,374.75,193.2,382.79,188.31z M256.79,194.2
		c-1.01,2.9-4.84,2.93-5.2-0.33C252.99,193.76,255.82,193.23,256.79,194.2z M275.36,244.79c-1.56,9.84-4.4,19.59-9.13,28.41
		c-3.8,6.31-9.06,13.64-16.61,15.23c-16.06-6.58-23.39-30.81-24.95-46.89c-0.03-0.3,0.2-0.57,0.51-0.59
		c5.78-0.48,8.76-6.3,10.85-11.15c0.51-1.18,0.58-2.67,0.96-3.91c-0.05,0.17,0.35,0,0.53-0.01c8.28-0.11,16.52-0.08,24.79-0.05
		c0.93,0.01,0.88,1.23,1.07,1.89c0.55,1.41,1.07,2.83,1.68,4.22c1.43,2.95,2.97,7.83,10.31,9.13
		C276.26,241.21,275.48,242.4,275.36,244.79z"/>
	<path class="st0" d="M234.52,255.07c0.55-0.01,2.34,0.11,3.29,0.11c0.12,0-0.24-7.06-0.3-7.07
		C236.59,250.45,235.29,252.7,234.52,255.07z"/>
	<path class="st0" d="M238.67,255.1c0.82,0.12,2.51,0.09,3.01-0.03c-0.65-2.38-1.83-4.69-3.04-6.94
		C238.46,250.47,238.65,252.76,238.67,255.1z"/>
	<path class="st0" d="M260.77,230.1c-7.07,0.12-14.18-0.26-21.22-0.01c-1.88,5.46-4.98,12.68-11.41,13.5
		c2.36,13.64,7.62,34.71,21.62,40.62c10.07-2.83,15.03-14.83,18.35-23.9c1.71-5.4,2.97-10.93,3.8-16.53
		C265.61,242.22,262.63,235.8,260.77,230.1z M267.46,255.67c-0.48,4.99-7,7.01-10.19,3.12c-0.32-0.62-2.62-3.99-0.6-3.62
		c1.52-0.5,3.24-6.58,4.45-8.31c0.06-0.1,0.09-0.2,0.07-0.28c-0.04-0.12-9.9-0.3-11.19-0.29c-1.29-0.01-11.16,0.17-11.19,0.29
		c-0.02,0.08,0.01,0.18,0.07,0.28c1.21,1.73,2.93,7.81,4.45,8.31c2.02-0.37-0.28,3.01-0.6,3.62c-3.19,3.89-9.71,1.87-10.19-3.12
		c-0.15-0.82,1.11,0.21,1.37-1.19c1.12-2.55,2.26-5.1,3.44-7.62c-3.21-1.04-3.18-4.74,0.31-5.19c1.97-0.22,1.97,3.61,0.13,2.33
		c-0.96-1.52-1.95,0.79-0.48,1.29c0.15,0.05,0.31,0.03,0.48,0.04c2.34,0.15,9.18,0.19,9.91-0.87c2.01-2.22-0.2-7.87-2.51-4.93
		c-0.22,0.4,0.06,0.64,0.39,0.84c0.28,0.17,0.64,0,0.71-0.32v-0.01c0.32-1,1.33,0.16,1.32,0.75c0.39,1.92-2.81,2.04-3.61,0.7
		c-1.89-3.05,1.16-5.69,4.19-4.1c0.21-1.98,1.04-3.02,1.82-3c0.78-0.02,1.62,1.01,1.82,3c3.03-1.59,6.08,1.05,4.19,4.1
		c-0.8,1.33-4.01,1.21-3.61-0.7c-0.01-0.6,1.01-1.75,1.32-0.75v0.01c0.06,0.32,0.43,0.48,0.71,0.32c0.33-0.19,0.61-0.44,0.39-0.84
		c-2.3-2.94-4.52,2.71-2.51,4.93c0.73,1.05,7.57,1.01,9.91,0.87c0.16-0.01,0.32,0.01,0.48-0.04c1.47-0.5,0.48-2.81-0.48-1.29
		c-1.83,1.28-1.84-2.55,0.13-2.33c3.48,0.45,3.52,4.16,0.31,5.19c1.18,2.52,2.31,5.08,3.44,7.62
		C266.35,255.88,267.61,254.85,267.46,255.67z"/>
	<path class="st0" d="M258.32,255.07c0.49,0.13,2.19,0.15,3.01,0.03c0.03-2.34,0.22-4.63,0.03-6.98
		C260.15,250.37,258.97,252.68,258.32,255.07z"/>
	<path class="st0" d="M262.19,255.17c0.95,0,2.73-0.12,3.29-0.11c-0.77-2.37-2.07-4.62-2.98-6.96
		C262.44,248.12,262.07,255.17,262.19,255.17z"/>
</g>
</svg>
