<?xml version="1.0" encoding="utf-8"?>
<!-- Generator: Adobe Illustrator 26.5.0, SVG Export Plug-In . SVG Version: 6.00 Build 0)  -->
<svg version="1.1" id="Layer_1" xmlns="http://www.w3.org/2000/svg" xmlns:xlink="http://www.w3.org/1999/xlink" x="0px" y="0px"
	 viewBox="0 0 500 500" style="enable-background:new 0 0 500 500;" xml:space="preserve">
<style type="text/css">
	.st0{fill:#131313;}
</style>
<g>
	<path class="st0" d="M250,100c-82.85,0-150,67.15-150,150c0,82.85,67.15,150,150,150s150-67.15,150-150
		C400,167.15,332.85,100,250,100z M250,385.01c-74.43,0-135.01-60.58-135.01-135.01c0-74.47,60.58-135.01,135.01-135.01
		S385.01,175.53,385.01,250C385.01,324.43,324.43,385.01,250,385.01z"/>
	<path class="st0" d="M250,139.84c-60.75,0-110.16,49.41-110.16,110.16c0,60.75,49.41,110.16,110.16,110.16
		S360.16,310.75,360.16,250C360.16,189.24,310.75,139.84,250,139.84z M250,354.15c-57.45,0-104.15-46.7-104.15-104.15
		c0-57.45,46.7-104.19,104.15-104.19S354.15,192.55,354.15,250C354.15,307.45,307.45,354.15,250,354.15z"/>
	<path class="st0" d="M244.58,266.38c-0.21,0.21-0.97,0.68-1.65,1.06c-0.25,0.13-0.42,0.25-0.42,0.34h4.83l-1.14-0.8
		C245.51,266.43,244.79,266.17,244.58,266.38z"/>
	<path class="st0" d="M257.92,267.06c-1.57-1.06-1.57-1.06-2.41-0.21c-1.06,1.06-1.57,1.06-3.26,0c-1.35-0.85-1.4-0.85-3.09,0.08
		l-1.52,0.85h11.35L257.92,267.06z"/>
	<path class="st0" d="M243.86,257.92c0.47-0.21,1.06-0.72,1.35-1.06c0.3-0.34,0.72-1.82,0.93-3.26c0.51-3.13,1.65-5.55,3.22-6.77
		c2.12-1.65,6.05-2.29,6.44-1.06c0.25,0.72-1.52,1.19-2.24,0.59c-1.61-1.35-5.38,1.48-6.35,4.78c-0.85,2.88-0.85,5.38,0.04,6.39
		c0.97,1.06,1.65,0.97,2.67-0.38l0.89-1.1l0.89,1.1c1.19,1.48,1.95,1.44,2.96-0.21c0.68-1.14,0.85-1.27,1.1-0.63
		c0.17,0.42,0.8,1.02,1.4,1.31l1.14,0.59l-0.13-3.05c-0.13-2.16-0.42-3.39-0.97-4.19c-1.06-1.44-1.06-3.47-0.08-5.12
		c0.72-1.23,0.72-1.27-0.25-2.07c-1.4-1.14-5.5-1.14-7.66-0.04c-3.64,1.86-4.91,4.57-5.88,12.36
		C243.06,258.26,243.1,258.34,243.86,257.92z"/>
	<path class="st0" d="M257.03,249.96c0.38,0.93,0.72,0.85,2.12-0.63c0.85-0.89,1.61-1.27,2.63-1.27c1.65,0,1.74-0.3,0.55-1.86
		C259.99,243.27,255.67,246.36,257.03,249.96z"/>
	<path class="st0" d="M231.58,297.97l1.02-1.14c-0.08-1.74-0.13-4.4-0.21-8.89l-0.04-4.02l-0.97,2.07
		c-3.3,6.94-4.45,11.69-3.34,13.72C228.58,300.76,229.42,300.34,231.58,297.97z"/>
	<path class="st0" d="M216.22,300.08c0.13,0,1.31-0.38,2.62-0.89c3.05-1.14,5.93-3.94,8.47-8.25c1.02-1.82,1.86-3.3,1.86-3.43
		c-0.04-0.04-1.1,0.04-2.29,0.13l-2.24,0.17l-2.62,4.02c-1.44,2.2-2.71,4.02-2.84,4.02c0-0.17,0.93-2.03,2.16-4.36l2.33-4.32
		l-0.93-1.44c-0.51-0.76-1.1-1.35-1.35-1.27c-0.85,0.25-3.13,3.73-4.06,6.14C216.47,292.89,215.62,300.08,216.22,300.08z"/>
	<path class="st0" d="M209.61,293.22c2.03-0.93,3.81-2.28,6.73-5.16c2.2-2.16,3.98-4.02,3.98-4.19c0-0.17-0.85-0.38-1.91-0.47
		c-1.86-0.17-2.07-0.04-5.04,2.54c-5.16,4.53-5.8,4.7-1.86,0.55c1.99-2.16,3.6-4.02,3.6-4.23c-0.04-0.17-0.38-1.02-0.72-1.9
		c-0.34-0.85-0.76-1.57-0.89-1.57c-0.55,0-5.08,4.7-6.44,6.6c-1.44,2.12-3.09,5.89-3.6,8.26l-0.3,1.44l1.86-0.3
		C206.05,294.62,208.13,293.9,209.61,293.22z"/>
	<path class="st0" d="M227.27,277.22c-3.89,4.87-4.49,6.18-3.47,8.04c0.72,1.31,3.22,0.76,4.95-1.1c0.89-1.02,1.69-2.63,2.41-5
		c1.57-5.04,0.97-5.08-2.29-0.21c-1.02,1.48-1.91,2.62-2.03,2.62c-0.08-0.08,0.68-1.52,1.65-3.22
		C230.86,274.26,230.14,273.62,227.27,277.22z"/>
	<path class="st0" d="M195.05,284.84c0.68,0.13,1.27,0.21,1.4,0.25c0.13,0.04,1.44-0.13,2.92-0.38c3.18-0.51,6.77-2.08,10.88-4.74
		l2.88-1.9l-1.99-0.76c-2.24-0.89-1.95-0.97-7.75,2.33c-1.61,0.89-2.92,1.52-3.09,1.52c0-0.13,1.4-1.18,3.09-2.37
		c5.21-3.56,5.21-3.6,5.08-5.42c-0.08-0.89-0.21-1.69-0.3-1.78c-0.42-0.47-6.73,3.47-9.02,5.59c-2.5,2.37-5.25,6.05-5.25,7.03
		C193.9,284.46,194.41,284.76,195.05,284.84z"/>
	<path class="st0" d="M224.89,272.14c-0.68-0.63-0.97-0.51-3.94,1.95c-1.74,1.44-3.47,3.18-3.81,3.85
		c-0.72,1.31-0.85,2.63-0.34,3.13c0.59,0.59,4.11-0.17,5.76-1.23c1.48-1.02,5.46-5.59,5.46-6.31c0-0.8-1.65-0.17-3.6,1.48
		c-3.77,3.09-3.94,3.13-1.35,0.47C225.4,273.07,225.53,272.82,224.89,272.14z"/>
	<path class="st0" d="M222.78,234.67c4.78,3.64,6.52,5.63,6.52,7.37c0,0.55-1.1,2.12-2.71,3.81c-3.6,3.85-5.38,6.52-6.31,9.57
		c-0.89,2.88-1.02,6.73-0.3,8.89c1.14,3.47,2.92,4.78,11.56,8.42c1.27,0.55,2.29,1.35,2.75,2.16c0.13,0.25,0.25,0.42,0.38,0.59
		c1.95-1.1,3.85-2.84,5.04-5.08c-0.3-0.13-0.72-0.25-1.14-0.3c-4.45-0.59-10.37-4.11-12.28-7.24c-1.06-1.73-1.1-4.57-0.04-6.6
		c0.47-0.89,2.37-3.39,4.28-5.63c3.68-4.32,4.74-6.48,4.74-9.91c0-3.77-1.57-5.93-8.89-12.11c-2.96-2.54-7.62-6.69-10.37-9.23
		l-4.95-4.57l-0.21,1.36c-0.3,1.9,0.34,5.46,1.35,7.79C213.38,226.63,217.02,230.35,222.78,234.67z"/>
	<path class="st0" d="M217.53,271.25c3.13-1.18,3.56-1.57,2.92-2.54c-0.47-0.68-8.3,1.9-9.7,3.22c-2.12,1.99-0.93,3.34,3.05,3.39
		c1.78,0.04,2.88-0.3,5.63-1.73c1.9-0.97,3.47-1.91,3.47-2.08c0-0.85-1.74-0.76-4.91,0.21c-1.86,0.59-3.43,1.02-3.51,0.93
		C214.48,272.52,215.83,271.93,217.53,271.25z"/>
	<path class="st0" d="M188.53,269.26c3.09,1.61,4.57,1.82,11.64,1.69c3.85-0.08,7.07-0.25,7.2-0.38c0.08-0.13-0.21-0.93-0.72-1.82
		l-0.97-1.61l-5.33,0.25l-5.38,0.26l3.6-0.59c6.65-1.1,6.94-1.23,7.83-2.71l0.8-1.35h-4.11c-5.25,0-9.86,0.93-13.84,2.79
		C185.82,267.4,185.73,267.82,188.53,269.26z"/>
	<path class="st0" d="M215.79,265.88h-3.34l3.09-0.42c2.88-0.42,3.09-0.51,3.09-1.52v-1.06l-4.11,0.3
		c-5.76,0.38-8.04,1.74-6.31,3.73c1.91,2.12,3.98,2.33,9.23,0.93c1.99-0.55,2.37-0.8,2.07-1.31
		C219.22,266,218.37,265.83,215.79,265.88z"/>
	<path class="st0" d="M205.59,258.21c0.8,1.61,2.46,3.05,3.94,3.47c1.35,0.42,8.68,0.59,8.68,0.21c0-0.93-1.06-1.91-2.03-1.91
		c-0.64,0-2.41-0.3-3.94-0.63l-2.79-0.59l3.9,0.25c3.51,0.21,3.94,0.17,4.36-0.55c0.38-0.72,0.17-0.85-1.99-1.31
		c-6.73-1.44-7.96-1.56-9.4-0.8C205.04,257.03,205,257.07,205.59,258.21z"/>
	<path class="st0" d="M192.93,251.4c-4.87-0.55-9.91-0.08-12.11,1.06l-1.06,0.55l1.02,1.48c1.19,1.82,5.08,3.94,8.85,4.87
		c4.91,1.19,14.9,2.33,14.9,1.69c0-0.13-0.25-0.76-0.59-1.44c-0.68-1.27-1.82-1.74-7.28-2.79c-1.86-0.34-4.36-0.85-5.55-1.06
		l-2.12-0.42l2.07,0.21c1.19,0.08,4.53,0.3,7.49,0.47c5.12,0.25,5.38,0.21,6.18-0.64c0.47-0.59,0.64-1.1,0.42-1.31
		C204.45,253.39,197.54,251.86,192.93,251.4z"/>
	<path class="st0" d="M205.84,247.55c0,0.63,0.38,1.95,0.8,2.96c0.93,1.99,2.62,3.05,7.49,4.61c3.73,1.19,4.15,1.23,3.98,0.3
		c-0.08-0.38-1.69-1.52-3.68-2.58c-1.86-1.02-3.34-1.86-3.34-2.08c0.08-0.08,1.69,0.51,3.51,1.35c3.22,1.48,4.87,1.74,5.16,0.85
		c0-0.59-7.83-5-10.5-5.97C206.52,246.02,205.84,246.15,205.84,247.55z"/>
	<path class="st0" d="M174.39,233.28c2.96,5.97,7.62,9.14,21.97,14.94c3.85,1.57,7.28,3.01,7.66,3.22c1.06,0.59,1.1,0.3,0.21-1.48
		c-0.64-1.4-1.57-2.08-6.99-5.08c-6.31-3.47-10.63-6.14-10.63-6.48c0-0.13,0.63,0.17,1.4,0.59c5.29,3.18,12.24,6.9,14.65,7.79
		c0.89,0.34,1.1,0.21,1.65-0.85l0.68-1.27l-4.19-2.41c-10.2-5.93-12.36-7.33-15.83-9.99c-3.51-2.75-6.69-5.88-10.63-10.41
		l-1.82-2.16l0.13,5.21C172.82,229.85,172.86,230.19,174.39,233.28z"/>
	<path class="st0" d="M217.06,245.68c3.39,1.82,4.87,2.41,5.63,2.2c0.59-0.13,1.06-0.42,1.02-0.59c0-0.17-2.46-2.07-5.46-4.23
		c-5.59-4.02-9.31-6.09-11.05-6.09c-0.8,0-0.93,0.21-0.93,1.61c0,2.29,1.31,4.87,3.26,6.39c1.27,1.02,10.33,6.27,11.13,6.48
		c0.08,0,0.08-0.59,0-1.36c-0.17-1.23-0.59-1.65-3.64-3.56C211.81,243.35,211.81,242.93,217.06,245.68z"/>
	<path class="st0" d="M219.86,242.55c2.5,1.61,4.57,2.96,4.66,2.96c0.04,0,0.04-0.68-0.04-1.52c-0.13-1.31-0.59-1.78-4.28-4.49
		c-2.29-1.65-4.15-3.09-4.15-3.22c0-0.13,0.25-0.08,0.55,0.13c0.3,0.17,2.41,1.48,4.74,2.92c2.67,1.7,4.49,2.58,5,2.46
		c0.47-0.13,0.8-0.38,0.8-0.55c0-0.17-1.35-1.44-3.09-2.79c-3.68-3.01-7.87-6.52-10.71-9.1c-1.82-1.65-2.12-1.82-2.46-1.14
		c-0.68,1.19-0.55,5.08,0.25,6.56C212.28,237,214.99,239.41,219.86,242.55z"/>
	<path class="st0" d="M194.83,235.18c3.81,2.63,7.54,5.21,8.21,5.8c1.61,1.35,2.12,1.4,1.78,0.13c-0.17-0.51-0.25-1.27-0.25-1.65
		c0-0.42-1.52-1.91-3.43-3.34c-3.56-2.71-4.57-3.77-1.82-1.86c0.89,0.59,2.5,1.52,3.56,2.12l1.99,0.97l0.93-0.97l0.89-0.97
		l-5.33-3.94c-9.82-7.24-17.53-15.45-22.9-24.3l-2.67-4.45l-0.34,1.44c-0.72,2.92-0.55,9.44,0.3,11.94
		C177.86,222.48,181.46,226.12,194.83,235.18z"/>
	<path class="st0" d="M199.53,225.4c4.15,3.34,7.71,6.31,7.87,6.6c0.21,0.3,0.38-0.13,0.47-1.02c0.17-1.4-0.13-1.78-4.87-6.39
		c-2.79-2.71-6.22-6.18-7.62-7.7c-1.44-1.52-0.47-0.72,2.12,1.74c4.66,4.44,9.57,8.08,10.92,8.08c0.38,0,0.97-0.3,1.27-0.68
		c0.51-0.59,0.13-1.06-2.84-3.68c-10.58-9.4-18.76-19.6-24.56-30.78l-2.41-4.62l-0.42,2.12c-1.44,6.56-0.97,11.73,1.44,16.77
		C183.74,211.81,187.17,215.37,199.53,225.4z"/>
	<path class="st0" d="M209.23,221.68c0,0.21,0.08,0.38,0.13,0.38c0.08,0,0.13-1.95,0.08-4.28l-0.08-4.28l-3.01-3.09
		c-8.04-8.21-14.35-18.46-18.88-30.61c-1.02-2.71-1.99-5.04-2.12-5.25c-0.63-0.76-1.9,5.93-1.9,9.95
		c0.04,8.47,2.75,12.96,16.43,27.14C205.04,216.98,209.23,221.51,209.23,221.68z"/>
	<path class="st0" d="M273.54,299.7c1.06-2.03-0.08-6.77-3.34-13.72l-1.02-2.16l-0.04,4.11c-0.08,4.45-0.13,7.11-0.25,8.85l1.1,1.18
		C272.14,300.34,272.95,300.76,273.54,299.7z"/>
	<path class="st0" d="M282.73,299.2c1.31,0.51,2.46,0.89,2.62,0.89c0.59,0-0.25-7.2-1.14-9.48c-0.89-2.41-3.22-5.89-4.06-6.14
		c-0.21-0.08-0.85,0.51-1.35,1.27l-0.93,1.44l2.33,4.32c1.23,2.33,2.16,4.19,2.16,4.36c-0.08,0-1.35-1.82-2.79-4.02l-2.67-4.02
		l-2.2-0.17c-1.23-0.08-2.24-0.17-2.33-0.13c0,0.13,0.85,1.61,1.9,3.43C276.8,295.26,279.64,298.05,282.73,299.2z"/>
	<path class="st0" d="M296.53,294.79l1.82,0.3l-0.3-1.44c-0.51-2.37-2.16-6.14-3.6-8.26c-1.31-1.9-5.88-6.6-6.39-6.6
		c-0.17,0-0.55,0.72-0.89,1.57c-0.34,0.89-0.68,1.73-0.76,1.9c0,0.17,1.61,2.07,3.64,4.23c3.94,4.15,3.3,3.98-1.91-0.55
		c-2.92-2.58-3.18-2.71-5-2.54c-1.06,0.08-1.95,0.3-1.95,0.47c0,0.17,1.82,2.03,3.98,4.19c2.96,2.88,4.7,4.23,6.73,5.16
		C293.44,293.9,295.47,294.62,296.53,294.79z"/>
	<path class="st0" d="M272.69,278.96c-3.3-4.87-3.85-4.83-2.33,0.21c0.72,2.37,1.52,3.98,2.46,5c1.74,1.86,4.23,2.41,4.95,1.1
		c0.97-1.86,0.42-3.18-3.47-8.04c-2.92-3.6-3.6-2.96-1.23,1.14c0.93,1.65,1.65,3.05,1.65,3.22
		C274.6,281.58,273.67,280.44,272.69,278.96z"/>
	<path class="st0" d="M305.12,285.1c0.08-0.04,0.72-0.13,1.35-0.25c0.63-0.08,1.19-0.38,1.19-0.63c0-0.97-2.75-4.66-5.29-7.03
		c-2.24-2.12-8.55-6.05-8.98-5.59c-0.08,0.08-0.21,0.89-0.3,1.78c-0.17,1.82-0.13,1.86,5.08,5.42c1.69,1.18,3.09,2.24,3.09,2.37
		c-0.17,0-1.48-0.63-3.09-1.52c-5.84-3.3-5.5-3.22-7.79-2.33l-1.99,0.76l2.92,1.9c4.06,2.67,7.71,4.23,10.84,4.74
		C303.68,284.97,305,285.14,305.12,285.1z"/>
	<path class="st0" d="M277.14,275.02c-1.95-1.65-3.6-2.29-3.6-1.48c0,0.72,3.98,5.29,5.46,6.31c1.61,1.06,5.17,1.82,5.72,1.23
		c0.51-0.51,0.38-1.82-0.3-3.13c-0.34-0.68-2.07-2.41-3.85-3.85c-2.96-2.46-3.26-2.58-3.89-1.95c-0.63,0.68-0.51,0.93,1.82,3.34
		C281.08,278.15,280.91,278.11,277.14,275.02z"/>
	<path class="st0" d="M275.28,256.26c1.06,2.03,1.06,4.87,0,6.6c-1.9,3.13-7.87,6.65-12.28,7.24c-0.42,0.04-0.85,0.13-1.14,0.3
		c1.14,2.24,3.05,3.98,5,5.08c0.13-0.17,0.25-0.34,0.38-0.59c0.47-0.81,1.52-1.61,2.79-2.16c8.59-3.64,10.42-4.95,11.56-8.42
		c0.72-2.16,0.59-6.01-0.3-8.89c-0.93-3.05-2.71-5.72-6.35-9.57c-1.57-1.69-2.67-3.26-2.67-3.81c0-1.74,1.74-3.73,6.52-7.37
		c5.72-4.32,9.4-8.05,10.58-10.71c1.02-2.33,1.65-5.89,1.35-7.79l-0.21-1.36l-5,4.57c-2.71,2.54-7.37,6.69-10.37,9.23
		c-7.28,6.18-8.85,8.34-8.85,12.11c0,3.43,1.02,5.59,4.74,9.91C272.95,252.88,274.85,255.38,275.28,256.26z"/>
	<path class="st0" d="M283.53,271.72c-3.13-0.98-4.87-1.06-4.87-0.21c0,0.17,1.52,1.1,3.43,2.08c2.79,1.44,3.89,1.78,5.67,1.73
		c3.98-0.04,5.17-1.4,3.01-3.39c-1.35-1.31-9.19-3.89-9.65-3.22c-0.68,0.97-0.21,1.35,2.88,2.54c1.74,0.68,3.05,1.27,3.05,1.4
		C287,272.73,285.39,272.31,283.53,271.72z"/>
	<path class="st0" d="M312.28,265.79c-3.98-1.86-8.55-2.79-13.8-2.79h-4.11l0.8,1.35c0.85,1.48,1.19,1.61,7.79,2.71l3.64,0.59
		l-5.38-0.26l-5.38-0.25l-0.93,1.61c-0.51,0.89-0.85,1.69-0.72,1.82c0.13,0.13,3.34,0.3,7.15,0.38c7.11,0.13,8.59-0.08,11.69-1.69
		C315.83,267.82,315.75,267.4,312.28,265.79z"/>
	<path class="st0" d="M282.01,266.51c-0.3,0.51,0.13,0.76,2.12,1.31c5.21,1.4,7.32,1.19,9.19-0.93c1.78-1.99-0.51-3.34-6.31-3.73
		l-4.06-0.3v1.06c0,1.02,0.17,1.1,3.09,1.52l3.09,0.42h-3.39C283.15,265.83,282.3,266,282.01,266.51z"/>
	<path class="st0" d="M295.22,256.35c-1.44-0.76-2.62-0.63-9.4,0.8c-2.16,0.47-2.37,0.59-1.95,1.31c0.38,0.72,0.85,0.76,4.32,0.55
		l3.89-0.25l-2.75,0.59c-1.52,0.34-3.3,0.63-3.94,0.63c-1.02,0-2.03,0.98-2.03,1.91c0,0.38,7.32,0.21,8.68-0.21
		c1.48-0.42,3.09-1.86,3.94-3.47C296.57,257.07,296.53,257.03,295.22,256.35z"/>
	<path class="st0" d="M308.59,251.4c-4.61,0.47-11.47,1.99-12.19,2.67c-0.25,0.21-0.08,0.72,0.42,1.31
		c0.76,0.85,1.06,0.89,6.18,0.64c2.96-0.17,6.31-0.38,7.45-0.47l2.12-0.21l-2.16,0.42c-1.14,0.21-3.64,0.72-5.55,1.06
		c-5.46,1.06-6.6,1.53-7.24,2.79c-0.34,0.68-0.64,1.31-0.64,1.44c0,0.64,10.03-0.51,14.95-1.69c3.73-0.93,7.62-3.05,8.85-4.87
		l0.97-1.48l-1.06-0.55C318.54,251.31,313.46,250.85,308.59,251.4z"/>
	<path class="st0" d="M292.29,246.99c-2.67,0.97-10.5,5.38-10.5,5.97c0.25,0.89,1.91,0.63,5.12-0.85c1.86-0.85,3.43-1.44,3.56-1.35
		c0,0.17-1.48,1.06-3.39,2.08c-1.95,1.06-3.6,2.2-3.64,2.58c-0.21,0.93,0.25,0.89,3.94-0.3c4.91-1.56,6.56-2.62,7.49-4.61
		c0.47-1.02,0.85-2.33,0.85-2.96C295.72,246.15,295.05,246.02,292.29,246.99z"/>
	<path class="st0" d="M316.55,232.26c-3.47,2.67-5.59,4.06-15.83,9.99l-4.15,2.41l0.64,1.27c0.55,1.06,0.8,1.19,1.69,0.85
		c2.37-0.89,9.31-4.62,14.61-7.79c0.76-0.42,1.4-0.72,1.4-0.59c0,0.34-4.32,3.01-10.63,6.48c-5.42,3.01-6.31,3.68-6.99,5.08
		c-0.85,1.78-0.8,2.07,0.21,1.48c0.38-0.21,3.85-1.65,7.66-3.22c14.39-5.8,19.01-8.98,21.97-14.94c1.52-3.09,1.61-3.43,1.74-8.38
		l0.17-5.21l-1.86,2.16C323.29,226.38,320.11,229.51,316.55,232.26z"/>
	<path class="st0" d="M294.33,236.96c-1.69,0-5.46,2.07-11.01,6.09c-3.01,2.16-5.5,4.07-5.5,4.23c0,0.17,0.47,0.47,1.02,0.59
		c0.8,0.21,2.24-0.38,5.67-2.2c5.21-2.75,5.25-2.33,0.04,0.85c-3.09,1.91-3.51,2.33-3.64,3.56c-0.08,0.76-0.13,1.36-0.04,1.36
		c0.8-0.21,9.86-5.46,11.13-6.48c1.95-1.52,3.26-4.11,3.3-6.39C295.3,237.17,295.17,236.96,294.33,236.96z"/>
	<path class="st0" d="M288.19,229.34c-2.84,2.58-6.99,6.1-10.71,9.1c-1.69,1.36-3.09,2.63-3.09,2.79c0,0.17,0.38,0.42,0.8,0.55
		c0.51,0.13,2.37-0.76,5.04-2.46c2.29-1.44,4.45-2.75,4.7-2.92c0.3-0.21,0.55-0.25,0.55-0.13c0,0.13-1.86,1.57-4.11,3.22
		c-3.73,2.71-4.15,3.18-4.28,4.49c-0.08,0.85-0.13,1.52-0.04,1.52c0.04,0,2.16-1.35,4.66-2.96c4.87-3.13,7.58-5.55,8.72-7.79
		c0.76-1.48,0.93-5.37,0.25-6.56C290.35,227.52,290.05,227.69,288.19,229.34z"/>
	<path class="st0" d="M300.17,231.46l-5.33,3.94l0.93,0.97l0.93,0.97l1.95-0.97c1.1-0.59,2.71-1.52,3.56-2.12
		c2.79-1.91,1.78-0.85-1.78,1.86c-1.9,1.44-3.43,2.92-3.43,3.34c0,0.38-0.13,1.14-0.25,1.65c-0.34,1.27,0.17,1.23,1.74-0.13
		c0.72-0.59,4.45-3.18,8.26-5.8c13.34-9.06,16.93-12.7,19.09-19.09c0.8-2.5,0.97-9.02,0.3-11.94l-0.34-1.44l-2.71,4.45
		C317.74,216,310.03,224.22,300.17,231.46z"/>
	<path class="st0" d="M293.1,226.71c1.35,0,6.31-3.64,10.92-8.08c2.62-2.46,3.56-3.26,2.16-1.74c-1.44,1.52-4.83,4.99-7.62,7.7
		c-4.74,4.62-5.04,5-4.91,6.39c0.08,0.89,0.3,1.31,0.47,1.02c0.17-0.3,3.73-3.26,7.87-6.6c12.36-10.03,15.79-13.59,18.63-19.56
		c2.46-5.04,2.88-10.2,1.48-16.77l-0.47-2.12l-2.41,4.62c-5.8,11.18-13.93,21.38-24.56,30.78c-2.96,2.63-3.3,3.09-2.84,3.68
		C292.17,226.42,292.72,226.71,293.1,226.71z"/>
	<path class="st0" d="M292.29,221.68c0-0.17,4.23-4.7,9.4-10.03c13.67-14.18,16.38-18.67,16.38-27.14
		c0.04-4.02-1.23-10.71-1.86-9.95c-0.17,0.21-1.14,2.54-2.12,5.25c-4.57,12.15-10.88,22.39-18.88,30.61l-3.01,3.09l-0.08,4.28
		c-0.04,2.33,0,4.28,0.04,4.28C292.25,222.06,292.29,221.89,292.29,221.68z"/>
	<path class="st0" d="M255.8,332.6c-0.13-0.13-1.06,0.55-2.07,1.44c-1.74,1.52-1.91,1.86-1.99,3.81c-0.13,2.75-0.13,2.37-0.97,4.06
		c-0.8-1.69-0.8-1.31-0.93-4.06c-0.08-1.95-0.25-2.29-1.99-3.81c-1.02-0.89-1.99-1.57-2.07-1.44c-0.13,0.13-0.25,2.63-0.25,5.55
		c-0.04,4.44,0.08,5.67,0.76,7.24c0.76,1.65,2.67,3.77,4.49,4.61c1.82-0.85,3.77-2.96,4.49-4.61c0.72-1.57,0.85-2.79,0.8-7.24
		C256.01,335.23,255.93,332.73,255.8,332.6z"/>
	<path class="st0" d="M243.69,332.56c-1.4-0.47-1.44-0.42-2.67,2.96c-0.42,1.18-0.34-0.51,0.13-2.24c0.38-1.36,0.34-1.74-0.63-3.18
		c-0.64-0.89-1.19-1.7-1.27-1.78c-0.3-0.3-1.95,5.55-1.91,6.9c0,2.41,1.44,4.78,3.89,6.43l2.24,1.53l0.3-3.47
		c0.17-1.9,0.51-4.02,0.76-4.74C245.17,333.15,245.13,333.06,243.69,332.56z"/>
	<path class="st0" d="M236.45,327.86c-1.27-0.59-1.14-0.68-1.99,1.23c-0.38,0.85-0.59,1.14-0.47,0.68c0.89-3.01,1.19-5,0.8-5.76
		c-0.34-0.8-0.51-0.68-1.82,1.23c-2.58,3.77-2.24,7.15,0.97,9.48c1.57,1.14,1.74,1.18,2.03,0.51c0.17-0.42,0.3-1.4,0.34-2.12
		c0-0.72,0.3-2.12,0.63-3.05C237.51,328.41,237.51,328.32,236.45,327.86z"/>
	<path class="st0" d="M253.18,317.02l-1.74,1.48l-0.13,4.44c-0.08,2.46-0.3,4.45-0.47,4.45c-0.21,0-0.42-1.99-0.55-4.49l-0.21-4.44
		l-1.65-1.48l-1.65-1.44l-0.38,1.57c-0.17,0.85-0.25,3.94-0.17,6.9c0.17,5.84,1.02,8.51,3.22,10.25c1.31,1.02,1.44,1.02,2.75-0.04
		c2.07-1.61,3.01-4.36,3.18-9.36c0.13-2.46,0.04-5.59-0.17-6.9l-0.34-2.41L253.18,317.02z"/>
	<path class="st0" d="M245.05,314.73c-0.64,0-3.73,8.47-3.9,10.84c-0.17,1.52,0.04,2.37,0.68,3.43c0.97,1.57,1.74,1.74,2.67,0.63
		c0.55-0.59,0.72-2.2,0.85-7.75C245.43,317.44,245.34,314.82,245.05,314.73z"/>
	<path class="st0" d="M259.86,328.58c0.63-1.23,0.8-2.07,0.59-3.43c-0.47-2.84-3.43-10.33-4.15-10.33c-0.34,0-0.55,0.34-0.47,0.85
		c0.04,0.47,0.21,3.64,0.38,7.03c0.17,4.7,0.42,6.39,0.93,6.94C258.09,330.74,258.93,330.4,259.86,328.58z"/>
	<path class="st0" d="M238.87,326.54c0.47-0.25,0.97-1.31,1.31-2.67c0.3-1.23,1.27-3.98,2.16-6.05l1.65-3.81l-1.1-1.1
		c-0.89-0.93-1.14-0.97-1.44-0.42c-0.21,0.34-1.27,1.78-2.33,3.18c-3.43,4.53-4.32,7.32-3.26,10.2
		C236.33,327.05,237.47,327.31,238.87,326.54z"/>
	<path class="st0" d="M261.3,323.54c0.64,2.54,1.44,3.43,3.05,3.43c0.68,0,1.1-0.34,1.4-1.1c0.68-1.74,0.51-3.9-0.47-5.84
		c-1.1-2.16-5.38-8-5.88-8c-0.21,0-0.68,0.51-1.1,1.1c-0.68,1.02-0.64,1.18,0.85,4.53C259.99,319.6,260.97,322.23,261.3,323.54z"/>
	<path class="st0" d="M262.32,328.32c-0.08,0.08-0.68,0.89-1.27,1.78c-0.97,1.44-1.06,1.82-0.68,3.18c0.47,1.73,0.59,3.43,0.13,2.24
		c-1.23-3.39-1.27-3.43-2.62-2.96c-1.48,0.51-1.48,0.59-0.85,2.41c0.21,0.72,0.55,2.84,0.72,4.74l0.3,3.47l2.29-1.53
		c2.46-1.65,3.89-4.02,3.89-6.43C264.23,333.87,262.62,328.03,262.32,328.32z"/>
	<path class="st0" d="M266.72,324c-0.34,0.76-0.04,2.75,0.8,5.76c0.13,0.47-0.04,0.17-0.42-0.68c-0.89-1.91-0.76-1.82-2.03-1.23
		c-1.06,0.47-1.06,0.55-0.47,2.2c0.34,0.93,0.63,2.33,0.63,3.05c0,0.72,0.17,1.69,0.34,2.12c0.25,0.68,0.47,0.63,2.03-0.51
		c3.18-2.33,3.51-5.72,0.93-9.48C267.27,323.33,267.1,323.2,266.72,324z"/>
	<path class="st0" d="M259.4,309.86c-2.71,1.78-7.87,4.95-8.59,5c-0.76-0.04-5.8-3.13-8.51-4.91c0.13,0.47,0.72,1.31,1.61,2.16
		c1.65,1.61,6.39,5.04,6.94,5.04s5.29-3.43,6.99-5.04C258.76,311.22,259.36,310.33,259.4,309.86z"/>
	<path class="st0" d="M285.39,321.47c-1.1,1.06-3.13,2.75-4.49,3.81c-2.75,2.16-3.26,3.09-2.24,4.23c0.63,0.72,0.93,0.51,5.38-3.94
		c4.28-4.23,4.66-4.74,4.06-5.33C287.51,319.64,287.26,319.77,285.39,321.47z"/>
	<path class="st0" d="M323.03,278.92c-4.02,3.51-4.49,4.02-4.49,5.21c0,1.1-2.37,4.02-3.3,4.02c-0.21,0-0.38-0.76-0.34-1.74
		c0.04-1.48,0.3-1.99,1.65-3.18c1.35-1.14,1.74-1.91,2.24-4.11c0.34-1.48,0.8-3.18,1.06-3.81c1.02-2.46-1.44-4.4-2.88-2.24
		c-0.34,0.55-0.89,1.02-1.23,1.02c-0.85,0-1.23,0.85-1.31,3.18c-0.04,1.19-0.17,2.92-0.25,3.85c-0.08,0.93-0.21,2.37-0.25,3.22
		c-0.13,1.36-0.17,1.4-0.55,0.55c-0.76-1.48-2.03-1.57-2.84-0.13c-0.42,0.68-1.1,1.27-1.57,1.36c-0.72,0.08-0.89,0.47-0.89,2.03
		c0,1.06-0.25,2.37-0.55,2.92c-0.3,0.51-0.42,1.14-0.25,1.4c0.13,0.25,0.13,1.35-0.04,2.45c-0.34,1.86-0.38,1.91-0.59,0.72
		c-0.13-0.72-0.47-1.31-0.68-1.31c-0.25,0-0.63-0.13-0.93-0.34c-0.51-0.3-2.24,1.19-2.24,1.91c0,0.21-0.34,0.21-0.72,0.08
		c-0.97-0.38-1.86,0.98-1.86,2.88c0,0.89-0.3,1.82-0.63,2.12c-0.34,0.25-0.64,1.06-0.64,1.69c0,0.68-0.38,2.79-0.85,4.79
		c-0.72,2.96-1.06,3.73-2.24,4.66l-1.57,1.35c0,0,0.21,0.25,1.02,0.93c0.63,0.8,0.72,0.8,2.33-1.02c1.23-1.31,2.54-2.16,4.83-3.05
		c1.69-0.68,3.39-1.23,3.77-1.27c0.38,0,1.02-0.38,1.4-0.8c0.42-0.42,1.48-0.93,2.37-1.06c1.74-0.3,2.84-1.23,2.37-1.99
		c-0.17-0.25,0.13-0.93,0.64-1.44c0.68-0.72,0.85-1.27,0.64-2.12c-0.25-0.93-0.55-1.14-1.69-1.14c-0.8,0-1.57,0.21-1.74,0.47
		c-0.13,0.25-0.68,0.63-1.19,0.89c-0.51,0.21-1.95,1.02-3.22,1.78c-1.82,1.06-2.41,1.73-2.88,3.01c-0.72,2.16-1.23,2.71-3.26,3.77
		l-1.65,0.85l0.3-1.02c0.85-2.75,1.48-3.68,3.22-4.66c1.61-0.89,1.99-1.4,3.13-4.28c1.57-3.94,2.37-5,2.37-3.09
		c0,0.85-0.38,1.65-1.06,2.29c-1.23,1.18-1.31,1.65-0.42,1.99c0.38,0.17,1.31-0.34,2.24-1.18c0.89-0.8,3.05-2.16,4.87-3.05
		c1.78-0.89,3.34-1.86,3.47-2.2c0.13-0.3,0.8-0.72,1.52-0.85c1.48-0.34,2.37-1.23,2.03-2.12c-0.13-0.34,0.17-1.14,0.68-1.78
		c0.64-0.8,0.76-1.23,0.42-1.36c-0.3-0.08-0.51-0.42-0.51-0.72c0-1.02-2.33-0.42-3.85,1.02c-0.85,0.76-2.2,1.86-3.09,2.46
		c-1.19,0.8-1.65,1.48-1.86,2.62c-0.34,2.08-1.06,3.09-2.75,4.07c-1.27,0.76-1.35,0.76-1.1,0.08c0.13-0.42,0.25-1.23,0.25-1.78
		c0-1.02,0.8-1.99,2.88-3.64c0.55-0.42,1.14-1.86,1.61-3.85c0.93-3.77,1.06-4.06,1.61-3.18c0.25,0.51,0.13,1.14-0.47,2.08
		c-1.57,2.62-0.08,3.39,1.65,0.85c0.8-1.1,2.12-2.07,4.4-3.26c1.82-0.89,3.43-1.86,3.51-2.16c0.13-0.3,1.1-0.89,2.16-1.31
		c1.57-0.59,1.86-0.89,1.78-1.65c-0.08-0.51,0.17-1.4,0.55-1.99c0.51-0.76,0.55-1.23,0.21-1.91
		C327.05,276.42,325.36,276.84,323.03,278.92z"/>
	<path class="st0" d="M321.72,272.44c0.13,0.72,0,1.31-0.42,1.65c-0.34,0.3-0.59,1.27-0.59,2.2c0,0.93-0.3,2.25-0.68,2.92
		c-0.34,0.72-0.51,1.27-0.34,1.27c0.17,0,1.35-1.02,2.67-2.24c1.31-1.23,2.33-2.41,2.24-2.63c-0.04-0.21,0.42-0.93,1.1-1.65
		c0.8-0.89,1.02-1.31,0.64-1.48c-0.47-0.13-0.42-0.38,0.17-1.02c0.93-1.02,1.14-5.04,0.3-5.38c-0.3-0.08-0.55-0.47-0.55-0.81
		c0-0.8-1.27-0.76-1.57,0.04c-0.13,0.38-0.55,0.63-0.93,0.55c-0.55-0.08-0.68,0.17-0.59,1.1c0.08,0.72-0.04,1.1-0.3,0.93
		c-0.64-0.38-0.97,0.51-0.51,1.44c0.34,0.59,0.3,0.93-0.21,1.35C321.68,271.08,321.55,271.68,321.72,272.44z"/>
	<path class="st0" d="M284.63,317.44c0,0.34,0.34,1.06,0.68,1.65l0.68,1.02l2.2-1.74c2.5-1.95,3.47-3.43,3.05-4.66
		c-0.13-0.42-0.13-0.68,0-0.76c1.27,0.3,2.12,1.1,2.92,1.95c0.55-2.63-1.35-3.73-2.79-3.73c-0.55,0-1.57,0.59-2.24,1.31
		c-1.69,1.78-3.05,1.65-8.81-0.8c-2.33-1.02-4.36-1.74-4.91-1.78c-0.08,0-0.13,0.04-0.17,0.04l0.93,2.75
		c0.17,0.47,0.34,1.36,0.34,1.99c0.04,1.27,0.38,1.35,5.25,1.82C283.87,316.72,284.63,316.98,284.63,317.44z"/>
	<path class="st0" d="M294.12,315.88c-1.14,0-1.61,0.08-2.84,0.42c0.93,0.59,2.24,1.65,3.89,2.46c1.1,0.21,1.95-1.06,1.4-2.08
		C296.23,316.09,295.64,315.88,294.12,315.88z"/>
	<path class="st0" d="M289.67,319.9c-0.38-0.08-0.64-0.13-0.8-0.13s-0.3,0.04-0.3,0.21c0,0.25,0.38,0.89,1.1,2.07
		c1.48,2.46,3.09,2.67,3.09,0.38C292.76,321.38,291.53,320.36,289.67,319.9z"/>
	<path class="st0" d="M291.83,318.2l-2.29-0.25l2.03,1.95c2.16,2.12,2.5,2.29,3.3,1.31c0.42-0.51,0.47-0.93,0.08-1.69
		C294.12,318.8,294.24,318.5,291.83,318.2z"/>
	<path class="st0" d="M266.43,306.27l1.4,1.44l1.35,1.44v-3.13c0-1.73-0.21-3.89-0.47-4.82c-0.17-0.59-0.25-0.98-0.34-1.14
		c-0.21,0.42-0.38,0.8-0.64,1.27c-0.13,0.21-0.25,0.42-0.38,0.63c0.17,0.42,0.34,1.14,0.42,1.78l0.21,1.27l-0.85-1.19l-0.55-0.8
		c-0.59,0.85-1.4,1.78-2.24,2.67l-0.04,0.09c-0.08,0.38-0.08,0.85,0,1.4l0.25,1.69l-0.72-1.18c-0.25-0.47-0.47-0.72-0.64-0.85
		c-0.51,0.47-1.06,0.97-1.57,1.44c0.64,1.4,3.85,5.93,4.11,5.67c0.13-0.13,0.34-1.91,0.47-3.94L266.43,306.27z"/>
	<path class="st0" d="M273.88,309.31l-0.8-1.57l-0.25,1.48l-0.25,1.44c-0.42-2.16-1.02-4.02-2.75-5.67
		c0.34,2.24,0.34,4.19-0.17,5.89c-0.85-0.85-1.65-2.03-2.75-2.67v2.96c0,1.44-0.13,2.92-0.25,3.22c-0.13,0.38,0.21,0.8,0.8,1.1
		c0.68,0.3,1.57,1.48,2.33,3.09c1.31,2.79,1.74,2.79,2.2,0.08l0.21-1.44l1.91,1.61l1.86,1.61l-0.21-4.02
		C275.61,313.93,275.36,311.77,273.88,309.31z"/>
	<path class="st0" d="M212.57,319.77c-0.17,0-0.47,0.04-0.8,0.13c-1.9,0.47-3.09,1.48-3.09,2.54c0,2.29,1.61,2.08,3.09-0.38
		c0.72-1.23,1.06-1.82,1.06-2.12C212.83,319.81,212.74,319.77,212.57,319.77z"/>
	<path class="st0" d="M211.85,317.95l-2.29,0.25c-2.37,0.3-2.29,0.59-3.13,1.31c-0.34,0.76-0.34,1.18,0.08,1.69
		c0.8,0.97,1.14,0.8,3.34-1.31L211.85,317.95z"/>
	<path class="st0" d="M210.12,316.3c-1.19-0.34-1.65-0.42-2.84-0.42c-1.52,0-2.12,0.21-2.41,0.8c-0.55,1.02,0.25,2.29,1.35,2.08
		C207.87,317.95,209.19,316.89,210.12,316.3z"/>
	<path class="st0" d="M226.04,309.91c-0.55,0.04-2.63,0.76-4.95,1.78c-5.72,2.45-7.07,2.58-8.81,0.8c-0.68-0.72-1.65-1.31-2.2-1.31
		c-1.44,0-3.39,1.1-2.79,3.73c0.8-0.85,1.61-1.65,2.92-1.95c0.13,0.08,0.08,0.34-0.04,0.76c-0.38,1.23,0.59,2.71,3.05,4.66l2.2,1.74
		l0.68-1.02c0.38-0.59,0.68-1.31,0.68-1.65c0-0.47,0.76-0.72,2.88-0.93c4.91-0.47,5.21-0.55,5.25-1.82
		c0.04-0.63,0.21-1.52,0.38-1.99l0.89-2.75C226.16,309.95,226.12,309.91,226.04,309.91z"/>
	<path class="st0" d="M235.01,306.27l0.21,3.73c0.13,2.03,0.34,3.81,0.47,3.94c0.25,0.25,3.56-4.44,4.15-5.76
		c-0.51-0.42-1.02-0.89-1.52-1.4h-0.04c-0.21,0.13-0.42,0.42-0.72,0.89l-0.68,1.18l0.21-1.69c0.08-0.68,0.13-1.14,0-1.61
		c-0.85-0.89-1.61-1.78-2.2-2.63l-0.59,0.89l-0.85,1.19l0.17-1.27c0.13-0.72,0.34-1.56,0.47-1.95v-0.04
		c-0.08-0.17-0.17-0.3-0.25-0.42c-0.25-0.51-0.47-0.93-0.63-1.4h-0.04c-0.13,0.13-0.25,0.55-0.42,1.27
		c-0.3,0.93-0.51,3.09-0.51,4.82v3.13l1.4-1.44L235.01,306.27z"/>
	<path class="st0" d="M233.95,315.5c0.63-0.3,0.97-0.72,0.8-1.1c-0.13-0.3-0.21-1.78-0.21-3.22l-0.04-2.96
		c-1.06,0.63-1.91,1.82-2.71,2.67c-0.55-1.7-0.51-3.64-0.21-5.89c-1.74,1.65-2.33,3.51-2.71,5.67l-0.25-1.44l-0.25-1.48l-0.85,1.57
		c-1.44,2.46-1.74,4.61-1.82,7.11l-0.25,4.02l1.91-1.61l1.86-1.61l0.25,1.44c0.42,2.71,0.85,2.71,2.2-0.08
		C232.43,316.98,233.32,315.79,233.95,315.5z"/>
	<path class="st0" d="M207.11,315.37c-0.3-0.8-0.76-2.46,0.72-3.68l-0.08-0.13l3.68-2.75c2.07-1.44,0.76-3.39-0.34-4.95
		c-1.35-1.82-3.81-0.97-2.62,1.86l0.97,2.12l-2.67,2.07L178.2,267.7l-5.76-2.92l1.02,6.35l30.86,40.56l-2.84,1.86l-1.69-1.61
		c-2.29-2.03-3.85,0.04-2.58,1.9c1.1,1.52,2.58,3.39,4.57,1.91l3.77-2.63L207.11,315.37z"/>
	<path class="st0" d="M214.18,320.49c-0.93,0-1.69,0.76-1.69,1.74c0,0.93,0.76,1.69,1.69,1.69c0.93,0,1.69-0.76,1.69-1.69
		C215.88,321.25,215.11,320.49,214.18,320.49z"/>
	<path class="st0" d="M233.49,277.48l0.13,10.41c0.13,10.71,0.17,10.75,1.27,12.83c1.06,2.03,3.85,5.12,6.52,7.16
		c1.74,1.35,8.21,5.29,9.36,5.76c1.14-0.47,7.62-4.4,9.36-5.76c2.67-2.03,5.46-5.12,6.52-7.16c1.14-2.07,1.14-2.12,1.27-12.83
		l0.17-10.41c-3.22-1.35-6.86-4.23-8.17-8.51h-18.29C240.3,273.24,236.66,276.12,233.49,277.48z M235.35,293.56
		c-0.8,0-1.44-0.68-1.44-1.44c0-0.8,0.63-1.44,1.44-1.44c0.8,0,1.44,0.64,1.44,1.44C236.79,292.89,236.16,293.56,235.35,293.56z
		 M235.35,280.48c-0.8,0-1.44-0.68-1.44-1.44c0-0.8,0.63-1.44,1.44-1.44c0.8,0,1.44,0.64,1.44,1.44
		C236.79,279.8,236.16,280.48,235.35,280.48z M239.88,305.5c-0.8,0-1.44-0.63-1.44-1.44c0-0.76,0.63-1.4,1.44-1.4
		c0.76,0,1.4,0.64,1.4,1.4C241.28,304.87,240.64,305.5,239.88,305.5z M250.76,312.45c-0.8,0-1.44-0.63-1.44-1.44
		c0-0.76,0.63-1.4,1.44-1.4c0.8,0,1.44,0.63,1.44,1.4C252.2,311.81,251.57,312.45,250.76,312.45z M261.69,305.5
		c-0.76,0-1.44-0.63-1.44-1.44c0-0.76,0.68-1.4,1.44-1.4c0.8,0,1.44,0.64,1.44,1.4C263.12,304.87,262.49,305.5,261.69,305.5z
		 M266.22,277.6c0.8,0,1.44,0.64,1.44,1.44c0,0.76-0.63,1.44-1.44,1.44c-0.8,0-1.44-0.68-1.44-1.44
		C264.78,278.24,265.41,277.6,266.22,277.6z M266.22,290.68c0.8,0,1.44,0.64,1.44,1.44c0,0.76-0.63,1.44-1.44,1.44
		c-0.8,0-1.44-0.68-1.44-1.44C264.78,291.32,265.41,290.68,266.22,290.68z M264.31,280.19l0.38,0.13l-0.13,8.47
		c-0.08,8.04-0.08,8.21-1.06,10.03c-0.85,1.65-3.01,4.02-5.12,5.63c-1.06,0.85-6.86,4.49-7.58,4.53c-0.8-0.04-6.6-3.68-7.66-4.53
		c-2.07-1.61-4.28-3.98-5.12-5.63c-0.97-1.82-0.97-1.99-1.06-10.03l-0.13-8.47l0.38-0.13c2.29-0.93,5-3.01,5.84-6.1l0.08-0.47h15.24
		l0.13,0.47C259.31,277.18,262.02,279.25,264.31,280.19z M258.55,269.94c0.8,0,1.44,0.68,1.44,1.44c0,0.8-0.63,1.44-1.44,1.44
		c-0.8,0-1.44-0.63-1.44-1.44C257.11,270.62,257.75,269.94,258.55,269.94z M250.76,269.94c0.8,0,1.44,0.68,1.44,1.44
		c0,0.8-0.64,1.44-1.44,1.44c-0.8,0-1.44-0.63-1.44-1.44C249.32,270.62,249.96,269.94,250.76,269.94z M243.01,269.94
		c0.8,0,1.44,0.68,1.44,1.44c0,0.8-0.64,1.44-1.44,1.44c-0.8,0-1.44-0.63-1.44-1.44C241.57,270.62,242.21,269.94,243.01,269.94z"/>
	<path class="st0" d="M251.02,314.14c-0.08,0.04-0.17,0.09-0.21,0.09l0.04,0.04L251.02,314.14z"/>
	<polygon class="st0" points="247.63,267.78 247.33,267.78 247.46,267.87 	"/>
	<path class="st0" d="M244.07,274.85c-1.02,3.13-3.68,5.25-6.01,6.27l0.08,7.66c0.13,7.92,0.13,7.96,0.93,9.48
		c0.8,1.48,2.84,3.73,4.83,5.25c1.27,1.02,5.97,3.85,6.9,4.23c0.72-0.34,5.55-3.22,6.82-4.23c1.99-1.52,4.06-3.77,4.83-5.25
		c0.8-1.52,0.85-1.56,0.93-9.48l0.08-7.66c-2.33-1.02-5-3.13-6.01-6.27H244.07z M260.5,287.6l-6.05,4.4l2.24,7.11l-6.01-4.4
		l-6.1,4.36l2.33-7.11l-6.01-4.4h7.45l2.37-7.07l2.29,7.07L260.5,287.6z"/>
	<path class="st0" d="M245.22,265.03c0.93-0.89,0.93-0.89,0.93-0.04c0,0.47,0.38,1.19,0.8,1.57c0.72,0.68,0.85,0.68,1.95-0.21
		c0.64-0.51,1.35-1.4,1.61-2.03l0.17-1.1l0.21,1.1c0.25,0.63,0.97,1.52,1.61,2.03c1.1,0.89,1.19,0.89,1.95,0.21
		c0.42-0.38,0.76-1.1,0.76-1.57c0-0.85,0.04-0.85,0.97,0.04c0.93,0.89,4.66,2.75,4.91,2.46c0.08-0.09-0.42-1.06-1.1-2.2
		c-0.72-1.14-1.52-3.05-1.82-4.23c-0.3-1.31-0.93-2.45-1.61-3.01l-1.1-0.93l-0.97,1.06c-0.59,0.63-0.97,1.61-1.02,2.58l-0.04,1.61
		l-0.47-1.82c-0.34-1.27-1.27-2.5-2.29-3.13c-0.97,0.63-1.95,1.86-2.29,3.13l-0.42,1.82l-0.04-1.61c-0.04-0.97-0.42-1.95-1.02-2.58
		l-0.97-1.06l-1.1,0.93c-0.68,0.55-1.31,1.7-1.61,3.01c-0.3,1.19-1.1,3.09-1.82,4.23c-0.68,1.15-1.19,2.12-1.1,2.2
		C240.56,267.78,244.24,265.92,245.22,265.03z"/>
	<path class="st0" d="M128.09,239.93c-0.13-0.25-0.29-0.49-0.46-0.71c-0.35-0.42-1.16-0.94-2.46-1.57c-1.17-0.57-1.62-0.94-1.8-1.15
		c-0.22-0.26-0.32-0.66-0.27-1.2c0-0.05,0.01-0.18,0.05-0.46c0.02-0.17,0.03-0.29,0.03-0.35l0.02-0.36l-2.36-0.17l-0.1,0.24
		c-0.03,0.07-0.05,0.11-0.14,1.34c-0.05,0.67,0.06,1.3,0.33,1.88c0.26,0.58,0.62,1.04,1.06,1.39c0.41,0.31,1.09,0.72,2.08,1.23
		c1.58,0.82,2.15,1.29,2.36,1.53c0.22,0.27,0.33,0.73,0.32,1.37l-6.66-0.49l-0.2,2.73l15.94,1.18l0.2-2.73l-7.11-0.52
		c0.09-0.49,0.3-0.88,0.62-1.19c0.43-0.41,1.23-0.92,2.39-1.52l4.5-2.33l0.25-3.35l-5.87,3.06
		C129.54,238.42,128.62,239.15,128.09,239.93z"/>
	<path class="st0" d="M134.93,219.73c-1.19-0.25-2.33-0.08-3.43,0.51c-1.14,0.59-1.95,2.07-2.5,4.53l-0.76,3.22l-6.35-1.44
		l-0.59,2.67l15.62,3.51l1.31-6.01c0.51-2.29,0.42-3.89-0.34-4.95S136.16,220.03,134.93,219.73z M135.86,226.25l-0.76,3.26
		l-4.45-1.02l0.51-2.29c0.3-1.23,0.55-2.08,0.76-2.54s0.51-0.76,0.93-0.97c0.42-0.21,0.89-0.25,1.44-0.13
		c0.8,0.17,1.31,0.55,1.57,1.1C136.11,224.22,136.11,225.11,135.86,226.25z"/>
	
		<rect x="130.95" y="208.62" transform="matrix(0.2188 -0.9758 0.9758 0.2188 -108.0017 298.3282)" class="st0" width="2.74" height="15.99"/>
	<path class="st0" d="M142.72,210.84l-5.76-2.29l1.31-3.3c0.85-2.12,0.97-3.73,0.38-4.95c-0.55-1.14-1.52-2.03-2.79-2.54
		c-0.76-0.3-1.52-0.42-2.29-0.34c-0.76,0.04-1.4,0.25-1.99,0.63c-0.55,0.38-1.02,0.93-1.44,1.61c-0.3,0.47-0.64,1.19-1.02,2.16
		l-2.29,5.67l14.86,5.93L142.72,210.84z M135.94,204.32l-1.31,3.3l-4.4-1.74l1.27-3.3c0.42-1.02,0.68-1.44,0.8-1.61
		c0.25-0.38,0.63-0.59,1.1-0.72c0.47-0.13,0.93-0.08,1.48,0.13c0.72,0.3,1.19,0.72,1.4,1.31
		C136.49,202.28,136.37,203.17,135.94,204.32z"/>
	<polygon class="st0" points="147.7,199.17 149.02,196.77 137.21,190.3 140.98,183.42 138.77,182.21 133.68,191.5 147.39,199 	"/>
	<path class="st0" d="M157.58,183.02c1.4-1.82,1.95-3.34,1.69-4.66c-0.25-1.27-0.89-2.29-1.91-3.05c-0.93-0.72-2.07-1.06-3.3-0.97
		c-1.27,0.08-2.63,1.1-4.15,3.13l-1.99,2.63l-5.21-3.94l-1.65,2.2l12.79,9.61L157.58,183.02z M149.92,181.58l1.4-1.91
		c0.76-0.97,1.35-1.65,1.74-2.03c0.38-0.3,0.76-0.47,1.23-0.47c0.47-0.04,0.93,0.13,1.4,0.47c0.64,0.51,0.97,1.02,0.97,1.61
		c0,0.63-0.38,1.44-1.1,2.37l-1.99,2.71L149.92,181.58z"/>
	
		<rect x="154.93" y="163.41" transform="matrix(0.6004 -0.7997 0.7997 0.6004 -74.6161 193.4804)" class="st0" width="2.74" height="15.99"/>
	<path class="st0" d="M158.22,165.14l2.35-1.46l-0.32-0.32c-0.13-0.13-0.36-0.44-0.71-1.14c-0.27-0.54-0.35-1.08-0.24-1.66
		c0.11-0.59,0.41-1.13,0.9-1.61c0.56-0.56,1.14-0.83,1.77-0.84c0.6,0.01,1.11,0.18,1.51,0.58c0.33,0.34,0.51,0.75,0.55,1.25
		c0.04,0.5-0.06,0.92-0.29,1.28c-0.26,0.4-0.72,0.92-1.36,1.55l-0.26,0.25l1.74,1.77l0.95-0.93c0.74-0.73,1.48-1.14,2.22-1.24
		c0.71-0.09,1.29,0.11,1.8,0.63c0.48,0.48,0.68,1.07,0.63,1.79c-0.05,0.73-0.42,1.45-1.12,2.13c-0.67,0.67-1.42,0.98-2.3,0.88
		c-0.9-0.08-1.65-0.32-2.22-0.71l-0.32-0.21l-1.41,2.35l0.32,0.18c1.26,0.71,2.45,1.07,3.58,1.07c1.48,0,2.84-0.61,4.07-1.83
		c1.25-1.24,1.95-2.59,2.05-4.01c0.11-1.45-0.34-2.7-1.33-3.7c-0.7-0.72-1.53-1.13-2.44-1.24c-0.66-0.08-1.28-0.03-1.87,0.17
		c0.18-1.33-0.19-2.47-1.12-3.42c-0.82-0.84-1.87-1.26-3.12-1.26c-0.04,0-0.08,0-0.12,0c-1.3,0.02-2.53,0.6-3.65,1.71
		c-2.35,2.31-2.5,4.9-0.45,7.7L158.22,165.14z"/>
	<path class="st0" d="M184.21,156.69l-3.47-5.16l2.96-1.95c1.86-1.27,2.92-2.54,3.13-3.85c0.21-1.31-0.08-2.54-0.85-3.68
		c-0.47-0.68-1.02-1.23-1.65-1.56c-0.68-0.42-1.35-0.59-2.03-0.64c-0.64,0-1.35,0.17-2.12,0.51c-0.51,0.21-1.19,0.63-2.07,1.19
		l-5.08,3.39l8.89,13.29L184.21,156.69z M176.71,145.51l2.96-1.99c0.89-0.59,1.35-0.8,1.57-0.89c0.42-0.13,0.85-0.13,1.31,0.04
		c0.42,0.17,0.8,0.51,1.14,0.98c0.42,0.63,0.55,1.27,0.38,1.86c-0.17,0.63-0.76,1.27-1.74,1.95l-3.01,1.99L176.71,145.51z"/>
	<polygon class="st0" points="205.79,144.57 204.69,142.3 196.26,146.41 194.3,142.38 201.9,138.68 200.8,136.43 193.2,140.12 
		191.47,136.57 199.58,132.62 198.47,130.35 187.9,135.5 194.9,149.87 	"/>
	<path class="st0" d="M207.86,139.58c0.95,1.09,2.06,1.82,3.31,2.16c0.49,0.13,1,0.2,1.55,0.2c0.86,0,1.79-0.16,2.79-0.48
		c1.59-0.51,2.81-1.39,3.63-2.62c0.82-1.24,1.18-2.77,1.07-4.55l-0.02-0.36l-2.81,0.18l0.04,0.37c0.12,1.22-0.07,2.24-0.57,3.03
		c-0.51,0.8-1.24,1.34-2.24,1.66c-0.82,0.26-1.66,0.3-2.5,0.11c-0.82-0.19-1.55-0.66-2.15-1.39c-0.62-0.77-1.13-1.77-1.52-2.95
		c-0.3-0.91-0.44-1.86-0.43-2.82c0.01-0.92,0.28-1.75,0.81-2.46c0.53-0.71,1.33-1.24,2.37-1.58c0.88-0.29,1.7-0.31,2.42-0.06
		c0.72,0.25,1.41,0.83,2.04,1.71l0.19,0.27l2.36-1.43l-0.21-0.31c-0.86-1.27-1.96-2.15-3.26-2.59c-1.3-0.44-2.73-0.42-4.25,0.07
		c-1.33,0.43-2.48,1.14-3.4,2.11c-0.92,0.98-1.5,2.17-1.73,3.55c-0.22,1.36-0.08,2.85,0.43,4.4
		C206.23,137.23,206.93,138.5,207.86,139.58z"/>
	<polygon class="st0" points="227.39,138.06 225.16,124.78 232.29,123.59 234.52,136.86 237.24,136.41 234.59,120.64 222.03,122.75 
		224.69,138.52 	"/>
	<path class="st0" d="M244.47,133.48c-0.28,0.26-0.61,0.4-1.02,0.41c-0.57,0.01-1.06-0.11-1.55-0.37l-0.55-0.3l0.08,2.61l0.25,0.07
		c0.74,0.21,1.39,0.32,1.93,0.32c0.04,0,0.07,0,0.11,0c0.95-0.03,1.69-0.32,2.2-0.86c0.48-0.5,1.04-1.51,1.74-3.07l5.59-12.56
		l-2.81,0.08l-3.87,9.03l-5.01-8.75l-2.87,0.09l6.75,11.4C245.01,132.8,244.68,133.29,244.47,133.48z"/>
	<path class="st0" d="M263.51,136.58c0.97,0,1.74-0.13,2.29-0.38c0.76-0.38,1.4-0.93,1.82-1.61c0.47-0.68,0.72-1.44,0.8-2.29
		c0.08-0.97-0.08-1.91-0.51-2.71c-0.47-0.85-1.1-1.44-1.95-1.82c-0.8-0.34-1.91-0.59-3.26-0.72l-3.26-0.34l0.38-3.94l7.83,0.76
		l0.25-2.5l-10.58-1.06l-1.57,15.92l6.31,0.59C262.62,136.58,263.08,136.58,263.51,136.58z M259.19,129.17l2.33,0.21
		c1.27,0.13,2.2,0.3,2.71,0.51c0.47,0.13,0.8,0.42,1.02,0.8c0.25,0.38,0.34,0.85,0.3,1.4c-0.08,0.76-0.38,1.31-0.89,1.65
		c-0.51,0.34-1.27,0.42-2.24,0.34l-3.68-0.34L259.19,129.17z"/>
	<path class="st0" d="M271.16,137.98c0.8,0.2,1.53,0.12,2.17-0.21c0.63-0.33,1.13-0.89,1.47-1.64c0.33-0.69,0.67-1.82,1.05-3.43
		l1.72-7.3l4.67,1.1l-3.09,13.1l2.67,0.63l3.67-15.56l-10.01-2.36l-2.55,10.81c-0.37,1.58-0.67,2-0.79,2.11
		c-0.22,0.2-0.48,0.25-0.79,0.18c-0.13-0.03-0.34-0.11-0.65-0.34l-0.36-0.26l-1.07,2.38l0.3,0.16
		C270.17,137.66,270.7,137.87,271.16,137.98z"/>
	<polygon class="st0" points="287.86,142.24 299,134.52 295.05,144.66 294.92,144.99 297.3,145.92 302.97,131.36 303.1,131.02 
		300.69,130.08 289.55,137.84 293.51,127.67 293.64,127.34 291.26,126.42 285.59,140.98 285.46,141.31 	"/>
	<path class="st0" d="M303.09,148.93l3.44-6.24c0.41,0.29,0.67,0.64,0.82,1.06c0.2,0.56,0.33,1.5,0.39,2.81l0.24,5.06l2.94,1.62
		l-0.33-6.62c-0.07-1.48-0.35-2.6-0.84-3.39c0.28-0.01,0.56-0.06,0.83-0.13c0.53-0.14,1.33-0.66,2.46-1.58
		c1.01-0.83,1.53-1.09,1.79-1.16c0.32-0.09,0.73-0.01,1.2,0.25l1.02,0.61l1.17-2.11l-0.2-0.19c-0.04-0.04-0.09-0.08-1.14-0.66
		c-0.58-0.32-1.19-0.48-1.82-0.48c-0.01,0-0.02,0-0.02,0c-0.64,0-1.21,0.13-1.7,0.39c-0.46,0.24-1.11,0.69-1.98,1.38
		c-1.41,1.09-2.07,1.42-2.38,1.5c-0.33,0.1-0.8,0-1.38-0.28l3.22-5.85l-2.4-1.32l-7.71,14.01L303.09,148.93z"/>
	<path class="st0" d="M310.97,153.22l2.37,1.74l4.06-2.75l4.78,3.47l-1.31,4.78l2.5,1.82l4.15-16.77l-2.16-1.57l-13.93,8.98
		L310.97,153.22z M323.07,148.43c0.47-0.34,0.93-0.68,1.4-1.02c-0.17,0.55-0.38,1.23-0.55,1.95l-1.06,3.85l-3.34-2.41L323.07,148.43
		z"/>
	<path class="st0" d="M327.3,164.9c0.3,1.26,1.07,2.5,2.29,3.69c1.2,1.16,2.55,1.82,4.01,1.97c0.2,0.02,0.4,0.03,0.6,0.03
		c1.29,0,2.6-0.41,3.91-1.22l0.31-0.19l-1.48-2.4l-0.31,0.21c-1.02,0.68-2.04,0.98-2.94,0.92c-0.94-0.07-1.77-0.46-2.52-1.2
		c-0.62-0.6-1.04-1.33-1.27-2.15c-0.22-0.82-0.14-1.68,0.22-2.56c0.38-0.91,1.02-1.83,1.89-2.73c0.67-0.69,1.44-1.26,2.29-1.7
		c0.84-0.43,1.67-0.58,2.55-0.44c0.88,0.13,1.72,0.59,2.51,1.35c0.67,0.65,1.07,1.36,1.19,2.11c0.12,0.75-0.07,1.62-0.55,2.6
		l-0.15,0.3l2.36,1.41l0.18-0.34c0.72-1.36,0.98-2.74,0.76-4.1c-0.22-1.35-0.91-2.6-2.06-3.72c-1-0.97-2.17-1.65-3.46-2
		c-1.3-0.36-2.62-0.31-3.95,0.14c-1.31,0.45-2.55,1.27-3.68,2.45c-1.05,1.07-1.84,2.29-2.35,3.62
		C327.14,162.31,327.02,163.63,327.3,164.9z"/>
	<polygon class="st0" points="344.63,185.98 346.27,188.18 358.78,178.82 359.07,178.61 357.44,176.41 344.92,185.77 	"/>
	<path class="st0" d="M336.62,175.32l3.73,4.91c1.4,1.86,2.67,2.84,3.98,2.96h0.51c1.1,0,2.07-0.3,2.96-0.97
		c0.97-0.72,1.61-1.69,1.86-2.92c0.3-1.23-0.34-2.84-1.82-4.83l-1.99-2.67l5.25-3.9l-1.65-2.16l-12.53,9.36L336.62,175.32z
		 M343.9,173.29l1.4,1.9c0.76,0.97,1.23,1.74,1.48,2.24c0.17,0.42,0.21,0.85,0.13,1.31c-0.13,0.47-0.42,0.85-0.85,1.18
		c-0.68,0.47-1.27,0.63-1.86,0.47s-1.27-0.72-1.95-1.69l-2.03-2.67L343.9,173.29z"/>
	<polygon class="st0" points="348.24,191.56 349.52,193.99 355.89,190.66 359.24,197.05 352.86,200.39 354.13,202.81 368.29,195.41 
		367.02,192.98 361.47,195.88 358.13,189.49 363.36,186.75 363.68,186.59 362.41,184.16 348.56,191.4 	"/>
	<path class="st0" d="M357.75,212.23c0.72,2.2,1.65,3.51,2.84,4.06c0.68,0.3,1.35,0.42,2.03,0.42c0.51,0,1.06-0.08,1.57-0.25
		c1.14-0.38,2.03-1.1,2.67-2.16c0.68-1.1,0.64-2.79-0.17-5.21l-1.06-3.09l6.22-2.07l-0.89-2.58l-15.16,5.04L357.75,212.23z
		 M363.29,206.77l0.76,2.2c0.38,1.19,0.59,2.08,0.68,2.63c0.04,0.47-0.04,0.89-0.3,1.27c-0.25,0.42-0.68,0.68-1.19,0.89
		c-0.76,0.25-1.4,0.21-1.91-0.13c-0.51-0.38-0.97-1.14-1.31-2.24l-1.06-3.18L363.29,206.77z"/>
	
		<rect x="360.02" y="216.45" transform="matrix(0.949 -0.3152 0.3152 0.949 -49.8951 127.092)" class="st0" width="15.98" height="2.74"/>
	<polygon class="st0" points="379.01,232.76 372.83,233.76 371.68,226.63 377.87,225.64 377.44,222.93 361.65,225.47 362.09,228.18 
		369.19,227.04 370.34,234.16 363.23,235.3 363.67,238.01 379.45,235.47 	"/>
	<path class="st0" d="M172.2,334.29l-9.21,3.41l2.9-9.66l-1.79-1.77l-0.02-0.05c-0.03-0.08-0.04-0.12-0.81-1.08
		c-0.42-0.52-0.93-0.91-1.53-1.14c-0.59-0.24-1.17-0.35-1.72-0.29c-0.51,0.05-1.31,0.23-2.36,0.53c-1.71,0.48-2.45,0.54-2.77,0.49
		c-0.35-0.05-0.75-0.31-1.17-0.78l5.2-4.19l-1.72-2.13l-12.44,10.04l1.72,2.13l5.54-4.47c0.27,0.42,0.38,0.85,0.36,1.3
		c-0.03,0.6-0.27,1.52-0.71,2.75l-1.69,4.78l2.11,2.61l2.2-6.25c0.49-1.4,0.66-2.54,0.51-3.46c0.27,0.09,0.54,0.16,0.82,0.2
		c0.53,0.07,1.48-0.11,2.87-0.54c1.24-0.38,1.83-0.42,2.1-0.39c0.34,0.04,0.68,0.27,1.03,0.7c0.03,0.04,0.11,0.14,0.24,0.31
		c0.12,0.17,0.21,0.28,0.26,0.33l0.23,0.28l1.27-1.03l-3.36,11.85c-1.19,0.53-1.75,0.65-2.05,0.6c-0.39-0.02-0.71-0.17-1-0.46
		c-0.39-0.38-0.65-0.84-0.8-1.38l-0.17-0.6l-1.84,1.86l0.12,0.23c0.39,0.75,0.77,1.3,1.17,1.7c0.67,0.66,1.39,1,2.12,1
		c0.01,0,0.01,0,0.02,0c0.69,0,1.81-0.28,3.42-0.85l12.96-4.6L172.2,334.29z"/>
	<path class="st0" d="M178.24,349.96c1.31-0.21,2.41-0.85,3.26-1.95c0.51-0.63,0.85-1.31,0.97-2.07c0.17-0.72,0.17-1.44-0.04-2.07
		c-0.17-0.64-0.55-1.27-1.1-1.86c-0.38-0.42-0.97-0.97-1.78-1.61l-4.78-3.81l-9.91,12.58l2.12,1.69l3.85-4.87l2.79,2.2
		C175.4,349.58,176.97,350.17,178.24,349.96z M177.52,347.29c-0.64,0-1.4-0.38-2.29-1.06l-2.84-2.24l2.96-3.73l2.75,2.2
		c0.89,0.68,1.23,1.06,1.35,1.23c0.25,0.34,0.38,0.76,0.34,1.27c0,0.47-0.21,0.93-0.55,1.35c-0.47,0.63-1.02,0.93-1.65,0.97
		C177.56,347.29,177.56,347.29,177.52,347.29z"/>
	<path class="st0" d="M190.52,347.93l-2.24-1.4l-13.63,10.37l2.46,1.52l3.85-3.05l5.04,3.09l-0.93,4.87l2.63,1.61l2.79-16.77
		L190.52,347.93z M187.21,352.07l-0.76,3.9l-3.51-2.16l3.39-2.63c0.47-0.34,0.89-0.72,1.31-1.14
		C187.51,350.63,187.38,351.31,187.21,352.07z"/>
	<path class="st0" d="M197.57,351.95l-4.66,10.08c-0.66,1.43-1.04,1.81-1.19,1.91c-0.25,0.15-0.51,0.15-0.81,0.01
		c-0.17-0.08-0.36-0.24-0.57-0.47l-0.3-0.33l-1.52,2.11l0.26,0.21c0.52,0.43,1,0.75,1.43,0.95c0.75,0.35,1.48,0.42,2.16,0.23
		c0.69-0.2,1.28-0.64,1.77-1.32c0.47-0.63,1.03-1.66,1.72-3.15l3.15-6.81l4.36,2.01l-5.65,12.22l2.49,1.15l6.71-14.51L197.57,351.95
		z"/>
	<path class="st0" d="M210.33,357.53l-0.76,2.46c-1.65,5.12-3.3,8.47-4.95,9.86l-1.27-0.42l-1.86,5.8l2.41,0.76l1.1-3.39l8.89,2.88
		l-1.06,3.39l2.37,0.76l1.86-5.8l-1.31-0.42l4.15-12.83L210.33,357.53z M213.17,372.57l-5.84-1.86c0.97-1.14,1.86-2.67,2.67-4.53
		c0.93-2.07,1.61-3.77,1.99-4.99l0.13-0.42l4.4,1.4L213.17,372.57z"/>
	<path class="st0" d="M241.08,373.04l-4.07-9.23l-2.27-0.17l-2.15-0.41l-5.75,7.97l-2.92-9.43l-0.06-0.21l-2.82-0.54l4.1,12.6
		c-0.69,1.1-1.12,1.5-1.36,1.64c-0.33,0.2-0.69,0.25-1.09,0.18c-0.53-0.1-1.01-0.34-1.43-0.7l-0.47-0.41l-0.49,2.57l0.23,0.13
		c0.74,0.4,1.36,0.65,1.92,0.76c0.27,0.05,0.54,0.08,0.79,0.08c0.59,0,1.11-0.15,1.54-0.44c0.57-0.39,1.35-1.24,2.36-2.62l7.5-10.1
		l5.02,10.94c-0.56,1.17-0.94,1.62-1.16,1.79c-0.3,0.23-0.65,0.34-1.06,0.3c-0.54-0.04-1.04-0.22-1.5-0.53l-0.51-0.35l-0.19,2.61
		l0.24,0.1c0.79,0.32,1.44,0.49,1.99,0.53c0.12,0.01,0.23,0.01,0.34,0.01c0.79,0,1.44-0.21,1.93-0.64c0.53-0.46,1.2-1.4,2.04-2.87
		l6.87-11.91l-2.81-0.21L241.08,373.04z"/>
	<path class="st0" d="M292.38,356.56l-2.6,0.88l2.41,7.14c-1.19,0.98-2.41,1.7-3.65,2.11c-0.73,0.25-1.41,0.24-2.08-0.03
		c-0.64-0.26-1.21-1.14-1.71-2.61l-1.38-4.07l-0.11-0.34l-2.6,0.88l0.01,0.03l-2.54,0.53l-2.23,9.57l-6.33-7.58l-0.14-0.17
		l-2.45,0.51l-0.06-0.01c-0.07-0.02-0.14-0.03-1.34,0.09c-0.67,0.06-1.27,0.28-1.8,0.64c-0.53,0.36-0.92,0.79-1.19,1.28
		c-0.24,0.45-0.53,1.19-0.86,2.26c-0.54,1.69-0.91,2.33-1.12,2.58c-0.23,0.27-0.67,0.45-1.29,0.55l-0.63-6.65l-2.73,0.26l1.5,15.92
		l2.73-0.26l-0.67-7.09c0.5,0.01,0.92,0.14,1.28,0.42c0.48,0.36,1.12,1.06,1.9,2.11l3.05,4.05l3.34-0.32l-4-5.28
		c-0.9-1.18-1.75-1.95-2.6-2.33c0.23-0.17,0.43-0.36,0.62-0.57c0.36-0.42,0.73-1.3,1.14-2.69c0.37-1.25,0.66-1.76,0.83-1.97
		c0.22-0.26,0.6-0.42,1.14-0.47c0.05,0,0.18-0.01,0.4-0.03c0.2-0.01,0.34-0.02,0.41-0.03l0.36-0.03l-0.15-1.61l8.02,9.32
		c-0.21,1.28-0.45,1.82-0.62,2.04c-0.23,0.31-0.53,0.5-0.93,0.58c-0.53,0.11-1.05,0.08-1.59-0.1l-0.59-0.19l0.54,2.56l0.26,0.03
		c0.36,0.04,0.68,0.06,0.99,0.06c0.41,0,0.76-0.03,1.07-0.1c0.93-0.19,1.6-0.61,2.01-1.23c0.38-0.59,0.76-1.67,1.17-3.32l3.21-12.95
		l1.43,4.21c0.41,1.22,0.87,2.14,1.4,2.82c0.56,0.7,1.35,1.17,2.36,1.4c0.99,0.22,2.03,0.15,3.09-0.21
		c1.21-0.41,2.52-1.16,3.89-2.22l1.92,5.69l2.6-0.88l-5-14.8L292.38,356.56z"/>
	<polygon class="st0" points="306.19,352.91 305.1,350.63 293.85,355.98 293.52,356.14 294.61,358.41 299.15,356.26 304.77,368.09 
		304.92,368.42 307.4,367.24 301.62,355.08 	"/>
	<path class="st0" d="M317.91,345.13c-2.03-0.59-4.06-0.3-6.05,0.97c-2.03,1.31-3.22,3.05-3.51,5.21c-0.25,1.99,0.3,4.02,1.61,6.05
		c0.64,1.02,1.57,1.95,2.67,2.71c1.19,0.8,2.5,1.23,3.94,1.23h0.13c1.44-0.04,2.79-0.47,4.06-1.27c1.95-1.27,3.13-2.96,3.47-5.08
		c0.3-1.99-0.21-3.98-1.48-5.97C321.47,346.99,319.86,345.68,317.91,345.13z M311.6,354.61c-0.59-1.27-0.8-2.37-0.59-3.34
		c0.3-1.31,0.97-2.33,2.16-3.09c0.8-0.51,1.65-0.76,2.5-0.76c0.42,0,0.8,0.04,1.27,0.17c0.97,0.25,1.91,0.89,2.71,1.86L311.6,354.61
		z M321.51,354.95c-0.21,1.27-0.89,2.24-2.07,3.01c-1.27,0.8-2.5,1.02-3.81,0.63c-1.02-0.34-1.95-0.93-2.71-1.86l8.09-5.16
		C321.55,352.75,321.72,353.89,321.51,354.95z"/>
	<path class="st0" d="M333.36,340.52c0.08-1.31-0.34-2.54-1.23-3.6c-0.55-0.59-1.14-1.06-1.86-1.36c-0.68-0.34-1.35-0.47-2.03-0.38
		c-0.68,0.04-1.35,0.3-2.07,0.72c-0.47,0.25-1.1,0.72-1.91,1.4l-4.7,3.94l10.29,12.23l2.12-1.78l-4.02-4.74l2.75-2.29
		C332.43,343.18,333.32,341.83,333.36,340.52z M330.61,340.6c-0.08,0.64-0.59,1.36-1.52,2.12l-2.75,2.33l-3.05-3.64l2.71-2.29
		c0.68-0.55,1.19-0.93,1.44-1.06c0.42-0.17,0.85-0.21,1.35-0.08c0.47,0.13,0.85,0.38,1.23,0.8
		C330.53,339.37,330.69,339.97,330.61,340.6z"/>
	<path class="st0" d="M339.38,322.3l-2.22,2.36l1.3,5.42c0.23,0.91,0.45,1.74,0.66,2.48c-0.77-0.18-1.56-0.35-2.36-0.49l-5.61-0.98
		l-2.27,2.43l11,1.81l4.9,4.59l1.87-2l-4.9-4.59L339.38,322.3z"/>
</g>
</svg>
