<?xml version="1.0" encoding="utf-8"?>
<!-- Generator: Adobe Illustrator 26.5.0, SVG Export Plug-In . SVG Version: 6.00 Build 0)  -->
<svg version="1.1" id="Layer_1" xmlns="http://www.w3.org/2000/svg" xmlns:xlink="http://www.w3.org/1999/xlink" x="0px" y="0px"
	 viewBox="0 0 500 500" style="enable-background:new 0 0 500 500;" xml:space="preserve">
<style type="text/css">
	.st0{fill:#131313;}
</style>
<g>
	<path class="st0" d="M147.67,201.81l-5.6-2.78l0.87-1.75l7.38-0.79l1.17-2.35l-8.71,0.87l-1.89-2.78c-0.81-1.17-0.88-1.62-0.6-2.18
		c0.06-0.11,0.17-0.31,0.32-0.46l-1.84-1.37c-0.22,0.18-0.43,0.49-0.57,0.78c-0.63,1.27-0.52,2.32,0.77,4.2l2.19,3.18l-0.87,1.76
		l-5.08-2.52l-1.1,2.21l12.48,6.19L147.67,201.81z"/>
	
		<rect x="152.47" y="171.18" transform="matrix(0.5601 -0.8284 0.8284 0.5601 -79.9612 205.7021)" class="st0" width="2.47" height="13.93"/>
	<path class="st0" d="M154.66,189.16c1.74-2.57,1.94-5.11-0.69-6.88c-2.43-1.64-4.64-0.48-6.38,2.09l-0.99,1.46l-4.47-3.02
		l-1.38,2.05l11.54,7.8L154.66,189.16z M148.24,186.93l0.84-1.25c1.17-1.73,2.32-2.22,3.56-1.38c1.4,0.95,1.37,2.26,0.25,3.91
		l-0.86,1.28L148.24,186.93z"/>
	<path class="st0" d="M164.06,176.53l-3.83-3.4l1.33-1.5c1.99-2.24,2.46-4.9,0.14-6.96c-2.41-2.14-4.73-1.13-6.78,1.18l-2.91,3.28
		l10.42,9.24L164.06,176.53z M158.75,171.82l-3.63-3.22l1.14-1.28c1.37-1.55,2.53-1.97,3.82-0.82c1.28,1.14,1.24,2.42-0.14,3.98
		L158.75,171.82z"/>
	<polygon class="st0" points="172.57,167.63 164.54,158.91 168.92,154.88 167.51,153.35 161.32,159.05 170.75,169.3 	"/>
	
		<rect x="183.87" y="141.92" transform="matrix(0.8144 -0.5804 0.5804 0.8144 -52.0434 135.0694)" class="st0" width="2.47" height="13.93"/>
	<path class="st0" d="M182.15,159.54c2.53-1.8,3.6-4.1,1.76-6.69c-1.7-2.39-4.18-2.08-6.7-0.28l-1.44,1.02l-3.13-4.39l-2.01,1.43
		l8.08,11.34L182.15,159.54z M178.15,154.34c1.7-1.21,2.95-1.26,3.82-0.04c0.98,1.38,0.49,2.6-1.13,3.76l-1.26,0.89l-2.66-3.73
		L178.15,154.34z"/>
	<path class="st0" d="M190.99,139.7c1.2-0.64,2.35-0.57,2.95,0.56c0.6,1.12,0.21,2.13-1.6,3.1l-1.14,0.61l0.87,1.63l1.52-0.81
		c1.8-0.96,3.08-0.89,3.77,0.41c0.7,1.31-0.01,2.61-1.44,3.37c-1.26,0.67-2.47,0.82-3.99,0.4l-0.38,2.13
		c1.93,0.56,3.71,0.26,5.4-0.64c2.59-1.38,3.92-3.8,2.62-6.25c-0.84-1.57-2.39-2.11-3.88-1.72l-0.04-0.08
		c0.86-1.03,0.91-2.38,0.25-3.62c-1.07-2.01-3.28-2.39-5.85-1.02c-1.5,0.8-2.6,2.11-3.09,3.56l1.89,0.85
		C189.28,141.12,189.93,140.26,190.99,139.7z"/>
	<path class="st0" d="M208.97,144.92c1.68-0.67,2.76-1.88,3.31-3.52l-1.8-0.95c-0.41,1.09-1.08,1.98-2.22,2.44
		c-2.17,0.87-4.28-0.36-5.46-3.3c-1.17-2.9-0.37-5.29,1.73-6.13c1.01-0.41,1.97-0.26,2.9,0.14l0.63-1.97
		c-1.16-0.53-2.76-0.79-4.38-0.14c-3.27,1.32-4.91,4.9-3.21,9.13C202.19,144.88,205.72,146.23,208.97,144.92z"/>
	<path class="st0" d="M217.47,141.7l-1.68-6.02l1.88-0.52l5.52,4.95l2.44-0.68l0,0.02l2.49-0.41l0.46-3.9l4.61-0.76l1.68,3.55
		l2.58-0.42l-6.74-13.01l-2.86,0.47l-2.21,14.37l-6.4-5.83l0.8-3.26c0.33-1.39,0.62-1.74,1.22-1.91c0.12-0.03,0.34-0.08,0.56-0.07
		l-0.21-2.29c-0.28-0.05-0.65,0.01-0.96,0.1c-1.37,0.38-2.07,1.16-2.6,3.38l-0.9,3.76l-1.89,0.53l-1.53-5.47l-2.38,0.66l3.75,13.42
		L217.47,141.7z M229.02,131.38c0.2-1.53,0.35-3.15,0.47-4.73l0.08-0.01c0.65,1.44,1.31,2.94,1.99,4.33l0.76,1.6l-3.51,0.58
		L229.02,131.38z"/>
	<path class="st0" d="M240.51,137.32l2.98-5.61l2.06-0.11l0.3,5.44l2.47-0.13l-0.76-13.91l-4.69,0.26c-2.89,0.16-5.07,1.3-4.9,4.41
		c0.12,2.19,1.39,3.41,3.13,3.87l-3.41,5.96L240.51,137.32z M240.4,127.52c-0.09-1.6,0.92-2.21,2.83-2.31l1.97-0.11l0.25,4.53
		l-1.97,0.11C241.57,129.83,240.49,129.1,240.4,127.52z"/>
	<path class="st0" d="M258.95,132.17l1.99,0.18c2.99,0.27,5.41-0.92,5.69-4.02c0.29-3.21-1.89-4.48-4.97-4.77l-4.37-0.4l-1.27,13.87
		l2.46,0.22L258.95,132.17z M259.57,125.36l1.71,0.16c2.06,0.19,3.09,0.87,2.93,2.59c-0.16,1.71-1.22,2.44-3.29,2.25l-1.79-0.16
		L259.57,125.36z"/>
	<polygon class="st0" points="277.12,138.01 271.11,136.82 271.91,132.77 276.83,133.75 277.23,131.71 272.32,130.73 273.01,127.23 
		278.81,128.38 279.22,126.35 271,124.71 268.28,138.37 276.71,140.05 	"/>
	<path class="st0" d="M284.64,142.64c1.72,0.54,3.32,0.28,4.79-0.63l-0.8-1.87c-1,0.59-2.08,0.85-3.26,0.49
		c-2.23-0.69-3.09-2.98-2.15-6.01c0.93-2.99,3.05-4.33,5.21-3.66c1.04,0.32,1.69,1.04,2.16,1.94l1.73-1.13
		c-0.56-1.15-1.64-2.36-3.31-2.87c-3.37-1.05-6.9,0.69-8.25,5.05C279.41,138.33,281.3,141.6,284.64,142.64z"/>
	<polygon class="st0" points="293.27,145.51 298.07,134.68 303.05,136.88 298.25,147.72 300.51,148.72 306.15,135.98 296.66,131.77 
		291.01,144.51 	"/>
	<path class="st0" d="M304.87,148.63l-1.5,1.63c0.27,0.33,0.62,0.65,1.24,1.01c1.7,0.99,3.28,0.55,4.92-0.72l9.41-7.33l-2.15-1.25
		l-4.24,3.45l-2.44,2.1l-0.07-0.04l0.58-3.18l0.76-5.48l-2.26-1.32l-1.19,11.43l-0.51,0.36c-0.58,0.37-1.14,0.36-1.79-0.02
		C305.21,149,305.03,148.82,304.87,148.63z"/>
	<path class="st0" d="M317.18,159.08c2.41,1.77,4.9,2.01,6.7-0.44c1.73-2.36,0.51-4.54-1.86-6.28l-1.84-1.35l2.11-2.88l5.31,3.9
		l1.23-1.67l-7.3-5.37l-8.25,11.22L317.18,159.08z M320.71,153.69c1.62,1.19,2.11,2.3,1.19,3.55c-0.96,1.3-2.2,1.3-3.83,0.1
		l-1.66-1.22l2.67-3.63L320.71,153.69z"/>
	<path class="st0" d="M324.1,161.7c-0.17-0.16-0.27-0.31-0.37-0.48l-1.87,1.32c0.2,0.4,0.47,0.7,0.9,1.11
		c1.43,1.33,2.95,1.21,6.62-1.49c1.76-1.3,3.46-2.59,5.29-3.97l2.32,2.16l-8.07,8.67l1.81,1.68l9.49-10.2l-5.53-5.14
		c-2.34,1.75-4.51,3.41-6.8,5.04C325.27,162.26,324.62,162.19,324.1,161.7z"/>
	<path class="st0" d="M334.82,175.21l8.83-1.71l3.18-0.79l0.05,0.07c-1.2,0.86-2.61,1.79-3.8,2.79l-4.67,3.93l1.58,1.87l10.66-8.97
		l-1.68-2l-8.82,1.7l-3.19,0.8l-0.05-0.07c1.18-0.84,2.65-1.82,3.84-2.82l4.63-3.9l-1.58-1.87l-10.66,8.97L334.82,175.21z"/>
	<path class="st0" d="M343.38,186.22l5.23-3.44l1.07,1.63l-3.03,6.77l1.38,2.11l-0.02,0l1.15,2.24l3.86-0.75l2.13,4.16l-2.87,2.68
		l1.19,2.33l10.33-10.39l-1.32-2.58l-14.35,2.28l3.6-7.86l3.35-0.23c1.42-0.1,1.85,0.06,2.19,0.58c0.07,0.11,0.18,0.3,0.23,0.51
		l2.11-0.9c-0.04-0.28-0.21-0.62-0.39-0.89c-0.78-1.19-1.74-1.62-4.01-1.45l-3.85,0.28l-1.08-1.64l4.74-3.12l-1.36-2.06l-11.64,7.66
		L343.38,186.22z M356.74,194.06c1.51-0.28,3.1-0.63,4.65-0.99l0.04,0.08c-1.18,1.06-2.4,2.15-3.51,3.22l-1.29,1.21L355,194.4
		L356.74,194.06z"/>
	<polygon class="st0" points="323.73,211.78 289.78,180.18 289.2,180.77 320.85,214.67 	"/>
	<polygon class="st0" points="284.57,185.39 311.62,214.67 314.5,211.78 285.18,184.78 	"/>
	<polygon class="st0" points="305.28,211.78 280.58,189.38 279.95,190.01 302.39,214.67 	"/>
	<polygon class="st0" points="246.66,165.87 293.17,214.67 296.05,211.78 247.25,165.27 	"/>
	<polygon class="st0" points="286.83,211.78 242.63,169.9 242.05,170.47 283.94,214.67 	"/>
	<polygon class="st0" points="277.6,211.78 238.02,174.51 237.44,175.09 274.71,214.67 	"/>
	<polygon class="st0" points="232.76,179.72 265.49,214.67 268.37,211.78 233.38,179.1 	"/>
	<polygon class="st0" points="256.33,214.74 259.08,211.71 258.58,211.31 228.72,183.76 228.19,184.29 255.81,214.21 	"/>
	<polygon class="st0" points="249.92,211.78 224.16,188.32 223.52,188.96 247.04,214.67 	"/>
	<polygon class="st0" points="205.1,179.7 237.81,214.67 240.69,211.78 205.68,179.12 	"/>
	<polygon class="st0" points="231.47,211.78 201.1,183.7 200.46,184.34 228.58,214.67 	"/>
	<polygon class="st0" points="196.43,188.37 195.9,188.9 219.36,214.67 222.24,211.78 	"/>
	<polygon class="st0" points="213.01,211.78 191.87,192.93 191.23,193.57 210.14,214.67 	"/>
	<polygon class="st0" points="203.77,211.76 187.34,197.46 186.54,198.27 200.92,214.69 	"/>
	<polygon class="st0" points="182.66,202.13 181.99,202.82 191.68,214.67 194.56,211.78 	"/>
	<polygon class="st0" points="178.08,206.72 177.35,207.46 182.46,214.67 185.33,211.78 	"/>
	<path class="st0" d="M250,100c-82.84,0-150,67.16-150,150c0,82.84,67.16,150,150,150s150-67.16,150-150
		C400,167.16,332.84,100,250,100z M250,382.99c-73.33,0-132.99-59.66-132.99-132.99S176.67,117.01,250,117.01
		S382.99,176.67,382.99,250S323.33,382.99,250,382.99z"/>
	<path class="st0" d="M360.83,256.63H250H139.17h-11.9c0.21,4.09,0.63,8.1,1.25,12.11c5.26,34.4,24.88,64.12,52.55,82.82v0.02
		c3.88,2.58,7.93,4.99,12.11,7.12v-13.57v-65.27h-0.08v-0.02h-41.83c1.13,4.13,2.5,8.18,4.13,12.11h25.67v44.87
		c-21-16.57-35.86-40.62-40.49-68.08H250h109.41c-4.63,27.47-19.49,51.51-40.49,68.08v-44.87h25.67c1.63-3.92,3.01-7.97,4.13-12.11
		H306.9v0.02h-0.08v65.27v13.57c4.17-2.12,8.22-4.54,12.11-7.12v-0.02c27.68-18.7,47.3-48.42,52.55-82.82
		c0.63-4.01,1.04-8.01,1.25-12.11H360.83z"/>
	<polygon class="st0" points="295.33,303.09 283.23,303.09 283.23,303.09 271.46,303.09 271.46,303.09 259.35,303.09 259.35,303.09 
		249.49,303.09 246.33,303.09 240.65,303.09 240.65,303.09 228.54,303.09 228.54,303.09 216.77,303.09 216.77,303.09 204.67,303.09 
		204.67,303.09 204.62,303.09 204.62,315.19 204.67,315.19 204.67,351.09 204.67,363.9 204.67,372.42 216.77,372.42 216.77,367.95 
		216.77,355.68 216.77,315.19 228.54,315.19 228.54,358.56 228.54,370.58 228.54,372.42 240.65,372.42 240.65,372.04 240.65,360.23 
		240.65,315.19 246.33,315.19 249.49,315.19 259.35,315.19 259.35,360.23 259.35,372.04 259.35,372.42 271.46,372.42 271.46,370.58 
		271.46,358.56 271.46,315.19 283.23,315.19 283.23,355.68 283.23,367.95 283.23,372.42 295.33,372.42 295.33,363.9 295.33,351.09 
		295.33,315.19 295.38,315.19 295.38,303.09 295.33,303.09 	"/>
	<polygon class="st0" points="248.46,279.86 204.62,279.86 204.62,291.95 248.46,291.95 249.49,291.95 295.38,291.95 295.38,279.86 
		249.49,279.86 	"/>
	<polygon class="st0" points="162.77,250 162.77,221.93 154.27,221.93 149.24,241.08 144.15,221.93 135.66,221.93 135.66,250 
		140.93,250 140.93,227.91 146.48,250 151.94,250 157.51,227.91 157.51,250 	"/>
	<polygon class="st0" points="192.17,250 192.17,221.93 186.53,221.93 175.15,240.62 175.15,221.93 169.85,221.93 169.85,250 
		175.52,250 186.87,231.68 186.87,250 	"/>
	<polygon class="st0" points="221.79,250 221.79,221.93 216.12,221.93 216.12,232.98 205.01,232.98 205.01,221.93 199.35,221.93 
		199.35,250 205.01,250 205.01,237.73 216.12,237.73 216.12,250 	"/>
	<path class="st0" d="M240.81,250.48c3.01,0,5.5-0.74,7.46-2.23c1.96-1.49,3.36-3.76,4.2-6.83l-5.49-1.74
		c-0.47,2.06-1.25,3.56-2.34,4.52c-1.08,0.96-2.38,1.44-3.89,1.44c-2.04,0-3.7-0.75-4.98-2.26c-1.28-1.51-1.92-4.03-1.92-7.58
		c0-3.34,0.65-5.76,1.94-7.26c1.3-1.49,2.98-2.24,5.06-2.24c1.51,0,2.79,0.42,3.84,1.26c1.05,0.84,1.75,1.99,2.08,3.45l5.61-1.34
		c-0.64-2.25-1.59-3.97-2.87-5.17c-2.14-2.03-4.93-3.04-8.37-3.04c-3.93,0-7.1,1.29-9.52,3.88c-2.41,2.58-3.62,6.21-3.62,10.88
		c0,4.42,1.2,7.9,3.6,10.44C234.02,249.21,237.08,250.48,240.81,250.48z"/>
	<polygon class="st0" points="269.71,250 269.71,226.68 278.02,226.68 278.02,221.93 255.72,221.93 255.72,226.68 264.05,226.68 
		264.05,250 	"/>
	<path class="st0" d="M288.72,239.41h3.7c2.57,0,4.52-0.13,5.88-0.4c1-0.22,1.98-0.66,2.94-1.33c0.96-0.67,1.76-1.59,2.38-2.77
		c0.62-1.17,0.94-2.62,0.94-4.35c0-2.23-0.54-4.06-1.63-5.47c-1.08-1.41-2.43-2.33-4.04-2.75c-1.05-0.28-3.29-0.42-6.74-0.42h-9.09
		V250h5.67V239.41z M288.72,226.68h2.74c2.04,0,3.4,0.06,4.08,0.19c0.92,0.17,1.68,0.58,2.28,1.24c0.6,0.66,0.9,1.51,0.9,2.53
		c0,0.83-0.21,1.56-0.64,2.18c-0.43,0.63-1.02,1.08-1.77,1.38c-0.75,0.29-2.25,0.44-4.48,0.44h-3.1V226.68z"/>
	<path class="st0" d="M322.56,250.48c4.12,0,7.42-1.28,9.88-3.84c2.46-2.56,3.7-6.1,3.7-10.64c0-4.57-1.24-8.14-3.72-10.7
		c-2.48-2.57-5.79-3.85-9.93-3.85c-2.29,0-4.3,0.37-6.05,1.11c-1.31,0.55-2.52,1.39-3.63,2.53c-1.1,1.14-1.97,2.42-2.61,3.85
		c-0.85,1.94-1.28,4.34-1.28,7.2c0,4.47,1.23,7.97,3.7,10.52C315.07,249.21,318.39,250.48,322.56,250.48z M316.89,228.7
		c1.43-1.6,3.31-2.4,5.65-2.4c2.34,0,4.21,0.79,5.62,2.37s2.12,3.98,2.12,7.2c0,3.25-0.72,5.7-2.17,7.32
		c-1.45,1.63-3.3,2.44-5.56,2.44c-2.26,0-4.12-0.82-5.59-2.46s-2.2-4.05-2.2-7.23C314.75,232.72,315.46,230.3,316.89,228.7z"/>
	<polygon class="st0" points="364.33,250 364.33,221.93 358.68,221.93 347.31,240.62 347.31,221.93 342.01,221.93 342.01,250 
		347.67,250 359.03,231.68 359.03,250 	"/>
	<path class="st0" d="M353.21,220.52c1.7,0,3.08-0.49,4.15-1.48c1.07-0.99,1.67-2.35,1.83-4.09h-2.62
		c-0.09,0.91-0.41,1.59-0.96,2.06s-1.35,0.7-2.39,0.7s-1.84-0.23-2.39-0.7c-0.55-0.47-0.87-1.15-0.96-2.06h-2.62
		c0.15,1.74,0.76,3.1,1.83,4.09C350.13,220.02,351.51,220.52,353.21,220.52z"/>
</g>
</svg>
