<?xml version="1.0" encoding="utf-8"?>
<!-- Generator: Adobe Illustrator 26.5.0, SVG Export Plug-In . SVG Version: 6.00 Build 0)  -->
<svg version="1.1" id="Layer_1" xmlns="http://www.w3.org/2000/svg" xmlns:xlink="http://www.w3.org/1999/xlink" x="0px" y="0px"
	 viewBox="0 0 500 500" style="enable-background:new 0 0 500 500;" xml:space="preserve">
<style type="text/css">
	.st0{fill:#131313;}
</style>
<g>
	<path class="st0" d="M197.62,225.77c0.22,0.72,0.31,1.34-0.04,2.05c-0.68,1.38-1.08,2.86-0.84,4.41c0.22,1.45,0.52,2.89,0.86,4.31
		c0.11,0.48,0.21,0.85,0,1.35c-0.55,1.28-0.71,2.62-0.5,4.03c0.23,1.63,0.82,3.11,1.69,4.48c0.38,0.6,0.44,1.15,0.08,1.71
		c-0.47,0.73-0.43,1.53-0.48,2.34c-0.08,1.55,0.69,2.86,1.28,4.18c0.47,1.05,0.54,1.93,0.15,2.99c-0.43,1.18-0.45,2.39,0.33,3.52
		c0.61,0.89,1.33,1.79,1.6,2.8c0.28,1.02,0.08,2.17,0.09,3.27c0,0.29-0.02,0.57,0.02,0.86c0.07,0.56,0.13,1.12,0.27,1.67
		c0.34,1.37,1.05,2.54,2.08,3.5c0.66,0.62,0.94,1.2,0.86,2.21c-0.18,2.16,0.06,4.3,2.12,5.7c0.19,0.13,0.32,0.36,0.52,0.49
		c1.18,0.81,1.47,2.02,1.58,3.34c0.14,1.66,0.44,3.25,1.42,4.69c0.66,0.97,1.35,1.86,2.44,2.29c0.83,0.33,1.32,0.85,1.55,1.68
		c0.07,0.27,0.2,0.53,0.31,0.8c0.85,2.12,2.08,3.94,4.13,5.07c0.87,0.48,1.82,0.83,2.69,1.31c0.43,0.24,0.91,0.59,1.09,1.01
		c0.32,0.72,0.39,1.55,0.61,2.32c0.79,2.77,2.34,4.93,4.97,6.24c0.6,0.3,1.18,0.63,1.81,0.84c0.52,0.18,0.76,0.53,0.92,0.99
		c0.28,0.81,0.53,1.63,0.82,2.43c0.47,1.26,1.14,2.42,2.23,3.24c1.73,1.3,3.65,2.2,5.86,2.31c0.67,0.03,0.96,0.32,1.17,0.98
		c1.03,3.24,1.99,6.5,3.69,9.51c1.35,2.38,2.93,4.51,5.03,6.34c2.07-1.66,3.59-3.59,4.75-5.79c0.72-1.38,1.61-2.68,2.07-4.2
		c0.59-1.95,1.33-3.86,1.94-5.8c0.24-0.77,0.69-0.96,1.43-1.07c1.16-0.18,2.34-0.44,3.4-0.91c1.15-0.51,2.2-1.23,3.05-2.26
		c1.07-1.29,1.56-2.8,2.02-4.33c0.26-0.84,0.71-1.34,1.57-1.64c2.91-1.01,4.89-3.02,5.95-5.91c0.37-1.02,0.68-2.07,0.93-3.13
		c0.1-0.42,0.26-0.69,0.63-0.86c0.34-0.16,0.69-0.32,1.03-0.48c2.18-1.01,4.2-2.22,5.39-4.43c0.47-0.87,0.85-1.8,1.23-2.71
		c0.29-0.68,0.65-1.16,1.4-1.47c1.88-0.8,2.88-2.46,3.47-4.29c0.39-1.2,0.44-2.52,0.62-3.78c0.11-0.78,0.37-1.44,1.03-1.95
		c0.6-0.46,1.09-1.06,1.66-1.55c0.9-0.77,1.23-1.78,1.29-2.9c0.05-0.9,0.03-1.81,0.01-2.71c-0.01-0.45,0.1-0.78,0.47-1.12
		c0.56-0.5,1.04-1.1,1.5-1.69c1.24-1.6,1.45-3.52,1.37-5.41c-0.08-2.04,0.32-3.83,1.59-5.43c0.75-0.94,0.84-2.14,0.46-3.1
		c-0.62-1.6-0.2-2.94,0.42-4.34c0.21-0.48,0.38-0.97,0.61-1.44c0.6-1.25,0.6-2.53,0-3.72c-0.49-0.98-0.34-1.7,0.2-2.6
		c1.31-2.19,1.91-4.62,1.22-7.1c-0.34-1.23-0.29-2.24,0.03-3.43c0.68-2.59,1.03-5.23-0.39-7.74c-0.31-0.55-0.16-1.11-0.03-1.66
		c0.24-1.01,0.59-2.01,0.78-3.03c0.43-2.28,1.12-4.53,0.94-6.89c-0.1-1.38-0.6-2.4-1.98-2.97c-1.43-0.59-2.87-0.94-4.4-1.04
		c-0.73-0.05-1.47-0.32-2.16-0.61c-0.65-0.27-1.21-0.73-1.85-1.04c-2.33-1.13-4.71-2.05-7.37-1.54c-0.72,0.14-1.16-0.14-1.63-0.6
		c-0.63-0.63-1.3-1.24-1.98-1.81c-0.34-0.29-0.76-0.49-1.22-0.78c0.55-0.4,1-0.65,1.36-1.01c1.5-1.48,2.34-3.32,2.76-5.36
		c0.27-1.28-0.26-2.46-0.67-3.59c-0.35-0.95-0.9-1.9-1.59-2.65c-1.93-2.09-4.4-2.76-7.22-2.71c-2.6,0.05-4.77,1.95-5.25,4.03
		c-0.07,0.31-0.25,0.59-0.37,0.86c-0.17,0-0.28,0.03-0.36,0c-3.26-1.29-6.53-2.58-9.79-3.88c-0.66-0.26-1.3-0.57-1.97-0.8
		c-0.5-0.17-0.64-0.49-0.6-0.98c0.04-0.38,0.04-0.76,0.07-1.14c0.27-3.07,0.53-6.15,0.82-9.22c0.23-2.41,0.5-4.81,0.73-7.22
		c0.13-1.42-0.09-2.74-1.18-3.8c-0.34-0.33-0.62-0.71-0.94-1.06c-1.56-1.77-3.41-3.14-5.65-3.93c-1.2-0.43-2.41-0.42-3.62,0.05
		c-3.03,1.2-5.22,3.38-7.02,6.01c-0.22,0.32-0.34,0.79-0.33,1.19c0.04,1.42,0.14,2.84,0.24,4.26c0.11,1.66,0.23,3.31,0.37,4.97
		c0.26,3.12,0.56,6.24,0.8,9.36c0.1,1.27,0.06,1.28-1.14,1.75c-1.36,0.55-2.73,1.08-4.1,1.62c-2.25,0.89-4.5,1.77-6.73,2.7
		c-0.57,0.24-0.78,0.07-0.9-0.47c-0.06-0.28-0.11-0.57-0.23-0.82c-0.64-1.29-1.39-2.43-2.84-3.01c-1.53-0.63-3.09-0.55-4.63-0.36
		c-2.55,0.32-4.55,1.74-5.88,3.86c-1.94,3.1-1.5,6.83,0.92,9.64c0.53,0.62,1.19,1.13,1.69,1.61c-1.06,0.97-2.12,1.9-3.14,2.88
		c-0.31,0.3-0.6,0.34-1.01,0.32c-1.18-0.05-2.43-0.25-3.54,0.04c-2.01,0.52-3.98,1.26-5.75,2.42c-0.85,0.56-1.76,0.86-2.8,0.85
		c-1.49-0.02-2.88,0.44-4.27,0.99c-0.98,0.39-1.38,1.17-1.63,2.01c-0.21,0.71-0.28,1.52-0.19,2.26
		C196.29,220.25,196.8,223.04,197.62,225.77z M249.03,167.14c1.29-0.49,2.53,0,3.53,0.9c0.75,0.68,1.41,1.48,2.1,2.23
		c-0.06,0.11-0.11,0.21-0.17,0.32c-3.04,0-6.08,0-9.25,0C246.18,169,247.39,167.77,249.03,167.14z M254.6,175.19
		c-0.01,0.2-0.31,0.44-0.53,0.56c-0.24,0.12-0.55,0.15-0.82,0.15c-1.13,0.02-2.27,0.01-3.4,0.01c0,0,0,0.01,0,0.01
		c-1.18,0-2.36,0-3.55,0c-0.52,0-0.94-0.16-1.05-0.74c-0.09-0.51,0.19-0.83,0.91-1.04c0.05-0.01,0.09-0.04,0.14-0.04
		c2.45-0.02,4.91-0.04,7.36-0.04c0.22,0,0.51,0.12,0.63,0.28C254.46,174.57,254.62,174.91,254.6,175.19z M246.71,179.63
		c1.09-0.02,2.19,0,3.28,0c0,0,0,0,0,0c1.09,0,2.19,0,3.28,0c0.24,0,0.55-0.05,0.69,0.08c0.3,0.26,0.61,0.59,0.72,0.95
		c0.12,0.41-0.22,0.69-0.63,0.81c-0.14,0.04-0.27,0.1-0.41,0.11c-2.36,0.15-4.73,0.38-7.09-0.05c-1.02-0.18-1.43-0.55-1.34-1.15
		C245.29,179.85,245.68,179.65,246.71,179.63z M246.3,184.48c2.46-0.3,4.92-0.02,7.38,0.02c0.27,0,0.61,0.08,0.79,0.25
		c0.22,0.2,0.41,0.55,0.41,0.83c0,0.2-0.3,0.49-0.53,0.58c-0.44,0.16-0.92,0.26-1.39,0.28c-0.95,0.04-1.9,0.01-2.85,0.01
		c0,0.05-0.01,0.09-0.01,0.14c-1.32-0.12-2.64-0.24-3.96-0.37c-0.51-0.05-0.94-0.24-0.93-0.86
		C245.22,184.81,245.53,184.57,246.3,184.48z M245.96,189.69c0.66-0.04,1.33-0.06,1.99-0.06c1.8,0.01,3.61,0.01,5.41,0.05
		c0.95,0.02,1.49,0.34,1.52,0.76c0.03,0.43-0.68,0.96-1.57,0.89c-1.13-0.08-2.28-0.02-3.42-0.02c0,0.01,0,0.02,0,0.03
		c-1.04,0-2.09,0-3.13,0c-0.28,0-0.57-0.02-0.85-0.06c-0.5-0.08-0.73-0.41-0.7-0.91C245.23,189.92,245.53,189.72,245.96,189.69z
		 M219.31,195.91c0.92-1.06,2.03-1.66,3.41-1.87c1.08-0.17,2.01,0.23,2.74,0.89c1.07,0.97,1.11,2.75,0.18,3.88
		c-0.36,0.43-0.83,0.77-1.28,1.12c-0.29,0.23-0.63,0.4-1.14,0.72c1.09,0.26,1.96,0.19,2.78-0.02c1.19-0.3,2.37-0.68,3.51-1.14
		c1.23-0.49,2.42-1.08,3.6-1.69c3.04-1.57,6.28-2.15,9.64-1.86c2.22,0.19,4.4,0.75,6.39,1.81c0.66,0.35,1.19,0.32,1.86,0
		c3.28-1.59,6.72-2.16,10.37-1.62c2.77,0.41,5.28,1.48,7.79,2.63c1.25,0.57,2.47,1.21,3.71,1.8c0.25,0.12,0.54,0.19,0.81,0.21
		c0.94,0.07,1.88,0.1,2.82,0.15c0.03-0.09,0.06-0.17,0.09-0.26c-0.49-0.35-1-0.67-1.47-1.04c-1.38-1.12-1.69-2.43-1.16-3.63
		c0.68-1.55,2.26-2.26,3.88-1.81c2.01,0.56,3.36,1.77,4.02,3.8c0.8,2.47-1.22,5.83-4.32,5.94c-1.22,0.04-2.47-0.11-3.67-0.35
		c-1.67-0.33-3.31-0.85-4.97-1.22c-2.91-0.66-5.81-1.33-8.8-1.65c-2.06-0.22-4.08-0.1-6.1,0.1c-0.97,0.1-1.93,0.48-2.84,0.85
		c-0.77,0.32-1.42,0.31-2.18-0.01c-2.83-1.18-5.79-1.2-8.8-0.99c-2.72,0.19-5.33,0.88-7.98,1.35c-1.91,0.34-3.75,1.01-5.65,1.43
		c-1.2,0.26-2.43,0.38-3.66,0.48c-2.04,0.16-3.8-1.38-4.54-3.07C217.52,198.92,218.04,197.38,219.31,195.91z M207.33,222.05
		c2.73,1.96,5.47,3.9,8.22,5.87c0.71-0.87,1.3-1.67,1.96-2.4c0.39-0.43,0.35-0.7-0.06-1.06c-1.39-1.21-2.77-2.45-4.16-3.66
		c-2.36-2.05-4.74-4.09-7.11-6.14c-0.14-0.12-0.25-0.26-0.47-0.49c1.2-0.9,2.5-1.41,3.8-1.94c0.41-0.17,0.67,0.09,0.97,0.39
		c3.08,3.14,6.19,6.26,9.3,9.39c0.13,0.13,0.27,0.26,0.46,0.44c1.22-1.07,2.42-2.12,3.68-3.21c-1.27-1.62-2.49-3.19-3.71-4.75
		c-0.76-0.97-1.52-1.94-2.3-2.89c-0.35-0.43-0.24-0.68,0.12-1.07c0.84-0.95,2.03-1.17,3.11-1.63c0.4-0.17,0.59,0.06,0.79,0.38
		c1.28,2,2.56,4,3.86,5.98c0.38,0.59,0.84,1.13,1.26,1.69c0.58-0.3,1.16-0.6,1.74-0.91c1.25-0.67,2.5-1.34,3.82-2.05
		c-0.99-2.13-1.99-4.27-2.98-6.41c-0.12-0.26-0.29-0.52-0.31-0.79c-0.02-0.17,0.17-0.49,0.3-0.52c1.31-0.23,2.62-0.43,3.93-0.6
		c0.43-0.06,0.52,0.31,0.63,0.63c0.44,1.31,0.89,2.61,1.34,3.91c0.2,0.58,0.41,1.16,0.61,1.74c0.16,0.47,0.44,0.52,0.89,0.39
		c1.27-0.37,2.55-0.75,3.85-1.01c1.62-0.33,3.26-0.57,4.9-0.83c0.42-0.07,0.86-0.03,1.28-0.07c0.73-0.06,0.77-0.14,0.72-0.89
		c-0.09-1.37-0.2-2.75-0.25-4.12c-0.04-0.99-0.01-0.99,0.98-1.34c0.04-0.02,0.09-0.03,0.13-0.05c1.5-1,2.79-0.24,4.09,0.47
		c0.47,0.25,0.5,0.65,0.47,1.09c-0.08,1.23-0.19,2.46-0.25,3.69c-0.06,1.12-0.04,1.13,1.01,1.19c3.06,0.16,5.97,1.03,8.91,1.76
		c0.14,0.03,0.27,0.09,0.4,0.15c0.46,0.19,0.67,0.03,0.81-0.45c0.55-1.77,1.14-3.52,1.72-5.28c0.33-0.98,0.33-0.98,1.38-0.83
		c0.89,0.13,1.78,0.23,2.67,0.37c0.32,0.05,0.61,0.21,1.03,0.37c-1.11,2.53-2.19,4.98-3.28,7.46c1.86,0.99,3.68,1.97,5.57,2.98
		c0.21-0.27,0.43-0.51,0.61-0.78c1.4-2.2,2.79-4.41,4.19-6.61c0.53-0.83,0.59-0.88,1.48-0.53c0.92,0.36,1.87,0.63,2.57,1.45
		c0.39,0.46,0.45,0.73,0.07,1.2c-1.07,1.33-2.1,2.69-3.15,4.04c-0.76,0.97-1.51,1.96-2.29,2.91c-0.36,0.43-0.3,0.73,0.11,1.07
		c1.06,0.87,2.11,1.76,3.15,2.62c1.45-1.42,2.92-2.82,4.35-4.26c1.7-1.72,3.35-3.48,5.03-5.22c0.77-0.8,0.79-0.82,1.81-0.38
		c1.08,0.47,2.14,0.99,3.42,1.59c-4.17,3.67-8.2,7.22-12.28,10.82c0.82,1.03,1.55,1.95,2.39,3c5.38-3.84,10.73-7.74,16.07-11.72
		c0.11,0.16,0.25,0.27,0.24,0.36c-0.25,2.26-0.35,4.55-1.42,6.62c-0.2,0.39-0.54,0.78-0.91,1.01c-2.92,1.77-5.86,3.5-8.79,5.25
		c-0.73,0.44-1.47,0.87-2.2,1.32c-0.8,0.5-0.79,0.51-0.37,1.3c0.49,0.92,0.96,1.86,1.43,2.79c0.45,0.89,0.46,0.9,1.39,0.5
		c2.91-1.27,5.83-2.53,8.74-3.8c0.17-0.07,0.35-0.14,0.69-0.27c0.11,0.81,0.29,1.54,0.3,2.28c0.02,1.63-0.13,1.8-1.63,2.34
		c-2.41,0.86-4.81,1.74-7.23,2.57c-0.47,0.16-0.63,0.4-0.5,0.83c0.23,0.76,0.54,1.51,0.75,2.27c0.15,0.53,0.41,0.69,0.93,0.55
		c2.24-0.59,4.49-1.17,6.74-1.75c0.44-0.11,0.88-0.18,1.56-0.32c-0.34,1.48-0.63,2.7-0.9,3.93c-0.18,0.81-0.7,1.18-1.49,1.29
		c-1.41,0.2-2.82,0.42-4.22,0.64c-0.23,0.04-0.47,0.08-0.7,0.14c-0.79,0.21-0.84,0.27-0.75,1.07c0.13,1.13,0.29,2.25,0.43,3.29
		c1.49,0,3,0,4.51,0c0.84,0,1,0.14,1.07,0.96c0.03,0.33,0.01,0.67,0,1c-0.08,1.36-0.21,1.48-1.63,1.48c-1.09,0-2.19,0-3.28-0.02
		c-0.53-0.01-0.79,0.19-0.77,0.76c0.02,0.47-0.01,0.95-0.02,1.43c-0.02,1.37-0.02,1.37,1.37,1.53c1.31,0.15,2.63,0.27,4.03,0.42
		c-0.24,1.18-0.15,2.34-0.92,3.29c-0.32,0.4-0.61,0.62-1.2,0.45c-1-0.29-2.04-0.42-3.06-0.63c-0.49-0.1-0.78-0.01-0.91,0.56
		c-0.26,1.11-0.61,2.19-0.93,3.28c-0.12,0.42,0.05,0.6,0.45,0.71c0.96,0.26,1.9,0.62,2.87,0.82c1.02,0.22,1.31,0.54,1.03,1.73
		c-0.5,2.11-0.8,2.25-2.77,1.4c-0.78-0.34-1.57-0.66-2.37-0.99c-0.08-0.03-0.18,0-0.29,0c-0.78,1.66-1.57,3.32-2.41,5.12
		c1.04,0.61,2.08,1.22,3.13,1.83c0.16,0.09,0.35,0.14,0.52,0.23c1.15,0.64,1.26,1,0.71,2.25c-0.02,0.04-0.04,0.09-0.06,0.13
		c-0.89,1.85-1.23,1.95-2.88,0.82c-1.05-0.72-2.09-1.46-3.19-2.23c-1.13,1.46-2.22,2.86-3.41,4.4c0.85,0.76,1.71,1.55,2.57,2.32
		c0.67,0.6,1.35,1.2,2.02,1.8c0.74,0.66,0.79,0.83,0.4,1.7c-0.19,0.43-0.44,0.85-0.71,1.24c-0.92,1.33-1.09,1.33-2.19,0.18
		c-1.47-1.54-2.96-3.08-4.49-4.67c-1.26,1.09-2.53,2.18-3.86,3.33c1.87,2.48,3.72,4.93,5.6,7.41c-0.61,1.44-1.63,2.37-3.09,2.91
		c-0.53,0.19-0.8,0.08-1.05-0.34c-0.49-0.81-1-1.61-1.49-2.42c-0.96-1.59-1.92-3.17-2.85-4.77c-0.29-0.5-0.54-0.52-1.01-0.23
		c-0.97,0.6-1.97,1.14-2.96,1.7c-0.71,0.4-0.71,0.46-0.35,1.22c1.6,3.39,3.18,6.78,4.79,10.17c0.25,0.52,0.21,0.98-0.07,1.48
		c-0.67,1.22-1.37,1.93-3.22,3.08c-0.15-0.28-0.33-0.53-0.43-0.82c-1.44-3.97-2.86-7.95-4.29-11.92c-0.1-0.27-0.25-0.52-0.33-0.79
		c-0.13-0.41-0.39-0.51-0.77-0.4c-1.27,0.38-2.54,0.77-3.81,1.17c-0.51,0.16-0.42,0.56-0.33,0.94c0.36,1.48,0.72,2.95,1.08,4.43
		c0.68,2.86,1.36,5.72,2.04,8.58c0.31,1.29,0.62,2.58,0.97,3.86c0.12,0.44,0.17,0.81-0.17,1.18c-0.98,1.06-2.03,2-3.41,2.5
		c-0.95,0.34-1.2,0.21-1.34-0.75c-0.57-3.85-1.13-7.7-1.7-11.54c-0.41-2.76-0.84-5.51-1.26-8.3c-1.44,0.14-2.8,0.29-4.16,0.4
		c-0.47,0.04-0.69,0.22-0.68,0.7c0.07,2.66,0.14,5.32,0.21,7.98c0.02,0.85,0.07,1.71,0.09,2.56c0.04,2.71,0.01,5.43,0.14,8.14
		c0.05,1.05-0.43,1.71-1.09,2.32c-0.21,0.2-0.58,0.32-0.88,0.31c-0.41-0.01-0.85-0.11-1.23-0.28c-2.07-0.88-2.11-0.89-2.01-3.09
		c0.11-2.23,0.32-4.45,0.49-6.68c0.02-0.24,0.02-0.48,0.04-0.71c0.18-2.94,0.32-5.88,0.54-8.82c0.18-2.38,0.12-2.48-2.29-2.66
		c-0.66-0.05-1.32-0.1-2.1-0.16c-0.21,1.1-0.46,2.24-0.65,3.39c-0.34,2.11-0.65,4.22-0.98,6.33c-0.46,2.95-0.91,5.9-1.37,8.85
		c-0.07,0.42-0.16,0.84-0.24,1.26c-0.19,1.03-0.27,1.03-1.28,0.67c-1.35-0.48-2.32-1.45-3.32-2.4c-0.51-0.49-0.34-1.08-0.21-1.61
		c0.85-3.36,1.76-6.7,2.62-10.05c0.6-2.34,1.14-4.69,1.74-7.17c-0.81-0.26-1.65-0.54-2.49-0.8c-0.23-0.07-0.48-0.07-0.69-0.17
		c-1.79-0.83-1.67-0.63-2.35,1.16c-1.48,3.9-2.9,7.83-4.36,11.74c-0.06,0.17-0.18,0.33-0.31,0.56c-1.67-0.72-2.78-1.91-3.52-3.52
		c-0.21-0.45,0.03-0.72,0.19-1.05c1.39-2.91,2.8-5.81,4.19-8.72c0.18-0.38,0.34-0.78,0.53-1.16c0.56-1.09,0.55-1.07-0.44-1.59
		c-1.09-0.57-2.16-1.18-3.36-1.84c-0.84,1.31-1.71,2.65-2.56,4c-0.71,1.12-1.39,2.26-2.1,3.38c-0.56,0.87-0.83,0.96-1.75,0.5
		c-0.46-0.23-0.89-0.55-1.28-0.89c-1.44-1.26-1.46-1.74-0.27-3.24c1.56-1.97,3.09-3.96,4.7-6.02c-1.25-1.09-2.52-2.2-3.85-3.35
		c-1.83,1.88-3.66,3.76-5.49,5.63c-1.13-0.66-1.66-1.59-2.05-2.63c-0.23-0.61-0.16-1.02,0.39-1.46c1.37-1.1,2.67-2.27,4-3.42
		c0.25-0.21,0.51-0.42,0.77-0.64c-1.16-1.52-2.25-2.94-3.42-4.46c-1.27,0.83-2.57,1.67-3.86,2.52c-1.04,0.69-1.21,0.66-1.92-0.35
		c-0.11-0.16-0.23-0.3-0.33-0.47c-0.81-1.46-0.66-1.98,0.78-2.78c1.16-0.64,2.32-1.28,3.51-1.94c-0.84-1.82-1.62-3.49-2.42-5.23
		c-0.93,0.38-1.85,0.76-2.77,1.13c-0.44,0.18-0.88,0.35-1.33,0.49c-0.35,0.11-0.66,0.02-0.82-0.36c-0.18-0.44-0.45-0.86-0.53-1.32
		c-0.28-1.55-0.03-1.84,1.19-2.04c0.88-0.14,1.72-0.53,2.58-0.78c0.57-0.16,0.77-0.38,0.51-1.02c-0.33-0.83-0.48-1.73-0.73-2.59
		c-0.32-1.1-0.32-1.09-1.48-0.87c-0.89,0.17-1.79,0.28-2.65,0.51c-0.71,0.2-1.09-0.07-1.37-0.65c-0.08-0.17-0.2-0.33-0.25-0.51
		c-0.2-0.73-0.67-1.53-0.51-2.17c0.23-0.92,1.31-0.38,2-0.59c0.85-0.26,1.78-0.28,2.68-0.35c0.57-0.04,0.82-0.21,0.83-0.85
		c0.06-2.72,0.09-2.72-2.59-2.69c-0.71,0.01-1.43,0-2.14,0.03c-0.57,0.03-0.93-0.2-0.97-0.79c-0.05-0.88-0.35-1.78,0.13-2.73
		c1.49,0.05,3.04,0.11,4.59,0.15c0.88,0.02,0.87,0.01,0.96-0.82c0.08-0.76,0.16-1.51,0.26-2.26c0.15-1.14,0.09-1.26-0.98-1.45
		c-1.4-0.25-2.81-0.5-4.22-0.66c-1.09-0.12-1.9-0.46-2.12-1.67c-0.21-1.15-0.49-2.3-0.79-3.66c1.45,0.34,2.68,0.62,3.9,0.93
		c1.51,0.39,3.02,0.8,4.53,1.21c0.43,0.12,0.72,0.05,0.86-0.45c0.25-0.95,0.55-1.9,0.85-2.96c-1.18-0.44-2.36-0.91-3.55-1.33
		c-1.7-0.6-3.39-1.19-5.11-1.72c-0.47-0.15-0.69-0.34-0.78-0.84c-0.21-1.18-0.41-2.33,0.3-3.54c1.35,0.58,2.69,1.15,4.02,1.73
		c1.78,0.78,3.55,1.58,5.33,2.36c0.96,0.42,1.03,0.37,1.49-0.59c0.55-1.15,1.14-2.28,1.77-3.52c-1.36-0.83-2.71-1.68-4.07-2.5
		c-2.53-1.5-5.06-2.98-7.6-4.46c-0.65-0.38-1.01-0.94-1.29-1.63c-0.62-1.52-0.81-3.11-1.05-4.7c-0.08-0.55-0.14-1.1-0.25-1.92
		C202.04,218.01,204.63,220.11,207.33,222.05z"/>
	<path class="st0" d="M250.22,293.2c22.15-0.09,39.47-17.85,39.83-39.56c0.37-22.25-18.02-41.27-41.28-40.62
		c-20.43,0.57-38.71,17.63-38.65,40.08C210.04,274.92,227.63,293.29,250.22,293.2z M215.48,251.4c0.31-0.79,1.03-1.13,1.73-1.38
		c0.87-0.32,1.93,0.46,2.04,1.4c0.05,0.38,0.03,0.76,0.1,1.14c0.19,0.98,0.58,1.32,1.52,1.36c0.88,0.03,1.21-0.24,1.55-1.13
		c0.55-1.41-0.03-2.54-0.99-3.45c-0.79-0.74-1.73-1.32-2.63-1.93c-0.99-0.67-1.93-1.38-2.4-2.55c-0.23-0.55-0.28-1.07-0.13-1.66
		c0.36-1.41,0.91-2.69,2.09-3.63c1.04-0.83,1.92-0.9,3.02-0.27c0.52,0.3,0.75,0.68,0.59,1.28c-0.13,0.46-0.2,0.93-0.3,1.39
		c-0.18,0.87,0.01,1.35,0.65,1.67c0.88,0.45,1.68,0.38,2.18-0.33c0.52-0.74,0.99-1.54,0.55-2.51c-0.35-0.77-0.65-1.58-1.08-2.3
		c-0.46-0.77-1.06-1.46-1.57-2.2c-1.23-1.8-1.19-3.73,0.49-5.26c0.65-0.6,1.45-1.06,2.23-1.49c0.71-0.4,1.47-0.32,2.18,0.08
		c1.2,0.67,1.39,1.41,0.64,2.56c-0.18,0.28-0.38,0.55-0.55,0.83c-0.46,0.77-0.43,1.22,0.11,1.78c0.55,0.57,1.31,0.77,1.95,0.43
		c0.9-0.46,1.41-1.19,1.52-2.24c0.15-1.48-0.44-2.8-0.79-4.17c-0.14-0.55-0.27-1.1-0.39-1.66c-0.28-1.35,0.2-2.45,1.22-3.28
		c1.13-0.93,2.45-1.42,3.93-1.4c0.82,0.01,1.49,0.33,1.97,0.97c0.67,0.9,0.88,1.96-0.45,2.58c-0.17,0.08-0.31,0.21-0.47,0.32
		c-0.98,0.69-1.1,1.25-0.51,2.29c0.44,0.77,1.13,0.95,2.09,0.56c1.24-0.5,2.05-1.37,2.25-2.71c0.18-1.22,0.28-2.45,0.42-3.67
		c0.16-1.41,0.47-2.75,1.87-3.47c1.53-0.79,3.11-0.77,4.7-0.2c1.05,0.37,1.58,1.17,1.63,2.28c0.04,0.92-0.23,1.29-1.13,1.55
		c-0.23,0.07-0.47,0.07-0.7,0.12c-1.28,0.26-1.7,0.93-1.35,2.16c0.22,0.8,1.49,1.47,2.33,1.11c0.81-0.35,1.68-0.68,2.12-1.58
		c0.56-1.14,1.16-2.27,1.75-3.4c0.26-0.5,0.5-1.04,0.86-1.47c0.81-0.97,1.81-1.44,3.14-1.24c1.31,0.2,2.46,0.68,3.45,1.55
		c0.78,0.69,1.09,1.52,0.75,2.56c-0.29,0.9-0.75,1.23-1.67,1.13c-0.19-0.02-0.37-0.11-0.55-0.14c-1.29-0.24-1.79,0.08-2.05,1.3
		c-0.21,0.96,0.28,1.66,1.37,1.97c1.44,0.41,2.72,0.11,3.81-0.91c0.9-0.84,1.81-1.68,2.68-2.55c1.82-1.8,3.89-1.22,5.34,0.08
		c0.46,0.41,0.85,0.89,1.28,1.34c0.58,0.6,0.68,1.35,0.61,2.11c-0.13,1.42-1.35,2.13-2.67,1.49c-0.21-0.1-0.39-0.28-0.6-0.39
		c-0.8-0.41-1.4-0.29-1.89,0.34c-0.53,0.68-0.61,1.53-0.08,2.1c0.8,0.88,1.79,1.49,3.03,1.15c1.09-0.31,2.14-0.76,3.2-1.16
		c0.66-0.25,1.32-0.52,1.99-0.75c1.69-0.57,3,0.09,4,1.4c0.79,1.03,1.24,2.23,1.25,3.57c0.01,0.99-0.55,1.59-1.31,2.06
		c-0.54,0.33-1.08,0.28-1.56-0.2c-0.43-0.44-0.85-0.91-1.34-1.28c-0.61-0.46-0.97-0.38-1.65,0.18c-0.69,0.57-0.86,1.09-0.61,1.72
		c0.63,1.58,2.18,1.92,3.78,1.86c1.14-0.04,2.28-0.11,3.42-0.2c1.96-0.16,3.52,0.99,3.97,3.11c0.19,0.91,0.11,1.89,0.06,2.84
		c-0.02,0.36-0.21,0.74-0.43,1.04c-0.46,0.65-1.14,1.03-1.93,1.03c-0.79,0-1.09-0.66-1.39-1.27c-0.1-0.21-0.16-0.45-0.26-0.66
		c-0.4-0.92-0.8-1.16-1.61-0.96c-1.05,0.25-1.57,0.86-1.43,1.79c0.14,0.96,0.46,1.88,1.45,2.29c1,0.41,2.03,0.78,3.06,1.13
		c0.58,0.2,1.19,0.32,1.78,0.5c2.29,0.69,2.77,2.26,2.68,4.28c-0.04,0.95-0.54,1.91-0.98,2.79c-0.46,0.91-1.62,1.32-2.55,1.09
		c-0.85-0.21-1.13-0.51-1.2-1.36c-0.03-0.38-0.01-0.76,0-1.14c0.01-0.59-0.24-1.01-0.78-1.24c-0.57-0.25-1.57-0.16-1.88,0.25
		c-0.52,0.7-0.88,1.45-0.52,2.38c0.46,1.21,1.34,2.04,2.37,2.75c0.82,0.56,1.67,1.1,2.42,1.75c1.49,1.3,1.86,2.61,1.08,4.34
		c-0.42,0.93-1.08,1.8-1.81,2.52c-0.42,0.42-1.21,0.74-1.79,0.68c-1.64-0.16-2.4-0.75-1.73-2.54c0.22-0.58,0.5-1.14,0.08-1.75
		c-0.68-0.99-2.05-1-2.78-0.01c-0.78,1.04-0.64,2.17-0.11,3.23c0.46,0.93,1.09,1.77,1.66,2.65c0.1,0.16,0.23,0.3,0.35,0.45
		c1.84,2.51,1.51,4.4-1.13,6.45c-0.41,0.32-0.91,0.51-1.37,0.75c-1.05,0.55-1.93,0.17-2.72-0.53c-0.78-0.69-0.79-1.21-0.13-2.07
		c0.2-0.26,0.44-0.51,0.61-0.79c0.48-0.77,0.39-1.39-0.27-2.04c-0.62-0.6-1.12-0.61-1.93-0.22c-1.04,0.51-1.46,2.04-1.23,3.4
		c0.2,1.21,0.52,2.41,0.86,3.6c0.8,2.78-0.42,4.32-3.09,5.29c-0.44,0.16-0.93,0.2-1.39,0.26c-1.29,0.18-2.19-0.35-2.76-1.52
		c-0.4-0.81-0.37-1.15,0.33-1.72c0.29-0.24,0.65-0.39,0.97-0.6c0.71-0.47,0.95-1.22,0.64-1.98c-0.3-0.75-1.03-1.15-1.84-1.01
		c-0.92,0.16-1.52,0.69-1.89,1.54c-0.55,1.29-0.64,2.66-0.76,4.03c-0.06,0.75-0.14,1.51-0.33,2.23c-0.49,1.85-1.96,2.53-3.64,2.64
		c-0.95,0.07-1.97-0.25-2.9-0.56c-0.93-0.31-1.48-1.45-1.36-2.43c0.06-0.51,0.27-0.91,0.8-1.07c0.46-0.14,0.91-0.28,1.36-0.42
		c0.77-0.24,1.16-0.7,1.18-1.4c0.02-0.73-0.42-1.43-1.16-1.61c-1.18-0.29-2.33-0.09-3.11,0.88c-0.65,0.8-1.12,1.75-1.62,2.66
		c-0.36,0.66-0.61,1.39-0.97,2.06c-1.17,2.15-2.84,2.28-4.72,1.81c-0.72-0.18-1.38-0.62-2.04-1c-0.82-0.46-1.18-1.24-1.19-2.14
		c-0.02-1.09,0.31-2.14,1.82-1.87c0.09,0.02,0.19,0.01,0.19,0.01c0.44,0.03,0.62,0.05,0.8,0.05c1.01-0.01,1.23-0.16,1.48-0.99
		c0.27-0.88,0.05-1.51-0.68-1.96c-0.82-0.5-1.66-0.65-2.56-0.17c-1.06,0.56-1.99,1.27-2.76,2.21c-0.78,0.97-1.66,1.82-2.85,2.31
		c-0.75,0.31-1.46,0.34-2.2,0.03c-1.68-0.72-3.04-1.74-3.56-3.6c-0.24-0.88,0.2-2,0.95-2.47c0.54-0.34,1.01-0.07,1.48,0.12
		c0.44,0.17,0.85,0.44,1.29,0.54c0.6,0.14,1.12-0.07,1.46-0.63c0.35-0.58,0.43-1.19,0.07-1.75c-0.42-0.65-0.97-1.11-1.85-1.15
		c-1.37-0.06-2.61,0.19-3.8,0.91c-0.77,0.46-1.63,0.76-2.45,1.13c-0.95,0.43-1.87,0.31-2.71-0.24c-1.76-1.13-2.73-2.72-2.7-4.86
		c0.01-1.01,0.66-1.56,1.43-1.96c0.52-0.27,1.11-0.2,1.53,0.35c0.23,0.3,0.49,0.59,0.76,0.85c0.62,0.59,1.22,0.64,1.93,0.21
		c0.7-0.43,0.88-0.95,0.68-1.82c-0.23-0.97-0.82-1.58-1.72-1.93c-1.2-0.46-2.43-0.32-3.66-0.19c-0.8,0.09-1.61,0.16-2.41,0.17
		c-1.47,0.01-2.57-0.68-3.2-1.99c-0.63-1.31-0.86-2.69-0.5-4.14c0.22-0.87,0.8-1.39,1.57-1.72c0.99-0.43,1.62-0.17,2.06,0.81
		c0.1,0.22,0.16,0.45,0.25,0.67c0.24,0.65,0.54,1.26,1.37,1.23c0.64-0.02,1.26-0.2,1.57-0.81c0.36-0.72,0.34-1.47-0.2-2.14
		c-0.69-0.85-1.67-1.25-2.66-1.57c-0.9-0.29-1.84-0.44-2.77-0.64c-2.45-0.52-3.8-2.77-3.08-5.18
		C214.95,252.63,215.23,252.02,215.48,251.4z"/>
	<path class="st0" d="M250.08,278.65c14.24,0.01,25.21-11.96,24.91-25.04c0.48-13.53-11.28-25.65-25.7-25.21
		c-13.05,0.39-24.32,11.21-24.28,25.13C225.05,267.38,236.1,278.64,250.08,278.65z M249.91,233.36c11.3-0.06,20.22,8.88,20.35,20.06
		c0.14,11.63-9.19,20.5-20.19,20.49c-11.21,0.11-20.09-9.14-20.27-19.83C229.61,242.63,238.74,233.42,249.91,233.36z"/>
	<path class="st0" d="M251.82,245.94c0.07,1.34,0.01,2.7,0.01,4.34c0.44-0.77,0.75-1.32,1.07-1.87c1.78-3.05,2.68-6.35,2.84-9.86
		c0.03-0.56-0.05-1.14-0.16-1.69c-0.05-0.23-0.28-0.52-0.48-0.59c-1.26-0.41-2.53-0.82-3.89-0.61c-0.76,0.12-0.91,0.29-0.68,1.04
		C251.42,239.71,251.65,242.82,251.82,245.94z"/>
	<path class="st0" d="M255.24,251.2c3.8-1.64,6.84-4.19,9.13-7.64c0.13-0.2,0.23-0.59,0.13-0.75c-0.92-1.39-2.01-2.6-3.71-3.31
		c-1.86,4.48-4.2,8.55-7.06,12.39C254.23,251.66,254.73,251.42,255.24,251.2z"/>
	<path class="st0" d="M234,248.48c1.56,0.13,3.13,0.14,4.66,0.43c2.27,0.43,4.51,1.04,6.75,1.6c0.53,0.13,1.04,0.35,1.78,0.6
		c-0.21-0.36-0.28-0.52-0.39-0.64c-1.42-1.46-2.9-2.84-4.6-3.99c-1.83-1.23-3.83-2.07-5.91-2.72c-0.58-0.18-1.22-0.38-1.64,0.33
		c-0.63,1.06-1.29,2.1-1.45,3.37C233.08,248.42,233.06,248.4,234,248.48z"/>
	<path class="st0" d="M265.86,259.61c-2.78-0.28-5.52-0.79-8.2-1.54c-1.59-0.45-3.13-1.03-4.7-1.54c-0.07,0.06-0.14,0.11-0.21,0.17
		c1.27,1.25,2.47,2.57,3.82,3.73c2.1,1.81,4.49,3.11,7.18,3.88c0.55,0.16,0.9,0.11,1.23-0.33c0.78-1.03,1.38-2.15,1.65-3.42
		C266.78,259.8,266.67,259.69,265.86,259.61z"/>
	<path class="st0" d="M248.14,257.41c-0.28,0.47-0.57,0.93-0.85,1.41c-1.84,3.17-2.8,6.59-2.85,10.25
		c-0.01,0.47,0.04,0.95,0.15,1.41c0.06,0.23,0.27,0.5,0.48,0.61c1.5,0.76,3.07,0.61,4.58,0.43c-0.38-2.41-0.72-4.7-1.09-6.98
		C248.19,262.19,248.19,259.84,248.14,257.41z"/>
	<path class="st0" d="M250.78,257.75c-0.11,0.34-0.15,0.65-0.1,0.95c0.27,1.58,0.5,3.18,0.88,4.74c0.65,2.67,2.03,4.99,3.69,7.15
		c0.21,0.28,0.48,0.43,0.87,0.27c1.43-0.62,2.87-1.22,4.05-2.54C256.5,265.27,253.42,261.73,250.78,257.75z"/>
	<path class="st0" d="M249.17,249.74c0.04-0.43,0.07-0.61,0.08-0.78c0.01-2.03-0.69-3.91-1.3-5.79c-0.72-2.22-1.98-4.17-3.47-5.98
		c-0.31-0.37-0.61-0.58-1.09-0.42c-1.49,0.51-2.78,1.33-3.96,2.58C243.19,242.31,246.36,245.71,249.17,249.74z"/>
	<path class="st0" d="M254,254.18c0,0.08,0,0.17,0,0.25c0.32,0.06,0.64,0.12,0.96,0.2c3.13,0.77,6.29,0.91,9.46,0.35
		c0.97-0.17,1.91-0.54,2.87-0.83c0.56-0.17,0.8-0.5,0.82-1.14c0.06-1.32-0.23-2.55-0.66-3.77c-0.19-0.53-0.48-0.63-0.98-0.3
		c-3.18,2.12-6.7,3.51-10.3,4.72C255.47,253.89,254.73,254.01,254,254.18z"/>
	<path class="st0" d="M246.11,253.2c-4.76-1.38-9.46-0.9-13.47,0.71c-0.4,0.16-0.56,0.43-0.58,0.87c-0.07,1.4,0.2,2.73,0.76,4
		c0.19,0.42,0.46,0.59,0.88,0.3c0.16-0.11,0.3-0.23,0.46-0.33c2.32-1.45,4.68-2.85,7.26-3.81
		C242.92,254.39,244.42,253.83,246.11,253.2z"/>
	<path class="st0" d="M245.97,255.79c-1.06,0.54-2.14,1.03-3.15,1.65c-2.75,1.7-4.95,3.97-6.71,6.68c-0.29,0.44-0.3,0.85,0.06,1.29
		c0.96,1.19,2.14,2.09,3.6,2.85c1.62-4.57,3.89-8.7,6.93-12.66C246.3,255.7,246.12,255.71,245.97,255.79z"/>
	<path class="st0" d="M250,100c-82.84,0-150,67.16-150,150c0,82.84,67.16,150,150,150s150-67.16,150-150
		C400,167.16,332.84,100,250,100z M250,388c-76.09,0-138-61.91-138-138c0-76.09,61.91-138,138-138c76.09,0,138,61.91,138,138
		C388,326.09,326.09,388,250,388z"/>
	<path class="st0" d="M142.11,250c0,59.59,48.31,107.89,107.89,107.89c59.59,0,107.89-48.31,107.89-107.89
		c0-59.59-48.31-107.89-107.89-107.89C190.41,142.11,142.11,190.41,142.11,250z M250,154.11c52.88,0,95.89,43.02,95.89,95.89
		c0,52.88-43.02,95.89-95.89,95.89c-52.88,0-95.89-43.02-95.89-95.89C154.11,197.12,197.12,154.11,250,154.11z"/>
	<polygon class="st0" points="126.52,241.94 131.65,245.72 131.52,239.35 136.7,235.64 130.6,233.79 128.67,227.72 125.03,232.94 
		118.66,232.91 122.5,237.98 120.5,244.03 	"/>
	<polygon class="st0" points="380.99,232.91 374.62,232.94 370.98,227.72 369.05,233.79 362.95,235.64 368.13,239.35 368.01,245.72 
		373.13,241.94 379.15,244.03 377.15,237.98 	"/>
	<polygon class="st0" points="148.43,196.75 142.29,193.39 143.1,191.91 150.81,192.39 152.51,189.28 142.94,188.83 137.22,181.73 
		135.61,184.66 140.55,190.47 139.72,191.99 133.48,188.57 132.01,191.24 146.96,199.42 	"/>
	<path class="st0" d="M153.91,187.21L153.91,187.21l2.15-2.97c0.55-0.75,0.88-1.52,0.99-2.29c0.11-0.77,0-1.51-0.34-2.22
		c-0.33-0.71-0.88-1.33-1.63-1.88l-1.1-0.8c-0.76-0.55-1.52-0.87-2.3-0.97c-0.78-0.1-1.52,0.02-2.22,0.36
		c-0.7,0.34-1.33,0.89-1.88,1.65l-1.23,1.7l-5.3-3.84l-1.79,2.47l13.8,10L153.91,187.21z M148.71,181.5l1.1-1.52
		c0.2-0.27,0.44-0.46,0.72-0.58c0.29-0.11,0.59-0.14,0.91-0.07c0.32,0.06,0.64,0.21,0.98,0.45l0.55,0.4
		c0.32,0.23,0.55,0.49,0.71,0.78c0.16,0.29,0.23,0.58,0.2,0.88c-0.02,0.3-0.13,0.58-0.33,0.85l-1.1,1.52L148.71,181.5z"/>
	
		<rect x="151.95" y="164.73" transform="matrix(0.5869 -0.8096 0.8096 0.5869 -76.8577 195.8517)" class="st0" width="3.11" height="17.04"/>
	<path class="st0" d="M162.85,175.35l2.08-2.23l-4.83-4.51l1.76-1.88c0.65-0.7,1.08-1.43,1.31-2.19c0.22-0.76,0.21-1.51-0.02-2.24
		c-0.23-0.74-0.68-1.42-1.35-2.04l-1.06-0.99c-0.67-0.63-1.38-1.04-2.14-1.22c-0.76-0.19-1.5-0.15-2.25,0.12
		c-0.74,0.26-1.44,0.75-2.1,1.45l-2.88,3.08l0,0l-0.96,1.03L162.85,175.35z M156.39,161.61c0.21-0.23,0.45-0.38,0.72-0.45
		c0.26-0.07,0.54-0.06,0.83,0.03c0.28,0.1,0.56,0.27,0.82,0.51l0.74,0.69c0.25,0.24,0.43,0.49,0.54,0.77
		c0.11,0.28,0.14,0.55,0.08,0.82c-0.06,0.27-0.19,0.51-0.4,0.74l-1.77,1.89l-3.32-3.1L156.39,161.61z"/>
	<polygon class="st0" points="171.44,166.43 173.72,164.41 164.36,153.86 168.21,150.45 166.26,148.25 161.21,152.73 161.21,152.73 
		160.13,153.68 	"/>
	
		<rect x="182.5" y="137.29" transform="matrix(0.8193 -0.5734 0.5734 0.8193 -50.3443 131.8793)" class="st0" width="3.11" height="17.04"/>
	<path class="st0" d="M179.87,159.14L179.87,159.14l3.01-2.1c0.76-0.53,1.32-1.15,1.68-1.84s0.5-1.43,0.41-2.21
		c-0.09-0.78-0.4-1.55-0.93-2.31l-0.78-1.11c-0.53-0.76-1.15-1.32-1.86-1.67s-1.44-0.48-2.22-0.39c-0.77,0.09-1.55,0.4-2.32,0.94
		l-1.72,1.2l-3.76-5.37l-2.5,1.75l9.77,13.96L179.87,159.14z M178.36,150.97c0.28-0.19,0.57-0.3,0.87-0.31
		c0.31-0.01,0.6,0.06,0.88,0.23c0.28,0.17,0.54,0.41,0.77,0.75l0.39,0.56c0.22,0.32,0.36,0.64,0.42,0.97
		c0.05,0.32,0.02,0.62-0.1,0.9c-0.12,0.27-0.32,0.51-0.59,0.7l-1.54,1.08l-2.65-3.78L178.36,150.97z"/>
	<path class="st0" d="M188.86,138.77c-0.26-0.64-0.33-1.18-0.2-1.62s0.44-0.79,0.95-1.06c0.47-0.25,0.9-0.32,1.29-0.21
		c0.39,0.11,0.7,0.38,0.94,0.83l0.45,0.85c0.21,0.39,0.26,0.74,0.17,1.06c-0.1,0.32-0.33,0.58-0.7,0.78l-2.14,1.14l1.38,2.59
		l2.14-1.14c0.45-0.24,0.88-0.3,1.27-0.16c0.39,0.14,0.72,0.45,0.98,0.94l0.43,0.82c0.29,0.55,0.36,1.05,0.21,1.52
		c-0.15,0.47-0.51,0.85-1.07,1.14c-0.59,0.32-1.12,0.42-1.59,0.31c-0.47-0.11-0.87-0.45-1.22-1.02l-2.73,1.46
		c0.57,0.95,1.2,1.65,1.9,2.1s1.47,0.65,2.31,0.6c0.84-0.05,1.77-0.33,2.77-0.87c0.94-0.5,1.67-1.1,2.18-1.78s0.78-1.43,0.81-2.23
		c0.03-0.8-0.18-1.64-0.64-2.5l-0.43-0.82c-0.43-0.79-0.95-1.37-1.57-1.73c-0.62-0.36-1.29-0.47-2-0.34
		c0.37-0.58,0.57-1.18,0.61-1.81c0.04-0.63-0.1-1.24-0.41-1.82l-0.45-0.84c-0.42-0.79-0.95-1.38-1.58-1.77
		c-0.63-0.39-1.35-0.56-2.14-0.51c-0.79,0.05-1.64,0.31-2.53,0.78c-0.94,0.5-1.64,1.08-2.11,1.74c-0.48,0.66-0.71,1.4-0.71,2.24
		c0,0.83,0.23,1.76,0.69,2.79L188.86,138.77z"/>
	<path class="st0" d="M200.47,140.76c0.43,1.05,0.98,1.87,1.65,2.45c0.67,0.59,1.45,0.93,2.31,1.03c0.87,0.1,1.8-0.05,2.8-0.46
		c0.98-0.4,1.73-0.93,2.24-1.59c0.51-0.66,0.79-1.47,0.84-2.41c0.05-0.94-0.13-2.04-0.54-3.29l-2.91,1.18
		c0.19,0.59,0.29,1.1,0.29,1.53c0,0.44-0.09,0.79-0.27,1.08c-0.18,0.29-0.45,0.5-0.81,0.65c-0.38,0.16-0.74,0.21-1.09,0.16
		c-0.34-0.05-0.65-0.2-0.92-0.45c-0.28-0.25-0.5-0.6-0.69-1.05l-2.51-6.2c-0.18-0.44-0.26-0.85-0.24-1.23
		c0.02-0.38,0.13-0.71,0.34-0.98c0.21-0.27,0.5-0.49,0.89-0.64c0.36-0.14,0.7-0.18,1.03-0.1c0.33,0.08,0.65,0.27,0.95,0.58
		c0.3,0.31,0.59,0.75,0.86,1.3l2.91-1.18c-0.57-1.19-1.19-2.1-1.89-2.74c-0.69-0.64-1.46-1.02-2.29-1.14
		c-0.83-0.12-1.74,0.02-2.72,0.42c-1,0.41-1.77,0.94-2.33,1.62c-0.55,0.68-0.87,1.46-0.94,2.35c-0.08,0.9,0.1,1.87,0.53,2.92
		L200.47,140.76z"/>
	<path class="st0" d="M216.41,140.33l-1.93-6.72l1.62-0.47l5.08,5.82l3.08-0.88l3.06-0.53l0.27-2.77l4.73-0.81l1.18,2.52l3.12-0.54
		l-8.1-15.9l-2.01,0.35l-2.25,17.23l-6.08-6.76l1.01-9.06l-3.21,0.92l-0.66,7.59l-1.65,0.48l-1.97-6.84l-2.93,0.84l4.71,16.38
		L216.41,140.33z M228.48,125.79l2.56,5.44l-3.15,0.54L228.48,125.79z"/>
	<path class="st0" d="M237.44,127.13c0.42,0.68,0.99,1.19,1.71,1.53c0.3,0.14,0.64,0.23,0.98,0.3l-2.77,6.96l3.43-0.21l2.48-6.73
		l0.93-0.06l0.4,6.55l3.06-0.19l-1.05-17.02l-1.59,0.1v0l-4.03,0.25c-0.94,0.06-1.75,0.29-2.42,0.7c-0.67,0.41-1.17,0.97-1.5,1.68
		c-0.33,0.71-0.47,1.53-0.41,2.46l0.08,1.25C236.78,125.63,237.02,126.45,237.44,127.13z M239.96,122.59
		c0.14-0.32,0.34-0.57,0.62-0.76c0.28-0.18,0.61-0.29,1-0.31l2.15-0.13l0.28,4.61l-2.15,0.13c-0.39,0.02-0.73-0.04-1.02-0.19
		c-0.29-0.15-0.53-0.38-0.71-0.68c-0.18-0.3-0.28-0.66-0.31-1.09l-0.03-0.48C239.77,123.28,239.83,122.91,239.96,122.59z"/>
	<path class="st0" d="M259.22,129.07l2.57,0.23c0.95,0.09,1.79-0.02,2.53-0.31c0.74-0.29,1.32-0.76,1.76-1.39
		c0.44-0.64,0.69-1.41,0.78-2.32l0.13-1.45c0.08-0.92-0.03-1.73-0.35-2.44c-0.31-0.71-0.81-1.28-1.48-1.71
		c-0.67-0.42-1.48-0.68-2.43-0.77l-4.2-0.38v0l-1.4-0.13l-1.53,16.97l3.03,0.27L259.22,129.07z M259.89,121.62l2.58,0.23
		c0.31,0.03,0.57,0.12,0.8,0.29c0.22,0.17,0.38,0.39,0.48,0.67c0.1,0.28,0.13,0.6,0.1,0.96l-0.09,1c-0.03,0.34-0.12,0.64-0.27,0.9
		c-0.15,0.26-0.35,0.45-0.6,0.56c-0.24,0.12-0.52,0.17-0.82,0.14l-2.58-0.23L259.89,121.62z"/>
	<polygon class="st0" points="270.92,137.25 277.23,138.49 277.8,135.58 271.49,134.34 272.26,130.38 277.66,131.44 278.22,128.55 
		272.83,127.5 273.63,123.44 279.94,124.68 280.51,121.77 274.2,120.53 274.2,120.53 271.21,119.94 267.93,136.66 270.92,137.25 	
		"/>
	<path class="st0" d="M279.94,136.86c0.16,0.88,0.54,1.63,1.15,2.26c0.61,0.62,1.43,1.09,2.46,1.41c1.02,0.31,1.93,0.37,2.75,0.17
		c0.81-0.19,1.54-0.64,2.17-1.34c0.63-0.7,1.18-1.67,1.65-2.9l-3.01-0.91c-0.21,0.58-0.46,1.04-0.74,1.37s-0.57,0.56-0.89,0.67
		c-0.32,0.11-0.67,0.11-1.04-0.01c-0.4-0.12-0.71-0.31-0.94-0.56c-0.24-0.25-0.38-0.56-0.43-0.93c-0.05-0.37-0.01-0.79,0.13-1.25
		l1.95-6.4c0.14-0.45,0.33-0.82,0.59-1.11c0.25-0.28,0.55-0.47,0.88-0.55c0.33-0.08,0.7-0.06,1.1,0.06c0.37,0.11,0.66,0.3,0.86,0.57
		c0.21,0.27,0.33,0.62,0.37,1.05c0.03,0.43-0.01,0.95-0.15,1.55l3.01,0.92c0.31-1.28,0.39-2.39,0.26-3.32
		c-0.14-0.94-0.49-1.71-1.06-2.33c-0.57-0.62-1.37-1.08-2.39-1.39c-1.03-0.31-1.97-0.38-2.83-0.2c-0.85,0.18-1.59,0.59-2.21,1.24
		c-0.62,0.65-1.1,1.52-1.43,2.6l-1.95,6.4C279.87,135,279.79,135.98,279.94,136.86z"/>
	<polygon class="st0" points="292.93,143.64 298.45,130.65 302.33,132.31 296.81,145.29 299.61,146.48 306.29,130.8 305.24,130.36 
		298.18,127.35 298.18,127.35 296.79,126.76 290.12,142.44 	"/>
	<path class="st0" d="M304.38,145.81l-1.46,2.59l1.39,0.78c0.6,0.34,1.2,0.53,1.79,0.56c0.59,0.04,1.17-0.07,1.73-0.32
		c0.56-0.25,1.12-0.64,1.67-1.18l10.23-10.14l-2.72-1.53l-6.91,7.16l2.27-9.77l-2.82-1.59l-2.74,14.15
		c-0.15,0.04-0.3,0.12-0.46,0.12c-0.31,0.01-0.61-0.07-0.9-0.24L304.38,145.81z"/>
	<path class="st0" d="M313.49,154.46L313.49,154.46l3.47,2.46c0.76,0.54,1.53,0.86,2.3,0.96c0.77,0.11,1.51-0.02,2.21-0.36
		c0.7-0.35,1.32-0.9,1.86-1.66l0.79-1.11c0.54-0.76,0.86-1.53,0.95-2.3c0.1-0.78-0.03-1.52-0.37-2.22c-0.35-0.7-0.9-1.32-1.67-1.86
		l-2.19-1.55l2.09-2.94l5.11,3.63l1.7-2.4l-5.11-3.63l-0.25-0.18l-1.04-0.74l0,0l-1.19-0.84l-9.86,13.89L313.49,154.46z
		 M319.15,149.2l2.01,1.42c0.27,0.19,0.47,0.43,0.58,0.72s0.14,0.58,0.08,0.91c-0.06,0.32-0.21,0.65-0.44,0.98l-0.4,0.55
		c-0.22,0.32-0.48,0.56-0.77,0.72c-0.29,0.16-0.58,0.23-0.88,0.21c-0.3-0.02-0.58-0.13-0.86-0.32l-2.01-1.42L319.15,149.2z"/>
	<path class="st0" d="M325.64,158.43c-0.35,0.18-0.69,0.25-1.03,0.21c-0.33-0.04-0.66-0.2-0.96-0.47l-1.94,2.18l0.18,0.16
		c0.76,0.68,1.53,1.1,2.31,1.27c0.78,0.17,1.56,0.09,2.34-0.25c0.77-0.33,1.53-0.92,2.28-1.77l5.94-6.68l2.59,2.3l-9.37,10.54
		l2.28,2.03l11.32-12.74l-1.22-1.08l0,0l-4.56-4.06l0,0l-1.38-1.22l-7.74,8.71C326.34,157.96,325.99,158.25,325.64,158.43z"/>
	<polygon class="st0" points="334.01,171.93 345.95,167.83 337.27,175.58 339.17,177.71 351.87,166.37 349.84,164.09 337.79,168.25 
		346.56,160.42 344.66,158.3 331.96,169.64 	"/>
	<path class="st0" d="M342.48,182.19l5.71-4.04l0.98,1.38l-3.81,6.72l1.88,2.65l1.51,2.73l2.71-0.66l2.33,4.2l-1.99,1.95l1.54,2.77
		l12.32-12.9l-0.99-1.78l-17.07,3.58l4.4-8.04l8.89-2.04l-1.93-2.72l-7.38,1.89l-1-1.41l5.8-4.11l-1.77-2.49l-13.9,9.85
		L342.48,182.19z M360.22,188.83l-4.29,4.22l-1.56-2.8L360.22,188.83z"/>
	<polygon class="st0" points="140.37,282.11 129.57,281.78 138.81,276.19 137.93,272.82 121.45,277.15 122.15,279.84 132.81,277.03 
		125.22,281.82 125.76,283.88 135.01,284.26 124.08,287.14 124.77,289.8 141.25,285.46 	"/>
	<polygon class="st0" points="144.89,294.69 132.14,294.5 143.06,290.12 142,287.48 126.2,293.82 127.34,296.67 139.97,296.88 
		129.16,301.22 130.23,303.87 146.03,297.53 	"/>
	<polygon class="st0" points="150.45,305.96 144.14,309.36 142.13,305.65 148.45,302.24 147,299.56 132,307.65 133.45,310.33 
		139.59,307.02 141.59,310.73 135.45,314.04 136.9,316.72 151.89,308.64 	"/>
	<polygon class="st0" points="157.5,316.95 145.03,319.62 154.69,312.91 153.07,310.57 139.08,320.28 140.83,322.8 153.19,320.19 
		143.63,326.83 145.25,329.18 159.24,319.47 	"/>
	<path class="st0" d="M156.59,333.94c-0.49,0.37-0.95,0.63-1.36,0.77c-0.41,0.14-0.78,0.17-1.11,0.09
		c-0.33-0.08-0.62-0.27-0.87-0.56c-0.27-0.31-0.44-0.64-0.5-0.98c-0.06-0.34-0.02-0.68,0.13-1.02c0.15-0.34,0.41-0.67,0.77-0.99
		l5.05-4.39c0.36-0.31,0.72-0.52,1.09-0.63c0.36-0.11,0.71-0.1,1.04,0.01s0.63,0.32,0.9,0.63c0.25,0.29,0.39,0.6,0.43,0.94
		c0.03,0.34-0.05,0.7-0.24,1.08c-0.2,0.39-0.52,0.8-0.95,1.24l2.06,2.37c0.94-0.92,1.6-1.81,1.98-2.68c0.38-0.86,0.5-1.71,0.34-2.53
		c-0.16-0.83-0.59-1.64-1.29-2.44c-0.71-0.81-1.47-1.37-2.29-1.68c-0.82-0.3-1.66-0.35-2.53-0.13c-0.87,0.22-1.73,0.7-2.59,1.44
		l-5.05,4.39c-0.86,0.74-1.45,1.53-1.79,2.36c-0.33,0.83-0.41,1.67-0.22,2.52c0.19,0.85,0.63,1.68,1.34,2.5
		c0.69,0.8,1.44,1.34,2.23,1.61c0.79,0.27,1.65,0.27,2.55,0.02c0.91-0.26,1.89-0.78,2.94-1.58L156.59,333.94z"/>
	<polygon class="st0" points="172.81,338.21 174.85,336.09 167.26,328.83 165.23,330.95 167.91,333.52 158.16,343.7 160.37,345.82 
		170.12,335.64 	"/>
	<polygon class="st0" points="171.83,346.53 176.14,349.95 177.96,347.64 173.66,344.23 176.23,340.98 181.27,344.98 183.12,342.66 
		176.64,337.53 176.64,337.53 175.69,336.77 165.1,350.12 166.05,350.88 166.05,350.88 167.3,351.86 167.48,352.01 172.52,356.01 
		174.37,353.69 169.33,349.69 	"/>
	<path class="st0" d="M189.9,354.17l0.79-1.22c0.5-0.78,0.77-1.55,0.81-2.33c0.05-0.78-0.12-1.51-0.52-2.19
		c-0.4-0.68-1-1.29-1.81-1.8l-3.55-2.27l0,0l-1.19-0.76l-9.19,14.35l2.57,1.64l3.56-5.57l2.17,1.39c0.8,0.51,1.6,0.81,2.39,0.89
		s1.53-0.06,2.2-0.43C188.82,355.51,189.41,354.94,189.9,354.17z M187.39,352.3c-0.19,0.29-0.41,0.51-0.66,0.67
		c-0.26,0.16-0.52,0.23-0.79,0.22c-0.27-0.01-0.54-0.09-0.79-0.26l-2.18-1.39l2.45-3.83l2.18,1.4c0.26,0.17,0.45,0.38,0.57,0.62
		s0.16,0.52,0.12,0.82c-0.04,0.3-0.16,0.6-0.36,0.9L187.39,352.3z"/>
	<path class="st0" d="M194.47,364.38c-0.33,0.29-0.66,0.45-0.99,0.5s-0.67-0.01-1.02-0.19c-0.37-0.19-0.65-0.43-0.84-0.72
		c-0.19-0.29-0.27-0.62-0.26-0.99s0.12-0.77,0.34-1.21l3.01-5.98c0.21-0.42,0.47-0.75,0.77-0.99c0.3-0.23,0.62-0.36,0.96-0.39
		c0.34-0.02,0.7,0.06,1.07,0.25c0.34,0.17,0.6,0.41,0.75,0.71c0.16,0.3,0.22,0.67,0.18,1.1c-0.04,0.43-0.17,0.93-0.41,1.5l2.8,1.42
		c0.52-1.21,0.79-2.28,0.82-3.23c0.02-0.94-0.19-1.77-0.65-2.47c-0.46-0.7-1.17-1.3-2.11-1.78c-0.96-0.48-1.88-0.71-2.75-0.68
		c-0.87,0.03-1.67,0.31-2.39,0.84c-0.72,0.53-1.34,1.3-1.85,2.32l-3.01,5.97c-0.51,1.01-0.76,1.96-0.76,2.86
		c0,0.9,0.25,1.7,0.75,2.42c0.5,0.72,1.22,1.32,2.19,1.81c0.95,0.48,1.84,0.69,2.67,0.64c0.84-0.05,1.62-0.37,2.37-0.95
		c0.74-0.58,1.45-1.44,2.12-2.57l-2.8-1.41C195.12,363.68,194.8,364.09,194.47,364.38z"/>
	<polygon class="st0" points="213.28,358.25 203.5,354.42 202.43,357.16 205.89,358.52 200.75,371.64 203.6,372.76 208.74,359.63 
		212.21,360.99 	"/>
	<path class="st0" d="M221.89,361.21c-0.55-0.49-1.27-0.86-2.18-1.11l-3.98-1.12l0,0l-1.48-0.42l-4.62,16.4l1.97,0.55l3.71,1.04
		c0.89,0.25,1.7,0.31,2.43,0.18c0.72-0.13,1.34-0.44,1.83-0.94c0.5-0.5,0.86-1.16,1.1-2l0.32-1.14c0.17-0.62,0.21-1.21,0.11-1.75
		c-0.1-0.54-0.34-1.02-0.71-1.45c-0.37-0.42-0.86-0.76-1.46-1.03c0.61,0.07,1.17,0.02,1.67-0.14c0.5-0.16,0.92-0.43,1.26-0.81
		c0.34-0.38,0.59-0.85,0.75-1.4l0.25-0.89c0.23-0.83,0.26-1.58,0.1-2.25C222.8,362.28,222.44,361.7,221.89,361.21z M218.14,371.5
		l-0.32,1.13c-0.13,0.47-0.38,0.8-0.74,0.98c-0.36,0.18-0.81,0.2-1.34,0.05l-2.38-0.67l1.2-4.25l2.36,0.66
		c0.35,0.1,0.64,0.25,0.86,0.45c0.22,0.2,0.36,0.44,0.42,0.72C218.26,370.84,218.23,371.16,218.14,371.5z M219.88,364.64l-0.25,0.88
		c-0.14,0.49-0.38,0.83-0.72,1.01c-0.34,0.19-0.75,0.21-1.24,0.08l-2.32-0.65l1.06-3.78l2.33,0.65c0.48,0.13,0.82,0.36,1.03,0.68
		C219.96,363.82,220,364.2,219.88,364.64z"/>
	<path class="st0" d="M233.34,363.43c-0.72-0.54-1.6-0.9-2.65-1.08c-1.06-0.18-2.01-0.13-2.86,0.14c-0.86,0.27-1.56,0.76-2.12,1.45
		s-0.92,1.55-1.09,2.58l-1.2,7.02c-0.17,1.02-0.12,1.96,0.18,2.79c0.29,0.84,0.8,1.53,1.51,2.07c0.72,0.54,1.6,0.9,2.65,1.08
		c1.06,0.18,2.01,0.13,2.87-0.14c0.85-0.27,1.56-0.76,2.11-1.45c0.55-0.69,0.92-1.55,1.09-2.58l1.2-7.02
		c0.18-1.03,0.12-1.97-0.18-2.8C234.56,364.66,234.06,363.98,233.34,363.43z M230.78,374.64c-0.08,0.45-0.23,0.83-0.45,1.13
		c-0.23,0.3-0.52,0.51-0.87,0.64c-0.36,0.12-0.75,0.14-1.18,0.07c-0.43-0.07-0.79-0.23-1.08-0.46c-0.29-0.23-0.49-0.53-0.61-0.89
		c-0.12-0.36-0.14-0.77-0.06-1.22l1.15-6.71c0.07-0.45,0.23-0.82,0.46-1.12c0.23-0.3,0.52-0.51,0.87-0.64
		c0.35-0.13,0.74-0.15,1.17-0.08c0.43,0.07,0.79,0.23,1.08,0.47c0.29,0.24,0.5,0.53,0.61,0.89c0.11,0.36,0.13,0.76,0.05,1.21
		L230.78,374.64z"/>
	<path class="st0" d="M251.96,373.05c-0.46-0.32-1.02-0.52-1.68-0.62c0.61-0.09,1.14-0.28,1.58-0.56c0.44-0.28,0.78-0.65,1.02-1.1
		c0.23-0.45,0.36-0.97,0.36-1.55l0.01-0.92c0.02-0.86-0.14-1.6-0.48-2.21c-0.33-0.61-0.83-1.08-1.48-1.41
		c-0.66-0.33-1.45-0.5-2.39-0.52l-2.63-0.04v0l-0.68-0.01l-0.84-0.01v0l-1.53-0.03l-0.28,17.04l1.54,0.03v0l4.36,0.07
		c0.93,0.01,1.73-0.13,2.4-0.44s1.18-0.77,1.53-1.38c0.36-0.61,0.54-1.34,0.55-2.21l0.02-1.18c0.01-0.65-0.1-1.22-0.34-1.72
		C252.77,373.77,252.42,373.36,251.96,373.05z M246.23,367l2.42,0.04c0.5,0.01,0.88,0.14,1.16,0.39c0.28,0.25,0.41,0.61,0.41,1.06
		l-0.01,0.92c-0.01,0.51-0.15,0.9-0.43,1.16c-0.29,0.27-0.68,0.4-1.19,0.39l-2.41-0.04L246.23,367z M250.27,376.75
		c-0.01,0.49-0.16,0.87-0.47,1.14c-0.31,0.27-0.73,0.4-1.28,0.39l-2.47-0.04l0.07-4.42l2.45,0.04c0.37,0.01,0.68,0.08,0.95,0.21
		c0.26,0.14,0.46,0.33,0.59,0.58c0.13,0.25,0.19,0.56,0.19,0.92L250.27,376.75z"/>
	<polygon class="st0" points="262.53,363.5 263.18,370.64 258.98,371.02 258.33,363.88 255.3,364.15 256.83,381.12 259.86,380.84 
		259.24,373.9 263.44,373.52 264.07,380.47 267.1,380.19 265.57,363.22 	"/>
	<path class="st0" d="M275.01,371.26l-4.67-8.89l-3.17,0.64l7.18,12.5c-0.09,0.13-0.15,0.29-0.26,0.39
		c-0.23,0.21-0.51,0.34-0.84,0.41l-1.22,0.25l0.59,2.92l1.56-0.32c0.68-0.14,1.26-0.38,1.73-0.74c0.47-0.36,0.84-0.82,1.1-1.38
		c0.26-0.56,0.43-1.22,0.5-1.98l1.12-14.36l-3.06,0.62L275.01,371.26z"/>
	<polygon class="st0" points="289.84,360.28 288.97,357.47 278.94,360.59 279.82,363.39 283.36,362.29 287.55,375.75 290.47,374.84 
		286.28,361.38 	"/>
	<path class="st0" d="M301.18,357.23c-0.36-0.85-0.84-1.51-1.46-1.99c-0.61-0.48-1.31-0.75-2.1-0.81c-0.79-0.06-1.62,0.1-2.51,0.47
		l-3.89,1.64l0,0l-1.29,0.55l6.64,15.69l2.81-1.19l-2.57-6.09l2.38-1c0.88-0.37,1.57-0.86,2.08-1.47c0.51-0.61,0.81-1.29,0.9-2.06
		c0.09-0.76-0.05-1.57-0.41-2.41L301.18,357.23z M298.69,361.29c-0.16,0.22-0.38,0.39-0.66,0.51l-2.38,1.01l-1.77-4.19l2.39-1.01
		c0.29-0.12,0.57-0.16,0.84-0.12c0.27,0.04,0.52,0.17,0.74,0.37c0.22,0.2,0.4,0.47,0.54,0.8l0.39,0.93
		c0.14,0.32,0.19,0.62,0.18,0.92C298.94,360.81,298.85,361.07,298.69,361.29z"/>
	<polygon class="st0" points="310.54,363.08 308.6,359.54 313.41,356.89 312,354.32 307.18,356.97 305.19,353.34 310.83,350.24 
		309.4,347.64 302.16,351.62 302.16,351.63 301.09,352.21 309.3,367.14 310.37,366.55 310.37,366.55 317.61,362.57 316.18,359.97 	
		"/>
	<polygon class="st0" points="316.68,342.69 320.77,348.59 317.31,350.99 313.22,345.1 310.71,346.83 320.42,360.83 322.93,359.1 
		318.96,353.37 322.42,350.96 326.4,356.7 328.9,354.96 319.19,340.95 	"/>
	<polygon class="st0" points="326.42,334.83 331.13,340.24 327.94,343.01 323.24,337.59 320.94,339.59 332.11,352.45 334.42,350.45 
		329.84,345.19 333.03,342.43 337.6,347.69 339.9,345.69 328.72,332.83 	"/>
	<polygon class="st0" points="335.64,325.53 340.96,337.11 332.31,329.15 330.38,331.24 342.91,342.77 344.99,340.51 339.73,329.02 
		348.31,336.91 350.24,334.8 337.71,323.28 	"/>
	<polygon class="st0" points="345.01,313.56 343.05,316.19 345.94,321.19 340.27,319.94 338.31,322.57 347.58,324.25 351.91,332.85 
		353.85,330.22 350.87,324.9 356.88,326.15 358.84,323.52 349.23,321.86 	"/>
	<path class="st0" d="M365.91,305.19l-12.48-6.56l-1.42,2.71l0,0l-1.54,2.92l0,0l-1.36,2.59l9.29,4.88c1.04,0.55,1.76,1.1,2.16,1.66
		c0.4,0.56,0.46,1.1,0.19,1.62l-0.03,0.05l-0.2,0.37l5.52,2.9l1.34-2.55l-2.92-1.53l2.63-5l0.84-1.59l2.91,1.53l1.34-2.55l-5.52-2.9
		L365.91,305.19z M362.56,311.57c-0.16-0.23-0.3-0.47-0.51-0.69c-0.7-0.72-1.65-1.39-2.84-2.02l-6.13-3.22l1.54-2.93l9.88,5.19
		L362.56,311.57z"/>
	<polygon class="st0" points="368.89,298.17 365.14,296.7 367.15,291.58 364.41,290.51 362.4,295.62 358.55,294.11 360.9,288.12 
		358.15,287.03 355.51,293.72 354.67,295.86 370.53,302.1 371.65,299.26 371.65,299.26 374,293.27 371.24,292.19 	"/>
	<path class="st0" d="M360.77,277.84L360.77,277.84l-1.21,4.44l-0.51,1.85l11.24,3.08c0.51,0.14,0.93,0.33,1.24,0.56
		c0.31,0.23,0.53,0.51,0.64,0.83c0.11,0.32,0.12,0.67,0.01,1.06l2.81,0.77l0.06-0.23c0.27-0.98,0.31-1.86,0.12-2.64
		c-0.19-0.78-0.61-1.44-1.25-1.98c-0.64-0.55-1.51-0.97-2.6-1.27l-8.62-2.36l0.92-3.35l13.6,3.72l0.8-2.94l-16.43-4.5L360.77,277.84
		z"/>
</g>
</svg>
