<?xml version="1.0" encoding="utf-8"?>
<!-- Generator: Adobe Illustrator 26.5.0, SVG Export Plug-In . SVG Version: 6.00 Build 0)  -->
<svg version="1.1" id="Layer_1" xmlns="http://www.w3.org/2000/svg" xmlns:xlink="http://www.w3.org/1999/xlink" x="0px" y="0px"
	 viewBox="0 0 500 500" style="enable-background:new 0 0 500 500;" xml:space="preserve">
<style type="text/css">
	.st0{fill:#131313;}
</style>
<g>
	<g>
		<path class="st0" d="M340.26,186.45c-0.26-2.53-33.53-11.22-35.38-12.93c0.91-0.83,2-1.7,2.91-2.76
			c4.19-4.84,4.95-11.26,1.59-16.63c-2.27-3.63-5.71-6.08-10.09-6.65c-2.65-0.34-5.37-0.42-8.01,0.64c-2.5,1.02-3.82,2.95-4.88,5.18
			c-0.23,0.42-0.3,0.98-0.42,1.44c-0.15,0.91-0.53,1.17-1.55,0.83c-3.86-1.62-7.75-3.17-11.6-4.69c-2.34-0.91-4.69-1.89-7.07-2.8
			c-2.08-0.83-2.15-0.87-1.93-3.02c0.42-5.37,0.91-10.77,1.36-16.14c0.23-2.87,0.45-5.71,0.61-8.58c0.19-2.46,0.38-4.88,0.42-7.33
			c0.04-0.68-0.15-1.47-0.57-2.04c-3.06-4.54-6.84-8.32-12.1-10.39c-1.21-0.45-2.38-0.64-3.55-0.57c-1.21-0.08-2.38,0.11-3.59,0.57
			c-5.25,2.08-9.03,5.86-12.09,10.39c-0.42,0.57-0.61,1.36-0.57,2.04c0.04,2.46,0.26,4.88,0.42,7.33c0.15,2.87,0.38,5.71,0.61,8.58
			c0.45,5.37,0.98,10.77,1.4,16.14c0.19,2.15,0.11,2.19-1.96,3.02c-2.34,0.91-4.72,1.89-7.07,2.8c-3.86,1.51-7.75,3.06-11.6,4.69
			c-1.02,0.34-1.36,0.08-1.55-0.83c-0.11-0.45-0.19-1.02-0.42-1.44c-1.06-2.23-2.38-4.16-4.87-5.18c-2.65-1.06-5.33-0.98-8.01-0.64
			c-4.38,0.57-7.82,3.02-10.09,6.65c-3.36,5.37-2.61,11.79,1.59,16.63c0.91,1.06,2,1.93,2.95,2.76
			c-1.89,1.7-35.15,10.39-35.38,12.93c-15.27,138.03,74.65,185.05,75.02,186.18c1.78,5.59,3.4,11.23,6.35,16.4
			c2.31,4.12,5.07,7.79,8.69,10.96c0.04-0.07,0.11-0.11,0.19-0.15c0.04,0.04,0.11,0.08,0.15,0.15c3.63-3.17,6.39-6.84,8.69-10.96
			c2.95-5.18,4.57-10.81,6.35-16.4C265.58,371.5,355.49,324.49,340.26,186.45z M242.14,111.39l4.27-3.63
			c2.08-1.78,5.1-1.78,7.14,0.04l4.16,3.59c0.68,0.61,0.94,1.59,0.61,2.46c-0.34,0.87-1.17,1.47-2.08,1.47h-12.66
			c-0.91,0-1.78-0.6-2.08-1.47C241.16,112.98,241.42,112,242.14,111.39z M256.24,135.73h-12.66c-1.02,0-1.89-0.87-1.89-1.89
			c0-1.06,0.87-1.89,1.89-1.89h12.66c1.02,0,1.89,0.83,1.89,1.89C258.13,134.86,257.26,135.73,256.24,135.73z M258.13,143.78
			c0,1.02-0.87,1.89-1.89,1.89h-12.66c-1.02,0-1.89-0.87-1.89-1.89c0-1.06,0.87-1.89,1.89-1.89h12.66
			C257.26,141.89,258.13,142.72,258.13,143.78z M256.24,125.11h-12.66c-1.02,0-1.89-0.83-1.89-1.89c0-1.06,0.87-1.89,1.89-1.89
			h12.66c1.02,0,1.89,0.83,1.89,1.89C258.13,124.28,257.26,125.11,256.24,125.11z M196.9,156.71c1.55-1.81,3.48-2.83,5.86-3.21
			c1.89-0.3,3.44,0.42,4.72,1.51c1.81,1.7,1.93,4.76,0.3,6.73c-0.64,0.76-1.4,1.32-2.19,1.89c-0.49,0.42-1.1,0.72-2,1.25
			c1.93,0.45,3.4,0.34,4.8-0.04c2.08-0.49,4.12-1.17,6.05-1.93c2.12-0.87,4.2-1.89,6.24-2.95c5.25-2.68,10.85-3.7,16.63-3.21
			c3.82,0.34,7.6,1.29,11.04,3.14c0.57,0.3,1.1,0.45,1.66,0.45c0.53,0,1.06-0.15,1.63-0.45c3.44-1.85,7.22-2.8,11.04-3.14
			c5.78-0.49,11.38,0.53,16.63,3.21c2.04,1.06,4.12,2.08,6.24,2.95c1.93,0.75,3.97,1.44,6.05,1.93c1.4,0.38,2.91,0.49,4.8,0.04
			c-0.91-0.53-1.47-0.83-2-1.25c-0.76-0.57-1.55-1.13-2.19-1.89c-1.59-1.96-1.51-5.03,0.3-6.73c1.28-1.1,2.87-1.81,4.72-1.51
			c2.38,0.38,4.31,1.4,5.86,3.21c2.23,2.57,3.14,5.22,1.66,8.5c-1.28,2.91-4.31,5.59-7.82,5.29c-2.12-0.15-4.23-0.38-6.27-0.83
			c-3.29-0.72-6.46-1.89-9.75-2.46c-4.61-0.79-9.07-2-13.76-2.34c-5.22-0.38-10.32-0.34-15.2,1.7c-0.64,0.3-1.28,0.42-1.93,0.42
			c-0.68,0-1.28-0.11-1.97-0.42c-4.88-2.04-9.98-2.08-15.19-1.7c-4.69,0.34-9.15,1.55-13.76,2.34c-3.29,0.57-6.46,1.74-9.71,2.46
			c-2.08,0.45-4.19,0.68-6.31,0.83c-3.52,0.3-6.54-2.38-7.82-5.29C193.76,161.93,194.71,159.28,196.9,156.71z M334.78,230.79
			c-4.91,1.4-10.05,2.87-15.35,4.38c0.91,3.14,1.59,6.35,2.04,9.68c4.19-0.61,8.31-1.17,12.32-1.74c-0.19,2-0.42,4.01-0.72,5.97
			c-3.59,0.26-7.3,0.53-11.04,0.79c0.11,1.74,0.19,3.48,0.19,5.22c0,1.59-0.04,3.14-0.15,4.69c3.06,0.19,6.08,0.42,9.07,0.6
			c-0.34,1.89-0.72,3.74-1.13,5.56c-2.76-0.38-5.59-0.79-8.43-1.17c-0.45,3.33-1.1,6.58-2,9.71c2.57,0.72,5.14,1.44,7.63,2.16
			c-0.49,1.85-1.06,3.63-1.63,5.37c-2.46-0.91-4.99-1.81-7.52-2.76c-1.09,3.17-2.42,6.24-3.97,9.15c2.61,1.36,5.18,2.72,7.71,4.08
			c-0.68,1.78-1.44,3.52-2.23,5.22c-2.61-1.63-5.25-3.29-7.94-4.95c-1.7,2.83-3.59,5.52-5.71,8.05c2.95,2.5,5.86,4.95,8.69,7.33
			c-0.94,1.81-1.85,3.59-2.91,5.29c-2.95-2.83-6.01-5.78-9.11-8.81c-2.27,2.42-4.69,4.69-7.26,6.77c3.36,4.35,6.69,8.58,9.83,12.62
			c-1.21,1.85-2.5,3.59-3.82,5.33c-3.17-4.72-6.58-9.75-10.05-14.93c-2.68,1.89-5.52,3.63-8.5,5.1c3.21,6.65,6.39,13.12,9.26,19.05
			c0.27,0.49,0.45,0.91,0.72,1.4c-1.7,1.89-3.33,3.7-5.03,5.37c-0.15-0.23-0.23-0.53-0.34-0.76c-2.8-6.95-5.97-14.78-9.22-22.87
			c-3.02,1.28-6.16,2.38-9.37,3.25c2.8,11.23,5.48,21.96,7.63,30.69c0.04,0.08,0.04,0.11,0.04,0.15c-2.27,1.93-4.42,3.63-6.5,5.14
			c-0.04-0.15-0.04-0.26-0.08-0.45c-1.66-9.33-3.82-21.58-6.08-34.39c-3.25,0.64-6.58,1.06-9.98,1.25l0.72,39.57
			c-1.55,0.3-3.1,0.42-4.69,0.42c-1.21,0-2.46-0.08-3.63-0.23l0.72-39.72c-3.4-0.11-6.73-0.49-10.02-1.1
			c-2.34,13.11-4.53,25.59-6.2,34.92c0,0.11-0.04,0.19-0.04,0.3c-1.93-1.36-3.93-2.95-6.05-4.72c-0.15-0.15-0.38-0.3-0.53-0.45
			c2.15-8.77,4.88-19.69,7.71-31.14c-3.21-0.83-6.39-1.89-9.41-3.14c-3.33,8.24-6.54,16.18-9.37,23.17
			c-0.08,0.27-0.19,0.49-0.26,0.76c-1.7-1.7-3.4-3.48-5.1-5.4c0.23-0.45,0.45-0.91,0.72-1.4c2.91-5.97,6.08-12.51,9.37-19.24
			c-3.02-1.47-5.9-3.17-8.66-5.06c-3.52,5.18-6.92,10.28-10.13,15.01c-1.32-1.74-2.61-3.52-3.85-5.37c3.17-4.05,6.5-8.32,9.9-12.66
			c-2.64-2.08-5.1-4.35-7.41-6.77c-3.1,2.99-6.2,5.93-9.15,8.8c-1.02-1.7-1.97-3.48-2.91-5.25c2.83-2.38,5.75-4.84,8.69-7.3
			c-2.15-2.57-4.12-5.29-5.86-8.16c-2.68,1.7-5.33,3.33-7.9,4.95c-0.76-1.7-1.47-3.48-2.16-5.29c2.5-1.32,4.99-2.68,7.56-4.01
			c-1.59-2.95-2.95-6.01-4.08-9.22c-2.5,0.87-4.95,1.78-7.37,2.65c-0.61-1.78-1.13-3.59-1.66-5.37l7.48-2.16
			c-0.94-3.17-1.63-6.46-2.04-9.79c-2.76,0.38-5.52,0.75-8.2,1.13c-0.45-1.85-0.87-3.74-1.21-5.63c2.91-0.19,5.86-0.42,8.88-0.61
			c-0.11-1.55-0.15-3.14-0.15-4.72c0-1.78,0.08-3.55,0.23-5.33c-3.7-0.26-7.33-0.49-10.88-0.75c-0.26-1.97-0.53-3.93-0.72-5.97
			c3.93,0.57,8.01,1.13,12.13,1.7c0.45-3.36,1.17-6.65,2.12-9.87c-5.25-1.47-10.36-2.95-15.23-4.35c-0.19-2.19-0.27-4.46-0.3-6.69
			c5.4,1.97,11.19,4.08,17.12,6.24c1.17-3.17,2.57-6.24,4.16-9.22c-7.48-3.97-14.74-7.82-21.2-11.26c0.04-2.57,0.19-5.1,0.34-7.71
			c6.92,4.31,15.04,9.37,23.43,14.63c1.78-2.87,3.78-5.59,5.97-8.13c-8.47-7.11-16.59-13.95-23.24-19.54c0,0,0.04,0,0.08-0.04
			c2.38-0.75,5.1-1.66,7.63-2.5c5.63,5.48,12.17,11.76,18.94,18.33c2.34-2.42,4.88-4.69,7.56-6.73
			c-4.35-5.59-8.62-11.04-12.51-16.03c0.15-0.07,4.5-2,6.05-2.61c0.23,0.27,0.42,0.61,0.64,0.94c3.14,4.65,6.5,9.64,9.94,14.74
			c2.8-1.93,5.71-3.59,8.77-5.03c-2.04-4.16-4.04-8.28-5.97-12.21c1.97-0.3,4.05-0.64,6.12-0.91c1.44,3.59,2.95,7.3,4.5,11.07
			c3.1-1.25,6.31-2.31,9.64-3.06c-0.8-3.17-1.59-6.31-2.34-9.37c1.89-0.19,3.82-0.34,5.78-0.45l1.55,8.81
			c2.99-0.53,6.01-0.83,9.11-0.94l-0.15-8.32c2.34-0.04,4.76-0.04,7.18,0l-0.15,8.35c3.1,0.15,6.12,0.53,9.07,1.1
			c0.53-3.06,1.06-6.08,1.59-9.07c1.93,0.11,3.86,0.27,5.82,0.42l-2.42,9.71c3.25,0.83,6.42,1.89,9.49,3.14
			c1.63-3.93,3.17-7.78,4.69-11.49c2.04,0.26,4.04,0.6,6.16,0.98c-2,4.08-4.08,8.32-6.2,12.66c3.02,1.44,5.93,3.14,8.66,5.06
			c3.52-5.25,6.95-10.36,10.17-15.16c0.15-0.23,0.3-0.42,0.42-0.61c1.7,0.72,3.89,1.63,6.12,2.5c-3.93,5.06-8.24,10.55-12.66,16.21
			c2.61,2.08,5.1,4.35,7.41,6.73c6.84-6.61,13.46-13,19.2-18.56c2.61,0.79,5.37,1.7,7.75,2.53c-6.77,5.71-15.01,12.62-23.59,19.8
			c2.12,2.57,4.08,5.25,5.82,8.09c8.35-5.22,16.4-10.24,23.32-14.59c0.19,2.57,0.3,5.14,0.38,7.67c-6.46,3.44-13.72,7.3-21.2,11.26
			c1.59,2.91,2.91,5.97,4.04,9.07c5.94-2.15,11.76-4.27,17.2-6.24C335.04,226.41,334.97,228.6,334.78,230.79z"/>
	</g>
	<g>
		<path class="st0" d="M249.91,330.1c-41.35,0-75-33.64-75-75s33.64-75,75-75s75,33.64,75,75S291.27,330.1,249.91,330.1z
			 M249.91,185.47c-38.4,0-69.64,31.24-69.64,69.64s31.24,69.64,69.64,69.64s69.64-31.24,69.64-69.64S288.31,185.47,249.91,185.47z"
			/>
	</g>
	<g>
		<path class="st0" d="M195.85,234.76l-9.47-4.14l0.81-1.86l4.12,1.8l0.27-0.61l-3.42-3.4l0.88-2l3.71,3.91l5.78,0.18l-0.89,2.02
			l-4.8-0.25l-0.3,0.69l4.12,1.8L195.85,234.76z"/>
		<path class="st0" d="M198.64,228.35l-8.77-5.44l1.05-1.69l2.29,1.42l0.81-1.31c0.2-0.33,0.43-0.59,0.69-0.78
			c0.26-0.19,0.56-0.29,0.91-0.28c0.35,0,0.75,0.15,1.22,0.44l2.42,1.5c0.49,0.31,0.87,0.6,1.12,0.88c0.25,0.28,0.4,0.55,0.45,0.82
			c0.05,0.26,0.03,0.53-0.06,0.81c-0.08,0.27-0.23,0.57-0.42,0.87L198.64,228.35z M202.11,222.76l-8.79-5.45l1.07-1.72l8.79,5.45
			L202.11,222.76z M198.8,226.1l0.42-0.68c0.11-0.19,0.16-0.35,0.12-0.5c-0.03-0.14-0.14-0.3-0.34-0.45
			c-0.19-0.16-0.48-0.36-0.86-0.6l-1.99-1.23c-0.23-0.14-0.43-0.25-0.61-0.32s-0.33-0.09-0.47-0.05c-0.14,0.04-0.28,0.16-0.4,0.36
			l-0.42,0.67L198.8,226.1z"/>
		<path class="st0" d="M203.8,220.37l-7.95-6.61l2.35-2.83c0.44-0.53,0.89-0.83,1.35-0.91c0.47-0.08,0.91,0.06,1.33,0.41l1.37,1.14
			c0.36,0.3,0.66,0.62,0.89,0.97c0.24,0.35,0.35,0.71,0.34,1.1c0,0.39-0.19,0.8-0.55,1.24l-0.99,1.18l3.2,2.66L203.8,220.37z
			 M201.08,215.37l0.5-0.61c0.18-0.21,0.21-0.46,0.09-0.74c-0.11-0.28-0.41-0.62-0.89-1.01l-0.54-0.45
			c-0.42-0.35-0.76-0.56-1.02-0.61c-0.25-0.06-0.45,0-0.59,0.17l-0.6,0.73L201.08,215.37z"/>
		<path class="st0" d="M208.08,215.35l-7.23-7.39l3.41-3.34l1,1.03l-1.9,1.86l6.23,6.36L208.08,215.35z"/>
		<path class="st0" d="M211.76,211.65l-6.23-8.23l1.59-1.2l1.62,2.15l1.23-0.93c0.31-0.23,0.61-0.39,0.92-0.48
			c0.31-0.09,0.62-0.07,0.95,0.06c0.32,0.13,0.65,0.41,0.98,0.85l1.72,2.27c0.35,0.47,0.6,0.87,0.73,1.23
			c0.13,0.35,0.18,0.66,0.13,0.92c-0.05,0.26-0.17,0.51-0.35,0.73c-0.18,0.23-0.41,0.45-0.7,0.66L211.76,211.65z M212.72,209.61
			l0.64-0.49c0.18-0.13,0.27-0.27,0.3-0.42c0.02-0.15-0.03-0.33-0.15-0.54c-0.12-0.22-0.32-0.51-0.59-0.87l-1.41-1.87
			c-0.16-0.21-0.31-0.39-0.45-0.52c-0.14-0.13-0.28-0.2-0.43-0.21c-0.15-0.01-0.31,0.05-0.5,0.19l-0.63,0.47L212.72,209.61z
			 M217.01,207.68l-6.24-8.24l1.62-1.23l6.24,8.24L217.01,207.68z"/>
		<path class="st0" d="M221.77,204.9c-0.59,0.33-1.13,0.51-1.62,0.55c-0.49,0.04-0.91-0.06-1.28-0.28
			c-0.37-0.23-0.69-0.58-0.95-1.04l-0.58-1.04l1.77-0.99l0.32,0.56c0.25,0.46,0.51,0.78,0.77,0.95c0.26,0.18,0.54,0.19,0.83,0.04
			c0.26-0.15,0.4-0.37,0.41-0.65c0.01-0.29-0.08-0.6-0.27-0.93l-0.49-0.87c-0.19-0.34-0.43-0.51-0.73-0.53
			c-0.31-0.02-0.68,0.09-1.12,0.33l-0.72,0.4l-0.55-0.98l0.73-0.41c0.2-0.11,0.37-0.24,0.51-0.39s0.23-0.29,0.29-0.44
			c0.07-0.17,0.09-0.33,0.08-0.47c-0.01-0.15-0.06-0.28-0.14-0.42l-0.35-0.63c-0.16-0.3-0.36-0.52-0.59-0.67
			c-0.23-0.15-0.49-0.15-0.78,0.01c-0.3,0.17-0.43,0.4-0.4,0.7c0.03,0.3,0.17,0.67,0.41,1.1l0.21,0.37l-1.79,1l-0.47-0.84
			c-0.4-0.71-0.49-1.37-0.28-1.97c0.22-0.6,0.76-1.15,1.64-1.64c0.92-0.51,1.67-0.72,2.26-0.61c0.59,0.11,1.07,0.5,1.45,1.17
			l0.39,0.69c0.29,0.52,0.39,1.01,0.31,1.47c-0.08,0.46-0.36,0.86-0.82,1.2c0.52-0.25,1-0.29,1.44-0.12
			c0.44,0.17,0.81,0.51,1.1,1.03l0.37,0.66c0.28,0.51,0.43,0.98,0.45,1.4c0.01,0.43-0.13,0.83-0.42,1.2
			C222.84,204.19,222.39,204.55,221.77,204.9z"/>
		<path class="st0" d="M227.68,202.11c-0.53,0.22-1.02,0.35-1.47,0.4c-0.46,0.05-0.88-0.08-1.28-0.37c-0.4-0.3-0.76-0.83-1.09-1.6
			l-2.1-5c-0.24-0.57-0.31-1.06-0.21-1.47s0.33-0.76,0.68-1.06c0.36-0.3,0.8-0.55,1.33-0.78c0.54-0.23,1.03-0.36,1.48-0.39
			c0.45-0.04,0.84,0.06,1.19,0.28c0.35,0.22,0.64,0.61,0.87,1.17l0.83,1.97l-1.87,0.79l-0.86-2.05c-0.11-0.26-0.23-0.44-0.35-0.55
			c-0.12-0.11-0.24-0.16-0.38-0.16c-0.13,0.01-0.27,0.04-0.42,0.1c-0.15,0.06-0.28,0.14-0.38,0.23c-0.1,0.09-0.16,0.22-0.16,0.38
			c-0.01,0.16,0.04,0.37,0.15,0.63l2.43,5.77c0.11,0.25,0.22,0.42,0.34,0.53c0.12,0.11,0.25,0.16,0.39,0.16
			c0.14,0,0.28-0.04,0.44-0.1s0.27-0.14,0.37-0.24c0.09-0.09,0.14-0.22,0.15-0.39c0.01-0.16-0.04-0.37-0.14-0.61l-0.79-1.89
			l1.87-0.79l0.49,1.18c0.33,0.78,0.47,1.42,0.42,1.9c-0.05,0.48-0.24,0.87-0.58,1.16C228.67,201.61,228.23,201.87,227.68,202.11z"
			/>
		<path class="st0" d="M231.07,200.5l-2.86-9.94l1.95-0.56l1.24,4.32l0.64-0.18l0.44-4.8l2.1-0.6l-0.64,5.35l3.55,4.57l-2.12,0.61
			l-2.87-3.85l-0.72,0.21l1.24,4.32L231.07,200.5z"/>
		<path class="st0" d="M237.34,198.71l0.17-10.5l2.87-0.47l3.45,9.91l-2.24,0.37l-0.62-1.83l-1.48,0.24l0.01,1.93L237.34,198.71z
			 M239.36,195.42l1.43-0.23l-1.61-5.43L239.36,195.42z"/>
		<path class="st0" d="M250.25,197.36l-2.11,0.09l-0.2-4.42l-0.59,0.03c-0.18,0.01-0.3,0.11-0.37,0.31c-0.07,0.2-0.14,0.44-0.2,0.72
			l-0.6,3.46l-2.26,0.1l0.82-3.61c0.1-0.46,0.23-0.8,0.38-1.01c0.16-0.21,0.44-0.36,0.83-0.43c-0.62-0.03-1.08-0.23-1.38-0.59
			c-0.3-0.36-0.47-0.81-0.49-1.36l-0.07-1.61c-0.02-0.55,0.13-0.98,0.47-1.31c0.34-0.32,0.85-0.5,1.54-0.53l3.78-0.17L250.25,197.36
			z M247.88,191.62l-0.15-3.39l-0.96,0.04c-0.28,0.01-0.48,0.1-0.59,0.25c-0.12,0.16-0.17,0.42-0.15,0.79l0.05,1.24
			c0.02,0.39,0.1,0.68,0.25,0.85c0.15,0.18,0.38,0.25,0.69,0.24L247.88,191.62z"/>
		<path class="st0" d="M254.12,197.52l1.22-10.27l3.65,0.44c0.68,0.08,1.18,0.3,1.5,0.65c0.31,0.35,0.44,0.8,0.38,1.34l-0.21,1.77
			c-0.06,0.46-0.17,0.89-0.33,1.27c-0.16,0.39-0.41,0.68-0.74,0.89c-0.33,0.21-0.78,0.28-1.34,0.21l-1.53-0.18l-0.49,4.13
			L254.12,197.52z M256.84,192.53l0.78,0.09c0.28,0.03,0.5-0.08,0.68-0.32c0.17-0.25,0.29-0.68,0.37-1.3l0.08-0.7
			c0.07-0.54,0.05-0.94-0.03-1.18c-0.09-0.25-0.24-0.38-0.47-0.41l-0.94-0.11L256.84,192.53z"/>
		<path class="st0" d="M260.63,198.38l2.3-10.08l4.64,1.06l-0.32,1.4l-2.57-0.59l-0.62,2.7l2.19,0.5l-0.35,1.55l-2.18-0.5l-0.7,3.07
			l2.58,0.59l-0.31,1.36L260.63,198.38z"/>
		<path class="st0" d="M268.57,200.74c-0.54-0.18-0.99-0.41-1.37-0.68c-0.37-0.27-0.61-0.64-0.7-1.13c-0.1-0.48-0.01-1.12,0.26-1.92
			l1.75-5.13c0.2-0.59,0.48-1,0.82-1.24c0.35-0.24,0.75-0.35,1.21-0.33c0.46,0.02,0.96,0.12,1.5,0.3c0.55,0.19,1.01,0.42,1.37,0.69
			c0.36,0.27,0.59,0.6,0.7,1c0.11,0.39,0.07,0.88-0.13,1.45l-0.69,2.02l-1.92-0.66l0.72-2.1c0.09-0.26,0.13-0.48,0.11-0.64
			c-0.02-0.16-0.08-0.28-0.18-0.37c-0.1-0.08-0.23-0.15-0.38-0.2c-0.15-0.05-0.3-0.08-0.44-0.08c-0.14,0-0.26,0.06-0.38,0.18
			c-0.11,0.11-0.21,0.3-0.31,0.57l-2.03,5.93c-0.08,0.25-0.12,0.46-0.1,0.62c0.02,0.16,0.08,0.29,0.18,0.38
			c0.1,0.09,0.23,0.16,0.39,0.22c0.16,0.05,0.3,0.07,0.43,0.06s0.25-0.07,0.37-0.19c0.11-0.11,0.21-0.3,0.3-0.55l0.66-1.94
			l1.92,0.66l-0.41,1.21c-0.28,0.81-0.59,1.37-0.95,1.7c-0.36,0.33-0.76,0.49-1.21,0.47C269.64,201.04,269.13,200.93,268.57,200.74z
			"/>
		<path class="st0" d="M272.22,201.83l4.47-9.32l5.22,2.5l-4.47,9.32l-1.91-0.92l3.85-8.03l-1.41-0.67l-3.85,8.03L272.22,201.83z"/>
		<path class="st0" d="M279.29,205.76c-0.26-0.16-0.5-0.34-0.73-0.54c-0.23-0.2-0.4-0.36-0.52-0.49l0.56-0.89
			c0.06,0.06,0.13,0.13,0.21,0.2c0.08,0.07,0.18,0.14,0.28,0.2c0.14,0.09,0.3,0.16,0.47,0.21c0.18,0.06,0.35,0,0.51-0.18
			c0.08-0.08,0.16-0.18,0.23-0.28c0.07-0.1,0.15-0.24,0.25-0.41l2.86-7.77l1.75,1.1l-2.66,6.2l0.01,0.01l4.43-5.09l1.62,1.01
			l-5.57,5.74c-0.71,0.74-1.35,1.18-1.9,1.34C280.52,206.28,279.92,206.16,279.29,205.76z"/>
		<path class="st0" d="M283.5,208.14l6.4-8.12l4,3.15l-0.89,1.13l-2.43-1.92l-0.79,1l1.21,0.95c0.3,0.24,0.54,0.5,0.7,0.77
			s0.22,0.59,0.18,0.93c-0.04,0.35-0.23,0.73-0.57,1.16l-1.76,2.24c-0.36,0.46-0.69,0.8-1,1.02c-0.31,0.22-0.59,0.34-0.86,0.36
			c-0.27,0.02-0.54-0.03-0.8-0.15c-0.26-0.12-0.54-0.29-0.82-0.51L283.5,208.14z M286.35,209.05c0.17,0.13,0.31,0.2,0.45,0.2
			c0.13,0,0.27-0.05,0.4-0.15s0.27-0.24,0.39-0.4l2.03-2.57c0.12-0.16,0.21-0.31,0.28-0.46c0.07-0.15,0.08-0.29,0.05-0.42
			c-0.03-0.13-0.14-0.26-0.31-0.4l-0.62-0.49l-3.3,4.19L286.35,209.05z"/>
		<path class="st0" d="M288.11,211.74l0.75-0.74c0.15,0.15,0.38,0.2,0.7,0.16c0.32-0.04,0.62-0.19,0.9-0.44l6.03-5.22l3.94,3.95
			l-7.32,7.3l-1.43-1.44l6.31-6.29l-1.1-1.1l-5.36,4.6c-0.17,0.13-0.33,0.27-0.5,0.4c-0.17,0.13-0.35,0.23-0.55,0.29
			c-0.2,0.06-0.42,0.05-0.65-0.03c-0.24-0.08-0.5-0.25-0.79-0.53L288.11,211.74z"/>
		<path class="st0" d="M293.74,217.52l8.17-6.34l1.09,1.41l-4.96,3.85l6.28-2.15l1.09,1.41l-8.17,6.34l-1.1-1.42l4.63-3.59
			l-5.94,1.91L293.74,217.52z"/>
		<path class="st0" d="M297.87,222.92l8.87-5.31l1.04,1.74l-3.86,2.31l0.34,0.57l4.76-0.81l1.12,1.88l-5.34,0.75l-3.5,4.61
			l-1.13-1.89l2.99-3.77l-0.39-0.65l-3.86,2.31L297.87,222.92z"/>
		<path class="st0" d="M301.22,228.53l10.19-2.54l1.19,2.65l-8.69,5.89l-0.93-2.07l1.61-1.07l-0.62-1.37l-1.86,0.51L301.22,228.53z
			 M304.91,229.64l0.59,1.33l4.83-2.95L304.91,229.64z"/>
	</g>
	<g>
		<path class="st0" d="M181.97,260.88l10.34-1.48l0.37,2.54l-6.49,2.38l6.89,0.48l0.36,2.52l-10.34,1.48l-0.25-1.78l7.73-1.11
			l-7.95-0.38l-0.2-1.38l7.53-2.58l-7.74,1.11L181.97,260.88z"/>
		<path class="st0" d="M183.71,271.27l10.04-2.9l0.5,1.73l-6.09,1.76l6.7,0.33l0.5,1.73l-10.04,2.9l-0.51-1.75l5.69-1.64l-6.29-0.43
			L183.71,271.27z"/>
		<path class="st0" d="M186.14,279.12l9.61-4.1l0.8,1.89l-3.93,1.68l0.67,1.58l3.94-1.68l0.8,1.89l-9.61,4.1l-0.8-1.89l4.28-1.83
			l-0.68-1.58l-4.27,1.82L186.14,279.12z"/>
		<path class="st0" d="M189.52,286.67l9.04-5.24l0.9,1.56l-5.49,3.18l6.58-1.3l0.9,1.56l-9.04,5.24l-0.91-1.58l5.13-2.97l-6.21,1.1
			L189.52,286.67z"/>
		<path class="st0" d="M195.24,296.01c-0.35-0.46-0.6-0.91-0.75-1.35c-0.16-0.44-0.14-0.88,0.05-1.34c0.2-0.46,0.63-0.94,1.31-1.45
			l4.39-3.28c0.5-0.37,0.96-0.56,1.39-0.56c0.42,0,0.83,0.13,1.2,0.41c0.38,0.28,0.74,0.65,1.09,1.11c0.35,0.47,0.6,0.92,0.75,1.35
			c0.14,0.43,0.15,0.84,0.02,1.23s-0.45,0.78-0.94,1.14l-1.73,1.29l-1.23-1.64l1.8-1.34c0.23-0.17,0.38-0.33,0.45-0.47
			c0.07-0.14,0.09-0.28,0.06-0.41c-0.04-0.13-0.11-0.26-0.2-0.39c-0.1-0.13-0.21-0.24-0.32-0.31c-0.12-0.08-0.25-0.1-0.41-0.06
			c-0.16,0.03-0.35,0.13-0.58,0.3l-5.07,3.79c-0.22,0.16-0.36,0.32-0.44,0.46c-0.07,0.15-0.1,0.29-0.06,0.42
			c0.03,0.14,0.1,0.27,0.2,0.4c0.1,0.13,0.21,0.23,0.32,0.3c0.11,0.07,0.25,0.08,0.41,0.05c0.16-0.03,0.35-0.13,0.57-0.29l1.66-1.24
			l1.23,1.64l-1.03,0.77c-0.69,0.51-1.28,0.81-1.76,0.88c-0.49,0.07-0.91-0.03-1.28-0.29C195.96,296.86,195.6,296.49,195.24,296.01z
			"/>
		<path class="st0" d="M199.25,300.57l6.6-6.11l-1.1-1.19l1.06-0.98l3.6,3.89l-1.06,0.98l-1.11-1.19l-6.6,6.11L199.25,300.57z"/>
		<path class="st0" d="M202.95,304.43l6.96-7.79l3.59,3.2l-0.96,1.08l-1.99-1.78l-1.86,2.08l1.69,1.51l-1.07,1.2l-1.69-1.51
			l-2.12,2.37l1.99,1.78l-0.94,1.05L202.95,304.43z"/>
		<path class="st0" d="M208.04,308.85l6.09-8.49l3.02,2.16c0.56,0.41,0.9,0.84,1.02,1.3c0.11,0.46,0,0.92-0.32,1.37l-1.05,1.46
			c-0.27,0.38-0.58,0.7-0.91,0.97c-0.33,0.26-0.69,0.4-1.09,0.43c-0.39,0.02-0.82-0.13-1.29-0.47l-1.27-0.91l-2.45,3.42
			L208.04,308.85z M212.89,305.76l0.65,0.46c0.23,0.17,0.48,0.18,0.75,0.04c0.27-0.14,0.59-0.46,0.96-0.97l0.41-0.57
			c0.32-0.45,0.51-0.8,0.55-1.06c0.04-0.26-0.03-0.46-0.21-0.59l-0.78-0.56L212.89,305.76z"/>
		<path class="st0" d="M216.88,314.88c-0.51-0.28-0.92-0.59-1.24-0.92c-0.32-0.33-0.49-0.75-0.5-1.25c-0.01-0.5,0.18-1.12,0.6-1.86
			l2.66-4.79c0.31-0.55,0.65-0.91,1.04-1.08s0.81-0.21,1.27-0.12c0.46,0.1,0.94,0.29,1.44,0.57c0.52,0.29,0.93,0.6,1.24,0.93
			c0.31,0.33,0.48,0.7,0.52,1.12s-0.09,0.89-0.38,1.42l-1.05,1.89l-1.79-0.99l1.09-1.96c0.14-0.25,0.21-0.45,0.22-0.61
			c0.01-0.16-0.03-0.3-0.11-0.4c-0.08-0.1-0.2-0.19-0.34-0.27c-0.14-0.08-0.28-0.13-0.42-0.15s-0.27,0.01-0.4,0.11
			c-0.14,0.09-0.27,0.27-0.41,0.51l-3.07,5.53c-0.13,0.24-0.2,0.44-0.21,0.6c-0.01,0.16,0.03,0.3,0.12,0.41
			c0.08,0.11,0.2,0.2,0.35,0.28c0.14,0.08,0.28,0.13,0.42,0.14c0.13,0.01,0.27-0.03,0.4-0.12s0.27-0.26,0.39-0.5l1-1.81l1.79,0.99
			l-0.63,1.13c-0.42,0.75-0.83,1.26-1.25,1.52c-0.41,0.26-0.84,0.35-1.28,0.26C217.88,315.36,217.4,315.17,216.88,314.88z"/>
		<path class="st0" d="M222.38,317.38l3.52-8.28l-1.49-0.64l0.56-1.33l4.88,2.07l-0.57,1.33l-1.5-0.64l-3.52,8.28L222.38,317.38z"/>
		<path class="st0" d="M227.35,319.41l3.04-10l3.55,1.08c0.63,0.19,1.07,0.49,1.31,0.89c0.24,0.4,0.29,0.87,0.13,1.4l-0.35,1.13
			c-0.09,0.29-0.21,0.55-0.37,0.76c-0.16,0.22-0.35,0.38-0.57,0.5c-0.16,0.09-0.35,0.13-0.56,0.14c-0.21,0.01-0.41-0.01-0.6-0.05
			v0.02c0.19,0.06,0.37,0.14,0.54,0.24c0.17,0.1,0.31,0.24,0.42,0.42c0.15,0.2,0.24,0.45,0.27,0.74c0.04,0.29,0,0.62-0.12,0.99
			l-0.41,1.37c-0.17,0.54-0.39,0.94-0.66,1.18c-0.28,0.25-0.61,0.38-0.99,0.39c-0.38,0.01-0.81-0.05-1.28-0.2L227.35,319.41z
			 M229.64,318.98l0.91,0.28c0.17,0.05,0.32,0.06,0.44,0.03c0.13-0.03,0.25-0.12,0.36-0.27c0.11-0.15,0.22-0.39,0.32-0.72l0.36-1.18
			c0.14-0.45,0.15-0.77,0.04-0.96c-0.11-0.19-0.29-0.32-0.54-0.39l-0.85-0.26L229.64,318.98z M231.07,314.28l0.8,0.24
			c0.26,0.08,0.49,0.05,0.7-0.08c0.21-0.13,0.38-0.43,0.52-0.88l0.3-1c0.1-0.35,0.12-0.62,0.03-0.81c-0.08-0.19-0.23-0.32-0.43-0.38
			l-0.94-0.29L231.07,314.28z"/>
		<path class="st0" d="M237.9,322.33c-0.57-0.1-1.06-0.25-1.46-0.47c-0.41-0.21-0.69-0.55-0.86-1.01c-0.16-0.47-0.17-1.12-0.02-1.95
			l0.96-5.4c0.11-0.61,0.31-1.07,0.61-1.36c0.3-0.3,0.68-0.47,1.13-0.53c0.46-0.06,0.97-0.04,1.54,0.07
			c0.56,0.1,1.04,0.25,1.45,0.47c0.41,0.22,0.71,0.51,0.9,0.9c0.19,0.38,0.23,0.87,0.13,1.48l-0.95,5.38
			c-0.15,0.85-0.39,1.46-0.71,1.84c-0.32,0.38-0.72,0.6-1.17,0.65C238.99,322.46,238.47,322.44,237.9,322.33z M238.11,321.15
			c0.17,0.03,0.33,0.03,0.48-0.01s0.27-0.12,0.37-0.25c0.1-0.13,0.17-0.32,0.22-0.58l1.1-6.23c0.04-0.25,0.04-0.46-0.01-0.62
			c-0.05-0.16-0.14-0.28-0.26-0.36c-0.12-0.08-0.27-0.14-0.45-0.17s-0.33-0.03-0.47,0.01c-0.14,0.04-0.25,0.12-0.36,0.25
			c-0.1,0.13-0.17,0.32-0.22,0.58l-1.1,6.23c-0.04,0.25-0.04,0.46,0.01,0.62c0.05,0.16,0.13,0.28,0.25,0.36
			C237.79,321.06,237.94,321.12,238.11,321.15z"/>
		<path class="st0" d="M246.51,323.13l0.17-10.45l3.71,0.06c0.66,0.01,1.16,0.18,1.5,0.49s0.51,0.75,0.5,1.31l-0.02,1.18
			c0,0.31-0.05,0.59-0.14,0.84c-0.09,0.25-0.23,0.47-0.41,0.64c-0.13,0.13-0.3,0.23-0.5,0.29c-0.2,0.07-0.4,0.11-0.59,0.11v0.02
			c0.2,0,0.39,0.03,0.58,0.08c0.19,0.05,0.36,0.15,0.52,0.29c0.2,0.16,0.35,0.37,0.47,0.63c0.11,0.27,0.17,0.6,0.16,0.99l-0.02,1.43
			c-0.01,0.57-0.11,1.01-0.31,1.32c-0.2,0.32-0.48,0.53-0.84,0.65c-0.36,0.12-0.79,0.17-1.28,0.16L246.51,323.13z M248.6,322.08
			l0.96,0.02c0.18,0,0.32-0.03,0.44-0.09c0.11-0.06,0.2-0.18,0.27-0.36s0.1-0.43,0.11-0.78l0.02-1.24c0.01-0.47-0.07-0.78-0.22-0.93
			c-0.16-0.15-0.37-0.23-0.62-0.23l-0.89-0.01L248.6,322.08z M248.68,317.17l0.83,0.01c0.27,0.01,0.49-0.09,0.65-0.27
			c0.16-0.19,0.25-0.51,0.25-0.99l0.01-1.04c0.01-0.37-0.06-0.63-0.19-0.79c-0.13-0.16-0.31-0.24-0.52-0.25l-0.99-0.01
			L248.68,317.17z"/>
		<path class="st0" d="M254.52,323.09l-1.14-10.38l2.04-0.22l0.47,4.25l1.71-0.19l-0.47-4.25l2.04-0.22l1.14,10.38l-2.04,0.22
			l-0.51-4.62l-1.71,0.19l0.51,4.62L254.52,323.09z"/>
		<path class="st0" d="M263.81,322.04c-0.3,0.07-0.6,0.11-0.9,0.13c-0.3,0.02-0.55,0.03-0.73,0.02l-0.24-1.03
			c0.08,0,0.18,0,0.3-0.01c0.11-0.01,0.23-0.02,0.34-0.05c0.16-0.04,0.32-0.1,0.49-0.18c0.17-0.09,0.25-0.25,0.24-0.49
			c0-0.12-0.01-0.24-0.04-0.36c-0.02-0.12-0.06-0.28-0.11-0.47l-3.48-7.61l2.03-0.46l2.5,6.34l0.02,0l-0.45-6.8l1.88-0.42l0.08,8.08
			c0.02,1.04-0.12,1.81-0.41,2.31C265.06,321.54,264.54,321.87,263.81,322.04z"/>
		<path class="st0" d="M270.57,319.99l-2.86-8.53l-1.54,0.51l-0.46-1.37l5.03-1.68l0.46,1.37l-1.54,0.52l2.86,8.53L270.57,319.99z"
			/>
		<path class="st0" d="M275.62,318.21l-4.33-9.51l3.38-1.54c0.63-0.29,1.18-0.37,1.64-0.23c0.45,0.13,0.8,0.45,1.03,0.96l0.75,1.64
			c0.2,0.43,0.32,0.85,0.39,1.27c0.06,0.42,0,0.8-0.17,1.16c-0.18,0.35-0.53,0.65-1.05,0.89l-1.41,0.65l1.74,3.83L275.62,318.21z
			 M275.35,312.47l0.72-0.33c0.26-0.12,0.39-0.33,0.41-0.63c0.01-0.31-0.11-0.74-0.37-1.31l-0.29-0.64c-0.23-0.5-0.45-0.84-0.65-1
			c-0.21-0.17-0.41-0.2-0.61-0.11l-0.87,0.39L275.35,312.47z"/>
		<path class="st0" d="M282.69,314.82l-5.33-8.99l4.13-2.45l0.74,1.25l-2.3,1.36l1.42,2.4l1.95-1.16l0.82,1.38l-1.95,1.15l1.62,2.74
			l2.3-1.36l0.72,1.22L282.69,314.82z"/>
		<path class="st0" d="M288.48,311.28l-6.28-8.35l1.64-1.23l2.57,3.42l1.37-1.03l-2.57-3.42l1.64-1.23l6.28,8.35l-1.64,1.23
			l-2.8-3.71l-1.37,1.03l2.8,3.71L288.48,311.28z"/>
		<path class="st0" d="M294.92,306.25l-7.23-7.54l1.48-1.42l2.96,3.09l1.24-1.19l-2.96-3.09l1.48-1.42l7.23,7.54l-1.48,1.42
			l-3.21-3.36l-1.24,1.19l3.22,3.36L294.92,306.25z"/>
		<path class="st0" d="M300.74,300.48l-8.08-6.63l1.14-1.4l4.91,4.03l-3.52-5.71l1.14-1.39l8.08,6.63l-1.16,1.41l-4.58-3.76
			l3.21,5.42L300.74,300.48z"/>
		<path class="st0" d="M305.49,294.54l-3.68-4.21l-5.05-1.53l1.11-1.72l3.43,1.12l-2.44-2.65l1.17-1.81l3.46,4l5.3,1.7l-1.11,1.72
			l-3.44-1.09l2.44,2.65L305.49,294.54z"/>
		<path class="st0" d="M313.11,285.83l-3.08-1.24l0.35-0.87c0.06-0.22,0.01-0.46-0.16-0.73c-0.17-0.27-0.44-0.51-0.82-0.71
			c-0.39-0.21-0.82-0.44-1.31-0.7c-0.49-0.26-0.99-0.53-1.51-0.8c-0.52-0.27-1.03-0.54-1.54-0.78c-0.51-0.25-0.98-0.48-1.42-0.7
			c-0.44-0.21-0.8-0.39-1.1-0.52l2.01-4.98l8.48,3.42l0.66-1.64l3.08,1.24l-0.63,1.57l-1.51-0.61l-2.37,5.89l1.51,0.61
			L313.11,285.83z M311.31,281.4l0.93-2.31l-7.13-2.88l-0.54,1.33c0.89,0.46,1.79,0.92,2.69,1.36c0.9,0.45,1.8,0.9,2.7,1.35
			c0.28,0.15,0.56,0.33,0.85,0.52C311.1,280.96,311.26,281.17,311.31,281.4z"/>
		<path class="st0" d="M315.38,273.95l-10.13-2.56l1.17-4.66l1.41,0.35l-0.65,2.59l2.71,0.68l0.55-2.19l1.56,0.39l-0.55,2.19
			l3.08,0.78l0.65-2.59l1.37,0.35L315.38,273.95z"/>
		<path class="st0" d="M316.88,267.94l-1.05-0.14c0.03-0.21-0.07-0.43-0.3-0.66c-0.23-0.23-0.53-0.38-0.9-0.45l-7.9-1.63l0.75-5.59
			l10.35,1.38l-0.27,2.03l-8.92-1.19l-0.21,1.56l6.99,1.47c0.21,0.05,0.42,0.1,0.63,0.16c0.21,0.05,0.4,0.14,0.57,0.26
			c0.17,0.12,0.29,0.3,0.37,0.54c0.08,0.24,0.1,0.55,0.06,0.95L316.88,267.94z"/>
	</g>
	<g>
		<g>
			<path class="st0" d="M222.3,295.35c-1.99,0-3.92-0.13-5.78-0.39c-1.86-0.26-3.4-0.52-4.61-0.78v-6.62
				c0.61,0.17,1.3,0.3,2.08,0.39c0.78,0.09,1.6,0.13,2.47,0.13c1.21,0,2.47-0.19,3.76-0.58c1.3-0.39,2.21-1.32,2.72-2.79
				c0.35-0.86,0.61-1.82,0.78-2.85c0.17-1.04,0.26-2.29,0.26-3.76l-13.37-61.01h12.72l9.09,51.66l9.35-51.66h11.68l-12.98,58.93
				c-1.47,7.01-3.57,11.99-6.3,14.93C231.45,293.87,227.49,295.35,222.3,295.35z"/>
		</g>
		<g>
			<path class="st0" d="M255.27,293.79v-76.72h25.96c4.85,0,8.57,1.08,11.17,3.24c2.59,2.16,3.89,5.37,3.89,9.61v13.63
				c0,3.29-0.41,6.34-1.23,9.15c-0.82,2.81-2.38,5.08-4.67,6.81c-2.3,1.73-5.6,2.6-9.93,2.6h-12.2v31.67H255.27z M268.25,255.11
				h7.92c2.59,0,4.54-1.02,5.84-3.05c1.3-2.03,1.95-5.34,1.95-9.93v-6.88c0-4.07-0.56-6.96-1.69-8.7c-1.13-1.73-2.68-2.59-4.67-2.59
				h-9.35V255.11z"/>
		</g>
	</g>
	<g>
		<polygon class="st0" points="191.09,239.01 192.41,244.74 198.27,245.25 193.23,248.28 194.55,254 190.11,250.15 185.08,253.17 
			187.37,247.76 182.94,243.91 188.79,244.42 		"/>
	</g>
	<g>
		<polygon class="st0" points="308.64,239.01 310.94,244.42 316.79,243.91 312.36,247.76 314.65,253.17 309.62,250.15 305.18,254 
			306.5,248.28 301.47,245.25 307.32,244.74 		"/>
	</g>
</g>
</svg>
