<?xml version="1.0" encoding="utf-8"?>
<!-- Generator: Adobe Illustrator 26.5.0, SVG Export Plug-In . SVG Version: 6.00 Build 0)  -->
<svg version="1.1" id="Layer_1" xmlns="http://www.w3.org/2000/svg" xmlns:xlink="http://www.w3.org/1999/xlink" x="0px" y="0px"
	 viewBox="0 0 500 500" style="enable-background:new 0 0 500 500;" xml:space="preserve">
<style type="text/css">
	.st0{fill:#131313;}
</style>
<g>
	<polygon class="st0" points="135.06,256.72 127.51,256.97 127.46,255.64 134.85,250.4 134.7,245.78 125.25,252.85 116.63,246.87 
		116.79,251.35 124.34,256.06 124.37,257.07 116.98,257.32 117.11,260.94 135.18,260.35 	"/>
	
		<rect x="125.96" y="217.85" transform="matrix(0.1247 -0.9922 0.9922 0.1247 -113.2774 325.3765)" class="st0" width="3.63" height="18.09"/>
	<path class="st0" d="M135.48,238.17c0.25-2.05-0.08-3.76-1.01-5.12c-0.93-1.36-2.26-2.14-3.99-2.36c-1.7-0.21-3.17,0.22-4.41,1.3
		c-1.22,1.08-1.97,2.66-2.23,4.72l-0.39,3.08l-6.31-0.79l-0.45,3.6l17.95,2.25L135.48,238.17z M132.33,240.91l-6.1-0.77l0.39-3.08
		c0.12-1.01,0.51-1.76,1.16-2.23c0.65-0.48,1.39-0.66,2.23-0.56c0.87,0.11,1.57,0.48,2.1,1.1c0.53,0.62,0.73,1.44,0.61,2.45
		L132.33,240.91z"/>
	<path class="st0" d="M138.73,220.34l-6.3-1.84l0.92-3.16c0.58-1.99,0.54-3.71-0.14-5.15c-0.68-1.44-1.85-2.4-3.5-2.89
		c-1.66-0.48-3.17-0.31-4.52,0.54s-2.32,2.27-2.9,4.26l-1.94,6.64l17.36,5.08L138.73,220.34z M130.68,214.56l-0.93,3.16l-5.7-1.67
		l0.92-3.16c0.29-0.98,0.78-1.63,1.46-1.97c0.69-0.34,1.45-0.39,2.29-0.14c0.82,0.24,1.42,0.69,1.8,1.34
		C130.91,212.78,130.96,213.59,130.68,214.56z"/>
	<polygon class="st0" points="143.78,205.56 129.77,199.43 133.04,191.96 130.48,190.83 125.76,201.64 142.32,208.88 	"/>
	<path class="st0" d="M151.24,190.81c1.1-1.75,1.53-3.43,1.26-5.06c-0.27-1.62-1.14-2.9-2.61-3.83c-1.45-0.92-2.97-1.15-4.54-0.7
		s-2.91,1.56-4.03,3.32l-1.66,2.62l-5.37-3.4l-1.94,3.07l15.28,9.67L151.24,190.81z M142.03,188.66l1.66-2.63
		c0.55-0.86,1.21-1.37,2-1.52c0.79-0.15,1.54,0,2.26,0.45c0.74,0.47,1.21,1.1,1.43,1.89c0.22,0.79,0.06,1.62-0.49,2.47l-1.66,2.63
		L142.03,188.66z"/>
	
		<rect x="147.26" y="168.28" transform="matrix(0.5347 -0.845 0.845 0.5347 -80.483 208.476)" class="st0" width="3.63" height="18.09"/>
	<path class="st0" d="M149.27,170.19l2.34-2.63c-0.51-0.45-0.73-1.04-0.66-1.78c0.07-0.73,0.4-1.44,1-2.12
		c0.76-0.86,1.52-1.37,2.26-1.52c0.74-0.15,1.38,0.01,1.9,0.47c0.6,0.53,0.89,1.15,0.86,1.86c-0.02,0.71-0.41,1.48-1.17,2.34
		l-1.62,1.83l2.04,1.8l1.62-1.83c0.79-0.89,1.55-1.42,2.29-1.59c0.73-0.16,1.46,0.08,2.17,0.71c0.57,0.5,0.81,1.16,0.72,2
		c-0.09,0.83-0.53,1.69-1.3,2.57c-0.66,0.74-1.38,1.2-2.16,1.35c-0.78,0.16-1.44,0-1.96-0.47l-2.34,2.64l0.05,0.06
		c1.24,1.16,2.65,1.52,4.23,1.07s3-1.39,4.27-2.82c1.46-1.65,2.3-3.31,2.5-4.96c0.2-1.66-0.32-3.04-1.56-4.14
		c-0.78-0.69-1.62-1.05-2.53-1.09c-0.91-0.05-1.86,0.21-2.83,0.78c0.34-0.97,0.42-1.87,0.26-2.74c-0.16-0.86-0.55-1.56-1.17-2.11
		c-1.24-1.1-2.62-1.46-4.14-1.09c-1.52,0.37-3.01,1.38-4.47,3.03c-1.26,1.42-1.97,2.92-2.13,4.52c-0.16,1.59,0.33,2.87,1.49,3.82
		L149.27,170.19z"/>
	<path class="st0" d="M165.14,161.61c1.44,1.68,3.12,2.61,5.04,2.8c1.92,0.19,3.71-0.42,5.35-1.84c1.62-1.38,2.53-2.89,2.73-4.5
		c0.2-1.62-0.33-3.15-1.62-4.59l-0.07-0.04l-2.67,2.29c0.76,0.89,1.13,1.73,1.09,2.5c-0.04,0.78-0.47,1.52-1.29,2.23
		c-0.87,0.74-1.83,0.99-2.89,0.74c-1.06-0.25-2.04-0.9-2.95-1.95l-2.35-2.75c-0.9-1.05-1.41-2.1-1.51-3.16
		c-0.11-1.06,0.25-1.94,1.07-2.65c0.89-0.76,1.72-1.11,2.51-1.04c0.8,0.07,1.57,0.54,2.33,1.42l2.67-2.3l-0.03-0.07
		c-1.25-1.51-2.69-2.26-4.34-2.27c-1.64-0.01-3.3,0.71-4.97,2.14c-1.61,1.37-2.44,3.02-2.51,4.93c-0.08,1.91,0.61,3.7,2.04,5.37
		L165.14,161.61z"/>
	<polygon class="st0" points="176.55,142.24 184.99,154.99 188.02,152.99 179.57,140.24 183.88,137.39 182.33,135.06 170.76,142.73 
		172.3,145.06 	"/>
	<path class="st0" d="M194.58,149.02l-0.67-4.03l5.23-2.64l2.86,2.93l3.38-1.7l-13.57-13.41l-3.31,1.67l2.7,18.9L194.58,149.02z
		 M192.41,135.42l4.66,4.79l-3.65,1.84l-1.07-6.6L192.41,135.42z"/>
	<polygon class="st0" points="209.76,142.07 207.36,134.95 214.34,132.6 216.74,139.72 220.18,138.56 214.4,121.43 210.97,122.58 
		213.45,129.95 206.47,132.3 203.99,124.93 200.55,126.09 206.32,143.23 	"/>
	<path class="st0" d="M230.1,134.66c1.5,1.21,3.32,1.69,5.48,1.41c2.11-0.27,3.7-1.03,4.76-2.26c1.06-1.24,1.45-2.82,1.17-4.72
		l-0.04-0.07l-3.48,0.45c0.15,1.17,0,2.07-0.46,2.7c-0.46,0.63-1.22,1.01-2.3,1.15c-1.13,0.15-2.08-0.17-2.83-0.97
		c-0.75-0.79-1.21-1.87-1.39-3.25l-0.46-3.58c-0.17-1.37-0.02-2.53,0.48-3.47c0.49-0.94,1.27-1.48,2.35-1.62
		c1.16-0.15,2.05,0.02,2.68,0.51c0.63,0.49,1.01,1.31,1.16,2.46l3.5-0.45l0.01-0.08c-0.22-1.94-1.01-3.37-2.38-4.28
		c-1.37-0.91-3.15-1.22-5.33-0.94c-2.1,0.27-3.7,1.19-4.81,2.75c-1.11,1.56-1.53,3.43-1.24,5.61l0.46,3.56
		C227.71,131.75,228.6,133.45,230.1,134.66z"/>
	<path class="st0" d="M247.75,130.96l5.86,0.09l1.17,3.92l3.79,0.06l-5.78-18.18l-3.71-0.06l-6.39,17.99l3.79,0.06L247.75,130.96z
		 M250.81,121.79h0.08l1.89,6.4l-4.09-0.07L250.81,121.79z"/>
	<path class="st0" d="M264.5,133.45c1.27-1.36,2.17-3.77,2.68-7.23l0.8-5.38l5.09,0.76l-2.26,15.12l3.59,0.54l2.67-17.89
		l-12.26-1.84l-1.21,8.15c-0.4,2.67-0.87,4.46-1.4,5.41c-0.53,0.94-1.36,1.33-2.48,1.16l-0.49-0.08l-0.41,2.75l0.53,0.08
		C261.51,135.33,263.23,134.81,264.5,133.45z"/>
	<path class="st0" d="M283.29,139.77c1.97,0.65,3.71,0.64,5.22-0.02c1.51-0.65,2.53-1.81,3.07-3.46c0.54-1.64,0.39-3.16-0.43-4.58
		c-0.83-1.41-2.23-2.44-4.21-3.09l-2.95-0.97l1.98-6.05l-3.45-1.13l-5.63,17.19L283.29,139.77z M283.12,130.31l2.95,0.97
		c0.97,0.32,1.62,0.84,1.96,1.57c0.34,0.73,0.38,1.49,0.12,2.29c-0.27,0.83-0.76,1.45-1.48,1.86c-0.71,0.4-1.54,0.45-2.51,0.13
		l-2.95-0.97L283.12,130.31z"/>
	
		<rect x="286.79" y="132.54" transform="matrix(0.3109 -0.9504 0.9504 0.3109 76.1555 373.7497)" class="st0" width="18.08" height="3.63"/>
	<polygon class="st0" points="300.2,146.37 303.67,139.66 304.85,140.27 305.82,149.27 309.93,151.39 308.37,139.69 317.79,135.09 
		313.81,133.04 306.01,137.33 305.11,136.87 308.49,130.3 305.27,128.63 296.98,144.7 	"/>
	<polygon class="st0" points="318.7,157.61 323.36,151.67 324.4,152.49 323.68,161.51 327.31,164.36 327.97,152.58 338.09,149.83 
		334.56,147.06 326.1,149.82 325.3,149.19 329.86,143.38 327,141.14 315.84,155.37 	"/>
	
		<rect x="337.17" y="169.38" transform="matrix(0.7335 -0.6797 0.6797 0.7335 -24.1002 280.9198)" class="st0" width="18.09" height="3.63"/>
	<path class="st0" d="M332.62,169.83c1.41,1.52,2.93,2.36,4.57,2.52c1.64,0.16,3.1-0.35,4.37-1.53c1.27-1.17,1.88-2.58,1.84-4.21
		c-0.04-1.63-0.76-3.22-2.18-4.74l-2.11-2.27l4.67-4.32l-2.47-2.66l-13.27,12.29L332.62,169.83z M339.17,163.77
		c0.69,0.75,1.01,1.52,0.96,2.32c-0.05,0.8-0.39,1.49-1.01,2.06c-0.64,0.6-1.37,0.9-2.19,0.9c-0.81,0.01-1.57-0.36-2.26-1.11
		l-2.11-2.28l4.51-4.18L339.17,163.77z"/>
	<path class="st0" d="M353.1,173.28l1.94,2.93c0.57-0.38,1.19-0.43,1.89-0.18c0.69,0.25,1.29,0.76,1.79,1.51
		c0.63,0.96,0.93,1.82,0.88,2.58c-0.05,0.76-0.36,1.33-0.94,1.71c-0.67,0.44-1.34,0.57-2.02,0.35c-0.67-0.21-1.32-0.78-1.95-1.73
		l-1.36-2.04l-2.26,1.51l1.35,2.04c0.66,0.99,0.98,1.86,0.95,2.62c-0.03,0.75-0.45,1.39-1.24,1.92c-0.63,0.41-1.33,0.48-2.11,0.17
		c-0.78-0.3-1.5-0.94-2.15-1.92c-0.55-0.83-0.8-1.64-0.75-2.43c0.05-0.79,0.37-1.38,0.96-1.77l-1.95-2.94l-0.07,0.03
		c-1.44,0.9-2.15,2.17-2.12,3.81c0.03,1.64,0.57,3.26,1.62,4.85c1.22,1.84,2.61,3.07,4.16,3.7c1.54,0.62,3.01,0.47,4.4-0.45
		c0.86-0.57,1.43-1.29,1.7-2.17c0.28-0.87,0.27-1.85-0.02-2.94c0.84,0.57,1.7,0.89,2.58,0.96c0.87,0.07,1.65-0.13,2.34-0.59
		c1.38-0.91,2.09-2.16,2.12-3.72c0.03-1.56-0.56-3.26-1.78-5.1c-1.05-1.58-2.33-2.65-3.82-3.22c-1.5-0.57-2.85-0.41-4.07,0.46
		L353.1,173.28z"/>
	<polygon class="st0" points="352.54,197.37 363.82,192.28 363.85,192.34 354.41,201.52 355.42,203.76 368.53,202.74 368.55,202.82 
		357.3,207.9 358.8,211.21 375.28,203.75 373.33,199.45 359.27,200.7 359.23,200.63 369.48,190.96 367.53,186.62 351.05,194.07 	"/>
	<path class="st0" d="M360.14,216.26l4.08,0.17l1.52,5.66l-3.46,2.19l0.98,3.66l15.91-10.54l-0.96-3.59l-19.04-1.22L360.14,216.26z
		 M373.87,216.86l0.02,0.07l-5.64,3.58l-1.06-3.95L373.87,216.86z"/>
	<polygon class="st0" points="378.8,229.58 363.66,231.75 364.17,235.34 379.31,233.17 380.05,238.28 382.81,237.89 380.84,224.14 
		378.08,224.54 	"/>
	<path class="st0" d="M365.12,248.46c-0.03,2.07,0.49,3.73,1.56,4.98c1.07,1.25,2.48,1.88,4.21,1.91c1.72,0.03,3.14-0.56,4.24-1.77
		c1.1-1.21,1.67-2.85,1.7-4.93l0.05-3.1l6.36,0.1l0.06-3.63l-18.08-0.29L365.12,248.46z M367.96,245.4l6.15,0.1l-0.06,3.11
		c-0.01,1.02-0.32,1.79-0.91,2.34c-0.59,0.54-1.31,0.81-2.15,0.79c-0.88-0.01-1.62-0.3-2.21-0.86c-0.6-0.56-0.89-1.35-0.87-2.37
		L367.96,245.4z"/>
	
		<rect x="372.19" y="249.79" transform="matrix(0.0164 -0.9999 0.9999 0.0164 109.0672 628.5436)" class="st0" width="3.63" height="18.09"/>
	<path class="st0" d="M213.52,361.82c-1.16-0.38-2.21-0.24-3.14,0.4c-0.93,0.65-1.61,1.64-2.05,2.98l-1.01,3.12
		c-0.45,1.37-0.48,2.58-0.11,3.65c0.37,1.07,1.15,1.8,2.32,2.18c1.18,0.39,2.24,0.26,3.18-0.39c0.94-0.65,1.63-1.65,2.08-3.01
		l1.02-3.12c0.44-1.34,0.46-2.55,0.07-3.62C215.49,362.93,214.7,362.2,213.52,361.82z"/>
	<path class="st0" d="M228.74,373.3l-3.28-0.57l-0.9,5.14l3.31,0.58c0.95,0.16,1.7,0.08,2.27-0.24s0.93-0.89,1.07-1.7
		c0.15-0.87,0.02-1.57-0.39-2.12C230.42,373.84,229.72,373.47,228.74,373.3z"/>
	<path class="st0" d="M228.98,365.94l-2.26-0.4l-0.82,4.71l2.38,0.42c0.96,0.16,1.72,0.1,2.31-0.2c0.58-0.3,0.94-0.82,1.07-1.58
		c0.14-0.82-0.01-1.48-0.46-1.96C230.75,366.45,230.01,366.12,228.98,365.94z"/>
	<polygon class="st0" points="245.18,369.88 245.1,369.88 242.83,376.16 246.92,376.33 	"/>
	<path class="st0" d="M186.52,349c-1.03-0.66-2.08-0.8-3.14-0.41c-1.06,0.39-1.97,1.18-2.74,2.36l-1.77,2.76
		c-0.77,1.21-1.12,2.37-1.03,3.5c0.09,1.13,0.65,2.03,1.7,2.7c1.05,0.67,2.1,0.81,3.17,0.43c1.07-0.38,2-1.18,2.77-2.38l1.77-2.76
		c0.76-1.18,1.09-2.34,0.98-3.48C188.14,350.58,187.56,349.67,186.52,349z"/>
	<polygon class="st0" points="153.04,331.05 155.72,334.14 159.23,328.47 159.18,328.41 	"/>
	<path class="st0" d="M260.61,373.04l2.64-0.23l-0.49-5.65l-2.64,0.23c-0.99,0.08-1.72,0.39-2.19,0.91
		c-0.47,0.52-0.67,1.21-0.59,2.08c0.08,0.87,0.4,1.55,0.97,2.04C258.87,372.91,259.64,373.12,260.61,373.04z"/>
	<polygon class="st0" points="351.59,313.85 355.9,318.95 358.09,315.5 351.63,313.79 	"/>
	<path class="st0" d="M350.44,333.03c0.65-0.79,0.92-1.58,0.81-2.39c-0.11-0.81-0.51-1.5-1.19-2.06c-0.65-0.54-1.37-0.79-2.17-0.73
		c-0.81,0.05-1.53,0.47-2.18,1.25l-1.99,2.39l4.73,3.93L350.44,333.03z"/>
	<path class="st0" d="M250,100c-82.84,0-150,67.16-150,150c0,82.84,67.16,150,150,150s150-67.16,150-150
		C400,167.16,332.84,100,250,100z M250,113.67c75.17,0,136.33,61.16,136.33,136.33c0,18.24-3.63,35.63-10.15,51.55l-28.04-11.33
		c-15.83,38.62-53.8,65.83-98.13,65.83c-44.32,0-82.27-27.17-98.12-65.78l-28.04,11.35c-6.54-15.93-10.18-33.35-10.18-51.61
		C113.67,174.83,174.83,113.67,250,113.67z M148.48,319.2l6.54-4.2l1.96,3.06l-15.24,9.75l-1.95-3.06l6.33-4.05l-3.97-6.21
		l-6.33,4.05l-1.96-3.06l15.24-9.75l1.95,3.06l-6.55,4.19L148.48,319.2z M234.4,374.33c0.43,0.86,0.56,1.79,0.38,2.8
		c-0.3,1.7-1.09,2.9-2.37,3.58c-1.28,0.68-2.95,0.84-5.01,0.48l-6.89-1.21l3.13-17.81l5.83,1.02c2.1,0.37,3.66,1.06,4.69,2.09
		c1.04,1.03,1.41,2.35,1.12,3.96c-0.14,0.81-0.48,1.51-1.02,2.08c-0.54,0.57-1.24,0.95-2.12,1.13
		C233.21,372.84,233.96,373.47,234.4,374.33z M236.67,382.67l6.83-17.83l3.71,0.15l5.34,18.32l-3.79-0.15l-1.07-3.95l-5.86-0.24
		l-1.37,3.85L236.67,382.67z M219.24,368.78l-1.01,3.09c-0.69,2.12-1.93,3.64-3.7,4.59c-1.78,0.94-3.73,1.06-5.87,0.37
		c-2.12-0.69-3.63-1.94-4.5-3.75c-0.87-1.81-0.97-3.77-0.28-5.88l1.01-3.1c0.68-2.1,1.91-3.63,3.68-4.58
		c1.77-0.95,3.71-1.08,5.83-0.4c2.13,0.7,3.64,1.95,4.53,3.77S219.92,366.67,219.24,368.78z M205.65,359.37l-7.38-3.47l-6.51,13.83
		l-3.29-1.54l7.7-16.36l10.67,5.02L205.65,359.37z M190.29,357.17l-1.76,2.74c-1.2,1.87-2.78,3.04-4.74,3.5
		c-1.96,0.46-3.88,0.08-5.77-1.13c-1.88-1.21-3.01-2.8-3.4-4.77c-0.39-1.97,0.01-3.89,1.21-5.76l1.76-2.74
		c1.19-1.86,2.76-3.03,4.72-3.5c1.95-0.48,3.87-0.11,5.74,1.1c1.89,1.21,3.03,2.81,3.43,4.79
		C191.88,353.39,191.48,355.31,190.29,357.17z M168.11,355.19l-2.73-2.38l10.04-11.53l-3.88-3.38l-3.58,4.1
		c-2.29,2.64-4.34,4.19-6.15,4.65c-1.8,0.46-3.53-0.02-5.19-1.47l-0.4-0.35l1.83-2.1l0.37,0.33c0.86,0.74,1.76,0.86,2.72,0.36
		c0.96-0.51,2.32-1.78,4.09-3.8l5.41-6.21l9.35,8.15L168.11,355.19z M154.46,343.02l-2.48-2.87l2.15-3.48l-3.83-4.44l-3.75,1.63
		l-2.48-2.87l17.67-7.2l2.43,2.81L154.46,343.02z M254.68,373.2c-0.55-0.73-0.87-1.62-0.96-2.67c-0.15-1.7,0.32-3.07,1.42-4.11
		c1.1-1.04,2.67-1.65,4.73-1.82l6.25-0.54l1.55,18.02l-3.61,0.31l-0.6-6.94l-3.06,0.26l-2.74,7.23l-3.91,0.34l3.2-8.38
		C255.99,374.49,255.22,373.93,254.68,373.2z M279.24,368.77l0.96,3.49c0.37,1.34,0.98,2.35,1.83,3.03
		c0.85,0.68,1.83,0.87,2.93,0.56c1.05-0.28,1.75-0.77,2.12-1.46c0.37-0.69,0.4-1.6,0.08-2.74l3.39-0.93l0.04,0.07
		c0.55,1.85,0.38,3.47-0.5,4.84c-0.88,1.37-2.34,2.34-4.4,2.9c-2.09,0.57-3.96,0.36-5.62-0.63c-1.65-0.99-2.77-2.55-3.35-4.69
		l-0.95-3.47c-0.58-2.12-0.43-4.04,0.45-5.73c0.89-1.7,2.34-2.83,4.38-3.39c2.12-0.58,3.93-0.52,5.41,0.19s2.47,2.01,2.95,3.91
		l0,0.08l-3.4,0.93c-0.31-1.12-0.8-1.87-1.49-2.27c-0.69-0.4-1.6-0.45-2.72-0.14c-1.05,0.29-1.75,0.93-2.1,1.94
		C278.87,366.27,278.88,367.43,279.24,368.77z M313.59,345.92l3.27-2.02l0.04,0.32l3.38-2.94l7.94,2.89l0.69-0.6l-4.85-5.58
		l2.73-2.37l4.85,5.58l0.66-0.57l-1.82-8.21l3.37-2.93l1.44,9.77l10.65,3.68l-3.41,2.96l-7.97-3.08l-0.87,0.75l4.95,5.7l-2.73,2.37
		l-4.95-5.7l-0.9,0.79l1.87,8.38l-3.41,2.97l-2.1-11.1l-9.54-2.74l2.03,15.61c0.17,1.27,0.11,2.37-0.18,3.31
		c-0.29,0.93-1,1.75-2.13,2.44c-0.42,0.26-0.82,0.46-1.2,0.59c-0.38,0.13-0.83,0.25-1.35,0.38l-1-2.43c0.37-0.1,0.7-0.21,0.97-0.31
		c0.27-0.1,0.53-0.23,0.77-0.39c0.58-0.35,0.95-0.75,1.1-1.2c0.16-0.44,0.17-0.96,0.05-1.56l-0.13-0.73l-12.31-7.84l3.33-2.05
		l7.36,4.91l0.85,0.76l0.07-0.03L313.59,345.92z M341.58,329.69l1.99-2.39c1.33-1.6,2.81-2.52,4.42-2.77
		c1.62-0.24,3.09,0.18,4.41,1.29c1.34,1.11,2.03,2.49,2.08,4.13c0.06,1.64-0.58,3.26-1.9,4.85l-4.31,5.17l-13.89-11.57l7.54-9.05
		l2.15,1.78l-5.22,6.27L341.58,329.69z M360.49,324.34l-2.02,3.21l-12.04-14.8l1.98-3.15l18.54,4.51l-2.02,3.2l-3.96-1.04
		l-3.13,4.96L360.49,324.34z M309.72,369.2l-3.32,1.45l-6.1-14.02l-4.71,2.05l2.17,4.99c1.39,3.21,1.91,5.72,1.55,7.55
		c-0.35,1.83-1.53,3.18-3.55,4.06l-0.49,0.21l-1.11-2.55l0.46-0.2c1.04-0.45,1.54-1.22,1.49-2.3s-0.6-2.86-1.68-5.33l-3.29-7.55
		l11.37-4.94L309.72,369.2z"/>
	<path class="st0" d="M288.94,190.02c-3.16,2.72-4.36,6.93-6.11,10.59c-2.1,6.54-13.89,8.37-17.4,1.18
		c-4.78-9.79,2.32-23.17-5.49-31.82c1.78-2.47,0.14-2.64-1.91-3.28c-6.26-0.56-13.48-3.77-18.84,0.96
		c-4.05,3.14-12.95-0.28-13.14,7.16c-0.06,1.21-0.59,2.63,0.77,3.72c4.14-4.41,14-4.3,16.24,2.57c-3.31-1.5-8.77-5.69-12.61-1.99
		c8.82-1.45,9.07,8.15,8.01,14.23c0.44,10.51-10.96,20.91-18.83,10.14c-13.51-36.93-41.57,6.13-43.22,26.38
		c1.89-0.48,3.11-2.34,4.94-1.12c-6.6,10.3-7.27,25.89-2.82,36.61c2.16,0.52,2.28,2.09,2.28,3.81
		c-3.21,20.56,10.7,36.44,18.23,54.02c11.78-5.71,6.48-17.83,1.94-26.64c-2.77-5.88-4.67-12.07-7.05-18.08
		c7.59,9.02,10.58,21.56,15.22,32.46c3.32-3.3,7.45-7.7,5.4-12.6c-3.07-8.18-6.64-16.14-10.34-24.05
		c7.91,6.1,8.55,16.42,12.72,24.88c10.32-8.54,0.83-20.26-2.99-29.7c6.17,4.36,7.44,11.39,9.82,18.32
		c3.16-3.07,4.17-6.93,4.41-11.29c2.8,6.95,4.76,14.78,6.95,22.15c0.23,4.47-2.21,8.87-3.61,13.08c-2.34,6.5-5.5-1.26-11.87,8.94
		c1.94,0.04,3.17-0.9,4.43-2c1.45,0.96,2.86,0.53,4.26-0.3c-1.21,1.66-2.71,2.66-2.34,4.97c-0.25,3.02-0.93,5.88,2.03,7.83
		c0.11,0.07,0.23,0.14,0.34,0.21c-0.11-0.07-0.23-0.14-0.34-0.21c-0.85-2.14-1.11-3.72,0.7-5.52c1.9-1.67,3-4.53,4.61-6.09
		c0.23,6.18,4.81,0.76,8.96,7.48c-0.26-5.45-3.8-8.49-7.96-11.23c2.91-9.08,8.75-16.71,15.69-22.97
		c6.54,6.73,12.81,13.61,15.22,23.31c-4.99,1.14-6.77,4.57-6.63,9.68c3.23-6.6,6.31-2.5,8.99-7.02c2.45,1.19,0.13,5.06,4.65,5.06
		c0.23,1.89,0.46,3.74,0.71,5.84c3.76-4.88,3.07-8.48-2.06-11.65c3.41,2.36,4.6-2.26,7.32,0.04c0.71,0.53,1.37,1.06,2.36,1.02
		c-1.44-4.53-6.56-5.51-10.52-4.35c-9.81-15.78-3.4-22.21,0.96-38.25c1,4.06,0.87,8.65,4.83,10.94c2.4-6.1,3.37-14.63,9.77-17.59
		c-4.22,8.96-13.24,21.09-3.11,29.17c4.38-7.91,4.64-19.08,12.59-24.48c0.07-0.11,0.13-0.23,0.19-0.34
		c-3.73,7.8-6.71,15.97-10.23,23.87c-2.25,5.13,1.74,9.5,5.42,12.8c4.35-11.2,8.21-23.42,15.34-33.1
		c-2.88,7.67-5.66,15.34-9.07,22.79c-4.02,8.47-6.91,18.34,4.14,22.6c7.16-17.34,19.06-32.71,17.75-52.51
		c7.96-2.31,3.27-24.39,1.36-30.4c1.45,0.51,2.65,0.93,4.05,1.43C326.68,225.36,309.37,183.61,288.94,190.02z M189.19,257.22
		c-0.26,0.87-1.85,1.27-1.9,0.1c2.87-7.73,1.76-15.72,0.51-23.66C191.33,240.85,192.86,249.79,189.19,257.22z M199.43,261.39
		c-1.66-2.4,1.69-6.44,1.42-9.51c1.15-6.99-0.84-13.94-1.37-20.91c0.13-0.05,0.26-0.09,0.4-0.14
		C202.3,238.93,207.53,256.22,199.43,261.39z M212.05,265.43c-1.77-1.17-0.18-3.28,0.02-4.87c3.6-10.28-0.65-20.73-1.89-30.95
		c0.13-0.02,0.26-0.04,0.39-0.06C213.76,239.64,220.64,257.34,212.05,265.43z M242.42,228.44c4.01,5.05,9.54,4.75,14.43,1.14
		C254.09,237.32,244.73,235.98,242.42,228.44z M242.53,237.24c-2.62,7.7-11.98,7.14-14.34-0.24
		C233.45,242.49,237.64,240.94,242.53,237.24z M270.03,238.52c-2.74,8.14-12.14,5.67-14.41-1.35
		C260.1,241.83,264.86,242.69,270.03,238.52z M257.37,245.81c-2.86,8-12.44,7.03-14.57-0.89
		C246.73,250.3,252.6,250.14,257.37,245.81z M270.88,254.58c-2.45,7.82-12.81,7-14.48-0.57
		C260.25,259.15,266.36,258.5,270.88,254.58z M270.14,222.61c-2.82,8.61-12.61,6.5-14.11-0.53
		C260.17,227.51,265.02,226.65,270.14,222.61z M242.93,172.74c-0.03-4.5,14.16-1.06,12.29,3.16c-0.65-2.98-2.62-2.54-4.65-3.16
		c-0.97-0.22-1.77-0.14-2.23,0.95C247.37,176.09,242.77,175.48,242.93,172.74z M256.25,214.23c-2.78,8.38-11.66,6.26-13.97-1.06
		C246.21,218.17,251.67,218.24,256.25,214.23z M242.06,222.14c-2.45,7.85-12.58,6.72-14.05-0.85
		C232.02,226.72,237.16,225.75,242.06,222.14z M228.16,253.45c0.13-0.15,0.25-0.3,0.39-0.45c3.31,5.63,9.76,4.88,14.33,0.77
		C240.09,261.84,231.16,260.75,228.16,253.45z M229.2,267.25c3.37,4.99,9.79,4.54,14.34,1.34
		C240.53,275.93,231.17,274.63,229.2,267.25z M243.84,259.59c3.62,4.51,10.07,4.59,14.08,0.34
		C256.07,268.15,245.88,266.68,243.84,259.59z M256.81,267.85c4.97,5.3,8.87,5.37,14.73,1.21
		C268.68,276.75,259.46,275.66,256.81,267.85z M285.07,259.4c-0.48,0.31-1.05,0.69-1.84,1.21c-6.04-10.01-2.33-22.05,2.89-31.58
		C283.3,239.22,281,249.12,285.07,259.4z M295.75,256.53c-5.11-8.1-2.72-18.53,1.28-26.44c-1.23,8.51-3.01,17.4,0.97,25.5
		C297.66,256.69,296.85,256.66,295.75,256.53z M310.06,253.21c-0.49,0.29-0.9,0.53-1.31,0.77c-5.6-5.78-2.95-15.26,0.38-21.57
		C307.82,239.36,306.92,246.65,310.06,253.21z"/>
	<path class="st0" d="M277.72,319.36c-0.81,0.12-1.36,0.18-2.27,0.32c1.76,2.12,2.59,3.05,1.62,5.72c0.14,2.39-2.33,5.84-4.75,6.2
		c-1.67-1.07-0.74-4.18-1.35-6.1c-2.82,0.4-2.46-1.86-3.78-3.51c-1.29,1.56-2.32,2.23-4.15,1.35c-1.16,1.9-2.28,4.01-4.43,5.07
		c-4.53-3.34-1.34-10.01,2.27-12.33c4.81-3.82-7.49-17.42-10.55-21.01c-6,6.01-10.71,11.31-13.3,19.52
		c3.67,0.65,12.2,14.73,4.52,13.84c-0.89-0.34-1.93-0.61-2.41-1.43c-1.56-2.32-3.88-2.03-6.18-3.24c-4.07,3.71-3.85,4.68-3.15,9.66
		c-8.26-2.11-5.73-6.12-5.83-11.98c-2.16,0.47-3.92,0.33-6.3,0.84c-4.39,7.22-3.34,13.45,6.15,12.75
		c19.39-0.38,38.94,0.88,58.25-0.52C289.24,331.38,283.12,321.23,277.72,319.36z"/>
	<path class="st0" d="M271.59,312.71c4.47-0.46,5.58,0.44,8.79,3.38c0.08-0.09,0.16-0.18,0.24-0.27
		c-3.39-10.22-6.79-20.44-10.18-30.65C265.07,296.63,264.51,301.64,271.59,312.71z"/>
	<path class="st0" d="M227.61,313.27c1.74,0.2,2.5-1.41,2.9-2.82c3.71-9.58,3.07-14.98-0.92-24.48
		c-3.76,11.2-7.32,21.81-10.88,32.42c0.1,0.09,0.19,0.19,0.29,0.28C221.18,315.79,223.53,312.63,227.61,313.27z"/>
	<path class="st0" d="M362.18,249.99c0-61.85-50.33-112.16-112.18-112.16s-112.18,50.32-112.18,112.16c0,6.22,0.49,12.22,1.49,18.24
		l-17.39,5.78l2.16,6.49l23.05-7.67l-0.57-2.94c-1.28-6.59-1.9-13.09-1.9-19.89c0-58.08,47.26-105.33,105.34-105.33
		s105.34,47.25,105.34,105.33c0,6.76-0.6,13.19-1.84,19.67l-0.56,2.93l23.18,7.78l2.18-6.48L360.74,268
		C361.71,262.08,362.18,256.17,362.18,249.99z"/>
</g>
</svg>
