<?xml version="1.0" encoding="utf-8"?>
<!-- Generator: Adobe Illustrator 26.5.0, SVG Export Plug-In . SVG Version: 6.00 Build 0)  -->
<svg version="1.1" id="Layer_1" xmlns="http://www.w3.org/2000/svg" xmlns:xlink="http://www.w3.org/1999/xlink" x="0px" y="0px"
	 viewBox="0 0 500 500" style="enable-background:new 0 0 500 500;" xml:space="preserve">
<style type="text/css">
	.st0{fill:#131313;}
</style>
<g>
	<path class="st0" d="M250,100c-82.84,0-150,67.16-150,150c0,82.84,67.16,150,150,150s150-67.16,150-150
		C400,167.16,332.84,100,250,100z M250,388.75c-76.51,0-138.75-62.24-138.75-138.75S173.49,111.25,250,111.25
		S388.75,173.49,388.75,250S326.51,388.75,250,388.75z"/>
	<path class="st0" d="M330.14,250.16c0-44.26-35.88-80.14-80.14-80.14c-44.26,0-80.14,35.88-80.14,80.14
		c0,44.26,35.88,80.14,80.14,80.14C294.26,330.3,330.14,294.42,330.14,250.16z M250,326.55c-42.12,0-76.39-34.27-76.39-76.39
		s34.27-76.39,76.39-76.39s76.39,34.27,76.39,76.39S292.12,326.55,250,326.55z"/>
	<polygon class="st0" points="197.54,325.85 193.09,322.56 196.45,318.03 194.26,316.4 186.18,327.32 188.37,328.94 191.85,324.25 
		196.29,327.54 192.82,332.23 195.01,333.85 203.08,322.93 200.89,321.31 	"/>
	<path class="st0" d="M191.36,313.69l-2.71,1.44l-3.13-3.1l1.41-2.73l-2.02-2l-6.32,12.85l1.98,1.96l12.81-6.42L191.36,313.69z
		 M182.23,318.5l-0.04-0.04l2.3-4.45l2.18,2.16L182.23,318.5z"/>
	<path class="st0" d="M182.88,308.14l0.22,0.3l1.67-1.26l-0.24-0.32c-0.99-1.32-2.19-1.94-3.59-1.88c-1.4,0.06-3.14,0.88-5.24,2.46
		l-3.26,2.46l-2.32-3.08l9.17-6.91l-1.64-2.18l-10.84,8.17l5.6,7.43l4.94-3.72c1.61-1.21,2.81-1.94,3.59-2.16
		C181.72,307.23,182.37,307.46,182.88,308.14z"/>
	<path class="st0" d="M171.84,298.98c1.47-0.8,2.43-1.91,2.88-3.35s0.28-2.89-0.52-4.37c-0.8-1.48-1.93-2.42-3.39-2.83
		c-1.45-0.41-2.92-0.21-4.39,0.59l-2.15,1.17c-1.46,0.79-2.41,1.91-2.87,3.36c-0.45,1.45-0.28,2.91,0.52,4.4
		c0.8,1.47,1.92,2.4,3.38,2.8c1.45,0.39,2.91,0.19,4.37-0.6L171.84,298.98z M165.73,298.34c-0.84-0.13-1.48-0.59-1.92-1.4
		c-0.44-0.82-0.5-1.62-0.15-2.41c0.34-0.79,0.98-1.43,1.91-1.94l2.17-1.18c0.94-0.51,1.84-0.7,2.68-0.57
		c0.84,0.14,1.49,0.61,1.93,1.43c0.44,0.81,0.49,1.61,0.14,2.38c-0.35,0.78-0.99,1.42-1.94,1.94l-2.16,1.18
		C167.46,298.28,166.57,298.47,165.73,298.34z"/>
	<polygon class="st0" points="169.71,282.18 158.99,286.27 156.81,280.54 154.85,281.29 158,289.56 170.69,284.72 	"/>
	<path class="st0" d="M159.58,277.98l2.37-0.57c1.62-0.39,2.83-1.22,3.65-2.5c0.81-1.27,1.02-2.72,0.63-4.35
		c-0.4-1.64-1.25-2.84-2.55-3.6c-1.3-0.76-2.76-0.95-4.39-0.56l-2.37,0.58c-1.61,0.39-2.83,1.23-3.64,2.51
		c-0.81,1.28-1.02,2.74-0.62,4.38c0.4,1.63,1.25,2.82,2.55,3.57C156.5,278.19,157.96,278.37,159.58,277.98z M155.19,270.99
		c0.53-0.67,1.31-1.13,2.34-1.38l2.39-0.58c1.04-0.25,1.96-0.21,2.74,0.14c0.78,0.35,1.28,0.97,1.5,1.88
		c0.22,0.9,0.06,1.68-0.48,2.34c-0.54,0.66-1.33,1.12-2.37,1.37l-2.39,0.58c-1.03,0.25-1.93,0.2-2.71-0.13
		c-0.78-0.34-1.28-0.96-1.49-1.85C154.5,272.46,154.65,271.67,155.19,270.99z"/>
	<path class="st0" d="M163.97,258.17c-0.15-1.57-0.6-2.74-1.35-3.53c-0.75-0.79-1.77-1.12-3.06-1c-0.77,0.07-1.42,0.35-1.95,0.83
		c-0.53,0.48-0.84,1.15-0.91,2.01c-0.31-0.59-0.72-1.03-1.24-1.3c-0.52-0.27-1.09-0.38-1.71-0.32c-1.22,0.12-2.1,0.65-2.64,1.6
		c-0.53,0.95-0.73,2.22-0.57,3.81l0.43,4.43l13.52-1.31L163.97,258.17z M152.78,261.79l-0.17-1.72c-0.07-0.78,0.02-1.38,0.27-1.8
		c0.26-0.42,0.7-0.66,1.33-0.72c0.57-0.06,1.02,0.1,1.35,0.46c0.34,0.36,0.54,0.9,0.61,1.63l0.18,1.81L152.78,261.79z
		 M158.23,261.27l-0.24-2.49c-0.07-0.75,0.05-1.33,0.36-1.73c0.32-0.41,0.8-0.64,1.46-0.71c0.61-0.06,1.09,0.09,1.44,0.43
		c0.35,0.35,0.56,0.88,0.63,1.6l0.25,2.51L158.23,261.27z"/>
	<path class="st0" d="M163.55,249.88l-2.89-1.02l0.17-4.4l2.96-0.81l0.09-2.47l0.44-2.59l-4.74-3.35l0.38-2.27l5.16,0.87l0.45-2.68
		l-13.39-2.26l-0.79,4.64c-0.26,1.53-0.11,2.8,0.43,3.79c0.55,0.99,1.45,1.59,2.72,1.81c0.78,0.13,1.48,0.07,2.12-0.19
		c0.63-0.26,1.19-0.71,1.67-1.34l4.83,3.44l-13.01,3.83l-0.11,2.79l13.39,5.09L163.55,249.88z M157.67,234.59
		c-0.12,0.72-0.42,1.25-0.88,1.56c-0.47,0.32-1.02,0.42-1.66,0.32c-0.64-0.11-1.11-0.38-1.4-0.82c-0.29-0.44-0.37-1.03-0.25-1.76
		l0.33-1.96l4.2,0.71L157.67,234.59z M158.55,248.1l-4.72-1.69l0-0.05l4.84-1.32L158.55,248.1z"/>
	<path class="st0" d="M159.48,222.36l2.53,0.93c1.56,0.57,3,0.57,4.33-0.01c1.33-0.58,2.27-1.63,2.84-3.16
		c0.55-1.5,0.6-2.82,0.14-3.95s-1.37-1.94-2.74-2.42h-0.06l-0.91,2.48c0.83,0.3,1.37,0.72,1.64,1.24c0.26,0.52,0.25,1.17-0.03,1.93
		c-0.29,0.81-0.84,1.32-1.62,1.55c-0.79,0.22-1.67,0.16-2.65-0.2l-2.55-0.94c-0.97-0.36-1.69-0.87-2.15-1.52
		c-0.46-0.65-0.55-1.36-0.26-2.13c0.3-0.82,0.73-1.36,1.27-1.6c0.55-0.25,1.23-0.22,2.04,0.08l0.91-2.49l-0.05-0.04
		c-1.37-0.53-2.59-0.5-3.67,0.1s-1.91,1.67-2.48,3.22c-0.55,1.49-0.49,2.87,0.16,4.15C156.83,220.86,157.93,221.79,159.48,222.36z"
		/>
	<path class="st0" d="M169.1,211.3c0.53,0.62,0.59,1.3,0.18,2.05l-0.18,0.33l1.84,0.99l0.19-0.35c0.79-1.45,0.86-2.8,0.22-4.04
		c-0.64-1.25-2.11-2.49-4.42-3.74l-3.59-1.94l1.84-3.4l10.09,5.46l1.29-2.4l-11.94-6.46l-4.43,8.18l5.44,2.94
		C167.43,209.89,168.58,210.68,169.1,211.3z"/>
	<path class="st0" d="M177.26,197.81c0.26,0.38,0.39,0.75,0.41,1.1c0.01,0.35-0.13,0.73-0.43,1.14c-0.13,0.18-0.28,0.34-0.44,0.49
		c-0.16,0.15-0.36,0.31-0.59,0.49l1.37,1.42c0.33-0.23,0.6-0.44,0.83-0.64c0.22-0.2,0.45-0.44,0.67-0.74c0.59-0.8,0.86-1.56,0.8-2.3
		c-0.06-0.73-0.32-1.52-0.79-2.36l-5.88-10.54l-1.72,2.31l3.81,6.38l-0.04,0.04l-0.8-0.29l-6.5-1.37l-1.75,2.36l10.76,2.04
		L177.26,197.81z"/>
	<polygon class="st0" points="183.82,193.94 186.27,191.59 184.54,185.38 185.19,184.75 189.12,188.84 191.08,186.95 187.14,182.87 
		187.76,182.27 193.86,184.27 196.3,181.92 188.17,179.58 186.71,172.3 184.3,174.63 185.98,180.72 185.51,181.17 181.66,177.18 
		179.7,179.06 183.55,183.05 183.05,183.53 176.99,181.67 174.56,184.01 181.83,185.7 	"/>
	<path class="st0" d="M201.3,178.78c1.28-0.88,2.07-1.92,2.36-3.12s0.07-2.34-0.67-3.41c-0.73-1.06-1.71-1.67-2.93-1.82
		c-1.22-0.15-2.47,0.22-3.76,1.1l-1.92,1.32l-1.52-2.2l5.05-3.48l-1.19-1.73l-7.29,5.02l7.7,11.18L201.3,178.78z M197.5,173.26
		c0.63-0.43,1.24-0.59,1.83-0.46c0.59,0.12,1.06,0.45,1.42,0.97c0.37,0.54,0.52,1.12,0.43,1.73c-0.08,0.61-0.44,1.13-1.07,1.56
		l-1.92,1.32l-2.62-3.8L197.5,173.26z"/>
	<path class="st0" d="M208.28,174.42l-0.51-3.03l3.93-1.99l2.15,2.19l2.54-1.28l-10.2-10.05l-2.49,1.26l2.05,14.18L208.28,174.42z
		 M206.65,164.21l3.5,3.59l-2.74,1.39l-0.81-4.95L206.65,164.21z"/>
	<polygon class="st0" points="224.19,167.65 222.64,162.2 223.6,161.93 228.76,166.35 232.09,165.4 225.23,159.8 228.01,152.44 
		224.78,153.37 222.72,159.72 221.99,159.93 220.46,154.6 217.85,155.35 221.57,168.4 	"/>
	<path class="st0" d="M237.76,164.6c1.54-0.18,2.72-0.74,3.55-1.66c0.82-0.93,1.15-2.03,1-3.33c-0.15-1.28-0.73-2.28-1.74-2.98
		c-1.01-0.7-2.29-0.96-3.84-0.78l-2.32,0.27l-0.56-4.74l-2.7,0.32l1.59,13.48L237.76,164.6z M236.97,157.94
		c0.76-0.09,1.37,0.06,1.83,0.44c0.46,0.39,0.73,0.9,0.8,1.52c0.08,0.66-0.06,1.23-0.42,1.73c-0.36,0.5-0.92,0.79-1.67,0.88
		l-2.32,0.27l-0.54-4.58L236.97,157.94z"/>
	
		<rect x="243.23" y="150.16" transform="matrix(0.9931 -0.1174 0.1174 0.9931 -16.7351 29.8015)" class="st0" width="2.72" height="13.58"/>
	<path class="st0" d="M251.71,158.83l2.47,0.1c1.56,0.06,2.8-0.28,3.73-1.03c0.93-0.75,1.42-1.78,1.47-3.08
		c0.05-1.3-0.35-2.36-1.21-3.19c-0.86-0.83-2.07-1.28-3.63-1.34l-5.19-0.21l-0.56,13.57l2.72,0.11L251.71,158.83z M251.98,152.28
		l2.47,0.1c0.76,0.03,1.33,0.27,1.7,0.71c0.37,0.44,0.54,0.99,0.52,1.64c-0.03,0.64-0.24,1.16-0.65,1.56
		c-0.41,0.4-0.99,0.58-1.75,0.55l-2.47-0.1L251.98,152.28z"/>
	<polygon class="st0" points="265.08,153.43 271.12,154.45 271.47,152.38 262.75,150.9 260.49,164.29 263.17,164.75 	"/>
	
		<rect x="277.96" y="162.11" transform="matrix(0.3146 -0.9492 0.9492 0.3146 39.9989 382.3373)" class="st0" width="13.58" height="2.72"/>
	<path class="st0" d="M275.32,167.5c1.48,0.49,2.78,0.49,3.91,0c1.13-0.49,1.91-1.35,2.32-2.59c0.41-1.23,0.3-2.37-0.32-3.44
		c-0.62-1.06-1.67-1.84-3.15-2.33l-2.21-0.73l1.5-4.53l-2.58-0.86l-4.27,12.89L275.32,167.5z M275.21,160.4l2.21,0.73
		c0.73,0.24,1.22,0.64,1.47,1.18c0.25,0.55,0.28,1.12,0.08,1.72c-0.21,0.63-0.58,1.09-1.11,1.39c-0.53,0.3-1.17,0.33-1.89,0.09
		l-2.21-0.73L275.21,160.4z"/>
	<path class="st0" d="M287.13,167.79l-0.04,0.05c-0.63,1.11-0.63,2.2-0.02,3.27c0.61,1.07,1.55,1.94,2.81,2.6
		c1.47,0.77,2.83,1.09,4.07,0.94c1.24-0.15,2.15-0.77,2.74-1.88c0.36-0.69,0.48-1.37,0.35-2.04c-0.13-0.67-0.49-1.32-1.07-1.92
		c0.76,0.07,1.44-0.03,2.04-0.3c0.6-0.27,1.04-0.68,1.33-1.23c0.58-1.1,0.6-2.17,0.06-3.21c-0.54-1.04-1.54-1.95-3-2.72
		c-1.26-0.66-2.49-0.91-3.67-0.75c-1.19,0.17-2.03,0.75-2.52,1.77l-0.02,0.05l2.34,1.23c0.24-0.45,0.63-0.72,1.18-0.8
		c0.55-0.08,1.12,0.04,1.72,0.35c0.76,0.4,1.27,0.86,1.51,1.38s0.24,1.01,0,1.47c-0.28,0.53-0.68,0.85-1.2,0.96
		c-0.52,0.11-1.16-0.04-1.91-0.44l-1.63-0.86l-0.95,1.81l1.63,0.86c0.79,0.42,1.31,0.88,1.56,1.38c0.25,0.51,0.21,1.08-0.13,1.71
		c-0.26,0.5-0.71,0.79-1.33,0.88c-0.62,0.08-1.33-0.08-2.11-0.49c-0.66-0.35-1.12-0.79-1.37-1.33c-0.25-0.54-0.26-1.04-0.01-1.51
		L287.13,167.79z"/>
	<path class="st0" d="M298.07,176.6c0.2,1.44,0.97,2.63,2.29,3.57c1.3,0.93,2.56,1.33,3.77,1.19c1.22-0.14,2.23-0.8,3.06-1.99
		l0.02-0.06l-2.14-1.54c-0.51,0.72-1.06,1.13-1.63,1.25c-0.57,0.11-1.19-0.07-1.85-0.54c-0.7-0.5-1.05-1.16-1.06-1.97
		s0.29-1.65,0.9-2.5l1.58-2.21c0.6-0.84,1.28-1.4,2.04-1.67c0.75-0.27,1.46-0.17,2.12,0.31c0.71,0.51,1.12,1.06,1.21,1.65
		c0.09,0.59-0.11,1.24-0.62,1.95l2.15,1.54l0.05-0.03c0.87-1.18,1.17-2.37,0.88-3.57c-0.29-1.2-1.1-2.28-2.45-3.24
		c-1.29-0.92-2.64-1.24-4.04-0.95c-1.41,0.29-2.59,1.11-3.56,2.45l-1.57,2.19C298.24,173.78,297.86,175.17,298.07,176.6z"/>
	<polygon class="st0" points="307.75,185.85 311.64,181.73 312.37,182.42 311.2,189.11 313.73,191.49 315.03,182.73 322.78,181.37 
		320.33,179.06 313.82,180.54 313.26,180.02 317.07,175.98 315.09,174.11 305.77,183.99 	"/>
	<path class="st0" d="M320.06,186.62l-1.9,1.53c-1.3,1.04-2.04,2.32-2.24,3.81c-0.19,1.5,0.24,2.9,1.29,4.2
		c1.05,1.31,2.34,2.04,3.84,2.18s2.91-0.32,4.21-1.36l1.9-1.53c1.29-1.04,2.03-2.32,2.22-3.82s-0.25-2.92-1.3-4.23
		c-1.05-1.3-2.32-2.02-3.82-2.15C322.76,185.13,321.36,185.58,320.06,186.62z M326.43,188.73c0.58,0.73,0.78,1.51,0.58,2.35
		c-0.2,0.84-0.71,1.59-1.53,2.25l-1.92,1.54c-0.84,0.67-1.68,1.02-2.54,1.04c-0.86,0.02-1.58-0.34-2.16-1.06
		c-0.58-0.72-0.77-1.5-0.56-2.32c0.2-0.83,0.73-1.58,1.57-2.25l1.92-1.54c0.82-0.66,1.66-1.01,2.51-1.03
		C325.14,187.67,325.85,188.01,326.43,188.73z"/>
	<polygon class="st0" points="323.22,204.17 333.83,204.32 333.85,204.37 326.02,208.95 327.39,211.3 339.11,204.45 337.73,202.09 
		327.13,201.94 327.11,201.89 334.94,197.31 333.57,194.97 321.85,201.83 	"/>
	<path class="st0" d="M339.35,200.68c0.72,0.25,1.42,0.16,2.09-0.27l0.04-0.04l-1.01-1.72c-0.28,0.17-0.57,0.22-0.84,0.17
		c-0.28-0.06-0.52-0.25-0.72-0.59c-0.2-0.35-0.26-0.66-0.18-0.93c0.09-0.27,0.27-0.49,0.56-0.65l-1.01-1.72l-0.06,0.01
		c-0.7,0.37-1.12,0.93-1.26,1.68s0.04,1.56,0.54,2.42C338.01,199.88,338.63,200.43,339.35,200.68z"/>
	<path class="st0" d="M330.98,219.89l4.65-1.61l0.81,2.34c0.51,1.48,1.29,2.51,2.33,3.09c1.04,0.59,2.17,0.67,3.4,0.25
		c1.23-0.43,2.07-1.19,2.53-2.3c0.46-1.11,0.43-2.4-0.08-3.87l-1.7-4.91l-12.83,4.44L330.98,219.89z M341.83,216.13l0.81,2.34
		c0.25,0.72,0.24,1.34-0.04,1.84c-0.27,0.51-0.72,0.87-1.34,1.08c-0.6,0.21-1.17,0.2-1.68-0.04c-0.52-0.24-0.9-0.71-1.15-1.43
		l-0.81-2.33L341.83,216.13z"/>
	<polygon class="st0" points="335.54,237.04 337.59,236.61 336.37,230.75 340.17,229.96 341.19,234.89 343.25,234.46 342.22,229.53 
		345.56,228.84 346.78,234.68 348.83,234.25 347.06,225.74 333.77,228.51 	"/>
	<path class="st0" d="M348.02,238.76c-1.13-0.89-2.51-1.27-4.16-1.15l-2.69,0.21c-1.65,0.13-2.96,0.73-3.93,1.81
		c-0.97,1.08-1.39,2.43-1.26,4.05c0.12,1.59,0.63,2.81,1.52,3.65c0.89,0.84,2.05,1.19,3.5,1.06l0.05-0.02l-0.2-2.63
		c-0.88,0.07-1.55-0.08-2.01-0.45c-0.45-0.37-0.71-0.96-0.78-1.77c-0.06-0.86,0.21-1.55,0.83-2.08c0.62-0.53,1.45-0.84,2.49-0.92
		l2.71-0.21c1.03-0.08,1.9,0.08,2.59,0.49c0.69,0.41,1.06,1.01,1.13,1.83c0.07,0.87-0.09,1.53-0.49,1.99
		c-0.39,0.45-1.02,0.71-1.89,0.78l0.2,2.64l0.06,0.01c1.46-0.09,2.57-0.63,3.3-1.62c0.73-0.99,1.04-2.31,0.91-3.96
		C349.77,240.88,349.14,239.65,348.02,238.76z"/>
	<polygon class="st0" points="336.4,252.94 347.86,253.67 347.51,259.2 336.05,258.47 335.88,261.19 349.43,262.05 350.13,251.09 
		336.58,250.23 	"/>
	<path class="st0" d="M337.98,267.35c-0.4-0.24-0.67-0.52-0.83-0.83c-0.16-0.31-0.19-0.72-0.08-1.22c0.04-0.21,0.11-0.42,0.19-0.62
		c0.08-0.2,0.19-0.43,0.33-0.69l-1.84-0.71c-0.2,0.35-0.36,0.65-0.48,0.93c-0.12,0.27-0.22,0.59-0.3,0.96
		c-0.2,0.97-0.12,1.78,0.24,2.42c0.36,0.64,0.93,1.24,1.71,1.81l9.75,7.1l0.59-2.82l-6.13-4.2l0.02-0.05l0.85-0.07l6.48-1.48
		l0.6-2.87l-10.63,2.66L337.98,267.35z"/>
	<path class="st0" d="M331.31,279.47c-0.52,1.46-0.55,2.77-0.09,3.91c0.46,1.14,1.31,1.94,2.54,2.37c1.22,0.43,2.37,0.35,3.44-0.24
		c1.08-0.59,1.88-1.63,2.4-3.1l0.78-2.2l2.52,0.9l-2.06,5.77l1.98,0.71l2.97-8.34L333,274.71L331.31,279.47z M333.27,280.17
		l0.79-2.19l4.35,1.55l-0.78,2.19c-0.26,0.72-0.66,1.2-1.21,1.44c-0.55,0.24-1.13,0.26-1.72,0.04c-0.62-0.22-1.07-0.6-1.36-1.14
		C333.03,281.52,333.02,280.89,333.27,280.17z"/>
	<path class="st0" d="M331.31,288.17c-0.53-0.61-0.6-1.29-0.2-2.05l0.17-0.33l-1.85-0.98l-0.19,0.36c-0.77,1.45-0.83,2.8-0.18,4.04
		c0.65,1.24,2.13,2.47,4.45,3.69l3.61,1.91l-1.8,3.41l-10.15-5.36l-1.27,2.41l12.01,6.34l4.34-8.23l-5.47-2.88
		C333,289.56,331.84,288.78,331.31,288.17z"/>
	<polygon class="st0" points="321.29,299.08 325.35,308.88 325.31,308.92 318.01,303.54 316.39,305.73 327.33,313.78 328.94,311.59 
		324.88,301.8 324.92,301.75 332.22,307.13 333.83,304.94 322.9,296.89 	"/>
	<polygon class="st0" points="313.13,309.2 317.17,313.17 316.47,313.88 309.8,312.58 307.37,315.06 316.1,316.54 317.31,324.31 
		319.67,321.91 318.32,315.37 318.85,314.82 322.81,318.71 324.72,316.77 315.03,307.26 	"/>
	<polygon class="st0" points="304.65,317.15 305.81,327.7 305.76,327.72 300.25,320.51 298.09,322.17 306.33,332.95 308.49,331.3 
		307.34,320.76 307.39,320.74 312.89,327.94 315.05,326.29 306.8,315.5 	"/>
	<polygon class="st0" points="176.17,348.8 175.13,347.98 175.87,338.92 172.22,336.05 171.54,347.88 161.38,350.63 164.92,353.41 
		173.42,350.65 174.23,351.28 169.64,357.12 172.5,359.37 183.73,345.09 180.86,342.84 	"/>
	<path class="st0" d="M166.84,330.48c-1.41-1.53-2.94-2.37-4.58-2.54c-1.64-0.17-3.11,0.35-4.39,1.53
		c-1.27,1.17-1.89,2.58-1.86,4.22c0.03,1.64,0.76,3.23,2.17,4.77l2.12,2.29l-4.69,4.33l2.47,2.68l13.35-12.31L166.84,330.48z
		 M160.25,336.56c-0.7-0.75-1.01-1.53-0.96-2.33c0.06-0.8,0.4-1.49,1.02-2.07c0.65-0.6,1.38-0.9,2.2-0.9
		c0.82-0.01,1.58,0.37,2.27,1.12l2.11,2.29l-4.54,4.19L160.25,336.56z"/>
	
		<rect x="144.12" y="327.27" transform="matrix(0.735 -0.6781 0.6781 0.735 -182.5472 191.0926)" class="st0" width="18.16" height="3.64"/>
	<path class="st0" d="M155.14,316.27l-5.49,3.64l-1.83-2.75c-1.15-1.74-2.5-2.82-4.04-3.23c-1.54-0.42-3.04-0.14-4.49,0.82
		c-1.45,0.96-2.29,2.23-2.51,3.82c-0.22,1.59,0.24,3.25,1.39,4.99l3.84,5.79l15.14-10.03L155.14,316.27z M142.34,324.76l-1.83-2.76
		c-0.57-0.85-0.75-1.65-0.57-2.4c0.19-0.75,0.65-1.36,1.37-1.84c0.71-0.47,1.44-0.65,2.2-0.51c0.75,0.13,1.41,0.62,1.97,1.47
		l1.82,2.75L142.34,324.76z"/>
	<polygon class="st0" points="147.07,302.83 133.3,309.63 129.68,302.28 127.16,303.52 132.39,314.14 148.68,306.1 	"/>
	<path class="st0" d="M140.55,287.51c-0.63-1.98-1.65-3.4-3.06-4.25c-1.42-0.85-2.96-1.01-4.63-0.48c-1.65,0.52-2.81,1.53-3.48,3.03
		c-0.67,1.5-0.69,3.25-0.06,5.24l0.94,2.97l-6.09,1.92l1.1,3.48l17.32-5.46L140.55,287.51z M132.94,293.18l-0.94-2.97
		c-0.31-0.97-0.27-1.81,0.13-2.52c0.39-0.7,0.99-1.18,1.8-1.44c0.84-0.27,1.63-0.22,2.38,0.12c0.74,0.35,1.27,1.01,1.58,1.98
		l0.94,2.97L132.94,293.18z"/>
	
		<rect x="119.72" y="278.61" transform="matrix(0.9537 -0.3007 0.3007 0.9537 -78.3749 51.717)" class="st0" width="18.16" height="3.64"/>
	<path class="st0" d="M123.35,275.48l0.07-0.02l-0.5-3.5c-0.67,0.1-1.27-0.12-1.79-0.65c-0.52-0.53-0.84-1.24-0.97-2.14
		c-0.16-1.14-0.06-2.05,0.31-2.72c0.37-0.67,0.9-1.05,1.59-1.15c0.8-0.11,1.46,0.07,1.98,0.55c0.52,0.48,0.86,1.28,1.03,2.41
		l0.35,2.43l2.71-0.39l-0.35-2.43c-0.17-1.19-0.08-2.11,0.28-2.78c0.35-0.67,1.01-1.07,1.95-1.2c0.75-0.11,1.41,0.14,1.99,0.75
		c0.58,0.61,0.95,1.5,1.12,2.67c0.14,0.99,0.02,1.83-0.37,2.53c-0.38,0.7-0.93,1.1-1.63,1.2l0.5,3.51l0.07,0
		c1.69-0.19,2.88-1.04,3.57-2.54c0.68-1.5,0.89-3.2,0.62-5.09c-0.32-2.2-1.04-3.91-2.17-5.14s-2.53-1.73-4.18-1.49
		c-1.03,0.15-1.86,0.56-2.49,1.22c-0.63,0.67-1.04,1.56-1.24,2.67c-0.52-0.88-1.16-1.54-1.92-1.98c-0.76-0.44-1.55-0.6-2.37-0.48
		c-1.65,0.24-2.82,1.05-3.53,2.46c-0.71,1.4-0.9,3.2-0.59,5.39c0.27,1.89,0.96,3.41,2.07,4.57
		C120.57,275.29,121.87,275.74,123.35,275.48z"/>
	<path class="st0" d="M134.42,247.45l-6.58-0.31l0.16-3.3c0.1-2.09-0.35-3.75-1.35-4.99c-1-1.25-2.37-1.91-4.1-1.99
		s-3.16,0.45-4.28,1.6c-1.12,1.14-1.73,2.76-1.83,4.85l-0.33,6.94l18.14,0.86L134.42,247.45z M125.03,247.01l-5.96-0.28l0.16-3.3
		c0.05-1.02,0.37-1.78,0.96-2.27c0.59-0.49,1.33-0.72,2.2-0.68c0.86,0.04,1.55,0.33,2.07,0.88s0.77,1.33,0.72,2.34L125.03,247.01z"
		/>
	<polygon class="st0" points="137.23,223.93 134.48,223.45 133.1,231.34 127.99,230.44 129.15,223.81 126.39,223.32 125.22,229.96 
		120.73,229.17 122.11,221.3 119.34,220.82 117.33,232.27 135.22,235.41 	"/>
	<path class="st0" d="M127.18,219.14l3.44,1.07c2.12,0.66,4.05,0.56,5.78-0.3c1.74-0.86,2.93-2.33,3.57-4.41
		c0.64-2.04,0.61-3.8-0.08-5.29c-0.69-1.49-1.96-2.5-3.82-3.04H136l-1.05,3.37c1.13,0.35,1.89,0.87,2.27,1.55
		c0.38,0.68,0.42,1.54,0.09,2.58c-0.34,1.1-1.03,1.82-2.06,2.17c-1.03,0.35-2.22,0.32-3.55-0.09l-3.47-1.08
		c-1.33-0.41-2.32-1.04-2.97-1.88c-0.66-0.84-0.82-1.79-0.5-2.83c0.35-1.12,0.88-1.86,1.59-2.23s1.62-0.38,2.73-0.03l1.05-3.38
		l-0.06-0.05c-1.87-0.61-3.5-0.49-4.9,0.38c-1.4,0.87-2.43,2.36-3.09,4.47c-0.63,2.03-0.47,3.87,0.49,5.53
		C123.53,217.32,125.07,218.48,127.18,219.14z"/>
	<polygon class="st0" points="144.07,203.71 130.21,197.08 133.41,190.4 147.26,197.02 148.83,193.74 132.45,185.9 126.11,199.16 
		142.49,206.99 	"/>
	<path class="st0" d="M149.33,185.04c0.37,0.5,0.57,0.98,0.61,1.45c0.04,0.47-0.13,0.98-0.51,1.55c-0.16,0.24-0.34,0.47-0.55,0.67
		c-0.21,0.21-0.46,0.44-0.75,0.69l1.93,1.8c0.42-0.33,0.78-0.63,1.07-0.91c0.29-0.28,0.57-0.62,0.85-1.04
		c0.74-1.11,1.05-2.15,0.92-3.12c-0.13-0.97-0.53-2.01-1.21-3.1l-8.55-13.69l-2.14,3.2l5.51,8.28l-0.05,0.06l-1.09-0.34l-8.77-1.4
		l-2.19,3.27l14.52,2.01L149.33,185.04z"/>
	<path class="st0" d="M163.61,173.37c1.38-1.56,2.06-3.16,2.06-4.82c0-1.65-0.66-3.06-1.97-4.21c-1.3-1.14-2.76-1.62-4.39-1.42
		s-3.14,1.08-4.52,2.65l-2.06,2.34l-2.68-2.37l5.43-6.14l-2.1-1.86l-7.84,8.87l13.61,12.02L163.61,173.37z M156.89,167.43
		c0.68-0.77,1.42-1.16,2.22-1.19c0.8-0.03,1.52,0.24,2.16,0.8c0.66,0.58,1.04,1.28,1.12,2.1c0.09,0.82-0.2,1.61-0.88,2.37
		l-2.06,2.34l-4.63-4.09L156.89,167.43z"/>
	<path class="st0" d="M167.96,162.54c0.36,1.03,0.11,1.91-0.76,2.65l-0.38,0.33l1.81,2.13l0.41-0.35c1.68-1.43,2.42-3.07,2.23-4.94
		c-0.19-1.86-1.43-4.13-3.71-6.8l-3.54-4.16l3.93-3.35l9.96,11.69l2.77-2.36l-11.78-13.82l-9.48,8.07l5.36,6.29
		C166.54,159.98,167.59,161.52,167.96,162.54z"/>
	<polygon class="st0" points="185.85,153.93 185.65,139.74 185.72,139.71 192.14,150.01 195.23,148.09 185.63,132.67 182.54,134.59 
		182.73,148.77 182.66,148.8 176.25,138.51 173.17,140.43 182.76,155.85 	"/>
	<path class="st0" d="M200.97,145.42l-3.05-6.94l1.22-0.54l7.64,4.93l3.96-1.74l3.59-1.02l0.1-4.1l5.66-1.61l2.26,3.43l3.66-1.04
		l-10.84-15.8l-3.59,1.02l-0.9,18.79l-9.77-5.96l2.36-10.26l-4.12,1.81l-1.57,8.8l-0.94,0.41l-2.98-6.8l-3.34,1.47l7.3,16.63
		L200.97,145.42z M214.71,126.31l0.07-0.02l3.68,5.6l-3.95,1.12L214.71,126.31z"/>
	<path class="st0" d="M225.62,129.52c0.32,2.2,1.24,3.9,2.76,5.09c1.52,1.2,3.36,1.64,5.52,1.33c2.12-0.3,3.7-1.08,4.74-2.34
		s1.42-2.84,1.11-4.76l-0.04-0.07l-3.49,0.5c0.17,1.17,0.03,2.07-0.42,2.72c-0.45,0.64-1.21,1.04-2.29,1.19
		c-1.13,0.16-2.09-0.15-2.85-0.93c-0.76-0.78-1.24-1.87-1.44-3.25l-0.51-3.59c-0.2-1.37-0.05-2.54,0.43-3.49
		c0.48-0.96,1.26-1.51,2.34-1.66c1.16-0.17,2.06-0.01,2.69,0.48c0.64,0.49,1.04,1.3,1.2,2.46l3.51-0.5l0.01-0.08
		c-0.25-1.95-1.06-3.37-2.45-4.26c-1.39-0.89-3.18-1.18-5.37-0.87c-2.1,0.3-3.69,1.24-4.79,2.82c-1.09,1.58-1.48,3.47-1.17,5.66
		L225.62,129.52z"/>
	<path class="st0" d="M254.28,132.98c1.25-1.08,1.89-2.49,1.92-4.23c0.03-1.73-0.56-3.15-1.78-4.26c-1.21-1.11-2.86-1.68-4.95-1.72
		l-3.12-0.05l0.11-6.38l-3.64-0.06l-0.3,18.16l6.76,0.11C251.36,134.58,253.03,134.06,254.28,132.98z M246.31,125.53l3.12,0.05
		c1.02,0.02,1.81,0.32,2.35,0.92c0.55,0.6,0.81,1.32,0.79,2.17c-0.01,0.88-0.3,1.62-0.87,2.22c-0.56,0.6-1.36,0.89-2.38,0.87
		l-3.12-0.05L246.31,125.53z"/>
	
		<rect x="250.63" y="123.82" transform="matrix(0.0163 -0.9999 0.9999 0.0163 129.8511 383.267)" class="st0" width="18.16" height="3.64"/>
	<polygon class="st0" points="269,128.43 276.28,129.78 274.9,137.2 278.48,137.87 281.8,120.01 278.22,119.35 276.79,127.02 
		269.51,125.67 270.94,118 267.36,117.33 264.04,135.19 267.62,135.85 	"/>
	
		<rect x="291.1" y="133.93" transform="matrix(0.3453 -0.9385 0.9385 0.3453 69.1304 370.6021)" class="st0" width="18.16" height="3.64"/>
	<path class="st0" d="M287.4,140.73c1.95,0.72,3.69,0.78,5.23,0.17c1.54-0.6,2.61-1.73,3.21-3.36c0.6-1.62,0.51-3.16-0.27-4.61
		c-0.78-1.45-2.15-2.53-4.11-3.25l-2.92-1.08l2.2-5.99l-3.42-1.26l-6.27,17.05L287.4,140.73z M287.57,131.23l2.92,1.08
		c0.96,0.35,1.6,0.9,1.91,1.64c0.32,0.74,0.33,1.51,0.04,2.31c-0.3,0.83-0.82,1.43-1.55,1.81c-0.73,0.38-1.57,0.39-2.53,0.04
		l-2.93-1.08L287.57,131.23z"/>
	<polygon class="st0" points="304.25,148.01 308.01,141.46 314.42,145.14 310.66,151.69 313.82,153.5 322.87,137.75 319.71,135.94 
		315.82,142.71 309.4,139.03 313.29,132.25 310.13,130.44 301.09,146.19 	"/>
	<path class="st0" d="M330.9,165.51c1.64-0.03,3.08-0.79,4.33-2.27l0.03-0.07l-2.66-2.32c-0.78,0.89-1.55,1.37-2.33,1.45
		c-0.78,0.08-1.58-0.24-2.4-0.96c-0.87-0.75-1.25-1.68-1.16-2.76c0.09-1.09,0.6-2.16,1.52-3.21l2.38-2.74
		c0.91-1.05,1.89-1.7,2.92-1.96c1.04-0.26,1.97-0.03,2.79,0.68c0.89,0.77,1.35,1.56,1.4,2.35c0.05,0.8-0.31,1.64-1.07,2.51
		l2.67,2.33l0.07-0.04c1.32-1.46,1.86-3,1.63-4.64c-0.23-1.64-1.18-3.18-2.85-4.63c-1.6-1.39-3.35-1.99-5.26-1.78
		c-1.91,0.21-3.59,1.14-5.05,2.81l-2.37,2.72c-1.46,1.67-2.14,3.48-2.05,5.42c0.09,1.94,0.96,3.62,2.6,5.05
		C327.64,164.85,329.26,165.54,330.9,165.51z"/>
	<path class="st0" d="M334.3,170.98l3.75-1.66l3.88,4.43l-2.13,3.51l2.51,2.86l9.65-16.55l-2.45-2.81l-17.7,7.35L334.3,170.98z
		 M346.94,165.42l0.05,0.06l-3.49,5.73l-2.7-3.09L346.94,165.42z"/>
	<path class="st0" d="M345.1,179.2l-0.27-0.42l-2.35,1.52l0.29,0.45c1.2,1.85,2.73,2.8,4.6,2.85c1.87,0.05,4.28-0.88,7.22-2.79
		l4.59-2.97l2.81,4.34l-12.89,8.35l1.98,3.06l15.24-9.87l-6.76-10.45l-6.94,4.5c-2.27,1.47-3.94,2.32-5,2.54
		C346.56,180.53,345.72,180.16,345.1,179.2z"/>
	
		<rect x="358.46" y="206.01" transform="matrix(0.9183 -0.3959 0.3959 0.9183 -52.2498 162.494)" class="st0" width="18.16" height="3.64"/>
	<path class="st0" d="M355.13,201.99c0.82,1.91,1.98,3.21,3.48,3.91c1.5,0.7,3.05,0.7,4.65,0.01c1.59-0.68,2.64-1.81,3.15-3.37
		c0.51-1.56,0.36-3.3-0.47-5.22l-1.24-2.87l5.87-2.53l-1.44-3.35l-16.68,7.19L355.13,201.99z M362.13,195.57l1.24,2.87
		c0.41,0.94,0.45,1.78,0.13,2.52c-0.32,0.74-0.87,1.28-1.65,1.61c-0.81,0.35-1.6,0.39-2.38,0.12c-0.78-0.27-1.37-0.87-1.77-1.81
		l-1.24-2.87L362.13,195.57z"/>
	<polygon class="st0" points="361.43,219.23 368.79,217.39 369.12,218.68 362.98,225.39 364.11,229.89 371.89,220.96 381.61,225 
		380.51,220.63 372.1,217.61 371.85,216.62 379.05,214.81 378.17,211.28 360.55,215.7 	"/>
	<polygon class="st0" points="365.24,240.75 372.81,240.32 372.89,241.65 365.6,247.09 365.86,251.72 375.18,244.41 383.97,250.21 
		383.71,245.72 376.02,241.16 375.97,240.14 383.38,239.73 383.17,236.09 365.04,237.11 	"/>
	
		<rect x="371.42" y="261.48" transform="matrix(0.1019 -0.9948 0.9948 0.1019 66.067 614.2933)" class="st0" width="3.64" height="18.16"/>
	<path class="st0" d="M365.94,252.68l-0.69,6.73c-0.21,2.07,0.17,3.77,1.13,5.11c0.97,1.34,2.32,2.1,4.05,2.28
		c1.72,0.18,3.19-0.29,4.4-1.41c1.21-1.11,1.92-2.71,2.13-4.79l0.32-3.1l6.35,0.65l0.37-3.62L365.94,252.68z M374.18,260.32
		c-0.11,1.02-0.48,1.77-1.12,2.26c-0.64,0.49-1.38,0.69-2.22,0.6c-0.88-0.09-1.59-0.44-2.14-1.05c-0.55-0.61-0.77-1.43-0.67-2.44
		l0.32-3.1l6.14,0.63L374.18,260.32z"/>
	<path class="st0" d="M376.28,277.29l-0.07-0.01l-0.93,3.41c0.66,0.18,1.12,0.61,1.38,1.3c0.27,0.69,0.28,1.48,0.04,2.35
		c-0.3,1.12-0.76,1.9-1.36,2.37s-1.24,0.61-1.92,0.42c-0.78-0.21-1.31-0.64-1.6-1.29c-0.29-0.65-0.28-1.52,0.01-2.62l0.64-2.37
		l-2.64-0.72l-0.64,2.37c-0.32,1.15-0.77,1.97-1.36,2.44s-1.35,0.59-2.27,0.34c-0.73-0.2-1.24-0.69-1.53-1.48
		c-0.29-0.79-0.28-1.75,0.03-2.89c0.26-0.96,0.71-1.69,1.34-2.18c0.63-0.49,1.29-0.64,1.97-0.45l0.93-3.42l-0.07-0.03
		c-1.63-0.5-3.06-0.19-4.28,0.92c-1.22,1.11-2.08,2.58-2.58,4.43c-0.58,2.14-0.6,4-0.04,5.58c0.55,1.58,1.64,2.59,3.25,3.03
		c1,0.27,1.92,0.22,2.76-0.14c0.84-0.37,1.57-1.02,2.2-1.96c0.13,1.02,0.45,1.88,0.98,2.58s1.19,1.16,1.99,1.38
		c1.6,0.44,3.01,0.15,4.21-0.86c1.2-1.01,2.1-2.58,2.67-4.72c0.5-1.84,0.47-3.51-0.09-5.01
		C378.76,278.56,377.74,277.64,376.28,277.29z"/>
	<polygon class="st0" points="357.57,292.93 368.87,298.1 368.84,298.18 355.67,297.09 354.64,299.33 364.06,308.58 364.01,308.64 
		352.74,303.48 351.22,306.79 367.74,314.35 369.72,310.03 359.49,300.22 359.52,300.15 373.61,301.52 375.6,297.18 359.08,289.62 	
		"/>
	<path class="st0" d="M348.28,311.17l2.57,3.2l-3.28,4.89l-3.94-1.16l-2.12,3.16l18.48,5.07l2.08-3.1l-11.65-15.22L348.28,311.17z
		 M356.9,321.96l-0.04,0.06l-6.43-1.9l2.29-3.41L356.9,321.96z"/>
	<polygon class="st0" points="350.46,334.17 338.82,324.16 336.44,326.92 348.08,336.94 344.69,340.87 346.82,342.7 355.92,332.13 
		353.79,330.3 	"/>
	<path class="st0" d="M327.08,336.33c-1.58,1.35-2.48,2.84-2.71,4.48c-0.23,1.64,0.23,3.12,1.36,4.45c1.12,1.32,2.51,1.99,4.15,2.02
		c1.64,0.03,3.26-0.64,4.84-1.99l2.37-2.03l4.15,4.85l2.77-2.36l-11.8-13.81L327.08,336.33z M332.91,343.15
		c-0.78,0.66-1.57,0.95-2.37,0.87c-0.8-0.09-1.48-0.45-2.03-1.1c-0.57-0.67-0.85-1.42-0.82-2.24c0.03-0.82,0.43-1.56,1.21-2.23
		l2.37-2.03l4.01,4.69L332.91,343.15z"/>
	
		<rect x="323.35" y="340.83" transform="matrix(0.7602 -0.6497 0.6497 0.7602 -149.3577 295.1606)" class="st0" width="3.64" height="18.16"/>
	<path class="st0" d="M250,139.9c-60.9,0-110.27,49.37-110.27,110.27S189.1,360.43,250,360.43s110.27-49.37,110.27-110.27
		S310.9,139.9,250,139.9z M250,356.68c-58.73,0-106.52-47.78-106.52-106.52c0-58.73,47.78-106.52,106.52-106.52
		s106.52,47.78,106.52,106.52C356.52,308.89,308.73,356.68,250,356.68z"/>
	<path class="st0" d="M280.85,202.52c-2.51,2.15-3.45,5.49-4.84,8.39c-1.66,5.18-11.01,6.63-13.79,0.94
		c-3.79-7.76,1.84-18.35-4.35-25.21c1.42-1.96,0.11-2.09-1.51-2.6c-4.96-0.44-10.68-2.99-14.92,0.76
		c-3.21,2.49-10.26-0.22-10.41,5.67c-0.05,0.96-0.47,2.08,0.61,2.95c3.28-3.49,10.68-3.25,12.8,1.35c-3.27-1.34-6.81-4.24-9.85-1.3
		c6.99-1.15,7.12,6.87,6.28,11.68c0.35,8.32-8.68,16.56-14.92,8.03c-10.71-29.25-32.93,4.85-34.24,20.9
		c1.5-0.38,2.46-1.86,3.92-0.89c-5.23,8.16-5.76,20.51-2.24,29c1.71,0.41,1.81,1.66,1.81,3.02c-2.54,16.29,8.48,28.86,14.44,42.79
		c9.33-4.52,5.13-14.13,1.53-21.1c-2.19-4.66-3.7-9.56-5.58-14.32c6.01,7.15,8.38,17.08,12.05,25.72c2.63-2.61,5.9-6.1,4.28-9.98
		c-2.43-6.48-5.26-12.79-8.19-19.05c6.27,4.83,6.77,13.01,10.07,19.71c8.17-6.77,0.66-16.05-2.37-23.53
		c4.89,3.46,5.89,9.02,7.78,14.51c2.5-2.43,3.3-5.49,3.5-8.94c2.22,5.51,3.76,11.71,5.5,17.55c0.18,3.54-1.75,7.03-2.86,10.36
		c-1.85,5.15-4.36-0.99-9.41,7.08c1.54,0.03,2.51-0.71,3.51-1.59c1.15,0.76,2.26,0.42,3.38-0.24c-0.96,1.32-2.15,2.11-1.85,3.94
		c-0.2,2.39-0.74,4.66,1.61,6.2c0.09,0.06,0.18,0.11,0.27,0.17c-0.09-0.06-0.18-0.11-0.27-0.17c-0.68-1.69-0.88-2.95,0.55-4.37
		c1.5-1.32,2.38-3.59,3.65-4.82c0.18,4.89,3.81,0.6,7.1,5.92c-0.21-4.31-3.01-6.72-6.31-8.9c2.3-7.19,6.93-13.24,12.43-18.2
		c5.18,5.33,10.14,10.78,12.05,18.47c-3.95,0.9-5.36,3.62-5.25,7.67c2.57-5.23,5-1.98,7.13-5.56c1.94,0.94,0.1,4.01,3.69,4.01
		c0.18,1.5,0.36,2.96,0.56,4.62c2.98-3.87,2.43-6.71-1.63-9.23c2.7,1.87,3.65-1.79,5.8,0.03c0.56,0.42,1.09,0.84,1.87,0.8
		c-1.14-3.59-5.2-4.36-8.34-3.45c-7.77-12.5-2.69-17.6,0.76-30.3c0.8,3.21,0.69,6.85,3.83,8.66c1.9-4.83,2.67-11.59,7.74-13.93
		c-3.34,7.1-10.49,16.71-2.47,23.1c3.47-6.27,3.68-15.12,9.97-19.4c0.05-0.09,0.1-0.18,0.15-0.27c-2.96,6.18-5.31,12.65-8.11,18.91
		c-1.78,4.06,1.38,7.53,4.3,10.14c3.44-8.87,6.5-18.56,12.15-26.22c-2.28,6.08-4.48,12.15-7.19,18.06
		c-3.18,6.71-5.48,14.53,3.28,17.9c5.67-13.73,15.1-25.91,14.06-41.6c6.31-1.83,2.59-19.32,1.08-24.08c1.14,0.4,2.09,0.74,3.21,1.13
		C310.75,230.52,297.03,197.44,280.85,202.52z M201.83,255.75c-0.21,0.69-1.47,1.01-1.51,0.08c2.28-6.12,1.4-12.45,0.41-18.74
		C203.52,242.79,204.73,249.87,201.83,255.75z M209.94,259.06c-1.32-1.9,1.34-5.1,1.12-7.53c0.91-5.54-0.66-11.05-1.08-16.56
		c0.1-0.04,0.21-0.07,0.31-0.11C212.21,241.26,216.36,254.96,209.94,259.06z M219.94,262.26c-1.4-0.93-0.15-2.6,0.02-3.86
		c2.85-8.14-0.52-16.42-1.5-24.52c0.1-0.01,0.2-0.03,0.31-0.04C221.29,241.83,226.74,255.85,219.94,262.26z M243.99,232.96
		c3.18,4,7.56,3.76,11.43,0.91C253.24,239.99,245.82,238.93,243.99,232.96z M244.08,239.93c-2.07,6.1-9.49,5.66-11.36-0.19
		C236.89,244.09,240.21,242.86,244.08,239.93z M265.87,240.94c-2.17,6.45-9.61,4.49-11.41-1.07
		C258,243.56,261.77,244.25,265.87,240.94z M255.84,246.71c-2.27,6.33-9.86,5.57-11.55-0.7
		C247.41,250.27,252.06,250.15,255.84,246.71z M266.54,253.66c-1.94,6.2-10.15,5.54-11.47-0.45
		C258.11,257.28,262.96,256.77,266.54,253.66z M265.96,228.34c-2.23,6.82-9.99,5.15-11.18-0.42
		C258.06,232.22,261.89,231.54,265.96,228.34z M244.4,188.83c-0.03-3.56,11.22-0.84,9.74,2.5c-0.52-2.36-2.08-2.01-3.68-2.5
		c-0.76-0.17-1.4-0.11-1.77,0.75C247.92,191.49,244.28,191,244.4,188.83z M254.95,221.7c-2.2,6.64-9.24,4.96-11.07-0.84
		C247,224.82,251.32,224.87,254.95,221.7z M243.71,227.96c-1.94,6.22-9.96,5.33-11.13-0.67
		C235.76,231.59,239.82,230.82,243.71,227.96z M232.7,252.76c0.1-0.12,0.2-0.24,0.31-0.36c2.62,4.46,7.73,3.86,11.35,0.61
		C242.15,259.42,235.07,258.55,232.7,252.76z M233.52,263.7c2.67,3.95,7.76,3.6,11.36,1.06
		C242.49,270.58,235.08,269.55,233.52,263.7z M245.12,257.63c2.86,3.58,7.98,3.64,11.15,0.27
		C254.81,264.41,246.73,263.25,245.12,257.63z M255.4,264.17c3.93,4.2,7.03,4.25,11.67,0.95
		C264.8,271.22,257.49,270.36,255.4,264.17z M277.78,257.48c-0.38,0.25-0.83,0.55-1.46,0.96c-4.79-7.93-1.84-17.47,2.29-25.02
		C276.38,241.5,274.56,249.33,277.78,257.48z M286.25,255.21c-4.05-6.42-2.16-14.68,1.01-20.95c-0.97,6.74-2.39,13.78,0.77,20.2
		C287.75,255.33,287.11,255.31,286.25,255.21z M296.54,253.19c-4.44-4.58-2.34-12.09,0.3-17.09c-1.04,5.51-1.75,11.29,0.74,16.48
		C297.18,252.81,296.86,252.99,296.54,253.19z"/>
	<path class="st0" d="M271.76,304.66c-0.64,0.1-1.32,0.21-2.04,0.32c1.39,1.68,2.16,2.61,1.4,4.72c0.11,1.89-1.28,4.23-3.2,4.52
		c-1.32-0.85-0.6-3.11-1.08-4.63c-2.23,0.31-2.12-1.6-3.16-2.91c-1.02,1.24-2.15,1.68-3.61,0.98c-0.92,1.51-1.26,3.31-2.96,4.15
		c-2.77-2.41-0.9-7.55,1.96-9.38c3.81-3.02-6.38-13.83-8.81-16.67c-4.75,4.76-8.95,9.65-11,16.15c2.91,0.52,9.21,10.54,4.05,10.28
		c-0.71-0.27-1.16-0.78-1.53-1.43c-1.04-2.04-3.89-1.69-5.72-2.64c-3.22,2.94-3.35,3.85-2.04,8.03c-6.54-1.67-3.13-5.58-4.21-9.99
		c-1.71,0.37-3.52,0.76-5.41,1.17c-3.48,5.72-2.65,10.66,4.87,10.1c15.36-0.3,30.85,0.7,46.14-0.41
		C281.09,314.5,276.04,306.14,271.76,304.66z"/>
	<path class="st0" d="M267.11,299.71c3.54-0.36,4.42,0.35,6.96,2.68c0.06-0.07,0.12-0.14,0.19-0.22
		c-2.69-8.09-5.38-16.19-8.07-24.28C261.93,286.98,261.5,290.94,267.11,299.71z"/>
	<path class="st0" d="M232.26,300.16c1.38,0.16,1.98-1.12,2.3-2.23c2.94-7.59,2.44-11.87-0.72-19.39
		c-2.98,8.88-5.8,17.28-8.62,25.69c0.08,0.07,0.15,0.15,0.23,0.22C227.17,302.15,229.03,299.65,232.26,300.16z"/>
	<polygon class="st0" points="253.31,370.47 250,363.77 246.69,370.47 239.29,371.55 244.64,376.77 243.38,384.14 250,380.66 
		256.62,384.14 255.36,376.77 260.71,371.55 	"/>
	<polygon class="st0" points="210.1,359.8 206.32,363.41 201.2,362.35 203.47,367.06 200.88,371.6 206.06,370.89 209.57,374.76 
		210.51,369.62 215.27,367.47 210.67,364.99 	"/>
	<polygon class="st0" points="298.8,362.35 293.68,363.41 289.9,359.8 289.33,364.99 284.73,367.47 289.49,369.62 290.43,374.76 
		293.94,370.89 299.12,371.6 296.53,367.06 	"/>
</g>
</svg>
