<?xml version="1.0" encoding="utf-8"?>
<!-- Generator: Adobe Illustrator 26.5.0, SVG Export Plug-In . SVG Version: 6.00 Build 0)  -->
<svg version="1.1" id="Layer_1" xmlns="http://www.w3.org/2000/svg" xmlns:xlink="http://www.w3.org/1999/xlink" x="0px" y="0px"
	 viewBox="0 0 500 500" style="enable-background:new 0 0 500 500;" xml:space="preserve">
<style type="text/css">
	.st0{fill:#131313;}
</style>
<g>
	<g>
		<path class="st0" d="M204.56,209.15c-11.23-6.98-23.15-12.76-35.4-17.53c-10.55,15.66-16.68,34.38-16.68,54.63
			c0,10.04,1.53,19.74,4.42,28.93c5.11-11.74,11.57-23.15,19.4-34.04C184.65,229.24,194.18,218.52,204.56,209.15L204.56,209.15z
			 M174.61,184.48c13.27,4.6,26.04,10.55,38.29,17.53c2.72-2.38,5.62-4.42,8.34-6.47c-12.93-7.15-26.72-12.93-40.85-17.36
			C178.35,180.22,176.31,182.27,174.61,184.48z M186.52,172.39c15.32,4.08,29.95,9.7,43.74,17.02c3.23-2.04,6.47-3.91,9.53-5.79
			c-14.64-7.49-30.12-12.93-46.12-16.85C191.12,168.48,188.73,170.35,186.52,172.39L186.52,172.39z M200.99,162.18
			c16.85,3.4,33.19,8.85,48.5,16.34c15.49-7.49,31.83-12.93,48.5-16.34c-14.13-8.34-30.8-13.1-48.5-13.1
			C231.79,149.08,215.28,153.84,200.99,162.18L200.99,162.18z M305.31,166.95c-16,3.74-31.48,9.36-46.12,16.68
			c3.23,1.87,6.3,3.74,9.53,5.79c13.96-7.32,28.59-12.93,43.74-17.02C310.25,170.35,307.86,168.48,305.31,166.95L305.31,166.95z
			 M318.59,178.35c-14.13,4.25-27.74,10.04-40.85,17.19c2.89,2.04,5.79,4.25,8.51,6.47c12.08-6.98,24.85-12.93,38.12-17.53
			C322.67,182.27,320.8,180.22,318.59,178.35L318.59,178.35z M329.82,191.8c-12.25,4.6-24,10.38-35.23,17.36
			c10.38,9.36,19.74,20.08,28.25,32c7.66,10.89,14.13,22.29,19.4,34.04c2.72-9.36,4.25-18.89,4.25-28.93
			C346.5,226,340.37,207.28,329.82,191.8L329.82,191.8z M321.48,258.51c-10.21-16.51-22.46-31.14-36.08-43.57
			c-3.06,2.21-6.3,4.42-9.19,6.64c22.98,21.44,41.53,48.33,53.27,79.65c2.72-4.08,5.28-8.34,7.32-12.59
			C332.54,278.42,327.44,268.38,321.48,258.51z M267.53,214.26c3.06-2.21,6.13-4.42,9.36-6.47c-2.72-2.38-5.62-4.6-8.51-6.81
			c-3.23,2.04-6.47,4.08-9.7,6.3h0.17C261.74,209.5,264.64,211.88,267.53,214.26L267.53,214.26z M249.49,200.65
			c3.23-2.04,6.64-4.08,9.7-5.96c-3.23-2.04-6.47-4.08-9.7-5.96c-3.23,1.87-6.3,3.91-9.53,5.96
			C243.19,196.56,246.26,198.6,249.49,200.65z M240.3,207.28c-3.23-2.21-6.3-4.25-9.53-6.3c-2.89,2.21-5.79,4.42-8.68,6.64
			c3.23,2.21,6.3,4.25,9.36,6.47C234.34,211.71,237.24,209.5,240.3,207.28L240.3,207.28z M249.49,214.09
			c-2.89,2.21-5.79,4.6-8.85,7.15c3.06,2.38,5.96,4.94,8.85,7.49c2.89-2.55,5.79-5.11,8.85-7.49
			C255.45,218.86,252.55,216.3,249.49,214.09z M249.49,245.92c-12.93,13.96-24.34,29.95-33.53,47.82
			c-6.3,11.91-11.23,24.34-14.98,36.76c14.3,8,30.8,12.76,48.5,12.76s34.21-4.77,48.5-12.76c-3.74-12.42-8.68-24.85-14.98-36.76
			C273.83,275.87,262.59,259.87,249.49,245.92L249.49,245.92z M193.33,310.42c11.06-28.25,27.4-52.93,47.48-73.35
			c-2.89-2.72-5.79-5.28-8.85-8c-23.32,22.63-42.04,50.72-53.44,83.22c3.23,3.57,6.64,6.81,10.38,9.87
			C190.26,318.25,191.8,314.33,193.33,310.42L193.33,310.42z M258.17,237.07c20.08,20.42,36.42,45.1,47.65,73.35
			c1.53,3.91,2.89,7.83,4.25,11.74c3.74-3.06,7.32-6.3,10.55-9.87c-11.57-32.51-30.29-60.59-53.61-83.22
			C263.96,231.79,261.06,234.34,258.17,237.07L258.17,237.07z M169.5,301.23c11.74-31.31,30.29-58.03,53.44-79.48
			c-3.06-2.38-6.13-4.6-9.36-6.81c-13.62,12.59-25.87,27.23-36.08,43.74c-5.96,9.7-11.06,19.74-15.32,29.95
			C164.23,293.06,166.78,297.14,169.5,301.23L169.5,301.23z M250,141.25c59.91,0,108.75,48.84,108.75,108.75
			S309.91,358.75,250,358.75S141.25,309.91,141.25,250S190.09,141.25,250,141.25z"/>
	</g>
	<g>
		<path class="st0" d="M250,100c-82.84,0-150,67.16-150,150c0,82.84,67.16,150,150,150c82.84,0,150-67.16,150-150
			C400,167.16,332.84,100,250,100z M250,390.63c-77.54,0-140.62-63.08-140.62-140.63c0-77.54,63.08-140.62,140.62-140.62
			c77.54,0,140.63,63.08,140.63,140.62C390.63,327.54,327.54,390.63,250,390.63z"/>
		<path class="st0" d="M386.14,256.01c-1.06-2.04-2.73-3.31-5-3.71c-1.3-0.23-2.55,0.06-3.66,0.7c-1.32,0.76-1.77,2.07-1.64,3.54
			c0.15,1.55,1.01,2.6,2.45,3.18c1.47,0.6,2.55,0.02,2.96-1.52c0.13-0.5-0.01-0.87-0.34-1.22c-0.32-0.34-0.63-0.21-1.01-0.07
			c-0.79,0.28-1.29-0.17-1.21-1.01c0.09-0.9,1.11-1.59,2.18-1.46c0.97,0.12,1.72,0.65,2.36,1.36c1.25,1.4,1.22,3.09,0.71,4.65
			c-0.64,1.95-2.14,2.72-3.97,2.63c-0.94-0.04-1.88-0.43-2.79-0.76c-1.18-0.44-2.31-1-3.58-1.21c-1.64-0.27-3.12,0.07-4.44,1.02
			c-2.08,1.48-2.84,4.51-1.15,6.57c1.27,1.55,3.56,2.18,5.24,1.75c0.89-0.23,1.41-0.79,1.56-1.69c0.12-0.68-0.19-1.25-0.84-1.68
			c-0.56-0.38-0.98-0.1-1.42,0.22c-0.15,0.11-0.32,0.21-0.44,0.34c-0.37,0.39-0.86,0.44-1.22,0.16c-0.31-0.24-0.6-0.7-0.64-1.09
			c-0.08-0.73,0.28-1.39,0.87-1.84c1.88-1.44,4.62-0.64,5.64,1.52c0.59,1.24,0.21,2.41,0.09,3.6c-0.05,0.51-0.13,1.07-0.36,1.51
			c-0.83,1.54-2.2,2.42-3.9,2.68c-3.02,0.46-6.27-1.97-7.4-4.56c-0.6-1.39-0.67-2.8-0.67-4.27c0-2.38,1.03-4.32,2.59-5.99
			c1.06-1.14,2.24-2.18,3.38-3.24c0.88-0.83,1.18-1.87,1.08-3.04c-0.07-0.82-0.44-1.3-1.04-1.4c-0.53-0.09-0.93,0.18-1.33,0.95
			c-0.2,0.39-0.35,0.82-0.56,1.21c-0.17,0.32-0.37,0.65-0.62,0.92c-0.54,0.63-1.33,0.82-1.89,0.51c-0.65-0.37-0.96-1.26-0.67-2.05
			c0.18-0.48,0.42-0.95,0.67-1.4c0.68-1.2,0.67-2.39,0.02-3.6c-0.28-0.52-0.56-1.05-0.76-1.61c-0.24-0.67,0.11-1.47,0.71-1.84
			c0.55-0.33,1.3-0.21,1.81,0.37c0.29,0.33,0.51,0.72,0.73,1.11c0.23,0.42,0.39,0.88,0.63,1.3c0.37,0.66,0.8,0.89,1.33,0.75
			c0.63-0.17,0.88-0.65,0.95-1.25c0.13-1.21-0.14-2.3-1.06-3.16c-0.98-0.91-1.98-1.81-2.93-2.75c-2.02-1.99-3.23-4.34-3.05-7.27
			c0.02-0.33,0.04-0.67,0.03-1.01c-0.03-1.13,0.43-2.13,0.95-3.06c1.11-2.02,2.87-3.33,5.1-3.87c0.8-0.19,1.74-0.2,2.53,0.01
			c3.5,0.92,5.03,4.68,3.56,7.8c-0.99,2.09-3.82,2.78-5.6,1.33c-0.54-0.44-0.86-1.02-0.86-1.75c0-0.54,0.26-0.94,0.73-1.17
			c0.44-0.22,0.86-0.16,1.22,0.23c0.17,0.19,0.41,0.32,0.63,0.47c0.45,0.31,0.87,0.3,1.34-0.04c0.54-0.39,0.79-0.9,0.7-1.53
			c-0.12-0.78-0.49-1.4-1.3-1.66c-1.4-0.45-2.76-0.2-4.02,0.42c-0.94,0.47-1.74,1.23-2.11,2.23c-0.8,2.16,0.04,4.34,1.81,5.61
			c2.09,1.49,4.29,1.31,6.48,0.4c1.28-0.54,2.54-1.05,3.9-1.32c1.39-0.28,2.99,0.41,3.84,1.54c0.81,1.08,0.78,2.3,0.71,3.53
			c-0.09,1.7-1.56,3.29-3.23,3.5c-0.85,0.11-1.59-0.16-2.01-0.91c-0.19-0.34-0.23-0.9-0.07-1.25c0.18-0.39,0.62-0.53,1.15-0.3
			c0.67,0.29,1.17-0.04,1.32-0.7c0.24-1.15-1.12-2.62-2.24-2.34c-1.68,0.43-2.95,1.3-3.22,3.39c-0.2,1.53,0.71,3.28,2,3.79
			c2.67,1.04,5.01,0.5,6.91-1.35c1.26-1.23,1.94-2.77,2.36-4.47c0.74-2.94,0.22-5.62-1.53-8.05c-1.01-1.4-2.35-2.48-3.73-3.5
			c-1.36-1-2.54-2.16-3.45-3.58c-0.34-0.53-0.48-1.09-0.38-1.7c0.17-1.05,1.26-1.56,2.09-0.89c0.5,0.4,0.83,1.02,1.25,1.53
			c0.28,0.34,0.52,0.73,0.87,0.97c0.75,0.52,1.59,0.3,2.13-0.51c0.44-0.65-0.26-0.92-0.7-1.25c-0.64-0.48-0.93-1.14-0.91-1.94
			c0.02-0.64-0.01-1.25-0.4-1.82c-0.38-0.55-0.29-1.13,0.11-1.67c0.11-0.15,0.2-0.31,0.28-0.48c0.3-0.61,0.23-0.87-0.34-1.18
			c-0.57-0.31-1.06-0.27-1.55,0.15c-0.51,0.43-0.75,0.95-0.8,1.64c-0.05,0.65-0.2,1.34-0.5,1.9c-0.48,0.89-1.36,0.98-2.04,0.25
			c-0.3-0.33-0.53-0.83-0.57-1.28c-0.05-0.58,0.08-1.18,0.2-1.76c0.35-1.62,1.25-3.01,1.95-4.48c0.59-1.23,1.27-2.48,1.53-3.8
			c0.36-1.82,0.3-3.69-0.45-5.49c-1.24-2.99-3.26-5.09-6.45-5.96c-1.63-0.45-3.12-0.06-4.46,0.82c-0.72,0.48-1.47,1.13-1.84,1.89
			c-0.68,1.4-0.43,2.87,0.6,4.07c0.91,1.06,2.15,1.41,3.53,1.21c0.6-0.09,1.13-0.33,1.49-0.88c0.44-0.67,0.35-1.77-0.25-2.37
			c-0.63-0.63-1.01-0.14-1.49,0.26c-0.47,0.39-1.14,0.09-1.32-0.52c-0.21-0.71,0.06-1.58,0.7-1.97c0.78-0.47,1.62-0.67,2.56-0.39
			c1.7,0.51,2.64,1.71,3.21,3.29c0.81,2.22-0.56,4.62-2.89,5.15c-1.25,0.28-2.5,0.39-3.77,0.38c-1.55-0.02-3.06,0.25-4.35,1.18
			c-1.75,1.26-2.49,2.99-2.17,5.14c0.19,1.31,0.53,2.48,1.97,3.05c1.97,0.78,3.84,0.77,5.64-0.4c0.94-0.61,1.12-1.99,0.41-2.84
			c-0.64-0.77-1.59-0.7-2.11,0.14c-0.13,0.22-0.28,0.44-0.39,0.67c-0.25,0.49-0.65,0.73-1.18,0.66c-0.52-0.07-0.9-0.42-1.02-0.92
			c-0.1-0.42-0.13-0.88-0.07-1.31c0.19-1.59,2.68-3.31,4.91-2.19c1.57,0.79,2.43,2.1,2.75,3.83c0.4,2.15-0.17,3.98-1.92,5.24
			c-1.74,1.25-3.69,1.95-5.83,0.81c-0.36-0.19-0.76-0.42-1.14-0.41c-0.75,0.01-1.23-0.43-1.75-0.83c-1.44-1.1-2.36-2.6-2.87-4.29
			c-0.47-1.56-0.71-3.16-0.28-4.85c0.3-1.16,0.75-2.25,1.18-3.35c0.39-1,0.84-1.98,1.14-3.01c0.28-0.96,0.09-1.92-0.46-2.78
			c-0.32-0.5-0.76-0.82-1.4-0.66c-0.53,0.13-0.89,0.65-0.91,1.37c-0.02,0.63,0.02,1.27-0.02,1.9c-0.06,1.04-0.76,1.78-1.64,1.8
			c-0.77,0.02-1.43-0.74-1.51-1.78c-0.03-0.48,0-0.97,0.03-1.45c0.09-1.47-0.45-2.59-1.7-3.4c-0.43-0.28-0.8-0.68-1.1-1.09
			c-0.42-0.58-0.41-1.49,0-1.88c0.49-0.47,1.09-0.65,1.75-0.33c0.33,0.16,0.65,0.35,0.94,0.57c0.49,0.38,0.96,0.81,1.44,1.21
			c0.34,0.28,0.72,0.38,1.14,0.14c0.42-0.24,0.64-0.57,0.65-1.08c0.02-1.32-0.7-2.2-1.78-2.73c-1.09-0.54-2.26-0.97-3.43-1.3
			c-3.08-0.87-5.37-2.66-6.69-5.58c-0.54-1.19-0.92-2.47-0.83-3.78c0.13-1.94,0.84-3.69,2.16-5.15c2-2.22,5.11-2.71,7.44-0.98
			c1.32,0.98,2.01,2.36,2.3,3.95c0.28,1.52-0.38,2.69-1.52,3.6c-1,0.81-2.15,0.96-3.36,0.53c-0.69-0.24-1.08-0.77-1.22-1.47
			c-0.17-0.82,0.35-1.41,1.18-1.34c0.29,0.02,0.58,0.15,0.87,0.18c1.01,0.12,1.64-0.51,1.56-1.53c-0.09-1.11-1.16-1.87-2.35-1.63
			c-1.29,0.26-2.35,0.91-3.17,1.94c-1.21,1.53-1.45,3.22-0.52,4.91c0.86,1.56,2.32,2.36,4.12,2.49c2.43,0.18,4.18-1.04,5.73-2.72
			c0.68-0.73,1.39-1.46,2.16-2.1c1.51-1.26,3.68-1.35,5.13-0.11c1.02,0.87,1.64,1.99,1.74,3.37c0.11,1.53-0.36,2.81-1.64,3.67
			c-0.4,0.27-0.98,0.34-1.48,0.35c-0.65,0.01-1.42-0.81-1.41-1.37c0.01-0.48,0.46-0.73,1.38-0.76c0.06,0,0.13-0.06,0.19-0.1
			c0.43-1.01,0.35-1.41-0.46-2.14c-0.61-0.56-1.38-0.64-2.15-0.19c-0.77,0.45-1.26,1.11-1.59,1.95c-0.69,1.75,0.17,3.88,1.9,4.68
			c1.6,0.73,3.08,0.33,4.49-0.43c1.92-1.03,2.87-2.84,3.2-4.87c0.41-2.51-0.25-4.87-1.57-7.04c-1.61-2.65-4.18-3.77-7.03-4.49
			c-1.87-0.47-3.79-0.83-5.42-1.97c-0.42-0.29-0.82-0.64-1.14-1.04c-0.4-0.52-0.3-1.27,0.12-1.76c0.49-0.56,1.02-0.7,1.69-0.36
			c0.43,0.22,0.82,0.52,1.21,0.8c0.84,0.58,1.8,0.73,2.38,0.22c0.32-0.28,0.58-0.79,0.62-1.21c0.04-0.47-0.48-0.66-0.9-0.66
			c-0.94,0-1.38-0.58-1.76-1.32c-0.2-0.39-0.4-0.82-0.72-1.11c-0.81-0.72-1.3-1.48-0.95-2.64c0.17-0.57-0.33-0.99-0.92-0.91
			c-1.11,0.16-1.79,1.23-1.46,2.32c0.11,0.36,0.32,0.68,0.4,1.04c0.14,0.61,0.3,1.26-0.15,1.82c-0.7,0.86-1.85,0.7-2.51-0.3
			c-0.89-1.34-0.7-2.87-0.74-4.34c-0.04-1.9,0.04-3.8,0.07-5.71c0-0.26-0.01-0.53-0.07-0.78c-1.01-4.39-5.07-7.89-9.75-7.78
			c-2.39,0.06-4.24,1.08-5.37,3.18c-0.8,1.49-0.87,3.1,0.47,4.55c0.98,1.06,2.89,1.5,4.22,0.97c1.59-0.63,2.09-1.95,1.23-3.24
			c-0.65-0.97-1.47-0.97-1.97,0.08c-0.38,0.8-1.1,0.63-1.49,0.11c-0.71-0.94-0.42-2.2,0.69-2.87c1.73-1.03,3.48-0.84,5.12,0.66
			c2.73,2.5,1.67,5.41-0.56,6.75c-0.76,0.46-1.55,0.88-2.33,1.3c-0.49,0.26-1.03,0.43-1.51,0.71c-2.81,1.64-3.87,4.68-2.74,7.33
			c0.85,2.01,2.99,3.12,5.06,2.47c1.06-0.33,2.17-0.58,2.78-1.68c0.07-0.12,0.21-0.22,0.33-0.29c0.56-0.33,0.67-0.9,0.71-1.44
			c0.09-1.12-0.84-2.16-1.98-2.22c-0.24-0.01-0.61,0.06-0.71,0.23c-0.3,0.52-0.79,1.04-0.53,1.71c0.22,0.57-0.22,0.79-0.5,0.98
			c-0.26,0.18-0.74,0.26-1.02,0.14c-0.82-0.35-1.39-1.91-1.12-2.78c0.31-1.02,0.95-1.66,1.91-2.17c0.85-0.45,1.64-0.72,2.54-0.39
			c0.54,0.19,1.03,0.55,1.57,0.78c1.99,0.87,2.52,2.71,2.65,4.54c0.12,1.76-0.75,3.27-2.26,4.37c-1.36,0.99-2.88,1.34-4.5,1.41
			c-1.58,0.08-2.94-0.69-4.32-1.29c-1.19-0.51-1.96-1.59-2.73-2.58c-1.23-1.57-1.77-3.43-1.87-5.4c-0.07-1.45-0.01-2.91-0.07-4.37
			c-0.06-1.29-0.75-2.21-1.89-2.8c-0.46-0.24-0.88-0.19-1.25,0.12c-0.38,0.31-0.51,0.75-0.37,1.21c0.15,0.5,0.41,0.96,0.54,1.46
			c0.17,0.6,0.37,1.22,0.35,1.83c-0.04,1.03-1.18,1.53-2.06,0.99c-0.75-0.46-1.12-1.18-1.33-1.98c-0.3-1.18-0.99-1.97-2.13-2.37
			c-0.53-0.19-1.1-0.26-1.6-0.49c-0.46-0.2-0.93-0.47-1.28-0.83c-0.5-0.51-0.45-1.04-0.02-1.62c0.51-0.68,1.38-0.86,2.34-0.55
			c0.67,0.21,1.35,0.41,2.04,0.53c0.55,0.1,0.91-0.27,1.16-0.72c0.24-0.42,0.04-0.77-0.21-1.13c-0.82-1.12-1.96-1.58-3.3-1.51
			c-1.08,0.05-2.16,0.13-3.23,0.29c-3.16,0.48-5.91-0.4-8.23-2.53c-2.96-2.72-3.65-6.66-1.67-10.04c1.06-1.81,2.77-2.72,4.86-2.62
			c1.8,0.09,3.23,1.05,4.32,2.47c1.32,1.72,1.17,3.8-0.42,5.21c-1.45,1.29-2.76,1.15-3.5,0.41c-0.41-0.41-0.7-0.79-0.54-1.36
			c0.17-0.62,0.62-0.85,1.27-0.86c0.8-0.02,1.27-0.43,1.37-1.03c0.12-0.71-0.18-1.33-0.82-1.68c-0.83-0.46-1.75-0.37-2.48,0.3
			c-0.72,0.65-1.28,1.4-1.67,2.33c-0.65,1.53-0.29,3.73,0.91,4.87c1.33,1.26,3.61,1.59,5.1,1.05c1.91-0.69,3.15-2.03,3.87-3.89
			c0.4-1.04,0.75-2.09,1.18-3.12c0.51-1.23,1.27-2.33,2.58-2.77c3.29-1.08,6.25,2.04,5.91,4.76c-0.13,1.03-0.55,1.94-1.57,2.42
			c-0.74,0.35-1.81-0.04-2.1-0.74c-0.18-0.45,0.09-0.76,1.03-1.21c0.03-0.02,0.05-0.06,0.07-0.08c0.09-0.86-0.17-1.4-0.84-1.71
			c-0.69-0.32-1.83-0.14-2.29,0.37c-0.92,1.01-1.09,3.13-0.34,4.29c1.08,1.68,3.23,2.54,5.22,1.35c2.27-1.36,3.52-3.97,2.95-6.71
			c-0.99-4.71-5.15-8.32-9.97-8.08c-1.15,0.06-2.29,0.27-3.43,0.46c-1.81,0.3-3.61,0.51-5.45,0.18c-1.09-0.2-1.92-1.11-1.75-1.96
			c0.19-0.92,1.18-1.35,2.36-1.06c0.43,0.11,0.87,0.19,1.31,0.24c0.88,0.11,1.62-0.41,1.77-1.6c0.1-0.78-0.37-1.2-1.06-0.88
			c-0.86,0.4-1.49,0.1-2.18-0.34c-0.65-0.42-1.37-0.72-2-1.16c-0.4-0.28-0.71-0.7-1.02-1.09c-0.11-0.13-0.1-0.36-0.17-0.53
			c-0.28-0.71-0.62-0.81-1.29-0.42c-0.59,0.34-0.84,0.88-0.71,1.51c0.09,0.45,0.36,0.88,0.61,1.27c0.29,0.46,0.73,0.84,0.98,1.33
			c0.37,0.73,0.19,1.44-0.32,1.81c-0.48,0.34-1.55,0.34-1.98-0.14c-0.65-0.71-1.34-1.43-1.76-2.28c-0.78-1.6-1.37-3.29-2.06-4.93
			c-0.84-1.99-2.01-3.71-3.93-4.84c-1.86-1.09-3.86-1.61-5.98-1.48c-2.34,0.14-4.43,0.91-5.88,2.93c-1.11,1.54-1.42,3.34-0.78,4.99
			c1.07,2.78,4.48,2.97,6.29,1.12c1.31-1.34,1.02-2.99-0.56-3.61c-0.85-0.33-1.34-0.01-1.38,0.91c-0.04,0.87-0.53,1.19-1.34,0.83
			c-0.22-0.1-0.44-0.27-0.59-0.46c-0.65-0.83-0.49-2.08,0.43-2.91c1.81-1.64,3.7-1.61,5.64-0.45c1.8,1.07,2.81,3.16,1.35,5.58
			c-0.47,0.79-1.1,1.49-1.68,2.22c-0.43,0.55-0.94,1.05-1.33,1.63c-1.45,2.17-1.68,4.46-0.26,6.7c1.29,2.05,3.83,2.81,6.13,1.38
			c1.29-0.8,1.94-2.01,2.34-3.41c0.32-1.15-0.13-2.16-1.22-2.67c-0.93-0.43-1.96,0.21-1.94,1.23c0.01,0.36,0.13,0.73,0.24,1.07
			c0.26,0.77-0.13,1.43-0.93,1.49c-0.83,0.07-1.7-0.42-1.97-1.19c-0.92-2.57,0.86-4.71,2.7-5c1.48-0.23,2.82,0.01,4.06,0.79
			c1.7,1.08,2.65,2.69,2.55,4.68c-0.16,3.04-2.74,5.28-5.1,6.04c-1.56,0.5-3.11,0.51-4.73,0.09c-2.9-0.76-4.92-2.49-6.25-5.09
			c-0.66-1.29-1.23-2.62-1.88-3.91c-0.57-1.14-1.47-1.83-2.77-1.97c-1.08-0.11-1.63,0.5-1.34,1.54c0.06,0.2,0.18,0.41,0.33,0.56
			c0.25,0.26,0.57,0.47,0.82,0.73c0.33,0.34,0.67,0.69,0.92,1.1c0.49,0.8,0.37,1.58-0.26,2.08c-0.43,0.34-1.44,0.29-1.99-0.15
			c-0.43-0.35-0.81-0.77-1.22-1.14c-1.02-0.93-2.11-1.47-3.55-0.95c-0.86,0.3-1.77,0.3-2.56-0.32c-0.55-0.43-0.67-0.97-0.35-1.58
			c0.4-0.76,1.06-1.09,1.91-1.14c0.59-0.03,1.2-0.08,1.75-0.25c0.68-0.2,1.01-0.69,0.95-1.22c-0.06-0.57-0.39-0.94-0.93-1.15
			c-0.83-0.32-1.69-0.44-2.52-0.14c-0.79,0.29-1.54,0.71-2.29,1.1c-1.06,0.55-2.05,1.23-3.15,1.66c-2.21,0.86-4.43,0.99-6.76,0.15
			c-3.19-1.16-5.43-3.74-5.6-7.18c-0.05-0.91,0.02-1.92,0.39-2.73c1.75-3.95,6.55-4.24,9.08-1.51c1.59,1.72,1.16,4.15-0.6,5.51
			c-0.56,0.43-1.2,0.58-1.9,0.3c-0.52-0.21-0.92-0.55-0.99-1.12c-0.06-0.54,0.27-0.9,0.73-1.15c0.1-0.05,0.19-0.11,0.28-0.17
			c0.91-0.64,0.89-1.78-0.04-2.39c-0.83-0.54-2.1-0.23-2.64,0.63c-0.76,1.23-0.92,2.55-0.69,3.97c0.38,2.33,2.5,3.86,4.5,3.64
			c1.87-0.21,3.38-1.09,4.36-2.76c0.91-1.57,0.88-3.27,0.73-4.99c-0.08-0.89-0.19-1.79-0.13-2.67c0.11-1.51,0.68-2.82,2.07-3.62
			c1.74-1,3.38-0.6,4.92,0.43c1.33,0.88,1.92,2.14,1.73,3.74c-0.12,0.97-0.86,1.76-1.74,1.7c-0.36-0.02-0.78-0.23-1.04-0.48
			c-0.32-0.31-0.06-0.69,0.13-1.02c0.44-0.76,0.23-1.43-0.58-1.57c-1.21-0.21-2.15-0.02-2.52,1.52c-0.36,1.51,0.53,3.21,2.08,4.07
			c1.04,0.58,3.12,0.54,4.23-0.66c1.81-1.95,2.11-4.44,1.07-6.74c-1.35-2.97-3.85-4.53-6.95-5.24c-2.05-0.47-4.03-0.24-5.87,0.71
			c-1.48,0.76-2.87,1.7-4.29,2.58c-1.43,0.89-2.87,1.75-4.64,1.69c-0.73-0.02-1.34-0.51-1.46-1.14c-0.15-0.76,0.17-1.33,1-1.64
			c0.63-0.23,1.29-0.38,1.91-0.61c0.9-0.33,1.17-0.77,1.12-1.68c-0.02-0.43-0.07-0.91-0.53-1.01c-0.29-0.06-0.7,0.1-0.97,0.3
			c-0.58,0.43-1.16,0.58-1.88,0.44c-0.79-0.16-1.59-0.35-2.43-0.15c-0.64,0.15-1.12-0.29-1.55-0.73c-0.2-0.21-0.37-0.48-0.62-0.61
			c-0.18-0.1-0.53-0.09-0.69,0.02c-0.75,0.51-0.82,1.4-0.29,2.15c0.46,0.65,1.2,0.84,1.83,1.21c0.43,0.25,0.91,0.6,1.09,1.01
			c0.15,0.37,0.03,0.98-0.2,1.34c-0.33,0.53-0.94,0.71-1.59,0.54c-1.64-0.43-2.89-1.48-4.08-2.61c-1.16-1.11-2.24-2.3-3.49-3.3
			c-0.85-0.68-1.88-1.23-2.91-1.59c-1.34-0.47-2.77-0.52-4.2-0.32c-2.35,0.32-4.41,1.22-6.05,3c-1.55,1.67-2.1,4.6-1.16,6.74
			c1.2,2.73,5.15,2.93,6.59,0.64c0.55-0.87,0.91-1.81,0.51-2.85c-0.32-0.84-1.45-1.4-2.31-1.13c-0.23,0.07-0.43,0.27-0.61,0.44
			c-0.45,0.44,0.04,0.82,0.11,1.23c0.11,0.62-0.11,0.92-0.73,0.98c-1.23,0.13-2.25-1.08-1.93-2.34c0.62-2.44,2.62-3.69,5.29-3.32
			c2.15,0.29,3.41,1.84,3.36,4.02c-0.01,0.63-0.09,1.27-0.24,1.88c-0.27,1.12-0.64,2.21-0.92,3.33c-0.57,2.35,0.28,4.72,2.26,6.1
			c1.3,0.9,2.72,1.34,4.31,0.67c2.8-1.18,3.39-4.37,2.51-6.71c-0.32-0.85-1.83-1.3-2.6-0.86c-0.88,0.5-0.97,1.73-0.1,2.45
			c0.47,0.39,0.69,0.79,0.46,1.35c-0.23,0.58-0.68,0.81-1.32,0.82c-0.75,0.02-1.29-0.31-1.74-0.84c-1.26-1.47-1.04-4.16,0.64-5.37
			c0.68-0.5,1.45-0.52,2.16-0.82c1.43-0.61,4.25,0.35,5.33,1.75c1.54,2.01,1.68,4.36,0.39,6.7c-1.15,2.09-2.81,3.43-5.15,4.1
			c-3.18,0.9-5.96,0.11-8.51-1.75c-1.07-0.78-2.01-1.75-3-2.65c-0.93-0.84-1.99-1.28-3.26-1.15c-0.85,0.09-1.46,0.54-1.53,1.2
			c-0.06,0.61,0.4,1.16,1.19,1.42c0.32,0.1,0.66,0.15,0.97,0.27c0.38,0.14,0.77,0.29,1.12,0.5c0.6,0.36,0.91,1.14,0.75,1.73
			c-0.17,0.68-0.65,1.03-1.53,0.99c-0.55-0.02-1.13-0.1-1.62-0.33c-1.45-0.68-2.77-0.62-4.09,0.34c-0.5,0.36-1.09,0.65-1.69,0.8
			c-1.05,0.26-1.72-0.38-1.71-1.46c0-0.74,0.47-1.14,1-1.5c0.58-0.4,1.19-0.75,1.77-1.16c0.42-0.29,0.77-0.69,0.5-1.23
			c-0.25-0.5-0.6-0.91-1.29-0.91c-0.73,0.01-1.45,0.03-2.01,0.52c-0.66,0.58-1.27,1.22-1.85,1.89c-1.15,1.34-2.02,2.92-3.45,4.05
			c-3.17,2.51-8.08,2.89-11.17,0.3c-1.63-1.38-2.8-3.08-2.85-5.22c-0.04-2,0.87-3.7,2.69-4.72c1.8-1.01,3.68-1.19,5.53-0.09
			c1.66,0.99,2.19,3.21,1.22,4.89c-0.55,0.95-1.18,1.26-2.21,1.1c-0.78-0.12-1.15-0.88-0.77-1.58c0.14-0.26,0.33-0.5,0.46-0.76
			c0.36-0.77,0.06-1.5-0.72-1.84c-0.97-0.42-2.2,0.2-2.43,1.3c-0.11,0.54-0.1,1.12-0.06,1.67c0.17,2.9,2.96,4.64,4.72,4.46
			c1.7-0.17,3.5-1.4,4.24-3.21c0.95-2.3,0.29-4.36-0.83-6.4c-0.48-0.87-0.92-1.78-1.26-2.72c-0.92-2.54,0.14-4.65,2.67-5.41
			c2.02-0.6,4.09,0.12,5.2,1.83c0.61,0.94,0.46,2.37-0.31,2.95c-0.43,0.33-1.11,0.39-1.45,0.12c-0.47-0.38-0.45-0.82-0.13-1.28
			c0.05-0.08,0.03-0.21,0.03-0.3c-0.81-0.65-1.58-0.72-2.35-0.23c-0.61,0.39-0.95,1.22-0.79,1.95c0.33,1.5,1.77,2.78,3.32,2.89
			c1.95,0.15,3.38-0.69,3.88-2.19c1.21-3.64-0.66-6.7-3.98-8.11c-1.64-0.7-3.32-0.74-5.05-0.67c-1.85,0.07-3.47,0.75-4.92,1.86
			c-1.48,1.12-2.46,2.66-3.42,4.21c-0.96,1.55-1.92,3.12-3.45,4.18c-0.41,0.28-0.92,0.45-1.42,0.54c-0.67,0.13-1.13-0.3-1.45-0.84
			c-0.31-0.54-0.1-1.04,0.28-1.43c0.41-0.42,0.91-0.76,1.37-1.13c1.3-1.04,1.16-2.37-0.43-3.22c-0.26,0.38-0.49,0.8-0.81,1.14
			c-0.29,0.31-0.64,0.6-1.02,0.76c-0.86,0.35-1.76,0.57-2.62,0.91c-0.56,0.22-1.08,0.25-1.62-0.01c-0.2-0.1-0.4-0.21-0.61-0.28
			c-0.61-0.2-0.89,0-0.97,0.65c-0.14,1.25,0.48,1.97,1.76,2.03c0.56,0.02,1.12-0.01,1.68,0.04c0.62,0.06,1.18,0.58,1.27,1.08
			c0.12,0.64-0.15,1.32-0.74,1.62c-0.39,0.2-0.86,0.41-1.26,0.37c-1.14-0.13-2.29-0.3-3.39-0.62c-1.17-0.34-2.29-0.86-3.43-1.31
			c-2.84-1.11-5.65-1.25-8.41,0.24c-2.52,1.36-4.45,3.25-5.08,6.14c-0.54,2.47,0.02,4.67,2.1,6.29c0.71,0.56,1.57,1.01,2.47,0.85
			c2.12-0.37,3.95-1.91,3.53-4.57c-0.21-1.3-1.4-2.6-2.89-1.66c-0.36,0.22-0.71,0.57-0.86,0.95c-0.06,0.16,0.36,0.55,0.6,0.8
			c0.47,0.5,0.42,1-0.17,1.38c-1.01,0.64-2.46-0.12-2.69-1.4c-0.35-1.98,0.32-3.55,2.03-4.59c2.13-1.3,4.14-1.26,5.75,1.02
			c0.57,0.81,0.76,1.92,1,2.92c0.29,1.23,0.37,2.51,0.7,3.72c0.72,2.61,3,4.15,5.63,3.99c1.28-0.08,2.46-0.51,3.26-1.66
			c1-1.43,1.16-3.84,0.25-5.32c-0.27-0.44-0.58-0.88-0.96-1.23c-0.88-0.82-2.46-0.65-2.9,0.28c-0.46,0.96-0.12,1.82,0.91,2.08
			c0.59,0.15,0.96,0.47,1.07,1c0.12,0.59-0.31,0.94-0.78,1.24c-0.63,0.39-1.27,0.41-1.92,0.12c-2.21-0.96-3-3.77-1.34-5.79
			c0.97-1.18,2.19-1.86,3.69-2.08c2.66-0.38,4.83,1.04,5.77,3.43c0.91,2.33,0.59,4.7-0.75,6.75c-2.37,3.63-6.63,5.07-10.89,3.78
			c-1.28-0.39-2.55-0.83-3.85-1.13c-1.33-0.3-2.59-0.12-3.58,0.98c-0.3,0.34-0.43,0.73-0.22,1.13c0.18,0.36,0.42,0.71,0.92,0.7
			c0.52-0.02,1.05-0.02,1.57-0.02c0.52,0,1.05-0.03,1.57,0.02c0.58,0.06,1.1,0.59,1.2,1.15c0.13,0.73-0.09,1.32-0.78,1.55
			c-0.69,0.24-1.44,0.39-2.17,0.42c-1.43,0.06-2.48,0.61-3.15,1.91c-0.27,0.51-0.7,0.96-1.12,1.37c-0.47,0.46-1.29,0.54-1.75,0.22
			c-0.55-0.37-0.75-0.95-0.61-1.56c0.1-0.45,0.34-0.89,0.57-1.3c0.2-0.35,0.51-0.65,0.72-0.99c0.44-0.71,0.46-1.47,0.07-1.87
			c-0.3-0.31-1.36-0.33-1.92-0.01c-1.06,0.62-1.68,1.57-1.94,2.75c-0.3,1.34-0.47,2.72-0.87,4.03c-1.02,3.29-3.13,5.53-6.49,6.62
			c-2.94,0.96-5.43,0.2-7.66-1.7c-2.05-1.75-2.54-4.54-1.17-6.77c0.85-1.38,2.09-2.22,3.67-2.7c1.97-0.59,4.7,0.8,4.81,3.61
			c0.03,0.71-0.27,1.31-0.78,1.79c-0.49,0.46-1.18,0.55-1.65,0.29c-0.55-0.31-0.66-0.65-0.5-1.51c0.02-0.11,0.05-0.22,0.06-0.33
			c0.02-0.57-0.21-0.99-0.71-1.3c-0.51-0.32-0.98-0.27-1.46,0.04c-0.78,0.5-1.13,1.31-0.92,2.21c0.36,1.49,1.25,2.62,2.6,3.3
			c1.54,0.78,4.01,0.92,5.49-0.98c1.08-1.38,1.41-2.92,1.06-4.62c-0.37-1.83-1.5-3.13-2.97-4.17c-1.1-0.77-2.16-1.58-2.96-2.66
			c-0.91-1.21-1.21-2.52-0.52-3.97c0.82-1.69,2.26-2.57,4.02-2.81c1.32-0.18,2.5,0.43,3.34,1.47c0.61,0.76,0.67,1.96-0.19,2.59
			c-0.66,0.49-1.21,0.35-1.47-0.42c-0.11-0.3-0.16-0.62-0.23-0.91c-1.08-0.08-1.72,0.26-2.16,1.11c-0.35,0.68-0.25,1.52,0.43,2.15
			c1.72,1.6,3.36,1.75,5.2,0.35c0.62-0.47,1.17-1.07,1.27-1.9c0.28-2.26-0.47-4.12-2.33-5.45c-2.21-1.58-4.7-1.63-7.16-0.89
			c-4.26,1.27-6.49,4.35-7.2,8.63c-0.24,1.47-0.43,2.95-0.72,4.4c-0.22,1.06-0.7,2.05-1.41,2.88c-0.52,0.61-1.41,0.69-2.03,0.26
			c-0.64-0.44-0.79-1.07-0.43-1.88c0.09-0.2,0.24-0.38,0.34-0.58c0.22-0.43,0.45-0.86,0.62-1.31c0.25-0.7-0.06-1.45-0.67-1.83
			c-0.88-0.54-1.44-0.29-1.5,0.72c-0.05,0.91-0.47,1.52-1.25,1.96c-0.35,0.19-0.73,0.43-0.94,0.75c-0.63,0.95-1.4,1.45-2.61,1.31
			c-0.73-0.08-0.98,0.42-0.69,1.09c0.43,1,1.25,1.37,2.4,1.02c0.57-0.17,1.1-0.45,1.67-0.63c0.67-0.21,1.44,0.12,1.73,0.69
			c0.25,0.48,0.11,1.36-0.33,1.76c-0.24,0.22-0.52,0.45-0.82,0.57c-1.1,0.44-2.21,0.86-3.44,0.88c-1.27,0.02-2.53,0.09-3.8,0.2
			c-1.68,0.14-3.39,0.36-4.81,1.3c-3.17,2.11-4.94,5.02-4.89,8.98c0.03,2.3,1.74,5.24,4.44,5.87c1.65,0.39,3.34-0.15,4.18-1.58
			c0.99-1.68,0.88-3.06-0.42-4.64c-0.82-1-1.9-0.97-2.82-0.09c-0.89,0.86-0.78,1.45,0.38,1.94c0.59,0.25,0.73,0.71,0.38,1.25
			c-0.48,0.74-1.24,0.97-2.04,0.57c-1.18-0.58-1.7-1.63-1.82-2.88c-0.14-1.57,0.58-2.79,1.69-3.83c1.4-1.31,2.95-1.51,4.61-0.63
			c0.97,0.51,1.56,1.36,2.14,2.22c0.73,1.07,1.35,2.23,2.16,3.23c1.55,1.91,4.43,2.91,7.04,1.43c1.11-0.63,1.99-1.55,2.19-2.82
			c0.41-2.56-0.94-4.61-3.19-5.68c-0.95-0.45-2.24,0.09-2.64,1.04c-0.23,0.55-0.07,1.21,0.39,1.62c0.42,0.37,0.88,0.51,1.45,0.33
			c0.54-0.17,0.93,0.11,1.22,0.55c0.29,0.44,0.19,0.87-0.11,1.24c-0.59,0.73-1.3,1.26-2.31,1.05c-2.15-0.45-3.41-2.16-3.23-4.17
			c0.09-1.04,0.56-1.93,1.21-2.71c1.75-2.13,4.21-2.73,6.6-1.6c1.84,0.87,2.87,2.5,3.36,4.39c0.79,3-0.04,5.67-2.1,7.95
			c-1.27,1.41-2.85,2.44-4.7,2.85c-1.7,0.38-3.46,0.53-5.2,0.72c-1.41,0.15-2.75,1.19-3.03,2.41c-0.13,0.56,0.1,0.93,0.48,1.28
			c0.36,0.32,0.72,0.3,1.12,0.06c0.41-0.25,0.84-0.47,1.28-0.67c0.5-0.22,1.01-0.47,1.55-0.56c0.63-0.11,1.14,0.18,1.48,0.77
			c0.3,0.54,0.2,1-0.15,1.45c-0.18,0.23-0.37,0.47-0.61,0.64c-0.33,0.24-0.67,0.49-1.05,0.62c-1.62,0.58-2.28,1.82-2.41,3.43
			c-0.05,0.65-0.15,1.24-0.61,1.75c-0.97,1.06-1.93,0.57-2.41-0.35c-0.33-0.63-0.2-1.29-0.03-1.96c0.14-0.53,0.18-1.09,0.25-1.63
			c0.06-0.54-0.33-0.83-0.71-1.04c-0.38-0.22-0.77-0.08-1.14,0.18c-1.03,0.72-1.62,2.64-1.31,3.81c0.41,1.51,0.77,3.04,0.92,4.59
			c0.31,3.15-0.79,5.83-3.08,8.03c-2.31,2.22-5.97,2.82-8.8,1.36c-2.03-1.04-3.04-2.98-2.98-4.87c0.06-1.73,0.86-3.22,2.24-4.33
			c2.07-1.67,4.69-1.06,5.96,1.26c0.5,0.91,0.27,1.99-0.53,2.62c-0.66,0.52-1.51,0.31-1.83-0.47c-0.08-0.2-0.09-0.43-0.13-0.65
			c-0.09-0.49-0.34-0.84-0.85-0.91c-0.59-0.07-1.21-0.14-1.64,0.43c-0.5,0.65-0.58,1.77-0.07,2.43c1.5,1.94,4.11,2.56,6.32,1.51
			c1.98-0.94,2.68-3.33,2.16-5.26c-0.66-2.5-2.46-3.86-4.92-4.5c-1.43-0.37-2.87-0.78-4.24-1.35c-1.46-0.6-2.41-2.44-2.1-3.97
			c0.39-1.96,1.54-3.37,3.48-3.99c1.51-0.49,3.13,0.2,3.73,1.46c0.29,0.62,0.04,1.43-0.54,1.77c-0.41,0.23-0.82,0.11-1.28-0.51
			c-0.32-0.43-0.67-0.43-1.07-0.23c-0.94,0.47-1.24,1.88-0.59,2.72c0.76,0.97,1.83,1.08,2.93,0.99c2.76-0.21,4.13-3.44,2.91-5.5
			c-1.69-2.85-4.96-3.52-7.79-2.55c-1.64,0.56-3.03,1.58-4.16,2.91c-1.15,1.35-2.04,2.86-2.3,4.62c-0.35,2.37,0.21,4.66,0.83,6.94
			c0.3,1.11,0.56,2.24,0.67,3.38c0.08,0.76-0.06,1.56-0.21,2.32c-0.14,0.71-0.9,1.17-1.61,1.1c-0.68-0.07-1.12-0.56-1.15-1.4
			c-0.03-0.63,0.04-1.27,0.02-1.9c-0.04-1.52-1.06-2.16-2.66-1.51c0.06,0.37,0.04,0.74,0.19,1.01c0.48,0.83,0.13,1.5-0.3,2.18
			c-0.17,0.28-0.44,0.55-0.49,0.85c-0.19,1.23-0.71,2.13-1.96,2.59c-0.64,0.23-0.64,0.57-0.21,1.14c0.64,0.86,1.88,0.86,2.74,0.02
			c0.5-0.49,0.99-1,1.54-1.43c0.47-0.37,0.97-0.28,1.42,0.13c0.63,0.56,0.78,1.64,0.16,2.31c-0.73,0.78-1.51,1.54-2.4,2.11
			c-1.18,0.76-2.49,1.32-3.73,1.98c-1.29,0.68-2.53,1.45-3.49,2.55c-1.25,1.43-2,3.08-2.25,5c-0.26,2.01-0.18,3.94,0.73,5.78
			c1.27,2.57,3.41,4.02,6.48,3.71c1.82-0.18,3.09-1.58,3.21-3.29c0.14-2.03-0.84-3.53-2.63-4.01c-0.93-0.25-2,0.26-2.23,1.18
			c-0.11,0.44-0.07,0.98,0.08,1.4c0.19,0.51,0.67,0.25,1.07,0.19c0.52-0.07,0.84,0.27,0.86,0.79c0.02,0.73-0.59,1.41-1.36,1.51
			c-1.42,0.17-3.09-0.99-3.43-2.48c-0.35-1.54-0.18-3.02,0.71-4.39c0.82-1.25,3.08-2.05,4.25-1.46c0.86,0.43,1.73,0.84,2.57,1.31
			c1,0.57,1.92,1.28,2.95,1.78c2.38,1.16,5.84,0.52,7.24-2.05c0.72-1.33,0.86-2.69,0.19-3.95c-1.01-1.89-2.65-2.97-4.91-2.91
			c-0.78,0.02-1.25,0.43-1.61,1.01c-0.42,0.68-0.3,1.61,0.2,2.08c0.38,0.36,1.25,0.37,1.86-0.06c0.43-0.3,0.8-0.38,1.22-0.07
			c0.42,0.3,0.66,0.7,0.58,1.25c-0.13,0.85-0.62,1.47-1.37,1.78c-1.62,0.69-3.65-0.05-4.57-1.6c-0.97-1.64-0.8-3.29,0.05-4.9
			c1.45-2.74,3.81-3.45,6.4-2.73c2.03,0.56,3.43,2.11,4.44,3.99c0.69,1.28,0.71,2.64,0.69,4.02c-0.04,3.26-1.66,5.65-4.22,7.46
			c-1.3,0.92-2.71,1.69-4.07,2.53c-1.05,0.64-1.45,1.65-1.56,2.81c-0.05,0.55,0.14,1.02,0.7,1.28c0.56,0.26,1.03,0.11,1.41-0.32
			c0.32-0.36,0.58-0.77,0.89-1.14c0.31-0.37,0.61-0.75,0.99-1.04c0.53-0.42,1.38-0.37,1.87,0.04c0.6,0.5,0.73,1.01,0.33,1.79
			c-0.25,0.49-0.58,0.95-0.94,1.36c-0.89,1.03-1.28,2.16-0.88,3.5c0.14,0.46,0.24,0.94,0.34,1.41c0.2,0.9-0.27,1.92-0.97,2.15
			c-0.8,0.25-1.72-0.34-2.04-1.32c-0.08-0.25-0.14-0.5-0.2-0.76c-0.13-0.47-0.25-0.93-0.38-1.4c-0.14-0.51-0.4-0.86-0.99-0.9
			c-0.63-0.05-0.98,0.28-1.22,0.79c-0.32,0.66-0.42,1.34-0.26,2.07c0.2,0.94,0.69,1.7,1.24,2.46c0.87,1.2,1.8,2.38,2.47,3.69
			c0.93,1.83,1.15,3.8,0.8,5.87c-0.33,1.95-1.15,3.58-2.57,4.92c-1.08,1.02-2.4,1.56-3.83,1.94c-1.96,0.52-4.53-0.24-5.82-2.12
			c-1.23-1.79-1.31-3.7-0.45-5.62c1.01-2.26,3.48-3.08,5.49-1.92c0.74,0.43,1.24,1.06,1.41,1.91c0.13,0.65-0.27,1.42-0.84,1.68
			c-0.53,0.25-0.85,0.13-1.43-0.52c-0.07-0.08-0.11-0.2-0.19-0.28c-0.42-0.4-0.88-0.69-1.5-0.45c-0.65,0.25-1.03,0.74-1.06,1.43
			c-0.04,1.01,0.69,1.98,1.72,2.19c1.1,0.23,2.22,0.37,3.32,0.02c1.29-0.41,2.41-1.17,2.89-2.44c1.37-3.63-1.72-6.83-4.53-6.93
			c-2.13-0.08-4.24,0.12-6.35,0.4c-1.75,0.24-3.17-0.6-3.92-2.23c-0.56-1.22-0.39-2.38,0.03-3.58c0.59-1.7,2.28-2.84,4.04-2.69
			c0.8,0.07,1.28,0.51,1.57,1.22c0.21,0.51,0.13,1-0.21,1.36c-0.36,0.37-0.8,0.19-1.22-0.05c-0.58-0.34-1.22-0.06-1.34,0.6
			c-0.15,0.8-0.12,1.62,0.61,2.13c0.67,0.47,1.4,0.91,2.27,0.36c0.18-0.12,0.42-0.15,0.63-0.23c1.52-0.58,2.54-2.61,2.23-4.19
			c-0.46-2.37-3.26-3.63-5.49-3.35c-2.6,0.32-4.4,1.83-5.7,4.01c-1.03,1.74-1.51,3.63-1.37,5.66c0.05,0.67,0,1.37,0.2,1.99
			c0.74,2.29,2.11,4.24,3.66,6.04c1,1.16,2.01,2.3,2.45,3.81c0.09,0.32,0.2,0.65,0.22,0.98c0.04,0.68-0.51,1.43-1.14,1.64
			c-0.54,0.17-1.04-0.02-1.5-0.69c-0.24-0.36-0.35-0.81-0.56-1.2c-0.3-0.54-0.55-1.14-0.97-1.57c-0.53-0.54-1.6-0.32-2.09,0.29
			c-0.34,0.41-0.26,0.8,0.47,1.37c0.64,0.49,0.76,1.09,0.57,1.78c-0.17,0.63-0.18,1.23-0.01,1.87c0.19,0.72,0.09,1.39-0.54,1.93
			c-0.29,0.25-0.51,0.6-0.74,0.89c1.14,1.33,2.16,1.28,2.98-0.08c0.17-0.28,0.22-0.62,0.35-0.92c0.2-0.44,0.37-0.91,0.66-1.28
			c0.62-0.78,1.42-0.76,2.1-0.02c0.42,0.45,0.54,0.99,0.36,1.56c-0.19,0.64-0.43,1.27-0.72,1.87c-0.82,1.7-2.19,2.99-3.34,4.44
			c-1.08,1.36-2.03,2.84-2.3,4.52c-0.53,3.3,0.19,6.36,2.49,8.93c2,2.24,5.5,3.09,8.1,1.48c1.42-0.88,2.17-2.57,1.77-4.08
			c-0.6-2.26-2.36-3.02-3.93-2.93c-0.69,0.04-1.2,0.37-1.56,0.93c-0.32,0.5-0.29,1.62,0.04,2.01c0.47,0.57,0.9,0.35,1.45,0.05
			c0.69-0.38,1.33,0.2,1.25,1.01c-0.09,0.87-0.81,1.59-1.69,1.66c-0.87,0.07-1.66-0.07-2.44-0.59c-1.06-0.73-1.63-1.73-1.9-2.91
			c-0.43-1.88,0.32-3.94,2.3-4.8c1.39-0.6,2.74-0.37,4.05-0.11c1.22,0.25,2.43,0.32,3.66,0.34c2.25,0.02,3.83-1.08,4.83-3.01
			c0.74-1.43,0.86-3-0.05-4.38c-1.49-2.26-3.83-2.57-6.12-1.9c-0.59,0.17-1.13,0.58-1.42,1.2c-0.36,0.79-0.12,1.72,0.58,2.17
			c0.71,0.45,1.3,0.32,1.94-0.43c0.1-0.11,0.17-0.25,0.28-0.35c0.65-0.63,1.36-0.52,1.82,0.27c0.41,0.7,0.35,1.64-0.25,2.28
			c-1.54,1.65-3.81,1.59-5.24,0.37c-0.96-0.82-1.39-1.9-1.62-3.09c-0.46-2.42,0.91-5.07,3.38-5.99c2.3-0.85,4.35-0.21,6.25,1.02
			c2.12,1.36,3.19,3.41,3.54,5.9c0.38,2.65-0.23,5.01-1.77,7.17c-0.71,0.99-1.48,1.96-2.12,2.99c-0.74,1.19-1.04,2.47-0.31,3.82
			c0.24,0.45,0.58,0.65,1.08,0.63c0.52-0.01,0.85-0.26,1-0.73c0.16-0.5,0.26-1.01,0.42-1.51c0.17-0.52,0.3-1.1,0.61-1.53
			c0.57-0.82,1.69-0.9,2.22-0.19c0.38,0.5,0.62,1.1,0.41,1.79c-0.13,0.43-0.21,0.87-0.34,1.29c-0.44,1.39-0.03,2.53,0.9,3.59
			c0.41,0.46,0.77,1.01,1.01,1.58c0.37,0.89-0.23,1.71-1.19,1.83c-0.99,0.13-1.49-0.52-2.01-1.15c-0.36-0.43-0.64-0.92-1.01-1.33
			c-0.39-0.42-0.92-0.47-1.44-0.23c-0.51,0.23-0.67,0.7-0.62,1.21c0.12,1.19,0.5,2.24,1.62,2.89c0.96,0.56,1.87,1.22,2.86,1.73
			c1.14,0.59,2.21,1.22,2.84,2.39c0.08,0.15,0.28,0.24,0.41,0.37c0.93,0.93,1.72,1.92,1.64,3.34c-0.01,0.18,0.02,0.38,0.1,0.54
			c0.77,1.51,0.48,3.06,0.06,4.55c-0.51,1.81-1.69,3.2-3.24,4.26c-1.59,1.09-3.36,1.28-5.13,0.66c-1.85-0.65-2.94-2.13-3.4-4
			c-0.68-2.75,0.97-5.7,4.32-5.28c0.87,0.11,1.46,0.49,1.87,1.21c0.41,0.71,0.33,1.35-0.18,1.83c-0.47,0.45-0.61,0.45-1.54-0.08
			c-0.8-0.45-1.74-0.17-2.05,0.62c-0.41,1.05,0.41,2.35,1.52,2.51c2.55,0.35,5.91-2.03,5.45-5.17c-0.28-1.9-2.18-3.82-3.76-4.12
			c-1.88-0.37-3.69-0.09-5.31,1.1c-1.26,0.92-2.5,1.86-4.03,2.35c-1.79,0.57-3.54-0.09-4.53-1.67c-0.52-0.83-0.71-1.73-0.74-2.65
			c-0.05-1.57,0.61-2.82,1.95-3.66c0.93-0.59,2.16-0.41,2.73,0.35c0.32,0.42,0.42,0.91,0.15,1.36c-0.28,0.47-0.73,0.43-1.18,0.19
			c-0.09-0.04-0.21-0.01-0.3-0.01c-0.58,0.67-0.65,1.37-0.24,2.03c0.48,0.77,1.28,1.13,2.1,0.88c1.26-0.38,2.12-1.19,2.49-2.48
			c0.49-1.7-0.24-3.82-1.71-4.45c-1.56-0.67-3.25-0.67-4.78,0.11c-2.11,1.08-3.33,2.89-3.75,5.25c-0.25,1.38-0.24,2.73,0,4.11
			c0.4,2.39,1.54,4.31,3.46,5.78c1.51,1.16,3.27,1.89,4.96,2.75c1.34,0.68,2.53,1.55,3.44,2.76c0.52,0.69,0.43,1.69-0.15,2.24
			c-0.59,0.56-1,0.56-1.86-0.12c-0.43-0.34-0.79-0.78-1.18-1.16c-0.69-0.69-1.77-0.8-2.45-0.26c-0.75,0.6-0.72,1.2,0.17,1.56
			c0.93,0.37,1.46,1.01,1.62,1.95c0.1,0.57,0.35,1.03,0.68,1.5c0.44,0.62,0.7,1.3,0.25,2.08c-0.17,0.29-0.12,0.7-0.16,1.03
			c1.53,0.61,2.58-0.04,2.62-1.54c0.02-0.63-0.05-1.27-0.01-1.9c0.02-0.32,0.13-0.66,0.3-0.93c0.29-0.44,0.76-0.61,1.28-0.45
			c0.59,0.18,1.06,0.48,1.23,1.16c0.43,1.85,0.16,3.65-0.4,5.4c-0.73,2.29-1.21,4.6-0.96,7.02c0.03,0.29,0.08,0.59,0.17,0.87
			c0.84,2.61,2.41,4.68,4.8,6.06c2.34,1.35,4.77,1.65,7.22,0.27c1.28-0.72,2.26-1.79,2.48-3.25c0.47-3.04-2.41-5.22-5.28-4.09
			c-1.2,0.47-1.78,1.69-0.92,2.89c0.59,0.83,1.08,0.9,1.7,0.11c0.34-0.43,0.73-0.52,1.18-0.3c0.6,0.3,0.84,1.13,0.54,1.76
			c-0.47,0.94-1.24,1.47-2.28,1.57c-1.78,0.17-3.1-0.67-4.08-2.05c-1.66-2.31-1.01-4.94,1.57-6.13c1.23-0.57,2.59-0.89,3.92-1.23
			c2.14-0.54,3.73-1.67,4.67-3.75c1.04-2.32,0.08-6.35-3.81-6.5c-1.69-0.06-3.15,0.5-4.27,1.79c-0.58,0.66-0.62,1.6-0.2,2.42
			c0.34,0.65,0.91,0.7,1.53,0.66c0.74-0.05,0.9-0.21,1.11-1.25c0.12-0.6,0.49-0.91,1.01-1.07c0.5-0.15,0.83,0.19,1.15,0.51
			c0.58,0.56,0.73,1.28,0.46,1.96c-0.86,2.11-2.68,3.21-4.86,2.37c-3.3-1.27-4.75-5.65-2.14-8.61c1.86-2.11,4.31-2.44,6.86-1.86
			c3.71,0.84,6.45,4.45,6.68,8.41c0.12,2.07-0.43,4.07-0.91,6.05c-0.37,1.54,0.1,2.77,1.18,3.85c0.37,0.37,0.82,0.43,1.23,0.23
			c0.39-0.19,0.77-0.5,0.71-1.04c-0.05-0.51-0.14-1.02-0.2-1.53c-0.07-0.51-0.2-1.03-0.18-1.54c0.04-0.74,0.55-1.24,1.22-1.44
			c0.66-0.2,1.19,0.23,1.47,0.75c0.27,0.5,0.39,1.1,0.48,1.68c0.25,1.52,0.8,2.74,2.4,3.33c0.67,0.25,1.35,0.61,1.75,1.32
			c0.51,0.91,0.18,1.81-0.84,2.09c-0.73,0.2-1.38-0.04-2.01-0.41c-0.45-0.26-0.91-0.49-1.36-0.74c-0.43-0.24-0.83-0.29-1.22,0.1
			c-0.38,0.38-0.54,0.79-0.37,1.32c0.42,1.24,1.32,2,2.54,2.25c1.53,0.31,3.09,0.52,4.65,0.65c1.27,0.1,2.37,0.61,3.45,1.19
			c2,1.08,3.08,2.96,4.14,4.84c0.09,0.16,0.16,0.34,0.2,0.52c0.63,2.61,0.27,5.04-1.4,7.19c-1.12,1.45-2.67,2.21-4.47,2.15
			c-2.72-0.09-4.89-2.19-5.27-4.91c-0.02-0.14-0.01-0.3,0.02-0.44c0.3-1.22,0.5-2.5,1.89-3.04c0.03-0.01,0.06-0.04,0.09-0.06
			c1.6-1.21,2.75-0.54,3.54,0.56c0.24,0.34,0.33,0.66,0.14,1.04c-0.22,0.43-0.56,0.7-1.06,0.71c-0.22,0-0.43-0.09-0.65-0.13
			c-0.78-0.14-1.2,0.11-1.42,0.87c-0.2,0.71-0.06,1.29,0.53,1.8c0.67,0.57,1.39,0.74,2.16,0.36c1.33-0.66,2.35-1.61,2.9-3.07
			c1.16-3.05-0.83-6.1-4.06-6.08c-0.3,0-0.6-0.01-0.89-0.04c-1.73-0.2-2.96,0.81-3.94,1.94c-1.29,1.47-2.34,3.14-3.44,4.77
			c-0.58,0.86-1.4,1.21-2.32,1.37c-2.94,0.5-5.4-2.91-4.92-5.27c0.25-1.24,0.84-2.23,2.11-2.66c0.67-0.23,1.57,0.22,1.83,0.9
			c0.2,0.51,0.05,0.73-0.82,1.16c-0.1,0.05-0.2,0.1-0.3,0.15c-0.35,0.2-0.41,0.52-0.3,0.87c0.39,1.28,2.07,1.85,3.07,0.98
			c1.34-1.15,1.94-3.1,0.64-5.02c-0.9-1.33-2.47-1.85-4.02-1.49c-2.69,0.63-4.45,3.37-4.51,5.82c-0.05,2.01,0.38,3.85,1.42,5.54
			c1.36,2.19,3.18,3.8,5.77,4.41c1.94,0.45,3.9,0.64,5.88,0.59c1.38-0.03,2.66,0.34,3.88,0.91c1.1,0.51,1.51,1.4,1.16,2.24
			c-0.35,0.81-1.33,1.03-2.43,0.55c-0.24-0.11-0.47-0.24-0.71-0.3c-0.39-0.1-0.8-0.22-1.19-0.21c-0.76,0.01-1.43,0.62-1.58,1.35
			c-0.1,0.49,0.1,0.79,0.6,0.86c0.15,0.02,0.3,0.03,0.45,0c0.99-0.18,1.61,0.35,2.17,1.06c0.25,0.32,0.5,0.71,0.85,0.87
			c1.05,0.46,1.52,1.21,1.53,2.35c0.01,0.61,0.41,0.82,1.01,0.67c0.96-0.25,1.46-1.23,1.07-2.18c-0.26-0.62-0.62-1.19-0.89-1.8
			c-0.34-0.77-0.2-1.31,0.42-1.77c0.61-0.45,1.38-0.43,1.93,0.11c0.32,0.31,0.6,0.67,0.8,1.07c0.6,1.21,0.95,2.5,1.17,3.83
			c0.27,1.61,0.36,3.25,0.91,4.82c0.41,1.16,0.92,2.26,1.74,3.2c1.85,2.13,4.21,3.28,6.99,3.48c2.58,0.19,4.87-0.48,6.46-2.74
			c0.94-1.33,1.26-2.85,0.78-4.36c-0.82-2.59-4.66-3.23-6.42-1.14c-0.6,0.71-0.72,1.48-0.34,2.17c0.5,0.9,1.03,1.17,2.16,1.03
			c0.06-0.26,0.09-0.56,0.18-0.83c0.26-0.81,0.86-0.98,1.54-0.44c0.75,0.6,0.81,1.9,0.05,2.7c-1.21,1.26-2.91,1.97-5.18,0.69
			c-2.03-1.15-3.22-3.26-1.91-5.63c0.35-0.63,0.89-1.19,1.44-1.68c0.74-0.67,1.58-1.23,2.37-1.85c2.26-1.79,3.24-4.43,2.23-7.03
			c-0.54-1.38-1.45-2.46-2.96-2.78c-2.8-0.58-5.25,1.05-5.89,3.64c-0.12,0.49-0.01,1.13,0.21,1.6c0.48,1.03,1.67,1.23,2.42,0.49
			c0.45-0.44,0.53-0.98,0.3-1.55c-0.21-0.5-0.04-0.88,0.31-1.2c0.4-0.35,0.85-0.4,1.35-0.19c0.81,0.34,1.25,1,1.3,1.81
			c0.13,2.47-1.99,4.33-4.29,3.98c-1.27-0.19-2.39-0.75-3.32-1.68c-1.43-1.43-2.01-3.75-1.34-5.46c1.18-3.03,4.24-4.58,6.97-4.52
			c3.27,0.07,5.85,1.68,7.68,4.45c1.25,1.9,1.49,4.1,1.97,6.23c0.19,0.83,0.47,1.56,0.95,2.22c0.47,0.65,1.11,1.08,1.96,1.15
			c1.03,0.08,1.56-0.56,1.16-1.54c-0.23-0.57-0.68-1.05-0.97-1.6c-0.24-0.45-0.49-0.93-0.57-1.42c-0.09-0.57,0.15-1.11,0.67-1.44
			c0.44-0.28,1.23-0.24,1.66,0.19c0.45,0.44,0.88,0.93,1.19,1.46c0.71,1.26,1.75,1.84,3.19,1.87c0.69,0.02,1.4,0.18,2.07,0.39
			c0.66,0.21,0.9,0.71,0.85,1.4c-0.05,0.74-0.59,1.31-1.38,1.34c-0.93,0.04-1.87,0-2.8-0.02c-0.58-0.02-0.92,0.32-1.12,0.77
			c-0.2,0.45-0.01,0.84,0.34,1.2c1.04,1.06,2.31,1.14,3.63,0.84c1.19-0.27,2.37-0.65,3.53-1.03c2.21-0.74,4.36-0.68,6.56,0.11
			c3.71,1.33,6.69,5.4,5.36,9.85c-0.58,1.94-1.8,3.18-3.74,3.77c-0.97,0.29-1.9,0.15-2.87-0.01c-1.72-0.29-2.75-1.54-3.5-2.86
			c-0.8-1.41-0.42-2.94,0.76-4.09c1.27-1.24,2.36-1.26,3.38-0.42c0.7,0.58,0.55,1.53-0.28,1.91c-0.13,0.06-0.3,0.04-0.44,0.09
			c-0.71,0.24-1.05,0.72-1.02,1.42c0.03,0.74,0.44,1.26,1.18,1.41c0.91,0.18,1.69-0.04,2.28-0.82c0.68-0.88,1.1-1.88,1.17-2.97
			c0.12-1.82-0.61-3.56-2.14-4.36c-2.41-1.25-5.56-0.35-6.92,2.04c-0.49,0.86-0.83,1.83-1.07,2.8c-0.34,1.39-0.41,2.83-0.85,4.23
			c-0.32,1.02-0.88,1.67-1.64,2.27c-1.56,1.24-3.19,0.45-4.5-0.24c-2.11-1.1-2.4-2.53-2.05-4.73c0.19-1.15,1.7-1.82,2.6-1.26
			c0.65,0.41,0.71,0.92,0.15,1.44c-0.21,0.19-0.43,0.38-0.64,0.57c0.34,0.96,1.01,1.35,1.88,1.44c0.88,0.09,1.33-0.48,1.7-1.18
			c0.69-1.31,0.49-2.5-0.36-3.64c-1.23-1.66-3.61-2.26-5.5-0.75c-2.55,2.03-2.52,5.53-1.47,7.73c0.91,1.89,2.38,3.23,4.11,4.4
			c1.66,1.11,3.45,1.36,5.33,1.27c1.72-0.08,3.36-0.64,4.93-1.33c1.58-0.7,3.2-1.21,4.92-1.36c0.4-0.04,0.82-0.02,1.21,0.09
			c1,0.26,1.45,0.9,1.33,1.76c-0.1,0.67-0.75,1.14-1.67,1.17c-0.45,0.02-0.9-0.01-1.34,0.01c-1.26,0.07-1.94,0.98-1.7,2.2
			c0.09,0.46,0.37,0.63,0.8,0.53c0.22-0.05,0.43-0.14,0.62-0.25c0.65-0.38,1.24-0.29,1.91,0.02c0.7,0.33,1.46,0.59,2.22,0.72
			c0.66,0.12,1.08,0.42,1.39,0.97c0.21,0.37,0.5,0.69,0.75,1.03c1.29-0.85,1.56-1.62,0.92-2.64c-0.19-0.3-0.54-0.5-0.8-0.75
			c-0.43-0.4-0.91-0.77-1.26-1.23c-0.43-0.58-0.36-0.96,0.11-1.5c0.54-0.64,1.41-0.75,2.23-0.26c1.01,0.6,1.82,1.43,2.48,2.38
			c0.93,1.34,1.79,2.74,2.73,4.07c1.18,1.68,2.68,2.92,4.66,3.62c1.35,0.48,2.71,0.41,4.08,0.46c1.71,0.06,3.24-0.49,4.64-1.39
			c2.23-1.44,3.25-3.51,2.96-6.17c-0.1-0.95-0.45-1.82-1.14-2.48c-2.02-1.95-5.69-0.83-6.36,1.91c-0.19,0.78,0.16,1.62,0.84,2.01
			c0.85,0.49,1.59,0.4,2.28-0.28c0-0.08,0.03-0.17-0.01-0.22c-0.34-0.5-0.39-0.97,0.14-1.37c0.39-0.28,1.04-0.13,1.51,0.31
			c0.68,0.64,0.78,1.89,0.23,2.77c-1.18,1.89-3.37,2.51-5.7,1.68c-1.92-0.68-2.91-2.72-2.46-4.46c0.28-1.1,0.76-2.18,1.33-3.17
			c0.61-1.04,1.06-2.11,1.36-3.28c0.49-1.91-0.29-4.56-2.36-5.84c-0.99-0.61-2.09-1.11-3.29-0.71c-2.83,0.95-3.96,3.13-3.6,5.91
			c0.15,1.16,0.97,1.5,1.9,1.54c1.09,0.04,1.73-1.06,1.24-2.04c-0.12-0.23-0.29-0.43-0.42-0.66c-0.41-0.75,0.01-1.51,0.86-1.6
			c0.95-0.11,1.59,0.28,2.13,1.09c1.26,1.92-0.09,4.33-1.5,5.08c-1.83,0.96-3.6,0.69-5.24-0.23c-1.82-1.01-2.85-2.73-2.72-4.81
			c0.18-2.86,2.26-5.41,5.02-6.41c3.96-1.44,8.17,0.1,10.51,3.12c0.87,1.11,1.7,2.26,2.57,3.36c0.84,1.06,1.92,1.63,3.3,1.5
			c0.53-0.05,1.1-0.47,1.23-0.96c0.15-0.52-0.13-0.85-0.52-1.13c-0.3-0.22-0.6-0.43-0.91-0.63c-0.46-0.31-0.95-0.58-1.37-0.95
			c-0.52-0.45-0.67-1.38-0.38-1.94c0.27-0.52,1.04-0.83,1.77-0.56c0.69,0.26,1.32,0.65,1.96,1.03c1.12,0.68,2.27,0.68,3.4,0.12
			c0.74-0.37,1.49-0.45,2.28-0.37c0.81,0.08,1.36,0.84,1.08,1.6c-0.17,0.45-0.53,0.91-0.93,1.15c-0.56,0.34-1.23,0.49-1.86,0.7
			c-0.73,0.24-1.24,0.82-1.2,1.42c0.03,0.5,0.5,1.07,1.08,1.14c0.92,0.11,1.89,0.26,2.69-0.38c1.22-0.97,2.42-1.95,3.6-2.96
			c2.2-1.89,4.69-2.83,7.6-2.42c3.63,0.51,6.19,2.67,7.22,6.34c0.5,1.77-0.49,4.46-2.03,5.57c-1.83,1.32-3.82,1.45-5.82,0.56
			c-2.84-1.26-2.73-4.84-1.03-6.23c0.59-0.48,1.24-0.53,1.9-0.38c0.89,0.2,1.15,1.29,0.51,1.95c-0.15,0.16-0.35,0.28-0.49,0.46
			c-0.58,0.73-0.25,1.94,0.61,2.22c1.09,0.36,2.25-0.22,2.5-1.37c0.18-0.79,0.28-1.63,0.2-2.43c-0.26-2.6-2.52-4.41-4.68-4.13
			c-1.4,0.18-2.66,0.78-3.54,1.92c-1.19,1.56-1.7,3.3-1.16,5.25c0.32,1.18,0.74,2.35,0.98,3.54c0.22,1.12,0.43,2.3-0.17,3.39
			c-1.02,1.85-2.68,2.56-4.81,2.16c-1.77-0.34-2.89-1.37-3.47-3.07c-0.31-0.91,0.08-1.6,0.62-2.25c0.29-0.35,1.31-0.49,1.68-0.24
			c0.51,0.35,0.35,0.82,0.17,1.3c-0.23,0.61,0.03,1.11,0.62,1.27c1.06,0.3,2.29-0.47,2.47-1.53c0.23-1.34-0.84-3.27-2.14-3.71
			c-3.09-1.06-4.95,0.49-5.52,3.26c-0.42,2.03,0.23,3.89,1.65,5.45c1.4,1.54,3.18,2.38,5.18,2.81c2.83,0.61,5.43-0.01,7.72-1.67
			c1.25-0.91,2.33-2.09,3.4-3.21c0.97-1.01,2.09-1.79,3.3-2.45c0.39-0.21,0.83-0.35,1.26-0.41c1.12-0.15,2.03,0.91,1.6,1.92
			c-0.17,0.4-0.62,0.71-0.99,0.99c-0.36,0.26-0.83,0.36-1.18,0.62c-0.37,0.28-0.74,0.62-0.99,1.01c-0.33,0.52-0.06,1.42,0.51,1.78
			c0.62,0.39,0.92-0.12,1.26-0.52c0.55-0.63,1.21-0.94,2.08-0.76c0.38,0.08,0.82,0.03,1.21-0.07c1.01-0.24,1.95-0.34,2.82,0.48
			c0.49,0.47,1.07,0.19,1.25-0.48c0.27-1-0.1-1.73-1.12-2.1c-0.59-0.22-1.21-0.36-1.81-0.58c-0.88-0.32-1.19-0.79-1.07-1.58
			c0.1-0.68,0.72-1.25,1.5-1.2c0.69,0.04,1.41,0.16,2.07,0.38c1.68,0.56,3.06,1.67,4.51,2.63c1.79,1.19,3.69,2.13,5.88,2.17
			c3.15,0.05,5.83-1.1,7.96-3.41c1.95-2.11,2.46-5.36,1-7.75c-1.28-2.1-3.54-2.66-5.54-1.37c-1.21,0.78-1.96,2.67-1.47,4.01
			c0.16,0.42,0.49,0.83,0.85,1.11c0.52,0.4,1.65,0.25,2.1-0.12c0.68-0.56,0.26-1.01-0.06-1.54c-0.32-0.54-0.08-1.03,0.52-1.22
			c0.9-0.28,2.04,0.38,2.2,1.37c0.15,0.96,0.13,1.9-0.47,2.79c-0.78,1.17-1.9,1.69-3.16,2.12c-1.54,0.52-3.81-0.55-4.5-2.08
			c-0.67-1.46-0.69-2.96-0.46-4.48c0.23-1.5,0.26-3.02-0.3-4.42c-0.68-1.69-1.99-2.75-3.78-3.36c-1.62-0.56-4.12,0.45-4.92,1.94
			c-0.77,1.42-0.78,2.88-0.42,4.33c0.23,0.91,0.73,1.8,1.83,2.06c1.14,0.27,2.19-0.67,2.04-1.81c-0.08-0.59-0.54-0.77-0.95-1.01
			c-0.45-0.27-0.77-0.63-0.7-1.17c0.07-0.52,0.43-0.85,0.9-1.06c0.55-0.24,1.09-0.24,1.61,0.05c1.83,1.02,2.46,3.31,1.48,5.02
			c-0.78,1.37-2.06,2.07-3.6,2.37c-1.86,0.36-3.45-0.15-4.81-1.44c-2.3-2.16-1.89-6.08-0.26-8.45c1.16-1.69,2.79-2.69,4.73-3.35
			c2.35-0.8,4.58-0.49,6.74,0.48c1.35,0.6,2.59,1.44,3.9,2.15c1.17,0.64,2.39,0.79,3.66,0.27c0.59-0.24,0.97-0.75,0.92-1.26
			c-0.06-0.59-0.41-0.97-0.97-1.1c-0.58-0.13-1.17-0.21-1.76-0.25c-0.66-0.05-1.25-0.23-1.68-0.75c-0.63-0.75-0.49-1.54,0.33-2.09
			c0.72-0.49,1.51-0.46,2.26-0.2c1.57,0.55,2.75-0.04,3.82-1.1c0.34-0.34,0.68-0.69,1.06-0.99c0.55-0.44,1.56-0.49,1.99-0.14
			c0.62,0.51,0.75,1.29,0.25,2.09c-0.27,0.43-0.66,0.78-1.01,1.15c-0.26,0.27-0.57,0.48-0.81,0.76c-0.41,0.47-0.43,1.08-0.17,1.57
			c0.26,0.51,0.82,0.54,1.38,0.46c1.2-0.17,2.06-0.83,2.61-1.88c0.64-1.22,1.23-2.46,1.81-3.7c1.35-2.92,3.56-4.72,6.71-5.46
			c3.25-0.76,5.92,0.2,8,2.67c1.94,2.29,2.07,4.66,0.26,7.03c-1.12,1.46-2.72,2.12-4.5,2.09c-2.91-0.05-4.35-2.52-3.65-4.89
			c0.2-0.67,0.68-1.11,1.27-1.31c0.4-0.13,1.03-0.09,1.36,0.14c0.42,0.31,0.68,0.84,0.24,1.47c-0.19,0.26-0.16,0.72-0.13,1.09
			c0.04,0.69,0.82,1.28,1.49,1.19c0.97-0.13,1.98-1.4,1.77-2.39c-0.3-1.45-0.91-2.74-2.16-3.66c-2.56-1.91-5.98-0.8-7.06,2.44
			c-0.66,1.98-0.27,3.91,1.01,5.6c0.88,1.14,1.84,2.22,2.68,3.4c1.01,1.41,1.24,2.93,0.28,4.49c-0.73,1.18-1.87,1.77-3.17,2.08
			c-1.55,0.37-2.88-0.14-3.98-1.22c-0.88-0.86-0.98-2.14-0.31-2.94c0.34-0.4,0.78-0.6,1.29-0.46c0.51,0.14,0.69,0.5,0.58,1.04
			c-0.1,0.54,0.22,0.87,0.71,0.95c1.07,0.17,2.4-1.37,2.04-2.38c-0.52-1.45-1.56-2.36-3.11-2.53c-1.46-0.15-2.7,0.32-3.6,1.55
			c-0.92,1.25-0.78,2.71-0.42,3.99c0.6,2.12,2.15,3.53,4.27,4.21c1.93,0.62,3.88,0.6,5.84,0.05c1.93-0.53,3.56-1.48,4.82-3.04
			c1.13-1.41,1.83-3.03,2.42-4.73c0.4-1.15,0.87-2.3,1.46-3.37c0.42-0.76,1.06-1.43,1.68-2.06c0.48-0.48,1.47-0.43,1.97-0.04
			c0.5,0.4,0.65,0.98,0.29,1.71c-0.26,0.52-0.68,0.95-1.06,1.4c-0.6,0.73-0.79,1.61-0.3,2.25c0.27,0.34,0.74,0.67,1.16,0.73
			c0.49,0.07,0.54-0.52,0.69-0.89c0.04-0.1,0.02-0.25,0.09-0.32c0.33-0.37,0.63-0.8,1.04-1.08c0.63-0.44,1.36-0.74,2.01-1.15
			c0.65-0.41,1.24-0.74,2.07-0.38c0.83,0.36,1.28-0.1,1.13-0.99c-0.15-0.88-0.79-1.46-1.7-1.45c-0.4,0-0.8,0.15-1.2,0.2
			c-0.44,0.06-0.9,0.18-1.32,0.1c-1.21-0.22-1.64-1.5-0.76-2.36c0.37-0.36,0.94-0.61,1.45-0.71c1.1-0.2,2.21-0.28,3.34-0.07
			c1.28,0.25,2.57,0.42,3.87,0.58c1.34,0.17,2.67,0.25,4-0.11c3.11-0.82,5.33-2.73,6.72-5.58c1-2.06,1.26-4.18,0.25-6.36
			c-0.74-1.61-2-2.62-3.6-3.11c-1.37-0.41-2.64,0.06-3.81,1.5c-0.96,1.19-0.88,2.55-0.37,3.9c0.12,0.3,0.34,0.58,0.57,0.82
			c0.46,0.49,1.53,0.59,2.21,0.26c0.67-0.33,0.92-0.85,0.8-1.75c-0.19-0.08-0.41-0.14-0.59-0.26c-0.73-0.49-0.73-0.93-0.03-1.48
			c0.92-0.72,2.15-0.35,2.77,0.84c0.89,1.72,0.47,3.29-0.7,4.66c-1.53,1.78-3.91,2.33-5.86,0.82c-0.69-0.54-1.15-1.27-1.48-2.06
			c-0.48-1.16-0.9-2.35-1.36-3.53c-0.89-2.28-3.25-4.15-6.06-3.78c-1.49,0.2-2.73,0.87-3.5,2.28c-1.17,2.11-0.2,4.98,1.69,6.35
			c0.76,0.55,1.6,0.57,2.42,0.06c0.57-0.35,0.82-0.97,0.69-1.64c-0.1-0.55-0.6-0.95-1.29-1.02c-0.15-0.02-0.3,0.01-0.45-0.02
			c-0.85-0.15-1.24-1.12-0.74-1.82c0.62-0.87,1.69-1.15,2.69-0.69c0.3,0.14,0.6,0.3,0.88,0.48c1.11,0.73,1.86,2.39,1.58,3.58
			c-0.72,3.1-4.76,5.87-8.37,3.48c-1.84-1.21-2.55-3.08-2.73-5.14c-0.21-2.43,0.65-4.51,2.38-6.25c2.33-2.35,5.09-3.37,8.39-2.93
			c1.14,0.16,2.3,0.24,3.45,0.3c1.3,0.06,2.41-0.37,3.22-1.46c0.28-0.38,0.52-0.74,0.25-1.22c-0.28-0.5-0.7-0.8-1.29-0.69
			c-0.58,0.11-1.15,0.3-1.73,0.44c-0.43,0.1-0.87,0.22-1.3,0.22c-0.67-0.01-1.31-0.57-1.49-1.18c-0.19-0.66,0.22-1.07,0.65-1.43
			c0.28-0.23,0.63-0.39,0.97-0.52c0.45-0.17,0.93-0.26,1.39-0.41c1.22-0.4,2-1.18,2.32-2.47c0.14-0.56,0.45-1.12,0.82-1.56
			c0.37-0.44,0.88-0.84,1.57-0.58c0.71,0.27,1.06,0.74,0.99,1.56c-0.04,0.51-0.22,1-0.38,1.49c-0.16,0.49-0.43,0.96-0.53,1.46
			c-0.2,1,0.62,1.64,1.59,1.29c1.03-0.37,1.91-1.57,1.94-2.76c0.04-1.27,0.03-2.54,0.04-3.81c0.01-2.35,0.69-4.48,2.1-6.36
			c1.22-1.63,2.85-2.78,4.8-3.28c1.96-0.5,3.92-0.31,5.75,0.66c2.33,1.24,3.27,3.21,3.08,5.37c-0.16,1.92-1.24,3.4-2.93,4.38
			c-2.09,1.22-5,0.57-5.79-2.27c-0.28-0.98,0.13-2.01,0.98-2.52c0.72-0.43,1.65,0.02,1.75,0.86c0.02,0.18-0.06,0.37-0.05,0.55
			c0.06,0.58,0.25,1.08,0.88,1.29c0.64,0.22,1.17,0.09,1.64-0.38c0.62-0.64,0.73-1.83,0.22-2.57c-0.84-1.25-1.96-2.09-3.44-2.49
			c-1.42-0.39-2.67-0.03-3.73,0.89c-1.56,1.35-1.97,3.1-1.52,5.07c0.52,2.28,2.17,3.53,4.14,4.51c1.09,0.55,2.22,1.06,3.22,1.75
			c1.17,0.8,1.8,2.01,1.66,3.47c-0.15,1.65-1.17,2.77-2.52,3.61c-1.4,0.87-2.82,0.84-4.23-0.03c-0.58-0.36-0.89-0.91-1.04-1.53
			c-0.16-0.66,0.36-1.58,0.94-1.73c0.73-0.19,0.87,0.4,1.06,0.87c0.18,0.45,0.5,0.49,0.9,0.42c1.04-0.18,1.74-1.72,1.2-2.64
			c-0.91-1.59-3.04-1.85-4.55-1.14c-2.29,1.07-2.8,3.49-1.48,5.67c1.35,2.23,3.49,3.04,5.99,2.91c2.48-0.13,4.55-1.27,6.31-2.97
			c1.54-1.5,2.53-3.34,2.7-5.48c0.15-1.82-0.01-3.66-0.01-5.48c0-1.04-0.01-2.09,0.12-3.12c0.07-0.57,0.36-1.13,0.64-1.64
			c0.33-0.6,1.13-0.87,1.74-0.7c0.7,0.19,1.06,0.68,0.97,1.54c-0.07,0.58-0.3,1.14-0.47,1.71c-0.32,1.03,0.04,1.84,1.03,2.28
			c0.35,0.16,0.67,0.31,1.03,0.01c0.34-0.28,0.4-0.61,0.28-1c-0.29-0.9,0.05-1.57,0.72-2.18c0.34-0.32,0.62-0.73,0.84-1.15
			c0.44-0.82,0.88-1.49,1.98-1.56c0.89-0.06,1.07-0.65,0.59-1.44c-0.3-0.5-0.76-0.76-1.31-0.68c-0.5,0.07-0.99,0.28-1.44,0.5
			c-0.4,0.19-0.73,0.52-1.12,0.73c-0.82,0.44-1.34,0.33-1.87-0.34c-0.45-0.57-0.48-1.4,0.09-1.94c0.59-0.55,1.25-1.11,1.98-1.4
			c1.49-0.57,3.04-0.96,4.57-1.42c1.42-0.43,2.82-0.89,4.12-1.66c3.33-1.99,5.42-7.51,3.9-11.29c-0.98-2.44-2.65-3.92-5.27-4.19
			c-1.55-0.16-3.21,0.48-4.05,2.8c-0.42,1.14,0.32,3.24,1.48,4.05c0.78,0.54,1.82,0.51,2.47-0.07c0.77-0.69,0.84-1.3,0.26-2.26
			c-0.16,0.01-0.35,0.06-0.53,0.03c-0.88-0.11-1.12-0.67-0.62-1.41c0.59-0.87,1.72-1.05,2.66-0.36c1.4,1.04,1.81,2.47,1.5,4.15
			c-0.59,3.25-3.93,4.92-6.64,2.87c-0.85-0.64-1.6-1.44-2.33-2.24c-1.92-2.11-4.15-3.3-7.05-2.42c-2.28,0.69-3.81,2.92-3.18,5.28
			c0.56,2.1,2.02,3.32,4.12,3.79c0.71,0.16,1.33-0.1,1.85-0.57c0.44-0.4,0.58-1.44,0.3-1.99c-0.23-0.45-0.75-0.65-1.47-0.55
			c-0.26,0.03-0.51,0.11-0.77,0.14c-0.84,0.07-1.38-0.49-1.22-1.3c0.15-0.73,0.55-1.28,1.29-1.54c1.99-0.69,4.08,0.54,4.73,2.58
			c0.39,1.21-0.05,2.29-0.46,3.36c-0.74,1.94-3.3,3.47-5.29,3.21c-2.82-0.37-4.49-2.13-5.5-4.64c-0.73-1.81-0.67-3.6-0.04-5.45
			c0.92-2.68,2.62-4.64,5.21-5.75c1.32-0.57,2.73-0.94,4.09-1.43c0.45-0.16,0.93-0.34,1.31-0.62c0.93-0.67,1.69-1.47,1.58-2.76
			c-0.08-0.94-0.85-1.39-1.65-0.91c-0.38,0.22-0.69,0.55-1.05,0.81c-0.47,0.35-0.92,0.76-1.44,1.01c-0.65,0.32-1.44,0.09-1.82-0.39
			c-0.36-0.47-0.36-1.32,0.11-1.87c0.38-0.45,0.82-0.86,1.3-1.21c0.95-0.69,1.43-1.59,1.44-2.75c0-0.52-0.09-1.05-0.04-1.56
			c0.05-0.47,0.15-0.96,0.37-1.37c0.43-0.83,1.17-0.96,1.97-0.47c0.6,0.38,0.83,0.93,0.84,1.61c0.01,0.71-0.01,1.42,0.03,2.13
			c0.03,0.54,0.4,0.89,0.89,1.02c0.44,0.12,0.9,0.1,1.18-0.38c0.18-0.32,0.42-0.61,0.54-0.95c0.45-1.19,0.17-2.3-0.3-3.45
			c-0.68-1.68-1.53-3.28-1.91-5.1c-0.36-1.73-0.18-3.38,0.4-4.94c1.09-2.91,3.06-4.97,6.26-5.6c1.63-0.32,3.21-0.21,4.66,0.64
			c3.09,1.82,3.39,5.73,1.29,8.33c-1.53,1.88-4.22,2.14-6.01,0.06c-0.53-0.62-0.73-1.86-0.29-2.51c0.23-0.34,0.65-0.66,1.04-0.74
			c0.51-0.11,0.9,0.24,1.06,0.78c0.05,0.17,0.19,0.32,0.26,0.49c0.44,0.98,2.06,0.86,2.52-0.2c0.38-0.88,0.07-1.96-0.74-2.55
			c-0.85-0.62-1.81-0.94-2.81-0.98c-1.5-0.06-2.94,0.3-3.91,1.53c-1.77,2.24-1.01,5.25,0.87,6.91c1.42,1.25,3.1,1.47,4.87,1.59
			c1.26,0.09,2.53,0.15,3.77,0.38c2.27,0.42,3.63,2.86,2.88,5.04c-0.14,0.42-0.31,0.84-0.53,1.23c-0.71,1.22-1.77,2-3.17,2.24
			c-1.03,0.17-1.92-0.17-2.57-0.99c-0.39-0.5-0.36-1.46,0.04-1.87c0.36-0.38,0.6-0.35,1.42,0.23c0.39,0.28,0.74,0.3,1.1-0.03
			c0.88-0.79,0.79-2.54-0.5-3.08c-1.21-0.52-2.94-0.39-4.12,0.87c-1.27,1.34-1.4,3.04-0.66,4.35c1.18,2.09,4.11,3.09,6.08,2.62
			c2.43-0.58,4.23-2,5.57-3.99c0.93-1.39,1.52-2.93,1.65-4.68c0.18-2.46-0.6-4.6-1.71-6.7c-0.76-1.44-1.62-2.85-1.95-4.48
			c-0.13-0.65-0.21-1.33-0.17-1.99c0.04-0.72,0.73-1.36,1.36-1.46c0.6-0.09,1.19,0.31,1.47,1.13c0.18,0.52,0.27,1.09,0.28,1.64
			c0.02,0.77,0.46,1.24,1.01,1.64c0.45,0.32,1.16,0.24,1.57-0.11c0.51-0.44,0.23-0.86,0-1.29c-0.04-0.06-0.08-0.13-0.12-0.19
			c-0.46-0.56-0.41-1.13-0.16-1.78c0.21-0.54,0.36-1.13,0.39-1.71c0.04-0.92,0.3-1.67,1.15-2.14c0.19-0.11,0.38-0.27,0.48-0.45
			c0.09-0.17,0.14-0.45,0.06-0.61c-0.35-0.76-1.42-1.08-2.11-0.61c-0.38,0.26-0.67,0.66-0.97,1.02c-0.42,0.51-0.75,1.12-1.25,1.53
			c-0.78,0.63-1.88,0.17-2.05-0.82c-0.07-0.42-0.09-0.98,0.12-1.3c0.65-0.98,1.29-2.05,2.19-2.78c1.38-1.11,2.77-2.2,4.04-3.43
			c0.66-0.64,1.25-1.29,1.76-2.09c0.8-1.25,1.04-2.61,1.23-3.99C387.69,259.82,387.11,257.86,386.14,256.01z M250,362.81
			c-62.2,0-112.81-50.61-112.81-112.81S187.8,137.19,250,137.19c62.2,0,112.81,50.61,112.81,112.81S312.2,362.81,250,362.81z"/>
	</g>
</g>
</svg>
