<?xml version="1.0" encoding="utf-8"?>
<!-- Generator: Adobe Illustrator 26.5.0, SVG Export Plug-In . SVG Version: 6.00 Build 0)  -->
<svg version="1.1" id="Layer_1" xmlns="http://www.w3.org/2000/svg" xmlns:xlink="http://www.w3.org/1999/xlink" x="0px" y="0px"
	 viewBox="0 0 500 500" style="enable-background:new 0 0 500 500;" xml:space="preserve">
<style type="text/css">
	.st0{fill:#131313;}
</style>
<path class="st0" d="M258.31,262.98c3.32,1.91,7,3.2,11.09,3.12c7.94-0.16,14.06-3.93,18.31-10.24c5.57-8.27,1.33-20.36-5.59-23.49
	c-3.44-1.55-6.86-1.94-10.27-0.17c-1.21,0.63-2.33,1.53-3.26,2.53c-1.51,1.61-1.82,3.67-0.91,5.1c1.05,1.65,2.56,1.16,4.14,0.88
	c3.19-0.57,4.82,0.32,6,2.94c1.11,2.45,0.65,4.89-1.35,6.76c-0.55,0.52-1.22,0.94-1.9,1.3c-4.67,2.5-11.64,0.67-14.94-3.89
	c-6.6-9.13-3.7-21.24,6.35-26.54c0.94-0.5,1.89-0.97,3.23-1.65c-1.02-0.78-1.78-1.43-2.62-1.99c-5.42-3.65-8.78-8.64-9.82-15.11
	c-0.66-4.13,0.61-5.45,4.84-4.84c6.93,0.99,11.78,5.09,15.57,10.69c0.17,0.25,0.25,0.58,0.42,0.83c0.17,0.24,0.41,0.42,0.93,0.94
	c0.74-1.35,1.4-2.63,2.13-3.86c6.77-11.29,20.8-12.02,28.35-3.5c3.34,3.77,3.82,10.17,1.17,13.83c-2.64,3.65-7.32,3.76-9.67,0.05
	c-0.66-1.04-0.82-2.62-0.65-3.88c0.22-1.61,0.56-3.1-0.97-4.18c-1.31-0.92-3.44-0.5-5.12,0.89c-4.05,3.35-4.88,9.72-1.86,14.35
	c5.4,8.29,18.03,9.81,25.28,3.1c3.98-3.69,6.76-8.05,7.78-13.4c0.98-5.11-0.24-9.81-3.43-14.72c2.02,0.36,3.56,0.67,5.12,0.91
	c7.72,1.18,14.79-0.24,20.85-5.43c3.22-2.76,3.32-4.28-0.1-7.01c-6.15-4.92-13.26-6.41-20.98-5.18c-1.37,0.22-2.71,0.58-4.37,0.94
	c0.62-1.48,1.13-2.74,1.67-3.99c2.82-6.56,1.7-12.78-1.91-18.6c-1.69-2.73-3.77-5.17-6.55-7.11c-6.15-4.29-16.85-3.19-22.09,2.81
	c-3.88,4.44-4.24,10.25-0.63,14.88c0.81,1.04,2.02,1.96,3.25,2.44c2.48,0.97,4.47-0.89,4.12-3.63c-0.56-4.43,0.77-6.74,4.21-7.3
	c3.18-0.52,6.81,2.33,7.51,6.15c0.87,4.8-0.64,8.83-4.37,12.03c-9.22,7.94-22.42,3.59-27.3-6.46c-0.44-0.91-0.79-1.87-1.26-3
	c-6.96,10.25-14.35,14.38-21.44,12.2c-1.89-7.39,2.61-15.23,12.44-21.15c-1.27-0.58-2.31-1-3.31-1.51
	c-8.61-4.4-13.46-15.15-8.2-24.37c2.63-4.6,6.42-7.47,11.98-7.47c2.85,0,5.08,1.24,6.88,3.32c1.6,1.84,1.85,4.04,0.79,6.04
	c-1.16,2.2-3.17,3.2-5.78,2.86c-0.91-0.12-1.85-0.52-2.7-0.37c-1.74,0.31-2.62,2.6-1.83,4.53c1.31,3.19,3.98,4.66,7.15,5.24
	c5.12,0.93,10.45-1.89,13.15-6.81c5.14-9.34,1.86-19.69-8.14-25.23c-6.34-3.52-12.87-4.14-19.5-0.66c-0.54,0.28-1.13,0.46-1.71,0.66
	c-0.12,0.04-0.3-0.07-0.26-0.06c0.28-3.54,0.87-7.05,0.76-10.53c-0.18-5.72-2.11-10.93-6.04-15.21c-2.29-2.49-3.49-2.5-5.75-0.11
	c-5.5,5.81-7.16,12.84-6.23,20.6c0.22,1.81,0.67,3.6,1.09,5.84c-1.68-0.83-2.94-1.54-4.27-2.1c-12.05-5.05-26.6,4.72-27.88,14.9
	c-0.87,6.87,1.17,12.55,6.76,16.77c4.47,3.38,11.08,2.58,14.67-1.67c0.4-0.47,0.84-0.95,1.07-1.5c1.19-2.83-0.46-5.06-3.5-4.55
	c-1.71,0.29-3.26,0.72-4.84-0.5c-3.67-2.85-3.43-7.62,0.57-10.02c4.11-2.46,9.99-1.72,13.8,1.74c6.66,6.07,7.28,16.58,1.31,23.49
	c-1.21,1.4-2.56,2.74-4.05,3.82c-1.46,1.06-3.17,1.77-4.79,2.64c2.52,2.29,5.11,4.41,7.44,6.79c2.9,2.97,4.36,6.73,4.83,10.82
	c0.42,3.68-0.87,4.98-4.49,4.45c-6.65-0.97-11.8-4.38-15.53-9.96c-0.43-0.64-0.83-1.3-1.26-1.94c-0.07-0.11-0.25-0.15-0.27-0.16
	c-2.14,2.72-3.96,5.75-6.45,8.06c-6.78,6.28-15.88,6.28-23.19,0.14c-4.13-3.47-5.19-10.05-2.67-14.41c1.66-2.86,4.66-4.12,7.44-3.1
	c2.91,1.07,3.88,2.95,3.25,6.66c-0.24,1.42-0.63,2.83,0.92,3.69c1.48,0.82,3.06,0.7,4.39-0.29c2.46-1.82,4.08-4.18,4.37-7.34
	c0.54-5.8-2.66-10.77-8.69-13.38c-8.16-3.52-16.86-0.84-22.01,6.76c-5.03,7.44-6.03,15.1-1.38,23.12c0.12,0.2,0.06,0.51,0.08,0.67
	c-3.37-0.33-6.73-0.96-10.08-0.93c-5.73,0.05-10.96,1.86-15.29,5.78c-3.05,2.76-3.05,4.76,0.14,7.1c5.71,4.18,12.1,6.16,19.22,5.26
	c1.84-0.23,3.65-0.66,5.89-1.07c-0.35,1.07-0.54,2.02-0.95,2.87c-5.1,10.56,0.06,21.46,9.07,27.4c6.56,4.32,17.1,1.91,21.8-4.41
	c2.89-3.87,3.1-9.61,0.3-13.51c-0.77-1.07-1.99-1.9-3.15-2.6c-1.29-0.78-2.66-0.66-3.87,0.4c-1.08,0.95-1.02,1.97-0.75,3.33
	c0.9,4.68-2.68,8.21-6.88,6.82c-2.15-0.71-3.58-2.38-4.42-4.49c-1.58-3.97-0.83-7.78,1.65-10.96c8.23-10.56,21.61-7.37,27.57,0.6
	c1.36,1.82,2.23,3.99,3.45,6.24c2.29-3.64,4.53-7.43,8.45-9.43c2.85-1.46,5.91-2.71,9.02-3.37c3.62-0.76,4.87,0.63,4.34,4.41
	c-0.83,5.91-3.53,10.84-8.39,14.44c-1.35,1-2.82,1.84-4.54,2.95c1.51,0.74,2.86,1.3,4.12,2.02c10.24,5.85,12.53,17.79,5.18,26.97
	c-4.11,5.13-12.38,5.87-16.42,1.46c-1.74-1.9-2.17-4.34-1.14-6.42c1.18-2.37,3.39-3.63,6.18-2.85c1.77,0.49,3.01,0.49,4.01-1.04
	c0.98-1.49,0.64-3.37-0.83-5.11c-3.52-4.2-10.97-4.62-15.63-0.85c-7.65,6.19-7.57,18.59-2.05,24.14c4.93,4.95,10.3,8.66,17.44,8.26
	c3.61-0.2,7.15-1.61,10.88-2.52c-0.19,0.85-0.48,2.07-0.72,3.29c-1.49,7.54,0.15,14.44,4.37,20.78c0.34,0.51,0.72,1.01,1.15,1.46
	c2.18,2.31,3.68,2.38,5.88,0.11c3.94-4.05,6.07-9.02,6.29-14.6C259.12,270.76,258.56,266.91,258.31,262.98z"/>
<g>
	<path class="st0" d="M356.53,436c-2.88-0.87-5.57-1.89-7.57-4.22c-3.77-4.39-5.34-9.23-3.12-14.84c2.31-5.83,6.91-8.52,12.93-8.74
		c5.45-0.2,10.92-0.05,16.38-0.05c1.03,0,2.06,0,3.16,0c0.66-1.85,0.24-3.6,0.35-5.54c-0.84-0.09-1.55-0.22-2.26-0.23
		c-5.84-0.02-11.67,0.09-17.51-0.04c-6.96-0.15-12.11-4.32-13.64-10.52c-1.21-4.89,0.3-9.09,3.45-12.79
		c2.01-2.37,4.69-3.7,7.81-4.46c0.25-0.73,0.49-1.52,0.79-2.3c2.11-5.54,6.27-8.66,11.99-9.39c5.91-0.75,10.37,1.94,13.4,6.96
		c1.28,2.12,1.77,4.52,1.76,7.02c-0.01,5.46,0,10.93,0,16.39c0,0.92,0,1.85,0,3.06c1.14,0,2.06,0,2.97,0c0.82,0,1.65,0,2.64,0
		c0.07-0.95,0.16-1.67,0.16-2.4c0.01-4.8-0.03-9.61,0.03-14.41c0.02-1.97,0.05-3.97,0.43-5.89c1.13-5.78,5.96-10.29,12.14-10.8
		c6.66-0.55,13.56,3.91,15.21,11.55c1.28,0.5,2.62,0.92,3.87,1.52c7.63,3.67,10.32,13.75,5.59,20.38c-2.9,4.07-6.87,6-11.76,6.08
		c-5.46,0.09-10.92,0.02-16.38,0.02c-0.92,0-1.84,0-2.91,0c0,1.97,0,3.71,0,5.64c0.78,0.04,1.5,0.12,2.22,0.12
		c5.65,0.01,11.3-0.04,16.94,0.02c3.77,0.04,7.16,1.19,10,3.82c4.9,4.53,5.18,11.77,2.54,16.56c-1.92,3.49-4.67,5.82-8.46,6.95
		c-0.53,0.16-1.05,0.36-1.63,0.57c-1.33,5.99-5.09,9.71-10.91,11.28c-7.99,2.15-15.93-3.87-16.49-11.14
		c-0.4-5.15-0.3-10.34-0.39-15.51c-0.04-2.05-0.01-4.1-0.01-6.33c-1.97,0-3.7,0-5.67,0c-0.03,0.95-0.09,1.86-0.1,2.77
		c-0.01,5.65,0.06,11.3-0.02,16.95c-0.1,6.42-4.34,11.42-9.74,13.11c-6.66,2.08-14.2-1.76-16.77-7.56
		C357.43,438.52,357.05,437.36,356.53,436z M371.49,426.55c0.69,0.61,1.17,1.05,1.66,1.48c3.77,3.32,2.45,9.63-2.66,10.88
		c-0.79,0.19-1.47,0.36-2.07-0.27c-0.64-0.67-0.31-1.3,0.04-2.04c0.39-0.81,0.68-1.76,0.67-2.65c-0.01-1.27-1.33-2.19-2.56-2.03
		c-2.24,0.3-3.93,3.2-3.18,5.33c1.08,3.04,4.42,4.9,7.59,4.74c3.27-0.16,6.46-2.7,7.16-5.82c0.28-1.28,0.49-2.6,0.5-3.9
		c0.05-5.37,0.03-10.73,0-16.1c0-0.7-0.19-1.39-0.27-1.99c-5.92,0-11.55-0.01-17.18,0.01c-1.32,0-2.64,0-3.94,0.15
		c-2.83,0.34-5.77,2.52-6.61,6.8c-0.45,2.28,0.9,6.5,4.26,7.89c2.11,0.87,4.39,0.09,5.43-1.99c0.44-0.89,0.56-1.79-0.09-2.65
		c-0.71-0.93-1.68-1.2-2.76-0.93c-0.53,0.13-0.97,0.59-1.5,0.72c-0.59,0.15-1.37,0.33-1.82,0.07c-0.69-0.4-0.56-1.21-0.39-2.01
		c0.89-4.39,6.3-6.7,10.39-3.18c0.68,0.58,1.25,1.29,1.94,2.03c2.3-2.91,5.03-4.16,8.76-3.18
		C375.96,421.53,374.33,424.16,371.49,426.55z M366.19,389.56c-0.84,0.79-1.49,1.47-2.2,2.07c-1.97,1.64-4.24,2-6.59,1.12
		c-2.2-0.82-3.29-2.73-3.83-4.91c-0.34-1.33,0.74-2.19,2.04-1.7c0.61,0.23,1.12,0.73,1.73,0.93c1.68,0.54,3.44-0.72,3.35-2.35
		c-0.12-2.29-2.94-4.21-5.11-3.47c-4.54,1.56-6.4,7.3-3.66,11.4c1.63,2.44,3.91,3.69,6.89,3.67c6.12-0.03,12.23,0,18.35-0.01
		c0.44,0,0.87-0.12,1.31-0.19c0.09-0.43,0.2-0.7,0.2-0.96c0.01-5.84,0.05-11.67-0.02-17.51c-0.02-1.29-0.22-2.65-0.68-3.86
		c-1.16-3.06-3.44-4.93-6.73-5.2c-3.26-0.27-5.88,1.01-7.5,3.95c-1.23,2.23-0.27,4.79,2.08,5.79c1.82,0.77,3.52-0.36,3.34-2.34
		c-0.07-0.8-0.62-1.54-0.83-2.34c-0.14-0.5-0.28-1.27-0.03-1.54c0.38-0.4,1.18-0.74,1.68-0.61c2.25,0.57,4.13,1.62,4.94,4.1
		c0.82,2.51,0.29,4.61-1.4,6.5c-0.61,0.67-1.32,1.25-1.99,1.88c3.54,3.09,4.39,5.75,2.92,8.77
		C370.95,393.57,368.23,392.26,366.19,389.56z M408.73,421.35c1.34-2.37,3.03-3.5,5.33-3.88c3.37-0.55,6.77,1.89,7.1,5.23
		c0.14,1.4-0.8,2.14-2.11,1.64c-0.78-0.29-1.51-0.8-2.31-0.93c-1.5-0.24-2.87,1.08-2.76,2.46c0.18,2.17,3.15,4.05,5.26,3.33
		c3.2-1.09,5.1-4.34,4.74-8.08c-0.33-3.42-3.14-6.38-6.5-6.79c-1.02-0.12-2.07-0.15-3.1-0.16c-5.36-0.01-10.73-0.01-16.09,0.01
		c-0.62,0-1.24,0.1-1.71,0.14c-0.17,0.31-0.25,0.39-0.25,0.47c-0.01,6.59-0.08,13.18,0.02,19.77c0.05,3.45,2.58,6.27,6.09,7.23
		c2.82,0.77,6.45-0.62,8.19-3.13c1.59-2.3,1.04-4.88-1.35-6.28c-1.11-0.65-2.03-0.63-2.88,0.05c-0.91,0.73-1.26,1.96-0.81,3.04
		c0.21,0.52,0.73,0.95,0.8,1.47c0.08,0.58-0.01,1.33-0.34,1.77c-0.24,0.31-1.05,0.42-1.51,0.28c-2.26-0.67-4.25-1.86-4.78-4.3
		c-0.56-2.58-0.23-5.09,2.02-6.94c0.42-0.34,0.86-0.65,1.5-1.13c-2.88-2.3-4.4-5.02-3.34-8.73
		C403.59,416.9,406.37,418.15,408.73,421.35z M403.4,383.84c-0.7-0.45-1.02-0.63-1.31-0.84c-2.46-1.79-2.89-4.35-2.36-7.06
		c0.48-2.48,2.47-3.67,4.71-4.35c0.52-0.16,1.33,0.03,1.76,0.37c0.3,0.25,0.33,1.05,0.22,1.54c-0.14,0.62-0.58,1.18-0.81,1.79
		c-0.4,1.06-0.12,2.08,0.75,2.77c0.8,0.64,1.64,0.73,2.62,0.25c2.48-1.22,3.3-3.82,1.86-6.14c-2.28-3.66-7.32-4.77-10.88-2.34
		c-2.31,1.58-3.65,3.73-3.65,6.62c0,6.12-0.02,12.24-0.01,18.37c0,0.44,0.11,0.89,0.2,1.52c0.77,0,1.41,0,2.05,0
		c5.55,0,11.11,0,16.66-0.01c0.75,0,1.51-0.02,2.25-0.11c2.99-0.37,5.96-3.01,6.46-5.9c0.68-3.96-0.88-6.94-3.54-8.56
		c-2.28-1.39-4.69-0.62-5.92,1.75c-0.47,0.91-0.61,1.78,0.03,2.63c0.69,0.91,1.67,1.25,2.76,0.96c0.62-0.16,1.16-0.61,1.76-0.86
		c1.34-0.55,2.28,0.13,2.18,1.53c-0.25,3.27-3.75,5.95-7.05,5.4c-2.34-0.39-4.08-1.67-5.34-3.8c-2.48,2.97-5.27,4.41-8.91,3.21
		C398.98,388.87,400.33,386.16,403.4,383.84z M390.11,408.04c0.13-2.02,0.2-3.74-0.02-5.51c-1.95,0-3.67,0-5.59,0
		c0.03,1.95-0.35,3.75,0.26,5.51C386.54,408.04,388.2,408.04,390.11,408.04z"/>
	<path class="st0" d="M267.74,441.94c-3.71,3.25-6.73,3.2-11.86-0.12c-0.7,1.34-1.26,2.79-2.15,3.99c-1.92,2.6-3.31,2.59-5.37,0.12
		c-0.52-0.62-0.94-1.34-1.28-2.08c-0.34-0.73-0.51-1.54-0.82-2.49c-2.02,1.92-4.25,3.37-7.04,2.91c-1.79-0.29-3.71-0.69-5.08-2.63
		c0.66-0.27,1.03-0.45,1.43-0.57c6.11-1.84,9.71-6.14,11.71-11.99c1.11-3.26,1.3-6.65,0.73-9.99c-0.78-4.57-3.63-7.64-7.81-9.5
		c-3.44-1.53-7.1-1.73-10.72-1.11c-4.3,0.73-7.27,3.41-8.57,7.53c-1.38,4.39-0.5,8.54,2.72,11.9c2.53,2.63,5.7,3.53,9.25,2.23
		c3.65-1.34,5.36-5.8,3.61-9.28c-0.56-1.12-1.44-1.88-2.7-2.09c-1.45-0.25-2.33,0.64-2.04,2.04c0.13,0.62,0.36,1.23,0.62,1.81
		c0.45,1.01,0.55,1.93-0.44,2.68c-0.98,0.74-2.02,0.77-3.07,0.21c-0.39-0.21-0.77-0.49-1.08-0.81c-3.12-3.24-2.02-8.67,2.09-10.48
		c6.36-2.8,12.18,2.28,12.83,7.12c0.45,3.41-0.31,6.5-2.05,9.39c-2.93,4.86-8.41,7.11-14.74,5.21
		c-10.74-3.23-15.65-15.54-10.16-25.39c0.13-0.24,0.24-0.49,0.4-0.82c-1.67-0.29-3.34-0.46-4.93-0.89
		c-0.93-0.25-1.86-0.78-2.59-1.41c-1.48-1.29-1.41-2.94,0.04-4.26c1.42-1.29,3.24-1.58,5.03-1.89c0.79-0.14,1.61-0.12,2.47-0.17
		c-3.36-5.82-3.33-11.75-0.75-17.65c2.51-5.74,10.03-10.52,17.67-9.02c1.91,0.38,3.6,1.26,5.04,2.59c3.74,3.48,5.39,7.77,4.47,12.8
		c-0.97,5.33-7.09,9.32-13.15,6.5c-4.9-2.29-4.02-8.72-0.92-10.91c1.08-0.76,2.31-0.83,3.29-0.13c0.96,0.69,1.1,1.33,0.56,2.89
		c-0.18,0.51-0.46,1-0.59,1.52c-0.38,1.51,0.56,2.5,2.13,2.21c1.37-0.25,2.2-1.16,2.73-2.41c2.04-4.83-2-10.08-7.34-9.46
		c-2.33,0.27-4.4,1.2-5.96,3.02c-4.72,5.5-3.6,13.44,1.55,17.19c0.93,0.68,2.03,1.29,3.14,1.56c5.04,1.25,9.93,0.9,14.45-1.89
		c2.85-1.76,4.73-4.35,5.4-7.59c1.58-7.7-1.21-16.11-7.46-20.36c-1.77-1.2-3.87-1.93-5.81-2.88c1.8-3.51,8.24-3.75,11.71,0.29
		c0.69-2.89,1.84-5.38,4.77-6.6c2.51,1.29,3.99,3.33,4.5,6.37c2.35-1.41,4.4-3.25,7.25-2.68c1.79,0.35,3.53,0.81,5.11,2.35
		c-0.64,0.36-1.1,0.73-1.63,0.9c-7.21,2.31-10.77,7.65-12.19,14.73c-0.43,2.14-0.56,4.27-0.19,6.5c0.84,5.07,3.63,8.44,8.33,10.28
		c3.84,1.51,7.82,1.7,11.77,0.57c4.35-1.24,7.31-5.19,7.57-9.67c0.18-3.1-0.42-5.97-2.33-8.5c-2.26-2.99-6.3-4.35-9.73-3.18
		c-3.86,1.32-5.36,4.79-4.15,8.81c0.44,1.46,1.45,2.53,3.12,2.66c1.51,0.11,2.16-0.71,1.75-2.2c-0.17-0.61-0.45-1.19-0.64-1.8
		c-0.29-0.91-0.34-1.78,0.51-2.48c0.86-0.71,2.01-0.87,3.04-0.29c0.39,0.22,0.75,0.52,1.07,0.84c3.13,3.14,2.27,8.37-1.7,10.33
		c-4.95,2.46-11.04-0.2-12.87-5.5c-2.25-6.53,3.12-17.74,13.43-16.59c10.08,1.13,16.72,9.72,15.1,20.14
		c-0.35,2.29-1.25,4.49-1.89,6.67c1.24,0.21,2.77,0.41,4.26,0.75c0.78,0.18,1.56,0.53,2.24,0.95c2.3,1.44,2.37,3.88-0.02,5.2
		c-1.38,0.77-3.05,1.05-4.62,1.45c-0.68,0.18-1.43,0.1-2.39,0.16c1.51,2.31,2.33,4.69,2.56,7.23c0.77,8.51-2.78,15.98-11.72,18.97
		c-9.98,3.34-17.09-3.69-17.43-12.31c-0.28-7.14,6.15-11.48,12.28-9.57c4.79,1.49,6.27,7.61,2.59,10.93
		c-0.62,0.55-1.58,0.95-2.41,0.99c-1.62,0.07-2.49-1.13-2.14-2.72c0.13-0.62,0.36-1.23,0.63-1.8c0.41-0.84,0.48-1.73-0.38-2.14
		c-0.65-0.31-1.62-0.36-2.29-0.09c-1.35,0.53-2.07,1.74-2.36,3.15c-1.08,5.17,3.27,9.45,8.46,8.36c3.5-0.74,5.85-2.86,7.17-6.1
		c1.68-4.13,1.21-9.83-2.68-13.34c-1.55-1.39-3.34-2.32-5.31-2.62c-3.35-0.49-6.71-0.45-9.97,0.74c-5.61,2.04-8.83,6.03-9.07,12.63
		c-0.17,4.85,1.24,9.36,4.2,13.27c2.02,2.66,4.56,4.69,7.85,5.63c0.52,0.15,1.03,0.35,1.53,0.58
		C267.42,441.42,267.5,441.63,267.74,441.94z M245.13,405.34c1.95,1.88,4.05,3.91,6.15,5.94c1.15-2.66,3.63-4.21,6.15-5.92
		c-2.57-1.7-5.03-3.33-6.15-5.9C249.13,401.52,247.06,403.5,245.13,405.34z"/>
	<g>
		<path class="st0" d="M136.84,436.55c-0.69,1.89-1.84,3.45-3.38,4.72c-0.56,0.46-1.18,0.96-1.85,1.15
			c-0.49,0.14-1.23-0.06-1.64-0.38c-0.55-0.43-0.67-1.13-0.22-1.81c0.44-0.66,0.87-1.34,1.23-2.04c0.97-1.88,1.47-3.85,1.2-6.01
			c-0.37-2.97-1.85-5.26-4.06-7.15c-3.41-2.91-6.92-3.02-10.65-0.74c-0.55,0.34-1.1,0.85-1.4,1.41c-1.36,2.52-1.54,5.14-0.14,7.71
			c1.12,2.05,4.29,2.97,6.27,1.93c0.85-0.45,1.16-1.14,1.01-2.14c-0.15-0.93-0.75-1.37-1.6-1.51c-0.35-0.06-0.73,0.04-1.09,0.04
			c-1.86,0.01-2.73-1.49-1.82-3.13c0.67-1.2,2.17-1.95,3.57-1.76c3.05,0.4,5.13,2.36,5.92,5.7c0.68,2.86-0.17,5.37-2.22,7.37
			c-2.19,2.14-4.83,2.44-7.65,1.35c-0.46-0.18-0.89-0.46-1.36-0.55c-0.49-0.09-1.21-0.21-1.46,0.04c-0.26,0.26-0.14,0.97-0.08,1.47
			c0.07,0.53,0.45,1.07,0.36,1.55c-0.23,1.35-0.86,2.53-1.91,3.47c-0.67,0.6-1.42,0.69-2.22,0.42c-2.01-0.68-3.13-3.37-2.35-5.37
			c0.18-0.46,0.28-1.15,0.05-1.52c-0.38-0.63-1.07-0.36-1.65-0.11c-0.28,0.12-0.55,0.27-0.84,0.36c-1.91,0.61-3.83,0.77-5.75,0.01
			c-2.67-1.05-4.38-3.04-4.72-5.83c-0.34-2.8,0.5-5.34,2.94-7.1c2.04-1.47,4.66-1.39,6.25,0.16c0.77,0.75,0.96,1.58,0.58,2.5
			c-0.38,0.94-1.1,1.25-2.07,1.13c-0.24-0.03-0.49-0.06-0.73-0.05c-1.02,0.05-1.9,0.7-2.05,1.5c-0.16,0.85,0.52,2,1.4,2.37
			c2.03,0.85,4.84,0,6.01-1.94c0.5-0.82,0.87-1.77,1.07-2.71c0.69-3.18-0.9-6.15-3.86-7.48c-2.99-1.35-5.81-1.19-8.45,0.86
			c-0.43,0.34-0.88,0.66-1.31,1.01c-3.84,3.19-4.89,8.09-2.68,12.58c0.35,0.71,0.78,1.38,1.2,2.06c0.36,0.59,0.42,1.26-0.09,1.67
			c-0.41,0.34-1.08,0.53-1.62,0.5c-0.5-0.03-1.03-0.38-1.45-0.72c-1.99-1.61-3.49-3.58-4.13-6.12c-0.11-0.43-0.34-0.84-0.54-1.3
			c-0.66,0.39-1.16,0.76-1.71,0.99c-0.93,0.39-2.15,0.07-2.69-0.62c-0.58-0.75-0.56-1.54,0.08-2.55c0.28-0.45,0.61-0.87,1.01-1.43
			c-0.62-0.29-1.1-0.52-1.58-0.75c-0.83-0.39-1.71-0.7-2.48-1.17c-1.64-1-2.98-2.32-3.84-4.08c-0.34-0.7-0.19-1.33,0.34-1.84
			c0.56-0.54,1.2-0.53,1.85-0.13c0.47,0.29,0.93,0.58,1.41,0.86c3.73,2.16,7.44,2.17,11.07-0.19c1.82-1.18,3.3-2.75,4.21-4.74
			c1.35-2.93,0.87-5.77-0.88-8.35c-1.61-2.37-4.09-2.7-6.71-2.41c-2.83,0.32-4.73,2.34-4.77,5.13c-0.01,0.69,0.22,1.46,0.56,2.06
			c0.4,0.71,1.08,1.16,2.01,0.9c0.93-0.26,1.45-0.84,1.52-1.83c0.02-0.3-0.07-0.61-0.08-0.91c-0.04-0.88,0.35-1.54,1.12-1.94
			c0.73-0.39,1.41-0.21,2.08,0.21c1.33,0.84,1.9,2.08,1.7,3.59c-0.66,4.87-5.27,6.8-9.34,5.79c-4.57-1.12-6.68-5.25-5.1-9.68
			c0.27-0.75,0.68-1.45,0.87-2.21c0.08-0.33-0.14-0.84-0.4-1.1c-0.18-0.18-0.66-0.11-0.99-0.05c-0.64,0.13-1.27,0.52-1.88,0.47
			c-1.55-0.13-2.72-1.03-3.64-2.24c-0.55-0.72-0.59-1.56,0-2.2c0.73-0.79,1.58-1.5,2.46-2.12c0.75-0.52,1.64-0.47,2.44,0
			c0.59,0.34,1.29,0.87,1.78,0.19c0.31-0.43,0.1-1.23,0.09-1.86c-0.01-0.24-0.12-0.47-0.21-0.7c-0.72-1.85-0.62-3.69-0.01-5.56
			c1.04-3.16,3.64-4.99,6.96-4.82c3.69,0.19,6.35,2.27,7.07,5.56c0.35,1.57-0.08,2.92-1.3,3.97c-0.76,0.66-1.67,0.72-2.59,0.36
			c-0.93-0.36-0.95-1.17-0.9-2c0.01-0.24,0.02-0.49,0-0.73c-0.08-1.16-0.59-1.81-1.55-1.95c-1.1-0.17-2.1,0.4-2.42,1.47
			c-0.51,1.75-0.27,3.47,0.9,4.85c2.73,3.21,8.62,2.59,10.48-0.45c2.04-3.33,2.46-6.59-0.06-9.88c-0.48-0.63-0.97-1.26-1.51-1.84
			c-2.63-2.83-5.87-3.96-9.63-2.99c-1.51,0.39-2.91,1.2-4.32,1.92c-0.74,0.38-1.39,0.51-2.01-0.09c-0.59-0.57-0.71-1.27-0.29-2.01
			c0.18-0.32,0.37-0.63,0.59-0.92c1.58-2.05,3.59-3.45,6.1-4.15c0.43-0.12,0.82-0.38,1.31-0.61c-0.36-0.63-0.66-1.08-0.9-1.57
			c-0.46-0.95-0.24-2.05,0.49-2.68c0.74-0.64,1.59-0.7,2.54-0.12c0.51,0.31,0.97,0.68,1.58,1.11c0.27-0.65,0.48-1.15,0.67-1.65
			c0.87-2.29,2.27-4.18,4.24-5.65c1.16-0.86,2.08-0.98,2.82-0.33c0.73,0.64,0.72,1.15-0.2,2.56c-1.19,1.82-2.05,3.76-2.06,5.98
			c-0.01,3.71,1.76,6.49,4.52,8.81c3.11,2.61,6.97,2.58,10.21,0.52c2.63-1.67,3.43-4.77,2.26-8.15c-0.79-2.27-3.16-3.76-6.12-3.08
			c-1.66,0.38-2.22,2.02-1.28,3.25c0.54,0.7,1.28,0.59,2.01,0.6c1.25,0.03,1.96,0.48,2.27,1.43c0.33,1.02-0.02,2.04-0.99,2.73
			c-1.13,0.81-2.37,0.91-3.67,0.53c-3.97-1.16-5.88-5.09-4.98-8.83c1.13-4.69,4.94-7.2,10.17-5.29c0.52,0.19,1.01,0.48,1.54,0.57
			c0.37,0.06,0.92-0.02,1.14-0.27c0.21-0.23,0.21-0.8,0.09-1.13c-0.75-2.02-0.1-4.25,1.64-5.46c0.59-0.41,1.2-0.57,1.9-0.32
			c2.19,0.8,3.24,3.34,2.34,5.54c-0.16,0.39-0.24,1.05-0.02,1.31c0.24,0.28,0.86,0.29,1.31,0.31c0.28,0.01,0.59-0.14,0.86-0.27
			c1.62-0.76,3.28-0.78,5.01-0.44c3.23,0.64,5.85,3.29,5.94,6.57c0.1,3.62-1.4,5.98-4.51,7.28c-1.55,0.65-3.13,0.47-4.5-0.6
			c-0.82-0.64-1.14-1.75-0.84-2.63c0.34-1,1.12-1.2,2.05-1.11c0.24,0.02,0.49,0.03,0.73,0.01c1.11-0.09,1.84-0.66,1.99-1.55
			c0.19-1.14-0.33-2.02-1.44-2.46c-1.56-0.61-4.12-0.01-5.27,1.24c-1.97,2.15-2.35,5.67-0.89,8.22c1.49,2.59,5.12,4.24,8.03,3.53
			c3.18-0.78,5.57-2.72,7.25-5.49c1.55-2.54,1.88-5.29,0.93-8.11c-0.4-1.2-1.09-2.31-1.71-3.43c-0.4-0.72-0.49-1.37,0.07-2.02
			c0.54-0.63,1.29-0.72,2.16-0.26c0.21,0.11,0.42,0.26,0.61,0.41c2.17,1.72,3.75,3.84,4.39,6.58c0.07,0.28,0.24,0.53,0.45,0.99
			c0.55-0.32,1-0.58,1.46-0.83c1.04-0.56,2.18-0.42,2.86,0.33c0.59,0.66,0.61,1.78,0.01,2.73c-0.28,0.45-0.58,0.88-0.97,1.45
			c0.68,0.27,1.18,0.48,1.68,0.67c2.28,0.88,4.2,2.26,5.61,4.27c0.27,0.39,0.52,0.83,0.65,1.29c0.2,0.71-0.04,1.33-0.65,1.77
			c-0.59,0.42-1.14,0.31-1.68-0.1c-0.24-0.18-0.5-0.36-0.75-0.53c-4-2.6-8.15-2.66-11.99,0.12c-3.07,2.22-5.06,5.12-4.48,9.22
			c0.79,5.55,6.07,7.32,10.37,5.21c2.09-1.03,3.06-4.28,2.05-6.23c-0.5-0.97-1.25-1.34-2.25-1.09c-0.89,0.22-1.32,0.82-1.33,1.73
			c0,0.37,0.03,0.74,0,1.1c-0.16,1.75-1.65,2.52-3.17,1.64c-0.96-0.56-1.52-1.44-1.68-2.51c-0.22-1.46,0.22-2.78,1.06-3.97
			c1.49-2.13,3.67-2.98,6.15-3.14c4.26-0.29,8.05,3.5,7.61,7.74c-0.14,1.36-0.82,2.66-1.18,4c-0.11,0.41-0.15,0.97,0.04,1.32
			c0.32,0.58,0.87,0.43,1.45,0.21c0.59-0.23,1.37-0.53,1.88-0.33c1.06,0.4,2.1,1.01,2.97,1.73c0.99,0.82,0.98,1.89,0.23,2.95
			c-0.73,1.03-1.74,1.69-2.94,2.1c-0.96,0.33-1.62-0.27-2.38-0.65c-1.02-0.51-1.71-0.03-1.6,1.08c0.04,0.36,0.22,0.7,0.3,1.05
			c0.23,1.01,0.64,2.02,0.64,3.03c-0.01,4.4-1.8,6.92-5.58,7.66c-0.95,0.19-1.98,0.25-2.92,0.09c-3.85-0.69-6.08-2.97-5.76-7.14
			c0.1-1.35,0.94-2.44,2.06-2.77c1.34-0.39,2.45,0.41,2.5,1.81c0.01,0.43-0.06,0.86-0.03,1.28c0.06,0.98,0.62,1.69,1.44,1.89
			c0.85,0.2,1.7-0.13,2.19-0.98c0.26-0.47,0.46-1.02,0.52-1.54c0.26-2.64-1.1-4.85-3.62-5.71c-2.78-0.95-5.48-0.51-7.42,1.66
			c-1.94,2.17-2.82,4.96-1.81,7.85c0.9,2.59,2.64,4.73,5,6.16c3.77,2.28,7.56,1.98,11.26-0.3c1.19-0.73,2.05-0.78,2.67-0.16
			c0.61,0.61,0.57,1.57-0.28,2.66c-1.54,1.97-3.45,3.46-5.88,4.19c-0.56,0.17-1.11,0.37-1.79,0.6c0.39,0.64,0.75,1.14,1.01,1.67
			c0.41,0.82,0.13,2.12-0.52,2.71c-0.64,0.59-1.68,0.64-2.56,0.08c-0.46-0.29-0.85-0.68-1.53-1.24
			C137.39,435.21,137.08,435.87,136.84,436.55z M104.28,409.99c1.14-1.82,2.9-2.55,4.93-2.78c1.3-0.14,1.74,0.26,1.55,1.54
			c-0.29,2-0.98,3.8-2.87,4.87c-0.11,0.06-0.2,0.14-0.31,0.2c-0.6,0.37-1.52,0.62-1.17,1.57c0.31,0.84,1.21,0.69,1.93,0.72
			c0.66,0.02,1.32-0.06,2.07-0.11c0.21,0.74,0.36,1.38,0.58,2c0.23,0.66,0.62,1.21,1.4,1.29c0.86,0.09,1.3-0.55,1.44-1.16
			c0.41-1.78,1.14-2.83,3.19-2.06c0.32,0.12,0.84-0.12,1.2-0.32c0.63-0.33,0.67-0.83,0.16-1.33c-0.22-0.21-0.48-0.38-0.75-0.52
			c-2.13-1.13-2.81-3.12-3.09-5.32c-0.14-1.07,0.27-1.53,1.35-1.38c2.12,0.29,4.03,1.03,5.17,3.04c0.06,0.11,0.12,0.22,0.18,0.32
			c0.3,0.53,0.55,1.19,1.32,1.06c0.85-0.15,0.93-0.89,0.93-1.57c0.01-0.72-0.08-1.45-0.14-2.38c0.62-0.21,1.32-0.38,1.96-0.66
			c0.76-0.34,1.8-0.62,1.77-1.62c-0.03-0.96-1.05-1.24-1.8-1.62c-0.16-0.08-0.36-0.07-0.53-0.13c-1.23-0.36-1.19-0.38-1.02-1.62
			c0.09-0.7,0.12-1.48-0.1-2.12c-0.28-0.83-0.97-0.87-1.53-0.21c-0.35,0.42-0.65,0.89-0.96,1.34c-1.24,1.8-3.11,2.26-5.13,2.37
			c-0.81,0.04-1.07-0.53-1-1.22c0.21-1.93,0.69-3.74,2.44-4.91c0.46-0.31,0.97-0.54,1.37-0.91c0.28-0.26,0.62-0.72,0.56-1.01
			c-0.07-0.32-0.55-0.73-0.89-0.77c-1.01-0.1-2.04-0.04-3.13-0.04c-0.25-0.75-0.37-1.5-0.73-2.1c-0.31-0.53-0.83-1.14-1.37-1.29
			c-0.84-0.25-1.25,0.58-1.62,1.21c-0.21,0.36-0.31,0.79-0.45,1.2c-0.39,1.2-0.39,1.21-1.64,0.96c-1.04-0.21-2.06-0.34-2.99,0.88
			c0.51,0.44,0.94,0.92,1.46,1.25c1.93,1.22,2.78,3.02,2.92,5.22c0.07,1.1-0.26,1.49-1.35,1.39c-2.17-0.22-4.01-1.07-5.17-3.03
			c-0.19-0.32-0.31-0.67-0.54-0.96c-0.58-0.75-1.43-0.67-1.65,0.24c-0.23,0.98-0.17,2.02-0.25,3.29c-0.14,0.07-0.48,0.28-0.86,0.43
			c-0.22,0.09-0.5,0.05-0.72,0.14c-0.79,0.32-1.72,0.59-1.78,1.63c-0.06,1.08,0.88,1.37,1.65,1.7c0.6,0.26,1.24,0.41,1.88,0.61
			c0.09,1.5-1.04,3.07,0.9,4.33C103.51,411.05,103.93,410.54,104.28,409.99z"/>
	</g>
</g>
</svg>
