<?xml version="1.0" encoding="utf-8"?>
<!-- Generator: Adobe Illustrator 26.5.0, SVG Export Plug-In . SVG Version: 6.00 Build 0)  -->
<svg version="1.1" id="Layer_1" xmlns="http://www.w3.org/2000/svg" xmlns:xlink="http://www.w3.org/1999/xlink" x="0px" y="0px"
	 viewBox="0 0 500 500" style="enable-background:new 0 0 500 500;" xml:space="preserve">
<style type="text/css">
	.st0{fill:#131313;}
</style>
<g>
	<path class="st0" d="M159.47,246.61c-0.59-0.21-0.7-0.6-0.5-1.16c0.35-0.97,0.66-1.95,1-2.92c0.71-2.05,0.88-4.18,0.37-6.26
		c-0.87-3.6-2.9-6.41-6.29-8.06c-1.56-0.76-3.15-1.5-4.8-2c-2.39-0.72-3.63-2.47-4.52-4.57c-1.43-3.38-0.23-7.47,2.67-9.41
		c1.67-1.12,3.53-1.4,5.46-1.1c2.83,0.44,4.94,3.18,4.67,5.95c-0.15,1.54-1.31,2.88-2.8,3.24c0.21-0.43,0.47-0.85,0.64-1.3
		c0.73-1.87,0.16-4.26-2.38-5.09c-2.97-0.97-5.11,0.99-5.83,3.26c-0.85,2.7,0.99,5.85,3.73,6.69c0.66,0.2,1.37,0.36,2.06,0.37
		c1.15,0.02,1.74,0.63,2.18,1.6c0.84,1.83,2.18,3.23,3.92,4.23c0.49,0.28,1.04,0.91,1.6,0.48c0.62-0.48,0.01-1.09-0.2-1.61
		c-0.69-1.68-1.11-3.4-0.67-5.22c0.38-1.58,0.7-3.17,1.17-4.72c0.54-1.78,0.64-3.53-0.12-5.22c-0.46-1.02-1.03-2.06-1.77-2.89
		c-1.82-2.07-4.11-3.37-6.94-3.44c-1.49-0.04-2.99,0.1-4.55,0.15c-0.06-0.49-0.06-1.04-0.22-1.54c-0.19-0.6-0.17-1.57-0.78-1.75
		c-0.6-0.17-1.07,0.66-1.56,1.05c-0.44,0.35-0.82,0.8-1.26,1.24c-1.18-1.52-2.62-2.48-4.14-3.34c-0.2-0.11-0.59-0.22-0.78-0.04
		c-0.18,0.16-0.05,0.49-0.01,0.72c0.04,0.26,0.14,0.53,0.24,0.78c1.25,3.07,1.71,6.26,1.54,9.56c-0.09,1.63-0.15,3.26-0.08,4.89
		c0.19,4.38,1.93,7.85,6.01,9.88c0.24,0.12,0.49,0.24,0.72,0.38c0.63,0.4,0.67,0.64,0.05,1.07c-1.26,0.87-2.03,2.1-2.7,3.41
		c-1.63,3.21-0.29,6.16,1.82,7.88c1.35,1.1,2.92,1.73,4.69,0.97c1.09-0.46,1.98-1.19,2.21-2.41c0.12-0.6,0.31-1.39-0.31-1.82
		c-0.55-0.37-0.98,0.27-1.43,0.51c-0.93,0.47-1.85,0.67-2.74-0.03c-0.99-0.77-1.5-2.27-1.17-3.32c0.49-1.6,1.78-2.28,3.24-2.65
		c1.56-0.39,2.93,0.1,3.94,1.34c1.64,2.02,2.23,4.32,1.49,6.87c-0.18,0.62-0.51,1.2-0.7,1.82c-0.51,1.65-1.7,2.62-3.22,3.23
		c-3.87,1.57-7.93,0.34-10.22-3.01c-0.73-1.07-1.26-2.28-1.91-3.41c-0.17-0.29-0.21-1.05-0.78-0.98c-2.96,0.4-1.29,5.22,0.05,7.73
		c-0.45,0.21-0.81,0.34-1.12,0.54c-0.87,0.54-1.79,1.02-2.55,1.68c-1.21,1.05-1.21,1.37,0.08,2.4c1.04,0.83,2.25,1.47,3.42,2.21
		c-1.17,3.88-1.57,7.78,0.47,7.43c1.13-0.2,1.04-2.02,1.59-3.01c1.98-3.54,4.94-5.25,9.03-4.71c2.02,0.27,3.76,1.11,4.79,2.98
		c0.44,0.8,0.77,1.68,1.03,2.56c0.81,2.73,0.22,5.16-1.8,7.19c-2.09,2.11-5.79,1.26-6.82-1.54c-0.47-1.28,0.24-2.19,0.94-3.1
		c0.68-0.88,1.64-0.73,2.55-0.51c0.35,0.08,0.65,0.38,0.98,0.57c0.72,0.44,1.08,0.29,1.22-0.52c0.32-1.82-1.19-3.55-3.16-3.79
		c-3.9-0.49-6.88,4.25-6.25,7.09c0.42,1.91,1.28,3.56,2.76,4.88c0.39,0.35,0.74,0.74,1.17,1.17c-0.69,0.41-1.22,0.77-1.79,1.06
		c-2.02,1.04-3.33,2.66-4.38,4.66c-1.17,2.23-1.25,4.57-1.18,6.97c0.05,1.96,0.05,3.91,0.05,5.87c0,1.59-0.29,3.12-0.85,4.61
		c-0.34,0.91-0.67,1.83-0.97,2.76c-0.07,0.22-0.05,0.61,0.08,0.7c0.16,0.11,0.51,0.05,0.74-0.03c0.3-0.11,0.59-0.29,0.85-0.48
		c1.13-0.84,2.24-1.69,3.37-2.55c0.56,0.51,1.16,1.14,1.84,1.65c0.64,0.48,0.93,0.36,1.18-0.4c0.29-0.92,0.5-1.87,0.76-2.82
		c0.26,0.06,0.51,0.13,0.77,0.18c3.67,0.8,7.04,0.2,9.87-2.38c2.52-2.3,3.87-5.06,2.86-8.57c-0.3-1.04-0.6-2.08-0.89-3.13
		c-0.48-1.74-0.8-3.5-0.32-5.28c0.24-0.88,0.62-1.73,0.86-2.61c0.09-0.32,0.23-0.83-0.04-1.05c-0.24-0.19-0.64,0.03-0.89,0.17
		c-2.12,1.13-3.8,2.72-4.82,4.91c-0.41,0.88-0.9,1.3-1.94,1.31c-2.46,0.04-4.41,1.09-5.49,3.4c-0.77,1.66-0.77,3.31,0.23,4.95
		c1.06,1.76,2.57,2.35,4.54,2.15c1.78-0.18,3.24-1.63,3.34-3.41c0.07-1.14-0.29-2.16-1.02-3.22c2.52,0.67,3.74,3.71,2.38,6.24
		c-1.87,3.46-6.5,4.23-9.75,1.85c-2.44-1.79-3.46-4.34-3.02-7.3c0.43-2.92,1.72-5.36,4.76-6.45c0.97-0.35,1.93-0.73,2.87-1.15
		c1.13-0.51,2.31-0.97,3.35-1.64c2.51-1.62,4.19-3.93,5-6.79c0.7-2.47,0.5-4.94-0.37-7.36c-0.28-0.76-0.57-1.52-0.82-2.3
		c-0.29-0.9-0.22-0.91,0.6-1.38c0.89-0.51,1.78-1.04,2.55-1.7c1.36-1.16,1.34-1.86,0.12-3.1
		C161.47,247.69,160.56,247.01,159.47,246.61z"/>
	<path class="st0" d="M141.24,271.83c1.5-0.03,2.82-1.35,2.8-2.82c-0.01-1.37-1.51-2.82-2.86-2.77c-1.37,0.05-2.8,1.51-2.82,2.87
		C138.35,270.52,139.77,271.85,141.24,271.83z"/>
	<path class="st0" d="M141.25,233.82c1.3,0,2.76-1.41,2.8-2.69c0.05-1.46-1.43-3.02-2.85-3.01c-1.38,0.01-2.74,1.39-2.82,2.87
		C138.31,232.23,139.92,233.82,141.25,233.82z"/>
	<path class="st0" d="M364.03,248.73c-1.04-0.83-2.25-1.47-3.42-2.21c1.17-3.88,1.57-7.78-0.47-7.43c-1.13,0.2-1.04,2.02-1.59,3.01
		c-1.98,3.54-4.94,5.25-9.03,4.71c-2.02-0.27-3.76-1.11-4.78-2.98c-0.44-0.8-0.77-1.68-1.03-2.56c-0.81-2.73-0.22-5.16,1.8-7.19
		c2.09-2.11,5.79-1.26,6.82,1.54c0.47,1.28-0.24,2.19-0.94,3.1c-0.68,0.88-1.64,0.73-2.55,0.51c-0.35-0.08-0.65-0.38-0.98-0.57
		c-0.72-0.44-1.08-0.29-1.22,0.52c-0.32,1.82,1.19,3.55,3.16,3.79c3.9,0.49,6.88-4.25,6.25-7.09c-0.42-1.91-1.28-3.56-2.76-4.88
		c-0.39-0.35-0.74-0.74-1.17-1.17c0.69-0.41,1.22-0.77,1.79-1.06c2.02-1.04,3.33-2.66,4.38-4.66c1.17-2.23,1.25-4.57,1.18-6.97
		c-0.05-1.96-0.05-3.91-0.05-5.87c0-1.59,0.29-3.12,0.85-4.61c0.34-0.91,0.67-1.83,0.97-2.76c0.07-0.22,0.05-0.61-0.08-0.7
		c-0.16-0.11-0.51-0.05-0.74,0.03c-0.3,0.11-0.59,0.29-0.85,0.48c-1.13,0.84-2.24,1.69-3.37,2.55c-0.56-0.51-1.16-1.14-1.84-1.65
		c-0.64-0.48-0.93-0.36-1.18,0.4c-0.29,0.92-0.5,1.87-0.76,2.82c-0.26-0.06-0.51-0.13-0.77-0.18c-3.67-0.8-7.04-0.2-9.87,2.38
		c-2.52,2.3-3.87,5.06-2.86,8.57c0.3,1.04,0.6,2.08,0.89,3.13c0.48,1.74,0.8,3.5,0.32,5.28c-0.24,0.88-0.62,1.73-0.86,2.61
		c-0.09,0.32-0.23,0.83,0.04,1.05c0.24,0.19,0.64-0.03,0.89-0.17c2.12-1.13,3.8-2.72,4.82-4.91c0.41-0.88,0.9-1.3,1.94-1.31
		c2.46-0.04,4.41-1.09,5.49-3.4c0.77-1.66,0.77-3.31-0.23-4.95c-1.06-1.76-2.57-2.35-4.54-2.15c-1.78,0.18-3.24,1.63-3.34,3.41
		c-0.07,1.14,0.29,2.16,1.02,3.22c-2.52-0.67-3.74-3.71-2.38-6.24c1.87-3.46,6.5-4.23,9.75-1.85c2.44,1.79,3.46,4.34,3.02,7.3
		c-0.43,2.92-1.72,5.36-4.76,6.45c-0.97,0.35-1.93,0.73-2.87,1.15c-1.13,0.51-2.31,0.97-3.35,1.64c-2.51,1.62-4.19,3.93-5,6.79
		c-0.7,2.47-0.5,4.94,0.37,7.36c0.28,0.76,0.57,1.52,0.82,2.3c0.29,0.9,0.22,0.91-0.6,1.38c-0.89,0.51-1.78,1.04-2.55,1.7
		c-1.36,1.16-1.34,1.86-0.12,3.1c0.81,0.82,1.71,1.51,2.81,1.91c0.59,0.21,0.7,0.6,0.5,1.16c-0.35,0.97-0.66,1.95-1,2.92
		c-0.71,2.05-0.88,4.18-0.37,6.26c0.87,3.6,2.9,6.41,6.29,8.06c1.56,0.76,3.15,1.5,4.8,2c2.39,0.72,3.63,2.47,4.52,4.57
		c1.43,3.38,0.23,7.47-2.67,9.41c-1.67,1.12-3.53,1.4-5.46,1.1c-2.83-0.44-4.94-3.18-4.67-5.95c0.15-1.54,1.31-2.88,2.8-3.24
		c-0.21,0.43-0.47,0.85-0.64,1.3c-0.73,1.87-0.16,4.26,2.38,5.09c2.97,0.97,5.11-0.99,5.83-3.26c0.85-2.7-0.99-5.85-3.73-6.69
		c-0.66-0.2-1.37-0.36-2.06-0.37c-1.15-0.02-1.74-0.63-2.18-1.6c-0.84-1.83-2.18-3.23-3.92-4.23c-0.49-0.28-1.04-0.91-1.6-0.48
		c-0.62,0.48-0.01,1.09,0.2,1.61c0.69,1.68,1.11,3.4,0.67,5.22c-0.38,1.58-0.7,3.17-1.17,4.72c-0.54,1.78-0.64,3.53,0.12,5.22
		c0.46,1.02,1.03,2.06,1.77,2.89c1.82,2.07,4.11,3.37,6.94,3.44c1.49,0.04,2.99-0.1,4.55-0.15c0.06,0.49,0.06,1.04,0.22,1.54
		c0.19,0.6,0.17,1.57,0.78,1.75c0.6,0.17,1.07-0.66,1.56-1.05c0.44-0.35,0.82-0.8,1.26-1.24c1.18,1.52,2.62,2.48,4.14,3.34
		c0.2,0.11,0.59,0.22,0.78,0.04c0.18-0.16,0.05-0.49,0.01-0.72c-0.04-0.26-0.14-0.53-0.24-0.78c-1.25-3.07-1.71-6.26-1.54-9.56
		c0.09-1.63,0.15-3.26,0.08-4.89c-0.19-4.38-1.93-7.85-6.01-9.88c-0.24-0.12-0.49-0.24-0.72-0.38c-0.63-0.4-0.67-0.64-0.05-1.07
		c1.26-0.87,2.03-2.1,2.7-3.41c1.63-3.21,0.29-6.16-1.82-7.88c-1.35-1.1-2.92-1.73-4.69-0.97c-1.09,0.46-1.98,1.19-2.21,2.41
		c-0.12,0.6-0.31,1.39,0.31,1.82c0.55,0.37,0.98-0.27,1.43-0.51c0.93-0.47,1.85-0.67,2.74,0.03c0.99,0.77,1.5,2.27,1.17,3.32
		c-0.49,1.6-1.78,2.28-3.24,2.65c-1.56,0.39-2.93-0.1-3.94-1.34c-1.64-2.02-2.23-4.32-1.49-6.87c0.18-0.62,0.51-1.2,0.7-1.82
		c0.51-1.65,1.7-2.62,3.22-3.23c3.87-1.57,7.93-0.34,10.22,3.01c0.73,1.07,1.26,2.28,1.91,3.41c0.17,0.29,0.21,1.05,0.78,0.98
		c2.96-0.4,1.29-5.22-0.05-7.73c0.45-0.21,0.81-0.34,1.12-0.54c0.87-0.54,1.79-1.02,2.55-1.68
		C365.32,250.09,365.32,249.76,364.03,248.73z"/>
	<path class="st0" d="M358.76,228.17c-1.5,0.03-2.82,1.35-2.8,2.82c0.01,1.37,1.51,2.82,2.86,2.77c1.37-0.05,2.8-1.51,2.82-2.87
		C361.65,229.48,360.23,228.15,358.76,228.17z"/>
	<path class="st0" d="M358.75,266.18c-1.3,0-2.76,1.41-2.8,2.69c-0.05,1.46,1.43,3.02,2.85,3.01c1.38-0.01,2.74-1.39,2.82-2.87
		C361.69,267.77,360.08,266.18,358.75,266.18z"/>
	<path class="st0" d="M312.02,244.09c-1.59-0.52-2.92-0.06-4.34,0.79c-1.41,0.84-2.65-0.21-2.46-1.93c0.07-0.66,0.3-1.31,0.54-1.93
		c0.84-2.18,1.03-4.37,0.78-6.74c-0.84-8.06-8.92-12.68-16.8-8.86c-3.4,1.65-5.62,5.6-5.4,9.18c0.09,1.43,0.69,2.6,1.58,3.63
		c0.95,1.08,2.73,1.5,3.97,1c1.41-0.57,1.66-1.72,1.55-3.08c-0.05-0.67-0.11-1.38,0.06-2.01c0.27-1.03,0.74-1.99,1.92-2.32
		c2.16-0.6,4.28,0.45,4.68,2.66c0.57,3.15,0.18,6.12-2.5,8.4c-3.55,3.02-7.58,3.22-11.61,1.6c-5.55-2.23-8.38-9.38-6.29-14.97
		c1.32-3.54,3.6-6.43,6.5-8.66c4.54-3.48,9.69-4.58,15.2-2.43c1.77,0.69,3.43,1.69,5.1,2.62c0.94,0.52,1.8,0.59,2.68-0.06
		c0.94-0.69,1.27-1.69,0.79-2.81c-0.3-0.69-0.75-1.35-1.24-1.93c-2.73-3.24-5.98-5.68-10.25-6.54c-0.42-0.08-0.78-0.48-1.39-0.86
		c0.54-0.9,1-1.71,1.5-2.5c0.86-1.35,0.36-2.62-0.33-3.79c-0.64-1.09-1.81-1.02-2.86-0.88c-0.63,0.08-1.26,0.39-1.82,0.72
		c-0.64,0.37-1.21,0.86-1.72,1.23c-1.31-0.5-1.28-1.59-1.58-2.45c-1.34-3.87-3.91-6.78-7.06-9.26c-0.92-0.72-1.95-0.82-3.01-0.58
		c-1.3,0.29-1.96,1.73-1.36,2.92c0.26,0.51,0.67,0.94,0.97,1.43c1.68,2.73,2.91,5.59,3.14,8.86c0.3,4.18-0.99,7.9-3.56,10.99
		c-3.68,4.42-8.04,7.79-14.41,6.51c-3.97-0.8-7.09-2.48-8.77-6.55c-1.46-3.55-0.87-6.83,0.62-9.98c1.79-3.77,7.3-4.77,10.29-3.07
		c1.26,0.72,1.93,2.1,1.6,3.33c-0.4,1.46-1.34,2.25-2.87,2.36c-0.57,0.04-1.16-0.01-1.73-0.01c-1.38,0.01-2.44,0.56-2.95,1.88
		c-0.49,1.28-0.2,2.43,0.7,3.48c1.68,1.95,3.79,2.62,6.23,1.98c5.91-1.56,8.79-6.71,8.24-12.32c-0.77-7.83-7.42-13.21-16.08-9.74
		c-0.8,0.32-1.56,0.75-2.34,1.12c-0.75,0.36-1.48,0.4-2.14-0.2c-0.77-0.7-0.83-1.6-0.27-2.35c1.44-1.93,0.64-3.66-0.35-5.36
		c-2.64-4.57-5.4-4.63-8.49-0.25c-1.15,1.63-1.83,3.43-0.31,5.29c0.24,0.29,0.42,0.65,0.54,1.01c0.4,1.16-0.26,2.23-1.48,2.2
		c-0.84-0.02-1.68-0.34-2.49-0.59c-3.3-1.05-6.61-1.1-9.92-0.08c-1.69,0.52-3.06,1.5-4.26,2.82c-2.52,2.79-3.71,9.19-1.04,13.86
		c2.19,3.82,5.63,5.08,9.77,4.68c1.08-0.1,2.2-0.71,3.11-1.36c1.21-0.86,1.49-2.6,0.98-3.91c-0.55-1.4-1.59-1.82-2.99-1.66
		c-0.48,0.05-0.96,0.07-1.44,0.06c-1.83-0.05-2.91-0.8-3.29-2.24c-0.39-1.5,0.32-3.05,1.79-3.9c2-1.15,6.14-0.89,8,0.56
		c5.69,4.44,5.13,12.52,0.52,16.75c-3.65,3.35-10.22,3.97-14.54,1.49c-1.65-0.95-3.19-2.16-4.64-3.41
		c-2.71-2.33-4.49-5.31-5.02-8.85c-0.67-4.52,0.02-8.82,2.68-12.68c0.37-0.54,0.7-1.18,0.79-1.81c0.28-1.99-1.21-3.2-3.03-2.41
		c-1.04,0.45-2.03,1.11-2.88,1.87c-2.71,2.44-4.49,5.48-5.53,8.97c-0.2,0.68-0.42,1.36-0.7,2.24c-0.96-0.62-1.65-1.13-2.39-1.55
		c-1.39-0.77-3.64-0.48-4.57,0.55c-0.96,1.05-0.91,2.74,0.18,4.26c0.48,0.68,1.05,1.29,1.76,2.15c-0.95,0.41-1.64,0.69-2.31,1.01
		c-1.73,0.83-3.54,1.53-5.14,2.56c-2.3,1.47-4.07,3.51-5.3,5.98c-0.51,1.03-0.16,1.94,0.58,2.62c0.73,0.68,1.64,1.01,2.61,0.3
		c0.46-0.34,0.94-0.67,1.44-0.96c2.68-1.53,5.44-2.9,8.6-3.04c6.56-0.29,11.41,2.78,15.18,7.88c2.09,2.83,3.05,5.95,2.53,9.49
		c-0.4,2.73-1.22,5.45-3.22,7.24c-4.04,3.61-9.91,4.05-14.64,0.68c-2.54-1.81-3.54-6.43-2.27-9.2c0.68-1.47,2.06-2.28,3.44-2.01
		c1.68,0.32,2.54,1.19,2.74,2.88c0.08,0.66,0.07,1.36-0.03,2.02c-0.29,2.03,1.77,3.64,4.2,2.65c1.79-0.73,3.42-3.1,3.23-5.07
		c-0.23-2.31-0.82-4.49-2.51-6.3c-3.39-3.61-8.73-4.83-13.47-3.08c-5.44,2-8.8,7.77-6.96,13.4c0.47,1.45,1.21,2.82,1.67,4.27
		c0.5,1.57-0.68,2.68-2.25,2.23c-0.27-0.08-0.54-0.23-0.76-0.39c-1.14-0.84-2.3-0.58-3.54-0.22c-1.74,0.51-3.03,1.66-4.23,2.9
		c-0.37,0.38-0.59,0.99-0.71,1.53c-0.66,2.89,5.19,7.21,7.4,5.79c0.32-0.21,0.69-0.35,1.02-0.54c0.42-0.24,0.82-0.5,1.39-0.84
		c1.94,1.27,2.1,1.62,1.53,3.24c-0.16,0.45-0.41,0.87-0.6,1.31c-2.47,6.05,0.37,13.78,6.62,16c5.02,1.78,11.43-0.21,14.01-4.93
		c1.68-3.08,1.21-6.91-1.12-9.03c-1.58-1.44-3.9-1.11-4.96,0.65c-0.52,0.87-0.1,1.65,0,2.49c0.21,1.84-1.08,3.64-2.67,3.93
		c-1.54,0.28-3.29-0.79-3.89-2.37c-1.37-3.62,0.11-7.83,3.52-9.76c1.07-0.61,2.25-1.2,3.45-1.4c3.97-0.68,7.91-0.28,10.6,2.98
		c3.06,3.69,4.84,10.02,1.26,15.31c-0.86,1.27-1.8,2.5-2.8,3.67c-5.42,6.29-13.42,7.12-20.15,3.57c-0.93-0.49-1.79-1.13-2.72-1.63
		c-1.76-0.95-3.46,0.04-3.24,2.01c0.11,0.99,0.55,2.08,1.18,2.85c2.55,3.12,5.68,5.43,9.69,6.39c0.68,0.16,1.3,0.56,2.09,0.91
		c-0.56,0.87-0.99,1.5-1.37,2.15c-0.91,1.56-0.79,3.56,0.43,4.49c1.54,1.18,2.38,1.3,4.42-0.1c0.66-0.46,1.07-1.47,2.32-1.06
		c0.45,1.04,1.04,2.14,1.4,3.31c1.08,3.51,3.67,5.82,6.3,8.08c0.55,0.47,1.38,0.86,2.08,0.86c0.77-0.01,1.67-0.35,2.27-0.84
		c0.73-0.6,0.66-1.54,0.15-2.37c-0.65-1.06-1.37-2.09-1.96-3.19c-2.37-4.48-2.8-9.18-0.82-13.85c1.16-2.73,2.98-5.06,5.3-7.1
		c4.71-4.17,10.46-4.71,16.04-1.86c2.03,1.04,3.53,2.66,4.29,4.86c0.98,2.81,0.88,5.6,0.15,8.49c-0.98,3.88-5.05,6.05-8.64,5.7
		c-0.82-0.08-1.69-0.41-2.4-0.85c-1.3-0.8-1.88-2.27-1.55-3.43c0.43-1.49,1.51-2.37,3.16-2.47c0.57-0.03,1.15,0.13,1.72,0.13
		c2.08-0.01,3.54-2.16,2.67-4.04c-0.85-1.84-2.2-3.11-4.38-3.26c-4.06-0.28-7.08,1.44-9.21,4.79c-1.55,2.45-2.02,5.2-1.72,8.04
		c0.86,8.16,8.55,11.82,13.65,10.03c1.53-0.54,3.05-1.13,4.58-1.68c1.63-0.58,2-0.39,2.91,1.3c-0.38,1.21-1.01,2.3-0.99,3.36
		c0.08,2.79,1.54,4.89,3.9,6.35c0.92,0.57,1.86,0.5,2.7-0.11c1.5-1.08,2.81-2.33,3.57-4.07c0.53-1.22,0.65-2.45-0.07-3.58
		c-0.65-1.01-1.4-2.07-0.42-3.11c0.92-0.97,2.15-0.41,3.24-0.03c0.09,0.03,0.17,0.09,0.26,0.12c2.11,0.84,4.31,0.93,6.53,0.78
		c5.64-0.38,10.23-4.52,10.39-9.74c0.2-7.01-2.92-11.41-9.13-12.81c-2.14-0.49-4.83,0.77-5.99,2.65c-0.72,1.16-0.71,2.38-0.13,3.57
		c0.54,1.12,1.56,1.31,2.7,1.22c0.58-0.05,1.16,0.01,1.73-0.03c1.08-0.08,1.8,0.5,2.47,1.25c1.34,1.53,0.49,4.82-2.49,5.53
		c-3.44,0.83-7.37-0.9-9.15-4c-1.74-3.03-1.89-6.26-0.91-9.48c1.58-5.24,8.93-8.9,14.28-7.37c2.97,0.85,5.31,2.64,7.57,4.61
		c4.68,4.1,6.32,9.23,5.22,15.3c-0.49,2.7-1.73,5.07-3.3,7.28c-0.56,0.78-0.78,1.73-0.09,2.38c0.64,0.6,1.59,1.03,2.46,1.16
		c0.55,0.09,1.28-0.4,1.79-0.81c3.34-2.71,6.1-5.84,7.06-10.22c0.15-0.7,0.55-1.35,0.87-2.12c1.08,0.64,1.94,1.25,2.88,1.7
		c1.31,0.64,3.11,0.23,3.94-0.77c0.93-1.12,1-2.25,0.14-3.73c-0.51-0.88-1.13-1.71-1.78-2.7c1-0.45,1.76-0.86,2.56-1.14
		c3.76-1.31,6.7-3.7,9.09-6.82c1.72-2.25,1.44-3.47-1.28-5.06c-1.41,0.84-2.85,1.8-4.37,2.6c-3.61,1.91-7.39,2.56-11.42,1.46
		c-3.75-1.02-6.69-3.15-9.3-5.99c-2.95-3.21-4.3-6.9-3.58-11.11c1.12-6.54,4.97-11.13,12.55-10.05c5.61,0.8,8.35,4.28,7.68,9.82
		c-0.3,2.48-2.05,3.85-4.1,3.36c-1.5-0.36-2.22-1.24-2.32-2.86c-0.06-0.95,0.12-2.01-0.24-2.83c-0.89-2.04-3.72-2.51-5.38-0.99
		c-1.81,1.66-2.25,3.78-1.63,6.07c1.18,4.39,4.05,7.19,8.49,8.08c4.77,0.95,8.97-0.24,12.2-4.06c2.77-3.28,2.89-6.99,1.66-10.87
		c-0.46-1.45-1.09-2.84-1.62-4.2c1.54-1.69,1.53-1.67,3.34-0.85c0.51,0.23,1.09,0.49,1.62,0.46c2.74-0.18,4.94-1.41,6.54-3.66
		c0.69-0.98,0.72-2.05,0-2.96C315.15,246.28,313.96,244.73,312.02,244.09z M270.01,252.02c-1.02,0.47-2.13,0.73-3.37,1.13
		c0.12,0.63,0.24,1.15,0.32,1.67c0.1,0.66,0.23,1.33,0.23,2c0,1.07-0.06,2.24-1.26,2.67c-1.23,0.44-1.62-0.72-2.19-1.44
		c-0.42-0.53-0.78-1.1-1.2-1.62c-2.35-2.9-5.41-3.72-9.39-3.12c0.12,4.25,1.28,7.6,4.9,9.75c0.96,0.57,2.19,0.88,2.51,2.44
		c-1.66,2.34-4.07,1.55-6.52,1.19c-1.35,1.87-0.63,5.22-3.92,5.85c-2.87-0.81-2.22-4.15-3.93-5.93c-2.21,0.47-4.53,1.67-6.16-0.97
		c0.06-1.25,1.13-1.54,1.9-1.98c3.13-1.79,4.46-4.64,4.91-8.04c0.26-1.98-0.48-2.75-2.44-2.39c-3.44,0.63-6.36,2.06-8.05,5.39
		c-0.39,0.78-1.15,1.37-1.76,2.05c-2.85-1.88-1.76-4.4-1.56-6.89c-0.8-0.22-1.54-0.35-2.2-0.63c-0.86-0.36-1.81-0.7-2.47-1.32
		c-1.05-0.98-0.85-2.4,0.4-3.15c0.89-0.54,1.91-0.84,2.88-1.24c0.59-0.24,1.18-0.46,1.86-0.73c-0.29-1.02-0.46-1.85-0.77-2.64
		c-0.36-0.91-0.11-1.69,0.32-2.47c0.85-1.52,1.77-1.59,2.86-0.21c0.29,0.38,0.51,0.81,0.78,1.21c2.34,3.48,5.68,4.6,9.95,4.29
		c0.56-2.75-0.53-4.95-1.63-7.17c-1.18-2.37-4.11-2.76-5.64-4.91c1.58-2.99,4.16-1.58,6.62-1.64c0.39-1.04,0.76-2.21,1.27-3.31
		c0.54-1.18,0.9-2.79,2.62-2.63c1.41,0.13,1.77,1.59,2.42,2.63c0.59,0.94-0.03,2.42,1.39,3.03c0.98-0.18,2.01-0.53,3.03-0.52
		c0.81,0.01,1.68,0.33,2.4,0.74c0.71,0.41,0.72,1.44,0.09,2c-0.57,0.51-1.24,0.91-1.86,1.36c-3.47,2.54-4.54,5.04-3.99,9.4
		c2.88,0.82,6.67-0.39,8.69-2.89c0.72-0.89,1.21-1.96,1.89-2.89c0.94-1.29,2.33-1.12,2.84,0.38c0.27,0.79,0.28,1.69,0.32,2.54
		c0.05,0.94,0.01,1.88,0.01,2.89c1.01,0.3,1.92,0.52,2.81,0.84c1.31,0.47,2.66,1.21,2.63,2.71
		C272.5,250.82,271.14,251.5,270.01,252.02z"/>
	<path class="st0" d="M381.25,156.25h-262.5c-10.36,0-18.75,8.39-18.75,18.75v150c0,10.36,8.39,18.75,18.75,18.75h262.5
		c10.36,0,18.75-8.39,18.75-18.75V175C400,164.64,391.61,156.25,381.25,156.25z M389.73,214.92c0.5,0.06,0.92-0.11,1.26-0.46
		c0.12-0.12,0.22-0.29,0.27-0.45c0.37-1.05,0.05-2.51-1.21-3.22c-1.75-0.99-3.83-0.13-4.56,1.59c-0.33,0.78-0.37,1.59-0.13,2.41
		c0.04,0.14,0.08,0.27,0.13,0.41c0.14,0.38,0.19,0.49-0.29,0.56c-0.32,0.05-0.63,0.12-0.93,0.22c-0.23,0.08-0.46,0.19-0.67,0.33
		c-0.15,0.09-0.28,0.23-0.38,0.37c-0.3,0.38-0.2,0.95,0.2,1.23c0.29,0.21,0.62,0.34,0.97,0.44c0.34,0.1,0.69,0.19,1.03,0.29
		c0.07,0.02,0.16,0.19,0.14,0.27c-0.02,0.07-0.04,0.14-0.06,0.21c-0.07,0.24-0.14,0.48-0.2,0.72c-0.27,1.16,0.01,2.2,0.8,3.08
		c0.57,0.64,1.31,0.97,2.17,1.02c0.43,0.02,0.85,0,1.26-0.15c1.11-0.42,1.72-1.23,1.89-2.38c0.07-0.47-0.05-0.92-0.28-1.34
		c-0.1-0.19-0.26-0.34-0.45-0.45c-0.29-0.16-0.59-0.26-0.92-0.22c-0.14,0.01-0.27,0.15-0.24,0.29c0.03,0.14,0.06,0.28,0.09,0.42
		c0.03,0.14,0.06,0.28,0.08,0.42c0.08,0.74-0.57,1.45-1.44,1.28c-0.62-0.12-1.43-0.95-1.26-1.86c0.05-0.29,0.18-0.54,0.37-0.76
		c0.54-0.61,1.21-0.99,2.04-1.05c0.65-0.05,1.28,0.05,1.87,0.34c0.98,0.48,1.52,1.28,1.64,2.35c0.18,1.61-0.48,2.84-1.8,3.74
		c-0.32,0.22-0.69,0.37-1.04,0.55c-0.06,0.03-0.13,0.06-0.19,0.1c-0.05,0.04-0.1,0.11-0.1,0.16c0,0.06,0.03,0.15,0.08,0.18
		c0.34,0.19,0.7,0.36,1.03,0.55c0.93,0.54,1.59,1.31,1.89,2.36c0.23,0.81,0.2,1.62-0.13,2.41c-0.15,0.37-0.38,0.69-0.69,0.94
		c-0.81,0.67-1.73,0.99-2.78,0.84c-0.81-0.12-1.47-0.54-1.96-1.19c-0.38-0.51-0.38-1.17-0.02-1.71c0.2-0.3,0.45-0.54,0.79-0.7
		c0.54-0.26,1.17-0.08,1.5,0.43c0.16,0.25,0.22,0.53,0.18,0.82c-0.04,0.28-0.11,0.56-0.16,0.84c-0.03,0.13,0.12,0.27,0.26,0.27
		c0.41,0,0.77-0.14,1.09-0.38c0.17-0.13,0.3-0.3,0.38-0.51c0.39-1.03,0.09-2.52-1.16-3.25c-1.39-0.82-3.38-0.5-4.39,1.14
		c-0.51,0.83-0.62,1.74-0.39,2.68c0.06,0.24,0.17,0.47,0.25,0.7c0.08,0.23,0.02,0.38-0.19,0.4c-0.47,0.04-0.91,0.15-1.35,0.32
		c-0.3,0.12-0.58,0.29-0.77,0.56c-0.08,0.11-0.15,0.24-0.19,0.38c-0.08,0.3,0.01,0.56,0.22,0.78c0.23,0.23,0.52,0.37,0.83,0.47
		c0.44,0.14,0.88,0.27,1.32,0.42c0.05,0.02,0.11,0.12,0.1,0.17c-0.07,0.31-0.15,0.62-0.23,0.93c-0.32,1.34,0.02,2.49,1.06,3.38
		c1.01,0.87,2.18,1.03,3.4,0.51c1-0.43,1.52-1.26,1.65-2.33c0.05-0.44-0.07-0.85-0.26-1.24c-0.11-0.23-0.3-0.4-0.52-0.52
		c-0.29-0.16-0.6-0.21-0.93-0.21c-0.08,0-0.21,0.14-0.19,0.22c0.05,0.28,0.12,0.55,0.16,0.83c0.06,0.37-0.04,0.71-0.28,1
		c-0.3,0.36-0.81,0.5-1.26,0.34c-0.66-0.22-1.2-0.94-1.17-1.63c0.02-0.38,0.16-0.69,0.4-0.97c0.38-0.44,0.85-0.76,1.41-0.93
		c1.19-0.36,2.26-0.07,3.2,0.7c0.58,0.47,0.85,1.14,0.93,1.87c0.18,1.71-0.55,2.97-1.98,3.85c-0.36,0.22-0.76,0.39-1.14,0.59
		c-0.1,0.05-0.1,0.19,0,0.25c0.12,0.07,0.24,0.15,0.37,0.21c0.25,0.13,0.51,0.25,0.76,0.39c0.7,0.4,1.25,0.95,1.61,1.67
		c0.49,0.97,0.55,1.98,0.18,3c-0.12,0.34-0.32,0.64-0.58,0.89c-0.7,0.68-1.54,1.03-2.51,1.03c-0.99-0.01-1.79-0.47-2.37-1.25
		c-0.38-0.5-0.38-1.06-0.07-1.61c0.19-0.35,0.48-0.62,0.84-0.8c0.71-0.35,1.6,0.16,1.67,0.95c0.03,0.29-0.03,0.57-0.11,0.84
		c-0.04,0.13-0.04,0.28-0.03,0.42c0,0.05,0.08,0.11,0.13,0.15c0.02,0.02,0.07,0.02,0.1,0.01c0.14-0.02,0.28-0.05,0.42-0.08
		c0.73-0.15,1.1-0.64,1.18-1.34c0.16-1.47-0.54-2.5-1.87-3c-1.63-0.62-3.25,0.39-3.85,1.5c-0.47,0.86-0.57,1.75-0.31,2.69
		c0.08,0.27,0.18,0.54,0.26,0.8c-0.06,0.06-0.11,0.13-0.17,0.15c-0.24,0.07-0.48,0.12-0.73,0.17c-0.35,0.07-0.68,0.2-1,0.38
		c-0.22,0.13-0.4,0.29-0.55,0.5c-0.19,0.29-0.15,0.74,0.08,1c0.14,0.16,0.31,0.3,0.51,0.37c0.3,0.12,0.6,0.23,0.9,0.33
		c0.2,0.07,0.41,0.11,0.62,0.17c0.22,0.07,0.3,0.2,0.25,0.39c-0.08,0.31-0.19,0.62-0.25,0.93c-0.23,1.08,0.03,2.05,0.74,2.9
		c0.72,0.86,1.67,1.16,2.77,1.1c1.4-0.08,2.36-1.11,2.6-2.3c0.11-0.55,0-1.06-0.25-1.55c-0.1-0.19-0.25-0.35-0.45-0.45
		c-0.29-0.15-0.59-0.25-0.91-0.27c-0.13,0-0.28,0.15-0.26,0.28c0.05,0.28,0.13,0.55,0.16,0.84c0.07,0.52-0.18,0.99-0.65,1.25
		c-0.3,0.17-0.61,0.17-0.93,0.05c-0.49-0.19-0.83-0.55-1.03-1.03c-0.16-0.38-0.15-0.77,0.03-1.14c0.06-0.13,0.13-0.26,0.22-0.36
		c0.86-0.94,1.9-1.36,3.17-1.04c0.17,0.04,0.35,0.09,0.51,0.15c1.17,0.47,1.81,1.35,1.91,2.6c0.12,1.39-0.43,2.5-1.49,3.37
		c-0.39,0.32-0.83,0.55-1.29,0.74c-0.13,0.06-0.26,0.11-0.34,0.24c-0.05,0.07-0.06,0.14,0.01,0.19c0.15,0.1,0.3,0.19,0.45,0.28
		c0.25,0.14,0.51,0.25,0.76,0.4c0.88,0.55,1.5,1.3,1.79,2.31c0.18,0.63,0.19,1.27,0.03,1.9c-0.28,1.1-1.03,1.76-2.08,2.12
		c-0.3,0.1-0.62,0.16-0.94,0.2c-0.44,0.06-0.85-0.08-1.25-0.23c-0.47-0.18-0.88-0.48-1.21-0.86c-0.51-0.59-0.53-1.35-0.07-1.97
		c0.17-0.23,0.38-0.42,0.64-0.56c0.6-0.32,1.34-0.09,1.65,0.52c0.12,0.23,0.14,0.48,0.11,0.73c-0.04,0.28-0.11,0.56-0.17,0.83
		c-0.02,0.09,0.1,0.21,0.19,0.22c0.33,0.01,0.64-0.05,0.93-0.21c0.33-0.18,0.54-0.44,0.66-0.8c0.31-0.98,0.04-2.45-1.33-3.18
		c-1.87-1.01-3.84,0.12-4.47,1.61c-0.33,0.78-0.38,1.59-0.14,2.41c0.08,0.27,0.18,0.54,0.27,0.8c-0.07,0.05-0.12,0.12-0.18,0.13
		c-0.31,0.08-0.63,0.13-0.94,0.22c-0.27,0.08-0.54,0.19-0.79,0.32c-0.15,0.08-0.29,0.21-0.41,0.33c-0.37,0.39-0.31,1,0.11,1.32
		c0.29,0.22,0.62,0.35,0.96,0.45c0.34,0.1,0.69,0.18,1.02,0.3c0.07,0.03,0.14,0.16,0.15,0.25c0.01,0.1-0.05,0.21-0.07,0.31
		c-0.06,0.24-0.14,0.48-0.19,0.72c-0.37,1.75,0.68,3.41,2.15,3.83c1.16,0.34,2.26,0.23,3.18-0.66c0.48-0.47,0.74-1.05,0.81-1.7
		c0.06-0.47-0.06-0.92-0.28-1.34c-0.07-0.12-0.17-0.23-0.28-0.32c-0.32-0.25-0.67-0.39-1.09-0.37c-0.14,0.01-0.27,0.15-0.25,0.28
		c0.05,0.24,0.11,0.48,0.15,0.73c0.11,0.67-0.28,1.25-0.86,1.41c-0.18,0.05-0.35,0.06-0.52,0.01c-0.51-0.15-0.88-0.45-1.13-0.91
		c-0.26-0.48-0.25-0.96,0.01-1.43c0.09-0.15,0.19-0.3,0.32-0.43c0.89-0.88,1.95-1.13,3.15-0.83c0.14,0.03,0.27,0.08,0.4,0.14
		c1.13,0.46,1.76,1.31,1.88,2.51c0.16,1.71-0.6,2.96-2.03,3.83c-0.33,0.2-0.69,0.36-1.04,0.55c-0.08,0.04-0.08,0.23,0,0.28
		c0.12,0.07,0.24,0.15,0.37,0.22c0.22,0.12,0.45,0.21,0.67,0.34c0.63,0.36,1.16,0.83,1.53,1.47c0.59,1.01,0.72,2.08,0.32,3.19
		c-0.19,0.52-0.51,0.94-0.96,1.26c-0.82,0.59-1.74,0.82-2.74,0.62c-0.8-0.16-1.44-0.6-1.87-1.31c-0.26-0.43-0.24-0.88-0.04-1.33
		c0.15-0.33,0.39-0.6,0.69-0.8c0.55-0.37,1.4-0.27,1.76,0.41c0.12,0.23,0.16,0.47,0.13,0.72c-0.04,0.25-0.1,0.49-0.16,0.73
		c-0.05,0.23,0.12,0.39,0.38,0.37c0.33-0.02,0.63-0.14,0.9-0.32c0.21-0.14,0.36-0.34,0.45-0.59c0.38-1.04,0.07-2.52-1.18-3.24
		c-1.79-1.02-3.9-0.12-4.62,1.64c-0.31,0.75-0.33,1.53-0.11,2.31c0.07,0.24,0.16,0.47,0.25,0.71c0.03,0.08-0.06,0.24-0.15,0.25
		c-0.39,0.05-0.78,0.1-1.14,0.25c-0.26,0.11-0.52,0.23-0.76,0.38c-0.14,0.09-0.26,0.24-0.36,0.38c-0.22,0.32-0.16,0.83,0.14,1.07
		c0.13,0.11,0.28,0.23,0.44,0.3c0.26,0.11,0.54,0.19,0.8,0.29c0.33,0.12,0.71,0.1,0.97,0.37c0.02,0.33-0.11,0.63-0.19,0.93
		c-0.29,1.03-0.12,1.97,0.47,2.85c0.84,1.25,2.52,1.73,3.89,1.15c1.04-0.44,1.6-1.27,1.72-2.39c0.05-0.44-0.07-0.85-0.27-1.24
		c-0.1-0.19-0.25-0.34-0.44-0.46c-0.28-0.17-0.58-0.26-0.92-0.24c-0.14,0.01-0.28,0.14-0.26,0.27c0.05,0.28,0.12,0.56,0.16,0.84
		c0.03,0.21-0.01,0.42-0.1,0.62c-0.36,0.78-1.13,0.8-1.62,0.57c-0.48-0.22-0.79-0.61-0.94-1.11c-0.11-0.39-0.07-0.78,0.15-1.13
		c0.42-0.67,1.04-1.08,1.79-1.26c0.79-0.18,1.57-0.1,2.3,0.26c0.74,0.36,1.26,0.92,1.51,1.72c0.36,1.17,0.18,2.26-0.5,3.26
		c-0.39,0.57-0.9,1.01-1.51,1.33c-0.28,0.15-0.58,0.28-0.86,0.43c-0.05,0.03-0.13,0.11-0.12,0.15c0.03,0.09,0.09,0.21,0.17,0.25
		c0.21,0.13,0.45,0.21,0.67,0.34c0.28,0.16,0.56,0.32,0.81,0.51c1.15,0.92,1.66,2.11,1.48,3.58c-0.11,0.85-0.51,1.55-1.24,2.03
		c-0.64,0.42-1.34,0.66-2.12,0.63c-0.95-0.05-1.71-0.47-2.28-1.21c-0.38-0.49-0.4-1.05-0.1-1.61c0.23-0.43,0.57-0.72,1.03-0.89
		c0.25-0.09,0.49-0.07,0.73,0.03c0.54,0.23,0.84,0.72,0.77,1.28c-0.04,0.28-0.11,0.56-0.16,0.84c-0.03,0.13,0.12,0.29,0.25,0.29
		c0.37,0,0.7-0.12,1.01-0.31c0.22-0.14,0.37-0.33,0.46-0.57c0.4-1.04,0.08-2.53-1.14-3.25c-1.64-0.97-3.78-0.29-4.59,1.5
		c-0.35,0.78-0.39,1.58-0.16,2.4c0.07,0.24,0.16,0.47,0.25,0.71c0.05,0.13-0.06,0.28-0.21,0.31c-0.14,0.02-0.28,0.04-0.42,0.05
		c-0.36,0.04-0.69,0.17-1.02,0.31c-0.23,0.1-0.43,0.24-0.61,0.42c-0.41,0.42-0.35,1.07,0.13,1.39c0.33,0.22,0.71,0.34,1.08,0.46
		c0.27,0.09,0.55,0.15,0.82,0.24c0.06,0.02,0.12,0.07,0.17,0.12c0.02,0.02,0.04,0.06,0.03,0.09c-0.07,0.31-0.15,0.62-0.23,0.93
		c-0.26,1.03-0.07,1.98,0.54,2.84c0.78,1.1,2.34,1.68,3.82,1.1c1.01-0.4,1.7-1.39,1.75-2.49c0.02-0.4-0.09-0.78-0.27-1.13
		c-0.11-0.23-0.29-0.4-0.52-0.52c-0.29-0.15-0.6-0.22-0.92-0.22c-0.08,0-0.2,0.14-0.19,0.22c0.05,0.28,0.11,0.56,0.15,0.83
		c0.05,0.33-0.02,0.64-0.21,0.91c-0.3,0.43-0.83,0.61-1.32,0.43c-0.57-0.21-0.96-0.62-1.13-1.2c-0.11-0.39-0.07-0.79,0.17-1.13
		c0.14-0.2,0.29-0.41,0.48-0.57c0.95-0.8,2.02-1,3.2-0.59c1.22,0.42,1.99,1.42,2.06,2.72c0.1,1.68-0.69,2.86-2.08,3.71
		c-0.33,0.2-0.7,0.36-1.05,0.53c-0.11,0.06-0.13,0.2-0.03,0.25c0.15,0.09,0.31,0.17,0.47,0.26c0.25,0.13,0.51,0.25,0.76,0.4
		c0.66,0.39,1.18,0.92,1.53,1.61c0.5,0.97,0.56,1.98,0.19,3c-0.16,0.44-0.43,0.82-0.8,1.12c-0.6,0.49-1.3,0.73-2.06,0.82
		c-0.51,0.06-0.99-0.08-1.45-0.3c-0.39-0.19-0.73-0.45-1.02-0.77c-0.52-0.58-0.55-1.32-0.11-1.97c0.19-0.27,0.43-0.47,0.72-0.62
		c0.75-0.37,1.69,0.2,1.69,1.04c0,0.21-0.05,0.42-0.09,0.63c-0.02,0.14-0.06,0.28-0.09,0.42c-0.02,0.12,0.14,0.3,0.26,0.27
		c0.24-0.05,0.5-0.08,0.73-0.16c0.39-0.14,0.65-0.42,0.78-0.82c0.36-1.17-0.06-2.58-1.37-3.26c-1.69-0.87-3.35,0-4.08,1.05
		c-0.63,0.91-0.77,1.9-0.49,2.96c0.07,0.27,0.18,0.54,0.27,0.8c-0.06,0.06-0.1,0.13-0.15,0.15c-0.28,0.07-0.56,0.12-0.83,0.2
		c-0.3,0.1-0.6,0.21-0.89,0.35c-0.23,0.11-0.4,0.29-0.55,0.5c-0.2,0.29-0.16,0.73,0.07,1c0.17,0.19,0.37,0.34,0.61,0.42
		c0.33,0.12,0.67,0.23,1.01,0.34c0.14,0.04,0.28,0.07,0.41,0.11c0.2,0.06,0.3,0.21,0.25,0.4c-0.08,0.31-0.19,0.62-0.25,0.93
		c-0.26,1.3,0.12,2.4,1.11,3.27c0.5,0.44,1.08,0.68,1.75,0.7c0.21,0.01,0.43,0,0.64,0c1.24-0.01,2.23-0.98,2.52-1.98
		c0.15-0.54,0.15-1.05-0.03-1.57c-0.14-0.39-0.38-0.68-0.77-0.83c-0.23-0.09-0.46-0.19-0.72-0.16c-0.13,0.01-0.28,0.15-0.25,0.28
		c0.05,0.28,0.12,0.56,0.16,0.84c0.05,0.37-0.06,0.71-0.32,0.98c-0.34,0.37-0.82,0.47-1.27,0.29c-0.49-0.2-0.83-0.55-1.03-1.03
		c-0.16-0.38-0.15-0.77,0.03-1.14c0.08-0.16,0.17-0.32,0.29-0.44c0.82-0.86,1.82-1.22,3.01-0.98c0.24,0.05,0.48,0.14,0.71,0.23
		c1.09,0.46,1.67,1.3,1.8,2.46c0.17,1.52-0.44,2.71-1.66,3.6c-0.31,0.23-0.68,0.39-1.02,0.58c-0.12,0.07-0.25,0.13-0.37,0.2
		c-0.09,0.05-0.12,0.23-0.04,0.27c0.18,0.11,0.37,0.21,0.55,0.32c0.31,0.18,0.63,0.33,0.92,0.55c1.27,0.97,1.82,2.25,1.62,3.84
		c-0.1,0.77-0.45,1.43-1.07,1.91c-0.8,0.62-1.7,0.89-2.71,0.71c-0.81-0.15-1.45-0.58-1.91-1.26c-0.32-0.48-0.33-1.01-0.08-1.53
		c0.17-0.36,0.44-0.64,0.79-0.85c0.78-0.47,1.68,0.12,1.76,0.9c0.02,0.21-0.01,0.43-0.04,0.64c-0.02,0.18-0.09,0.34-0.12,0.52
		c-0.03,0.15,0.09,0.3,0.22,0.3c0.81,0.02,1.4-0.41,1.57-1.16c0.31-1.33-0.24-2.76-1.79-3.35c-0.82-0.31-1.61-0.26-2.38,0.12
		c-0.8,0.4-1.36,1-1.68,1.82c-0.03-0.05-0.07-0.1-0.11-0.14c-0.52-0.38-1.93-1.31-2.73-0.71c-0.79,0.6,0.52,2.68,0.55,2.73
		c-0.02,0.01-0.03,0.02-0.05,0.03c-1.03,0.77-1.6,2.23-1.09,3.64c0.31,0.85,0.93,1.42,1.79,1.72c0.56,0.19,1.12,0.19,1.68,0.01
		c0.44-0.14,0.74-0.41,0.92-0.83c0.1-0.23,0.16-0.47,0.11-0.73c-0.01-0.08-0.14-0.2-0.22-0.19c-0.28,0.05-0.56,0.1-0.84,0.15
		c-0.55,0.09-1.08-0.19-1.34-0.68c-0.14-0.27-0.16-0.54-0.06-0.83c0.23-0.69,0.96-1.29,1.82-1.2c0.29,0.03,0.56,0.13,0.78,0.31
		c0.61,0.48,1,1.1,1.13,1.88c0.09,0.54,0.05,1.07-0.11,1.59c-0.43,1.35-1.41,2.04-2.76,2.17c-1.34,0.12-2.44-0.37-3.34-1.35
		c-0.29-0.32-0.52-0.68-0.71-1.06c-0.11-0.22-0.21-0.45-0.33-0.67c-0.03-0.06-0.12-0.14-0.14-0.13c-0.09,0.04-0.2,0.1-0.25,0.18
		c-0.14,0.24-0.25,0.51-0.4,0.76c-0.19,0.3-0.37,0.61-0.61,0.87c-0.98,1.07-2.2,1.56-3.65,1.39c-1.23-0.15-2.12-0.8-2.6-1.96
		c-0.12-0.29-0.21-0.61-0.25-0.92c-0.15-1.13,0.32-2.01,1.17-2.72c0.57-0.47,1.44-0.44,2-0.05c0.27,0.19,0.49,0.41,0.65,0.7
		c0.31,0.55,0.1,1.25-0.47,1.56c-0.29,0.16-0.6,0.22-0.93,0.16c-0.24-0.04-0.49-0.11-0.73-0.16c-0.07-0.01-0.15,0-0.21,0.03
		c-0.05,0.03-0.12,0.1-0.12,0.16c-0.01,0.36,0.07,0.71,0.28,1.01c0.19,0.28,0.44,0.47,0.76,0.55c0.64,0.17,1.28,0.15,1.9-0.05
		c0.49-0.15,0.89-0.44,1.21-0.85c1.04-1.31,0.91-2.97-0.3-4.16c-0.63-0.62-1.41-0.96-2.3-1c-0.61-0.03-1.21,0.01-1.79,0.25
		c-0.13,0.06-0.27,0.1-0.42,0.15c-0.06-0.09-0.15-0.16-0.18-0.26c-0.05-0.17-0.07-0.35-0.1-0.52c-0.06-0.36-0.19-0.69-0.36-1
		c-0.12-0.22-0.27-0.42-0.47-0.58c-0.4-0.33-1.02-0.28-1.34,0.11c-0.23,0.28-0.38,0.6-0.48,0.95c-0.1,0.34-0.2,0.68-0.31,1.02
		c-0.04,0.12-0.21,0.22-0.34,0.19c-0.21-0.05-0.42-0.08-0.62-0.15c-0.45-0.15-0.91-0.18-1.37-0.17c-0.94,0.02-1.75,0.38-2.39,1.04
		c-0.87,0.89-1.14,1.96-0.77,3.15c0.29,0.96,0.98,1.56,1.91,1.86c0.55,0.18,1.12,0.19,1.68,0.02c0.51-0.16,0.87-0.48,1.02-1
		c0.01-0.03,0.02-0.07,0.03-0.1c0.17-0.58,0.03-0.75-0.54-0.63c-0.17,0.04-0.34,0.09-0.52,0.12c-0.57,0.1-1.25-0.24-1.46-0.84
		c-0.06-0.17-0.08-0.34-0.04-0.52c0.17-0.72,0.97-1.46,1.94-1.34c0.29,0.04,0.56,0.12,0.79,0.3c0.73,0.58,1.19,1.32,1.22,2.28
		c0.01,0.36-0.01,0.71-0.12,1.06c-0.37,1.22-1.19,2.15-2.9,2.3c-1.77,0.15-3.1-0.64-4.03-2.12c-0.19-0.3-0.34-0.62-0.51-0.94
		c-0.07-0.12-0.28-0.11-0.36,0.02c-0.09,0.15-0.17,0.31-0.26,0.47c-0.12,0.22-0.24,0.44-0.37,0.65c-0.37,0.58-0.85,1.05-1.45,1.39
		c-0.97,0.55-2.01,0.71-3.1,0.42c-1.32-0.35-2.04-1.25-2.31-2.54c-0.24-1.15,0.16-2.1,1.02-2.87c0.62-0.55,1.56-0.55,2.17-0.08
		c0.14,0.11,0.27,0.23,0.39,0.36c0.33,0.39,0.42,0.83,0.22,1.3c-0.2,0.47-0.61,0.68-1.1,0.72c-0.17,0.01-0.35-0.03-0.53-0.06
		c-0.21-0.03-0.42-0.07-0.63-0.11c-0.08-0.01-0.23,0.11-0.23,0.18c0,0.07-0.02,0.15-0.01,0.21c0.07,0.24,0.13,0.48,0.23,0.71
		c0.14,0.3,0.4,0.51,0.71,0.61c0.74,0.22,1.48,0.2,2.2-0.09c0.78-0.31,1.24-0.93,1.54-1.69c0.29-0.74,0.25-1.47-0.09-2.18
		c-0.58-1.23-1.57-1.9-2.92-2.05c-0.8-0.09-1.56,0.09-2.29,0.38c-0.08,0.03-0.15-0.01-0.17-0.09c-0.03-0.14-0.05-0.28-0.08-0.41
		c-0.09-0.34-0.18-0.69-0.3-1.02c-0.1-0.27-0.25-0.51-0.46-0.71c-0.47-0.47-1.21-0.4-1.57,0.15c-0.22,0.33-0.34,0.71-0.46,1.08
		c-0.09,0.27-0.17,0.54-0.25,0.82c-0.03,0.09-0.17,0.16-0.26,0.14c-0.24-0.06-0.49-0.1-0.73-0.18c-0.45-0.14-0.91-0.17-1.38-0.14
		c-0.97,0.05-1.79,0.44-2.45,1.16c-0.5,0.54-0.77,1.19-0.77,1.94c0,0.39-0.01,0.78,0.13,1.16c0.33,0.9,0.97,1.48,1.86,1.78
		c0.63,0.21,1.26,0.19,1.89-0.03c0.6-0.22,0.98-0.85,0.91-1.54c-0.01-0.07-0.16-0.18-0.24-0.17c-0.28,0.05-0.56,0.11-0.84,0.15
		c-0.37,0.06-0.71-0.04-1.01-0.25c-0.45-0.31-0.61-0.94-0.37-1.42c0.33-0.64,1.01-1.12,1.84-1.02c0.33,0.04,0.63,0.16,0.87,0.38
		c0.95,0.85,1.38,1.87,1.03,3.16c-0.34,1.25-1.13,2.03-2.39,2.33c-0.9,0.21-1.77,0.1-2.61-0.28c-0.88-0.4-1.53-1.03-2-1.86
		c-0.18-0.31-0.33-0.63-0.5-0.94c-0.05-0.09-0.2-0.07-0.26,0.03c-0.14,0.25-0.28,0.49-0.41,0.75c-0.18,0.35-0.4,0.68-0.65,0.97
		c-1.08,1.25-2.89,1.74-4.38,1.24c-0.56-0.19-1.02-0.5-1.39-0.95c-0.42-0.51-0.66-1.1-0.76-1.74c-0.1-0.62,0.03-1.21,0.34-1.75
		c0.19-0.35,0.45-0.64,0.74-0.91c0.47-0.42,1.02-0.52,1.6-0.36c0.58,0.16,1,0.53,1.23,1.1c0.18,0.45-0.02,1.03-0.45,1.32
		c-0.31,0.21-0.65,0.29-1.02,0.23c-0.28-0.04-0.56-0.1-0.84-0.15c-0.09-0.01-0.2,0.1-0.21,0.2c-0.05,0.54,0.16,0.98,0.56,1.32
		c0.13,0.11,0.31,0.19,0.48,0.23c0.6,0.16,1.21,0.14,1.8-0.03c0.53-0.15,0.96-0.46,1.3-0.89c0.94-1.18,0.9-2.77-0.11-3.93
		c-0.67-0.76-1.51-1.17-2.53-1.21c-0.61-0.02-1.21,0.01-1.78,0.26c-0.13,0.06-0.26,0.1-0.41,0.15c-0.06-0.11-0.12-0.19-0.15-0.29
		c-0.08-0.31-0.13-0.63-0.23-0.93c-0.13-0.41-0.31-0.8-0.64-1.09c-0.19-0.18-0.42-0.27-0.68-0.28c-0.3-0.01-0.55,0.12-0.75,0.35
		c-0.21,0.25-0.34,0.55-0.44,0.85c-0.11,0.3-0.2,0.61-0.27,0.92c-0.1,0.43-0.3,0.41-0.62,0.33c-0.55-0.15-1.1-0.29-1.68-0.28
		c-0.78,0.01-1.47,0.26-2.09,0.71c-0.83,0.6-1.29,1.44-1.32,2.46c-0.04,1.49,0.84,2.52,2.07,2.91c0.52,0.16,1.04,0.18,1.58,0.04
		c0.56-0.16,0.96-0.46,1.12-1.03c0.03-0.1,0.06-0.21,0.08-0.31c0.07-0.3-0.1-0.5-0.39-0.44c-0.21,0.04-0.42,0.1-0.63,0.14
		c-0.33,0.07-0.63,0.02-0.93-0.13c-0.61-0.31-0.84-1-0.47-1.64c0.34-0.59,0.87-0.93,1.59-0.92c0.37,0,0.71,0.1,1,0.33
		c0.73,0.59,1.16,1.33,1.19,2.29c0.02,0.58-0.1,1.14-0.36,1.65c-0.36,0.7-0.9,1.2-1.64,1.45c-1.69,0.56-3.16,0.16-4.41-1.08
		c-0.33-0.33-0.58-0.72-0.8-1.13c-0.11-0.22-0.21-0.45-0.33-0.67c-0.03-0.05-0.12-0.08-0.17-0.08c-0.06,0-0.14,0.05-0.17,0.1
		c-0.1,0.15-0.17,0.31-0.26,0.47c-0.1,0.19-0.19,0.39-0.3,0.57c-0.65,1.05-1.58,1.73-2.79,1.99c-0.82,0.17-1.63,0.1-2.41-0.25
		c-0.43-0.19-0.79-0.48-1.08-0.86c-0.59-0.77-0.82-1.65-0.69-2.62c0.04-0.29,0.15-0.55,0.29-0.8c0.21-0.38,0.48-0.71,0.81-0.99
		c0.31-0.26,0.68-0.37,1.09-0.38c0.77-0.02,1.59,0.62,1.74,1.33c0.03,0.13,0.03,0.29,0,0.42c-0.19,0.75-0.88,1.04-1.47,0.97
		c-0.28-0.04-0.56-0.12-0.84-0.17c-0.17-0.03-0.35,0.17-0.31,0.34c0.06,0.24,0.11,0.49,0.22,0.71c0.18,0.37,0.48,0.62,0.89,0.71
		c0.57,0.14,1.13,0.12,1.7-0.01c0.35-0.08,0.67-0.25,0.95-0.47c1.07-0.85,1.44-2.35,0.85-3.57c-0.59-1.22-1.59-1.89-2.94-2.01
		c-0.76-0.07-1.49,0.06-2.19,0.38c-0.09,0.04-0.24-0.04-0.26-0.13c-0.03-0.14-0.06-0.28-0.07-0.42c-0.05-0.43-0.21-0.83-0.4-1.21
		c-0.11-0.23-0.26-0.42-0.46-0.58c-0.27-0.21-0.57-0.27-0.91-0.18c-0.22,0.06-0.37,0.2-0.51,0.37c-0.22,0.29-0.34,0.62-0.45,0.96
		c-0.11,0.34-0.22,0.68-0.34,1.01c-0.02,0.05-0.11,0.12-0.16,0.11c-0.25-0.04-0.5-0.07-0.73-0.15c-0.56-0.18-1.13-0.23-1.69-0.14
		c-1.33,0.2-2.35,0.86-2.81,2.17c-0.75,2.17,0.73,3.68,2.17,3.94c0.55,0.1,1.07,0.04,1.57-0.14c0.35-0.12,0.62-0.37,0.75-0.72
		c0.09-0.23,0.12-0.48,0.16-0.72c0.02-0.12-0.15-0.27-0.28-0.26c-0.14,0.02-0.28,0.04-0.42,0.07c-0.17,0.03-0.35,0.1-0.52,0.11
		c-0.54,0.03-0.97-0.17-1.26-0.65c-0.18-0.3-0.19-0.61-0.06-0.93c0.29-0.74,1.12-1.31,2.09-1.1c0.25,0.05,0.47,0.18,0.66,0.34
		c0.86,0.69,1.44,1.94,1.02,3.26c-0.36,1.15-1.08,1.91-2.26,2.2c-1.69,0.41-3.09-0.13-4.23-1.39c-0.39-0.43-0.62-0.95-0.87-1.47
		c-0.04-0.09-0.14-0.15-0.22-0.22c-0.02-0.02-0.07-0.02-0.09,0c-0.05,0.05-0.11,0.1-0.14,0.16c-0.17,0.31-0.33,0.63-0.51,0.94
		c-0.63,1.06-1.55,1.75-2.76,2.03c-0.82,0.19-1.63,0.13-2.41-0.21c-0.87-0.38-1.39-1.08-1.7-1.96c-0.03-0.1-0.05-0.21-0.08-0.31
		c-0.43-1.28,0.45-2.65,1.26-3.16c0.39-0.24,0.81-0.29,1.24-0.2c0.59,0.12,1.04,0.48,1.29,1.02c0.37,0.8-0.31,1.71-1.21,1.66
		c-0.21-0.01-0.42-0.08-0.63-0.11c-0.14-0.02-0.28-0.03-0.42-0.05c-0.08-0.01-0.22,0.11-0.22,0.19c-0.06,0.76,0.43,1.44,1.14,1.59
		c0.53,0.11,1.07,0.1,1.59-0.03c0.61-0.14,1.1-0.48,1.48-0.99c0.37-0.5,0.58-1.06,0.63-1.68c0.03-0.43-0.05-0.86-0.23-1.25
		c-0.57-1.29-1.57-1.99-2.97-2.13c-0.46-0.04-0.93-0.02-1.38,0.08c-0.34,0.07-0.63,0.32-1,0.27c-0.18-0.32-0.13-0.69-0.27-1.02
		c-0.1-0.23-0.16-0.47-0.28-0.69c-0.1-0.19-0.23-0.36-0.38-0.51c-0.43-0.45-1.13-0.4-1.5,0.09c-0.22,0.29-0.34,0.62-0.46,0.96
		c-0.1,0.3-0.19,0.61-0.29,0.92c-0.03,0.11-0.23,0.21-0.35,0.19c-0.28-0.06-0.55-0.13-0.83-0.19c-0.86-0.18-1.7-0.15-2.51,0.22
		c-0.53,0.24-0.97,0.6-1.33,1.06c-0.48,0.62-0.64,1.34-0.59,2.11c0.09,1.33,0.96,2.32,2.27,2.63c0.51,0.12,0.99,0.08,1.48-0.06
		c0.43-0.12,0.75-0.39,0.93-0.82c0.08-0.2,0.14-0.4,0.15-0.62c0.01-0.18-0.15-0.35-0.33-0.32c-0.24,0.05-0.49,0.11-0.73,0.15
		c-0.33,0.06-0.64,0-0.93-0.16c-0.6-0.33-0.8-1.07-0.42-1.66c0.48-0.75,1.18-0.99,1.92-0.85c0.25,0.05,0.47,0.16,0.67,0.32
		c0.52,0.41,0.86,0.94,1.06,1.57c0.47,1.46-0.45,3.46-2.14,3.88c-1.74,0.44-3.16-0.04-4.35-1.33c-0.29-0.32-0.5-0.69-0.69-1.08
		c-0.1-0.19-0.19-0.38-0.29-0.57c-0.05-0.09-0.21-0.11-0.26-0.03c-0.06,0.09-0.13,0.17-0.18,0.26c-0.17,0.31-0.31,0.64-0.51,0.94
		c-0.93,1.39-2.23,2.07-3.9,1.96c-1.89-0.12-3.28-1.81-3.01-3.68c0.13-0.89,0.62-1.59,1.39-2.06c0.45-0.28,0.96-0.28,1.44-0.09
		c0.41,0.15,0.73,0.44,0.96,0.82c0.35,0.59,0.14,1.32-0.48,1.64c-0.26,0.13-0.54,0.19-0.83,0.14c-0.25-0.04-0.49-0.11-0.73-0.16
		c-0.27-0.05-0.44,0.09-0.4,0.33c0.02,0.14,0.04,0.28,0.08,0.42c0.19,0.6,0.59,0.95,1.22,1.05c0.39,0.06,0.78,0.06,1.17,0
		c0.75-0.11,1.33-0.47,1.78-1.08c1.04-1.42,0.68-3.15-0.58-4.21c-0.62-0.52-1.34-0.79-2.16-0.83c-0.69-0.03-1.35,0.07-1.98,0.35
		c-0.2,0.09-0.32,0-0.37-0.24c-0.04-0.17-0.06-0.35-0.1-0.53c-0.07-0.35-0.19-0.69-0.37-1c-0.11-0.18-0.24-0.35-0.39-0.5
		c-0.41-0.4-1.07-0.34-1.42,0.1c-0.2,0.26-0.33,0.55-0.43,0.85c-0.12,0.37-0.23,0.75-0.35,1.12c-0.03,0.08-0.18,0.17-0.25,0.16
		c-0.07-0.01-0.14-0.02-0.21-0.04c-0.17-0.04-0.35-0.07-0.52-0.13c-0.41-0.14-0.84-0.16-1.27-0.16c-0.98,0.01-1.82,0.37-2.48,1.07
		c-0.86,0.9-1.11,1.97-0.73,3.16c0.29,0.92,0.95,1.49,1.84,1.8c0.59,0.21,1.19,0.22,1.79,0.02c0.47-0.15,0.81-0.44,0.96-0.92
		c0.05-0.17,0.09-0.34,0.13-0.52c0.04-0.17-0.15-0.35-0.33-0.31c-0.24,0.04-0.49,0.1-0.73,0.15c-0.37,0.08-0.71,0-1.02-0.2
		c-0.28-0.18-0.46-0.44-0.54-0.77c-0.02-0.1-0.03-0.21-0.01-0.32c0.17-0.86,1.1-1.63,2.2-1.36c0.28,0.07,0.53,0.22,0.74,0.41
		c0.94,0.89,1.26,1.97,0.89,3.21c-0.4,1.36-1.35,2.12-2.81,2.26c-1.81,0.17-3.17-0.62-4.12-2.15c-0.19-0.3-0.34-0.62-0.52-0.93
		c-0.04-0.07-0.24-0.07-0.28-0.01c-0.08,0.12-0.16,0.23-0.23,0.36c-0.1,0.19-0.19,0.38-0.3,0.57c-0.62,1.08-1.52,1.78-2.73,2.08
		c-0.86,0.21-1.7,0.16-2.51-0.21c-1.03-0.47-1.57-1.31-1.78-2.39c-0.22-1.11,0.15-2.04,0.97-2.79c0.39-0.36,0.84-0.52,1.37-0.46
		c0.66,0.07,1.15,0.42,1.43,0.99c0.41,0.85-0.18,1.69-1.11,1.72c-0.21,0.01-0.42-0.06-0.63-0.1c-0.17-0.03-0.35-0.05-0.53-0.06
		c-0.09-0.01-0.2,0.11-0.2,0.21c0,0.85,0.49,1.45,1.29,1.58c0.39,0.06,0.78,0.06,1.17,0.01c0.75-0.1,1.34-0.46,1.79-1.06
		c0.35-0.47,0.55-1,0.62-1.58c0.06-0.51-0.06-1-0.28-1.45c-0.59-1.23-1.58-1.89-2.93-2.02c-0.76-0.07-1.49,0.05-2.19,0.37
		c-0.1,0.04-0.24-0.03-0.26-0.11c-0.02-0.1-0.04-0.21-0.06-0.31c-0.04-0.39-0.17-0.77-0.33-1.12c-0.09-0.19-0.2-0.38-0.33-0.55
		c-0.52-0.65-1.36-0.58-1.77,0.13c-0.19,0.34-0.32,0.71-0.42,1.09c-0.07,0.24-0.15,0.48-0.24,0.71c-0.02,0.05-0.12,0.11-0.17,0.1
		c-0.28-0.05-0.56-0.1-0.83-0.18c-0.52-0.15-1.06-0.19-1.59-0.11c-1.16,0.16-2.07,0.74-2.65,1.78c-0.19,0.34-0.31,0.72-0.32,1.12
		c0,0.18,0,0.36-0.01,0.53c-0.03,1.08,0.76,2.2,2.03,2.6c0.56,0.18,1.12,0.18,1.68,0.02c0.48-0.14,0.82-0.43,0.99-0.9
		c0.05-0.13,0.07-0.28,0.1-0.41c0.06-0.32-0.11-0.5-0.4-0.45c-0.21,0.04-0.42,0.1-0.63,0.14c-0.37,0.08-0.71-0.01-1.02-0.2
		c-0.51-0.31-0.69-0.98-0.41-1.5c0.37-0.67,1.06-1.1,1.86-0.99c0.29,0.04,0.55,0.15,0.78,0.33c0.82,0.61,1.49,1.94,1.11,3.14
		c-0.1,0.31-0.19,0.61-0.34,0.9c-0.38,0.69-0.95,1.15-1.69,1.39c-1.44,0.46-2.74,0.17-3.92-0.75c-0.45-0.36-0.81-0.81-1.08-1.31
		c-0.14-0.25-0.25-0.51-0.39-0.76c-0.05-0.09-0.14-0.16-0.2-0.23c-0.18,0.1-0.25,0.27-0.34,0.42c-0.17,0.31-0.32,0.64-0.52,0.93
		c-0.89,1.31-2.14,1.96-3.73,1.9c-1.59-0.06-2.57-0.98-3.02-2.29c-0.49-1.42,0.19-2.66,1.05-3.34c0.49-0.39,1.05-0.42,1.62-0.23
		c0.41,0.14,0.74,0.42,0.97,0.8c0.34,0.54,0.19,1.26-0.35,1.6c-0.31,0.2-0.66,0.27-1.02,0.2c-0.28-0.05-0.55-0.19-0.84-0.14
		c-0.06,0.01-0.13,0.07-0.16,0.12c-0.03,0.06-0.03,0.14-0.03,0.21c0,0.29,0.1,0.56,0.25,0.81c0.17,0.29,0.42,0.49,0.74,0.58
		c0.67,0.19,1.35,0.18,2-0.06c1.03-0.38,1.6-1.17,1.79-2.22c0.19-1.06-0.14-1.97-0.91-2.73c-0.66-0.66-1.46-1-2.4-1.03
		c-0.61-0.02-1.21,0.03-1.78,0.28c-0.12,0.05-0.26,0.09-0.38,0.12c-0.21-0.26-0.19-0.57-0.26-0.84c-0.08-0.31-0.18-0.62-0.32-0.9
		c-0.11-0.23-0.26-0.42-0.45-0.59c-0.42-0.38-1.08-0.32-1.42,0.13c-0.22,0.29-0.36,0.62-0.46,0.96c-0.11,0.34-0.19,0.69-0.31,1.02
		c-0.03,0.07-0.18,0.15-0.26,0.14c-0.25-0.03-0.49-0.09-0.73-0.17c-0.49-0.16-0.98-0.19-1.48-0.14c-1.26,0.12-2.24,0.71-2.82,1.85
		c-0.78,1.53-0.21,3.36,1.37,4.07c0.72,0.32,1.45,0.36,2.18,0.1c0.39-0.14,0.68-0.39,0.82-0.79c0.07-0.2,0.11-0.41,0.16-0.62
		c0.03-0.17-0.15-0.34-0.33-0.31c-0.24,0.05-0.49,0.11-0.73,0.15c-0.33,0.07-0.64,0-0.93-0.15c-0.67-0.35-0.76-1.14-0.43-1.66
		c0.39-0.61,0.96-0.94,1.71-0.88c0.37,0.03,0.69,0.17,0.96,0.42c1.01,0.89,1.31,2.01,0.93,3.29c-0.37,1.26-1.26,2.09-2.83,2.23
		c-1.67,0.15-2.99-0.53-3.92-1.91c-0.26-0.38-0.44-0.81-0.66-1.22c-0.04-0.08-0.23-0.08-0.28,0c-0.06,0.09-0.12,0.17-0.17,0.27
		c-0.12,0.22-0.23,0.44-0.35,0.66c-0.61,1.08-1.5,1.79-2.7,2.1c-0.82,0.21-1.63,0.17-2.41-0.13c-0.55-0.21-0.99-0.56-1.33-1.04
		c-0.44-0.63-0.67-1.33-0.64-2.11c0.05-1.05,0.56-1.82,1.43-2.37c0.41-0.26,0.9-0.26,1.35-0.1c0.6,0.21,1.03,0.62,1.19,1.27
		c0.02,0.1,0.03,0.22,0.01,0.32c-0.17,0.81-0.88,1.1-1.41,1.04c-0.18-0.02-0.35-0.07-0.52-0.11c-0.14-0.03-0.28-0.05-0.42-0.07
		c-0.13-0.02-0.3,0.15-0.27,0.26c0.04,0.21,0.07,0.42,0.14,0.62c0.18,0.51,0.55,0.82,1.09,0.91c0.42,0.07,0.85,0.08,1.28,0.02
		c0.59-0.09,1.09-0.34,1.49-0.77c0.56-0.59,0.86-1.3,0.88-2.12c0.01-0.44-0.11-0.85-0.3-1.24c-0.62-1.21-1.61-1.87-2.96-1.98
		c-0.76-0.06-1.49,0.08-2.19,0.39c-0.07,0.03-0.23-0.08-0.24-0.16c-0.02-0.14-0.04-0.28-0.06-0.42c-0.05-0.43-0.21-0.83-0.41-1.21
		c-0.11-0.23-0.27-0.42-0.47-0.57c-0.28-0.21-0.58-0.25-0.91-0.16c-0.18,0.05-0.33,0.16-0.43,0.31c-0.14,0.21-0.27,0.42-0.37,0.65
		c-0.1,0.23-0.18,0.47-0.23,0.71c-0.24,1.01-0.27,0.85-1.15,0.62c-0.53-0.14-1.05-0.18-1.59-0.14c-1.37,0.1-2.6,1.1-2.97,2.41
		c-0.47,1.67,0.49,3.29,2.18,3.7c0.51,0.12,0.99,0.09,1.48-0.05c0.52-0.15,0.86-0.49,1.01-1.01c0.04-0.14,0.06-0.28,0.08-0.42
		c0.03-0.19-0.12-0.37-0.31-0.33c-0.28,0.05-0.56,0.12-0.84,0.17c-0.54,0.09-1.08-0.18-1.35-0.67c-0.15-0.26-0.17-0.54-0.07-0.83
		c0.28-0.81,1.15-1.4,2.14-1.17c0.25,0.06,0.46,0.18,0.66,0.35c0.89,0.74,1.4,1.97,0.99,3.27c-0.42,1.33-1.38,2.13-2.8,2.27
		c-1.72,0.17-3.05-0.54-4.01-1.95c-0.2-0.29-0.33-0.63-0.5-0.94c-0.05-0.09-0.11-0.18-0.18-0.26c-0.05-0.06-0.14-0.07-0.18-0.02
		c-0.1,0.14-0.2,0.29-0.29,0.45c-0.18,0.31-0.32,0.64-0.53,0.93c-0.9,1.25-2.12,1.88-3.66,1.82c-1.66-0.06-2.68-1.06-3.08-2.5
		c-0.37-1.31,0.31-2.57,1.2-3.19c0.44-0.31,0.94-0.35,1.43-0.2c0.5,0.15,0.9,0.45,1.12,0.93c0.41,0.89-0.22,1.69-1.11,1.72
		c-0.17,0.01-0.35-0.04-0.53-0.07c-0.18-0.03-0.35-0.07-0.52-0.1c-0.14-0.02-0.29,0.1-0.3,0.23c-0.04,0.89,0.62,1.47,1.18,1.56
		c0.54,0.09,1.07,0.08,1.59-0.05c0.57-0.14,1.04-0.46,1.4-0.93c0.41-0.52,0.64-1.12,0.68-1.77c0.03-0.43-0.07-0.85-0.25-1.25
		c-0.58-1.29-1.6-1.97-2.99-2.1c-0.76-0.07-1.49,0.06-2.19,0.38c-0.09,0.04-0.22-0.05-0.24-0.15c-0.07-0.31-0.12-0.63-0.21-0.94
		c-0.08-0.27-0.19-0.54-0.33-0.78c-0.1-0.18-0.26-0.34-0.42-0.48c-0.26-0.22-0.58-0.27-0.9-0.17c-0.13,0.04-0.26,0.12-0.36,0.22
		c-0.12,0.12-0.24,0.27-0.31,0.43c-0.12,0.26-0.23,0.52-0.31,0.8c-0.32,1.08-0.23,1.1-1.36,0.81c-0.81-0.21-1.62-0.2-2.41,0.13
		c-0.37,0.15-0.7,0.35-1,0.61c-0.75,0.65-1.11,1.47-1.09,2.45c0.02,1.43,0.91,2.49,2.32,2.81c0.55,0.13,1.06,0.06,1.58-0.11
		c0.35-0.12,0.61-0.36,0.77-0.7c0.09-0.2,0.16-0.4,0.18-0.61c0.02-0.25-0.14-0.43-0.37-0.39c-0.24,0.05-0.49,0.11-0.73,0.15
		c-0.33,0.06-0.64-0.02-0.93-0.18c-0.55-0.31-0.75-1.03-0.43-1.58c0.48-0.8,1.22-1.06,2-0.91c0.25,0.05,0.47,0.17,0.66,0.33
		c0.73,0.6,1.16,1.39,1.16,2.32c0,1.19-0.62,2.6-2.19,3.09c-1.76,0.56-3.83-0.18-4.87-1.95c-0.2-0.34-0.36-0.69-0.55-1.04
		c-0.04-0.08-0.21-0.07-0.27,0.02c-0.06,0.09-0.12,0.18-0.17,0.27c-0.15,0.28-0.29,0.58-0.46,0.85c-0.62,0.98-1.47,1.63-2.6,1.92
		c-0.82,0.21-1.63,0.16-2.42-0.14c-0.34-0.13-0.65-0.31-0.9-0.57c-0.8-0.81-1.22-1.77-1.04-2.91c0.14-0.89,0.63-1.58,1.41-2.05
		c0.46-0.27,0.96-0.26,1.44-0.06c0.37,0.15,0.67,0.41,0.89,0.74c0.39,0.57,0.22,1.32-0.38,1.67c-0.29,0.17-0.6,0.23-0.93,0.17
		c-0.25-0.04-0.49-0.11-0.73-0.16c-0.07-0.01-0.15-0.01-0.21,0.02c-0.06,0.03-0.14,0.09-0.15,0.13c-0.02,0.48,0.11,0.92,0.46,1.26
		c0.15,0.15,0.33,0.27,0.55,0.32c0.64,0.17,1.28,0.15,1.9-0.03c0.41-0.12,0.78-0.35,1.08-0.68c0.97-1.05,1.16-2.52,0.35-3.74
		c-0.65-0.99-1.59-1.51-2.76-1.59c-0.72-0.05-1.42,0.05-2.09,0.36c-0.13,0.06-0.29-0.04-0.32-0.18c-0.04-0.17-0.08-0.35-0.1-0.52
		c-0.06-0.36-0.19-0.69-0.34-1.01c-0.12-0.26-0.31-0.48-0.54-0.65c-0.38-0.28-0.95-0.21-1.26,0.14c-0.19,0.22-0.33,0.47-0.42,0.74
		c-0.11,0.3-0.21,0.61-0.28,0.92c-0.16,0.66-0.28,0.57-0.83,0.44c-0.1-0.02-0.21-0.05-0.31-0.08c-0.45-0.15-0.91-0.17-1.38-0.14
		c-1.1,0.06-2,0.53-2.64,1.42c-0.68,0.93-0.8,1.98-0.35,3.04c0.33,0.8,0.96,1.32,1.78,1.59c0.59,0.2,1.19,0.2,1.79,0
		c0.43-0.14,0.75-0.41,0.9-0.84c0.07-0.2,0.11-0.41,0.15-0.62c0.03-0.13-0.12-0.29-0.25-0.28c-0.14,0.01-0.28,0.02-0.42,0.05
		c-0.17,0.03-0.35,0.09-0.52,0.11c-0.41,0.05-0.78-0.08-1.07-0.37c-0.44-0.45-0.45-0.84-0.25-1.26c0.39-0.84,1.24-1.25,2.12-1.02
		c0.32,0.08,0.58,0.27,0.81,0.5c1.82,1.79,0.77,4.75-1.32,5.24c-1.48,0.49-3.34-0.02-4.48-1.49c-0.17-0.22-0.32-0.47-0.46-0.72
		c-0.11-0.18-0.19-0.38-0.29-0.57c-0.05-0.1-0.11-0.17-0.23-0.2c-0.09-0.02-0.18,0.02-0.25,0.15c-0.14,0.25-0.27,0.5-0.41,0.75
		c-0.27,0.51-0.62,0.96-1.08,1.31c-1.11,0.86-2.34,1.17-3.72,0.8c-1.27-0.35-1.96-1.24-2.24-2.48c-0.25-1.1,0.1-2.04,0.9-2.82
		c0.41-0.39,0.89-0.59,1.46-0.51c0.65,0.09,1.14,0.43,1.41,1.01c0.37,0.78-0.14,1.61-1.04,1.69c-0.17,0.02-0.35-0.02-0.53-0.04
		c-0.21-0.03-0.42-0.09-0.63-0.12c-0.13-0.02-0.28,0.12-0.28,0.25c0,0.37,0.12,0.7,0.33,1c0.19,0.27,0.46,0.44,0.79,0.52
		c0.57,0.13,1.14,0.12,1.7-0.02c0.57-0.14,1.04-0.47,1.4-0.93c0.36-0.46,0.56-0.99,0.66-1.56c0.08-0.47-0.02-0.93-0.2-1.36
		c-0.55-1.29-1.54-2.02-2.93-2.18c-0.8-0.09-1.56,0.05-2.3,0.37c-0.08,0.03-0.23-0.07-0.24-0.16c-0.02-0.14-0.04-0.28-0.06-0.42
		c-0.08-0.42-0.2-0.83-0.42-1.21c-0.11-0.18-0.24-0.36-0.39-0.5c-0.44-0.42-1.16-0.34-1.5,0.16c-0.2,0.3-0.33,0.63-0.44,0.97
		c-0.08,0.24-0.13,0.48-0.21,0.72c-0.04,0.13-0.08,0.28-0.21,0.37c-0.35-0.01-0.69-0.14-1.03-0.21c-1.13-0.25-2.2-0.1-3.15,0.6
		c-0.35,0.26-0.63,0.57-0.86,0.94c-0.48,0.78-0.54,1.63-0.32,2.48c0.27,1,0.98,1.63,1.97,1.94c0.52,0.17,1.04,0.16,1.58,0.03
		c0.65-0.16,1.17-0.7,1.16-1.47c0-0.19-0.15-0.35-0.33-0.31c-0.24,0.04-0.49,0.11-0.73,0.15c-0.41,0.07-0.78-0.04-1.1-0.29
		c-0.4-0.31-0.55-0.9-0.32-1.35c0.43-0.85,1.2-1.19,2.03-1.03c0.25,0.05,0.47,0.17,0.67,0.32c0.85,0.65,1.46,2,1.06,3.15
		c-0.09,0.27-0.17,0.55-0.3,0.8c-0.35,0.7-0.92,1.17-1.66,1.43c-1.79,0.63-3.65-0.08-4.68-1.45c-0.21-0.28-0.38-0.6-0.56-0.91
		c-0.11-0.18-0.2-0.38-0.31-0.56c-0.05-0.1-0.2-0.11-0.26-0.02c-0.11,0.18-0.21,0.37-0.32,0.55c-0.14,0.25-0.26,0.51-0.43,0.74
		c-0.97,1.36-2.3,2.01-3.96,1.84c-1.23-0.12-2.13-0.76-2.62-1.92c-0.06-0.13-0.1-0.27-0.14-0.4c-0.53-1.43,0.27-2.7,1.09-3.31
		c0.53-0.4,1.35-0.41,1.91-0.04c0.27,0.18,0.5,0.4,0.67,0.68c0.32,0.54,0.13,1.26-0.42,1.58c-0.29,0.17-0.6,0.24-0.93,0.18
		c-0.25-0.04-0.49-0.11-0.73-0.16c-0.23-0.04-0.38,0.13-0.36,0.39c0.02,0.25,0.1,0.49,0.22,0.71c0.18,0.33,0.46,0.55,0.82,0.64
		c0.63,0.17,1.28,0.15,1.9-0.05c0.45-0.14,0.83-0.4,1.14-0.76c0.92-1.06,0.98-2.52,0.3-3.58c-0.64-1-1.55-1.55-2.73-1.65
		c-0.76-0.07-1.49,0.03-2.19,0.37c-0.09,0.04-0.23-0.03-0.25-0.12c-0.08-0.35-0.15-0.7-0.25-1.04c-0.13-0.41-0.3-0.8-0.63-1.1
		c-0.16-0.15-0.34-0.25-0.56-0.28c-0.34-0.05-0.63,0.05-0.86,0.32c-0.24,0.27-0.38,0.61-0.49,0.94c-0.11,0.34-0.2,0.68-0.3,1.03
		c-0.04,0.14-0.19,0.23-0.33,0.2c-0.21-0.05-0.42-0.08-0.62-0.15c-0.45-0.15-0.91-0.18-1.37-0.17c-0.98,0.02-1.81,0.4-2.47,1.11
		c-0.89,0.95-1.08,2.08-0.64,3.28c0.29,0.82,0.92,1.35,1.73,1.63c0.55,0.19,1.1,0.24,1.68,0.08c0.56-0.15,0.96-0.45,1.13-1.02
		c0.05-0.17,0.07-0.35,0.1-0.52c0.02-0.13-0.13-0.27-0.27-0.26c-0.14,0.02-0.28,0.03-0.42,0.06c-0.14,0.03-0.28,0.08-0.42,0.1
		c-0.29,0.05-0.56-0.01-0.83-0.13c-0.66-0.32-0.84-1.04-0.51-1.63c0.36-0.63,0.92-0.98,1.68-0.94c0.29,0.01,0.57,0.09,0.8,0.26
		c0.71,0.49,1.15,1.16,1.27,2.02c0.07,0.5,0.04,1-0.12,1.48c-0.44,1.33-1.41,2.05-2.77,2.17c-1.81,0.17-3.18-0.59-4.13-2.13
		c-0.2-0.33-0.37-0.69-0.56-1.03c-0.02-0.03-0.13-0.03-0.19-0.01c-0.06,0.03-0.11,0.09-0.14,0.15c-0.17,0.31-0.32,0.64-0.5,0.95
		c-0.62,1.02-1.5,1.69-2.67,1.99c-0.82,0.21-1.63,0.14-2.41-0.16c-0.44-0.17-0.82-0.43-1.12-0.8c-0.5-0.63-0.8-1.34-0.82-2.16
		c-0.02-1.06,0.47-1.85,1.28-2.46c0.46-0.35,1.01-0.36,1.53-0.18c0.45,0.16,0.79,0.47,1.03,0.89c0.34,0.6,0.05,1.18-0.4,1.5
		c-0.3,0.21-0.65,0.28-1.02,0.22c-0.24-0.05-0.49-0.11-0.73-0.16c-0.19-0.04-0.37,0.13-0.34,0.3c0.04,0.29,0.11,0.56,0.25,0.81
		c0.18,0.32,0.45,0.55,0.82,0.64c0.6,0.15,1.2,0.14,1.8-0.02c0.35-0.09,0.66-0.27,0.94-0.5c1.01-0.84,1.37-2.3,0.81-3.49
		c-0.58-1.22-1.57-1.91-2.92-2.04c-0.76-0.07-1.49,0.03-2.19,0.36c-0.14,0.06-0.29-0.03-0.31-0.18c-0.02-0.14-0.04-0.28-0.06-0.42
		c-0.04-0.36-0.18-0.69-0.32-1.02c-0.11-0.26-0.28-0.49-0.5-0.68c-0.42-0.37-1.07-0.31-1.42,0.14c-0.18,0.23-0.31,0.48-0.39,0.76
		c-0.11,0.34-0.2,0.68-0.3,1.02c-0.04,0.13-0.1,0.27-0.27,0.35c-0.25-0.06-0.53-0.11-0.8-0.19c-0.38-0.12-0.77-0.14-1.16-0.15
		c-0.66-0.02-1.27,0.17-1.84,0.49c-1.21,0.69-1.83,1.99-1.58,3.35c0.21,1.12,0.91,1.83,1.97,2.2c0.55,0.19,1.11,0.21,1.68,0.04
		c0.56-0.17,0.94-0.5,1.08-1.07c0.02-0.07,0.03-0.14,0.04-0.21c0.08-0.4-0.06-0.56-0.42-0.49c-0.21,0.04-0.42,0.1-0.62,0.14
		c-0.33,0.07-0.64,0-0.93-0.16c-0.59-0.32-0.79-0.98-0.47-1.55c0.39-0.68,0.96-1.03,1.76-0.98c0.29,0.02,0.56,0.11,0.8,0.28
		c0.93,0.67,1.55,1.95,1.15,3.31c-0.43,1.47-1.5,2.25-2.97,2.35c-1.54,0.11-2.78-0.51-3.7-1.74c-0.21-0.28-0.37-0.61-0.54-0.92
		c-0.09-0.15-0.17-0.31-0.25-0.47c-0.06-0.1-0.22-0.13-0.27-0.05c-0.11,0.18-0.21,0.37-0.32,0.55c-0.16,0.28-0.3,0.57-0.49,0.83
		c-0.93,1.28-2.2,1.9-3.78,1.79c-1.66-0.12-2.56-1.16-2.92-2.42c-0.37-1.28,0.06-2.31,1.03-3.15c0.44-0.38,0.96-0.47,1.51-0.33
		c0.54,0.14,0.97,0.46,1.21,0.98c0.17,0.38,0.17,0.77-0.07,1.12c-0.28,0.42-0.7,0.6-1.19,0.57c-0.25-0.02-0.49-0.1-0.73-0.15
		c-0.1-0.02-0.22-0.02-0.32,0c-0.06,0.01-0.13,0.08-0.15,0.14c-0.03,0.1-0.04,0.22-0.01,0.32c0.05,0.21,0.11,0.41,0.21,0.6
		c0.18,0.37,0.49,0.6,0.9,0.69c0.57,0.13,1.14,0.11,1.7-0.03c0.42-0.1,0.79-0.32,1.1-0.63c0.59-0.57,0.9-1.29,0.95-2.09
		c0.03-0.43-0.08-0.85-0.26-1.25c-0.6-1.28-1.61-1.96-3.01-2.07c-0.64-0.05-1.28,0-1.89,0.27c-0.13,0.06-0.26,0.09-0.41,0.14
		c-0.05-0.12-0.1-0.21-0.12-0.31c-0.09-0.34-0.15-0.7-0.25-1.04c-0.11-0.34-0.28-0.66-0.53-0.92c-0.18-0.18-0.39-0.3-0.66-0.33
		c-0.35-0.03-0.63,0.09-0.85,0.36c-0.23,0.28-0.35,0.62-0.47,0.95c-0.11,0.3-0.19,0.61-0.29,0.92c-0.06,0.18-0.22,0.26-0.43,0.22
		c-0.21-0.04-0.42-0.08-0.63-0.14c-0.42-0.13-0.84-0.15-1.27-0.14c-1.02,0.02-1.86,0.44-2.55,1.18c-0.59,0.64-0.81,1.41-0.76,2.27
		c0.08,1.34,0.93,2.34,2.23,2.66c0.5,0.12,0.99,0.1,1.48-0.04c0.48-0.13,0.82-0.42,1-0.89c0.08-0.2,0.13-0.4,0.11-0.62
		c-0.01-0.13-0.15-0.27-0.28-0.25c-0.18,0.03-0.35,0.06-0.52,0.09c-0.14,0.02-0.28,0.07-0.42,0.08c-0.41,0.03-0.77-0.12-1.06-0.41
		c-0.33-0.34-0.4-0.96-0.14-1.39c0.44-0.71,1.15-1.02,1.91-0.89c0.22,0.04,0.41,0.12,0.59,0.25c0.84,0.6,1.25,1.44,1.33,2.45
		c-0.11,1.48-0.86,3-2.97,3.21c-1.81,0.18-3.17-0.61-4.12-2.14c-0.21-0.33-0.37-0.69-0.56-1.03c-0.04-0.07-0.13-0.07-0.18,0
		c-0.09,0.11-0.17,0.23-0.24,0.35c-0.15,0.28-0.28,0.58-0.45,0.85c-0.58,0.96-1.41,1.59-2.5,1.87c-0.82,0.22-1.63,0.15-2.41-0.18
		c-0.33-0.14-0.63-0.33-0.87-0.6c-0.67-0.75-1.05-1.63-0.95-2.64c0.09-0.98,0.59-1.74,1.43-2.27c0.29-0.18,0.61-0.19,0.93-0.15
		c0.65,0.09,1.12,0.46,1.38,1.05c0.36,0.82-0.31,1.72-1.21,1.65c-0.14-0.01-0.28-0.05-0.42-0.07c-0.17-0.03-0.35-0.08-0.52-0.11
		c-0.12-0.02-0.3,0.14-0.27,0.26c0.05,0.24,0.08,0.5,0.17,0.72c0.17,0.42,0.49,0.7,0.94,0.8c0.53,0.12,1.06,0.1,1.59-0.02
		c0.32-0.07,0.6-0.22,0.86-0.42c0.65-0.51,1.02-1.18,1.12-2c0.18-1.48-0.65-2.63-1.63-3.19c0.41-0.58,1.21-1.87,0.63-2.62
		c-0.61-0.8-2.73,0.55-2.73,0.55c-0.46-0.86-1.16-1.46-2.19-1.68c-1.33-0.29-2.97,0.26-3.49,2.07c-0.16,0.56-0.13,1.13,0.1,1.68
		c0.15,0.35,0.39,0.59,0.73,0.74c0.23,0.1,0.46,0.18,0.72,0.16c0.15-0.01,0.29-0.14,0.26-0.26c-0.04-0.17-0.09-0.35-0.11-0.52
		c-0.03-0.21-0.05-0.43-0.05-0.64c0.01-0.47,0.26-0.81,0.67-1.01c0.38-0.19,0.76-0.13,1.12,0.09c0.12,0.08,0.24,0.16,0.34,0.26
		c0.77,0.76,0.77,1.69,0.02,2.46c-1.34,1.37-3.41,1.1-4.54,0c-0.45-0.44-0.71-0.98-0.81-1.59c-0.32-1.97,0.57-3.45,2.08-4.32
		c0.09-0.05,0.19-0.1,0.28-0.15c0.79-0.41,0.79-0.41,0.73-0.51c-0.17-0.31-0.52-0.35-0.79-0.5c-0.41-0.22-0.8-0.46-1.14-0.78
		c-1.09-1.02-1.41-2.28-1.12-3.71c0.09-0.46,0.31-0.88,0.64-1.21c0.86-0.87,1.92-1.22,3.12-1.01c0.72,0.13,1.31,0.54,1.78,1.11
		c0.16,0.2,0.26,0.43,0.3,0.68c0.03,0.17,0.04,0.36-0.01,0.53c-0.16,0.58-0.51,1-1.05,1.28c-0.69,0.36-1.6-0.21-1.64-0.99
		c-0.02-0.4,0.11-0.77,0.17-1.16c0.01-0.09-0.09-0.21-0.19-0.22c-0.04,0-0.07-0.02-0.11-0.02c-0.07,0-0.14,0-0.21,0.02
		c-0.82,0.18-1.37,0.57-1.38,1.74c-0.02,1.49,1.07,2.68,2.55,2.8c1.47,0.12,2.7-0.56,3.32-1.86c0.34-0.73,0.47-1.49,0.24-2.29
		c-0.09-0.31-0.19-0.61-0.28-0.92c-0.02-0.07,0.09-0.23,0.17-0.25c0.42-0.07,0.85-0.12,1.24-0.3c0.23-0.1,0.45-0.21,0.66-0.35
		c0.14-0.1,0.26-0.25,0.36-0.39c0.2-0.3,0.15-0.71-0.1-0.99c-0.15-0.16-0.32-0.29-0.52-0.36c-0.3-0.12-0.6-0.21-0.91-0.31
		c-0.24-0.08-0.48-0.15-0.71-0.23c-0.08-0.03-0.16-0.18-0.15-0.26c0.09-0.35,0.18-0.69,0.26-1.03c0.39-1.71-0.66-3.42-2.36-3.88
		c-0.68-0.19-1.34-0.14-1.99,0.1c-1.14,0.42-1.97,1.68-1.74,2.99c0.03,0.17,0.1,0.34,0.16,0.51c0.15,0.4,0.45,0.65,0.84,0.76
		c0.23,0.07,0.49,0.08,0.73,0.1c0.04,0,0.12-0.09,0.13-0.14c0.01-0.1,0-0.21-0.03-0.31c-0.08-0.28-0.13-0.55-0.13-0.84
		c0-0.77,0.75-1.44,1.67-1.04c0.59,0.26,0.94,0.75,1.04,1.4c0.02,0.14,0.01,0.29-0.03,0.42c-0.07,0.28-0.2,0.53-0.39,0.75
		c-0.6,0.67-1.38,0.99-2.26,1.08c-1.13-0.08-2.52-0.51-3.06-1.95c-0.13-0.34-0.18-0.69-0.2-1.05c-0.09-1.4,0.48-2.49,1.56-3.34
		c0.31-0.24,0.66-0.42,1.01-0.59c0.19-0.09,0.37-0.2,0.56-0.31c0.07-0.04,0.07-0.12,0-0.18c-0.08-0.07-0.16-0.14-0.25-0.19
		c-0.25-0.13-0.52-0.24-0.77-0.38c-0.54-0.29-1-0.68-1.37-1.17c-0.75-0.98-0.89-2.08-0.63-3.25c0.13-0.61,0.49-1.11,0.99-1.49
		c0.52-0.4,1.12-0.64,1.76-0.73c1.12-0.15,2.02,0.29,2.75,1.12c0.17,0.19,0.28,0.42,0.33,0.67c0.04,0.17,0.05,0.36,0.01,0.53
		c-0.14,0.59-0.48,1.02-1.02,1.3c-0.75,0.39-1.68-0.19-1.68-1.03c0-0.36,0.09-0.71,0.18-1.05c0.03-0.13-0.12-0.29-0.24-0.29
		c-0.32,0.02-0.63,0.11-0.92,0.26c-0.3,0.16-0.51,0.4-0.6,0.72c-0.3,1-0.15,1.92,0.56,2.69c0.58,0.63,1.36,0.91,2.2,0.97
		c0.39,0.03,0.78-0.09,1.15-0.23c1.55-0.59,2.45-2.27,2.08-3.9c-0.06-0.28-0.17-0.54-0.25-0.82c-0.08-0.25,0-0.39,0.29-0.45
		c0.21-0.04,0.42-0.07,0.63-0.12c0.35-0.09,0.68-0.21,0.98-0.41c0.18-0.12,0.33-0.26,0.45-0.44c0.23-0.34,0.17-0.79-0.12-1.07
		c-0.21-0.2-0.47-0.33-0.73-0.43c-0.34-0.12-0.69-0.19-1.03-0.3c-0.13-0.04-0.27-0.1-0.39-0.17c-0.05-0.03-0.08-0.12-0.09-0.18
		c-0.01-0.07,0.01-0.14,0.02-0.21c0.07-0.28,0.15-0.55,0.22-0.83c0.36-1.57-0.43-3.16-1.91-3.76c-0.93-0.38-1.9-0.39-2.79,0.12
		c-1.01,0.58-1.5,1.49-1.41,2.68c0.02,0.29,0.12,0.56,0.26,0.81c0.12,0.23,0.3,0.41,0.54,0.5c0.26,0.1,0.54,0.16,0.82,0.23
		c0.13,0.03,0.3-0.13,0.28-0.25c-0.03-0.14-0.07-0.28-0.09-0.42c-0.03-0.21-0.07-0.42-0.08-0.64c-0.01-0.47,0.2-0.82,0.61-1.05
		c0.3-0.17,0.61-0.19,0.93-0.07c0.61,0.24,0.99,0.69,1.15,1.31c0.05,0.21,0.04,0.42-0.03,0.63c-0.11,0.35-0.3,0.64-0.57,0.89
		c-1.43,1.26-3.13,1-4.31,0.07c-0.56-0.44-0.87-1.03-0.97-1.73c-0.28-1.8,0.47-3.17,1.94-4.07c0.3-0.19,0.64-0.31,0.95-0.48
		c0.09-0.05,0.19-0.13,0.21-0.22c0.04-0.18-0.14-0.21-0.25-0.27c-0.22-0.12-0.45-0.22-0.67-0.34c-0.22-0.12-0.43-0.25-0.64-0.39
		c-0.66-0.47-1.13-1.08-1.4-1.85c-0.28-0.8-0.28-1.61-0.04-2.42c0.17-0.56,0.52-1.01,1-1.36c0.63-0.45,1.34-0.67,2.1-0.72
		c0.39-0.03,0.78,0.1,1.14,0.25c0.43,0.18,0.81,0.45,1.12,0.8c0.17,0.19,0.29,0.4,0.38,0.64c0.1,0.28,0.1,0.56,0,0.84
		c-0.13,0.38-0.35,0.7-0.67,0.95c-0.3,0.23-0.63,0.32-1,0.27c-0.5-0.06-0.93-0.5-0.97-0.99c-0.02-0.29,0.01-0.57,0.08-0.85
		c0.04-0.14,0.07-0.27,0.08-0.41c0-0.05-0.07-0.15-0.11-0.16c-0.48-0.06-0.92,0.07-1.29,0.38c-0.26,0.22-0.39,0.51-0.44,0.83
		c-0.19,1.08,0.15,2.31,1.41,2.97c0.88,0.46,1.76,0.52,2.68,0.14c1.5-0.63,2.35-2.26,1.99-3.85c-0.08-0.35-0.19-0.68-0.29-1.02
		c-0.02-0.08,0.01-0.15,0.09-0.17c0.31-0.08,0.62-0.15,0.93-0.24c0.27-0.08,0.54-0.19,0.79-0.31c0.23-0.11,0.41-0.28,0.56-0.49
		c0.24-0.33,0.21-0.8-0.09-1.07c-0.15-0.14-0.34-0.26-0.53-0.35c-0.42-0.2-0.87-0.32-1.32-0.42c-0.1-0.02-0.2-0.07-0.29-0.12
		c-0.05-0.03-0.1-0.11-0.11-0.17c-0.02-0.06-0.01-0.14,0.01-0.21c0.09-0.35,0.2-0.69,0.27-1.03c0.38-1.85-1.07-3.73-2.95-3.82
		c-0.18-0.01-0.36,0-0.53,0c-1.06,0-2.26,0.74-2.62,2.14c-0.12,0.46-0.1,0.92,0.06,1.37c0.15,0.43,0.41,0.74,0.85,0.9
		c0.2,0.08,0.4,0.14,0.62,0.14c0.23,0,0.36-0.1,0.31-0.32c-0.07-0.31-0.16-0.62-0.16-0.95c0-0.53,0.26-1.03,1-1.21
		c0.1-0.02,0.22-0.02,0.32,0.01c0.72,0.18,1.17,0.65,1.37,1.36c0.06,0.21,0.05,0.43-0.02,0.63c-0.08,0.2-0.16,0.4-0.28,0.57
		c-0.48,0.62-1.11,1-1.88,1.13c-0.72,0.12-1.42,0.01-2.08-0.31c-0.97-0.48-1.52-1.26-1.64-2.34c-0.18-1.61,0.46-2.85,1.78-3.75
		c0.29-0.2,0.63-0.34,0.94-0.51c0.15-0.08,0.38-0.09,0.4-0.3c0.03-0.29-0.28-0.27-0.43-0.39c-0.11-0.08-0.26-0.12-0.38-0.19
		c-0.13-0.06-0.25-0.13-0.38-0.2c-0.37-0.22-0.7-0.49-0.99-0.81c-0.9-1.01-1.14-2.2-0.86-3.49c0.12-0.57,0.43-1.05,0.9-1.42
		c0.85-0.69,1.83-0.96,2.91-0.75c0.72,0.14,1.31,0.55,1.76,1.14c0.38,0.51,0.41,1.05,0.1,1.61c-0.14,0.25-0.32,0.47-0.56,0.64
		c-0.34,0.24-0.71,0.32-1.11,0.23c-0.47-0.11-0.81-0.52-0.85-0.99c-0.03-0.4,0.08-0.78,0.16-1.16c0.02-0.08-0.08-0.22-0.17-0.23
		c-0.04,0-0.07-0.02-0.11-0.02c-0.41-0.02-0.77,0.12-1.09,0.37c-0.27,0.21-0.41,0.5-0.47,0.82c-0.21,1.04,0.11,2.26,1.26,2.94
		c1.86,1.1,4.07,0.05,4.7-1.81c0.22-0.66,0.28-1.32,0.06-2c-0.09-0.27-0.17-0.54-0.25-0.81c-0.02-0.07,0.08-0.24,0.15-0.25
		c0.35-0.08,0.7-0.15,1.04-0.24c0.2-0.06,0.41-0.13,0.59-0.24c0.18-0.1,0.36-0.24,0.5-0.39c0.39-0.4,0.34-0.98-0.11-1.3
		c-0.17-0.12-0.36-0.23-0.56-0.3c-0.33-0.12-0.68-0.22-1.02-0.32c-0.55-0.15-0.67-0.2-0.46-0.8c0.07-0.2,0.09-0.42,0.16-0.62
		c0.35-1-0.19-2.49-1.03-3.2c-0.98-0.83-2.09-1.03-3.3-0.61c-1.12,0.39-1.9,1.59-1.79,2.76c0.01,0.14,0.03,0.28,0.07,0.42
		c0.2,0.78,0.72,1.16,1.57,1.17c0.15,0,0.28-0.14,0.26-0.27c-0.04-0.21-0.09-0.42-0.13-0.63c-0.02-0.14-0.03-0.28-0.03-0.43
		c0-0.54,0.45-1.14,1.19-1.1c0.29,0.02,0.56,0.1,0.79,0.29c0.11,0.09,0.22,0.18,0.31,0.29c0.57,0.73,0.56,1.37,0.02,2.04
		c-0.41,0.52-0.96,0.86-1.61,1c-0.86,0.18-1.7,0.08-2.48-0.36c-0.84-0.47-1.3-1.19-1.43-2.13c-0.27-1.89,0.67-3.24,2.03-4.03
		c0.34-0.2,0.69-0.36,1.04-0.54c0.08-0.04,0.06-0.21-0.03-0.27c-0.09-0.06-0.18-0.12-0.27-0.17c-0.22-0.11-0.45-0.22-0.67-0.34
		c-0.41-0.22-0.78-0.5-1.1-0.84c-0.97-1.02-1.22-2.23-0.94-3.57c0.1-0.46,0.32-0.88,0.66-1.2c0.85-0.82,1.86-1.2,3.03-1
		c0.77,0.13,1.39,0.54,1.86,1.16c0.41,0.53,0.42,1.12,0.07,1.7c-0.19,0.31-0.45,0.55-0.77,0.72c-0.57,0.31-1.14,0.06-1.45-0.3
		c-0.2-0.23-0.28-0.5-0.25-0.8c0.03-0.35,0.11-0.7,0.15-1.05c0.01-0.05-0.06-0.11-0.11-0.16c-0.02-0.02-0.06-0.03-0.1-0.03
		c-0.45-0.01-0.84,0.13-1.18,0.41c-0.26,0.22-0.39,0.52-0.45,0.83c-0.2,1.15,0.2,2.27,1.31,2.92c1.72,1,3.94,0.15,4.64-1.78
		c0.25-0.69,0.3-1.39,0.07-2.1c-0.06-0.2-0.13-0.4-0.2-0.61c-0.09-0.27-0.01-0.43,0.24-0.46c0.39-0.04,0.78-0.11,1.14-0.27
		c0.23-0.1,0.45-0.21,0.65-0.36c0.14-0.1,0.25-0.25,0.35-0.4c0.18-0.27,0.14-0.65-0.06-0.9c-0.16-0.2-0.36-0.35-0.6-0.44
		c-0.33-0.13-0.67-0.22-1.01-0.34c-0.2-0.07-0.4-0.14-0.61-0.21c-0.07-0.03-0.14-0.19-0.12-0.27c0.09-0.35,0.18-0.69,0.26-1.04
		c0.38-1.7-0.7-3.43-2.39-3.86c-0.65-0.17-1.28-0.14-1.89,0.08c-1.58,0.56-2.23,2.3-1.66,3.55c0.16,0.34,0.4,0.59,0.75,0.71
		c0.23,0.08,0.48,0.11,0.73,0.15c0.12,0.02,0.27-0.16,0.24-0.29c-0.09-0.35-0.18-0.69-0.17-1.05c0.01-0.34,0.14-0.62,0.39-0.85
		c0.36-0.32,0.77-0.37,1.2-0.2c0.6,0.24,0.97,0.71,1.11,1.35c0.04,0.17,0.02,0.36-0.02,0.53c-0.09,0.35-0.28,0.65-0.55,0.9
		c-0.54,0.5-1.18,0.8-1.91,0.89c-0.66,0.08-1.27-0.12-1.86-0.4c-0.67-0.32-1.14-0.84-1.4-1.54c-0.07-0.2-0.13-0.41-0.16-0.62
		c-0.24-1.74,0.43-3.06,1.9-3.99c0.18-0.11,0.37-0.21,0.57-0.3c0.16-0.08,0.33-0.14,0.48-0.23c0.08-0.05,0.19-0.16,0.18-0.22
		c-0.02-0.08-0.12-0.17-0.21-0.22c-0.25-0.14-0.51-0.25-0.76-0.38c-0.45-0.23-0.84-0.54-1.19-0.9c-0.96-1.03-1.19-2.25-0.89-3.58
		c0.14-0.65,0.54-1.16,1.09-1.54c0.54-0.38,1.14-0.58,1.78-0.67c0.51-0.07,0.99,0.05,1.46,0.26c0.4,0.17,0.74,0.43,1.04,0.74
		c0.17,0.18,0.3,0.39,0.4,0.63c0.11,0.28,0.13,0.56,0.04,0.84c-0.16,0.49-0.46,0.88-0.91,1.14c-0.56,0.32-1.25,0.15-1.59-0.4
		c-0.14-0.22-0.19-0.47-0.16-0.72c0.04-0.32,0.11-0.63,0.17-0.94c0.02-0.12-0.14-0.29-0.27-0.26c-0.24,0.05-0.49,0.09-0.73,0.17
		c-0.35,0.13-0.59,0.38-0.74,0.72c-0.35,0.81-0.18,2.2,0.7,2.94c0.54,0.45,1.16,0.7,1.84,0.78c0.32,0.04,0.64-0.02,0.95-0.1
		c2.08-0.53,2.84-2.63,2.45-4.04c-0.09-0.31-0.18-0.61-0.27-0.92c-0.02-0.08,0.05-0.23,0.14-0.25c0.28-0.07,0.56-0.13,0.83-0.2
		c0.35-0.09,0.68-0.21,0.98-0.41c0.21-0.14,0.39-0.32,0.49-0.55c0.13-0.28,0.11-0.55-0.07-0.81c-0.13-0.18-0.29-0.31-0.49-0.41
		c-0.38-0.2-0.8-0.31-1.21-0.42c-0.17-0.05-0.34-0.1-0.51-0.16c-0.09-0.03-0.18-0.17-0.16-0.25c0.08-0.35,0.17-0.69,0.25-1.04
		c0.35-1.55-0.47-3.14-1.94-3.76c-0.51-0.21-1.04-0.22-1.57-0.21c-1.16,0.03-2.19,0.9-2.52,1.99c-0.17,0.56-0.15,1.12,0.09,1.67
		c0.15,0.34,0.39,0.6,0.74,0.73c0.23,0.08,0.46,0.18,0.72,0.17c0.14-0.01,0.28-0.15,0.26-0.28c-0.06-0.31-0.14-0.63-0.16-0.94
		c-0.05-0.58,0.28-1.04,0.83-1.23c0.21-0.07,0.42-0.07,0.63,0c0.27,0.1,0.51,0.24,0.72,0.45c0.69,0.7,0.71,1.59,0.02,2.28
		c-0.88,0.88-1.92,1.2-3.13,0.85c-0.24-0.07-0.48-0.15-0.7-0.26c-0.93-0.46-1.45-1.22-1.59-2.26c-0.27-1.98,0.82-3.32,2.17-4.06
		c0.31-0.17,0.68-0.24,0.93-0.5c0.06-0.06,0.06-0.15,0-0.18c-0.15-0.1-0.3-0.19-0.45-0.28c-0.28-0.15-0.57-0.29-0.85-0.45
		c-0.46-0.28-0.84-0.65-1.16-1.09c-0.69-0.97-0.81-2.04-0.56-3.16c0.12-0.53,0.4-0.99,0.83-1.34c0.84-0.69,1.8-0.99,2.89-0.8
		c0.74,0.13,1.32,0.52,1.79,1.09c0.13,0.16,0.21,0.37,0.29,0.57c0.1,0.24,0.09,0.49,0.01,0.73c-0.12,0.38-0.33,0.71-0.65,0.96
		c-0.32,0.27-0.69,0.36-1.1,0.29c-0.5-0.08-0.91-0.53-0.92-1.04c0-0.25,0.04-0.5,0.07-0.74c0.02-0.14,0.06-0.28,0.08-0.42
		c0.01-0.07-0.12-0.18-0.21-0.19c-0.45-0.05-0.84,0.1-1.19,0.38c-0.23,0.19-0.35,0.45-0.41,0.73c-0.22,0.97,0.02,2.24,1.2,2.96
		c2.06,1.25,4.24-0.13,4.76-1.84c0.2-0.67,0.25-1.33,0.04-2c-0.08-0.27-0.16-0.54-0.23-0.82c-0.02-0.08,0.02-0.15,0.1-0.17
		c0.31-0.08,0.62-0.15,0.93-0.24c0.24-0.07,0.47-0.16,0.7-0.26c0.13-0.06,0.25-0.14,0.36-0.23c0.64-0.49,0.57-1.27-0.15-1.65
		c-0.32-0.17-0.65-0.28-1-0.37c-0.27-0.07-0.54-0.16-0.81-0.26c-0.05-0.02-0.09-0.11-0.1-0.17c-0.01-0.07,0-0.14,0.01-0.21
		c0.07-0.28,0.16-0.55,0.22-0.83c0.39-1.7-0.52-3.37-2.17-3.9c-0.77-0.25-1.55-0.22-2.3,0.1c-1.01,0.44-1.72,1.56-1.64,2.66
		c0.02,0.25,0.07,0.49,0.17,0.73c0.25,0.62,0.82,0.96,1.53,0.92c0.1-0.01,0.22-0.12,0.2-0.2c-0.03-0.14-0.06-0.28-0.08-0.42
		c-0.03-0.21-0.07-0.42-0.08-0.64c-0.02-0.61,0.39-1.09,1.01-1.19c0.1-0.02,0.21-0.01,0.32,0.01c0.73,0.17,1.17,0.65,1.36,1.36
		c0.04,0.16,0.03,0.36,0,0.53c-0.07,0.36-0.25,0.67-0.52,0.92c-0.94,0.89-2.04,1.11-3.27,0.74c-0.24-0.07-0.47-0.18-0.69-0.3
		c-0.8-0.45-1.26-1.14-1.41-2.03c-0.31-1.93,0.65-3.34,2.04-4.12c0.34-0.19,0.69-0.36,1.03-0.55c0.03-0.02,0.04-0.14,0.02-0.19
		c-0.02-0.06-0.09-0.11-0.15-0.14c-0.28-0.15-0.57-0.29-0.86-0.43c-0.35-0.18-0.67-0.41-0.95-0.69c-1.07-1.04-1.38-2.3-1.07-3.73
		c0.14-0.65,0.52-1.17,1.07-1.55c0.79-0.56,1.68-0.79,2.63-0.63c0.81,0.14,1.45,0.58,1.91,1.26c0.3,0.44,0.34,0.93,0.08,1.42
		c-0.2,0.39-0.49,0.69-0.88,0.9c-0.43,0.22-0.83,0.15-1.21-0.11c-0.28-0.19-0.43-0.46-0.46-0.81c-0.04-0.4,0.08-0.78,0.16-1.16
		c0.03-0.13-0.1-0.26-0.25-0.27c-0.45-0.01-0.84,0.15-1.17,0.44c-0.25,0.22-0.38,0.52-0.43,0.84c-0.26,1.81,0.8,2.93,2.25,3.23
		c1.94,0.4,3.37-0.96,3.75-2.27c0.18-0.63,0.24-1.26,0.04-1.9c-0.07-0.24-0.16-0.47-0.23-0.71c-0.07-0.21,0.01-0.38,0.2-0.41
		c0.14-0.02,0.28-0.03,0.42-0.06c0.42-0.09,0.83-0.22,1.21-0.42c0.22-0.12,0.41-0.29,0.55-0.5c0.2-0.3,0.18-0.71-0.06-0.99
		c-0.14-0.17-0.31-0.3-0.51-0.38c-0.33-0.13-0.67-0.23-1.01-0.34c-0.23-0.08-0.47-0.16-0.7-0.25c-0.05-0.02-0.1-0.12-0.09-0.18
		c0.07-0.35,0.15-0.69,0.24-1.04c0.27-0.97,0.02-1.84-0.52-2.64c-0.84-1.26-2.47-1.69-3.79-1.2c-1.2,0.44-1.95,1.68-1.81,2.86
		c0.01,0.11,0.03,0.21,0.05,0.32c0.16,0.65,0.55,1.07,1.23,1.17c0.14,0.02,0.28,0.03,0.42,0.04c0.1,0.01,0.21-0.11,0.2-0.21
		c-0.06-0.35-0.14-0.7-0.17-1.05c-0.03-0.29,0.07-0.56,0.26-0.79c0.35-0.4,0.98-0.52,1.47-0.26c0.54,0.29,0.86,0.74,0.97,1.33
		c0.03,0.14,0.01,0.29-0.02,0.42c-0.08,0.35-0.25,0.67-0.52,0.92c-0.62,0.59-1.36,0.91-2.22,0.9c-0.61-0.01-1.2-0.15-1.74-0.46
		c-0.79-0.46-1.26-1.14-1.4-2.04c-0.29-1.86,0.55-3.26,2.04-4.12c0.34-0.2,0.69-0.36,1.04-0.55c0.07-0.04,0.08-0.11,0.01-0.18
		c-0.08-0.07-0.15-0.15-0.25-0.2c-0.25-0.13-0.51-0.25-0.77-0.38c-0.48-0.25-0.89-0.59-1.24-1c-0.86-1-1.05-2.16-0.78-3.41
		c0.11-0.53,0.4-1,0.82-1.35c0.68-0.57,1.46-0.9,2.35-0.89c1,0,1.78,0.46,2.39,1.23c0.13,0.16,0.21,0.37,0.27,0.58
		c0.05,0.17,0.06,0.36,0.02,0.53c-0.15,0.63-0.51,1.08-1.11,1.35c-0.71,0.32-1.56-0.27-1.58-0.95c-0.01-0.21,0.01-0.43,0.04-0.64
		c0.02-0.18,0.09-0.34,0.13-0.52c0.03-0.13-0.11-0.3-0.23-0.29c-0.37,0-0.7,0.11-1.01,0.3c-0.25,0.15-0.43,0.38-0.52,0.66
		c-0.29,0.91-0.18,1.77,0.42,2.53c0.61,0.78,1.48,1.15,2.44,1.12c1.37-0.05,2.52-0.88,3-2.21c0.25-0.69,0.3-1.39,0.08-2.1
		c-0.09-0.27-0.17-0.54-0.24-0.82c-0.01-0.05,0.05-0.15,0.1-0.17c0.13-0.06,0.27-0.1,0.4-0.12c0.4-0.04,0.77-0.16,1.13-0.32
		c0.26-0.12,0.49-0.28,0.68-0.5c0.32-0.38,0.28-0.92-0.11-1.23c-0.17-0.13-0.35-0.25-0.55-0.33c-0.26-0.11-0.54-0.18-0.81-0.27
		c-0.17-0.05-0.34-0.09-0.51-0.14c-0.27-0.08-0.35-0.22-0.28-0.47c0.09-0.34,0.2-0.69,0.27-1.03c0.34-1.63-0.81-3.38-2.43-3.74
		c-0.53-0.12-1.05-0.12-1.59-0.01c-1.28,0.27-2.25,1.58-2.14,2.82c0.02,0.29,0.09,0.56,0.2,0.83c0.14,0.31,0.36,0.54,0.67,0.66
		c0.23,0.09,0.48,0.14,0.72,0.2c0.18,0.04,0.37-0.14,0.32-0.31c-0.09-0.35-0.19-0.69-0.17-1.05c0.01-0.3,0.12-0.55,0.33-0.77
		c0.37-0.38,0.91-0.47,1.37-0.22c0.22,0.12,0.43,0.26,0.59,0.46c0.58,0.72,0.61,1.45-0.03,2.12c-0.84,0.88-1.87,1.27-3.11,0.93
		c-0.35-0.1-0.68-0.21-0.99-0.4c-0.79-0.47-1.23-1.17-1.36-2.07c-0.28-1.9,0.65-3.25,2.01-4.04c0.34-0.2,0.69-0.36,1.04-0.54
		c0.1-0.05,0.12-0.21,0.04-0.26c-0.12-0.07-0.24-0.16-0.36-0.22c-0.22-0.12-0.45-0.22-0.67-0.34c-0.35-0.19-0.66-0.43-0.94-0.71
		c-1.08-1.08-1.37-2.39-1.05-3.84c0.13-0.61,0.48-1.11,0.97-1.5c0.6-0.48,1.31-0.72,2.07-0.8c0.4-0.04,0.78,0.08,1.15,0.22
		c0.47,0.18,0.89,0.46,1.21,0.85c0.63,0.75,0.6,1.42,0.08,2.14c-0.17,0.23-0.39,0.41-0.65,0.55c-0.34,0.18-0.67,0.19-1.02,0.01
		c-0.46-0.24-0.69-0.62-0.66-1.13c0.02-0.35,0.1-0.7,0.16-1.05c0.01-0.09-0.1-0.2-0.2-0.2c-0.99-0.06-1.51,0.53-1.63,1.21
		c-0.24,1.33,0.26,2.76,1.99,3.34c1.45,0.48,2.91-0.34,3.55-1.33c0.06-0.1,0.12-0.2,0.17-0.31c0.01,0.01,0.02,0.04,0.04,0.05
		c0.52,0.38,1.93,1.31,2.73,0.71s-0.55-2.74-0.55-2.74c-0.03-0.03-0.07-0.04-0.1-0.06c0.31-0.18,0.61-0.39,0.86-0.66
		c0.47-0.52,0.74-1.13,0.77-1.83c0.01-0.21,0.01-0.43,0-0.64c-0.08-1.15-0.7-1.92-1.72-2.38c-0.64-0.29-1.31-0.33-1.98-0.06
		c-0.43,0.17-0.72,0.46-0.86,0.89c-0.06,0.2-0.07,0.42-0.1,0.63c-0.01,0.1,0.1,0.22,0.19,0.21c0.14-0.01,0.28-0.02,0.42-0.06
		c0.24-0.07,0.48-0.12,0.74-0.11c0.59,0.01,1.09,0.45,1.18,1.04c0.01,0.07,0.01,0.14,0,0.21c-0.11,0.78-0.83,1.43-1.61,1.47
		c-0.41,0.02-0.77-0.11-1.09-0.36c-0.85-0.65-1.41-2.06-1.07-3.06c0.06-0.17,0.08-0.35,0.14-0.51c0.46-1.23,1.36-1.89,2.65-2.01
		c1.74-0.15,3.03,0.59,3.93,2.06c0.17,0.27,0.28,0.57,0.43,0.86c0.06,0.12,0.13,0.25,0.31,0.32c0.07-0.11,0.16-0.22,0.23-0.34
		c0.16-0.28,0.29-0.57,0.45-0.85c0.58-0.96,1.39-1.62,2.47-1.92c0.84-0.23,1.69-0.23,2.52,0.08c0.62,0.23,1.1,0.64,1.46,1.2
		c0.29,0.46,0.46,0.96,0.55,1.5c0.06,0.35,0.02,0.71-0.08,1.06c-0.2,0.67-0.57,1.23-1.13,1.65c-0.57,0.43-1.29,0.46-1.91,0.08
		c-0.28-0.17-0.51-0.39-0.68-0.67c-0.43-0.7-0.06-1.63,0.85-1.79c0.21-0.03,0.43-0.01,0.64,0.02s0.42,0.09,0.62,0.14
		c0.14,0.03,0.28-0.09,0.29-0.23c0.04-0.42-0.12-0.77-0.35-1.09c-0.13-0.18-0.3-0.31-0.51-0.38c-0.24-0.08-0.48-0.16-0.73-0.17
		c-1.14-0.06-2.1,0.28-2.76,1.29c-0.66,1.02-0.68,2.34,0.1,3.41c0.64,0.9,1.54,1.36,2.62,1.47c0.69,0.07,1.35-0.04,1.99-0.31
		c0.1-0.04,0.2-0.05,0.31-0.06c0.02,0,0.07,0.03,0.08,0.06c0.04,0.1,0.08,0.2,0.1,0.3c0.09,0.42,0.19,0.83,0.37,1.23
		c0.14,0.3,0.32,0.55,0.58,0.76c0.4,0.32,1.02,0.25,1.34-0.16c0.2-0.26,0.32-0.55,0.44-0.85c0.17-0.42,0.16-0.91,0.48-1.27
		c0.43-0.01,0.83,0.18,1.24,0.25c1.42,0.26,2.63-0.14,3.55-1.24c0.77-0.93,0.88-2,0.47-3.12c-0.2-0.55-0.58-0.98-1.09-1.29
		c-0.8-0.49-1.64-0.67-2.55-0.33c-0.39,0.15-0.68,0.38-0.84,0.77c-0.09,0.23-0.19,0.46-0.16,0.72c0.01,0.13,0.16,0.27,0.29,0.24
		c0.28-0.05,0.56-0.12,0.84-0.16c0.29-0.04,0.57-0.01,0.83,0.13c0.61,0.32,0.84,1.06,0.48,1.64c-0.38,0.62-0.94,0.96-1.69,0.93
		c-0.37-0.02-0.69-0.17-0.97-0.4c-0.76-0.63-1.15-1.45-1.12-2.44c0.01-0.43,0.1-0.85,0.28-1.25c0.49-1.12,1.37-1.72,2.55-1.85
		c1.9-0.21,3.32,0.59,4.28,2.22c0.13,0.21,0.23,0.44,0.34,0.67c0.12,0.23,0.19,0.28,0.29,0.25c0.16-0.04,0.22-0.17,0.28-0.3
		c0.15-0.28,0.29-0.57,0.45-0.85c0.58-0.95,1.4-1.59,2.48-1.88c0.88-0.24,1.77-0.21,2.62,0.14c0.37,0.15,0.69,0.37,0.96,0.67
		c0.7,0.79,1.05,1.7,0.89,2.76c-0.14,0.93-0.66,1.64-1.49,2.1c-0.36,0.2-0.76,0.22-1.14,0.1c-0.57-0.18-1-0.53-1.24-1.09
		c-0.1-0.24-0.12-0.48-0.02-0.73c0.2-0.54,0.67-0.87,1.23-0.85c0.25,0.01,0.49,0.08,0.73,0.12c0.14,0.02,0.28,0.03,0.42,0.05
		c0.09,0.01,0.19-0.13,0.19-0.22c-0.01-0.29-0.08-0.57-0.21-0.82c-0.16-0.33-0.42-0.56-0.78-0.69c-0.75-0.27-1.48-0.17-2.19,0.11
		c-0.27,0.1-0.51,0.26-0.71,0.46c-0.67,0.66-1.02,1.45-0.98,2.4c0.02,0.44,0.16,0.84,0.37,1.22c0.62,1.12,1.58,1.71,2.83,1.85
		c0.54,0.06,1.07,0.02,1.58-0.17c0.2-0.07,0.4-0.14,0.61-0.2c0.1-0.03,0.24,0.04,0.26,0.13c0.04,0.17,0.08,0.34,0.11,0.52
		c0.06,0.39,0.2,0.76,0.38,1.11c0.12,0.22,0.27,0.42,0.47,0.58c0.4,0.33,1.03,0.28,1.34-0.13c0.15-0.2,0.27-0.42,0.37-0.65
		c0.12-0.3,0.2-0.61,0.29-0.92c0.04-0.14,0.09-0.27,0.13-0.4c0.05-0.13,0.21-0.23,0.34-0.2c0.34,0.09,0.68,0.2,1.03,0.27
		c1.15,0.24,2.2-0.02,3.11-0.76c0.93-0.76,1.29-1.77,1.12-2.96c-0.04-0.28-0.14-0.56-0.26-0.81c-0.53-1.12-2.13-2.04-3.64-1.41
		c-0.38,0.16-0.66,0.43-0.79,0.82c-0.07,0.2-0.1,0.42-0.14,0.62c-0.02,0.12,0.14,0.29,0.26,0.27c0.14-0.02,0.28-0.05,0.42-0.08
		c0.25-0.04,0.49-0.1,0.74-0.1c0.42-0.01,0.76,0.19,1,0.52c0.25,0.34,0.31,0.71,0.1,1.11c-0.36,0.69-0.9,1.09-1.7,1.08
		c-0.37,0-0.7-0.14-0.98-0.37c-0.96-0.77-1.44-1.98-1.06-3.25c0.03-0.1,0.06-0.2,0.1-0.3c0.46-1.23,1.38-1.89,2.66-2.01
		c1.9-0.19,3.32,0.61,4.26,2.25c0.14,0.25,0.26,0.51,0.39,0.76c0.03,0.05,0.11,0.08,0.17,0.12c0.08,0.05,0.17,0,0.25-0.14
		c0.17-0.31,0.33-0.63,0.51-0.94c0.59-1,1.45-1.65,2.57-1.96c0.67-0.18,1.35-0.19,2.01-0.03c1.26,0.31,2,1.16,2.33,2.4
		c0.33,1.25-0.1,2.24-1.02,3.06c-0.36,0.32-0.8,0.47-1.29,0.4c-0.64-0.09-1.16-0.42-1.43-1c-0.44-0.93,0.27-1.66,1-1.71
		c0.29-0.02,0.57,0.02,0.84,0.11c0.13,0.04,0.28,0.04,0.42,0.06c0.09,0.01,0.2-0.11,0.2-0.21c0.03-0.85-0.54-1.4-1.06-1.55
		c-0.72-0.21-1.42-0.14-2.09,0.14c-0.81,0.33-1.29,0.98-1.57,1.8c-0.26,0.79-0.17,1.55,0.22,2.28c0.61,1.12,1.58,1.71,2.83,1.85
		c0.53,0.06,1.07,0.02,1.58-0.16c0.17-0.06,0.33-0.12,0.5-0.18c0.23-0.08,0.37-0.02,0.4,0.18c0.05,0.39,0.15,0.77,0.28,1.14
		c0.12,0.34,0.29,0.65,0.56,0.9c0.16,0.14,0.34,0.25,0.56,0.28c0.39,0.05,0.7-0.09,0.93-0.4c0.22-0.29,0.34-0.63,0.45-0.96
		c0.1-0.3,0.18-0.62,0.27-0.92c0.06-0.2,0.18-0.25,0.42-0.19c0.28,0.07,0.55,0.14,0.83,0.22c0.35,0.1,0.7,0.13,1.06,0.11
		c0.97-0.05,1.8-0.42,2.48-1.11c0.52-0.53,0.81-1.17,0.83-1.92c0-0.18,0.01-0.36,0-0.53c-0.04-0.88-0.44-1.58-1.15-2.07
		c-0.8-0.56-1.67-0.77-2.63-0.43c-0.43,0.15-0.74,0.42-0.9,0.85c-0.06,0.16-0.09,0.34-0.12,0.52c-0.04,0.26,0.13,0.43,0.36,0.39
		c0.28-0.06,0.56-0.13,0.84-0.17c0.33-0.04,0.64,0.05,0.91,0.24c0.57,0.4,0.59,1.01,0.38,1.42c-0.35,0.68-0.92,1.08-1.72,1.06
		c-0.45-0.01-0.83-0.21-1.14-0.52c-0.84-0.81-1.33-2.01-0.76-3.43c0.48-1.22,1.4-1.87,2.68-1.99c1.91-0.18,3.31,0.63,4.25,2.28
		c0.16,0.28,0.3,0.57,0.44,0.85c0.05,0.09,0.2,0.09,0.26-0.01c0.07-0.12,0.15-0.24,0.22-0.37c0.18-0.31,0.32-0.64,0.53-0.93
		c1.05-1.48,2.5-2.07,4.28-1.79c0.88,0.14,1.58,0.61,2.06,1.39c0.25,0.4,0.41,0.83,0.5,1.29c0.1,0.54,0.06,1.06-0.17,1.57
		c-0.22,0.5-0.54,0.92-0.96,1.27c-0.56,0.46-1.27,0.51-1.9,0.16c-0.35-0.2-0.63-0.46-0.81-0.83c-0.17-0.34-0.17-0.69,0.02-1.02
		c0.25-0.44,0.64-0.65,1.15-0.65c0.25,0,0.49,0.05,0.73,0.12c0.13,0.04,0.28,0.05,0.42,0.05c0.06,0,0.15-0.07,0.16-0.12
		c0.05-0.53-0.11-0.99-0.51-1.34c-0.13-0.11-0.29-0.2-0.46-0.26c-0.2-0.07-0.41-0.13-0.62-0.14c-1.06-0.06-1.97,0.23-2.63,1.12
		c-0.77,1.04-0.81,2.36-0.14,3.41c0.64,1,1.57,1.52,2.74,1.65c0.54,0.06,1.07,0.01,1.58-0.17c0.2-0.07,0.4-0.13,0.61-0.2
		c0.09-0.03,0.2,0.05,0.23,0.17c0.06,0.24,0.1,0.49,0.18,0.73c0.1,0.3,0.21,0.6,0.35,0.89c0.07,0.16,0.19,0.3,0.31,0.43
		c0.46,0.49,1.19,0.43,1.57-0.13c0.18-0.27,0.3-0.56,0.4-0.87c0.1-0.34,0.19-0.69,0.32-1.02c0.03-0.08,0.16-0.13,0.25-0.16
		c0.06-0.02,0.14,0.02,0.21,0.04c0.31,0.08,0.62,0.18,0.93,0.24c1.33,0.25,2.49-0.1,3.41-1.09c0.89-0.95,1.06-2.08,0.6-3.28
		c-0.28-0.73-0.84-1.23-1.56-1.54c-0.68-0.29-1.38-0.34-2.08-0.07c-0.39,0.15-0.67,0.4-0.83,0.78c-0.05,0.13-0.09,0.27-0.13,0.41
		c-0.09,0.37-0.04,0.65,0.47,0.53c0.24-0.06,0.48-0.12,0.73-0.15c0.37-0.05,0.7,0.07,0.99,0.31c0.32,0.27,0.52,0.78,0.32,1.26
		c-0.3,0.71-1.01,1.18-1.77,1.15c-0.41-0.02-0.77-0.19-1.06-0.45c-0.66-0.6-1.06-1.33-1.05-2.25c0-0.43,0.06-0.85,0.22-1.26
		c0.47-1.18,1.35-1.82,2.58-1.97c1.9-0.22,3.32,0.56,4.29,2.19c0.16,0.27,0.3,0.57,0.45,0.85c0.06,0.12,0.3,0.11,0.36-0.01
		c0.17-0.31,0.33-0.63,0.51-0.94c0.59-0.99,1.43-1.68,2.55-1.99c0.88-0.24,1.77-0.21,2.62,0.14c0.44,0.18,0.81,0.46,1.1,0.83
		c0.46,0.57,0.72,1.22,0.77,1.96c0.07,1.05-0.37,1.87-1.15,2.52c-0.41,0.34-0.88,0.47-1.4,0.34c-0.55-0.13-0.97-0.45-1.25-0.93
		c-0.48-0.81,0.16-1.68,0.92-1.75c0.24-0.02,0.5,0.02,0.74,0.05c0.17,0.02,0.35,0.08,0.52,0.11c0.13,0.03,0.28-0.12,0.28-0.25
		c0-0.33-0.11-0.63-0.27-0.91c-0.14-0.26-0.36-0.44-0.63-0.55c-1.31-0.49-3.05-0.02-3.73,1.6c-0.36,0.84-0.33,1.67,0.08,2.48
		c0.61,1.18,1.6,1.78,2.89,1.93c0.54,0.06,1.07,0.02,1.58-0.17c0.2-0.07,0.4-0.14,0.61-0.21c0.08-0.03,0.24,0.06,0.26,0.13
		c0.08,0.38,0.1,0.78,0.27,1.14c0.1,0.23,0.19,0.46,0.32,0.67c0.09,0.15,0.22,0.28,0.36,0.39c0.4,0.34,1.01,0.27,1.34-0.13
		c0.21-0.25,0.35-0.54,0.44-0.85c0.12-0.37,0.23-0.75,0.35-1.12c0.05-0.15,0.2-0.24,0.33-0.2c0.24,0.06,0.48,0.13,0.72,0.19
		c0.14,0.04,0.27,0.09,0.41,0.11c1.25,0.2,2.34-0.13,3.24-1c0.88-0.85,1.09-1.91,0.81-3.06c-0.21-0.89-0.82-1.49-1.64-1.86
		c-0.67-0.3-1.37-0.36-2.08-0.09c-0.47,0.17-0.78,0.48-0.93,0.96c-0.04,0.13-0.06,0.28-0.08,0.42c-0.04,0.27,0.1,0.43,0.35,0.38
		c0.21-0.05,0.41-0.11,0.62-0.15c0.17-0.03,0.36-0.04,0.53-0.02c0.5,0.06,0.86,0.34,1.05,0.8c0.1,0.24,0.08,0.49-0.01,0.73
		c-0.26,0.7-1.06,1.26-1.86,1.17c-0.37-0.04-0.7-0.18-0.96-0.43c-0.93-0.87-1.34-1.91-0.96-3.18c0.43-1.44,1.48-2.27,2.97-2.34
		c1.77-0.08,3.09,0.68,3.99,2.19c0.16,0.27,0.3,0.57,0.45,0.85c0.1,0.19,0.29,0.17,0.4-0.03c0.09-0.15,0.17-0.31,0.26-0.47
		c0.1-0.19,0.2-0.38,0.31-0.56c0.93-1.46,2.46-2.22,4.32-1.93c0.88,0.14,1.59,0.6,2.08,1.37c0.29,0.46,0.47,0.96,0.56,1.49
		c0.07,0.39,0.01,0.78-0.11,1.16c-0.22,0.67-0.6,1.21-1.18,1.61c-0.55,0.38-1.13,0.4-1.72,0.09c-0.29-0.15-0.53-0.35-0.72-0.62
		c-0.27-0.38-0.33-0.79-0.13-1.21c0.2-0.42,0.55-0.65,1.01-0.68c0.21-0.01,0.43,0.01,0.64,0.04c0.18,0.02,0.35,0.08,0.52,0.12
		c0.14,0.03,0.29-0.09,0.3-0.22c0.04-0.5-0.14-0.91-0.49-1.25c-0.1-0.1-0.23-0.18-0.36-0.23c-2.11-0.76-4.17,0.81-3.96,3.03
		c0.13,1.33,0.92,2.21,2.13,2.71c0.81,0.33,1.66,0.37,2.52,0.12c0.24-0.07,0.47-0.16,0.71-0.24c0.09-0.03,0.23,0.05,0.25,0.14
		c0.08,0.35,0.15,0.7,0.25,1.04c0.12,0.41,0.31,0.8,0.65,1.09c0.14,0.12,0.28,0.22,0.46,0.25c0.38,0.08,0.7-0.03,0.96-0.32
		c0.24-0.28,0.37-0.61,0.48-0.95c0.11-0.34,0.2-0.68,0.31-1.02c0.04-0.12,0.21-0.21,0.35-0.17c0.35,0.09,0.69,0.2,1.04,0.27
		c1.37,0.27,2.55-0.12,3.49-1.15c0.64-0.7,0.83-1.54,0.74-2.48c-0.14-1.3-1.23-2.39-2.77-2.52c-0.47-0.04-0.92,0.09-1.34,0.31
		c-0.12,0.06-0.24,0.16-0.33,0.27c-0.25,0.31-0.4,0.67-0.39,1.08c0,0.14,0.14,0.28,0.28,0.25c0.28-0.05,0.56-0.12,0.84-0.16
		c0.33-0.05,0.64,0,0.93,0.18c0.54,0.33,0.73,1.04,0.4,1.59c-0.38,0.62-0.93,0.97-1.68,0.94c-0.37-0.01-0.7-0.16-0.97-0.39
		c-0.76-0.63-1.15-1.44-1.13-2.43c0.01-0.39,0.08-0.77,0.23-1.15c0.49-1.22,1.42-1.85,2.69-1.97c1.87-0.17,3.24,0.63,4.18,2.22
		c0.16,0.28,0.3,0.57,0.45,0.85c0.06,0.12,0.28,0.1,0.36-0.02c0.19-0.34,0.36-0.7,0.57-1.03c0.58-0.95,1.41-1.61,2.49-1.9
		c0.84-0.23,1.69-0.21,2.52,0.1c0.55,0.21,1,0.55,1.33,1.04c0.43,0.63,0.69,1.32,0.65,2.11c-0.05,1.05-0.56,1.82-1.43,2.37
		c-0.49,0.31-1.02,0.29-1.53,0.03c-0.36-0.18-0.65-0.43-0.85-0.78c-0.33-0.56-0.15-1.23,0.41-1.58c0.22-0.13,0.46-0.19,0.71-0.19
		c0.29,0,0.56,0.08,0.84,0.15c0.1,0.03,0.21,0.02,0.31,0.02c0.09,0,0.2-0.13,0.19-0.22c0-0.03,0-0.07,0-0.11
		c-0.16-1.12-0.75-1.61-2.04-1.55c-1.33,0.06-2.3,0.7-2.76,2.27c-0.14,0.49-0.11,0.99,0.04,1.48c0.38,1.25,1.52,2.29,3.09,2.43
		c0.54,0.05,1.07,0.02,1.58-0.17c0.2-0.07,0.4-0.14,0.61-0.2c0.09-0.03,0.24,0.04,0.26,0.13c0.04,0.17,0.08,0.35,0.11,0.52
		c0.06,0.39,0.2,0.76,0.39,1.11c0.12,0.22,0.27,0.41,0.47,0.57c0.41,0.32,1.03,0.27,1.34-0.14c0.15-0.2,0.28-0.42,0.37-0.65
		c0.12-0.3,0.19-0.61,0.29-0.92c0.04-0.14,0.09-0.27,0.14-0.4c0.05-0.13,0.21-0.22,0.34-0.19c0.31,0.08,0.62,0.17,0.93,0.25
		c1.15,0.27,2.19,0.03,3.13-0.68c0.59-0.45,0.98-1.04,1.15-1.76c0.38-1.6-0.46-3.06-1.98-3.54c-0.64-0.2-1.26-0.19-1.88,0.06
		c-0.38,0.16-0.66,0.43-0.78,0.83c-0.06,0.2-0.09,0.42-0.14,0.62c-0.02,0.12,0.14,0.28,0.27,0.26c0.17-0.03,0.35-0.08,0.52-0.11
		c0.21-0.03,0.42-0.07,0.64-0.07c0.55,0,1.03,0.37,1.18,0.92c0.04,0.13,0.05,0.29,0.02,0.42c-0.21,0.9-1.12,1.4-1.7,1.39
		c-0.41-0.01-0.77-0.12-1.09-0.38c-0.98-0.79-1.45-2.05-1.02-3.36c0.45-1.34,1.44-2.13,2.84-2.22c1.87-0.12,3.23,0.67,4.15,2.27
		c0.11,0.18,0.19,0.38,0.29,0.57c0.06,0.13,0.11,0.28,0.28,0.3c0.24,0.03,0.26-0.2,0.35-0.33c0.1-0.15,0.16-0.32,0.25-0.47
		c0.07-0.13,0.14-0.25,0.21-0.37c0.59-0.95,1.44-1.57,2.52-1.86c0.67-0.18,1.35-0.19,2.01-0.02c1.26,0.31,2,1.17,2.33,2.4
		c0.33,1.24-0.1,2.24-1.03,3.06c-0.36,0.32-0.8,0.47-1.29,0.4c-0.64-0.09-1.16-0.42-1.43-1c-0.43-0.95,0.27-1.66,1-1.7
		c0.21-0.01,0.43,0.02,0.64,0.05c0.18,0.03,0.34,0.09,0.52,0.12c0.14,0.03,0.3-0.09,0.3-0.23c0.02-0.75-0.4-1.34-1.07-1.55
		c-0.72-0.23-1.42-0.14-2.09,0.14c-0.77,0.32-1.25,0.93-1.53,1.7c-0.31,0.82-0.22,1.62,0.19,2.38c0.61,1.12,1.59,1.71,2.83,1.85
		c0.53,0.06,1.07,0.02,1.58-0.16c0.17-0.06,0.33-0.12,0.5-0.18c0.23-0.08,0.37-0.02,0.39,0.19c0.04,0.39,0.15,0.77,0.28,1.14
		c0.12,0.34,0.29,0.65,0.56,0.9c0.16,0.14,0.34,0.25,0.56,0.28c0.39,0.05,0.7-0.09,0.93-0.4c0.22-0.29,0.34-0.62,0.45-0.96
		c0.1-0.3,0.18-0.62,0.28-0.92c0.06-0.2,0.18-0.25,0.42-0.19c0.28,0.07,0.55,0.15,0.83,0.21c0.17,0.04,0.35,0.08,0.52,0.1
		c1.05,0.11,1.98-0.2,2.78-0.88c0.66-0.55,1.03-1.27,1.06-2.14c0.01-0.18,0.01-0.36,0-0.53c-0.04-0.88-0.44-1.58-1.15-2.07
		c-0.77-0.53-1.6-0.75-2.53-0.46c-0.58,0.18-1.11,0.64-1.12,1.5c0,0.04,0.01,0.07,0.02,0.11c0.01,0.08,0.16,0.18,0.24,0.17
		c0.28-0.05,0.56-0.12,0.84-0.16c0.37-0.05,0.71,0.02,1.02,0.23c0.46,0.32,0.62,0.93,0.38,1.43c-0.28,0.57-0.97,1.11-1.73,1.05
		c-0.33-0.02-0.63-0.13-0.89-0.32c-0.78-0.6-1.19-1.4-1.26-2.38c0.09-1.55,0.9-2.98,2.83-3.23c2.19-0.29,3.69,0.98,4.35,2.27
		c0.15,0.29,0.3,0.57,0.45,0.85c0.05,0.09,0.2,0.09,0.26-0.01c0.11-0.18,0.21-0.37,0.32-0.55c0.18-0.31,0.34-0.63,0.55-0.91
		c0.83-1.08,1.92-1.67,3.31-1.68c0.5,0,0.99,0.05,1.47,0.24c0.54,0.22,0.98,0.57,1.32,1.05c0.32,0.44,0.52,0.94,0.62,1.47
		c0.1,0.54,0.05,1.07-0.17,1.57c-0.22,0.5-0.54,0.92-0.96,1.26c-0.6,0.48-1.35,0.51-1.99,0.1c-0.31-0.2-0.56-0.44-0.71-0.78
		c-0.18-0.39-0.16-0.76,0.09-1.11c0.26-0.38,0.63-0.56,1.09-0.56c0.29,0,0.56,0.08,0.84,0.16c0.1,0.03,0.21,0.03,0.31,0.01
		c0.06-0.01,0.14-0.08,0.15-0.13c0.05-0.49-0.1-0.92-0.44-1.27c-0.12-0.12-0.28-0.23-0.44-0.29c-0.23-0.09-0.48-0.16-0.72-0.18
		c-1.05-0.05-1.97,0.23-2.63,1.12c-0.89,1.2-0.79,2.8,0.26,3.92c0.64,0.68,1.44,1.04,2.36,1.13c0.73,0.07,1.42-0.07,2.09-0.36
		c0.06-0.03,0.14-0.02,0.21-0.01c0.03,0,0.07,0.04,0.08,0.07c0.07,0.24,0.13,0.48,0.2,0.72c0.1,0.31,0.18,0.62,0.32,0.91
		c0.09,0.19,0.23,0.36,0.37,0.52c0.46,0.49,1.19,0.42,1.57-0.13c0.18-0.27,0.3-0.56,0.4-0.87c0.11-0.34,0.19-0.68,0.32-1.02
		c0.03-0.08,0.16-0.13,0.25-0.16c0.06-0.02,0.14,0.02,0.21,0.04c0.31,0.08,0.62,0.18,0.93,0.24c1.16,0.22,2.21-0.03,3.1-0.8
		c1.01-0.87,1.36-1.98,1-3.28c-0.23-0.85-0.79-1.43-1.57-1.79c-0.7-0.33-1.43-0.4-2.18-0.11c-0.39,0.15-0.67,0.4-0.83,0.78
		c-0.07,0.16-0.11,0.34-0.15,0.51c-0.08,0.31,0.1,0.5,0.4,0.44c0.28-0.06,0.56-0.13,0.84-0.17c0.33-0.05,0.64,0.06,0.91,0.25
		c0.28,0.2,0.43,0.48,0.48,0.8c0.02,0.1-0.01,0.21-0.02,0.32c-0.11,0.7-0.99,1.42-1.83,1.35c-0.22-0.02-0.42-0.07-0.61-0.17
		c-0.78-0.41-1.24-1.08-1.43-1.91c-0.15-0.67-0.09-1.35,0.19-1.99c0.47-1.07,1.3-1.68,2.44-1.85c2.03-0.3,3.53,0.71,4.35,2.09
		c0.18,0.31,0.33,0.63,0.5,0.94c0.06,0.11,0.3,0.11,0.36-0.01c0.17-0.31,0.32-0.64,0.51-0.94c0.59-0.99,1.43-1.69,2.55-1.99
		c0.85-0.23,1.69-0.21,2.52,0.1c0.51,0.19,0.93,0.52,1.26,0.95c0.26,0.35,0.46,0.73,0.57,1.14c0.35,1.29,0.06,2.42-1.12,3.31
		c-0.56,0.43-1.19,0.43-1.81,0.09c-0.45-0.25-0.78-0.61-0.9-1.14c-0.03-0.14-0.02-0.28,0.01-0.42c0.14-0.6,0.69-0.97,1.27-0.94
		c0.21,0.01,0.42,0.06,0.63,0.1c0.14,0.02,0.28,0.06,0.42,0.08c0.13,0.02,0.28-0.13,0.28-0.25c0-0.33-0.11-0.63-0.27-0.91
		c-0.14-0.25-0.36-0.44-0.64-0.55c-1.28-0.49-2.95-0.01-3.64,1.41c-0.44,0.9-0.46,1.78-0.01,2.67c0.58,1.14,1.54,1.75,2.79,1.92
		c0.57,0.08,1.14,0.04,1.69-0.16c0.2-0.07,0.4-0.14,0.61-0.21c0.08-0.03,0.24,0.06,0.26,0.13c0.03,0.14,0.05,0.28,0.07,0.42
		c0.07,0.46,0.22,0.9,0.46,1.3c0.11,0.18,0.26,0.34,0.41,0.48c0.4,0.34,1.01,0.27,1.34-0.13c0.21-0.25,0.35-0.54,0.44-0.85
		c0.12-0.37,0.23-0.75,0.35-1.12c0.05-0.15,0.2-0.24,0.33-0.2c0.31,0.08,0.62,0.17,0.93,0.25c0.79,0.2,1.56,0.13,2.3-0.18
		c0.47-0.19,0.88-0.47,1.22-0.84c0.53-0.57,0.83-1.24,0.83-2.03c0-0.36,0.01-0.71-0.11-1.06c-0.31-0.9-0.93-1.5-1.82-1.83
		c-0.63-0.23-1.25-0.24-1.88-0.01c-0.47,0.17-0.78,0.49-0.93,0.96c-0.05,0.17-0.06,0.35-0.09,0.53c-0.02,0.13,0.13,0.3,0.25,0.27
		c0.31-0.06,0.63-0.14,0.94-0.18c0.33-0.05,0.64,0.04,0.91,0.23c0.52,0.36,0.67,0.97,0.35,1.5c-0.37,0.64-0.91,0.99-1.66,0.98
		c-0.41-0.01-0.77-0.16-1.07-0.44c-0.94-0.87-1.34-1.91-0.96-3.18c0.02-0.07,0.04-0.14,0.06-0.21c0.4-1.2,1.26-1.9,2.48-2.08
		c1.84-0.27,3.28,0.4,4.31,1.95c0.16,0.24,0.27,0.5,0.41,0.75c0.07,0.12,0.15,0.24,0.22,0.36c0.05,0.08,0.22,0.07,0.27-0.02
		c0.09-0.15,0.18-0.31,0.27-0.46c0.14-0.25,0.26-0.51,0.42-0.75c1.04-1.49,2.47-2.11,4.26-1.84c0.97,0.14,1.71,0.68,2.2,1.54
		c0.23,0.41,0.37,0.85,0.45,1.31c0.06,0.32,0.04,0.64-0.05,0.95c-0.18,0.68-0.53,1.24-1.07,1.69c-0.63,0.53-1.41,0.57-2.07,0.1
		c-0.2-0.14-0.39-0.32-0.54-0.51c-0.29-0.37-0.34-0.79-0.14-1.21c0.2-0.42,0.55-0.66,1.01-0.68c0.25-0.01,0.49,0.04,0.74,0.07
		c0.17,0.02,0.35,0.06,0.52,0.09c0.08,0.01,0.19-0.11,0.2-0.21c0.04-0.5-0.14-0.91-0.49-1.25c-0.1-0.1-0.23-0.18-0.36-0.23
		c-2.01-0.73-4.1,0.67-3.97,2.92c0.08,1.38,0.88,2.3,2.14,2.82c0.81,0.33,1.66,0.38,2.51,0.12c0.24-0.07,0.47-0.16,0.71-0.23
		c0.09-0.03,0.24,0.04,0.26,0.13c0.06,0.28,0.13,0.55,0.19,0.83c0.07,0.32,0.2,0.61,0.36,0.89c0.13,0.22,0.3,0.4,0.51,0.54
		c0.35,0.24,0.89,0.18,1.18-0.12c0.23-0.24,0.37-0.52,0.48-0.83c0.14-0.41,0.25-0.82,0.38-1.22c0.04-0.13,0.21-0.22,0.34-0.18
		c0.35,0.09,0.69,0.2,1.04,0.27c1.37,0.27,2.55-0.12,3.49-1.14c0.64-0.69,0.83-1.54,0.74-2.48c-0.12-1.25-1.18-2.39-2.76-2.53
		c-0.47-0.04-0.92,0.09-1.34,0.3c-0.12,0.06-0.24,0.16-0.33,0.27c-0.25,0.31-0.4,0.67-0.39,1.08c0,0.14,0.14,0.28,0.27,0.26
		c0.28-0.05,0.56-0.12,0.84-0.16c0.29-0.04,0.57-0.01,0.83,0.12c0.62,0.32,0.86,1.05,0.5,1.64c-0.38,0.63-0.93,0.97-1.68,0.95
		c-0.37-0.01-0.7-0.16-0.98-0.39c-0.76-0.63-1.15-1.44-1.13-2.43c0.01-0.36,0.06-0.71,0.19-1.05c0.47-1.27,1.4-1.95,2.73-2.07
		c1.86-0.17,3.24,0.62,4.18,2.21c0.16,0.28,0.3,0.57,0.45,0.85c0.07,0.12,0.28,0.11,0.35-0.02c0.17-0.31,0.34-0.62,0.52-0.93
		c0.4-0.7,0.94-1.26,1.65-1.63c1.1-0.58,2.24-0.68,3.41-0.26c0.59,0.21,1.05,0.6,1.39,1.12c0.39,0.61,0.63,1.28,0.59,2.02
		c-0.05,1.04-0.56,1.82-1.42,2.37c-0.49,0.31-1.01,0.29-1.53,0.04c-0.36-0.18-0.65-0.43-0.85-0.78c-0.33-0.56-0.16-1.23,0.4-1.58
		c0.19-0.11,0.38-0.18,0.6-0.19c0.29-0.01,0.57,0.03,0.84,0.12c0.13,0.04,0.28,0.04,0.42,0.05c0.09,0.01,0.19-0.12,0.19-0.22
		c-0.01-0.29-0.08-0.57-0.2-0.82c-0.16-0.33-0.42-0.57-0.78-0.69c-0.79-0.27-1.54-0.18-2.29,0.15c-0.26,0.12-0.5,0.28-0.7,0.49
		c-0.61,0.65-0.95,1.41-0.9,2.32c0.02,0.47,0.18,0.91,0.42,1.31c0.63,1.06,1.58,1.62,2.78,1.75c0.54,0.06,1.07,0.02,1.58-0.16
		c0.2-0.07,0.4-0.14,0.61-0.2c0.1-0.03,0.24,0.04,0.26,0.13c0.04,0.17,0.09,0.34,0.11,0.52c0.05,0.36,0.18,0.69,0.33,1.01
		c0.12,0.26,0.29,0.48,0.52,0.67c0.4,0.32,1.03,0.27,1.34-0.14c0.15-0.2,0.28-0.42,0.37-0.65c0.12-0.3,0.2-0.61,0.29-0.92
		c0.04-0.14,0.09-0.27,0.13-0.4c0.05-0.13,0.22-0.22,0.34-0.19c0.28,0.07,0.55,0.14,0.83,0.21c0.1,0.03,0.2,0.07,0.31,0.08
		c1.33,0.21,2.48-0.17,3.38-1.17c0.69-0.76,0.91-1.69,0.71-2.69c-0.19-0.98-0.8-1.66-1.7-2.06c-0.68-0.29-1.37-0.37-2.08-0.09
		c-0.47,0.18-0.79,0.48-0.92,0.97c-0.05,0.17-0.07,0.35-0.11,0.52c-0.02,0.12,0.14,0.28,0.27,0.26c0.14-0.02,0.28-0.05,0.42-0.08
		c0.25-0.04,0.49-0.1,0.74-0.1c0.51-0.01,0.96,0.32,1.15,0.81c0.08,0.21,0.09,0.42,0.03,0.63c-0.22,0.75-1.06,1.37-1.89,1.28
		c-0.33-0.04-0.62-0.16-0.88-0.37c-0.99-0.79-1.42-2-1.06-3.25c0.03-0.1,0.07-0.2,0.1-0.3c0.46-1.23,1.38-1.88,2.66-2.01
		c1.9-0.19,3.31,0.62,4.26,2.26c0.14,0.25,0.25,0.51,0.39,0.76c0.03,0.05,0.11,0.08,0.17,0.12c0.08,0.05,0.17,0,0.25-0.14
		c0.15-0.28,0.3-0.57,0.45-0.85c0.43-0.76,1.04-1.35,1.83-1.75c0.86-0.44,1.78-0.53,2.71-0.34c1.32,0.27,2.1,1.14,2.44,2.42
		c0.31,1.19-0.07,2.17-0.94,3c-0.24,0.22-0.52,0.38-0.84,0.45c-0.75,0.16-1.65-0.27-1.96-0.98c-0.42-0.94,0.25-1.66,1-1.71
		c0.29-0.02,0.57,0.02,0.84,0.11c0.13,0.04,0.28,0.04,0.42,0.06c0.09,0.01,0.2-0.11,0.2-0.21c0.02-0.75-0.4-1.35-1.06-1.55
		c-0.72-0.22-1.42-0.14-2.09,0.13c-0.77,0.32-1.25,0.93-1.54,1.69c-0.3,0.78-0.23,1.54,0.14,2.28c0.59,1.18,1.58,1.8,2.87,1.96
		c0.57,0.07,1.14,0.01,1.69-0.19c0.2-0.07,0.4-0.13,0.61-0.18c0.08-0.02,0.14,0.02,0.16,0.11c0.09,0.38,0.17,0.76,0.28,1.14
		c0.11,0.38,0.3,0.73,0.59,1c0.16,0.15,0.34,0.26,0.56,0.29c0.39,0.06,0.7-0.08,0.94-0.39c0.24-0.32,0.37-0.69,0.49-1.06
		c0.1-0.3,0.19-0.61,0.28-0.92c0.02-0.08,0.18-0.15,0.27-0.13c0.07,0.02,0.14,0.04,0.21,0.06c0.28,0.07,0.55,0.15,0.83,0.21
		c1.2,0.26,2.27-0.02,3.2-0.8c0.66-0.55,1.03-1.27,1.07-2.14c0.01-0.14,0-0.29,0-0.43c0-1.21-0.81-2.19-1.9-2.59
		c-0.63-0.23-1.25-0.25-1.88-0.03c-0.48,0.17-0.79,0.47-0.95,0.94c-0.07,0.2-0.11,0.41-0.07,0.63c0.02,0.08,0.15,0.19,0.23,0.18
		c0.28-0.05,0.56-0.11,0.84-0.16c0.37-0.05,0.71,0.01,1.02,0.23c0.46,0.32,0.63,0.92,0.39,1.42c-0.3,0.64-1.02,1.11-1.72,1.06
		c-0.33-0.02-0.63-0.12-0.89-0.32c-0.79-0.59-1.19-1.4-1.27-2.37c0.09-1.52,0.87-2.98,2.82-3.24c2.15-0.28,3.64,0.9,4.36,2.26
		c0.07,0.13,0.13,0.25,0.19,0.38c0.09,0.19,0.17,0.4,0.37,0.51c0.28-0.09,0.33-0.35,0.45-0.56c0.09-0.15,0.16-0.32,0.25-0.47
		c0.15-0.24,0.3-0.49,0.49-0.7c0.82-0.93,1.84-1.44,3.09-1.46c0.5-0.01,0.99,0.04,1.47,0.22c0.55,0.22,1,0.55,1.34,1.03
		c0.34,0.47,0.55,1,0.65,1.57c0.09,0.5,0.03,0.99-0.17,1.47c-0.23,0.54-0.56,0.99-1.03,1.34c-0.57,0.42-1.18,0.46-1.81,0.13
		c-0.32-0.17-0.58-0.41-0.78-0.72c-0.49-0.78,0.07-1.66,0.86-1.79c0.29-0.04,0.57-0.01,0.85,0.06c0.17,0.04,0.34,0.07,0.52,0.1
		c0.09,0.02,0.2-0.1,0.2-0.2c0.01-0.37-0.08-0.71-0.28-1.01c-0.14-0.21-0.33-0.38-0.56-0.48c-1.2-0.5-2.85-0.07-3.55,1.16
		c-0.58,1.02-0.62,2.04-0.05,3.05c0.6,1.08,1.57,1.62,2.77,1.77c0.53,0.06,1.07,0.02,1.58-0.16c0.2-0.07,0.4-0.14,0.61-0.21
		c0.09-0.03,0.24,0.04,0.26,0.12c0.08,0.31,0.14,0.63,0.23,0.93c0.12,0.41,0.28,0.81,0.59,1.12c0.18,0.18,0.38,0.32,0.64,0.35
		c0.35,0.04,0.63-0.07,0.86-0.33c0.24-0.28,0.37-0.61,0.48-0.95c0.11-0.34,0.19-0.69,0.31-1.02c0.03-0.09,0.14-0.15,0.22-0.22
		c0.39,0.1,0.77,0.21,1.15,0.29c1.2,0.24,2.26-0.04,3.19-0.82c0.9-0.76,1.4-2.13,0.87-3.51c-0.11-0.3-0.29-0.57-0.51-0.81
		c-0.56-0.61-1.26-0.92-2.07-1c-0.47-0.05-0.92,0.09-1.34,0.29c-0.2,0.09-0.35,0.25-0.46,0.44c-0.16,0.28-0.27,0.58-0.29,0.91
		c-0.01,0.13,0.13,0.29,0.26,0.27c0.17-0.03,0.35-0.07,0.52-0.1c0.25-0.03,0.5-0.08,0.74-0.07c0.54,0.03,1,0.46,1.11,1
		c0.02,0.1,0.01,0.21-0.01,0.32c-0.12,0.75-1.03,1.54-2.01,1.38c-0.29-0.05-0.55-0.17-0.77-0.35c-0.69-0.57-1.12-1.28-1.16-2.2
		c-0.02-0.5,0.04-0.99,0.24-1.46c0.47-1.12,1.33-1.76,2.52-1.9c1.9-0.23,3.33,0.53,4.31,2.15c0.15,0.24,0.26,0.51,0.39,0.76
		c0.05,0.1,0.11,0.17,0.22,0.21c0.1,0.03,0.19-0.03,0.31-0.25c0.08-0.16,0.16-0.32,0.25-0.47c0.09-0.16,0.17-0.31,0.27-0.46
		c0.6-0.94,1.44-1.58,2.52-1.86c0.85-0.21,1.7-0.19,2.52,0.14c0.33,0.14,0.64,0.32,0.89,0.58c0.82,0.85,1.19,1.87,0.95,3.03
		c-0.17,0.84-0.67,1.48-1.42,1.91c-0.36,0.21-0.76,0.24-1.14,0.12c-0.65-0.19-1.13-0.6-1.32-1.28c-0.03-0.1-0.04-0.21-0.03-0.31
		c0.09-0.64,0.62-1.1,1.26-1.08c0.25,0.01,0.49,0.08,0.74,0.11c0.14,0.02,0.28,0.04,0.42,0.06c0.09,0.01,0.21-0.11,0.21-0.2
		c-0.01-0.48-0.15-0.91-0.5-1.25c-0.1-0.1-0.23-0.18-0.35-0.23c-1.24-0.5-2.89-0.07-3.61,1.26c-0.52,0.95-0.56,1.9-0.05,2.86
		c0.6,1.13,1.57,1.72,2.82,1.87c0.57,0.07,1.14,0.02,1.69-0.18c0.2-0.07,0.4-0.14,0.61-0.19c0.05-0.01,0.15,0.05,0.17,0.1
		c0.05,0.13,0.08,0.27,0.1,0.41c0.06,0.47,0.22,0.9,0.44,1.31c0.12,0.22,0.28,0.41,0.49,0.56c0.39,0.28,0.95,0.22,1.26-0.14
		c0.19-0.22,0.33-0.47,0.42-0.74c0.11-0.34,0.2-0.68,0.31-1.02c0.05-0.17,0.1-0.34,0.3-0.46c0.35,0.09,0.73,0.2,1.11,0.28
		c1.19,0.26,2.27-0.01,3.2-0.79c0.72-0.6,1.06-1.39,1.1-2.34c0.06-1.49-1-2.76-2.63-2.99c-0.51-0.07-1,0.05-1.45,0.27
		c-0.3,0.14-0.52,0.39-0.62,0.71c-0.08,0.23-0.1,0.48-0.14,0.73c-0.02,0.1,0.1,0.21,0.2,0.2c0.14-0.02,0.28-0.04,0.42-0.06
		c0.25-0.04,0.49-0.1,0.74-0.11c0.34-0.02,0.63,0.12,0.88,0.34c0.4,0.35,0.5,0.9,0.24,1.36c-0.38,0.68-0.95,1.05-1.74,1.01
		c-0.37-0.01-0.69-0.17-0.97-0.4c-0.87-0.71-1.39-1.96-1.01-3.17c0.14-0.45,0.31-0.87,0.61-1.24c0.55-0.67,1.27-1.03,2.12-1.12
		c1.9-0.19,3.32,0.58,4.28,2.22c0.14,0.24,0.25,0.51,0.39,0.76c0.05,0.08,0.15,0.14,0.25,0.17c0.03,0.01,0.12-0.07,0.15-0.13
		c0.17-0.31,0.33-0.63,0.51-0.94c0.4-0.7,0.94-1.25,1.65-1.64c0.89-0.49,1.83-0.59,2.8-0.37c1.1,0.25,1.79,0.99,2.17,2.03
		c0.45,1.23,0.2,2.31-0.69,3.26c-0.76,0.8-1.77,0.79-2.54-0.01c-0.12-0.13-0.22-0.28-0.3-0.44c-0.43-0.76,0.23-1.68,1.02-1.68
		c0.25,0,0.49,0.06,0.74,0.09c0.14,0.02,0.28,0.05,0.42,0.07c0.08,0.01,0.2-0.11,0.2-0.21c0.04-0.77-0.35-1.34-1.03-1.56
		c-1.19-0.37-2.89,0.09-3.5,1.85c-0.27,0.78-0.21,1.54,0.15,2.28c0.31,0.64,0.76,1.13,1.34,1.47c-0.41,0.58-1.2,1.87-0.63,2.62
		c0.59,0.78,2.61-0.48,2.72-0.54c0.09,0.17,0.2,0.33,0.31,0.49c0.79,1.07,2.27,1.63,3.73,1.06c0.73-0.28,1.24-0.82,1.55-1.55
		c0.26-0.61,0.31-1.23,0.09-1.88c-0.16-0.48-0.45-0.8-0.92-0.96c-0.17-0.06-0.35-0.07-0.52-0.09c-0.19-0.02-0.36,0.14-0.32,0.32
		c0.05,0.28,0.13,0.56,0.17,0.84c0.06,0.52-0.2,0.99-0.66,1.24c-0.3,0.17-0.6,0.18-0.92,0.04c-0.53-0.22-0.88-0.61-1.06-1.14
		c-0.2-0.59-0.04-1.13,0.37-1.59c0.63-0.7,1.43-1.05,2.37-1.03c0.43,0.01,0.85,0.09,1.25,0.26c0.88,0.37,1.47,0.99,1.74,1.9
		c0.37,1.29,0.14,2.47-0.67,3.54c-0.37,0.49-0.83,0.88-1.38,1.16c-0.32,0.17-0.64,0.32-0.95,0.48c-0.09,0.05-0.08,0.2,0.02,0.26
		c0.12,0.07,0.24,0.14,0.37,0.21c0.28,0.15,0.58,0.28,0.85,0.45c0.89,0.54,1.5,1.31,1.79,2.31c0.23,0.81,0.19,1.62-0.14,2.41
		c-0.16,0.37-0.38,0.69-0.69,0.94c-0.72,0.58-1.53,0.92-2.46,0.86c-0.95-0.05-1.71-0.5-2.26-1.25c-0.37-0.5-0.37-1.06-0.06-1.61
		c0.2-0.35,0.48-0.61,0.85-0.79c0.71-0.34,1.61,0.18,1.65,0.97c0.01,0.21-0.03,0.42-0.06,0.63c-0.02,0.17-0.07,0.35-0.1,0.52
		c-0.02,0.13,0.14,0.26,0.28,0.26c0.29-0.02,0.56-0.11,0.82-0.23c0.3-0.14,0.52-0.38,0.63-0.7c0.39-1.1,0.05-2.55-1.18-3.24
		c-0.48-0.27-0.99-0.42-1.52-0.45c-0.43-0.03-0.85,0.07-1.25,0.25c-1.33,0.6-2.04,1.62-2.09,3.09c-0.02,0.58,0.12,1.13,0.35,1.66
		c0.08,0.19-0.02,0.34-0.24,0.38c-0.17,0.03-0.36,0.05-0.53,0.1c-0.31,0.09-0.62,0.18-0.91,0.3c-0.23,0.09-0.43,0.25-0.6,0.44
		c-0.36,0.39-0.31,1.01,0.13,1.31c0.2,0.14,0.43,0.26,0.66,0.34c0.33,0.12,0.68,0.2,1.03,0.3c0.17,0.05,0.34,0.11,0.47,0.28
		c-0.1,0.36-0.21,0.73-0.29,1.12c-0.22,1.08,0.03,2.06,0.75,2.89c0.79,0.91,1.8,1.21,2.98,1.07c0.97-0.11,2.1-0.88,2.38-2.29
		c0.11-0.55,0-1.06-0.25-1.55c-0.12-0.23-0.31-0.4-0.54-0.5c-0.26-0.11-0.53-0.2-0.82-0.21c-0.12-0.01-0.28,0.16-0.25,0.28
		c0.06,0.31,0.14,0.63,0.17,0.94c0.04,0.46-0.17,0.83-0.56,1.08c-0.25,0.17-0.53,0.21-0.82,0.16c-0.67-0.13-1.28-0.82-1.33-1.5
		c-0.03-0.41,0.08-0.79,0.35-1.09c0.82-0.92,1.83-1.34,3.06-1.06c0.31,0.07,0.62,0.17,0.91,0.31c0.98,0.48,1.49,1.29,1.61,2.36
		c0.16,1.43-0.38,2.58-1.48,3.48c-0.33,0.28-0.71,0.47-1.1,0.66c-0.19,0.09-0.38,0.19-0.57,0.29c-0.1,0.05-0.08,0.19,0.03,0.25
		c0.28,0.15,0.57,0.29,0.86,0.44c0.35,0.18,0.68,0.39,0.97,0.66c1.03,0.93,1.46,2.09,1.26,3.46c-0.12,0.85-0.55,1.54-1.28,2.01
		c-0.52,0.33-1.1,0.51-1.7,0.6c-0.36,0.06-0.71-0.03-1.05-0.13c-0.64-0.18-1.16-0.55-1.57-1.06c-0.4-0.49-0.43-1.17-0.1-1.7
		c0.17-0.28,0.39-0.51,0.67-0.68c0.4-0.24,0.81-0.27,1.22-0.04c0.45,0.25,0.66,0.65,0.61,1.16c-0.03,0.32-0.11,0.63-0.16,0.94
		c-0.01,0.09,0.11,0.21,0.2,0.21c0.04,0,0.07,0.01,0.11,0.01c0.14-0.02,0.28-0.04,0.42-0.07c0.57-0.15,0.93-0.49,1.06-1.08
		c0.29-1.24-0.21-2.39-1.29-3.01c-2.03-1.16-4.04,0.21-4.59,1.69c-0.28,0.76-0.31,1.53-0.08,2.31c0.08,0.27,0.22,0.52,0.25,0.8
		c-0.31,0.19-0.64,0.19-0.94,0.27c-0.31,0.08-0.62,0.18-0.9,0.34c-0.18,0.11-0.35,0.25-0.49,0.4c-0.33,0.35-0.28,0.93,0.09,1.24
		c0.22,0.19,0.48,0.31,0.75,0.4c0.37,0.12,0.76,0.21,1.13,0.32c0.1,0.03,0.18,0.1,0.27,0.17c0.03,0.02,0.04,0.06,0.06,0.11
		c-0.09,0.33-0.19,0.67-0.27,1.01c-0.26,1.12,0,2.13,0.75,2.99c0.56,0.65,1.28,1.02,2.15,1.05c0.25,0.01,0.5,0,0.75-0.01
		c1.14-0.07,2.46-1.1,2.48-2.75c0.01-0.36-0.1-0.71-0.26-1.03c-0.08-0.15-0.21-0.3-0.34-0.4c-0.29-0.23-0.62-0.34-0.99-0.36
		c-0.18-0.01-0.35,0.17-0.31,0.34c0.05,0.28,0.14,0.56,0.17,0.84c0.07,0.62-0.38,1.19-1.01,1.31c-0.1,0.02-0.22,0.02-0.32-0.01
		c-0.63-0.16-1.07-0.55-1.3-1.16c-0.14-0.38-0.12-0.78,0.08-1.14c0.1-0.19,0.22-0.37,0.37-0.52c0.8-0.77,1.75-1.07,2.85-0.87
		c0.24,0.04,0.49,0.12,0.71,0.22c0.88,0.36,1.47,0.98,1.73,1.91c0.29,1.05,0.15,2.05-0.41,2.98c-0.44,0.72-1.06,1.24-1.81,1.61
		c-0.25,0.13-0.54,0.19-0.75,0.4c-0.04,0.04-0.05,0.14-0.03,0.19c0.02,0.06,0.09,0.1,0.16,0.14c0.32,0.17,0.64,0.31,0.95,0.49
		c0.93,0.55,1.59,1.31,1.9,2.36c0.19,0.63,0.21,1.27,0.04,1.9c-0.34,1.33-1.28,2-2.57,2.27c-0.17,0.04-0.35,0.04-0.53,0.05
		c-0.96,0.04-1.73-0.35-2.36-1.04c-0.52-0.58-0.55-1.33-0.09-1.96c0.15-0.2,0.32-0.38,0.54-0.51c0.52-0.33,1.39-0.27,1.75,0.45
		c0.12,0.23,0.15,0.48,0.11,0.73c-0.04,0.28-0.11,0.56-0.16,0.84C389.52,214.79,389.64,214.91,389.73,214.92z"/>
</g>
</svg>
