<?xml version="1.0" encoding="utf-8"?>
<!-- Generator: Adobe Illustrator 26.5.0, SVG Export Plug-In . SVG Version: 6.00 Build 0)  -->
<svg version="1.1" id="Layer_1" xmlns="http://www.w3.org/2000/svg" xmlns:xlink="http://www.w3.org/1999/xlink" x="0px" y="0px"
	 viewBox="0 0 500 500" style="enable-background:new 0 0 500 500;" xml:space="preserve">
<style type="text/css">
	.st0{fill-rule:evenodd;clip-rule:evenodd;fill:#131313;}
</style>
<g>
	<path class="st0" d="M260.58,349.76c10.75-0.5,21.48-1.7,32.08-3.76c10.59-2.07,21.06-4.95,31.24-8.72
		c10.17-3.79,20.03-8.57,29.34-14.34c4.59-2.99,9.16-6.06,13.41-9.63l1.61-1.3l1.56-1.38l3.1-2.79c1.97-1.98,4-3.88,5.83-6.02
		c1.91-2.04,3.64-4.28,5.39-6.49c0.85-1.13,1.64-2.31,2.45-3.46c0.83-1.14,1.57-2.36,2.3-3.58c1.53-2.39,2.8-4.96,4.1-7.5l1.71-3.94
		c0.59-1.31,0.99-2.69,1.49-4.04c1.83-5.45,3.11-11.12,3.57-16.87c0.45-5.75,0.23-11.54-0.67-17.24
		c-0.89-5.71-2.62-11.25-4.82-16.53c-0.59-1.3-1.09-2.65-1.77-3.91l-1.97-3.8c-1.46-2.44-2.88-4.92-4.55-7.19
		c-1.57-2.37-3.38-4.52-5.13-6.73c-1.88-2.08-3.69-4.23-5.71-6.16c-3.91-4-8.18-7.55-12.57-10.89c-8.84-6.58-18.36-12.09-28.31-16.5
		c-9.94-4.45-20.24-7.97-30.73-10.56c-10.49-2.61-21.16-4.4-31.88-5.43c-10.72-1-21.49-1.23-32.24-0.75
		c-10.75,0.5-21.48,1.7-32.08,3.76c-10.59,2.07-21.06,4.95-31.24,8.72c-10.17,3.79-20.03,8.57-29.34,14.34
		c-4.59,2.99-9.16,6.06-13.41,9.63l-1.61,1.3l-1.56,1.38l-3.1,2.79c-1.97,1.98-4,3.88-5.83,6.02c-1.91,2.04-3.64,4.28-5.39,6.49
		c-0.85,1.13-1.64,2.31-2.45,3.46c-0.83,1.14-1.57,2.36-2.3,3.58c-1.53,2.39-2.8,4.96-4.1,7.5l-1.71,3.94
		c-0.59,1.31-0.99,2.69-1.49,4.04c-1.83,5.45-3.11,11.12-3.57,16.87c-0.45,5.75-0.23,11.54,0.67,17.24
		c0.89,5.71,2.62,11.25,4.82,16.53c0.59,1.3,1.09,2.65,1.77,3.91l1.97,3.8c1.46,2.44,2.88,4.92,4.55,7.19
		c1.57,2.37,3.38,4.52,5.13,6.73c1.88,2.08,3.69,4.23,5.71,6.16c3.91,4,8.18,7.55,12.57,10.89c8.84,6.58,18.36,12.09,28.31,16.5
		c9.94,4.45,20.24,7.97,30.73,10.56c10.49,2.61,21.16,4.4,31.88,5.43C239.07,350.01,249.84,350.24,260.58,349.76z M221.81,341.78
		c-2.39-0.35-4.78-0.64-7.16-1.05l1.7-9.79c2.54,0.43,5.1,0.75,7.66,1.11l-0.66,4.95l-2.3-0.32l0.39-2.72l-3.2-0.45l-0.92,5.66
		l4.82,0.68c1.61,0.21,3.23,0.36,4.84,0.55l1.36-12.13c-8.27-0.87-16.47-2.24-24.5-4.15l-3.03,11.85l2.36,0.57l2.38,0.49
		c1.59,0.32,3.16,0.68,4.76,0.96l1.1-5.49c-1.06-0.17-2.11-0.43-3.17-0.63l-0.59,2.68l-2.28-0.47l1.13-4.87
		c2.52,0.53,5.04,1.07,7.58,1.48l-1.81,9.63c-1.19-0.21-2.38-0.4-3.56-0.63l-3.54-0.74c-2.37-0.46-4.7-1.06-7.04-1.62
		c-4.68-1.15-9.31-2.54-13.9-4.03l3.35-9.38l3.66,1.16l1.83,0.58l1.85,0.52l-1.47,4.78c-0.74-0.21-1.49-0.41-2.23-0.63l0.84-2.62
		l-3.06-0.97l-1.87,5.44c3.08,1.02,6.21,1.86,9.33,2.74l3.32-11.78c-7.97-2.1-15.75-4.74-23.21-7.97l-5.16,11.14
		c1.47,0.68,2.98,1.24,4.48,1.85c1.5,0.6,3,1.21,4.53,1.73l2.05-5.23c-1.01-0.35-2.02-0.71-3.01-1.13l-1.06,2.55l-2.15-0.86
		l1.99-4.6l3.56,1.41l3.61,1.29l-3.45,9.21c-2.27-0.8-4.55-1.6-6.77-2.53l-3.36-1.35l-3.31-1.46c-4.42-1.94-8.7-4.18-12.92-6.51
		l5.21-8.56l3.33,1.8l1.67,0.9l1.71,0.84l-2.37,4.43l-2.07-1.02l1.34-2.42l-2.8-1.52l-2.92,4.98c2.82,1.59,5.74,2.98,8.65,4.4
		l5.49-10.99c-7.34-3.42-14.32-7.46-20.73-12.09l-7.57,9.77l1.95,1.42l2.02,1.33c1.36,0.87,2.66,1.81,4.07,2.61l3.11-4.72
		c-0.92-0.53-1.8-1.12-2.68-1.7l-1.58,2.28l-1.92-1.26l2.96-4.09l3.14,2.07c1.06,0.67,2.16,1.3,3.23,1.95l-5.29,8.35l-3.1-1.86
		l-3.02-1.99c-2.04-1.29-3.96-2.75-5.92-4.16c-0.99-0.69-1.91-1.47-2.86-2.23c-0.94-0.76-1.89-1.51-2.81-2.29l-2.7-2.42l-1.35-1.21
		l-1.29-1.28l7.31-6.98c0.44,0.43,0.86,0.87,1.31,1.29l1.38,1.23c0.93,0.81,1.81,1.67,2.78,2.44l-3.39,3.77
		c-0.61-0.46-1.15-1-1.72-1.5l1.91-2.03l-2.33-2.08l-4.13,4.12l3.6,3.23l3.76,3.05l7.95-9.49c-6.17-4.84-11.69-10.28-16.16-16.28
		l-10.29,7.09c0.97,1.28,1.99,2.52,2.98,3.78c1.01,1.25,2.13,2.41,3.19,3.62l4.32-3.73l-2.07-2.31l-2.18,1.75
		c-0.52-0.55-0.98-1.15-1.45-1.74l4.06-3.09c0.73,0.97,1.56,1.86,2.37,2.77c0.82,0.9,1.59,1.84,2.49,2.68l-7.39,6.7
		c-0.88-0.83-1.66-1.76-2.47-2.65c-0.8-0.91-1.64-1.78-2.39-2.73c-1.5-1.9-3.05-3.76-4.39-5.78c-1.44-1.95-2.65-4.06-3.91-6.13
		c-0.6-1.05-1.13-2.15-1.7-3.22l-0.83-1.62l-0.73-1.67l9.45-3.91l0.71,1.62l0.82,1.58c0.56,1.04,1.05,2.12,1.7,3.12l-4.5,2.45
		c-0.4-0.63-0.78-1.28-1.1-1.95l2.52-1.27l-1.4-2.69l-5.37,2.43c0.75,1.42,1.45,2.87,2.24,4.26c0.84,1.37,1.65,2.76,2.52,4.11
		l10.67-6.54c-1.95-3.13-3.83-6.3-5.15-9.64l-0.54-1.24c-0.16-0.42-0.3-0.84-0.45-1.27l-0.89-2.53l-0.69-2.58
		c-0.11-0.43-0.25-0.85-0.34-1.29l-0.25-1.31l-12.41,2.31c0.26,1.58,0.69,3.12,1.12,4.66c0.37,1.56,0.93,3.06,1.47,4.57l5.47-1.84
		c-0.32-0.95-0.69-1.89-0.98-2.85l-2.72,0.78l-0.58-2.15l5.01-1.24c0.55,2.27,1.38,4.48,2.2,6.67l-9.45,3.55
		c-1.75-4.52-3.16-9.19-3.93-13.99c-0.72-4.8-1.03-9.67-0.7-14.51l10.26,0.62l-0.13,3.48l0.13,3.48l-5.16,0.3l-0.08-2.22l2.84-0.06
		c-0.02-0.5-0.05-1-0.05-1.49l0.06-1.49l-5.93-0.16c-0.11,1.6-0.01,3.2,0.05,4.8c0.01,1.6,0.24,3.19,0.42,4.78l12.55-1.49l-0.3-2.63
		l-0.1-2.65c-0.07-0.88-0.02-1.77,0.02-2.65c0.05-0.88,0.02-1.77,0.13-2.65c0.22-1.75,0.35-3.52,0.75-5.25
		c0.27-1.75,0.81-3.45,1.25-5.17l-12.13-3.43c-0.4,1.55-0.88,3.08-1.21,4.64c-0.28,1.57-0.65,3.13-0.86,4.72l5.74,0.76
		c0.1-1,0.36-1.97,0.52-2.95l-2.79-0.51c0.15-0.73,0.26-1.46,0.44-2.18l5.04,1.11c-0.47,2.28-0.94,4.57-1.14,6.89l-10.09-0.98
		c0.44-4.83,1.58-9.59,3.13-14.18c1.5-4.62,3.65-9.01,6.09-13.2l8.94,4.9c-0.65,1-1.17,2.07-1.72,3.12
		c-0.55,1.05-1.11,2.09-1.54,3.19l-4.74-1.98c0.3-0.68,0.57-1.38,0.93-2.03l2.57,1.17l1.4-2.69l-5.25-2.68
		c-0.72,1.44-1.53,2.83-2.17,4.3c-0.62,1.48-1.33,2.92-1.86,4.44l11.87,4.19c1.32-3.34,2.84-6.64,4.82-9.76
		c0.9-1.6,2.03-3.09,3.08-4.63c0.51-0.78,1.15-1.48,1.72-2.22c0.6-0.73,1.13-1.49,1.78-2.19l-9.74-7.78
		c-1.06,1.21-2.02,2.5-3.03,3.75c-1.02,1.24-1.87,2.61-2.81,3.91l4.85,3.05l1.76-2.52l-2.32-1.59c0.42-0.62,0.93-1.19,1.38-1.79
		l4.13,3c-0.37,0.48-0.76,0.94-1.12,1.42l-1.03,1.48c-0.67,1-1.43,1.94-2.01,2.99l-8.66-5.1c2.62-4.07,5.51-7.98,8.8-11.53
		c1.57-1.84,3.34-3.5,5.04-5.22c0.85-0.86,1.79-1.63,2.68-2.45c0.91-0.79,1.77-1.65,2.73-2.38l6.74,7.5
		c-0.98,0.76-1.85,1.63-2.79,2.44c-0.92,0.82-1.85,1.63-2.7,2.52l-3.67-3.51c0.54-0.53,1.06-1.08,1.64-1.58l1.97,1.98l2.33-2.08
		l-3.98-4.25c-1.19,1.09-2.43,2.12-3.58,3.26l-3.42,3.42l9.34,8.23c5.27-5.54,11.42-10.48,18.08-14.82l-7.07-10.12
		c-1.33,0.9-2.72,1.73-4.01,2.7l-3.9,2.85l3.6,4.38l2.55-1.86l-1.71-2.19l1.85-1.35l3.02,4.05c-2,1.49-4.08,2.89-5.98,4.49
		l-6.47-7.54c3.74-3.06,7.74-5.76,11.79-8.38c4.12-2.51,8.31-4.92,12.65-7.03l4.71,8.83c-2.3,1.07-4.48,2.35-6.71,3.53l-2.61-4.3
		l2.02-1.1l1.4,2.39l2.8-1.52l-2.79-5.05c-2.85,1.54-5.71,3.05-8.45,4.76l6.71,10.34c6.85-4.14,14.16-7.67,21.77-10.63l-4.72-11.32
		l-4.5,1.8l-4.43,1.96l2.48,5.05l2.93-1.3l-1.16-2.5c0.71-0.3,1.4-0.64,2.12-0.92l2.05,4.58c-1.18,0.48-2.33,1.02-3.5,1.53
		c-1.16,0.52-2.34,1.01-3.46,1.59l-4.49-8.78c2.16-1.07,4.4-1.98,6.59-2.98c2.23-0.9,4.47-1.81,6.72-2.67
		c4.53-1.65,9.11-3.2,13.76-4.49l2.92,9.52c-2.49,0.65-4.9,1.5-7.35,2.25l-1.68-4.72l2.21-0.7l0.89,2.61l3.06-0.97l-1.75-5.47
		c-3.09,0.99-6.19,1.92-9.23,3.05l4.4,11.44c7.7-2.76,15.66-4.95,23.76-6.62l-2.63-11.94c-3.18,0.62-6.32,1.4-9.46,2.17l1.49,5.4
		l3.14-0.76l-0.68-2.66l2.26-0.55l1.18,4.86c-2.49,0.63-5.01,1.16-7.48,1.88l-2.74-9.43c2.31-0.68,4.68-1.17,7.01-1.76
		c2.34-0.56,4.71-1,7.07-1.51c2.37-0.45,4.75-0.84,7.12-1.26c2.39-0.33,4.77-0.69,7.16-1l1.31,9.85c-2.56,0.34-5.11,0.69-7.66,1.09
		l-0.85-4.92c0.76-0.14,1.53-0.24,2.3-0.35l0.44,2.71l3.2-0.45l-0.82-5.67l-4.82,0.68l-4.8,0.83l2.34,11.99
		c8.15-1.48,16.42-2.45,24.74-2.91l-0.73-12.19c-1.62,0.05-3.23,0.22-4.85,0.33c-1.61,0.13-3.23,0.22-4.84,0.42l0.6,5.56
		c1.07-0.13,2.15-0.22,3.22-0.3l-0.25-2.73l2.32-0.18l0.39,4.98l-3.87,0.3l-3.85,0.42l-1.16-9.73l3.59-0.39l3.6-0.29l3.6-0.28
		l3.61-0.17l3.61-0.16l3.61-0.06c2.41-0.07,4.82-0.03,7.23,0.02l-0.19,9.93l-3.88-0.06l-3.88,0.06l-0.09-4.99l2.33-0.04l0.02,2.74
		c1.08-0.03,2.16-0.02,3.24,0l0.05-5.73c-1.62-0.05-3.25,0-4.87,0.02c-1.62,0.04-3.25,0.02-4.87,0.11l0.46,12.2
		c8.33-0.29,16.68-0.09,24.97,0.6l1.1-12.16l-4.84-0.37l-4.85-0.22l-0.24,5.59l3.24,0.15l0.16-2.74c0.78,0.04,1.55,0.06,2.33,0.13
		l-0.35,4.98c-2.58-0.16-5.17-0.26-7.75-0.37l0.3-9.79l7.22,0.32l7.2,0.56c2.4,0.27,4.8,0.5,7.19,0.8c2.39,0.35,4.78,0.64,7.16,1.05
		l-1.7,9.79c-2.54-0.43-5.1-0.75-7.66-1.11l0.66-4.95l2.3,0.32l-0.39,2.72l3.2,0.45l0.92-5.66l-4.82-0.68
		c-1.61-0.21-3.23-0.36-4.84-0.55l-1.36,12.13c8.27,0.87,16.47,2.24,24.5,4.15l3.03-11.85l-2.36-0.57l-2.38-0.49
		c-1.59-0.32-3.16-0.68-4.76-0.96l-1.1,5.49c1.06,0.17,2.11,0.43,3.17,0.63l0.59-2.68l2.28,0.47l-1.13,4.87
		c-2.52-0.53-5.04-1.07-7.58-1.48l1.81-9.63c1.19,0.21,2.38,0.4,3.56,0.63l3.54,0.74c2.37,0.46,4.7,1.06,7.04,1.62
		c4.68,1.15,9.31,2.54,13.9,4.03l-3.35,9.38l-3.66-1.16l-1.83-0.58l-1.85-0.52l1.47-4.78c0.74,0.21,1.49,0.41,2.23,0.63l-0.84,2.62
		l3.06,0.97l1.87-5.44c-3.08-1.02-6.21-1.86-9.33-2.74l-3.32,11.78c7.97,2.1,15.75,4.74,23.21,7.97l5.16-11.14
		c-1.47-0.68-2.98-1.24-4.48-1.85c-1.5-0.6-3-1.21-4.53-1.73l-2.05,5.23c1.01,0.35,2.02,0.71,3.01,1.13l1.06-2.55l2.15,0.86
		l-1.99,4.6l-3.56-1.41l-3.61-1.29l3.45-9.21c2.27,0.8,4.55,1.6,6.77,2.53l3.36,1.35l3.31,1.46c4.42,1.94,8.7,4.18,12.92,6.51
		l-5.21,8.56l-3.33-1.8l-1.67-0.9l-1.71-0.84l2.37-4.43l2.07,1.02l-1.34,2.42l2.8,1.52l2.92-4.98c-2.82-1.59-5.74-2.98-8.65-4.4
		l-5.49,10.99c7.34,3.42,14.32,7.46,20.73,12.09l7.57-9.77l-1.95-1.42l-2.02-1.33c-1.36-0.87-2.66-1.81-4.07-2.61l-3.11,4.72
		c0.92,0.53,1.8,1.12,2.68,1.7l1.58-2.28l1.92,1.26l-2.96,4.09l-3.14-2.07c-1.06-0.67-2.16-1.3-3.23-1.95l5.29-8.35l3.1,1.86
		l3.02,1.99c2.04,1.29,3.96,2.75,5.92,4.16c0.99,0.69,1.91,1.47,2.86,2.23c0.94,0.76,1.89,1.51,2.81,2.29l2.7,2.42l1.35,1.21
		l1.29,1.28l-7.31,6.98c-0.44-0.43-0.86-0.87-1.31-1.29l-1.38-1.23c-0.93-0.81-1.81-1.67-2.78-2.44l3.39-3.77
		c0.61,0.46,1.15,1,1.72,1.5l-1.91,2.03l2.33,2.08l4.13-4.12l-3.6-3.23l-3.76-3.05l-7.95,9.49c6.17,4.84,11.69,10.28,16.16,16.28
		l10.29-7.09c-0.97-1.28-1.99-2.52-2.98-3.78c-1.01-1.25-2.13-2.41-3.19-3.62l-4.32,3.73l2.07,2.31l2.18-1.75
		c0.52,0.55,0.98,1.15,1.45,1.74l-4.06,3.09c-0.73-0.97-1.56-1.86-2.37-2.77c-0.82-0.9-1.59-1.84-2.49-2.68l7.39-6.7
		c0.88,0.83,1.66,1.76,2.47,2.65c0.8,0.91,1.64,1.78,2.39,2.73c1.5,1.9,3.05,3.76,4.39,5.78c1.44,1.95,2.65,4.06,3.91,6.13
		c0.6,1.05,1.13,2.15,1.7,3.22l0.83,1.62l0.73,1.67l-9.45,3.91l-0.71-1.62l-0.82-1.58c-0.56-1.04-1.05-2.12-1.7-3.12l4.5-2.45
		c0.4,0.63,0.78,1.28,1.1,1.95l-2.52,1.27l1.4,2.69l5.37-2.43c-0.75-1.42-1.45-2.87-2.24-4.26c-0.84-1.37-1.65-2.76-2.52-4.11
		l-10.67,6.54c1.95,3.13,3.83,6.3,5.15,9.64l0.54,1.24c0.16,0.42,0.3,0.84,0.45,1.27l0.89,2.53l0.69,2.58
		c0.11,0.43,0.25,0.85,0.34,1.29l0.25,1.31l12.41-2.31c-0.26-1.58-0.69-3.12-1.12-4.66c-0.37-1.56-0.93-3.06-1.47-4.57l-5.47,1.84
		c0.32,0.95,0.69,1.89,0.98,2.85l2.72-0.78l0.58,2.15l-5.01,1.24c-0.55-2.27-1.38-4.48-2.2-6.67l9.45-3.55
		c1.75,4.52,3.16,9.19,3.93,13.99c0.72,4.8,1.03,9.67,0.7,14.51l-10.26-0.62l0.13-3.48l-0.13-3.48l5.16-0.3l0.08,2.22l-2.84,0.06
		c0.02,0.5,0.05,1,0.05,1.49l-0.06,1.49l5.93,0.16c0.11-1.6,0.01-3.2-0.05-4.8c-0.01-1.6-0.24-3.19-0.42-4.78l-12.55,1.49l0.3,2.63
		l0.1,2.65c0.07,0.88,0.02,1.77-0.02,2.65c-0.05,0.88-0.02,1.77-0.13,2.65c-0.22,1.75-0.35,3.52-0.75,5.25
		c-0.27,1.75-0.81,3.45-1.25,5.17l12.13,3.43c0.4-1.55,0.88-3.08,1.21-4.64c0.28-1.57,0.65-3.13,0.86-4.72l-5.74-0.76
		c-0.1,1-0.36,1.97-0.52,2.95l2.79,0.51c-0.15,0.73-0.26,1.46-0.44,2.18l-5.04-1.11c0.47-2.28,0.94-4.57,1.14-6.89l10.09,0.98
		c-0.44,4.83-1.58,9.59-3.13,14.18c-1.5,4.62-3.65,9.01-6.09,13.2l-8.94-4.9c0.65-1,1.17-2.07,1.72-3.12
		c0.55-1.05,1.11-2.09,1.54-3.19l4.74,1.98c-0.3,0.68-0.57,1.38-0.93,2.03l-2.57-1.17l-1.4,2.7l5.25,2.68
		c0.72-1.44,1.53-2.83,2.17-4.3c0.62-1.48,1.33-2.92,1.86-4.44l-11.87-4.19c-1.32,3.34-2.84,6.64-4.82,9.76
		c-0.9,1.6-2.03,3.09-3.08,4.63c-0.51,0.78-1.15,1.48-1.72,2.22c-0.6,0.73-1.13,1.49-1.78,2.19l9.74,7.78
		c1.06-1.21,2.02-2.5,3.03-3.75c1.02-1.24,1.87-2.61,2.81-3.91l-4.85-3.05l-1.76,2.52l2.32,1.59c-0.42,0.62-0.93,1.19-1.38,1.79
		l-4.13-3c0.37-0.48,0.76-0.94,1.12-1.42l1.03-1.48c0.67-1,1.43-1.94,2.01-2.99l8.66,5.1c-2.62,4.07-5.51,7.98-8.8,11.53
		c-1.57,1.84-3.34,3.5-5.04,5.22c-0.85,0.86-1.79,1.63-2.68,2.45c-0.91,0.79-1.77,1.65-2.73,2.38l-6.74-7.5
		c0.98-0.76,1.85-1.63,2.79-2.44c0.92-0.82,1.85-1.63,2.69-2.52l3.67,3.51c-0.54,0.53-1.06,1.08-1.64,1.58l-1.97-1.98l-2.33,2.08
		l3.98,4.25c1.19-1.09,2.43-2.12,3.58-3.26l3.42-3.42l-9.34-8.23c-5.27,5.54-11.42,10.48-18.08,14.82l7.07,10.12
		c1.33-0.9,2.72-1.73,4.01-2.7l3.9-2.85l-3.6-4.38l-2.55,1.86l1.71,2.19l-1.85,1.35l-3.02-4.05c2-1.49,4.08-2.89,5.98-4.49
		l6.47,7.54c-3.74,3.06-7.74,5.76-11.79,8.38c-4.12,2.51-8.31,4.92-12.65,7.03l-4.71-8.83c2.3-1.07,4.48-2.35,6.71-3.53l2.61,4.3
		l-2.02,1.1l-1.4-2.39l-2.8,1.52l2.79,5.05c2.85-1.54,5.71-3.05,8.45-4.76l-6.71-10.34c-6.85,4.14-14.16,7.67-21.77,10.63
		l4.72,11.32l4.5-1.8l4.43-1.96l-2.48-5.05l-2.93,1.3l1.16,2.5c-0.71,0.3-1.4,0.64-2.12,0.92l-2.05-4.58
		c1.18-0.48,2.33-1.02,3.5-1.53c1.16-0.52,2.34-1.01,3.46-1.59l4.49,8.78c-2.16,1.07-4.4,1.98-6.59,2.98
		c-2.23,0.9-4.47,1.81-6.72,2.67c-4.53,1.65-9.11,3.2-13.76,4.49l-2.92-9.52c2.48-0.65,4.9-1.5,7.35-2.25l1.68,4.72l-2.21,0.7
		l-0.89-2.61l-3.06,0.97l1.75,5.47c3.09-0.99,6.19-1.92,9.23-3.05l-4.4-11.44c-7.7,2.76-15.66,4.95-23.76,6.62l2.63,11.94
		c3.18-0.62,6.32-1.4,9.46-2.17l-1.49-5.4l-3.14,0.76l0.68,2.66l-2.26,0.55l-1.18-4.86c2.49-0.63,5.01-1.16,7.48-1.88l2.74,9.43
		c-2.31,0.68-4.68,1.17-7.01,1.76c-2.34,0.56-4.71,1-7.07,1.51c-2.37,0.45-4.75,0.84-7.12,1.26c-2.39,0.33-4.77,0.69-7.16,1
		l-1.31-9.85c2.56-0.34,5.11-0.69,7.66-1.09l0.85,4.92c-0.76,0.14-1.53,0.24-2.3,0.35l-0.44-2.71l-3.2,0.45l0.82,5.67l4.82-0.68
		l4.8-0.83l-2.34-11.99c-8.15,1.48-16.42,2.45-24.74,2.91l0.73,12.19c1.62-0.05,3.23-0.22,4.85-0.33c1.61-0.13,3.23-0.22,4.84-0.42
		l-0.6-5.56c-1.07,0.13-2.15,0.22-3.22,0.3l0.25,2.73l-2.32,0.18l-0.39-4.98l3.87-0.3l3.85-0.42l1.16,9.73l-3.59,0.39l-3.6,0.29
		l-3.6,0.28l-3.61,0.17l-3.61,0.16l-3.61,0.06c-2.41,0.07-4.82,0.03-7.23-0.02l0.19-9.93l3.88,0.06l3.88-0.06l0.09,4.99l-2.33,0.04
		l-0.02-2.74c-1.08,0.03-2.16,0.02-3.24,0l-0.05,5.73c1.62,0.05,3.25,0,4.87-0.02c1.62-0.04,3.25-0.02,4.87-0.11l-0.46-12.2
		c-8.33,0.29-16.68,0.09-24.97-0.6l-1.1,12.16l4.84,0.37l4.85,0.22l0.24-5.59l-3.24-0.15l-0.16,2.74c-0.78-0.04-1.55-0.06-2.33-0.13
		l0.35-4.98c2.58,0.16,5.17,0.26,7.75,0.37l-0.3,9.79l-7.22-0.32l-7.2-0.56C226.6,342.31,224.2,342.08,221.81,341.78z"/>
	<g>
		<path class="st0" d="M253.4,308.3c0.26-1.54,0.1-3.14,0.12-4.72c0-0.33-0.02-0.66-0.04-1.06c0.92,0.03,1.77,0.15,2.6,0.05
			c1.06-0.13,2.15-0.3,3.11-0.72c0.59-0.26,1.2-0.95,1.34-1.56c0.08-0.36-0.69-0.99-1.18-1.37c-1.29-1.01-2.73-1.83-3.93-2.94
			c-1.8-1.66-2.16-2.88-2.1-5.57c1.62,0.97,3.17,1.97,4.78,2.86c7.57,4.18,15.94-2.25,16.63-8.31c0.47-4.14-1.07-7.45-4.29-9.96
			c-2.73-2.12-5.81-1.97-8.9-0.92c-2.1,0.71-3.28,2.36-3.83,4.44c-0.17,0.62-0.17,1.4,0.05,1.99c0.24,0.63,0.77,1.24,1.35,1.6
			c0.18,0.11,0.91-0.63,1.36-1.01c0.47-0.4,0.87-0.89,1.35-1.27c2.42-1.84,5.16-1.08,6.41,1.68c1.96,4.33-2.17,8.38-6.04,8.01
			c-3.81-0.36-7.69-3.43-8.57-6.79c-1.13-4.36,0.52-9.15,4.12-11.38c1.47-0.92,3.16-1.49,4.76-2.2c0.39-0.18,0.8-0.31,1.53-0.59
			c-4.98-3.28-8.7-7.28-10.54-12.76c-0.31-0.92-0.34-1.94-0.53-3.12c7.42,0.5,12.05,4.7,15.92,10.71c0.33-0.99,0.53-1.6,0.72-2.21
			c1.07-3.28,2.65-6.25,5.97-7.65c3.42-1.45,6.98-1.87,10.14,0.68c2.3,1.86,3.86,4.28,4.07,7.37c0.27,4.04-3.67,7.3-7.36,6.11
			c-3.44-1.11-4.39-4.32-2.08-7.1c0.46-0.56,1.08-0.99,1.65-1.46c0.58-0.47,0.61-1.05,0.02-1.4c-0.7-0.41-1.52-0.81-2.3-0.86
			c-2.12-0.12-4.39,1.55-5.27,3.66c-2.37,5.68,0.86,11.84,6.87,13.18c4.63,1.03,8.33-0.55,11.04-4.23c2.65-3.59,3.6-7.56,1.35-11.79
			c-0.9-1.69-1.89-3.32-2.96-5.18c1.79-0.2,3.4,0.1,4.56,1.33c1.46,1.55,2.78,3.26,4.01,5.01c0.89,1.26,1.78,1.46,2.5,0.08
			c0.58-1.11,0.82-2.44,1-3.7c0.11-0.75-0.17-1.55-0.3-2.48c1.58,0.05,2.7,0.13,3.81,0.11c1.71-0.04,3.41-0.2,4.87-1.23
			c1.58-1.12,1.59-2.26-0.02-3.32c-2.01-1.32-4.3-1.26-6.57-1.2c-0.5,0.01-1,0.1-1.76,0.18c0.01-0.8,0.11-1.52,0-2.2
			c-0.23-1.32-0.37-2.72-0.94-3.89c-0.72-1.47-1.68-1.33-2.61,0.02c-0.99,1.44-1.96,2.92-3.13,4.2c-1.48,1.63-2.8,2.03-5.35,2.01
			c0.18-0.38,0.31-0.7,0.49-1.01c0.85-1.47,1.76-2.91,2.56-4.41c2.99-5.62-0.89-13.74-6.91-15.64c-5.46-1.73-11.79,1.59-13.04,6.94
			c-0.44,1.91-0.3,3.84,0.36,5.69c0.79,2.22,2.5,3.45,4.67,4.08c1.3,0.38,2.42-0.14,3.66-1.63c-0.37-0.37-0.75-0.75-1.13-1.13
			c-0.36-0.36-0.76-0.68-1.1-1.06c-2.22-2.41-1.56-5.46,1.44-6.79c3.9-1.73,8.32,1.45,7.97,5.89c-0.37,4.7-4.26,9.91-10.79,9.04
			c-4.51-0.6-7.38-3.18-8.93-7.35c-0.37-1-0.69-2.02-1.13-3.34c-0.44,0.53-0.77,0.86-1.02,1.24c-2.36,3.59-5.43,6.35-9.37,8.13
			c-1.67,0.75-3.42,1.03-5.29,1.17c-0.31-1.58,0.13-2.87,0.6-4.12c1.63-4.34,4.69-7.56,8.26-10.35c0.4-0.31,0.82-0.6,1.22-0.93
			c0.12-0.1,0.2-0.26,0.46-0.62c-0.9-0.32-1.71-0.62-2.52-0.9c-3.3-1.13-6.03-2.97-7.24-6.4c-1.13-3.17-1.32-6.43,0.83-9.24
			c1.95-2.55,4.61-4.23,7.95-4.27c2.32-0.03,4.15,1.09,5.26,3.17c0.98,1.84,0.88,3.71-0.19,5.5c-1.37,2.3-4.05,2.76-6.1,1.02
			c-0.86-0.73-1.6-1.58-2.39-2.37c-1.47,0.75-2.09,1.87-1.72,3.44c0.59,2.49,2.07,4.28,4.61,4.96c5,1.33,9.15-0.53,11.36-5.01
			c2.26-4.58,1.18-9.81-2.74-12.87c-2.83-2.21-6.05-3.57-9.64-2.73c-1.98,0.47-3.8,1.67-5.66,2.61c-0.74,0.37-1.39,0.89-2.2,1.42
			c-0.4-2.5,0.5-4.28,2.22-5.7c1.61-1.32,3.27-2.57,5.14-4.02c-1.46-3.07-4.39-2.43-7.28-2.44c0.08-0.76,0.18-1.46,0.21-2.16
			c0.11-2.35,0.11-4.68-1.65-6.55c-1.46-1.54-2.36-1.55-3.86-0.07c-1.81,1.77-1.8,4.06-1.79,6.34c0,0.73,0.15,1.46,0.26,2.42
			c-0.63-0.02-1.16-0.06-1.69-0.06c-1.6-0.01-3.19,0.04-4.55,1.04c-1.3,0.96-1.21,1.61,0.1,2.54c1.64,1.18,3.24,2.42,4.76,3.75
			c1.4,1.22,1.62,2.9,1.5,4.88c-0.71-0.45-1.29-0.84-1.89-1.19c-1.02-0.61-2.05-1.2-3.08-1.8c-5.89-3.41-14.36,0.76-16.1,6.94
			c-1.28,4.55,0.66,9.78,4.82,11.98c3.06,1.62,6.22,1.48,9.25-0.26c1.41-0.81,2.16-2.15,2.59-3.65c0.45-1.57,0-2.89-1.42-4.01
			c-0.51,0.51-1.03,1-1.51,1.52c-2.01,2.15-4.13,2.66-5.97,1.43c-1.92-1.29-2.64-4.43-1.54-6.75c1.01-2.13,3.85-3.74,6.2-3.3
			c3.77,0.7,6.96,2.5,8.19,6.31c1.23,3.84,0.59,7.48-2.44,10.5c-1.45,1.44-3.1,2.44-5.02,3.05c-0.8,0.26-1.59,0.53-2.76,0.91
			c0.77,0.65,1.26,1.16,1.84,1.52c3.81,2.44,6.3,5.97,8.2,9.97c0.63,1.33,1.03,2.75,0.78,4.52c-7.27-0.44-11.81-4.79-15.63-10.63
			c-0.22,0.57-0.41,0.94-0.52,1.33c-0.61,2.14-1.48,4.13-2.9,5.9c-2.43,3.03-7.43,4.49-11.27,3.16c-3.31-1.15-6.29-5.33-6.25-8.98
			c0.02-2.45,1.1-4.38,3.38-5.46c2.1-1,4.09-0.74,5.86,0.78c1.8,1.53,1.99,3.75,0.47,5.58c-0.57,0.69-1.26,1.3-1.92,1.92
			c-0.66,0.64-0.59,1.29,0.2,1.62c0.85,0.35,1.85,0.73,2.71,0.6c2.35-0.36,4.1-1.74,4.8-4.05c1.54-5.12,0.31-9.17-4.77-11.87
			c-4.79-2.55-10.27-1.1-13.35,3.39c-0.82,1.2-1.49,2.55-1.97,3.92c-1.05,3.02-0.59,5.92,1.06,8.64c0.84,1.39,1.66,2.8,2.63,4.43
			c-5.34,0.03-7.18-3.91-9.41-7.59c-3.56,1.42-2.42,4.66-2.79,6.79c-1.59,0.13-3.05,0.25-4.51,0.37c-1.62,0.13-3.13,0.51-4.29,1.76
			c-0.84,0.91-0.95,1.56,0,2.3c0.86,0.67,1.94,1.28,2.99,1.43c1.88,0.27,3.81,0.18,5.89,0.24c-0.02,0.59-0.15,1.27-0.03,1.9
			c0.27,1.42,0.45,2.93,1.07,4.2c0.69,1.4,1.63,1.2,2.5-0.08c1.11-1.63,2.31-3.2,3.6-4.69c1.28-1.48,3.03-1.84,5.05-1.67
			c-0.92,1.49-1.77,2.86-2.62,4.24c-4,6.46-0.04,13.24,4.18,15.83c5.18,3.18,12.39,0.93,14.8-4.64c1.85-4.28-0.08-9.46-4.05-10.85
			c-1.88-0.66-3.21-0.2-4.19,1.54c0.44,0.38,0.9,0.77,1.35,1.18c2.3,2.05,2.74,4.55,1.14,6.42c-1.75,2.04-5.3,2.34-7.4,0.55
			c-1.96-1.68-2.79-3.79-2.23-6.38c0.84-3.91,3.92-7.15,7.43-7.78c4.26-0.76,8.68,1.08,10.85,4.73c0.86,1.44,1.32,3.11,1.97,4.67
			c0.14,0.34,0.31,0.67,0.59,1.27c3.83-5.73,8.32-10.13,15.78-10.56c-0.16,1.09-0.18,2.05-0.46,2.92
			c-1.44,4.51-4.18,8.12-7.91,10.99c-0.79,0.61-1.61,1.17-2.66,1.93c0.7,0.28,1.1,0.43,1.49,0.59c1.4,0.6,2.88,1.06,4.19,1.83
			c4.09,2.41,5.42,6.18,4.98,10.72c-0.43,4.41-5.74,7.96-9.44,7.83c-4.34-0.15-7.13-4.45-5.34-8.14c1.32-2.71,4.11-3.4,6.5-1.55
			c0.62,0.48,1.11,1.12,1.63,1.72c0.72,0.83,1.3,0.88,1.81-0.07c0.38-0.71,0.62-1.6,0.59-2.41c-0.07-2.09-2.03-4.37-4.02-5.03
			c-5.73-1.88-9.66,0.37-11.91,4.65c-2.54,4.84-1.13,10.18,3.32,13.42c4.06,2.95,8.31,3.37,12.73,0.87c1.41-0.8,2.76-1.7,4.22-2.59
			c0.29,3.27-1.52,5.3-3.76,7.07c-0.8,0.63-1.7,1.12-2.57,1.65c-1.33,0.81-1.42,1.77-0.02,2.49c1.07,0.55,2.34,0.79,3.54,1
			c0.81,0.14,1.68-0.02,2.2-0.04c0.11,1.61,0.08,3.2,0.36,4.73c0.25,1.35,0.63,2.79,1.38,3.92c1.09,1.64,2.71,1.71,4,0.24
			C252.64,310.58,253.21,309.4,253.4,308.3z"/>
		<path class="st0" d="M161.78,269.94c1.34,1.6,3.44,2.54,5.71,2.34c3.66-0.31,6.38-3.47,6.08-7.04c-0.31-3.58-3.54-6.33-7.19-5.91
			c-1.38,0.16-2.49,0.73-2.88,2.48c0.35-0.21,0.75-0.35,1.19-0.39c1.49-0.13,2.81,0.95,2.93,2.41c0.12,1.46-1.08,3.06-2.57,3.18
			c-1.19,0.1-2.27-0.18-3-0.56c-1.55-0.82-2.43-2.46-2.67-4.23c-0.28-2.08,0.32-4.35,1.78-5.73c1.53-1.45,3.55-2.88,5.82-2.63
			c1.95,0.22,3.81,1.27,5.62,2.62c-0.96-3.97-4.18-6.4-7.56-6.41c3.58,0.29,7.1-2.26,8.13-6.46c-1.82,1.35-3.68,2.4-5.63,2.61
			c-2.27,0.25-4.29-1.18-5.81-2.64c-1.45-1.38-2.05-3.65-1.77-5.73c0.24-1.78,1.13-3.41,2.68-4.23c0.73-0.38,1.81-0.66,3-0.56
			c1.49,0.13,2.69,1.73,2.57,3.19c-0.13,1.46-1.44,2.54-2.93,2.4c-0.44-0.04-0.84-0.18-1.19-0.39c0.39,1.76,1.5,2.32,2.88,2.49
			c3.64,0.44,6.88-2.32,7.2-5.89c0.31-3.58-2.4-6.73-6.06-7.05c-2.27-0.2-4.37,0.74-5.71,2.33c0.24-3.18,0.28-5.72-0.81-9.15
			c-3.52,2.98-4.58,6.79-4.93,8.49c-1.18-1.49-3-2.52-5.11-2.7c-3.93-0.34-7.37,2.38-7.7,6.08c-0.18,2.08,0.67,4.04,2.15,5.4
			c1.28,1.18,3.26,1.88,5.33,1c-1.68-0.15-2.78-2-2.63-3.65c0.14-1.64,1.63-2.86,3.31-2.71c2.79,0.24,4.06,3.29,3.95,3.2
			c0.57,1.66,0.39,4.54-0.74,5.97c-1.54,1.94-4.52,3.58-6.65,3.4c-3.14-0.27-5.01-1.61-6.1-3.55c-0.25,4.05,3.7,7.63,7.45,8.09
			c0.55-0.03,1.06-0.01,1.56,0.05c3.12-0.17,5.34-1.97,6.5-4.53c1.36,2.46,3.41,4.18,6.93,4.52c-0.15,0-0.29-0.06-0.44-0.05
			c-3.6,0.31-5.67,2.05-7.05,4.53c-1.08-2.4-3.11-4.12-5.94-4.47c-0.42,0.02-0.86,0.02-1.32-0.02c-0.08-0.01-0.16-0.02-0.24-0.03
			c-0.11,0.01-0.2,0-0.31,0c-3.82,0.33-7.95,3.98-7.7,8.11c1.09-1.94,2.97-3.27,6.1-3.54c2.13-0.18,5.12,1.46,6.65,3.41
			c1.13,1.44,1.3,4.32,0.73,5.97c0.11-0.09-1.17,2.95-3.95,3.19c-1.68,0.14-3.16-1.07-3.3-2.72c-0.14-1.65,0.95-3.5,2.64-3.64
			c-2.07-0.89-4.05-0.19-5.33,0.99c-1.48,1.37-2.33,3.31-2.15,5.4c0.32,3.7,3.76,6.43,7.69,6.09c2.11-0.18,3.93-1.21,5.11-2.69
			c0.35,1.7,1.41,5.51,4.92,8.5C162.06,275.65,162.02,273.11,161.78,269.94z"/>
		<path class="st0" d="M338.22,230.16c-1.34-1.6-3.44-2.54-5.71-2.34c-3.66,0.31-6.38,3.47-6.08,7.04c0.31,3.58,3.54,6.33,7.19,5.91
			c1.38-0.16,2.49-0.73,2.88-2.48c-0.35,0.21-0.75,0.35-1.19,0.39c-1.49,0.13-2.81-0.95-2.93-2.41c-0.12-1.46,1.08-3.06,2.57-3.18
			c1.19-0.1,2.27,0.18,3,0.56c1.55,0.82,2.43,2.46,2.67,4.23c0.28,2.08-0.32,4.35-1.78,5.73c-1.53,1.45-3.55,2.88-5.82,2.63
			c-1.95-0.22-3.81-1.27-5.62-2.62c0.96,3.97,4.18,6.4,7.56,6.41c-3.58-0.29-7.1,2.26-8.13,6.46c1.82-1.35,3.68-2.4,5.63-2.61
			c2.27-0.25,4.29,1.18,5.81,2.64c1.45,1.38,2.05,3.65,1.77,5.73c-0.24,1.78-1.13,3.41-2.68,4.23c-0.73,0.38-1.81,0.66-3,0.56
			c-1.49-0.13-2.69-1.73-2.57-3.19c0.13-1.46,1.44-2.54,2.93-2.4c0.44,0.04,0.84,0.18,1.19,0.39c-0.39-1.76-1.5-2.32-2.88-2.49
			c-3.64-0.44-6.88,2.32-7.2,5.89c-0.31,3.58,2.4,6.73,6.06,7.05c2.27,0.2,4.37-0.74,5.71-2.33c-0.24,3.18-0.28,5.72,0.81,9.15
			c3.52-2.98,4.58-6.79,4.93-8.49c1.18,1.49,3,2.52,5.11,2.7c3.93,0.34,7.37-2.38,7.7-6.08c0.18-2.08-0.67-4.04-2.15-5.4
			c-1.28-1.18-3.26-1.88-5.33-1c1.68,0.15,2.78,2,2.63,3.65c-0.14,1.64-1.63,2.86-3.31,2.71c-2.79-0.24-4.06-3.29-3.95-3.2
			c-0.57-1.66-0.39-4.54,0.74-5.97c1.54-1.94,4.52-3.58,6.65-3.4c3.14,0.27,5.01,1.61,6.1,3.55c0.25-4.05-3.7-7.63-7.45-8.09
			c-0.55,0.03-1.06,0.01-1.56-0.05c-3.12,0.17-5.34,1.97-6.5,4.53c-1.36-2.46-3.41-4.18-6.93-4.52c0.15,0,0.29,0.06,0.44,0.05
			c3.6-0.31,5.67-2.05,7.05-4.53c1.08,2.4,3.11,4.12,5.94,4.47c0.42-0.02,0.86-0.02,1.32,0.02c0.08,0.01,0.16,0.02,0.24,0.03
			c0.11-0.01,0.2,0,0.31,0c3.82-0.33,7.95-3.98,7.7-8.11c-1.09,1.94-2.97,3.27-6.1,3.54c-2.13,0.18-5.12-1.46-6.65-3.41
			c-1.13-1.44-1.3-4.32-0.73-5.97c-0.11,0.09,1.17-2.95,3.95-3.19c1.68-0.14,3.16,1.07,3.3,2.72c0.14,1.65-0.95,3.5-2.64,3.64
			c2.07,0.89,4.05,0.19,5.33-0.99c1.48-1.37,2.33-3.31,2.15-5.4c-0.32-3.7-3.76-6.43-7.69-6.09c-2.11,0.18-3.93,1.21-5.11,2.69
			c-0.35-1.7-1.41-5.51-4.92-8.5C337.94,224.44,337.98,226.98,338.22,230.16z"/>
	</g>
</g>
</svg>
