<?xml version="1.0" encoding="utf-8"?>
<!-- Generator: Adobe Illustrator 26.5.0, SVG Export Plug-In . SVG Version: 6.00 Build 0)  -->
<svg version="1.1" id="Layer_1" xmlns="http://www.w3.org/2000/svg" xmlns:xlink="http://www.w3.org/1999/xlink" x="0px" y="0px"
	 viewBox="0 0 500 500" style="enable-background:new 0 0 500 500;" xml:space="preserve">
<style type="text/css">
	.st0{fill:#131313;}
</style>
<g>
	<path class="st0" d="M243.53,156.25H143.51c-2.17,0-4.29,0.88-5.82,2.41l-29.02,29.01c-1.56,1.56-2.41,3.62-2.41,5.82v48.75
		c-2.36,0.88-4.56,2.47-6.25,5.36V193.5c0-3.85,1.53-7.52,4.24-10.24l29.02-29.02c2.71-2.72,6.39-4.24,10.24-4.24h103.04
		c-1.56,1.57-2.51,3.31-2.87,5.28C243.62,155.61,243.58,155.93,243.53,156.25z"/>
	<path class="st0" d="M133.27,345.76l-29.02-29.02c-2.72-2.72-4.24-6.4-4.24-10.24v-55.98c1.73,2.77,3.9,4.34,6.25,5.22v50.75
		c0,2.17,0.88,4.29,2.41,5.82l29.03,29.02c1.52,1.53,3.64,2.4,5.81,2.4h100.43c0.77,2.28,2.22,4.35,4.8,6.04l0.33,0.21H143.51
		C139.66,350,135.97,348.47,133.27,345.76z"/>
	<path class="st0" d="M256.27,343.75H356.5c2.2,0,4.26-0.86,5.82-2.41l29.02-29.02c1.53-1.53,2.41-3.65,2.41-5.82v-50.7
		c3.08-0.99,5.18-2.75,6.25-5.25v55.95c0,3.84-1.53,7.52-4.24,10.24l-29.02,29.02c-2.72,2.72-6.39,4.24-10.24,4.24H251.15l0.34-0.23
		C253.88,348.17,255.48,346.15,256.27,343.75z"/>
	<path class="st0" d="M393.75,242.18V193.5c0-2.2-0.86-4.26-2.41-5.82l-29.02-29.02c-1.56-1.56-3.62-2.41-5.82-2.41h-99.77
		c-0.41-2.28-1.33-4.42-3.1-6.25H356.5c3.85,0,7.52,1.53,10.24,4.24l29.02,29.02c2.72,2.72,4.24,6.39,4.24,10.24v53.88
		C398.66,244.93,396.54,243.18,393.75,242.18z"/>
	<path class="st0" d="M397.2,248.85c-1.78-3.56-5.38-4.87-9.04-5.1c-1.83-0.11-3.69-0.02-5.77-0.02c0.36-0.61,0.62-0.99,0.83-1.38
		c2.04-3.82,0.96-8.96-2.39-11.63c-1.31-1.05-2.71-1.41-4.59-0.79c2.41,3.69,2.07,7.3-0.2,10.71c-2.36,3.53-5.94,4.63-10.35,4.85
		c1.12-1.75,2.17-3.04,2.87-4.52c3.37-7.11,4.22-14.19-0.82-20.95c-1.15-1.54-2.66-2.82-4.06-4.17c-1.82-1.76-3.77-3.39-5.49-5.23
		c-2.16-2.29-3.85-4.9-4.44-8.09c-0.12-0.63-0.26-1.24-0.41-1.92c-4.43,2.67-5.01,4.9-3.02,11.59c-1.41,0.33-2.8,0.82-4.22,0.93
		c-4.67,0.35-8.86-0.65-12.14-4.36c-2.04-2.31-2.09-7.51,0.58-9.54c1.6-1.21,3.21-1.42,4.5-0.34c1.51,1.26,1.85,3.31,0.78,4.97
		c-0.44,0.7-0.99,1.32-1.49,1.98c1.71,1.68,3.62,1.56,5.36,0.97c1.97-0.68,3.07-2.38,3.47-4.39c1.31-6.54-4.42-12.51-11.05-11.6
		c-0.64,0.09-1.3,0.13-2.09,0.21c0.46-3.04,1.23-5.97-1.63-8.18c-2.6,0.76-4.51,2.21-5.53,5.04c-1.53-3.32-2.79-6.24-4.22-9.07
		c-1.52-3.01-3.79-5.42-6.58-7.31c-3.03-2.05-6.39-2.92-9.98-2.23c-5.34,1.01-10.68,2.12-15.98,3.36c-2.5,0.59-4.83,0.53-7.05-0.72
		c-1.77-0.99-3.45-2.14-5.16-3.22c-0.94,2.35-0.97,3.22,0.22,5.08c2.19,3.41,5.42,5.19,9.37,5.79c1.12,0.18,2.26,0.24,3.36,0.34
		c-0.07,1.62-0.34,2.99-0.16,4.3c0.79,6.01,4.8,10.09,10.92,11.37c4.26,0.89,7.71-0.48,10.34-3.85c2.9-3.7,1.83-9.24-2.1-11.37
		c-2.76-1.48-4.6-0.79-5.96,2.24c0.61,0.45,1.43,0.77,1.79,1.37c0.47,0.77,0.93,1.84,0.74,2.63c-0.54,2.27-3.62,3.45-5.71,2.38
		c-3.63-1.85-4.71-5.62-2.65-9.11c1.09-1.85,2.66-3.12,4.64-3.82c4.9-1.75,9.06-0.11,12.47,3.36c3.61,3.68,5.26,8.33,5.56,13.46
		c0.01,0.15-0.19,0.32-0.28,0.48c-5.82-0.02-7.96,1.28-9.36,5.88c0.63-0.08,1.17-0.21,1.71-0.19c1.44,0.06,2.92,0.01,4.3,0.34
		c2.13,0.53,3.87,1.88,5.2,3.59c1.49,1.91,2.85,3.93,4.16,5.97c3.39,5.28,7.73,9.21,14.12,10.42c0.23,0.04,0.41,0.34,0.56,0.46
		c-0.42,1.5-0.81,2.89-1.22,4.28c-1,3.4-0.33,6.56,1.53,9.48c3.75,5.87,11.77,6.25,16.11,0.81c1.74-2.18,1.77-5.19,0.09-7.28
		c-0.93-1.16-1.36-1.23-3.23-0.58c-0.04,0.19-0.13,0.37-0.11,0.55c0.31,2.36-0.26,3.5-2.21,4.45c-1.77,0.84-3.37,0.58-4.65-1.13
		c-0.72-0.95-1.28-2.22-1.41-3.4c-0.49-4.64,4.74-8.07,8.86-7.57c8.86,1.09,11.84,8.85,9.72,14.49c-2.04,5.4-5.47,9.38-11.44,10.56
		c-4.7,0.93-8.91-0.42-12.68-3.07c-5.77-4.04-9.05-9.79-10.75-16.51c-0.89-3.52-2.16-6.88-4.25-9.86
		c-6.92-9.86-16.29-14.46-28.39-12.9c-2.1,0.27-4.16,0.81-6.56,1.3c0.81-9.92-3.32-17.44-11.15-23.04
		c-8.17-5.84-16.77-4.72-25.43-1.01c-0.91-7.17,5.5-12.61,12.36-10.73c1.82,0.49,3.5,1.46,5.42,2.29c-0.24-3.63-1.21-6.83-4.52-8.65
		c-4.3-2.37-8.64-2.65-12.88,0.94c0.43-5.01,0.19-9.47-4.29-12.44c-2.02,1.42-3.5,3.12-3.92,5.42c-0.41,2.2-0.41,4.47-0.62,6.84
		c-3.9-3.29-7.98-3.09-12.11-1.05c-3.63,1.8-4.78,5.06-4.97,8.94c1.75-0.78,3.27-1.64,4.9-2.14c7.29-2.26,11.91,2.88,12.96,7.49
		c0.23,1.01,0.49,2.08-0.35,2.95c-1.6-0.58-3.03-1.17-4.5-1.62c-16.11-4.9-31.64,6.48-31.84,23.31c-0.01,0.81-0.13,1.62-0.21,2.57
		c-1.44-0.37-2.55-0.69-3.68-0.94c-8.75-1.9-16.85-0.52-24.05,4.97c-5.7,4.35-9.44,10.02-11.17,16.99
		c-0.76,3.03-1.82,5.95-3.44,8.63c-3.58,5.89-8.24,10.25-15.38,11.43c-9.63,1.6-16.43-7.26-16.75-13.73
		c-0.27-5.38,3.62-10.24,9.39-11.26c3.82-0.68,7.55,1.4,9.19,4.26c1.28,2.23,0.74,5.27-1.15,6.95c-1.53,1.36-2.77,1.51-4.53,0.56
		c-1.68-0.9-2.3-2.07-2.12-4.02c0.03-0.27,0.05-0.55,0.08-0.79c-1.84-0.69-2.36-0.59-3.3,0.55c-1.34,1.65-1.66,4.47-0.6,6.34
		c2.36,4.19,9.16,6.3,13.27,3.63c4.07-2.63,6.29-7.63,5.21-12.38c-0.38-1.68-0.91-3.32-1.36-4.94c0.16-0.13,0.22-0.22,0.31-0.25
		c0.36-0.11,0.74-0.2,1.11-0.3c4.52-1.09,8.18-3.58,11.02-7.21c1.25-1.6,2.34-3.35,3.4-5.09c1.38-2.26,2.95-4.36,5.1-5.95
		c2.28-1.68,4.79-2.57,7.67-1.86c0.44,0.11,0.91,0.08,1.5,0.13c-0.27-2.12-1.71-3.18-2.85-4.46c-1.9-2.14-4.52-1.08-6.91-1.52
		c0.12-4.15,1.46-7.74,3.47-11.13c1.76-2.96,4.32-4.99,7.55-6.13c3.83-1.34,7.49-0.74,10.27,2.12c3.91,3.99,3.46,7.63-1.01,10.73
		c-1.85,1.28-4.16,0.59-5.57-1.45c-1.08-1.56-0.66-2.78,1.48-4.29c0.23-0.16,0.47-0.31,0.7-0.46c-1.3-2.94-3.04-3.7-5.7-2.42
		c-2.03,0.99-3.35,2.53-3.83,4.84c-0.85,4.03,1.5,7.45,3.91,9.08c6.56,4.43,16.85-0.49,18.45-8.17c0.38-1.85,0.28-3.81,0.41-5.94
		c1.01-0.14,2.14-0.27,3.27-0.47c3.92-0.69,7.16-2.46,9.28-5.94c0.98-1.62,1.29-3.31,0.16-5.13c-1.1,0.83-2.02,1.54-2.97,2.21
		c-3.03,2.11-6.24,2.81-9.94,1.76c-4.11-1.17-8.33-1.92-12.51-2.87c-6.81-1.53-12.4,0.25-16.92,5.72c-2.35,2.85-3.71,6.14-5.19,9.41
		c-0.42,0.95-0.8,1.92-1.39,3.34c-1.16-3.02-2.97-4.57-5.85-5.31c-0.51,0.8-1.35,1.56-1.45,2.4c-0.22,1.86-0.07,3.77-0.07,5.82
		c-0.56-0.07-1.11-0.14-1.66-0.22c-5.68-0.86-12.45,3.59-11.38,11.33c0.31,2.2,1.52,3.9,3.54,4.65c1.82,0.68,3.78,0.71,5.25-0.85
		c-0.71-1.26-1.45-2.29-1.89-3.43c-0.55-1.39,0.24-2.88,1.79-3.89c1.09-0.7,2.36-0.61,3.51,0.25c3,2.23,3.56,6.59,1.19,9.64
		c-3.06,3.95-7.36,4.91-12.01,4.56c-1.44-0.11-3.17,0.11-4.29-1.3c0.15-2.16,1.53-4.05,0.87-6.31c-0.66-2.24-1.88-3.84-4.23-4.94
		c-0.37,3.94-1.86,7.08-4.33,9.68c-1.88,1.97-3.85,3.85-5.93,5.6c-3.68,3.12-6.61,6.73-7.25,11.62c-0.73,5.58,0.37,10.86,3.64,15.56
		c0.49,0.71,0.99,1.4,1.78,2.52c-3.98-0.07-7.09-1.11-9.52-3.73c-3.33-3.61-3.56-7.7-1.2-12.09c-3.1-0.5-5.05,0.9-6.39,3.04
		c-2.22,3.56-2.14,7.27,0.18,10.98c-5.66,0.07-11.47-0.69-14.88,5.37c3.5,5.77,9.14,5.27,15.14,5.27c-2.06,2.35-2.1,4.78-1.83,7.23
		c0.28,2.67,1.6,4.79,3.92,6.17c1.15,0.69,2.42,1.05,3.84,0.28c-2.52-4.16-1.88-7.97,0.93-11.47c2.28-2.86,6.5-4.33,9.41-3.47
		c-0.72,1.04-1.49,2.05-2.14,3.12c-3.38,5.58-5.13,15.3,0.65,22.22c1.11,1.33,2.46,2.48,3.76,3.64c4.7,4.23,9.58,8.34,10.32,15.37
		c1.81-0.79,2.95-1.94,3.69-3.48c1.31-2.7,0.14-5.26-0.6-7.92c2.54-1.24,5.15-1.4,7.77-1.13c3.62,0.38,6.77,1.82,8.93,4.88
		c2.24,3.18,1.37,7.75-1.71,9.53c-1.56,0.9-2.71,0.76-3.95-0.47c-1.43-1.4-1.63-2.98-0.53-4.72c0.44-0.69,0.98-1.31,1.47-1.94
		c-3.56-3-8.03-0.64-8.83,3.43c-1.1,5.58,2.75,10.8,8.46,11.47c1.52,0.17,3.06,0.03,4.66,0.03c-0.5,2.96-1.13,5.86,1.62,8.1
		c2.76-0.71,4.37-2.58,5.63-5.23c0.71,1.7,1.31,3.13,1.89,4.57c1.7,4.2,3.95,8,7.51,10.94c2.01,1.66,4.22,2.73,6.76,3.2
		c2.35,0.42,4.67,0.17,6.95-0.3c4.58-0.93,9.12-1.98,13.66-3.04c2.47-0.57,4.83-0.56,7.06,0.79c1.72,1.06,3.41,2.15,5.18,3.26
		c1.17-2.34,0.54-4.44-1-6.21c-2.22-2.56-4.95-4.37-8.47-4.71c-1.23-0.12-2.43-0.34-3.56-0.51c-0.05-0.43-0.09-0.53-0.07-0.62
		c1.36-8.34-4.35-13.56-10.35-14.89c-4.02-0.89-7.57,0.09-10.3,3.25c-3.28,3.79-2.59,9.25,1.36,11.73c2.76,1.73,4.78,1.11,6.35-2.06
		c-0.38-0.23-0.8-0.43-1.16-0.71c-2.15-1.62-2.11-3.61,0.06-5.24c1.01-0.76,2.1-0.99,3.3-0.73c3.27,0.71,5.44,4.85,4.3,8.02
		c-1.78,4.95-7.94,6.74-11.52,5.61c-4.37-1.37-7.45-4.14-9.42-8.16c-1.45-2.95-2.58-6.02-2.42-9.41c6.41-0.29,8.17-1.38,9.6-5.89
		c-0.51,0-0.99-0.09-1.42,0.01c-3.49,0.81-6.43-0.38-8.76-2.82c-1.79-1.88-3.3-4.07-4.71-6.28c-3.47-5.43-7.67-9.8-14.33-11.07
		c-0.33-0.06-0.61-0.4-0.93-0.62c0.35-0.94,0.7-1.74,0.95-2.57c1.14-3.68,1.27-7.28-0.92-10.67c-4.07-6.33-10.06-6.52-15.21-2.44
		c-2.7,2.14-3.22,5.43-1.53,8.07c0.98,1.52,1.5,1.66,3.7,0.93c-0.09-0.36-0.21-0.72-0.26-1.09c-0.21-1.68,0.71-2.79,2-3.6
		c1.22-0.77,2.57-1.02,3.85-0.16c1.52,1.02,2.53,2.39,2.66,4.3c0.24,3.47-2.61,6.69-6.48,7.44c-6.24,1.22-13.33-3.84-12.73-11.57
		c0.46-5.93,6.15-11.99,11.08-13.04c6.31-1.37,11.53,0.68,16.05,4.86c4.42,4.07,6.96,9.26,8.43,15.05
		c3.97,15.53,19.49,26.63,37.3,21.33c0.5-0.15,1.05-0.14,1.83-0.24c-0.8,9.96,3.32,17.38,11.07,22.92
		c8.18,5.84,16.79,4.73,25.45,1.06c0.56,3.81-0.8,7-3.99,9.27c-4.7,3.34-9.17,1.63-13.84-1.06c0.28,3.62,1.14,6.62,4.12,8.53
		c4.4,2.8,8.84,2.84,13.41-0.55c-0.52,5.03-0.26,9.39,4.2,12.3c2.39-1.6,3.85-3.7,4.15-6.46c0.21-1.84,0.21-3.71,0.32-5.8
		c4.1,3.39,8.29,3.17,12.45,0.95c3.44-1.83,4.5-5.07,4.72-8.87c-6.77,3.59-10.83,3.66-14.46,0.37c-3.12-2.84-4.15-5.77-2.99-8.66
		c0.71,0.32,1.38,0.68,2.11,0.94c8.47,3.1,16.62,3.09,24.02-2.75c6.43-5.08,10.41-11.49,10.12-20.02c-0.02-0.71,0.13-1.45,0.22-2.31
		c0.73,0.15,1.21,0.21,1.66,0.34c3.96,1.23,7.96,1.56,12.1,1.12c8.03-0.86,14.3-4.72,19.33-10.83c3.3-3.99,5.02-8.7,6.39-13.63
		c1.9-6.82,5.61-12.47,11.88-15.97c8.73-4.89,17.49-2.24,21.92,7c2.36,4.95,1.23,9.82-2.64,13.28c-3.65,3.28-10.65,3.8-14.13-0.71
		c-2.02-2.63-1.66-6.48,0.89-8.32c1.2-0.86,2.47-1.07,3.85-0.4c1.5,0.74,2.5,1.85,2.55,3.59c0.02,0.52-0.15,1.05-0.23,1.57
		c1.31,0.55,2.28,0.46,3.12-0.47c1.46-1.6,1.8-4.3,0.87-6.3c-2.06-4.41-10.03-7.39-14.75-2.85c-3.45,3.32-4.91,7.15-3.67,11.87
		c0.39,1.46,0.82,2.92,1.24,4.45c-0.49,0.19-0.84,0.36-1.2,0.44c-3.74,0.78-6.84,2.63-9.53,5.33c-2.09,2.09-3.75,4.47-5.19,7.02
		c-1.36,2.41-3.08,4.52-5.34,6.11c-2.14,1.53-4.48,2.3-7.15,1.69c-0.53-0.12-1.1-0.02-2.17-0.02c0.96,1.42,1.62,2.58,2.48,3.58
		c0.94,1.11,2.07,2.09,3.67,2.16c1.31,0.05,2.63,0.05,4.02,0.07c-0.3,5.12-1.9,9.42-4.91,13.18c-1.56,1.95-3.59,3.3-5.93,4.11
		c-4.39,1.54-8.52,0.39-11.32-3.04c-2.81-3.45-1.97-7.75,1.94-9.9c1.9-1.04,4.35-0.31,5.58,1.66c0.99,1.58,0.5,2.76-1.72,4.17
		c-0.24,0.15-0.49,0.28-0.6,0.34c0.31,1.57,1.08,2.58,2.26,2.76c1.18,0.19,2.58,0.11,3.65-0.35c1.95-0.86,3.18-2.52,3.64-4.66
		c0.78-3.66-1.02-7.42-4.35-9.42c-6.28-3.77-16.25,0.6-17.97,8.43c-0.41,1.84-0.31,3.8-0.46,5.94c-0.89,0.15-2.01,0.43-3.15,0.53
		c-3.41,0.27-6.09,1.99-8.32,4.4c-1.73,1.86-2.53,4.04-1.25,6.7c0.99-0.75,1.83-1.39,2.69-2.02c3.25-2.4,6.7-2.99,10.73-1.94
		c5.16,1.35,10.43,2.32,15.71,3.14c3.93,0.62,7.44-0.71,10.49-3.33c3.49-3.01,5.82-6.76,7.46-11.01c0.55-1.43,1.16-2.83,1.85-4.51
		c1.21,2.85,2.9,4.65,5.64,5.28c2.72-2.31,2.09-5.24,1.63-8.19c1.22,0.08,2.18,0.17,3.14,0.2c5.93,0.25,10.95-4.98,10.03-11.26
		c-0.68-4.59-5.03-6.46-8.87-3.64c0.52,0.68,1.11,1.32,1.54,2.05c1.06,1.8,0.65,3.51-1.06,4.86c-1.31,1.02-2.69,0.91-4.23-0.35
		c-2.38-1.96-2.95-6.01-1.18-8.8c2.04-3.22,5.23-4.59,8.8-5.1c2.77-0.39,5.56-0.26,8.1,1.18c-2.07,6.33-1.15,9.49,3.18,11.02
		c0.35-3.52,1.74-6.61,4.15-9.13c2.09-2.18,4.25-4.3,6.54-6.24c4.92-4.19,7.6-9.27,6.92-15.87c-0.41-3.94-1.43-7.65-3.78-10.9
		c-0.5-0.68-0.96-1.39-1.61-2.36c4.15-0.14,7.42,1.14,9.83,4.09c2.87,3.52,2.74,7.43,0.86,11.44c3.19,0.82,5.06-0.93,6.39-3.15
		c2.08-3.45,1.91-7.02-0.34-10.67c1.08,0,2.04,0.07,2.98-0.01c2.03-0.19,4.11-0.22,6.06-0.73
		C394.1,252.96,396.36,251.64,397.2,248.85z M289.97,286.82c2.86-2.96,5.38-6.25,7.51-9.79c5.64,4.8,13.23,4.2,18.14-1.3
		c4.22-4.72,1.68-12.66-2.32-15.27c-2.16-1.4-5.71-1.12-7.7,0.55c-1.13,0.96-1.33,1.91-0.82,4.38c0.71,0,1.47-0.06,2.22,0.02
		c1.5,0.16,2.51,1.03,3.04,2.4c0.57,1.44,0.07,2.67-0.95,3.73c-2.26,2.36-6.2,2.05-8.52-0.42c2.38-5.31,3.96-11.05,4.56-17.08
		c1.8-0.69,3.85-0.88,6.09-0.56c5.23,0.76,9.99,4.45,11.89,11.76c2.36,9.11-3.1,17.15-9.38,21.2
		C307.42,290.52,297.14,290.5,289.97,286.82z M300.42,248.5c0,12.1-4.27,23.2-11.39,31.89c-1.01,1.24-2.08,2.43-3.2,3.56
		c-1.37,1.38-2.81,2.68-4.33,3.9c-2.11,1.68-4.36,3.21-6.72,4.54c-2.13,1.21-4.36,2.26-6.67,3.14c-4.74,1.83-9.83,2.95-15.14,3.25
		c-0.97,0.06-1.95,0.09-2.93,0.09c-0.98,0-1.96-0.03-2.92-0.09c-5.27-0.3-10.33-1.41-15.04-3.21c-2.31-0.88-4.54-1.92-6.68-3.13
		c-2.38-1.33-4.64-2.86-6.76-4.55c-1.53-1.22-2.99-2.53-4.37-3.92c-1.11-1.12-2.17-2.28-3.18-3.51c-4.18-5.09-7.39-11.02-9.32-17.5
		c-0.29-0.95-0.56-1.92-0.78-2.9c-0.88-3.71-1.34-7.59-1.34-11.57c0-3.33,0.33-6.6,0.94-9.75c0.35-1.81,0.8-3.58,1.35-5.31
		c1.91-6.13,4.97-11.75,8.92-16.62c0.91-1.13,1.87-2.21,2.88-3.25c1.42-1.48,2.93-2.87,4.52-4.17c2.14-1.75,4.44-3.32,6.85-4.69
		c2.14-1.23,4.39-2.29,6.72-3.19c4.87-1.89,10.11-3.04,15.58-3.32c0.86-0.04,1.74-0.06,2.61-0.06c0.93,0,1.84,0.03,2.75,0.07
		c5.45,0.3,10.68,1.46,15.53,3.35c2.33,0.9,4.58,1.98,6.72,3.21c2.42,1.38,4.71,2.96,6.86,4.72c1.58,1.29,3.07,2.67,4.49,4.15
		c1.01,1.06,1.98,2.16,2.89,3.31c4.04,5,7.13,10.8,9.01,17.1c0.43,1.43,0.8,2.88,1.1,4.37C300.06,241.66,300.42,245.05,300.42,248.5
		z M260.24,314.18c-4.42-1.54-7.2-5.85-7.69-10.36c1.91-0.08,3.79-0.26,5.64-0.54c0.03,0.34,0.09,0.72,0.18,1.14
		c0.44,2.09,2.41,3.99,4.65,4.32c5.32,0.79,9.04-1.05,11.36-6.09c0.78-1.68,1.19-3.4,1.27-5.06c2.8-1.46,5.45-3.15,7.94-5.05
		c1.93,6.76-0.16,14.29-6.2,19.09C272.23,315.71,266.26,316.28,260.24,314.18z M216.6,292.6c2.5,1.91,5.16,3.6,7.96,5.05
		c0.04,3.98,1.79,7.38,5.36,9.87c2.5,1.74,5.37,1.77,8.13,0.94c2.28-0.7,3.68-2.44,3.88-4.98c0.01-0.06,0.01-0.12,0.01-0.19
		c1.86,0.27,3.75,0.46,5.65,0.54c-0.63,6-5.48,11.17-11.97,11.34c-4.18,0.11-8.18-0.27-11.72-2.73
		C217.36,307.89,214.42,300.17,216.6,292.6z M180.45,258.34c3.37-4.37,8.14-5.92,13.56-4.59c0.32,0.08,0.64,0.18,0.93,0.29
		c0.61,6.05,2.19,11.81,4.58,17.14c-0.51,0.52-1.13,0.97-1.88,1.34c-2.52,1.24-5.64,0.56-7.06-1.57c-1.48-2.25-0.19-5.19,2.47-5.52
		c0.76-0.1,1.53-0.02,2.26-0.02c0.81-2.95,0.11-4.44-2.44-5.3c-3.72-1.25-6.55-0.36-8.47,3.03c-0.94,1.65-1.63,3.55-1.95,5.43
		c-0.5,2.93,0.5,5.49,2.61,7.71c4.19,4.43,10.37,4.88,14.76,2.78c1-0.48,1.89-1.16,2.87-1.86c2.13,3.48,4.62,6.72,7.43,9.65
		c-4.26,2.28-8.96,2.78-13.93,2.66c-6.76-0.15-15.97-5.57-18.79-14.4C175.44,268.93,176.65,263.28,180.45,258.34z M171.28,237.97
		c1.37,2.18,2.43,4.3,3.91,6.09c1.46,1.77,3.34,3.19,5.11,4.82c-1.62,1.57-3.48,3.08-4.97,4.9c-1.52,1.85-2.65,4-4.07,6.2
		c-2.42-4.4-5.98-7.88-10.28-10.98C165.19,245.9,168.76,242.53,171.28,237.97z M201.3,208.54c2.99,0.29,5.68,1.11,8.16,2.34
		c-2.73,2.93-5.12,6.16-7.16,9.62c-0.14-0.11-0.28-0.21-0.42-0.32c-5.49-4.06-13.57-3.39-18.2,3.32c-2.69,3.9-0.98,11.24,2.99,13.92
		c2.19,1.47,6.03,1.26,7.96-0.44c1.01-0.89,1.2-1.69,0.94-4.19c-0.71-0.05-1.45-0.13-2.19-0.16c-1.69-0.05-2.65-1.02-3.25-2.5
		c-0.59-1.5,0.04-2.65,1.02-3.69c2.24-2.39,5.82-1.99,8.1,0.04c-2.39,5.49-3.91,11.43-4.4,17.66c-1.68,0.61-3.56,0.73-5.61,0.39
		c-6.44-1.08-10.54-5.21-12.18-11.74c-2.32-9.17,3.22-17.85,10.18-21.61C191.63,208.81,196.28,208.05,201.3,208.54z M235.39,182.92
		c5.12,0,8.73,2.58,10.96,6.97c0.56,1.1,0.94,2.2,1.16,3.31c-1.91,0.08-3.81,0.26-5.67,0.55c-0.22-1.28-0.98-2.52-2.28-3.43
		c-2.65-1.86-7.26-1.56-9.91,0.32c-2.87,2.04-4.58,5.25-4.98,8.67c-2.91,1.5-5.67,3.25-8.25,5.24c-0.21-0.89-0.37-1.81-0.47-2.76
		c-0.79-7.91,5.37-18.31,15.92-18.84C233.05,182.88,234.22,182.92,235.39,182.92z M283.81,204.65c-2.58-2-5.35-3.77-8.28-5.29
		c-0.39-3.4-2.05-6.62-5.03-8.72c-2.58-1.83-5.43-2.03-8.35-1.12c-2.02,0.63-3.4,2.27-3.81,4.23c-1.85-0.27-3.74-0.47-5.64-0.56
		c1.14-5.49,5.77-10.39,12.46-10.35c4.41,0.03,8.49,0.64,12.09,3.4C282.82,190.52,285.39,197.92,283.81,204.65z M321.68,236.76
		c-3.17,6.84-10.66,8.85-15.21,7.64c-0.42-0.11-0.84-0.26-1.23-0.41c-0.49-6.13-1.99-11.98-4.33-17.38
		c0.11-0.11,0.24-0.21,0.36-0.31c2.28-1.79,5.43-1.99,7.5-0.12c1.14,1.03,1.9,2.25,1.31,3.87c-0.58,1.61-1.63,2.63-3.47,2.58
		c-0.57-0.02-1.15-0.01-1.7-0.01c-0.91,2.83-0.36,4.12,2.09,5.15c3.4,1.43,6.32,0.63,8.48-2.35c1.83-2.55,2.65-5.42,2.27-8.55
		c-0.55-4.58-5.51-8.13-9.09-8.85c-3.95-0.8-7.51-0.09-10.69,2.44c-0.04,0.04-0.09,0.07-0.13,0.11c-2.05-3.5-4.47-6.76-7.21-9.71
		c4.23-2.14,8.9-2.8,13.93-2.31c5.42,0.52,9.92,2.8,13.55,6.68C324.05,221.6,325.28,228.97,321.68,236.76z M339.22,249.03
		c-4.37,3.02-7.87,6.55-10.53,11.27c-1.92-4.85-4.86-8.58-9.28-11.34c4.23-2.85,7.38-6.19,9.21-11.11
		C331.43,242.43,334.93,245.9,339.22,249.03z"/>
	<path class="st0" d="M294.17,249.69c0.63-0.71,0.73-1.49,0.44-2.33c-0.72-2.11-3.54-3.3-5.65-2.47c-0.48,0.19-1.21,0.29-1.6,0.06
		c-0.66-0.4-0.38-1.13-0.11-1.74c0.13-0.29,0.28-0.58,0.38-0.89c0.64-2.01,0.81-4.03,0.01-6.05c-1.11-2.81-3.2-4.61-6.14-4.97
		c-2.95-0.36-5.62,0.53-7.47,3.09c-1.55,2.15-1.47,4.9,0.17,6.58c0.78,0.81,1.67,1.01,2.63,0.61c0.99-0.4,1.31-1.16,1.19-2.17
		c-0.03-0.25-0.06-0.51-0.05-0.77c0.05-1.07,0.73-2,1.58-2.16c0.89-0.17,2.1,0.55,2.49,1.47c0.89,2.13,0,5.1-2.04,6.32
		c-0.87,0.52-1.86,0.91-2.85,1.13c-3.34,0.72-6.47-0.95-7.87-4.06c-1.42-3.15-1.25-6.11,0.91-8.89c0.36-0.46,0.69-0.93,1.06-1.37
		c3.35-4.04,8.51-5.14,13.24-2.82c0.75,0.37,1.45,0.83,2.17,1.26c0.62,0.38,1.33,0.45,1.76-0.09c0.35-0.44,0.56-1.14,0.52-1.7
		c-0.04-0.53-0.4-1.08-0.76-1.52c-1.7-2.1-3.76-3.67-6.44-4.35c-0.46-0.12-0.88-0.36-1.37-0.57c0.41-0.7,0.8-1.22,1.05-1.8
		c0.41-0.98,0.08-2.26-0.65-2.83c-0.79-0.61-1.62-0.59-2.68,0.08c-0.47,0.3-0.91,0.64-1.5,1.06c-0.31-0.65-0.55-1.15-0.78-1.66
		c-0.41-0.87-0.74-1.79-1.23-2.61c-1.05-1.73-2.45-3.13-4.29-4.04c-0.73-0.36-1.4-0.2-1.94,0.36c-0.56,0.59-0.56,1.26-0.13,1.94
		c0.31,0.49,0.61,0.98,0.9,1.48c2.28,3.92,2.28,7.83-0.2,11.65c-1.25,1.91-2.89,3.47-4.99,4.43c-3.09,1.42-6.07,0.91-8.79-0.93
		c-2.5-1.69-2.84-4.31-2.53-7.06c0.33-2.98,2.46-4.98,5.39-5.02c0.73-0.01,1.53,0.23,2.17,0.59c0.74,0.42,1.22,1.14,0.95,2.11
		c-0.28,0.98-0.89,1.52-1.93,1.6c-0.32,0.02-0.64-0.07-0.96-0.09c-0.93-0.04-1.62,0.37-2.05,1.18c-0.41,0.77-0.22,1.49,0.23,2.18
		c0.88,1.4,2.19,2,3.77,1.79c5.12-0.7,7.15-5.55,6.1-9.83c-1.18-4.81-5.52-7.03-10.18-5.36c-0.79,0.28-1.53,0.71-2.33,0.92
		c-0.34,0.09-0.89-0.15-1.15-0.42c-0.18-0.19-0.12-0.7-0.05-1.04c0.13-0.67,0.54-1.34,0.49-1.98c-0.13-1.63-1.08-2.86-2.36-3.83
		c-0.76-0.58-1.64-0.62-2.31,0c-0.83,0.77-1.58,1.66-2.23,2.59c-0.55,0.79-0.49,1.72,0,2.56c0.36,0.62,0.91,1.36,0.2,1.87
		c-0.45,0.32-1.29,0.11-1.96,0.09c-0.25-0.01-0.5-0.13-0.74-0.22c-1.95-0.75-3.88-0.66-5.85-0.01c-3.33,1.1-5.26,3.83-5.08,7.32
		c0.2,3.88,2.39,6.68,5.85,7.44c1.65,0.36,3.07-0.09,4.17-1.37c0.69-0.8,0.76-1.76,0.38-2.73c-0.38-0.97-1.23-1-2.1-0.95
		c-0.26,0.02-0.52,0.02-0.77,0c-1.22-0.08-1.9-0.62-2.06-1.63c-0.18-1.16,0.42-2.21,1.55-2.54c1.84-0.54,3.65-0.29,5.1,0.95
		c3.37,2.87,2.73,9.07-0.47,11.03c-3.5,2.14-6.93,2.58-10.39-0.06c-0.66-0.51-1.33-1.02-1.94-1.59c-2.98-2.77-4.16-6.17-3.15-10.13
		c0.41-1.58,1.26-3.07,2.02-4.54c0.4-0.78,0.54-1.46-0.09-2.11c-0.6-0.62-1.34-0.74-2.11-0.3c-0.33,0.19-0.66,0.39-0.97,0.63
		c-2.16,1.66-3.63,3.78-4.37,6.42c-0.13,0.45-0.4,0.87-0.64,1.37c-0.66-0.38-1.14-0.7-1.66-0.95c-1-0.48-2.16-0.25-2.82,0.51
		c-0.68,0.78-0.74,1.67-0.12,2.68c0.32,0.53,0.71,1.02,1.17,1.66c-0.68,0.28-1.21,0.51-1.74,0.71c-2.41,0.92-4.4,2.39-5.94,4.46
		c-0.91,1.22-1.03,2.19-0.35,2.97c0.67,0.77,1.21,0.75,2.69-0.21c1.92-1.25,3.95-2.16,6.29-2.17c3.9-0.01,6.83,1.85,9.27,4.75
		c2.75,3.27,2.71,7.33,0.54,10.75c-1.75,2.77-5.01,3.61-8.58,2.37c-2.39-0.83-3.96-3.32-3.24-6.44c0.4-1.75,2.13-2.34,3.42-1.34
		c0.74,0.57,0.62,1.35,0.63,2.12c0.03,1.32,0.5,2.06,1.5,2.39c1.07,0.35,2.15-0.02,2.88-1.04c0.85-1.19,0.96-2.5,0.56-3.87
		c-1.22-4.18-5.36-6.19-9.29-5.24c-4.93,1.19-7.58,5.2-5.56,10.7c0.2,0.54,0.5,1.06,0.6,1.62c0.06,0.39-0.02,0.96-0.28,1.2
		c-0.24,0.22-0.84,0.22-1.19,0.09c-2.13-0.79-4.47-0.11-5.75,1.72c-0.43,0.62-0.6,1.26-0.33,2c0.85,2.3,3.51,3.41,5.83,2.46
		c0.41-0.17,1.11-0.25,1.38-0.02c0.3,0.25,0.31,0.9,0.33,1.38c0.01,0.3-0.15,0.62-0.29,0.91c-0.8,1.7-0.83,3.45-0.46,5.28
		c0.67,3.4,3.46,6.16,6.92,6.25c3.81,0.1,6.29-1.47,7.67-4.75c0.68-1.63,0.5-3.29-0.63-4.74c-0.67-0.86-1.84-1.2-2.77-0.88
		c-1.06,0.36-1.26,1.17-1.17,2.16c0.02,0.26,0.03,0.52,0.01,0.77c-0.09,1.17-0.7,1.94-1.63,2.09c-1.2,0.2-2.13-0.35-2.59-1.52
		c-0.65-1.64-0.01-4.34,1.3-5.54c2.27-2.08,5.97-2.48,8.64-0.93c2.73,1.57,4.47,5.38,3.72,8.45c-0.82,3.35-2.86,5.86-5.78,7.63
		c-2.67,1.63-5.57,1.97-8.53,0.98c-1.26-0.42-2.43-1.15-3.61-1.8c-0.76-0.42-1.44-0.51-2.13,0.07c-0.66,0.56-0.76,1.36-0.27,2.28
		c0.12,0.23,0.27,0.44,0.43,0.64c1.81,2.28,4.04,3.94,6.92,4.62c0.29,0.07,0.56,0.25,1.04,0.47c-0.33,0.58-0.61,1.05-0.87,1.54
		c-0.59,1.09-0.44,2.3,0.35,3c0.7,0.63,1.87,0.64,2.88,0.02c0.47-0.29,0.92-0.61,1.53-1.02c0.29,0.72,0.5,1.24,0.71,1.77
		c0.93,2.4,2.37,4.41,4.49,5.9c0.41,0.29,0.88,0.54,1.35,0.68c0.75,0.21,1.39-0.04,1.86-0.68c0.44-0.62,0.32-1.2-0.11-1.77
		c-0.19-0.26-0.38-0.52-0.55-0.79c-2.73-4.21-2.8-8.57,0.12-12.62c2.34-3.23,5.39-5.33,9.7-4.71c5.84,0.84,7.7,6.39,5.48,10.91
		c-1.08,2.2-4.51,3.22-6.55,2.16c-1.02-0.53-1.41-1.32-1.14-2.37c0.24-0.94,0.86-1.39,1.82-1.4c0.39,0,0.78,0.03,1.16,0
		c1.84-0.17,2.65-1.74,1.72-3.34c-0.59-1.01-1.51-1.6-2.64-1.77c-1.53-0.23-2.93,0.23-4.18,1.11c-2.24,1.57-3.13,3.86-3.31,6.47
		c-0.3,4.49,3.69,8.48,8.14,8.01c1.43-0.15,2.79-0.86,4.21-1.24c0.44-0.12,1.02-0.16,1.38,0.04c0.61,0.33,0.46,0.91,0.22,1.52
		c-0.24,0.63-0.55,1.44-0.35,1.98c0.43,1.12,1.06,2.2,1.83,3.12c0.87,1.04,1.99,1.04,3.1,0.24c1.09-0.77,1.78-1.83,2.21-3.09
		c0.35-1.01-0.28-1.71-0.68-2.5c-0.54-1.07-0.03-1.8,1.14-1.68c0.38,0.04,0.73,0.23,1.11,0.32c1.06,0.25,2.13,0.68,3.19,0.67
		c4.63-0.01,7.28-1.89,8.06-5.87c0.2-1,0.27-2.08,0.09-3.07c-0.72-4.05-3.12-6.39-7.51-6.06c-1.42,0.11-2.57,0.99-2.91,2.17
		c-0.41,1.41,0.43,2.58,1.91,2.63c0.45,0.02,0.9-0.06,1.35-0.03c1.03,0.06,1.78,0.65,1.98,1.52c0.22,0.9-0.13,1.79-1.03,2.3
		c-0.49,0.28-1.07,0.49-1.63,0.54c-2.78,0.28-5.1-1.16-6.01-3.81c-1-2.93-0.54-5.77,1.75-7.81c2.29-2.04,5.22-2.97,8.26-1.9
		c2.72,0.95,4.98,2.77,6.48,5.26c2.4,3.96,2.09,7.96-0.31,11.85c-0.77,1.25-0.82,2.16-0.17,2.81c0.64,0.64,1.66,0.6,2.8-0.29
		c2.08-1.62,3.64-3.63,4.41-6.19c0.18-0.59,0.39-1.17,0.64-1.89c0.68,0.42,1.2,0.78,1.76,1.06c0.86,0.43,2.23,0.14,2.85-0.55
		c0.62-0.68,0.68-1.77,0.08-2.69c-0.31-0.48-0.72-0.89-1.3-1.61c0.9-0.37,1.59-0.69,2.31-0.95c1.98-0.73,3.63-1.93,4.96-3.56
		c0.48-0.59,1.01-1.24,1.21-1.95c0.14-0.51-0.06-1.29-0.4-1.73c-0.45-0.58-1.18-0.7-1.91-0.23c-0.7,0.46-1.41,0.91-2.15,1.29
		c-1.98,1.02-4.05,1.55-6.32,1.26c-3.13-0.39-5.54-1.95-7.52-4.27c-3.07-3.59-3.18-7.29-0.78-11.2c0.36-0.58,0.89-1.16,1.48-1.48
		c2.66-1.43,5.41-1.62,8.11-0.14c2.16,1.18,3.13,4.51,2.03,6.6c-0.47,0.89-1.2,1.22-2.26,1.06c-0.98-0.15-1.44-0.79-1.59-1.69
		c-0.06-0.37,0.05-0.77,0.05-1.15c0.01-1.96-1.57-2.87-3.29-1.91c-1.26,0.7-2.05,2.28-1.86,3.75c0.42,3.21,2.49,5.4,5.99,6.23
		c3.01,0.71,5.65-0.17,7.76-2.33c2.25-2.3,2.56-5.08,1.42-8.05c-0.19-0.48-0.48-0.93-0.58-1.43c-0.1-0.51-0.22-1.27,0.04-1.54
		c0.27-0.27,1.02-0.15,1.54-0.08c0.55,0.07,1.12,0.47,1.63,0.38C291.94,251.46,293.18,250.79,294.17,249.69z M263.58,249.65
		c-1.87,0.44-2.98,1.2-2.17,3.35c0.13,0.34-0.13,0.88-0.33,1.26c-0.35,0.66-0.88,0.7-1.39,0.17c-0.22-0.23-0.4-0.51-0.55-0.79
		c-1.19-2.24-3.28-2.96-5.59-3.26c-1.13-0.15-1.61,0.28-1.45,1.42c0.31,2.23,1.08,4.24,3.2,5.44c0.11,0.06,0.23,0.12,0.34,0.19
		c0.55,0.32,1.25,0.58,1.11,1.39c-0.15,0.9-0.94,0.98-1.65,0.98c-0.76,0.01-1.53-0.09-2.5-0.15c-0.22,0.65-0.4,1.38-0.7,2.06
		c-0.36,0.8-0.66,1.89-1.7,1.86c-1.01-0.03-1.3-1.11-1.71-1.9c-0.09-0.17-0.08-0.38-0.13-0.56c-0.38-1.29-0.4-1.25-1.7-1.08
		c-0.73,0.1-1.55,0.12-2.24-0.11c-0.87-0.3-0.92-1.02-0.22-1.61c0.44-0.37,0.94-0.68,1.41-1.01c1.89-1.31,2.38-3.27,2.49-5.39
		c0.05-0.85-0.55-1.13-1.28-1.05c-2.03,0.22-3.93,0.73-5.17,2.57c-0.32,0.48-0.57,1.02-0.95,1.44c-0.27,0.3-0.76,0.66-1.06,0.59
		c-0.33-0.08-0.77-0.58-0.81-0.94c-0.11-1.06-0.04-2.15-0.04-3.29c-0.79-0.26-1.58-0.39-2.21-0.77c-0.56-0.33-1.19-0.87-1.36-1.44
		c-0.26-0.88,0.61-1.32,1.27-1.71c0.38-0.22,0.83-0.33,1.26-0.47c1.26-0.42,1.27-0.41,1.01-1.72c-0.22-1.1-0.35-2.16,0.92-3.14
		c0.47,0.54,0.97,0.99,1.32,1.53c1.28,2.03,3.18,2.92,5.5,3.08c1.16,0.08,1.57-0.27,1.46-1.43c-0.23-2.29-1.13-4.21-3.19-5.44
		c-0.33-0.2-0.71-0.33-1.01-0.56c-0.79-0.61-0.71-1.5,0.25-1.73c1.03-0.25,2.13-0.18,3.46-0.26c0.07-0.14,0.3-0.51,0.46-0.9
		c0.1-0.23,0.05-0.52,0.15-0.75c0.34-0.83,0.62-1.8,1.71-1.87c1.14-0.07,1.44,0.93,1.79,1.74c0.27,0.63,0.43,1.31,0.64,1.97
		c1.58,0.1,3.23-1.09,4.55,0.95c-0.64,0.47-1.18,0.91-1.76,1.27c-1.92,1.2-2.69,3.05-2.92,5.18c-0.15,1.37,0.28,1.83,1.62,1.63
		c2.1-0.31,4-1.03,5.13-3.02c0.06-0.11,0.15-0.21,0.21-0.32c0.39-0.63,0.65-1.6,1.65-1.23c0.88,0.33,0.73,1.28,0.76,2.03
		c0.02,0.69-0.07,1.39-0.11,2.18c0.78,0.22,1.46,0.38,2.11,0.61c0.7,0.25,1.27,0.66,1.36,1.47
		C264.9,249.03,264.23,249.5,263.58,249.65z"/>
	<path class="st0" d="M349.69,165.4c2.83-1.36,5.79-2.07,8.94-1.6c3.62,0.53,6.57,2.25,8.92,5.05c1.37,1.63,2.36,3.45,2.91,5.5
		c0.47,1.77,0.55,3.55,0.1,5.34c-0.03,0.12-0.04,0.25-0.08,0.48c0.31-0.07,0.55-0.14,0.79-0.18c2.83-0.56,5.47,0,7.95,1.36
		c4.25,2.34,6.88,5.86,7.61,10.69c0.45,2.97-0.17,5.79-1.43,8.49c-0.37,0.8-0.75,1.6-1.07,2.41c-0.76,1.94-0.77,3.83,0.45,5.62
		c0.12,0.17,0.17,0.39,0.26,0.61c-1.82,0.23-4.29-1.37-5.7-3.67c-0.71,0.13-1.44,0.29-2.18,0.41c-1.65,0.27-3.3,0.45-4.98,0.21
		c-6.42-0.9-9.05-7.82-5.82-12.97c2.88-4.59,8.78-4.07,11.51-0.57c1.13,1.46,1.07,3.11-0.2,4.32c-0.93,0.89-2.27,1.07-3.35,0.45
		c-1.2-0.69-1.74-1.96-1.37-3.27c0.08-0.3,0.22-0.59,0.34-0.93c-2.14,0.62-3.3,3.38-1.71,5.64c1.11,1.58,2.69,2.26,4.59,2.13
		c4.11-0.28,6.69-4.17,5.44-8.2c-1.15-3.72-5.03-6.51-8.95-6.42c-6.07,0.14-10.64,5.1-10.25,11.15c0.01,0.23,0.06,0.45,0.09,0.68
		c-0.09,0.05-0.18,0.09-0.27,0.14c-1.52-0.6-2.3-1.95-3.1-3.31c-1.4,0.52-2.74,1.32-4.36,0.89c-0.35-1.6,0.36-2.95,0.91-4.32
		c-2.54-1.66-3.11-2.23-3.2-3.32c0.32,0.01,0.63,0.01,0.95,0.02c5.95,0.29,10.92-4.46,10.9-10.42c-0.01-3.77-2.51-7.36-5.99-8.67
		c-2.44-0.91-5.48-0.45-7.3,1.83c-1.81,2.26-1.88,5.93,0.52,7.86c1.89,1.52,4.88,1.21,5.97-1.51c-0.32,0.11-0.58,0.21-0.84,0.29
		c-1.22,0.4-2.4,0.04-3.16-0.95c-0.74-0.98-0.81-2.36-0.16-3.32c0.74-1.09,1.96-1.61,3.14-1.34c1.4,0.33,2.35,1.27,3.09,2.42
		c2.37,3.69,1.16,8.15-2.74,10.18c-3.46,1.81-7.58,1.19-10.2-1.58c-1.48-1.56-2.15-3.48-2.25-5.61c-0.08-1.65,0.16-3.26,0.48-4.87
		c0.08-0.41,0.16-0.83,0.27-1.35c-1.55-0.57-2.44-1.81-3.13-3.2c-0.36-0.72-0.72-1.46-0.65-2.45c0.29,0.12,0.54,0.17,0.73,0.3
		c1.72,1.2,3.56,1.15,5.44,0.49C348.28,166.09,348.98,165.74,349.69,165.4z"/>
	<path class="st0" d="M142.12,198.5c-0.55,2.05-1.54,3.87-2.91,5.5c-2.35,2.8-5.3,4.52-8.92,5.05c-3.15,0.46-6.11-0.24-8.94-1.6
		c-0.71-0.34-1.41-0.69-2.15-0.95c-1.88-0.67-3.72-0.71-5.44,0.49c-0.19,0.13-0.44,0.18-0.73,0.3c-0.07-0.99,0.3-1.73,0.65-2.45
		c0.69-1.39,1.57-2.64,3.13-3.2c-0.1-0.52-0.19-0.93-0.27-1.35c-0.32-1.61-0.55-3.23-0.48-4.87c0.1-2.13,0.76-4.05,2.25-5.61
		c2.62-2.76,6.74-3.38,10.2-1.58c3.9,2.04,5.11,6.5,2.74,10.18c-0.74,1.15-1.69,2.09-3.09,2.42c-1.18,0.27-2.4-0.25-3.14-1.34
		c-0.65-0.96-0.58-2.34,0.16-3.32c0.75-0.99,1.93-1.35,3.16-0.95c0.26,0.08,0.52,0.18,0.84,0.29c-1.09-2.72-4.08-3.03-5.97-1.51
		c-2.41,1.93-2.33,5.6-0.52,7.86c1.82,2.27,4.86,2.74,7.3,1.83c3.49-1.3,5.98-4.9,5.99-8.67c0.02-5.96-4.95-10.7-10.9-10.42
		c-0.31,0.02-0.62,0.02-0.95,0.02c0.09-1.09,0.65-1.66,3.2-3.32c-0.55-1.37-1.26-2.72-0.91-4.32c1.63-0.42,2.96,0.38,4.36,0.89
		c0.8-1.35,1.58-2.71,3.1-3.31c0.09,0.05,0.18,0.09,0.27,0.14c-0.03,0.23-0.07,0.45-0.09,0.68c-0.38,6.04,4.18,11.01,10.25,11.15
		c3.92,0.09,7.8-2.7,8.95-6.42c1.24-4.02-1.33-7.92-5.44-8.2c-1.9-0.13-3.48,0.55-4.59,2.13c-1.59,2.26-0.42,5.02,1.71,5.64
		c-0.12-0.33-0.26-0.62-0.34-0.93c-0.37-1.31,0.17-2.58,1.37-3.27c1.08-0.62,2.42-0.44,3.35,0.45c1.27,1.22,1.33,2.86,0.2,4.32
		c-2.73,3.51-8.63,4.02-11.51-0.57c-3.23-5.15-0.6-12.07,5.82-12.97c1.68-0.24,3.33-0.06,4.98,0.21c0.74,0.12,1.47,0.27,2.18,0.41
		c1.41-2.3,3.88-3.9,5.7-3.67c-0.09,0.22-0.14,0.43-0.26,0.61c-1.22,1.79-1.21,3.68-0.45,5.62c0.32,0.82,0.7,1.62,1.07,2.41
		c1.26,2.7,1.88,5.52,1.43,8.49c-0.73,4.83-3.36,8.36-7.61,10.69c-2.48,1.37-5.13,1.93-7.95,1.36c-0.24-0.05-0.48-0.11-0.79-0.18
		c0.04,0.23,0.05,0.36,0.08,0.48C142.67,194.95,142.59,196.73,142.12,198.5z"/>
	<path class="st0" d="M370.46,325.28c-0.55,2.05-1.54,3.87-2.91,5.5c-2.35,2.8-5.3,4.52-8.92,5.05c-3.15,0.46-6.11-0.24-8.94-1.61
		c-0.71-0.34-1.41-0.69-2.15-0.95c-1.88-0.67-3.72-0.71-5.44,0.49c-0.19,0.13-0.44,0.18-0.73,0.3c-0.07-0.99,0.3-1.73,0.65-2.45
		c0.69-1.39,1.57-2.64,3.13-3.2c-0.1-0.52-0.19-0.93-0.27-1.35c-0.32-1.61-0.55-3.23-0.48-4.87c0.1-2.13,0.76-4.05,2.25-5.61
		c2.62-2.76,6.74-3.38,10.2-1.58c3.9,2.04,5.11,6.5,2.74,10.18c-0.74,1.15-1.69,2.09-3.09,2.42c-1.18,0.27-2.4-0.25-3.14-1.34
		c-0.65-0.96-0.58-2.34,0.16-3.32c0.75-0.99,1.93-1.35,3.16-0.95c0.26,0.08,0.52,0.18,0.84,0.3c-1.09-2.72-4.08-3.03-5.97-1.51
		c-2.41,1.93-2.33,5.6-0.52,7.86c1.82,2.27,4.86,2.74,7.3,1.83c3.49-1.3,5.98-4.9,5.99-8.67c0.02-5.96-4.95-10.7-10.9-10.42
		c-0.31,0.02-0.62,0.02-0.95,0.02c0.09-1.09,0.65-1.66,3.2-3.32c-0.55-1.37-1.26-2.72-0.91-4.32c1.63-0.42,2.96,0.37,4.36,0.89
		c0.8-1.36,1.58-2.71,3.1-3.31c0.09,0.05,0.18,0.09,0.27,0.14c-0.03,0.23-0.07,0.45-0.09,0.68c-0.38,6.04,4.18,11.01,10.25,11.15
		c3.92,0.09,7.8-2.7,8.95-6.42c1.24-4.02-1.33-7.92-5.44-8.2c-1.9-0.13-3.48,0.55-4.59,2.13c-1.59,2.26-0.42,5.02,1.71,5.64
		c-0.12-0.33-0.26-0.62-0.34-0.93c-0.37-1.31,0.17-2.58,1.37-3.27c1.08-0.62,2.42-0.44,3.35,0.45c1.27,1.22,1.33,2.86,0.2,4.32
		c-2.73,3.51-8.63,4.02-11.51-0.57c-3.23-5.15-0.6-12.07,5.82-12.97c1.68-0.24,3.33-0.06,4.98,0.21c0.74,0.12,1.47,0.27,2.18,0.41
		c1.41-2.3,3.88-3.9,5.7-3.67c-0.09,0.22-0.14,0.43-0.26,0.61c-1.22,1.79-1.21,3.68-0.45,5.62c0.32,0.82,0.7,1.62,1.07,2.42
		c1.25,2.7,1.88,5.52,1.43,8.49c-0.73,4.83-3.36,8.36-7.61,10.69c-2.48,1.37-5.13,1.93-7.95,1.36c-0.24-0.05-0.48-0.11-0.79-0.18
		c0.04,0.23,0.05,0.36,0.08,0.48C371.01,321.73,370.94,323.51,370.46,325.28z"/>
	<path class="st0" d="M121.35,292.18c2.83-1.36,5.79-2.07,8.94-1.61c3.62,0.53,6.57,2.25,8.92,5.05c1.37,1.63,2.36,3.45,2.91,5.5
		c0.47,1.77,0.55,3.55,0.1,5.34c-0.03,0.12-0.04,0.25-0.08,0.48c0.31-0.07,0.55-0.14,0.79-0.18c2.82-0.56,5.47,0,7.95,1.36
		c4.24,2.34,6.88,5.86,7.61,10.69c0.45,2.97-0.17,5.79-1.43,8.49c-0.37,0.8-0.75,1.6-1.07,2.42c-0.76,1.94-0.77,3.83,0.45,5.62
		c0.12,0.17,0.17,0.39,0.26,0.61c-1.82,0.23-4.29-1.37-5.7-3.67c-0.71,0.13-1.44,0.29-2.18,0.41c-1.65,0.27-3.3,0.45-4.98,0.21
		c-6.42-0.9-9.05-7.82-5.82-12.97c2.88-4.59,8.78-4.07,11.51-0.57c1.13,1.46,1.07,3.11-0.2,4.32c-0.93,0.89-2.27,1.07-3.35,0.45
		c-1.2-0.69-1.74-1.96-1.37-3.27c0.09-0.3,0.22-0.59,0.34-0.93c-2.14,0.62-3.3,3.38-1.71,5.64c1.11,1.58,2.69,2.26,4.59,2.13
		c4.11-0.28,6.69-4.17,5.44-8.2c-1.15-3.72-5.03-6.51-8.95-6.42c-6.07,0.14-10.64,5.1-10.25,11.15c0.01,0.23,0.06,0.45,0.09,0.68
		c-0.09,0.05-0.18,0.09-0.27,0.14c-1.52-0.6-2.3-1.95-3.1-3.31c-1.4,0.52-2.74,1.31-4.36,0.89c-0.35-1.6,0.36-2.95,0.91-4.32
		c-2.54-1.66-3.11-2.23-3.2-3.32c0.32,0.01,0.63,0.01,0.95,0.02c5.95,0.29,10.92-4.46,10.9-10.42c-0.01-3.77-2.51-7.36-5.99-8.67
		c-2.44-0.91-5.48-0.45-7.3,1.83c-1.81,2.26-1.88,5.93,0.52,7.86c1.89,1.52,4.88,1.21,5.97-1.51c-0.32,0.11-0.58,0.21-0.84,0.29
		c-1.22,0.4-2.4,0.04-3.16-0.95c-0.74-0.98-0.81-2.36-0.16-3.32c0.74-1.09,1.96-1.61,3.14-1.34c1.4,0.33,2.35,1.27,3.09,2.42
		c2.37,3.69,1.16,8.15-2.74,10.18c-3.46,1.81-7.58,1.19-10.2-1.58c-1.48-1.56-2.15-3.48-2.25-5.61c-0.08-1.65,0.16-3.26,0.48-4.87
		c0.08-0.42,0.17-0.83,0.27-1.35c-1.55-0.57-2.44-1.81-3.13-3.2c-0.36-0.72-0.72-1.46-0.65-2.45c0.29,0.12,0.54,0.17,0.73,0.3
		c1.72,1.2,3.56,1.15,5.44,0.49C119.93,292.87,120.64,292.52,121.35,292.18z"/>
</g>
</svg>
