<?xml version="1.0" encoding="utf-8"?>
<!-- Generator: Adobe Illustrator 26.5.0, SVG Export Plug-In . SVG Version: 6.00 Build 0)  -->
<svg version="1.1" id="Layer_1" xmlns="http://www.w3.org/2000/svg" xmlns:xlink="http://www.w3.org/1999/xlink" x="0px" y="0px"
	 viewBox="0 0 500 500" style="enable-background:new 0 0 500 500;" xml:space="preserve">
<style type="text/css">
	.st0{fill:#131313;}
</style>
<g>
	<path class="st0" d="M335.8,247.79c-1.39-4.06-6.82-6.35-10.87-4.75c-0.93,0.36-2.33,0.56-3.07,0.11
		c-1.27-0.76-0.74-2.17-0.22-3.35c0.25-0.57,0.55-1.12,0.74-1.71c1.24-3.88,1.55-7.76,0.02-11.64c-2.13-5.42-6.15-8.87-11.82-9.56
		c-5.67-0.69-10.83,1.01-14.38,5.95c-2.98,4.14-2.82,9.44,0.32,12.66c1.51,1.55,3.21,1.94,5.06,1.18c1.9-0.78,2.53-2.24,2.28-4.18
		c-0.06-0.49-0.11-0.99-0.09-1.48c0.09-2.06,1.41-3.85,3.05-4.16c1.71-0.33,4.05,1.05,4.79,2.84c1.72,4.1-0.01,9.81-3.93,12.17
		c-1.67,1.01-3.59,1.76-5.49,2.17c-6.44,1.39-12.45-1.83-15.15-7.82c-2.73-6.06-2.41-11.77,1.75-17.11
		c0.69-0.88,1.34-1.79,2.05-2.64c6.46-7.77,16.38-9.9,25.49-5.43c1.44,0.71,2.8,1.59,4.17,2.43c1.2,0.73,2.55,0.86,3.39-0.17
		c0.68-0.84,1.08-2.19,1.01-3.28c-0.07-1.01-0.78-2.09-1.46-2.93c-3.27-4.04-7.25-7.07-12.39-8.37c-0.88-0.22-1.7-0.69-2.64-1.09
		c0.79-1.35,1.54-2.35,2.02-3.47c0.79-1.89,0.15-4.36-1.25-5.44c-1.51-1.18-3.11-1.14-5.17,0.16c-0.9,0.57-1.75,1.23-2.89,2.04
		c-0.59-1.25-1.05-2.22-1.51-3.2c-0.78-1.68-1.42-3.46-2.37-5.03c-2.02-3.33-4.71-6.03-8.26-7.77c-1.41-0.69-2.69-0.39-3.73,0.69
		c-1.08,1.13-1.08,2.43-0.26,3.74c0.59,0.94,1.18,1.89,1.74,2.86c4.38,7.55,4.39,15.08-0.39,22.43c-2.4,3.69-5.57,6.68-9.6,8.53
		c-5.95,2.74-11.68,1.76-16.91-1.78c-4.81-3.25-5.47-8.29-4.87-13.59c0.64-5.73,4.74-9.58,10.38-9.67c1.4-0.02,2.95,0.45,4.18,1.14
		c1.43,0.8,2.35,2.19,1.82,4.07c-0.53,1.88-1.71,2.93-3.71,3.08c-0.61,0.05-1.23-0.14-1.84-0.17c-1.79-0.08-3.11,0.72-3.94,2.27
		c-0.78,1.47-0.42,2.86,0.43,4.21c1.7,2.69,4.21,3.85,7.27,3.44c9.87-1.34,13.77-10.68,11.74-18.93
		c-2.28-9.26-10.63-13.53-19.6-10.33c-1.51,0.54-2.94,1.38-4.48,1.76c-0.66,0.17-1.71-0.28-2.22-0.8c-0.36-0.36-0.23-1.35-0.1-2.01
		c0.26-1.29,1.05-2.57,0.95-3.81c-0.26-3.14-2.08-5.5-4.54-7.38c-1.47-1.12-3.15-1.19-4.45,0c-1.61,1.47-3.04,3.19-4.29,4.99
		c-1.05,1.52-0.94,3.31-0.01,4.94c0.69,1.2,1.76,2.62,0.39,3.61c-0.86,0.62-2.49,0.21-3.78,0.17c-0.48-0.01-0.96-0.25-1.42-0.42
		c-3.75-1.45-7.47-1.26-11.26-0.01c-6.41,2.12-10.12,7.37-9.77,14.09c0.38,7.47,4.61,12.87,11.26,14.33
		c3.18,0.7,5.91-0.17,8.03-2.64c1.33-1.55,1.46-3.39,0.74-5.25c-0.73-1.88-2.37-1.93-4.05-1.82c-0.49,0.03-0.99,0.04-1.49,0
		c-2.36-0.15-3.67-1.19-3.96-3.13c-0.34-2.23,0.8-4.26,2.99-4.9c3.55-1.04,7.03-0.55,9.83,1.82c6.5,5.52,5.25,17.47-0.91,21.23
		c-6.75,4.12-13.34,4.98-20.01-0.11c-1.28-0.98-2.56-1.97-3.73-3.06c-5.74-5.34-8.01-11.88-6.06-19.5c0.78-3.05,2.43-5.9,3.88-8.74
		c0.77-1.5,1.04-2.81-0.18-4.07c-1.16-1.2-2.57-1.43-4.07-0.58c-0.64,0.36-1.28,0.75-1.86,1.2c-4.15,3.2-6.99,7.28-8.41,12.35
		c-0.24,0.87-0.77,1.67-1.23,2.65c-1.27-0.73-2.2-1.35-3.19-1.82c-1.93-0.92-4.16-0.49-5.43,0.98c-1.3,1.51-1.42,3.22-0.24,5.15
		c0.62,1.02,1.38,1.97,2.25,3.2c-1.32,0.54-2.32,0.97-3.34,1.36c-4.64,1.76-8.47,4.6-11.44,8.58c-1.75,2.35-1.98,4.22-0.68,5.72
		c1.29,1.48,2.33,1.45,5.18-0.41c3.7-2.41,7.61-4.16,12.11-4.18c7.52-0.03,13.15,3.56,17.85,9.15c5.29,6.29,5.22,14.11,1.05,20.69
		c-3.37,5.33-9.65,6.95-16.52,4.57c-4.59-1.59-7.62-6.4-6.23-12.4c0.78-3.36,4.1-4.5,6.58-2.59c1.42,1.09,1.19,2.6,1.22,4.07
		c0.05,2.54,0.96,3.97,2.89,4.6c2.07,0.67,4.14-0.05,5.54-2c1.63-2.28,1.84-4.81,1.07-7.44c-2.34-8.05-10.32-11.92-17.88-10.09
		c-9.5,2.3-14.59,10.01-10.71,20.59c0.38,1.05,0.97,2.05,1.15,3.13c0.12,0.75-0.05,1.86-0.54,2.31c-0.46,0.42-1.61,0.43-2.29,0.18
		c-4.1-1.51-8.6-0.21-11.06,3.31c-0.83,1.19-1.16,2.42-0.64,3.85c1.63,4.44,6.76,6.56,11.22,4.73c0.8-0.33,2.13-0.48,2.65-0.04
		c0.57,0.48,0.59,1.73,0.64,2.66c0.03,0.58-0.29,1.2-0.55,1.75c-1.55,3.28-1.59,6.64-0.89,10.16c1.3,6.54,6.66,11.85,13.32,12.03
		c7.33,0.2,12.12-2.84,14.76-9.14c1.32-3.14,0.96-6.34-1.22-9.13c-1.3-1.66-3.54-2.31-5.33-1.7c-2.03,0.69-2.43,2.26-2.25,4.16
		c0.05,0.49,0.05,0.99,0.01,1.49c-0.18,2.25-1.34,3.73-3.14,4.03c-2.3,0.38-4.1-0.67-4.99-2.92c-1.24-3.16-0.03-8.35,2.51-10.67
		c4.36-4,11.49-4.77,16.64-1.8c5.25,3.02,8.6,10.37,7.15,16.27c-1.58,6.45-5.52,11.28-11.13,14.7c-5.15,3.13-10.72,3.8-16.43,1.89
		c-2.43-0.81-4.68-2.21-6.95-3.47c-1.46-0.81-2.78-0.99-4.1,0.13c-1.28,1.09-1.46,2.61-0.52,4.38c0.23,0.43,0.52,0.84,0.83,1.23
		c3.49,4.39,7.77,7.59,13.32,8.9c0.57,0.13,1.08,0.48,2,0.9c-0.64,1.12-1.18,2.03-1.68,2.96c-1.13,2.11-0.85,4.42,0.67,5.78
		c1.35,1.2,3.6,1.23,5.54,0.03c0.91-0.56,1.78-1.18,2.95-1.96c0.55,1.38,0.97,2.39,1.36,3.41c1.79,4.62,4.57,8.5,8.65,11.37
		c0.79,0.56,1.69,1.04,2.61,1.31c1.44,0.41,2.69-0.07,3.58-1.32c0.86-1.19,0.63-2.32-0.2-3.41c-0.37-0.49-0.73-1-1.07-1.52
		c-5.27-8.11-5.4-16.51,0.24-24.3c4.5-6.22,10.37-10.26,18.68-9.07c11.25,1.61,14.83,12.29,10.55,21
		c-2.08,4.23-8.68,6.21-12.62,4.16c-1.96-1.02-2.71-2.53-2.2-4.57c0.45-1.81,1.66-2.68,3.51-2.7c0.74-0.01,1.49,0.06,2.23-0.01
		c3.54-0.32,5.1-3.35,3.32-6.42c-1.13-1.95-2.91-3.08-5.08-3.4c-2.95-0.44-5.63,0.45-8.05,2.14c-4.32,3.03-6.03,7.43-6.37,12.46
		c-0.58,8.64,7.1,16.32,15.67,15.42c2.75-0.29,5.38-1.65,8.1-2.39c0.84-0.23,1.96-0.3,2.67,0.08c1.17,0.64,0.88,1.76,0.42,2.93
		c-0.47,1.2-1.07,2.77-0.67,3.81c0.82,2.15,2.04,4.24,3.51,6.01c1.67,2,3.83,1.99,5.98,0.47c2.09-1.49,3.42-3.53,4.25-5.95
		c0.67-1.94-0.54-3.28-1.31-4.82c-1.03-2.06-0.06-3.47,2.19-3.23c0.72,0.07,1.41,0.44,2.13,0.61c2.04,0.47,4.1,1.3,6.14,1.3
		c8.92-0.02,14.01-3.64,15.51-11.3c0.38-1.92,0.51-4.01,0.17-5.91c-1.39-7.8-6.01-12.31-14.46-11.66c-2.74,0.21-4.95,1.91-5.61,4.18
		c-0.79,2.71,0.83,4.97,3.67,5.07c0.87,0.03,1.74-0.11,2.6-0.06c1.98,0.11,3.42,1.25,3.82,2.92c0.42,1.73-0.26,3.45-1.98,4.43
		c-0.94,0.53-2.06,0.94-3.13,1.04c-5.35,0.53-9.82-2.23-11.57-7.34c-1.92-5.64-1.04-11.11,3.37-15.04
		c4.4-3.92,10.05-5.71,15.91-3.67c5.24,1.83,9.58,5.34,12.48,10.13c4.62,7.63,4.02,15.32-0.6,22.81c-1.49,2.41-1.58,4.15-0.32,5.41
		c1.24,1.24,3.19,1.16,5.39-0.56c4-3.11,7-6.98,8.5-11.91c0.34-1.13,0.76-2.25,1.22-3.63c1.31,0.8,2.3,1.51,3.38,2.05
		c1.66,0.82,4.29,0.26,5.49-1.06c1.19-1.31,1.3-3.41,0.16-5.18c-0.6-0.92-1.38-1.72-2.51-3.09c1.73-0.72,3.07-1.33,4.44-1.83
		c3.82-1.41,6.99-3.72,9.55-6.85c0.93-1.14,1.94-2.38,2.33-3.75c0.28-0.99-0.12-2.49-0.77-3.33c-0.86-1.11-2.28-1.36-3.67-0.44
		c-1.34,0.89-2.71,1.76-4.14,2.49c-3.82,1.96-7.79,2.98-12.17,2.43c-6.02-0.75-10.66-3.75-14.49-8.23
		c-5.9-6.91-6.11-14.03-1.5-21.57c0.69-1.12,1.71-2.23,2.85-2.84c5.11-2.75,10.41-3.11,15.61-0.28c4.16,2.27,6.02,8.69,3.9,12.71
		c-0.9,1.72-2.32,2.35-4.34,2.04c-1.88-0.3-2.78-1.51-3.05-3.25c-0.11-0.72,0.09-1.48,0.09-2.22c0.01-3.77-3.02-5.52-6.34-3.68
		c-2.43,1.35-3.94,4.4-3.57,7.23c0.8,6.18,4.79,10.4,11.54,11.99c5.8,1.37,10.87-0.34,14.94-4.49c4.34-4.44,4.94-9.79,2.73-15.5
		c-0.36-0.92-0.93-1.79-1.11-2.75c-0.19-0.99-0.43-2.44,0.08-2.96c0.52-0.53,1.96-0.28,2.97-0.16c1.06,0.13,2.16,0.9,3.13,0.74
		c2.73-0.47,5.12-1.74,7.03-3.86C336.17,250.92,336.35,249.41,335.8,247.79z M276.06,252.21c-3.6,0.84-5.73,2.3-4.18,6.46
		c0.24,0.65-0.25,1.69-0.64,2.43c-0.67,1.27-1.69,1.35-2.68,0.32c-0.42-0.44-0.77-0.98-1.06-1.52c-2.3-4.32-6.32-5.69-10.77-6.27
		c-2.17-0.28-3.09,0.54-2.79,2.74c0.59,4.3,2.09,8.17,6.15,10.48c0.22,0.12,0.44,0.24,0.65,0.36c1.07,0.61,2.41,1.12,2.14,2.67
		c-0.3,1.73-1.8,1.88-3.18,1.89c-1.47,0.01-2.94-0.17-4.82-0.29c-0.42,1.26-0.77,2.67-1.34,3.97c-0.69,1.55-1.26,3.65-3.28,3.59
		c-1.94-0.06-2.51-2.14-3.29-3.66c-0.16-0.32-0.15-0.73-0.25-1.08c-0.74-2.49-0.76-2.4-3.28-2.08c-1.41,0.18-2.99,0.24-4.3-0.21
		c-1.68-0.57-1.77-1.96-0.42-3.1c0.85-0.71,1.81-1.31,2.72-1.94c3.64-2.52,4.58-6.3,4.8-10.38c0.09-1.64-1.07-2.17-2.47-2.02
		c-3.91,0.43-7.57,1.41-9.94,4.94c-0.62,0.92-1.1,1.97-1.83,2.78c-0.52,0.57-1.46,1.26-2.04,1.13c-0.64-0.15-1.48-1.12-1.55-1.81
		c-0.2-2.05-0.07-4.13-0.07-6.34c-1.53-0.5-3.04-0.75-4.26-1.48c-1.08-0.64-2.3-1.67-2.62-2.78c-0.5-1.7,1.18-2.54,2.45-3.28
		c0.73-0.43,1.61-0.64,2.43-0.91c2.43-0.8,2.45-0.79,1.95-3.32c-0.42-2.11-0.68-4.17,1.78-6.05c0.9,1.03,1.86,1.9,2.53,2.96
		c2.47,3.91,6.11,5.63,10.58,5.92c2.24,0.15,3.03-0.52,2.81-2.74c-0.44-4.4-2.17-8.11-6.15-10.47c-0.64-0.38-1.36-0.64-1.94-1.09
		c-1.51-1.17-1.36-2.89,0.48-3.33c1.98-0.48,4.1-0.34,6.66-0.51c0.14-0.27,0.57-0.98,0.88-1.73c0.18-0.45,0.1-1,0.28-1.45
		c0.65-1.6,1.19-3.47,3.29-3.6c2.19-0.13,2.77,1.79,3.45,3.35c0.52,1.21,0.83,2.52,1.24,3.8c3.04,0.18,6.23-2.11,8.76,1.82
		c-1.24,0.9-2.27,1.75-3.39,2.45c-3.69,2.32-5.17,5.87-5.63,9.98c-0.29,2.64,0.54,3.52,3.13,3.14c4.04-0.59,7.69-1.99,9.87-5.81
		c0.12-0.21,0.28-0.41,0.41-0.62c0.76-1.22,1.25-3.09,3.18-2.37c1.7,0.63,1.41,2.46,1.45,3.9c0.05,1.33-0.13,2.67-0.21,4.2
		c1.5,0.42,2.8,0.73,4.06,1.17c1.34,0.47,2.45,1.26,2.61,2.84C278.6,251.02,277.31,251.92,276.06,252.21z"/>
	<path class="st0" d="M250,100c-82.84,0-150,67.16-150,150s67.16,150,150,150s150-67.16,150-150S332.84,100,250,100z M350.05,350.05
		C323.33,376.78,287.79,391.5,250,391.5c-37.79,0-73.33-14.72-100.05-41.44C123.22,323.33,108.5,287.79,108.5,250
		c0-37.79,14.72-73.33,41.44-100.05c26.73-26.73,62.26-41.44,100.05-41.44c37.79,0,73.33,14.72,100.05,41.44
		c26.73,26.73,41.44,62.26,41.44,100.05C391.5,287.79,376.78,323.33,350.05,350.05z"/>
	<path class="st0" d="M250,152.02c-54.11,0-97.98,43.86-97.98,97.98s43.87,97.98,97.98,97.98c54.11,0,97.98-43.86,97.98-97.98
		S304.11,152.02,250,152.02z M250,345.14c-52.46,0-95.14-42.68-95.14-95.14s42.68-95.14,95.14-95.14s95.14,42.68,95.14,95.14
		S302.46,345.14,250,345.14z"/>
	<path class="st0" d="M169.42,327.39c2.99-5.19,3.29-10.44,0.11-15.68c-1.17-1.93-2.4-3.85-3.72-5.68
		c-4.29-5.95-9.64-11.32-10.13-19.27c-0.06-0.94-0.79-1.01-1.53-0.57c-7.06,4.24-8.1,10.71-1.73,15.35c1.11,0.81,2.28,1.55,3.4,2.36
		c1.2,0.86,2.39,1.73,3.53,2.67c0.35,0.29,0.52,0.8,0.77,1.21c-1.53-0.57-2.73-1.44-4-2.15c-1.8-1.01-3.6-2.06-5.5-2.83
		c-2.52-1.01-4.08-0.5-5.79,1.49c-2.47,2.9-2.47,2.9-1.01,6.49c0.04,0.09,0.07,0.18,0.11,0.28c0.64,1.77,1.83,2.73,3.79,2.64
		c1.38-0.06,2.76-0.05,4.14-0.05c2.51-0.01,4.52,1.04,5.93,3.33c-0.71-0.26-1.4-0.59-2.12-0.78c-2.75-0.71-5.49-1.71-8.37-0.54
		c-2.68,1.08-3.79,3.42-2.43,5.93c0.86,1.59,2.19,3.04,3.6,4.18c2.06,1.67,2.65,1.31,2.94-1.32c0.21-1.88,1.35-3.01,3.02-3.67
		c1.55-0.61,3.12-0.77,4.4,0.54c2.23,2.29,3.07,6.12-0.93,8.44c-2.03,1.18-4.28,1.38-6.57,1.16c-3.4-0.33-5.76-2.39-7.74-4.93
		c-3.74-4.78-4.41-10.29-3.13-15.97c1.03-4.59,2.59-9.07,4.04-13.55c1.42-4.4,3.2-8.69,4.48-13.12c1.65-5.73,2.31-11.56,0.61-17.47
		c-3.26-11.39-16.66-16.31-26.08-10.11c-7.95,5.24-11.11,14.08-7.69,23.51c1.54,4.24,3.62,8.29,5.57,12.37
		c2.13,4.44,4.47,8.8,4.73,13.86c0.07,1.39,0.65,1.44,1.7,1.01c4.87-2,6.76-7.63,3.76-12c-1.6-2.33-3.68-4.35-5.63-6.44
		c-2.25-2.41-4.07-5.06-4.94-8.28c-0.12-0.45-0.1-0.93-0.15-1.4c1.46,1.78,2.49,3.67,3.69,5.45c1.95,2.88,4.15,5.52,7.48,6.91
		c2.08,0.86,6.39-1.24,6.99-3.37c0.75-2.66-0.9-6.46-3.5-7.73c-1.67-0.82-3.47-1.38-5.18-2.13c-2.01-0.88-3.72-2.07-4.34-5.02
		c1.16,0.89,1.83,1.57,2.65,1.98c1.82,0.92,3.64,2,5.59,2.46c2.42,0.58,5.17-1.08,5.66-3.22c0.53-2.32,0.54-4.71-0.64-6.92
		c-1.03-1.95-1.5-2.05-3.17-0.64c-1.53,1.29-3.16,1.5-4.93,0.62c-1.37-0.68-2.05-1.79-1.92-3.35c0.15-1.82,1.23-3.04,3.29-3.7
		c3.39-1.08,7.57,0.56,9.73,3.86c1.8,2.75,2.36,5.79,2.08,9.03c-0.53,6.25-2.65,12.07-4.71,17.93c-2.05,5.84-4.36,11.66-5.7,17.67
		c-1.91,8.59,0.3,16.42,6.39,22.94c2.67,2.86,5.89,4.92,9.84,5.58C157.49,337.99,165.57,334.07,169.42,327.39z"/>
	<path class="st0" d="M330.78,172.34c-3.17,5.08-3.53,10.34-0.49,15.65c0.73,1.28,1.46,2.57,2.31,3.78c2.27,3.22,4.65,6.36,6.9,9.59
		c2.27,3.25,4.13,6.68,4.69,10.71c0.35,2.56,0.52,2.58,2.6,1.17c0.49-0.33,0.97-0.67,1.42-1.06c4.83-4.16,4.75-9.24-0.27-13.21
		c-1.7-1.34-3.56-2.47-5.28-3.78c-1.03-0.79-1.94-1.74-2.9-2.62c0.13-0.15,0.25-0.31,0.38-0.46c0.54,0.35,1.06,0.73,1.62,1.04
		c2.5,1.37,4.94,2.87,7.53,4.02c2.52,1.12,4.11,0.38,5.96-1.69c1.63-1.82,2.22-3.6,0.89-5.79c-0.15-0.25-0.21-0.55-0.3-0.83
		c-0.59-1.83-1.82-2.71-3.77-2.62c-1.57,0.07-3.15,0.1-4.73,0.04c-2.23-0.09-4.02-1.1-5.38-2.9c0.71,0,1.32,0.22,1.94,0.41
		c2.46,0.74,4.94,1.41,7.54,0.95c3.46-0.62,5.02-3.82,3.34-6.9c-1.02-1.87-2.53-3.26-4.51-4.08c-1.68-0.7-1.99-0.48-2.03,1.36
		c-0.06,2.5-1.26,3.91-3.8,4.47c-1.92,0.42-3.44-0.42-4.49-2.49c-1.38-2.73-0.8-4.95,1.85-6.54c2.99-1.79,7.77-2.51,11.38,0.35
		c3.99,3.16,6.32,7.19,6.7,12.3c0.36,4.91-0.71,9.59-2.26,14.19c-2.26,6.71-4.75,13.35-6.78,20.13c-1.63,5.42-2.16,11-0.56,16.6
		c2.62,9.16,12.38,14.91,21.19,12.39c8.02-2.29,16.12-10.82,13.59-22.47c-0.31-1.44-0.66-2.9-1.24-4.24
		c-1.55-3.61-3.18-7.19-4.89-10.73c-2.26-4.69-4.94-9.22-4.99-14.66c-0.01-1-0.53-1.51-1.54-0.95c-2.17,1.23-4.09,2.68-5.01,5.18
		c-1.16,3.17-0.09,5.84,1.82,8.23c1.72,2.15,3.7,4.09,5.53,6.14c2.26,2.52,3.88,5.38,4.56,8.7c-0.19,0.1-0.39,0.21-0.58,0.31
		c-0.5-0.93-1.03-1.85-1.5-2.79c-1.58-3.11-3.59-5.9-6.23-8.18c-3.33-2.87-5.32-2.61-8.46,0.03c-1.73,1.45-1.5,2.99-1.43,4.71
		c0.07,1.79,0.74,3.29,2.36,4.16c1.38,0.74,2.85,1.31,4.27,1.97c1.33,0.62,2.73,1.14,3.96,1.91c1.12,0.7,1.96,1.74,2.14,3.74
		c-1.1-0.89-1.7-1.55-2.45-1.93c-1.74-0.89-3.47-1.91-5.34-2.37c-2.79-0.69-5.65,0.94-6.1,3.33c-0.46,2.43-0.42,4.91,0.83,7.2
		c0.86,1.56,1.19,1.61,2.61,0.51c0.62-0.48,1.25-0.99,1.96-1.28c1.72-0.72,4.05,0.04,4.98,1.51c0.94,1.48,0.47,3.75-1.14,5.02
		c-0.6,0.47-1.34,0.94-2.07,1.06c-2.17,0.35-4.28,0.29-6.24-1.01c-2.99-1.98-4.83-4.73-5.09-8.24c-0.19-2.62-0.17-5.38,0.44-7.91
		c1.13-4.77,2.68-9.44,4.19-14.11c1.7-5.24,3.85-10.35,5.27-15.66c2.05-7.67,1.1-15.1-3.58-21.71c-3.75-5.31-8.66-8.99-15.48-8.87
		C339.72,163.22,334.42,166.5,330.78,172.34z"/>
	<path class="st0" d="M123.47,243.96c5.9,3.83,11.92,3.7,17.89,0.41c6.29-3.47,8.87-9.26,9.19-16.17c0.2-4.36-0.51-8.67-1.86-12.8
		c-1.74-5.33-3.78-10.56-5.58-15.87c-1.8-5.32-3.56-10.68-3.07-16.42c0.5-5.89,3.25-10.47,8.38-13.45
		c3.04-1.77,7.99-1.13,10.57,1.13c2.19,1.92,2.25,5.03,0.16,7.36c-1.51,1.68-4.39,1.6-6.36-0.2c-1.09-0.99-1.61-2.2-1.28-3.7
		c0.31-1.41-0.38-1.58-1.48-1.11c-2.27,0.96-3.95,2.58-5.09,4.74c-1.49,2.83-0.24,5.49,2.89,6.38c2.71,0.77,5.25,0.03,7.81-0.71
		c0.74-0.22,1.49-0.42,2.76-0.77c-2.06,2.63-4.37,3.3-6.9,3.42c-1.37,0.07-2.76-0.02-4.13-0.06c-1.16-0.03-2.08,0.33-2.79,1.32
		c-2.16,2.98-2.1,5.29,0.29,8.03c1.69,1.94,3.39,2.53,5.78,1.43c2.67-1.22,5.17-2.81,7.74-4.24c0.53-0.29,1.07-0.56,1.6-0.84
		c-0.15,0.8-0.47,1.3-0.91,1.65c-1.31,1.04-2.67,2.01-3.99,3.04c-1.63,1.27-3.38,2.42-4.82,3.87c-2.44,2.46-2.86,5.8-0.91,8.65
		c1.19,1.74,2.92,3.16,4.57,4.51c1.14,0.93,1.69,0.64,1.82-0.96c0.36-4.5,2.45-8.24,4.96-11.83c0.62-0.89,1.28-1.75,1.89-2.64
		c2.35-3.4,4.79-6.74,7-10.23c1.65-2.62,2.51-5.54,2.1-8.72c-0.98-7.63-7.04-14.21-14.65-15.95c-3.47-0.79-6.85-0.7-10.1,0.84
		c-8.22,3.9-12.37,10.68-13.46,19.46c-0.69,5.5,0.67,10.75,2.51,15.9c2.28,6.39,4.67,12.75,6.7,19.22c1.3,4.12,2.26,8.4,1.44,12.8
		c-0.82,4.39-3.14,7.6-7.59,8.94c-2.13,0.64-4.12,0.29-5.82-1.14c-1.62-1.36-2.02-3.55-1.03-5.03c1.13-1.69,3.7-2.27,5.54-1.21
		c0.42,0.24,0.75,0.63,1.13,0.93c1.26,1.01,1.67,0.96,2.55-0.31c1.19-1.72,1.27-3.69,1.21-5.67c-0.1-3.59-2.85-5.92-6.33-4.98
		c-2.03,0.55-3.86,1.83-5.76,2.82c-0.62,0.32-1.16,0.8-2.17,1.51c0.88-3.12,2.84-4.3,5.06-5.21c1.73-0.71,3.53-1.26,5.16-2.14
		c2.14-1.15,3.69-5.94,2.71-7.78c-1.96-3.67-5.08-4.5-8.63-2.23c-0.74,0.47-1.53,0.98-2.05,1.67c-1.9,2.49-3.71,5.05-5.52,7.61
		c-0.54,0.76-0.95,1.61-1.43,2.42c-0.14-0.06-0.28-0.11-0.42-0.17c0.04-0.35,0.04-0.72,0.12-1.06c0.94-3.75,3.19-6.71,5.77-9.47
		c1.54-1.65,3.07-3.32,4.5-5.07c3.39-4.13,2.11-9.95-3.28-12.5c-1.09-0.51-1.63-0.45-1.73,0.88c-0.38,5.24-2.8,9.75-5.02,14.37
		c-2.21,4.59-4.46,9.25-5.89,14.12C112.72,231.26,116.06,239.14,123.47,243.96z"/>
	<path class="st0" d="M350.81,264.92c-1.31,3.46-1.69,7.07-1.3,10.75c0.61,5.72,2.24,11.17,4.25,16.54
		c1.59,4.24,3.08,8.51,4.53,12.8c1.4,4.15,1.93,8.44,1.56,12.81c-0.51,5.94-5.13,11.9-10.45,13.5c-3.06,0.92-7.53-0.53-9.3-3.01
		c-1.48-2.06-0.94-5.17,1.18-6.89c1.64-1.32,4.12-0.99,5.88,0.75c1.01,1,1.15,2.21,1.02,3.54c-0.13,1.32,0.67,1.6,1.67,1.16
		c2.54-1.1,4.5-2.88,5.37-5.56c0.88-2.71-0.73-5.18-3.58-5.64c-2.58-0.42-5.1-0.03-7.56,0.84c-0.7,0.25-1.4,0.49-2.1,0.73
		c1.08-1.92,2.67-2.94,4.71-3.05c1.57-0.09,3.14,0.01,4.72,0.05c1.43,0.04,2.93-0.1,3.66-1.42c0.84-1.53,1.69-3.24,1.82-4.93
		c0.08-1.02-1.13-2.18-1.87-3.21c-1.16-1.6-2.8-2.31-4.67-1.62c-2.38,0.88-4.7,1.96-6.99,3.06c-1.1,0.53-2.09,1.28-3.12,1.94
		c-0.14-0.18-0.28-0.37-0.41-0.55c1.25-0.99,2.47-2.02,3.74-2.97c1.81-1.36,3.78-2.53,5.46-4.02c2.62-2.32,3.37-5.5,2.15-8.29
		c-1.07-2.43-2.96-4.14-5.13-5.56c-1.05-0.69-1.6-0.38-1.72,0.88c-0.53,5.32-3.35,9.57-6.37,13.75c-2.65,3.66-5.25,7.38-7.73,11.16
		c-1.66,2.54-2.21,5.41-1.9,8.47c0.43,4.22,2.32,7.72,5.27,10.63c5.54,5.47,13.68,7.6,20.59,3.89c7.34-3.93,11.18-10.29,12.26-18.4
		c0.77-5.83-0.74-11.32-2.68-16.75c-2.32-6.49-4.64-12.97-6.75-19.52c-1.18-3.66-1.76-7.5-1.27-11.38c0.52-4.18,2.41-7.52,6.52-9.11
		c2.38-0.92,4.85-0.99,7.02,0.67c1.26,0.97,1.88,2.35,1.46,3.92c-0.42,1.59-1.68,2.37-3.26,2.6c-1.57,0.23-2.85-0.29-4.04-1.35
		c-1.34-1.2-1.91-1.13-2.53,0.57c-0.6,1.62-1.02,3.4-1.06,5.12c-0.09,3.84,2.95,6.32,6.64,5.29c2.02-0.57,3.83-1.9,5.73-2.89
		c0.51-0.27,1.01-0.54,1.84-0.98c-0.77,2.56-2.37,3.66-4.21,4.46c-1.71,0.75-3.5,1.33-5.2,2.11c-1.74,0.8-3.32,1.87-3.46,4.04
		c-0.15,2.18-0.77,4.54,1.84,5.87c0.17,0.08,0.27,0.28,0.41,0.42c1.86,1.71,3.14,1.94,5.33,0.73c1.02-0.57,1.98-1.3,2.84-2.09
		c2.57-2.35,4.5-5.2,6.09-8.29c0.36-0.71,0.81-1.37,1.22-2.05c0.34,0.57,0.32,0.95,0.23,1.31c-1.06,3.94-3.54,6.97-6.28,9.85
		c-1.56,1.64-3.13,3.3-4.41,5.15c-3.04,4.43-1.07,10.28,3.93,12.14c1.01,0.37,1.51,0.12,1.54-0.96c0.15-5.41,2.69-10,5-14.68
		c1.74-3.53,3.53-7.06,4.91-10.73c2.77-7.4,2.46-14.44-3.03-20.75C371.7,249.29,355.71,251.99,350.81,264.92z"/>
	<path class="st0" d="M189.7,168.56c1.48-0.98,2.94-1.98,4.39-3c2.89-2.06,5.71-4.2,8.64-6.2c3.04-2.07,6.32-3.6,10.09-3.83
		c1.53-0.1,1.64-0.42,0.79-1.85c-3.71-6.28-10.23-8.22-15.33-1.09c-1.26,1.76-2.45,3.58-3.71,5.34c-0.57,0.8-1.15,1.67-2.67,1.98
		c0.99-1.54,1.81-2.66,2.46-3.86c0.94-1.72,1.86-3.47,2.6-5.28c0.88-2.15,0.83-4.22-1.07-5.95c-1.92-1.75-3.73-2.81-6.49-1.27
		c-2.7,1.51-3.52,2.43-3.16,5.54c0.11,0.97,0.3,1.97,0.21,2.93c-0.2,2.27-0.87,4.34-3.48,5.9c0.46-1.28,0.81-2.06,1.02-2.88
		c0.69-2.66,1.61-5.3,0.42-8.07c-1.06-2.46-3.36-3.51-5.77-2.43c-2.22,1-3.93,2.61-5,4.83c-0.75,1.56-0.57,1.83,1.12,1.9
		c2.64,0.1,4.28,1.42,4.82,3.87c0.48,2.2-0.34,3.79-2.46,4.77c-2.21,1.02-4.7,0.56-6.14-1.33c-2.01-2.64-3.18-6.45-1.12-10.23
		c1.98-3.63,4.93-6.07,8.69-7.63c3.9-1.61,7.99-1.58,11.9-0.6c5.14,1.29,10.12,3.19,15.18,4.8c5.24,1.66,10.46,3.46,15.77,4.88
		c4.35,1.16,8.78,0.89,13.12-0.49c11.36-3.63,15.96-16.68,9.34-26.61c-4.62-6.93-12.48-9.94-20.65-7.89
		c-5.4,1.36-10.26,3.97-15.17,6.47c-4.31,2.2-8.65,4.29-13.59,4.6c-1.31,0.08-1.4,0.64-0.86,1.74c2.42,4.97,8.33,6.37,12.46,3.3
		c2.12-1.58,4.01-3.49,5.95-5.3c2.76-2.57,5.77-4.65,9.79-4.9c-1.15,0.66-2.31,1.3-3.44,2c-3.61,2.25-7.16,4.59-9.1,8.6
		c-1.12,2.31,1.01,6.78,3.47,7.4c3.26,0.81,6.6-0.84,7.98-4.03c0.59-1.35,0.96-2.8,1.54-4.15c0.89-2.04,1.92-3.99,4.47-4.42
		c-0.33,0.83-0.96,1.44-1.32,2.19c-0.88,1.84-1.89,3.69-2.35,5.65c-0.52,2.24,1.03,5.08,2.91,5.6c2.84,0.8,5.66,0.64,8.2-1.13
		c0.86-0.6,1.25-1.28,0.27-2.13c-0.3-0.26-0.61-0.52-0.83-0.83c-1.05-1.49-1.32-3.04-0.37-4.7c0.76-1.34,1.84-2.02,3.4-1.82
		c1.84,0.23,3.44,1.44,3.63,3.36c0.18,1.8,0.14,3.8-0.48,5.46c-1.67,4.47-7.13,7.31-12.44,6.37c-4.44-0.78-8.86-1.85-13.16-3.21
		c-6.09-1.92-12.02-4.38-18.1-6.33c-7.63-2.45-15.18-2.29-22.27,1.84c-11.19,6.52-13.55,17.67-7.14,27.07
		C171.91,171.22,181.62,173.92,189.7,168.56z"/>
	<path class="st0" d="M256.46,122.62c-6.41,9.15-2.59,21.92,7.78,26.11c4.62,1.86,9.36,2.12,14.21,1.2
		c5.44-1.03,10.61-2.89,15.78-4.82c4.97-1.85,9.99-3.69,15.14-4.93c6.38-1.54,12.63-0.88,17.69,3.87c1.6,1.5,2.98,3.46,3.86,5.47
		c1.49,3.41-0.09,8.27-2.85,10.08c-1.86,1.22-4.57,0.99-6.31-0.54c-1.6-1.4-1.78-3.15-0.57-5.34c0.88-1.6,2.16-2.41,4.04-2.49
		c1.74-0.07,2.16-0.77,1.14-2.16c-1.14-1.55-2.5-3.1-4.1-4.11c-3.21-2.02-6.49-0.31-6.76,3.5c-0.15,2.01,0.31,4.08,0.62,6.11
		c0.15,1,0.6,1.95,1.01,3.26c-2.45-1.91-3.15-3.03-3.23-5.35c-0.05-1.47,0.09-2.95,0.16-4.42c0.1-2.21-0.54-3.33-2.49-4.22
		c-0.89-0.4-1.82-0.76-2.75-1.05c-0.44-0.14-0.99-0.25-1.4-0.12c-3.71,1.2-5.53,4.5-4.14,8.14c0.94,2.45,2.45,4.68,3.69,7.02
		c0.28,0.52,0.5,1.08,0.74,1.62c-0.2,0.12-0.4,0.24-0.59,0.37c-1.25-1.72-2.45-3.49-3.77-5.16c-1.4-1.76-2.77-3.6-4.43-5.09
		c-1.99-1.79-4.48-1.99-6.93-0.94c-2.43,1.05-4.2,2.88-5.5,5.17c-0.56,0.99-0.52,1.71,0.85,1.76c4.33,0.15,7.92,2.2,11.34,4.58
		c3.8,2.64,7.5,5.42,11.31,8.05c2.54,1.75,5.29,3.07,8.47,3.14c7.87,0.16,13.26-3.73,16.77-10.48c3.21-6.18,2.33-13.72-2.38-19.05
		c-6.48-7.33-14.74-9.97-24.26-8.22c-3.94,0.72-7.75,2.19-11.58,3.43c-6.46,2.08-12.84,4.41-19.35,6.32
		c-3.28,0.96-6.71,1.39-10.2,0.42c-4.13-1.15-7.34-4.31-7.71-8.36c-0.14-1.48,0.22-3.16,0.85-4.52c0.86-1.84,3.56-2.44,5.12-1.49
		c1.81,1.11,2.42,3.58,1.29,5.46c-0.3,0.5-0.71,0.95-1.15,1.34c-1.06,0.95-0.69,1.68,0.29,2.36c1.88,1.31,4.01,1.55,6.21,1.36
		c2.83-0.23,4.76-2.1,4.84-4.94c0.03-1.23-0.22-2.59-0.75-3.69c-0.86-1.81-2.06-3.47-3.24-5.4c2.61,0.51,3.71,2.31,4.57,4.31
		c0.66,1.54,1.13,3.15,1.79,4.68c0.81,1.9,2.06,3.32,4.29,3.63c2.28,0.31,4.26,0.39,5.97-1.81c1.92-2.49,2.25-3.56,0.53-6.3
		c-1.77-2.83-4.31-4.84-7.03-6.65c-1.55-1.03-3.17-1.94-4.75-2.91c0.03-0.13,0.06-0.27,0.1-0.4c0.28,0,0.58-0.06,0.83,0.01
		c3.59,1.03,6.55,3.07,9.23,5.62c1.85,1.76,3.66,3.62,5.76,5.04c4.25,2.87,9.4,1.43,11.85-3.06c0.93-1.7,0.82-1.75-1.06-2.17
		c-2.58-0.57-5.2-1.14-7.64-2.1c-2.92-1.15-5.63-2.83-8.51-4.09c-3.78-1.66-7.53-3.47-11.47-4.64
		C269.22,112.5,261.51,115.41,256.46,122.62z"/>
	<path class="st0" d="M243.49,377.52c4.53-6.18,4.13-15.36-0.91-21.11c-5.42-6.17-12.33-7.71-20.11-6.42
		c-5.27,0.87-10.29,2.59-15.28,4.45c-3.96,1.48-7.94,2.93-11.96,4.25c-4.25,1.39-8.63,2.14-13.1,1.57
		c-5.76-0.73-10.11-3.71-12.78-8.9c-1.59-3.08-0.9-7.52,1.34-10c1.96-2.17,5.23-2.27,7.41-0.22c1.88,1.76,1.89,4.22,0.04,6.3
		c-1,1.12-2.22,1.57-3.71,1.3c-1.4-0.25-1.57,0.56-1.17,1.57c0.79,1.98,2.19,3.49,4,4.6c3.32,2.04,6.63,0.49,7.03-3.45
		c0.17-1.63-0.07-3.33-0.33-4.97c-0.22-1.39-0.75-2.73-1.33-4.75c2.57,1.85,3.36,3.86,3.45,6.2c0.05,1.37-0.15,2.75-0.17,4.13
		c-0.03,2.75,3.77,5.9,6.45,5.39c3.07-0.59,5.5-4.1,4.54-7.12c-0.8-2.5-2.17-4.81-3.33-7.19c-0.43-0.88-0.98-1.71-1.48-2.56
		c0.2-0.13,0.41-0.25,0.61-0.38c0.84,1.05,1.73,2.08,2.51,3.17c0.92,1.28,1.64,2.71,2.67,3.9c1.14,1.32,2.34,2.75,3.82,3.6
		c4.21,2.41,10.08-0.08,11.94-4.85c0.38-0.96-0.09-1.23-0.92-1.31c-5-0.48-9.11-2.92-13.05-5.8c-3.5-2.56-7.04-5.05-10.62-7.49
		c-7.33-4.99-14.69-2.58-19.38,1.41c-7.45,6.33-9.47,17.15-2.64,25.3c4.54,5.42,10.38,8.29,17.43,8.74
		c5.22,0.33,10.14-0.94,15.02-2.6c7.63-2.6,15.23-5.34,22.98-7.56c2.93-0.84,6.26-0.79,9.34-0.5c4.6,0.44,8.05,4.34,8.52,8.88
		c0.21,1.97-0.26,3.74-1.74,5.11c-2.14,1.98-4.87,1.28-5.91-1.44c-0.73-1.91-0.17-3.51,1.23-4.82c1.16-1.08,0.86-1.79-0.31-2.52
		c-1.65-1.04-3.45-1.35-5.37-1.29c-4.04,0.14-6.56,3.46-5.23,7.31c0.63,1.81,1.89,3.41,2.87,5.1c0.25,0.43,0.51,0.85,0.99,1.67
		c-2.47-0.68-3.63-2.07-4.4-3.82c-0.67-1.53-1.2-3.13-1.85-4.66c-0.79-1.85-1.76-3.61-4-3.96c-2.41-0.38-4.68-0.71-6.55,1.79
		c-1.71,2.29-2.14,3.3-0.78,5.81c1.66,3.06,4.36,5.03,7.19,6.86c1.64,1.06,3.35,2,5.03,2.99c-0.09,0.15-0.17,0.31-0.26,0.46
		c-0.56-0.12-1.13-0.2-1.67-0.38c-3.37-1.09-6.03-3.23-8.56-5.63c-1.85-1.75-3.71-3.59-5.84-4.95c-4.29-2.74-10.23-0.6-12.03,4.09
		c-0.37,0.97-0.19,1.47,0.94,1.57c1.36,0.12,2.81,0.11,4.06,0.57c3.22,1.19,6.37,2.56,9.52,3.95c4.32,1.9,8.49,4.18,12.92,5.77
		C229.84,388,237.73,385.38,243.49,377.52z"/>
	<path class="st0" d="M329.78,332.89c-5.92-5.1-12.43-5.58-19.08-1.54c-2.43,1.48-4.73,3.2-7.03,4.89
		c-5.16,3.79-10.12,7.94-16.88,8.55c-1,0.09-1.03,0.74-0.6,1.48c3.33,5.65,9.76,8.35,14.88,2c1.17-1.45,2.1-3.09,3.21-4.6
		c0.89-1.21,1.89-2.33,2.85-3.49c0.19,0.13,0.37,0.27,0.56,0.4c-0.53,0.88-1.12,1.73-1.58,2.64c-1.14,2.28-2.33,4.54-3.27,6.9
		c-0.79,1.97-0.48,3.87,1.31,5.33c1.8,1.47,3.6,2.8,6.01,1.19c0.24-0.16,0.54-0.23,0.81-0.35c2.02-0.89,2.7-1.95,2.62-4.12
		c-0.05-1.18-0.28-2.36-0.22-3.53c0.13-2.48,0.83-4.74,3.57-6.67c-0.47,1.47-0.81,2.35-1.04,3.26c-0.64,2.47-1.43,4.94-0.45,7.51
		c0.78,2.03,2.48,3.36,4.13,3.24c2.56-0.18,6.26-3.3,6.91-5.83c0.29-1.14,0.01-1.75-1.32-1.42c-1.39,0.34-2.52-0.22-3.48-1.16
		c-1.83-1.77-1.97-4.85-0.33-6.36c2.38-2.19,6.05-2.03,7.82,0.51c2.16,3.11,2.85,6.44,0.9,9.98c-1.88,3.41-4.64,5.81-8.17,7.39
		c-4.36,1.94-8.92,1.81-13.31,0.63c-5.59-1.5-11.03-3.58-16.53-5.4c-3.45-1.14-6.87-2.43-10.38-3.36
		c-4.98-1.32-10.01-2.11-15.14-0.55c-7.26,2.21-11.82,6.88-13.2,14.39c-1.29,7.02,1.6,12.53,6.78,16.95
		c5.42,4.63,11.76,5.54,18.31,3.14c4.97-1.82,9.7-4.31,14.5-6.56c4.01-1.88,7.96-3.93,12.56-3.95c1.31,0,1.46-0.56,0.98-1.68
		c-2.15-5.01-8.19-6.82-12.59-3.58c-2.05,1.51-3.84,3.37-5.72,5.11c-2.84,2.61-5.86,4.85-9.9,5.23c0.93-0.84,1.98-1.47,3.04-2.1
		c3.24-1.91,6.31-4.06,8.6-7.1c0.95-1.25,2.02-2.86,1.22-4.34c-0.91-1.66-2.25-3.36-3.84-4.3c-2.13-1.26-6.35,0.56-7.59,2.95
		c-0.81,1.56-1.35,3.27-2.02,4.91c-0.84,2.05-1.87,3.92-4.58,4.69c1.3-2.31,2.5-4.3,3.55-6.36c0.81-1.6,0.57-3.25-0.28-4.82
		c-1.8-3.31-8.92-3.89-11.1-0.84c-0.21,0.3,0,1.06,0.23,1.49c0.46,0.85,1.23,1.55,1.6,2.43c0.71,1.67-0.21,4.03-1.73,4.9
		c-1.41,0.81-3.65,0.34-4.71-1.25c-0.63-0.94-1.1-2.13-1.19-3.25c-0.28-3.63,1.22-6.5,4.22-8.56c2.65-1.82,5.64-2.15,8.76-1.95
		c5.37,0.36,10.41,2.02,15.43,3.78c6.12,2.14,12.16,4.62,18.41,6.29c8.43,2.25,16.45,0.94,23.38-4.77
		c3.26-2.69,5.77-5.98,6.68-10.19C337.93,343.68,335.32,337.66,329.78,332.89z"/>
	<path class="st0" d="M162.91,338.37c0.2-0.46,0.12-1.05,0.18-1.58c-0.46,0.08-0.95,0.11-1.39,0.26c-4.37,1.55-8.73,3.17-13.37,1.86
		c-1.68-0.16-2.09,0.27-1.34,1.54c0.56,0.95,1.42,1.99,2.39,2.36c1.26,0.48,1.7,1.03,1.59,2.32c-0.12,1.38,0.39,2.86,1.74,3.07
		c2.35,0.36,4.15,1.3,5.5,3.22c0.15,0.22,0.49,0.32,0.76,0.43c1.37,0.54,2.56,0.32,2.19-1.71
		C160.4,346.04,161.27,342.14,162.91,338.37z"/>
	<path class="st0" d="M387.5,248.64c-1.07-1.31-1.84-2.5-0.67-4.45c-0.53-0.89-1.11-1.85-1.68-2.82c-0.75,0.52-1.63,0.93-2.23,1.59
		c-2.61,2.9-5.57,5.26-9.33,6.48c-0.31,0.1-0.54,0.43-0.8,0.66c0.26,0.26,0.49,0.59,0.8,0.77c0.68,0.39,1.4,0.72,2.11,1.06
		c3.32,1.6,6.27,3.67,8.48,6.69c0.41,0.56,1.07,0.95,1.61,1.41c0.42-0.75,0.99-1.45,1.2-2.25c0.15-0.6,0.02-1.45-0.32-1.97
		c-0.74-1.13-0.49-1.79,0.4-2.75C388.68,251.34,388.79,250.23,387.5,248.64z"/>
	<path class="st0" d="M149.53,160.81c4.49-0.35,8.81,0.22,12.9,2.18c0.24,0.11,0.55,0.07,0.82,0.09c0.03-0.35,0.19-0.75,0.07-1.05
		c-1.79-4.71-3.44-9.43-1.91-14.88c-0.34-0.18-0.81-0.65-1.13-0.56c-0.72,0.2-1.69,0.51-1.99,1.08c-1.03,1.97-2.2,3.5-4.7,3.4
		c-0.31-0.01-0.83,0.36-0.92,0.66c-0.82,2.81-2.55,5.02-4.37,7.25C147.52,159.93,148.23,160.91,149.53,160.81z"/>
	<path class="st0" d="M116.67,257.61c2.68-3.24,5.8-5.84,9.87-7.15c0.25-0.08,0.43-0.34,0.89-0.72c-0.93-0.44-1.68-0.83-2.45-1.16
		c-3.57-1.56-6.65-3.77-9.07-6.85c-0.36-0.46-0.64-0.99-1.02-1.44c-0.5-0.6-1.16-0.53-1.37,0.15c-0.31,1-0.76,2.24-0.41,3.08
		c0.68,1.63,0.71,2.76-0.65,4.06c-1.08,1.04-1.16,2.53-0.09,3.73c1.1,1.24,1.84,2.45,1.07,4.16c-0.16,0.37,0.04,0.99,0.24,1.41
		c0.32,0.69,0.78,1.31,1.18,1.96C115.48,258.44,116.22,258.15,116.67,257.61z"/>
	<path class="st0" d="M337.63,337.21c-0.32-0.17-0.73-0.14-1.1-0.21c-0.01,0.44-0.14,0.92-0.01,1.31c1.58,4.46,3.21,8.9,1.91,13.97
		c0.06,0.27,0.07,1.03,0.31,1.11c0.46,0.16,1.19,0.11,1.57-0.17c0.76-0.56,1.63-1.23,1.97-2.05c0.49-1.18,1.1-1.65,2.37-1.68
		c1.44-0.03,3.03-0.68,3.17-2.14c0.22-2.24,1.17-3.78,2.94-4.97c0.15-0.1,0.29-0.3,0.33-0.48c0.17-0.73,0.29-1.46,0.44-2.2
		c-0.64-0.12-1.28-0.37-1.91-0.32C345.44,339.7,341.41,339.2,337.63,337.21z"/>
	<path class="st0" d="M249.24,125.54c0.16,0.42,0.47,0.79,0.71,1.19c0.36-0.39,0.83-0.72,1.05-1.18c1.88-3.93,4.02-7.65,7.71-10.23
		c0.51-0.36,0.85-0.97,1.26-1.46c-0.65-0.38-1.27-0.96-1.97-1.09c-0.72-0.14-1.62-0.05-2.26,0.28c-1.12,0.59-1.83,0.49-2.83-0.38
		c-2.02-1.76-2.83-1.75-4.87-0.04c-0.94,0.78-1.76,1.13-2.91,0.79c-0.47-0.14-0.96-0.18-1.81-0.33c-0.58,0.34-1.39,0.81-2.2,1.28
		c0.46,0.67,0.82,1.46,1.41,1.99C245.42,118.96,247.85,121.86,249.24,125.54z"/>
	<path class="st0" d="M336.86,161.65c-0.21,0.4-0.21,0.9-0.3,1.36c0.54-0.04,1.13,0.03,1.62-0.15c4.38-1.54,8.76-2.95,13.67-1.74
		c0.31-0.07,1.11-0.1,1.16-0.3c0.12-0.48,0.03-1.16-0.25-1.57c-0.48-0.71-1.05-1.57-1.78-1.85c-1.48-0.55-2.15-1.27-2.21-2.95
		c-0.03-0.88-0.96-2.33-1.68-2.46c-2.34-0.43-4.08-1.52-5.47-3.36c-0.16-0.21-0.51-0.28-0.78-0.4c-1.63-0.72-2.15-0.38-1.96,1.42
		C339.33,153.85,338.82,157.86,336.86,161.65z"/>
	<path class="st0" d="M257.61,384.01c-3.3-2.63-5.74-5.85-7.04-9.9c-0.1-0.31-0.44-0.55-0.66-0.82c-0.27,0.24-0.59,0.44-0.79,0.72
		c-0.27,0.4-0.45,0.87-0.66,1.31c-1.89,3.93-4.11,7.59-8.08,9.82c-1.01,0.57-0.93,1.21,0.04,1.7c1.17,0.58,2.43,0.92,3.66,0.22
		c0.99-0.56,1.66-0.42,2.58,0.31c2.26,1.78,2.96,1.71,5.41-0.19c0.77-0.6,1.41-0.97,2.37-0.53c0.43,0.2,0.94,0.22,1.38,0.32
		c0.45-0.08,0.88-0.05,1.2-0.23c0.58-0.32,1.37-0.67,1.53-1.18C258.68,385.17,258.08,384.38,257.61,384.01z"/>
	<path class="st0" d="M246.52,354.01c-0.05,1.56,1.5,3.2,3.15,3.3c1.74,0.11,3.48-1.5,3.5-3.24c0.02-1.59-1.55-3.26-3.12-3.33
		C248.36,350.66,246.58,352.32,246.52,354.01z"/>
	<path class="st0" d="M253.16,145.94c-0.06-1.59-1.68-3.05-3.38-3.03c-1.75,0.02-3.26,1.46-3.26,3.12c-0.01,1.67,1.48,3.15,3.19,3.2
		C251.5,149.26,253.22,147.62,253.16,145.94z"/>
	<path class="st0" d="M350.46,250.05c-0.02,1.72,1.72,3.37,3.5,3.32c1.65-0.05,3.13-1.62,3.13-3.33c0-1.7-1.51-3.14-3.28-3.11
		C352.08,246.96,350.48,248.45,350.46,250.05z"/>
	<path class="st0" d="M179.81,176.69c0.08-1.78-1.5-3.43-3.29-3.45c-1.55-0.02-3.17,1.59-3.23,3.22c-0.05,1.55,1.56,3.25,3.16,3.33
		C177.98,179.88,179.74,178.25,179.81,176.69z"/>
	<path class="st0" d="M142.87,249.9c-0.01,1.62,1.58,3.26,3.19,3.28c1.63,0.02,3.29-1.51,3.37-3.11c0.09-1.66-1.37-3.1-3.2-3.16
		C144.41,246.85,142.88,248.22,142.87,249.9z"/>
	<path class="st0" d="M326.45,176.71c0.11-1.8-1.18-3.35-2.89-3.47c-1.67-0.12-3.22,1.29-3.35,3.04c-0.13,1.7,1.26,3.37,2.9,3.48
		C324.8,179.87,326.35,178.46,326.45,176.71z"/>
	<path class="st0" d="M173.29,323.49c-0.04,1.72,1.69,3.4,3.39,3.3c1.74-0.1,2.98-1.51,2.93-3.34c-0.05-1.85-1.36-3.18-3.1-3.15
		C174.96,320.33,173.33,321.94,173.29,323.49z"/>
	<path class="st0" d="M320.21,323.58c0.02,1.74,1.48,3.17,3.21,3.16c1.69-0.01,3.21-1.52,3.24-3.19c0.03-1.69-1.43-3.06-3.27-3.06
		C321.47,320.49,320.18,321.74,320.21,323.58z"/>
</g>
</svg>
