<?xml version="1.0" encoding="utf-8"?>
<!-- Generator: Adobe Illustrator 26.5.0, SVG Export Plug-In . SVG Version: 6.00 Build 0)  -->
<svg version="1.1" id="Layer_1" xmlns="http://www.w3.org/2000/svg" xmlns:xlink="http://www.w3.org/1999/xlink" x="0px" y="0px"
	 viewBox="0 0 500 500" style="enable-background:new 0 0 500 500;" xml:space="preserve">
<style type="text/css">
	.st0{fill:#131313;}
</style>
<g>
	<path class="st0" d="M400,325V175c0-13.81-11.19-25-25-25H125c-13.81,0-25,11.19-25,25v150c0,13.81,11.19,25,25,25h250
		C388.81,350,400,338.81,400,325z M125,342.5c-9.65,0-17.5-7.85-17.5-17.5V175c0-9.65,7.85-17.5,17.5-17.5h250
		c9.65,0,17.5,7.85,17.5,17.5v150c0,9.65-7.85,17.5-17.5,17.5H125z"/>
	<path class="st0" d="M181.75,291.5c-0.45-2.56-1.78-4.54-4.05-5.84c-0.67-0.38-1.37-0.69-2.12-1.07c0.14-0.4,0.26-0.73,0.37-1.06
		c1.33-3.93,0.02-7.31-2.67-10.01c-3.01-3.02-6.83-3.7-10.77-1.97c-2.14,0.94-4.06,2.47-4.64,4.92c-0.65,2.71-0.21,4.5,2.44,5.53
		c1.65,0.64,3.04,0.48,4.35-0.6c1.21-1.01,1.37-2.39,0.91-3.77c-0.3-0.89,0.12-1.08,0.74-1.23c2.03-0.5,4.36,1.3,4.32,3.39
		c-0.03,1.86-0.6,3.53-2.08,4.78c-1.45,1.22-3.09,2.03-5.02,2.12c-2.96,0.14-5.53-0.8-7.76-2.7c-2.73-2.34-4.25-5.4-5.2-8.82
		c-0.62-2.23-0.46-4.36,0.23-6.52c0.26-0.8,0.47-1.61,0.64-2.42c0.69-3.35-0.26-5.66-3.08-7.58c-2.26-1.54-6.29-1.59-8.51-0.11
		c-1.44,0.96-1.81,2.29-1.05,3.69c0.7,1.27,2.33,1.79,3.73,1.18c0.38-0.17,0.75-0.37,1.12-0.56c0.69-0.36,1.12-0.1,1.45,0.54
		c0.57,1.13,0.39,2.79-0.6,3.63c-0.66,0.56-1.47,1.05-2.3,1.29c-1.6,0.48-3.38,0.97-4.92,0.23c-2.77-1.31-4.49-3.63-4.65-6.75
		c-0.28-5.14,4.92-10.5,11.07-9.42c4.97,0.87,8.58,3.82,10.24,8.75c0.85,2.52,1.07,5.14,0.67,7.79c-0.14,0.88-0.19,1.79-0.2,2.68
		c-0.01,0.79,0.34,0.99,1,0.66c0.27-0.13,0.54-0.3,0.73-0.51c1.63-1.77,3.14-3.62,3.79-6.01c0.15-0.56,0.33-1.12,0.49-1.67
		c0.15,0.03,0.22,0.02,0.26,0.05c0.14,0.11,0.27,0.23,0.38,0.37c1.61,2.05,3.78,3.25,6.13,4.22c4.37,1.79,8.9,2.22,13.56,1.66
		c1.04-0.13,2.09-0.14,3.06-0.2c-0.85,1.56-1.8,2.95-2.4,4.47c-0.91,2.33-0.91,4.77-0.35,7.23c0.75,3.32,2.36,6.03,5.36,7.7
		c2.82,1.57,4.78,3.88,6.45,6.57c1.74,2.81,2.2,5.76,1.68,8.95c-0.09,0.53-0.14,1.07-0.17,1.6c-0.03,0.63,0.37,0.9,0.92,0.79
		c0.99-0.2,2.03-0.35,2.95-0.75c2.29-1.02,4.32-2.5,5.29-4.87c1.48-3.6,0.06-7.44-2.43-9.42c-1.02-0.81-2.14-1.48-3.31-2.28
		c0.27-0.22,0.48-0.4,0.71-0.56c2.96-2.17,4.13-5.23,3.23-8.65c-0.93-3.49-3.43-5.59-6.95-6.16c-1.43-0.23-2.7,0.16-3.64,1.42
		c-0.88,1.18-1.01,2.41-0.44,3.71c0.68,1.57,2.55,2.46,3.93,1.94c0.4-0.15,0.82-0.73,1.25-0.18c0.28,0.36,0.5,0.85,0.52,1.3
		c0.04,0.8-0.32,1.49-0.96,2.03c-1.29,1.11-2.73,1.38-4.35,0.91c-1.94-0.56-3.84-1.31-4.62-3.3c-1.14-2.88-1.16-7.02,2.14-9.65
		c2.12-1.69,4.37-3.28,7.31-2.7c1.57,0.31,3.09,0.88,4.6,1.44c1.53,0.56,2.63,1.67,3.28,3.15c0.82,1.86,1.69,3.71,2.26,5.64
		c0.98,3.32,1.62,6.75,2.65,10.05c1.79,5.69,4.92,10.37,10.7,12.72c3.23,1.31,6.54,2.38,10.08,1.16c0.05-0.02,0.17,0.12,0.29,0.22
		c-0.26,0.46-0.55,0.91-0.77,1.39c-2.88,6.31-2.17,11.56,3.2,16.13c1.18,1.01,2.42,1.97,3.72,2.81c4.34,2.81,7.91,6.36,10.79,10.65
		c0.4,0.59,0.84,1.16,1.31,1.7c0.48,0.56,1.01,0.59,1.49-0.05c0.47-0.62,0.95-1.24,1.39-1.88c2.88-4.22,6.5-7.64,10.9-10.25
		c1.23-0.73,2.43-1.54,3.56-2.42c3.14-2.46,5.08-5.6,4.82-9.71c-0.16-2.52-0.88-4.94-2.15-7.16c-0.19-0.33-0.35-0.67-0.64-1.22
		c0.61,0.14,0.95,0.2,1.28,0.29c1.7,0.5,3.42,0.59,5.14,0.19c1.05-0.24,2.09-0.51,3.12-0.79c4.3-1.19,7.49-3.76,9.85-7.56
		c1.85-2.98,2.5-6.29,3.21-9.63c0.72-3.38,1.51-6.77,2.57-10.05c0.47-1.48,1.44-2.98,2.6-4c1.93-1.68,4.46-2.19,6.98-2.54
		c1.91-0.26,3.36,0.73,4.82,1.64c3.28,2.05,4.89,5.13,4.25,9.3c-0.4,2.56-1.87,3.95-4.06,4.73c-2.04,0.73-4.12,0.82-5.88-0.83
		c-0.84-0.79-1.15-1.95-0.71-2.94c0.23-0.53,0.5-0.91,1.23-0.54c0.49,0.25,1.17,0.44,1.67,0.31c1.91-0.49,3.02-2.44,2.6-4.32
		c-0.36-1.64-1.93-2.66-3.87-2.38c-3.35,0.48-6.05,2.64-6.73,5.67c-0.82,3.66-0.21,6.02,2.78,8.48c0.35,0.28,0.71,0.56,1.15,0.9
		c-0.9,0.56-1.65,1.04-2.4,1.51c-3.81,2.41-4.79,7.68-2.57,11.63c1.82,3.25,4.76,5.33,8.45,6.18c0.94,0.22,1.21-0.02,1.08-1.01
		c-0.12-0.89-0.41-1.75-0.5-2.64c-0.18-1.72-0.65-3.52-0.32-5.15c0.92-4.46,2.94-8.34,7.15-10.68c0.83-0.46,1.66-0.98,2.36-1.62
		c1.89-1.76,3.04-3.93,3.57-6.48c0.82-4,0.19-7.6-2.49-10.76c-0.14-0.17-0.24-0.37-0.52-0.82c1.25,0.13,2.24,0.25,3.24,0.32
		c3.22,0.25,6.46,0.59,9.66-0.12c3.89-0.87,7.63-2.1,10.46-5.16c0.09-0.09,0.29-0.08,0.51-0.13c0.21,0.81,0.39,1.56,0.6,2.3
		c0.6,2.14,1.97,3.81,3.44,5.39c0.29,0.32,0.82,0.42,1.23,0.61c0.06-0.43,0.19-0.87,0.19-1.3c-0.03-1.62-0.21-3.24-0.13-4.85
		c0.16-3.32,1.18-6.37,3.59-8.76c1.89-1.87,4.16-3.27,6.61-4.24c1.3-0.51,2.81-0.79,4.2-0.72c3.97,0.2,7.09,1.93,8.99,5.58
		c2.05,3.92,1.11,7.05-1.76,9.72c-2.35,2.18-6.46,2.37-9.23,0.71c-1.81-1.08-2.31-2.43-1.55-4.22c0.63-1.48,1.03-1.7,2.4-0.9
		c1.8,1.05,3.79,0.21,4.72-1.19c0.85-1.29,0.78-2.14-0.38-3.14c-0.4-0.34-0.87-0.67-1.36-0.84c-4.02-1.37-9.91,0.76-11.36,5.08
		c-0.56,1.68-0.39,3.32,0.02,4.95c1.01,4.03,0.39,7.85-1.41,11.51c-1.54,3.11-3.81,5.41-7.22,6.58c-4.63,1.6-10.92-1.39-11.45-6.2
		c-0.28-2.51,1.1-4.26,3.63-4.09c1.22,0.08,1.45,0.38,1.03,1.53c-0.5,1.35-0.15,2.54,0.78,3.46c1.08,1.08,2.41,1.44,3.96,0.84
		c1.57-0.61,2.43-1.63,2.55-3.33c0.22-3.14-1.39-5.18-4.27-6.91c-2.31-1.39-4.88-1.17-7.27-0.15c-1.29,0.55-2.63,1.33-3.51,2.38
		c-2.14,2.55-3.07,5.53-1.93,8.87c0.24,0.71,0.15,1.14-0.59,1.39c-0.34,0.11-0.66,0.28-0.99,0.43c-2.36,1.12-3.7,2.94-3.87,5.59
		c-0.1,1.62,0.19,1.93,1.66,1.31c2.63-1.11,5.35-1.24,8.11-1.05c1.61,0.11,3.2,0.39,4.8,0.62c2.79,0.41,5.57,0.72,8.34-0.23
		c3.33-1.13,6.54-2.49,8.64-5.48c2.11-3.02,3.62-6.33,4.12-10.04c0.04-0.3,0.05-0.6,0.12-0.89c0.27-1.03,0.5-1.16,1.5-0.85
		c0.17,0.05,0.33,0.15,0.5,0.19c4.49,1.05,8.8,1.12,12.43-2.36c0.47-0.45,1.02-0.84,1.52-1.26c3.76-3.16,4.56-9.11,3.28-12.63
		c-1.36-3.73-3.76-6.31-7.22-8.06c-0.39-0.19-0.74-0.46-1-0.62c1.68-1.43,3.48-2.59,4.81-4.16c3.1-3.65,3.94-7.84,2.66-12.55
		c-0.94-3.47-3.2-5.8-5.81-7.96c-0.35-0.29-0.84-0.47-1.29-0.59c-2.41-0.64-4.83-0.82-7.27-0.19c-1.93,0.5-1.95,0.48-2.3-1.51
		c-0.71-4.05-2.43-7.68-5.09-10.75c-3.3-3.82-7.78-5.49-12.71-5.83c-2.07-0.14-4.18,0.19-6.26,0.44c-4.14,0.49-8.22,0.6-12.24-0.8
		c-1.32-0.46-1.68-0.1-1.39,1.24c0.53,2.45,2.02,4.16,4.23,5.25c0.74,0.36,1.52,0.63,2.27,0.94c-1.48,4.95-0.08,6.82,1.72,9.54
		c1.68,2.54,7.35,4.31,10.01,3.67c2.4-0.58,4.25-1.91,5.84-3.63c2.42-2.64,1.44-6.51-1.77-7.7c-1.61-0.59-2.99-0.32-4.15,0.78
		c-1.1,1.03-1.33,2.37-0.64,3.78c0.23,0.47,0.15,0.78-0.34,1c-2.15,0.95-5.75-0.74-5.4-3.61c0.27-2.18,1.24-3.81,3.1-4.97
		c3.9-2.42,8.12-1.77,11.72,0.99c3.99,3.05,5.65,7.46,6.22,12.32c0.07,0.62-0.14,1.3-0.3,1.93c-0.38,1.44-0.88,2.86-1.22,4.32
		c-0.52,2.28-0.24,4.44,1.51,6.16c1.95,1.93,4.37,2.63,7.06,2.44c1.21-0.09,2.33-0.5,3.32-1.25c1.17-0.89,1.48-1.96,0.91-3.13
		c-0.54-1.11-1.76-1.7-3.01-1.4c-0.52,0.12-1.01,0.37-1.51,0.56c-1.13,0.45-2.08,0.02-2.27-1.14c-0.23-1.42-0.03-2.71,1.21-3.72
		c1.08-0.88,2.31-1.24,3.63-1.39c1.24-0.14,2.55-0.46,3.7,0.22c3.56,2.1,6.15,6.05,4.05,10.66c-2.65,5.83-8.57,7.3-13.39,5.33
		c-2.5-1.02-4.66-2.73-6.33-4.9c-2.59-3.37-3.13-7.29-2.83-11.4c0.06-0.89,0.18-1.79,0.16-2.68c-0.01-0.65-0.42-0.85-0.97-0.53
		c-0.31,0.18-0.6,0.41-0.84,0.67c-1.44,1.62-2.76,3.32-3.25,5.5c-0.15,0.66-0.36,1.31-0.54,1.97c-0.13,0.03-0.27,0.06-0.4,0.09
		c-0.17-0.25-0.31-0.52-0.5-0.75c-1.85-2.15-4.23-3.43-6.86-4.4c-4.03-1.48-8.15-1.8-12.38-1.34c-1.4,0.15-2.81,0.24-4.49,0.37
		c0.43-0.54,0.71-0.84,0.93-1.17c0.62-0.95,1.43-1.84,1.77-2.89c1.47-4.42,1.34-8.76-1.49-12.66c-0.82-1.13-1.98-2.08-3.15-2.85
		c-1.98-1.29-3.81-2.66-5.18-4.63c-2.4-3.46-3.97-7.1-2.94-11.44c0.11-0.46,0.11-0.95,0.11-1.43c0-1.1-0.23-1.27-1.29-1.06
		c-2.76,0.56-4.96,2.07-6.73,4.18c-1.74,2.07-2.04,4.5-1.36,7.08c0.7,2.6,2.41,4.34,4.68,5.64c0.48,0.27,1.13,0.37,1.36,1.06
		c-0.35,0.25-0.64,0.46-0.94,0.66c-2.53,1.68-3.62,4.01-3.35,7.05c0.41,4.48,5,7.66,9.06,6.94c2.51-0.44,3.61-3.46,2.02-5.44
		c-1.03-1.29-2.43-1.66-3.94-1.05c-0.83,0.34-1.19,0.2-1.52-0.59c-0.39-0.92-0.05-2.01,0.83-2.7c1.95-1.53,4.05-1.29,6.1-0.37
		c1.23,0.55,2.61,1.18,3.04,2.61c1.29,4.26,0.93,7.74-2.68,10.49c-1.7,1.3-3.58,2.53-5.81,2.58c-5.04,0.11-8.66-2.35-10.61-7.01
		c-0.11-0.27-0.24-0.55-0.33-0.83c-0.86-2.8-1.74-5.59-2.55-8.4c-0.74-2.58-1.17-5.25-2.51-7.65c-2.05-3.67-4.48-6.95-8.52-8.63
		c-2.38-0.99-4.79-1.94-7.42-1.89c-1.28,0.03-2.55,0.32-3.98,0.51c0.28-0.46,0.52-0.8,0.71-1.16c2.93-5.54,2.84-10.98-2.04-15.52
		c-1.44-1.34-3.09-2.45-4.67-3.62c-2.75-2.02-5.6-3.92-7.71-6.67c-1.13-1.47-2.29-2.92-3.44-4.37c-0.81-1.02-0.94-1.03-1.74-0.08
		c-0.81,0.96-1.63,1.92-2.38,2.93c-2.26,3.03-5.14,5.32-8.39,7.2c-1.29,0.75-2.59,1.52-3.81,2.37c-4.05,2.83-6.31,7.18-4.97,12.46
		c0.48,1.87,1.2,3.69,1.81,5.53c-0.92-0.2-1.95-0.57-2.99-0.62c-4.02-0.18-7.78,1.02-11.01,3.23c-3.92,2.68-6.3,6.62-7.52,11.24
		c-1.12,4.27-2.22,8.56-3.52,12.78c-0.99,3.23-3.2,5.25-6.52,6.34c-4.27,1.4-7.57,0.16-10.49-2.93c-1.66-1.75-2.19-3.86-1.86-6.13
		c0.18-1.26,0.51-2.73,1.31-3.62c1.52-1.7,3.69-2.41,6-2.33c1.27,0.05,2.26,0.8,3,1.76c0.66,0.85,0.59,2.05-0.09,2.83
		c-0.17,0.2-0.69,0.37-0.85,0.27c-1.1-0.77-2.02-0.33-2.98,0.27c-1.61,1-2.17,2.37-1.58,3.92c0.49,1.3,2.1,2.09,3.73,1.8
		c2.18-0.4,4.05-1.28,5.54-3.03c2.81-3.3,2.42-7.97-0.98-10.66c-0.35-0.28-0.68-0.59-1.09-0.94c1.09-0.7,2.09-1.25,2.97-1.95
		c3.53-2.74,4.41-7.24,2.69-10.98c-1.46-3.17-4.13-5.39-7.68-6.26c-1-0.24-1.25-0.05-1.14,0.91c0.13,1.13,0.33,2.25,0.45,3.38
		c0.19,1.73,0.41,3.48-0.2,5.16c-1.45,4.02-3.46,7.66-7.46,9.71c-3.85,1.96-5.83,5.23-6.45,9.35c-0.48,3.24,0.02,6.33,2.22,8.95
		c0.23,0.28,0.42,0.6,0.72,1.02c-1.48-0.21-2.71-0.47-3.96-0.54c-3.04-0.18-6.09-0.52-9.11,0.22c-3.82,0.94-7.49,2.15-10.12,5.35
		c-0.06,0.08-0.21,0.08-0.28,0.1c-0.61-1.59-1.05-3.29-1.89-4.75c-0.82-1.4-1.66-2.96-3.62-3.82c0.07,1.56,0.18,2.81,0.18,4.05
		c0,1.55,0.07,3.12-0.16,4.64c-0.42,2.79-1.61,5.28-3.81,7.12c-1.24,1.03-2.6,1.92-3.97,2.77c-3.94,2.44-10.96,2.46-14.16-3.82
		c-1.49-2.94-1.3-5.79,0.73-8.42c1.87-2.43,4.35-3.23,7.32-2.52c1.11,0.26,2.22,0.5,3.09,1.33c1.04,0.99,1.33,2.32,0.74,3.6
		c-0.55,1.17-1.28,1.4-2.39,0.74c-1.75-1.05-3.52-0.7-4.69,0.93c-1.37,1.89-0.64,3.81,1.63,4.36c1.54,0.37,3.05,0.4,4.61,0.04
		c4.28-0.99,7.7-4.34,6.62-9.61c-0.08-0.35-0.09-0.72-0.19-1.06c-0.69-2.21-0.34-4.37,0.26-6.53c0.75-2.68,1.83-5.18,3.66-7.32
		c2.28-2.66,5.18-4.02,8.68-3.88c3.75,0.16,6.85,3.11,7.07,6.61c0.15,2.45-1.63,4.09-4.08,3.76c-1.14-0.15-1.16-0.2-0.76-1.32
		c0.86-2.35-0.96-5.09-3.28-4.69c-2.25,0.38-3.65,1.07-4.06,3.85c-0.4,2.71,1.56,5.67,4.27,7.06c2.59,1.32,5,0.75,7.41-0.24
		c4.04-1.68,6.73-7.02,5.45-11.33c-0.22-0.75-0.08-1.12,0.63-1.35c0.34-0.11,0.66-0.28,0.97-0.46c2.54-1.45,3.88-3.66,4.03-6.56
		c0.06-1.17-0.23-1.33-1.4-0.91c-1.07,0.38-2.11,0.86-3.2,1.12c-3.09,0.74-6.17,0.41-9.26-0.14c-2.77-0.49-5.56-0.82-8.32,0.18
		c-3,1.08-5.99,2.22-8.07,4.78c-2.68,3.3-4.62,6.97-5.18,11.26c-0.04,0.29-0.05,0.6-0.1,0.89c-0.1,0.58-0.36,0.77-1,0.59
		c-1.26-0.35-2.54-0.76-3.83-0.84c-2.91-0.19-5.72,0.13-8.03,2.25c-1.49,1.37-3.28,2.47-4.28,4.3c-3.19,5.84-1.21,12.62,2.92,15.99
		c1.5,1.22,3.22,2.18,4.9,3.29c-0.15,0.1-0.33,0.24-0.52,0.34c-2.93,1.46-5.15,3.68-6.73,6.52c-1.67,3.02-2.37,6.15-1.5,9.66
		c0.89,3.6,3.09,6.15,5.79,8.4c0.45,0.37,1.03,0.67,1.59,0.78c2.11,0.41,4.23,0.79,6.39,0.19c0.84-0.23,1.71-0.35,2.56-0.52
		c0.27,0.91,0.56,1.8,0.8,2.72c1.63,6.26,4.78,11.26,11,13.95c3.28,1.42,6.58,2,10.13,1.59c4.6-0.54,9.19-0.69,13.58,1.26
		C181.42,293.36,181.98,292.85,181.75,291.5z M252.91,324.12c0.41,0.38,0.36,0.71,0,1.06c-1.41,1.36-2.83,2.71-4.05,3.89
		c-1.57-1.5-3.12-2.97-4.63-4.4c1.48-1.52,2.96-3.04,4.41-4.54C250.06,321.45,251.48,322.79,252.91,324.12z M261.54,304.86
		c1.72,2.12,2.79,4.58,3.24,7.29c0.48,2.97-0.88,4.98-3.39,6.29c-1.1,0.58-2.32,0.97-3.53,1.27c-0.58,0.14-1.31,0-1.9-0.22
		c-2.15-0.8-3.9-3.76-3.68-6.07c0.26-2.58,2.49-3.66,4.84-2.25c-0.44,0.33-0.88,0.62-1.26,0.97c-0.85,0.78-1.09,1.93-0.67,2.95
		c0.43,1.04,1.28,1.31,2.31,1.39c2.1,0.15,3.45-1.11,4.32-2.68c0.86-1.56,0.77-3.34-0.25-4.96c-1.6-2.53-4.03-3.42-6.86-3.56
		c-0.24-0.01-0.48,0.02-0.72,0.01c-1.41-0.01-1.63-0.14-1.27-1.56c0.48-1.94-0.18-3.55-1.12-5.09c-0.59-0.96-1.36-1.82-2.12-2.66
		c-0.71-0.78-0.95-0.79-1.59-0.06c-0.79,0.89-1.56,1.82-2.21,2.82c-0.99,1.56-1.46,3.26-1.11,5.14c0.1,0.52,0.08,1.05,0.12,1.58
		c-1.55,0.19-3.03,0.31-4.48,0.57c-3.3,0.6-5.7,3.93-5.28,7.23c0.29,2.38,2.88,4.31,5.14,3.86c1.11-0.22,1.86-0.83,2.09-1.95
		c0.23-1.13-0.03-2.15-1.02-2.87c-0.32-0.23-0.68-0.41-1.35-0.8c1.06-0.29,1.78-0.64,2.51-0.65c1.5-0.03,2.49,1.02,2.69,2.56
		c0.34,2.49-0.87,4.28-2.69,5.7c-0.56,0.43-1.49,0.7-2.18,0.59c-2.81-0.45-5.22-1.66-6.86-4.12c-1.02-1.53-0.88-3.17-0.5-4.83
		c0.78-3.43,2.67-6.22,4.97-8.8c2.07-2.32,4.17-4.61,6.1-7.05c1.9-2.41,3.07-5.24,4-8.17c0.16-0.5,0.34-0.99,0.62-1.78
		c0.51,1.54,0.87,2.79,1.33,4.02c1.48,3.85,3.74,7.19,6.62,10.14C258.2,300.95,259.92,302.87,261.54,304.86z M350.47,249.95
		c-0.61,0.38-0.9,0.65-1.24,0.76c-3.82,1.14-6.98,3.29-9.69,6.17c-0.08,0.08-0.2,0.12-0.41,0.23c-0.89-1.42-1.63-2.98-2.73-4.23
		c-1.07-1.22-2.51-2.12-3.87-3.22c3.35-1.29,5.65-3.76,7.37-7.16C342.76,246.07,346.07,248.51,350.47,249.95z M277.76,201.67
		c2.71,1.76,4.99,4.02,5.46,7.61c0.47,3.54,0.48,6.92-1.5,10.04c-1.42,2.23-3.44,3.47-6.13,3.37c-1.79-0.07-3.63,0-5.34-0.44
		c-2.9-0.75-4.89-2.7-5.66-5.68c-0.56-2.16,0.65-4.97,2.61-6.04c0.58-0.32,1.4-0.44,2.05-0.32c1.29,0.24,2.8,0.29,3.37,2.13
		c-1.84-0.05-2.9,0.8-3.58,2.2c-0.61,1.25-0.8,2.52,0.12,3.71c1.12,1.46,2.45,1.92,4.09,1.45c2.33-0.66,5.03-3.35,5.25-6.64
		c0.18-2.63-1.04-6.2-4.45-7.73c-2.88-1.3-5.75-1.63-8.67-0.44c-3.98,1.62-6.07,4.69-6.45,8.93c-0.71,8,5.19,13.12,10.85,14.5
		c5.09,1.24,9.85,0.03,13.99-3.27c1.17-0.93,2.28-1.92,3.52-2.97c0.47,0.89,0.92,1.73,1.35,2.57c1.64,3.2,4.07,5.51,7.4,6.98
		c4.85,2.15,9.84,2.34,14.93,1.35c4.45-0.87,8.88-1.26,13.38-0.56c3.57,0.56,6.66,1.96,8.62,5.18c1.34,2.19,1.06,4.47-0.61,6.29
		c-1,1.1-2.25,1.33-3.61,1.03c-1.11-0.24-2.16-0.65-2.55-2.04c0.36-0.05,0.57-0.09,0.8-0.1c2.05-0.13,3.03-1.68,2.25-3.6
		c-0.7-1.72-2.44-2.83-4.09-2.61c-1.83,0.24-3.49,1.84-3.66,3.66c-0.09,1.01,0.03,2.03,0.05,3.05c0.01,0.39,0.04,0.78,0.07,1.51
		c-0.96-0.95-1.58-1.7-1.82-2.72c-0.18-0.75-0.36-1.51-0.56-2.26c-0.15-0.57-0.25-1.33-1.02-1.25c-0.46,0.05-1.02,0.41-1.28,0.79
		c-1.14,1.71-1.63,3.57-1,5.62c0.09,0.27,0.16,0.55,0.27,0.9c-1.56-0.24-3-0.5-4.45-0.68c-2.03-0.24-3.89,0.52-5.78,1.06
		c-0.28,0.08-0.54,0.26-0.78,0.43c-2.42,1.73-2.41,3.79,0.23,5.21c2.23,1.19,4.68,1.86,7.27,1.55c1-0.12,1.99-0.33,3.16-0.53
		c-0.15,0.71-0.38,1.33-0.4,1.94c-0.05,1.93,0.65,3.63,1.87,5.1c0.26,0.31,0.87,0.58,1.21,0.48c0.34-0.1,0.65-0.65,0.77-1.06
		c0.22-0.8,0.23-1.66,0.46-2.46c0.2-0.71,0.59-1.37,1.07-2.01c0.39,0.63,0.19,1.22,0.08,1.82c-0.41,2.25,0.44,4,2.27,5.27
		c2.15,1.49,4.89,0.85,6.18-1.38c1.24-2.13,0.2-4.05-2.29-4.25c-0.23-0.02-0.46-0.07-0.89-0.13c0.27-0.44,0.39-0.87,0.68-1.07
		c2.3-1.66,5.83-1.24,6.54,2.87c0.43,2.46-0.89,4.31-2.66,5.74c-2.38,1.93-5.19,2.86-8.27,3.1c-4.47,0.35-8.8-0.42-13.17-1.19
		c-6.14-1.08-11.94,0.02-17,3.81c-1.82,1.36-3.13,3.28-4.21,5.31c-0.3,0.57-0.64,1.11-1.05,1.8c-0.77-0.67-1.45-1.24-2.09-1.84
		c-2.36-2.2-5.07-3.88-8.15-4.73c-8.44-2.36-16.17,2.12-18.27,9.3c-0.99,3.39-0.66,6.67,1.08,9.72c3.08,5.39,9.88,7.83,15.55,3.94
		c2.67-1.83,3.25-4.63,2.94-7.63c-0.36-3.41-3.24-5.88-5.71-6.47c-1.21-0.29-2.41-0.22-3.35,0.72c-0.96,0.96-1.75,2.01-1.21,3.5
		c0.59,1.64,1.4,3.06,3.38,3.28c0.29,0.03,0.57,0.1,0.96,0.17c-0.09,0.29-0.09,0.55-0.22,0.71c-1.45,1.71-4.35,1.86-5.93,0.31
		c-3.44-3.37-2.56-7.3,0.52-9.99c1.04-0.91,2.25-1.63,3.68-1.72c1.96-0.13,3.95-0.39,5.89-0.19c2.15,0.22,3.89,1.49,5.11,3.32
		c1.91,2.89,2.61,6.09,2.45,9.55c-0.26,5.56-3.75,8.42-8.43,10.21c-4.49,1.72-8.96,0.85-13.03-1.24c-3.69-1.91-5.88-5.38-7.28-9.24
		c-0.57-1.56-0.95-3.22-1.17-4.87c-0.47-3.5,0.86-6.49,3.14-9.03c1.36-1.5,2.89-2.86,4.43-4.18c3.14-2.68,6.42-5.2,9.12-8.35
		c1.6-1.86,3.12-3.79,4.83-5.53c2.42-2.45,5.42-3.88,8.86-4.35c2.44-0.33,5.57,1.02,6.59,2.76c0.45,0.78,0.52,1.52,0.26,2.38
		c-0.82,2.7-2.16,3.83-4.69,3.85c-0.9,0.01-1.61-0.28-2.07-1.32c0.54-0.11,0.98-0.21,1.42-0.31c1.29-0.29,2.05-1.2,2.6-2.29
		c0.4-0.79,0.08-1.87-0.73-2.35c-0.6-0.35-1.31-0.66-2-0.72c-4.14-0.36-7.36,2.9-6.8,6.82c0.14,1.01,0.66,2.09,1.33,2.86
		c1.01,1.16,2.16,2.28,3.75,2.66c0.88,0.21,1.06,0.75,1.05,1.57c-0.03,2.11,0.47,4.04,2.15,5.49c0.09,0.07,0.2,0.1,0.45,0.23
		c1.09-4.47,4.08-7.73,6.97-11.05c0.55-0.63,1.07-1.3,1.48-2.01c0.93-1.63,1.19-3.34,0.47-5.17c-0.64-1.61-1.14-3.27-2.26-4.65
		c-0.78-0.95-0.78-1.04,0.09-1.95c1.24-1.3,1.91-2.87,2.52-4.5c0.95-2.5,0.32-4.7-1.24-6.72c-1.28-1.66-2.63-3.26-3.91-4.92
		c-1.73-2.24-3.06-4.69-3.54-7.63c-0.97,0.45-1.6,1.17-1.96,2.06c-0.37,0.93-0.83,1.95-0.79,2.92c0.08,1.76-0.57,2.58-2.22,3.25
		c-1.65,0.66-2.88,2.12-3.7,3.77c-1.06,2.13-0.56,4.92,1.16,6.65c1.7,1.7,4.61,2.3,6.65,1.37c1.13-0.52,1.84-1.49,1.61-2.53
		c-0.27-1.23-1.06-2.14-2.28-2.55c-0.59-0.2-1.23-0.28-1.85-0.41c-0.03-0.13-0.05-0.25-0.08-0.38c0.41-0.29,0.78-0.69,1.23-0.84
		c1.51-0.52,3.83,0.36,4.59,1.66c1.4,2.4,1.29,4.18-0.36,5.68c-0.22,0.2-0.46,0.42-0.74,0.5c-1.95,0.57-3.86,1.12-5.97,0.58
		c-3.27-0.84-6.14-2.3-8.42-4.83c-0.8-0.89-1.71-1.7-2.38-2.68c-3.02-4.34-7.12-7.56-11.07-10.94c-2.32-1.98-4.63-3.99-6.08-6.77
		c-1.18-2.26-1.53-4.62-1.07-7.12c0.54-2.92,1.49-5.65,3.17-8.13c2.21-3.25,5.09-5.37,8.98-6.36
		C270.55,198.83,274.34,199.45,277.76,201.67z M263.55,249.47c1.15-0.99,2.37-1.77,3.22-2.85c0.86-1.1,1.35-2.48,1.87-3.47
		c1.15,0.99,2.38,2.16,3.73,3.19c1.32,1.01,2.75,1.89,4.35,2.98c-1.49,1-2.96,1.85-4.26,2.91c-1.32,1.07-2.47,2.36-3.85,3.69
		C267.69,253.1,266.46,250.61,263.55,249.47z M250.99,251.57c-0.89,0.92-1.49,2.12-2.38,3.45c-1.24-2.66-3.01-4.61-5.86-5.9
		c2.69-1.17,4.67-2.71,6.01-5.2c1.25,2.39,3.01,4.03,5.53,5.14C253.07,249.96,251.89,250.63,250.99,251.57z M260.35,245.28
		c-2.84,0.99-6.22-0.83-7.03-3.62c-0.37-1.25-0.24-1.64,1.05-2.65c0.1,0.44,0.19,0.81,0.28,1.19c0.31,1.29,1.5,2.45,2.68,2.59
		c0.97,0.12,2.18-0.72,2.79-1.93c1.35-2.68-0.37-5.92-3.37-6.38c-3.68-0.56-5.9,0.68-7.43,4.13c-0.14,0.31-0.3,0.61-0.47,0.97
		c-0.52-1.07-0.94-2.05-1.46-2.99c-1.54-2.74-6.8-3.47-8.87-0.24c-1.16,1.81-0.87,4.5,0.84,5.84c0.83,0.65,1.88,0.62,2.81-0.09
		c0.76-0.58,1.13-1.26,1.7-3.23c0.33,0.53,0.64,0.85,0.74,1.23c0.1,0.39,0.09,0.85-0.03,1.24c-1.06,3.59-5.71,5.17-8.41,2.95
		c-2.13-1.75-3.49-4.27-1.64-7.45c0.69-1.17,1.63-2.21,2.58-3.2c1.11-1.16,2.31-2.27,3.56-3.28c3.11-2.51,5.69-5.46,7.68-8.93
		c0.15-0.26,0.33-0.5,0.65-0.98c0.42,0.62,0.74,1.05,0.99,1.5c1.82,3.22,4.26,5.9,7.03,8.33c1.71,1.5,3.4,3.03,4.93,4.71
		c0.86,0.94,1.57,2.14,2,3.34C264.9,241.01,263.04,244.34,260.35,245.28z M230.91,246.17c0.87,1.16,2.13,2.02,3.2,3
		c-2.98,2.03-2.98,2.03-5.29,6.62c-2.04-3.06-4.99-4.94-8.18-6.9c3.22-1.89,6.2-3.65,8.29-6.78
		C229.63,243.61,230.07,245.04,230.91,246.17z M236.25,253.71c3.1-2.01,7.37,0.08,7.98,3.75c0.14,0.87-0.04,1.68-1.21,2.01
		c-0.1-1.4-0.63-2.54-1.87-3.25c-1.26-0.71-2.26-0.61-3.21,0.46c-1.06,1.19-1.6,2.57-1.02,4.13c0.64,1.73,1.86,2.99,3.75,3.21
		c3.4,0.4,5.91-0.27,7.56-3.98c0.11-0.26,0.24-0.51,0.46-0.99c0.36,0.7,0.62,1.2,0.88,1.71c1.61,3.1,4.59,3.94,7.79,3.06
		c2.9-0.79,4-4.11,2.37-6.49c-1.46-2.13-4-1.93-5.11,0.42c-0.22,0.47-0.29,1.02-0.42,1.54c-1.04-0.57-1.32-1.03-1.06-2.03
		c0.53-2.09,1.87-3.41,3.92-4.05c1.89-0.59,3.49-0.14,4.96,1.16c2.92,2.56,2.57,6.14,0.37,8.6c-1.16,1.29-2.42,2.48-3.7,3.66
		c-5.94,5.51-5.95,5.5-10.28,12.2c-0.17-0.26-0.35-0.47-0.46-0.71c-2.03-4.37-5.06-7.94-8.72-11.03c-1.14-0.96-2.2-2.03-3.26-3.08
		c-0.51-0.5-0.98-1.06-1.39-1.64C232.35,259.21,233.01,255.82,236.25,253.71z M244.83,174.23c1.18-1.16,2.6-2.56,4.02-3.97
		c0.4-0.39,0.7-0.27,1.05,0.08c1.39,1.38,2.79,2.73,4.15,4.07c-1.67,1.67-3.21,3.2-4.35,4.34
		C248.1,177.27,246.51,175.78,244.83,174.23z M236.94,193.15c-1.53-2.04-2.35-4.4-2.7-6.94c-0.37-2.71,0.84-4.6,2.92-6.11
		c2.03-1.48,4.09-1.69,5.81-0.37c2.2,1.7,3.24,3.88,2.57,6.41c-0.56,2.12-2.5,2.79-4.5,1.55c0.41-0.28,0.81-0.51,1.16-0.8
		c0.88-0.74,1.14-1.82,0.76-2.93c-0.36-1.04-1.07-1.49-2.37-1.52c-2.15-0.05-3.48,0.94-4.05,3.03c-0.81,2.93,0.91,6.07,3.98,7.06
		c1.18,0.38,2.45,0.47,3.68,0.68c0.46,0.08,0.92,0.09,1.54,0.15c-1.66,4.53,1.12,7.47,3.43,10.79c1.86-2.15,3.52-4.25,4.05-6.97
		c0.18-0.9-0.04-1.89-0.15-2.83c-0.15-1.22-0.11-1.3,1.12-1.42c2.71-0.26,5.12-1.07,6.87-3.35c1.31-1.72,1.61-3.54,0.92-5.57
		c-0.79-2.3-3.76-3.14-5.59-1.55c-1.05,0.91-1.05,2.93,0.02,3.84c0.31,0.27,0.69,0.46,1.16,0.76c-1.06,0.85-2.05,1.02-3.22,0.53
		c-1.14-0.48-1.29-1.45-1.42-2.49c-0.33-2.83,2.26-5.4,4.88-6.04c0.27-0.06,0.6,0.01,0.87,0.1c2.39,0.85,4.4,2.22,5.63,4.48
		c0.82,1.49,0.6,3.15,0.19,4.72c-0.68,2.65-1.95,5-3.81,7.03c-1.38,1.5-2.7,3.05-4.13,4.5c-3.53,3.56-5.97,7.74-7.25,12.59
		c-0.04,0.17-0.11,0.33-0.28,0.79c-0.18-0.59-0.3-0.94-0.38-1.29c-1.19-4.79-3.4-9.03-6.71-12.73
		C240.2,197.28,238.52,195.25,236.94,193.15z M165.55,237.37c0.56-1.76,1.55-3.2,3.08-4.28c2.05-1.45,4.29-2.2,6.81-2.5
		c4.67-0.56,9.14,0.38,13.68,1.2c5.31,0.97,10.47,0.38,15.25-2.43c2.24-1.32,3.84-3.2,5.2-5.34c0.55-0.85,1.03-1.75,1.67-2.83
		c0.64,0.56,1.23,1.03,1.76,1.56c2.03,2,4.38,3.51,7.02,4.57c3.37,1.34,6.84,1.37,10.17,0.17c3.83-1.38,6.86-3.9,8.47-7.79
		c1.35-3.26,1.6-6.66,0.39-9.99c-1.99-5.48-8.33-8.41-14.34-5.51c-3.8,1.84-5.84,7.36-3.44,11.36c0.74,1.23,1.93,2.38,3.18,3.07
		c2.42,1.33,4.18,0.39,5.3-1.61c0.97-1.72-0.16-4.42-2.09-5.27c-0.42-0.19-0.88-0.28-1.34-0.42c0.05-0.25,0.03-0.46,0.12-0.59
		c1.31-1.66,4.74-1.71,6.04-0.09c2.81,3.49,1.48,7.1-1.32,9.49c-1.83,1.56-4.04,2.08-6.35,2.04c-1.59-0.03-3.2,0.01-4.74-0.7
		c-2.17-1-3.5-2.71-4.31-4.82c-1.38-3.61-1.03-7.29-0.05-10.93c0.15-0.56,0.52-1.08,0.89-1.54c3.03-3.78,7.04-5.94,11.82-5.75
		c5.08,0.2,9.51,2.18,12.37,6.81c1.93,3.12,3.07,6.5,3.32,10.13c0.2,2.77-0.64,5.3-2.33,7.55c-1.61,2.13-3.62,3.81-5.67,5.47
		c-3.71,3.02-7.34,6.11-10.25,9.99c-2.13,2.83-4.63,5.33-8.02,6.73c-2.5,1.03-5.03,1.4-7.67,0.51c-2.51-0.85-3.44-3.14-2.45-5.61
		c0.73-1.83,2.12-2.46,3.85-2.73c0.29-0.05,0.65-0.1,0.88,0.03c0.44,0.26,0.8,0.64,1.2,0.97c-0.41,0.16-0.8,0.41-1.21,0.46
		c-0.82,0.11-1.47,0.45-1.99,1.08c-1.27,1.5-0.88,3.3,0.91,4.12c3.56,1.64,7.78-0.94,7.95-4.86c0.12-2.77-1.71-5.6-4.67-6.82
		c-1.15-0.47-1.45-1.03-1.46-2.22c-0.01-2.12-0.46-4.15-2.47-5.66c-0.31,0.88-0.57,1.63-0.83,2.4c-0.94,2.77-2.65,5.07-4.46,7.31
		c-0.72,0.88-1.43,1.77-2.1,2.69c-1.38,1.9-1.87,3.95-1.11,6.26c0.56,1.73,1.26,3.34,2.52,4.69c0.95,1.02,0.94,1.1,0.01,2.24
		c-1.14,1.39-1.71,3-2.11,4.7c-0.53,2.26,0.11,4.27,1.43,6.09c1.22,1.7,2.51,3.35,3.73,5.06c1.48,2.06,2.58,4.3,3.01,6.94
		c0.89-0.35,1.34-1.06,1.56-1.84c0.34-1.2,0.66-2.43,0.75-3.67c0.07-0.96,0.34-1.4,1.27-1.83c2.56-1.18,4.53-3.03,4.68-6.06
		c0.18-3.66-2.67-6.89-6.97-6.13c-0.51,0.09-1.03,0.33-1.47,0.62c-1.24,0.79-1.49,2.03-0.69,3.24c0.54,0.82,1.19,1.5,2.23,1.66
		c0.4,0.06,0.78,0.24,1.54,0.49c-0.65,0.38-0.99,0.7-1.38,0.79c-1.82,0.41-3.37-0.48-4.25-2.17c-0.89-1.71-1.06-3.28,0.38-4.76
		c0.25-0.26,0.51-0.57,0.82-0.67c1.82-0.59,3.6-1.16,5.6-0.62c3.09,0.84,5.74,2.37,7.91,4.7c1.3,1.4,2.41,2.97,3.71,4.37
		c1.79,1.92,3.63,3.81,5.55,5.61c1.75,1.63,3.66,3.09,5.44,4.69c1.7,1.52,3.21,3.2,4.35,5.21c1.29,2.3,1.67,4.77,1.28,7.28
		c-0.48,3.02-1.49,5.88-3.2,8.5c-2.44,3.72-5.73,5.89-10.12,6.71c-5.76,1.08-11.67-1.8-14.79-6.95c-0.15-0.25-0.3-0.53-0.36-0.81
		c-0.76-3.56-0.93-7.07,0.55-10.56c1.2-2.82,4.16-5.11,7.45-4.88c1.54,0.1,3.1,0.23,4.62,0.52c2.51,0.48,4.35,2,5.43,4.28
		c1.46,3.09,0.1,6.15-2.67,7.62c-1.16,0.62-4.03-0.18-4.79-1.24c-0.33-0.47-0.15-0.76,0.43-0.84c2.01-0.28,2.97-1.63,3.38-3.46
		c0.49-2.19-1.16-4.25-3.4-4.27c-1.3-0.01-2.41,0.41-3.46,1.24c-3.72,2.97-3.64,7.25-1.92,10.67c0.34,0.67,0.89,1.3,1.49,1.76
		c4.28,3.25,9.68,2.99,13.66-0.44c4.17-3.6,4.87-10.72,1.27-15.5c-2.9-3.85-6.82-5.75-11.71-6c-5.24-0.26-9.36,1.94-13.15,5.17
		c-0.45,0.39-0.89,0.8-1.44,1.29c-0.27-0.45-0.51-0.83-0.73-1.22c-0.55-0.99-1.02-2.04-1.64-2.98c-3.04-4.59-7.61-6.5-12.84-7.24
		c-3.43-0.49-6.77-0.15-10.15,0.5c-4.4,0.83-8.84,0.68-13.15-0.57c-2.56-0.74-4.8-2.13-6.27-4.52c-1.25-2.04-1.22-3.91,0.19-5.84
		c1.42-1.95,4.23-2.18,5.96-0.46c0.15,0.15,0.21,0.4,0.36,0.7c-0.32,0.08-0.53,0.14-0.75,0.18c-2.02,0.38-2.98,2.08-2.24,3.99
		c0.69,1.79,2.14,2.82,3.81,2.7c1.72-0.12,3.49-1.63,3.9-3.47c0.19-0.86,0.17-1.78,0.19-2.67c0.01-0.52-0.08-1.05-0.14-1.72
		c1.11,0.78,1.33,1.85,1.59,2.88c0.16,0.64,0.23,1.3,0.41,1.93c0.39,1.36,1.22,1.55,2.15,0.45c0.94-1.12,1.47-2.46,1.6-3.92
		c0.08-0.93,0.02-1.86,0.02-2.85c1.01,0.2,2.1,0.48,3.21,0.61c2.25,0.26,4.4-0.33,6.49-1.08c1.59-0.56,3.14-1.75,3.14-3.35
		c0-1.77-1.56-3.03-3.25-3.69c-2.95-1.16-5.97-1.73-9.11-0.71c-0.17,0.05-0.35,0.04-0.53,0.03c-0.05,0-0.09-0.06-0.24-0.18
		c0.63-2.03,0.4-4.04-0.7-5.93c-0.38-0.66-0.68-1.57-1.62-1.45c-0.99,0.13-0.92,1.16-1.06,1.87c-0.27,1.34-0.3,2.75-1.37,3.8
		c-0.15,0.15-0.34,0.26-0.55,0.41c0.07-1.47,0.28-2.83,0.17-4.18c-0.26-3.23-3.97-5.06-6.69-3.35c-1.14,0.72-1.73,1.77-1.73,3.15
		c0.01,1.63,0.7,2.38,2.35,2.52c0.28,0.02,0.55,0.06,0.93,0.1c-0.22,1.17-1.07,1.56-1.91,1.76c-0.97,0.23-1.99,0.38-2.93-0.31
		C165.74,241.26,165,239.11,165.55,237.37z M147.78,247.88c4.72-1.42,8.62-3.92,11.96-7.71c1.52,3.62,3.58,6.47,7.34,7.67
		c-1.65,1.08-3.32,1.9-4.64,3.1c-1.35,1.22-2.36,2.82-3.63,4.39C155.96,251.78,152.23,249.42,147.78,247.88z"/>
	<path class="st0" d="M186.34,316.06C186.34,316.06,186.34,316.06,186.34,316.06c0,0,0.01,0.01,0.01,0.01
		C186.35,316.06,186.35,316.06,186.34,316.06z"/>
	<path class="st0" d="M162.62,325.34c4.72-5.62,10.82-8.7,18.14-9.26c1.9-0.14,3.82-0.02,5.58-0.02c0,0,0,0,0,0
		c-4.88-2.37-9.96-3.03-15.26-1.8c-3.9,0.91-7.2,2.89-10.25,5.5c-7.04,6.02-15.13,7.87-24.08,5.45
		c-8.61-2.33-12.97-12.06-9.07-19.97c2.99-6.07,10.57-7.1,15.03-2c1,1.14,1.75,2.44,1.54,4.08c-0.22,1.72-1.91,3.27-3.51,3.13
		c-0.02-0.07-0.06-0.14-0.07-0.22c-0.53-2.4-2.48-3.86-4.69-3.52c-2.33,0.37-3.79,2.28-3.59,4.74c0.35,4.31,4.19,7.98,8.55,7.95
		c4.25-0.03,7.56-2,9.98-5.46c3.25-4.64,2.38-11.66-1.92-15.34c-3.74-3.2-8.12-4.5-13-4.01c-5.32,0.54-9.54,3.05-12.59,7.41
		c-0.96,1.37-1.64,2.94-2.46,4.44c-1.66-1.33-3.61-2.01-5.92-1.77c-0.33,7.52,2.23,13.84,7.63,19.06c-5.17,1.06-8.93,4.12-8.94,7.19
		c2.99-0.74,5.96-0.68,8.89,0.26c5.47,1.77,10.83,1.55,16.11-0.73c0.15-0.07,0.32-0.1,0.68-0.21c-1.55,2.33-2.5,4.67-2.83,7.49
		c1.86-0.17,3.62-0.23,5.33-0.51C150.3,335.87,157.15,331.85,162.62,325.34z"/>
	<path class="st0" d="M186.35,316.07C186.45,316.12,186.41,316.1,186.35,316.07L186.35,316.07z"/>
	<path class="st0" d="M313.65,316.07C313.59,316.1,313.55,316.12,313.65,316.07L313.65,316.07z"/>
	<path class="st0" d="M313.65,316.07c0.01,0,0.01-0.01,0.02-0.01c0,0,0,0,0,0C313.65,316.06,313.65,316.06,313.65,316.07z"/>
	<path class="st0" d="M361.28,330.47c5.28,2.27,10.64,2.5,16.11,0.73c2.92-0.95,5.9-1.01,8.89-0.26c-0.01-3.07-3.78-6.13-8.94-7.19
		c5.4-5.23,7.96-11.54,7.63-19.06c-2.31-0.24-4.27,0.44-5.92,1.77c-0.82-1.51-1.5-3.07-2.46-4.44c-3.05-4.36-7.27-6.88-12.59-7.41
		c-4.88-0.49-9.26,0.81-13,4.01c-4.3,3.68-5.17,10.7-1.92,15.34c2.42,3.46,5.72,5.42,9.98,5.46c4.36,0.03,8.2-3.63,8.55-7.95
		c0.2-2.46-1.25-4.37-3.59-4.74c-2.21-0.35-4.16,1.12-4.69,3.52c-0.02,0.08-0.05,0.15-0.07,0.22c-1.61,0.14-3.3-1.41-3.51-3.13
		c-0.21-1.65,0.54-2.94,1.54-4.08c4.46-5.09,12.04-4.07,15.03,2c3.9,7.91-0.46,17.64-9.07,19.97c-8.95,2.42-17.04,0.57-24.08-5.45
		c-3.04-2.6-6.34-4.59-10.25-5.5c-5.3-1.23-10.38-0.58-15.26,1.8c0,0,0,0,0,0c1.76,0,3.68-0.12,5.58,0.02
		c7.32,0.56,13.42,3.64,18.14,9.26c5.47,6.51,12.32,10.53,20.71,11.9c1.72,0.28,3.47,0.34,5.33,0.51c-0.33-2.82-1.27-5.16-2.83-7.49
		C360.96,330.37,361.13,330.4,361.28,330.47z"/>
	<path class="st0" d="M186.35,183.93c-0.01,0-0.01,0.01-0.02,0.01c0,0,0,0,0,0C186.35,183.94,186.35,183.94,186.35,183.93z"/>
	<path class="st0" d="M186.35,183.93C186.41,183.9,186.46,183.88,186.35,183.93L186.35,183.93z"/>
	<path class="st0" d="M150.93,186.06c-2.42-3.46-5.72-5.42-9.98-5.46c-4.36-0.03-8.2,3.63-8.55,7.95c-0.2,2.46,1.25,4.37,3.59,4.74
		c2.21,0.35,4.16-1.12,4.69-3.52c0.02-0.08,0.05-0.15,0.07-0.22c1.61-0.14,3.3,1.41,3.51,3.13c0.21,1.65-0.54,2.94-1.54,4.08
		c-4.46,5.09-12.04,4.07-15.03-2c-3.9-7.91,0.46-17.64,9.07-19.97c8.95-2.42,17.04-0.57,24.08,5.45c3.04,2.6,6.34,4.59,10.25,5.5
		c5.3,1.23,10.38,0.58,15.26-1.8c0,0,0,0,0,0c-1.76,0-3.68,0.12-5.58-0.02c-7.32-0.56-13.42-3.64-18.14-9.26
		c-5.47-6.51-12.32-10.53-20.71-11.9c-1.72-0.28-3.47-0.34-5.33-0.51c0.33,2.82,1.27,5.16,2.83,7.49c-0.36-0.11-0.53-0.15-0.68-0.21
		c-5.28-2.27-10.64-2.5-16.11-0.73c-2.92,0.95-5.9,1.01-8.89,0.26c0.01,3.07,3.78,6.13,8.94,7.19c-5.4,5.23-7.96,11.54-7.63,19.06
		c2.31,0.24,4.27-0.44,5.92-1.77c0.82,1.51,1.5,3.07,2.46,4.44c3.05,4.36,7.27,6.88,12.59,7.41c4.88,0.49,9.26-0.81,13-4.01
		C153.31,197.73,154.17,190.7,150.93,186.06z"/>
	<path class="st0" d="M337.38,174.66c-4.72,5.62-10.82,8.7-18.14,9.26c-1.9,0.14-3.82,0.02-5.58,0.02c0,0,0,0,0,0
		c4.88,2.37,9.96,3.03,15.26,1.8c3.9-0.91,7.2-2.89,10.25-5.5c7.04-6.02,15.13-7.87,24.08-5.45c8.61,2.33,12.97,12.06,9.07,19.97
		c-2.99,6.07-10.57,7.1-15.03,2c-1-1.14-1.75-2.44-1.54-4.08c0.22-1.72,1.91-3.27,3.51-3.13c0.02,0.07,0.06,0.14,0.07,0.22
		c0.53,2.4,2.48,3.86,4.69,3.52c2.33-0.37,3.79-2.28,3.59-4.74c-0.35-4.31-4.19-7.98-8.55-7.95c-4.25,0.03-7.56,2-9.98,5.46
		c-3.25,4.64-2.38,11.66,1.92,15.34c3.74,3.2,8.12,4.5,13,4.01c5.32-0.54,9.54-3.05,12.59-7.41c0.96-1.37,1.64-2.94,2.46-4.44
		c1.66,1.33,3.61,2.01,5.92,1.77c0.33-7.52-2.23-13.84-7.63-19.06c5.17-1.06,8.93-4.12,8.94-7.19c-2.99,0.74-5.96,0.68-8.89-0.26
		c-5.47-1.77-10.83-1.55-16.11,0.73c-0.15,0.07-0.32,0.1-0.68,0.21c1.55-2.33,2.5-4.67,2.83-7.49c-1.86,0.17-3.62,0.23-5.33,0.51
		C349.7,164.13,342.85,168.15,337.38,174.66z"/>
	<path class="st0" d="M313.66,183.94C313.66,183.94,313.66,183.94,313.66,183.94c0,0-0.01-0.01-0.01-0.01
		C313.65,183.94,313.65,183.94,313.66,183.94z"/>
	<path class="st0" d="M313.65,183.93C313.55,183.88,313.59,183.9,313.65,183.93L313.65,183.93z"/>
</g>
</svg>
