<?xml version="1.0" encoding="utf-8"?>
<!-- Generator: Adobe Illustrator 26.5.0, SVG Export Plug-In . SVG Version: 6.00 Build 0)  -->
<svg version="1.1" id="Layer_1" xmlns="http://www.w3.org/2000/svg" xmlns:xlink="http://www.w3.org/1999/xlink" x="0px" y="0px"
	 viewBox="0 0 500 500" style="enable-background:new 0 0 500 500;" xml:space="preserve">
<g>
	<polygon points="307.83,274.77 310.61,274.17 308.34,272.2 308.66,269.38 306.1,270.79 303.66,269.62 304.29,272.25 302.38,274.46 
		305.2,274.74 306.66,277.37 	"/>
	<polygon points="195.31,272.25 195.94,269.62 193.5,270.79 190.94,269.38 191.25,272.2 188.99,274.17 191.77,274.77 192.93,277.37 
		194.39,274.74 197.22,274.46 	"/>
	<path d="M194.12,257.32l-3.72,0.07v-0.03c0.21-0.1,0.35-0.17,0.41-0.21l3.26-2.28l-0.04-2.16l-3.92,2.95l-3.68-2.58l0.04,2.04
		l3.21,2.04c0.19,0.1,0.33,0.16,0.43,0.21v0.03l-3.59,0.07l0.03,1.71l7.6-0.14L194.12,257.32z"/>
	<path d="M194.51,248.33c0.13-0.89,0.02-1.61-0.35-2.17c-0.36-0.55-0.94-0.89-1.73-1.01c-1.47-0.22-2.35,0.58-2.61,2.39l-0.17,1.11
		l-2.81-0.42l-0.25,1.7l7.52,1.11L194.51,248.33z M193.18,248.39l-0.11,0.77l-2.14-0.32l0.12-0.8c0.12-0.83,0.53-1.2,1.23-1.09
		C193.01,247.06,193.31,247.54,193.18,248.39z"/>
	<rect x="190.55" y="239.61" transform="matrix(0.1465 -0.9892 0.9892 0.1465 -77.4296 397.0652)" width="1.7" height="7.6"/>
	<path d="M196.52,238.97l-2.49-0.8l0.25-0.78c0.28-0.87,0.28-1.65,0-2.31c-0.28-0.67-0.79-1.12-1.51-1.35
		c-1.54-0.49-2.6,0.17-3.19,1.99l-0.82,2.55l7.24,2.33L196.52,238.97z M192.99,237.13l-0.2,0.64l-2.26-0.72l0.21-0.64
		c0.28-0.87,0.79-1.18,1.53-0.94C193.03,235.7,193.27,236.26,192.99,237.13z"/>
	<polygon points="199.28,231.79 193.68,229.16 194.88,226.61 193.6,226.01 191.68,230.1 198.55,233.34 	"/>
	<rect x="201.42" y="215.55" transform="matrix(0.5611 -0.8277 0.8277 0.5611 -92.7922 263.6896)" width="1.7" height="7.6"/>
	<path d="M202.94,225.14c0.5-0.75,0.71-1.45,0.62-2.11c-0.09-0.66-0.46-1.21-1.12-1.66c-1.23-0.84-2.37-0.5-3.39,1.02l-0.63,0.93
		l-2.36-1.6l-0.96,1.42l6.29,4.26L202.94,225.14z M199.49,224.05l0.46-0.67c0.47-0.7,1-0.85,1.58-0.45
		c0.61,0.41,0.67,0.97,0.18,1.69l-0.43,0.64L199.49,224.05z"/>
	<path d="M204.11,213.19c0.55-0.58,1.03-0.66,1.47-0.25c0.48,0.45,0.4,1.02-0.24,1.7l-0.64,0.68l0.94,0.88l0.67-0.71
		c0.72-0.76,1.33-0.91,1.84-0.43c0.5,0.47,0.43,1.05-0.23,1.75c-0.53,0.56-1.15,0.92-1.86,1.09l1.09,1.03
		c0.55-0.18,1.14-0.62,1.79-1.31c0.68-0.73,1.06-1.42,1.13-2.08c0.07-0.66-0.16-1.24-0.7-1.74c-0.35-0.32-0.74-0.48-1.18-0.48
		c-0.44,0-0.87,0.18-1.29,0.52l-0.02-0.02c0.24-0.43,0.34-0.85,0.28-1.26c-0.06-0.41-0.26-0.77-0.59-1.09
		c-0.43-0.4-0.93-0.56-1.49-0.46s-1.13,0.45-1.7,1.05c-0.54,0.58-0.92,1.2-1.15,1.88l1.02,0.96
		C203.44,214.17,203.72,213.61,204.11,213.19z"/>
	<path d="M217.34,210.02l-1.5-2.15l0.67-0.47c0.76-0.52,1.22-1.14,1.4-1.84s0.05-1.37-0.38-1.99c-0.93-1.32-2.17-1.44-3.74-0.34
		l-2.2,1.53l4.35,6.23L217.34,210.02z M215.09,206.81l-1.35-1.94l0.55-0.39c0.75-0.52,1.35-0.46,1.79,0.18
		c0.46,0.65,0.31,1.24-0.43,1.76L215.09,206.81z"/>
	<polygon points="226.46,204.64 225.82,203.41 223.29,204.72 222.49,203.18 224.7,202.03 224.06,200.8 221.85,201.94 221.08,200.44 
		223.45,199.21 222.81,197.98 218.92,199.99 222.41,206.74 	"/>
	<path d="M228.7,202.73c0.86,0.42,1.84,0.43,2.93,0.03c0.84-0.3,1.48-0.68,1.91-1.12l-0.53-1.47c-0.41,0.49-0.93,0.85-1.56,1.08
		c-0.65,0.24-1.25,0.22-1.79-0.05c-0.54-0.27-0.93-0.75-1.18-1.44c-0.26-0.72-0.26-1.37,0-1.94c0.26-0.57,0.73-0.98,1.4-1.22
		c0.61-0.22,1.21-0.27,1.79-0.16l-0.56-1.55c-0.54,0-1.16,0.12-1.86,0.37c-1.13,0.41-1.92,1.09-2.36,2.06
		c-0.45,0.97-0.47,2.02-0.06,3.16C227.21,201.57,227.84,202.31,228.7,202.73z"/>
	<polygon points="237.53,200.93 236.36,194.94 239.45,194.34 240.62,200.33 242.3,200 240.85,192.54 234.4,193.8 235.85,201.26 	"/>
	<path d="M245.55,198.4c-0.31,0.01-0.61-0.07-0.91-0.24l0.06,1.56c0.26,0.11,0.59,0.15,0.99,0.13c0.61-0.02,1.1-0.22,1.48-0.59
		c0.38-0.37,0.78-1.05,1.18-2.04l2.16-5.3l-1.8,0.08l-1.09,3.11c-0.08,0.21-0.12,0.41-0.16,0.61l-0.01,0
		c-0.05-0.23-0.12-0.43-0.2-0.61l-1.38-2.99l-1.95,0.08l2.71,5.13C246.35,198.02,245.98,198.39,245.55,198.4z"/>
	<path d="M257.76,199.48c0.51-0.37,0.8-0.94,0.88-1.7c0.06-0.66-0.11-1.2-0.51-1.62c-0.41-0.42-1.01-0.67-1.82-0.74l-1.46-0.14
		l0.16-1.65l3.16,0.31l0.14-1.4l-4.87-0.48l-0.74,7.56l3,0.3C256.57,200,257.25,199.85,257.76,199.48z M254.53,198.54l0.2-2.03
		l1.05,0.1c0.76,0.08,1.11,0.44,1.05,1.1c-0.07,0.7-0.5,1-1.3,0.93L254.53,198.54z"/>
	<path d="M262.51,200.17c0.5-0.53,1.31-2.16,2.42-4.88l1.47,0.37l-1.52,5.98l1.66,0.42l1.87-7.37l-4.48-1.14
		c-0.49,1.2-0.94,2.25-1.36,3.14c-0.42,0.89-0.75,1.52-0.97,1.87c-0.23,0.35-0.41,0.56-0.54,0.62c-0.13,0.06-0.26,0.07-0.41,0.04
		c-0.14-0.04-0.3-0.11-0.49-0.23l-0.34,1.32c0.27,0.17,0.56,0.3,0.86,0.37C261.4,200.88,262,200.7,262.51,200.17z"/>
	<path d="M275.49,200.53c0.28-0.18,0.48-0.32,0.61-0.42l0.03,0.01c-0.17,0.3-0.35,0.66-0.55,1.1l-1.69,3.82l1.48,0.65l3.07-6.95
		l-1.68-0.74l-4.62,3.02c-0.37,0.24-0.58,0.38-0.61,0.41l-0.02-0.01c0.09-0.15,0.25-0.46,0.46-0.94l1.7-3.85l-1.48-0.65l-3.07,6.95
		l1.58,0.7L275.49,200.53z"/>
	<path d="M279.16,207.96l2.02-3.13l0.02,0.02c-0.04,0.23-0.06,0.38-0.06,0.46l0.07,3.98l1.82,1.17l-0.26-4.9l4.19-1.61l-1.71-1.11
		l-3.48,1.53c-0.18,0.1-0.32,0.18-0.41,0.24l-0.02-0.02l1.95-3.02l-1.44-0.93l-4.12,6.39L279.16,207.96z"/>
	<path d="M285.12,212.2l1.52-0.92l2.03,1.78l-0.71,1.63l1.4,1.23l2.99-7.49l-1.52-1.34l-7.1,3.88L285.12,212.2z M290.1,209.15
		c0.2-0.12,0.38-0.25,0.54-0.41l0.03,0.03c-0.15,0.22-0.27,0.42-0.35,0.6l-1.08,2.46l-1.46-1.28L290.1,209.15z"/>
	<path d="M292.62,219.89c0.58,0.68,1.15,1.15,1.72,1.39l1.19-1.01c-0.61-0.21-1.12-0.57-1.56-1.08c-0.46-0.53-0.65-1.1-0.58-1.7
		c0.06-0.6,0.38-1.13,0.94-1.61c0.58-0.5,1.19-0.72,1.81-0.68c0.62,0.04,1.17,0.34,1.63,0.88c0.42,0.5,0.68,1.03,0.78,1.62
		l1.25-1.07c-0.18-0.51-0.52-1.05-1-1.61c-0.78-0.91-1.69-1.41-2.76-1.49c-1.06-0.08-2.05,0.27-2.98,1.06
		c-0.87,0.74-1.35,1.58-1.44,2.54C291.54,218.08,291.87,219.01,292.62,219.89z"/>
	<path d="M296.95,225.62c0.46,0.77,1.01,1.26,1.64,1.45c0.63,0.2,1.29,0.09,1.97-0.32c1.28-0.77,1.45-1.94,0.5-3.51l-0.58-0.96
		l2.44-1.46l-0.88-1.47l-6.52,3.91L296.95,225.62z M299.39,222.96l0.41,0.69c0.43,0.72,0.35,1.26-0.26,1.63
		c-0.63,0.38-1.16,0.19-1.61-0.55l-0.4-0.66L299.39,222.96z"/>
	<rect x="298.68" y="226.6" transform="matrix(0.8578 -0.514 0.514 0.8578 -73.8973 187.8306)" width="7.6" height="1.7"/>
	<polygon points="301.35,234.12 304.24,233.02 305.35,235.97 302.46,237.06 303.07,238.67 310.18,235.98 309.57,234.37 
		306.73,235.45 305.62,232.5 308.45,231.43 307.85,229.83 300.74,232.52 	"/>
	<rect x="305.07" y="246.65" transform="matrix(0.9833 -0.1822 0.1822 0.9833 -39.9236 60.4148)" width="7.6" height="1.7"/>
	<path d="M304.33,243.86c0.17,0.89,0.51,1.53,1.03,1.94c0.53,0.41,1.18,0.54,1.96,0.39c1.47-0.27,2.03-1.31,1.7-3.11l-0.2-1.1
		l2.8-0.52l-0.31-1.68l-7.47,1.38L304.33,243.86z M307.54,242.21l0.15,0.79c0.15,0.83-0.12,1.31-0.81,1.43
		c-0.72,0.13-1.16-0.22-1.31-1.07l-0.14-0.76L307.54,242.21z"/>
	<polygon points="305.46,253.36 308.56,253.31 308.61,256.46 305.51,256.51 305.54,258.23 313.14,258.11 313.11,256.39 
		310.08,256.44 310.03,253.29 313.06,253.24 313.03,251.53 305.44,251.65 	"/>
	<polygon points="202.12,284.49 195.89,288.84 196.86,290.24 201.87,286.75 203.67,289.33 198.67,292.82 199.65,294.23 
		205.88,289.88 	"/>
	<path d="M210.19,294.61l-1.88-1.91l-5.41,5.33l1.2,1.22l1.87-1.84l0.57,0.58c0.65,0.65,1.33,1.01,2.05,1.07
		c0.72,0.06,1.35-0.18,1.9-0.71C211.64,297.22,211.54,295.97,210.19,294.61z M209.17,297.12c-0.57,0.56-1.17,0.52-1.81-0.13
		l-0.47-0.48l1.69-1.66l0.47,0.48C209.69,295.97,209.73,296.57,209.17,297.12z"/>
	<path d="M217.23,300.46c-0.93-0.67-1.9-0.91-2.89-0.72c-1,0.19-1.85,0.78-2.56,1.75c-0.67,0.92-0.93,1.87-0.79,2.85
		c0.14,0.97,0.65,1.78,1.53,2.42c0.9,0.65,1.85,0.89,2.84,0.71c0.99-0.18,1.84-0.76,2.54-1.73c0.68-0.94,0.96-1.9,0.84-2.87
		C218.62,301.9,218.11,301.09,217.23,300.46z M216.39,304.75c-0.44,0.61-0.93,0.99-1.46,1.13c-0.53,0.14-1.03,0.04-1.51-0.31
		c-0.46-0.34-0.71-0.79-0.74-1.35c-0.03-0.56,0.18-1.15,0.62-1.76c0.44-0.6,0.93-0.98,1.48-1.14c0.55-0.16,1.07-0.06,1.56,0.29
		c0.47,0.34,0.71,0.79,0.73,1.34C217.08,303.52,216.85,304.11,216.39,304.75z"/>
	<path d="M223.28,307.99c-0.17,0.12-0.3,0.22-0.38,0.29l-0.03-0.01l1.58-3.23l-1.54-0.75l-3.34,6.83l1.54,0.75l1.64-3.34l0.02,0.01
		c-0.01,0.23-0.01,0.39,0,0.46l0.54,3.94l1.95,0.95l-0.84-4.83l3.97-2.09l-1.83-0.9L223.28,307.99z"/>
	<path d="M232.89,311.7c-0.14,0.17-0.26,0.35-0.35,0.52l-0.01,0c0.03-0.23,0.03-0.45,0.02-0.65l-0.32-3.28l-1.87-0.57l0.85,5.74
		c-0.51,0.57-0.97,0.79-1.38,0.66c-0.3-0.09-0.56-0.27-0.78-0.53l-0.46,1.5c0.21,0.19,0.5,0.34,0.89,0.46
		c0.58,0.18,1.11,0.16,1.6-0.07c0.48-0.22,1.08-0.74,1.79-1.54l3.8-4.29l-1.72-0.53L232.89,311.7z"/>
	<path d="M242.01,310.56l-2.65-0.38l-1.08,7.52l1.69,0.24l0.37-2.59l0.81,0.11c0.91,0.13,1.67,0,2.28-0.39
		c0.61-0.39,0.97-0.96,1.08-1.72C244.74,311.76,243.91,310.83,242.01,310.56z M241.2,314.16l-0.67-0.1l0.33-2.34l0.67,0.09
		c0.9,0.13,1.3,0.58,1.19,1.35C242.61,313.96,242.1,314.29,241.2,314.16z"/>
	<path d="M249.28,311.1l-2.65,7.65l1.85-0.03l0.51-1.7l2.7-0.04l0.57,1.68l1.87-0.03l-2.83-7.56L249.28,311.1z M249.35,315.7
		l0.78-2.59c0.07-0.22,0.11-0.44,0.12-0.66h0.04c0.03,0.27,0.08,0.49,0.14,0.68l0.85,2.54L249.35,315.7z"/>
	<polygon points="261.46,309.96 255.49,310.89 255.7,312.27 257.83,311.93 258.79,318.07 260.49,317.8 259.53,311.67 261.67,311.33 
			"/>
	<path d="M267.9,311.32c-0.02,0.22-0.01,0.43,0.01,0.62l-0.01,0c-0.11-0.21-0.23-0.39-0.35-0.54l-2.12-2.52l-1.86,0.59l3.96,4.24
		c-0.1,0.76-0.35,1.2-0.76,1.33c-0.3,0.09-0.61,0.09-0.94,0l0.47,1.49c0.28,0.04,0.61-0.01,0.99-0.13c0.58-0.18,1-0.5,1.28-0.96
		c0.27-0.46,0.47-1.22,0.6-2.28l0.7-5.69l-1.72,0.54L267.9,311.32z"/>
	<path d="M274.78,305.2l-2.4,1.19l3.38,6.81l1.53-0.76l-1.16-2.34l0.73-0.36c0.82-0.41,1.37-0.95,1.66-1.61
		c0.28-0.67,0.26-1.34-0.09-2.02C277.71,304.64,276.49,304.35,274.78,305.2z M276.15,308.63l-0.6,0.3l-1.05-2.12l0.6-0.3
		c0.82-0.41,1.4-0.26,1.75,0.44C277.2,307.66,276.96,308.22,276.15,308.63z"/>
	<path d="M280.92,301.62l2.09,7.81l1.52-1.06l-0.53-1.69l2.22-1.55l1.41,1.08l1.53-1.07l-6.57-4.68L280.92,301.62z M283,302.64
		l2.13,1.63l-1.59,1.12l-0.8-2.58c-0.07-0.22-0.16-0.43-0.27-0.62l0.03-0.02C282.68,302.36,282.85,302.52,283,302.64z"/>
	<path d="M293.79,299.06c-0.5,0.49-1.05,0.72-1.66,0.69c-0.6-0.02-1.16-0.3-1.67-0.83c-0.53-0.55-0.8-1.14-0.8-1.76
		c0-0.63,0.26-1.19,0.77-1.69c0.47-0.45,0.99-0.75,1.57-0.88l-1.15-1.18c-0.49,0.22-1.01,0.59-1.54,1.1
		c-0.86,0.84-1.3,1.79-1.31,2.85s0.41,2.03,1.25,2.91c0.79,0.82,1.67,1.24,2.63,1.27c0.96,0.03,1.85-0.36,2.69-1.18
		c0.64-0.62,1.07-1.22,1.28-1.8l-1.09-1.12C294.59,298.06,294.27,298.6,293.79,299.06z"/>
	<rect x="299.41" y="283.35" transform="matrix(0.5782 -0.8159 0.8159 0.5782 -107.637 366.0864)" width="1.7" height="7.6"/>
	<path d="M300.4,289.18c-1.22-0.86-2.36-0.55-3.42,0.95l-0.65,0.91l-2.32-1.65l-0.99,1.4l6.2,4.39l1.59-2.24
		c0.52-0.74,0.74-1.43,0.67-2.09S301.05,289.64,300.4,289.18z M299.6,292.4l-0.45,0.63l-1.76-1.25l0.47-0.66
		c0.49-0.68,1.02-0.82,1.6-0.42C300.05,291.14,300.1,291.7,299.6,292.4z"/>
	<path d="M206.87,240.28c9.13-2.27,18.3-4.55,27.43-6.78c0.12-0.04,0.23-0.08,0.35-0.15c0,0,0.04,0,0.08,0c0-0.31,0-0.35-0.19-0.62
		h-0.12c-0.12,0-0.27,0.04-0.42,0.04c-0.31,0.08-0.65,0.15-1,0.19c-0.19,0.04-0.42,0.08-0.62,0.12c-3.78,0.73-7.55,1.43-11.33,2.12
		c-3.51,0.66-7.05,1.31-10.56,2c-0.46,0.08-0.92,0.15-1.39,0.23c-0.5,0.12-1,0.19-1.54,0.31c-0.23,0.04-0.35,0.12-0.39,0.27v0.04
		c-0.04,0.12-0.08,0.27-0.12,0.42c-0.15,0.58-0.31,1.16-0.31,1.77h0.04C206.83,240.28,206.87,240.28,206.87,240.28z"/>
	<path d="M286.93,236.89c-1.89-0.35-3.78-0.69-5.66-1.08c-3.04-0.54-6.09-1.12-9.17-1.7c-1.73-0.35-3.47-0.69-5.24-1
		c-0.73-0.15-1.46-0.27-2.2-0.39c-0.04-0.04-0.12,0-0.19,0c-0.04,0.04-0.04,0.04-0.08,0.04c0,0.08-0.04,0.19-0.04,0.27
		c-0.04,0.12-0.04,0.19-0.08,0.31l0.27,0.08c0.27,0.08,0.5,0.12,0.77,0.19c5.86,1.46,11.75,2.93,17.65,4.39l2.2,0.54
		c2.2,0.58,4.39,1.12,6.63,1.66c0.04,0,0.08,0.04,0.12,0.04c0.19,0.08,0.31,0.08,0.42,0c-0.04-0.23-0.08-0.42-0.12-0.62
		c-0.12-0.58-0.19-1.19-0.42-1.81c-0.12-0.04-0.23-0.08-0.31-0.08c-0.27-0.08-0.5-0.12-0.73-0.15
		C289.48,237.35,288.21,237.12,286.93,236.89z"/>
	<path d="M233.96,231.84c0.12,0,0.23-0.04,0.39-0.08c0.04,0,0.12-0.04,0.15-0.04l-0.04-0.15c-0.04-0.19-0.04-0.35-0.08-0.5h-0.42
		c-0.81,0.08-1.58,0.15-2.39,0.19c-0.81,0.08-1.62,0.12-2.43,0.19c-0.35,0.04-0.73,0.04-1.08,0.08c-0.54,0.04-1.04,0.08-1.58,0.12
		c-0.92,0.08-1.85,0.15-2.77,0.23c-1.66,0.15-3.35,0.31-5.01,0.42c-1.5,0.12-3.04,0.23-4.58,0.35c-1.39,0.08-2.74,0.19-4.08,0.31
		h-0.27c-0.35,0.04-0.69,0.04-1,0.19c-0.46,1-0.65,1.58-0.73,2.23c0.04,0,0.04,0,0.04,0C216.7,234.23,225.33,233.04,233.96,231.84z"
		/>
	<path d="M286.82,232.81c-0.69-0.04-1.39-0.12-2.08-0.15c-1.27-0.12-2.5-0.19-3.74-0.31c-1.43-0.12-2.81-0.23-4.24-0.35
		c-1.08-0.08-2.16-0.15-3.24-0.23c-0.92-0.08-1.85-0.15-2.77-0.19c-0.62-0.08-1.23-0.12-1.85-0.19c-0.5-0.04-1-0.08-1.46-0.12
		c-0.85-0.08-1.73-0.12-2.62-0.19c0,0-0.04,0.04-0.12,0.04l-0.04,0.04c-0.04,0.12-0.04,0.27-0.04,0.39v0.19c0.04,0,0.04,0,0.08,0
		c0.12,0.04,0.19,0.08,0.27,0.12c8.67,1.19,17.3,2.35,25.93,3.54c0.04,0,0.08,0,0.08,0l0.04-0.04c0,0,0,0,0.04,0v-0.04
		c-0.12-0.5-0.31-1.04-0.5-1.58c-0.08-0.23-0.19-0.42-0.27-0.66l-0.62-0.04c-0.46-0.08-0.89-0.12-1.35-0.12
		C287.82,232.88,287.32,232.84,286.82,232.81z"/>
	<path d="M281.54,228.95l-14.64,0.42h-0.54c-0.35,0.04-0.69,0.04-1.04,0.04c-0.15,0-0.27,0.04-0.42,0.08c-0.04,0-0.08,0-0.12,0.04
		v0.58h0.12c0.12,0.04,0.19,0.04,0.27,0.04c8.01,0.23,15.99,0.46,23.96,0.69c0.04,0,0.08-0.04,0.15-0.04
		c-0.12-0.46-0.31-0.89-0.54-1.35c-0.12-0.19-0.23-0.42-0.35-0.65h-1.27C285.28,228.84,283.39,228.88,281.54,228.95z"/>
	<path d="M212.92,230.76c2.39-0.04,4.82-0.12,7.2-0.19c2.27-0.04,4.58-0.12,6.86-0.19c1.23-0.04,2.47-0.08,3.7-0.12
		c0.46-0.04,0.92-0.04,1.39-0.04c0.5,0,1-0.04,1.5-0.04c0.19,0,0.35-0.04,0.54-0.08h0.15c0.12-0.23,0.15-0.39,0.04-0.54
		c-1.35-0.23-18.11-0.73-22.62-0.73c-0.5,0-0.85,0-1.04,0.04c-0.42,0.62-0.69,1.23-0.89,1.96h1L212.92,230.76z"/>
	<path d="M212.27,226.8c1.85,0.15,3.81,0.31,5.7,0.46c1.62,0.12,3.2,0.23,4.78,0.35c1.23,0.12,2.5,0.19,3.74,0.31
		c0.58,0.04,1.12,0.08,1.7,0.12c0.58,0.08,1.19,0.12,1.81,0.15c1.31,0.12,2.66,0.19,3.78,0.27h0.12c0.19,0,0.35,0.04,0.54-0.12v-0.5
		h-0.12c-0.08-0.04-0.15-0.08-0.27-0.12c-0.81-0.12-1.66-0.23-2.47-0.31l-3.16-0.42c-1.97-0.27-3.93-0.54-5.93-0.81
		c-1.58-0.23-3.12-0.46-4.7-0.65c-1.31-0.19-2.66-0.39-4.01-0.58c-0.19-0.04-0.42-0.04-0.62-0.04h-0.19
		c-0.46,0.54-0.81,1.12-1.16,1.77c0.04,0,0.08,0.04,0.12,0.04C212.03,226.76,212.15,226.76,212.27,226.8z"/>
	<path d="M283.77,225.14c-0.96,0.15-1.93,0.27-2.89,0.42c-1.04,0.15-2.12,0.31-3.2,0.46c-1.08,0.12-2.2,0.27-3.31,0.42
		c-0.89,0.12-1.81,0.27-2.74,0.39c-1.35,0.19-2.74,0.39-4.08,0.58l-2.35,0.31c-0.12,0-0.23,0.04-0.35,0.08
		c-0.15,0-0.27,0.08-0.23,0.35c0,0.23,0.08,0.31,0.31,0.31c0.19,0.04,0.35,0,0.54,0l1.46-0.12c1.58-0.12,3.24-0.23,4.82-0.35
		c1.31-0.12,2.62-0.23,3.93-0.35c1.39-0.12,2.81-0.23,4.24-0.31c1.12-0.12,2.23-0.19,3.35-0.27c0.89-0.04,1.77-0.12,2.66-0.19
		c0.42-0.04,0.81-0.08,1.23-0.19c-0.27-0.65-0.62-1.23-1.12-1.81l-0.69,0.08c-0.54,0.08-1.08,0.15-1.58,0.23V225.14z"/>
	<path d="M214.85,223.21l1.73,0.31c1.85,0.35,3.7,0.69,5.55,1.04c2,0.39,4.01,0.77,6.05,1.16c2,0.35,4.01,0.73,6.01,1.12
		c0.12,0.04,0.19,0,0.31,0h0.12l0.12-0.62c-2.08-0.54-4.2-1.08-6.2-1.58c-1.16-0.27-2.27-0.54-3.39-0.81
		c-2.31-0.58-4.66-1.19-6.97-1.73c-0.89-0.23-1.77-0.42-2.66-0.65c-0.5,0.42-0.92,0.92-1.23,1.58c0.12,0.12,0.27,0.15,0.46,0.19
		H214.85z"/>
	<path d="M264.55,226.18c-0.04,0-0.08,0.04-0.12,0.08c-0.04,0-0.04,0.04-0.08,0.04c0.04,0.12,0.04,0.23,0.08,0.31l0.04,0.19
		c1.85-0.15,18.34-3.27,20.3-3.81c-0.39-0.58-0.69-1.12-1.23-1.54c-0.08,0.04-0.15,0.04-0.27,0.08c-0.19,0.04-0.42,0.08-0.65,0.15
		c-5.12,1.27-10.25,2.54-15.41,3.81C266.32,225.72,265.44,225.95,264.55,226.18z"/>
	<path d="M264.16,224.56l-0.12,0.04c-0.04,0.04-0.08,0.08-0.12,0.12v0.04l0.15,0.54c0.08,0,0.15-0.04,0.19-0.04
		c0.15-0.04,0.31-0.08,0.42-0.12c2.39-0.69,4.74-1.43,7.13-2.12l9.86-2.97c0,0,0.04,0,0.08-0.04c0.19-0.04,0.35-0.08,0.42-0.23
		c-0.35-0.5-0.69-0.96-1.23-1.31l-0.35,0.12c-0.27,0.08-0.54,0.19-0.81,0.27c-4.51,1.62-8.98,3.24-13.45,4.85
		C265.63,223.98,264.9,224.29,264.16,224.56z"/>
	<path d="M216.89,219.86c0.12,0.08,0.19,0.12,0.27,0.15c5.89,1.73,11.75,3.47,17.61,5.24h0.12c0.04,0,0.04,0,0.04,0
		c0.15-0.27,0.27-0.46,0.23-0.54c-0.04-0.08-0.19-0.15-0.42-0.23l-0.12-0.04c-0.04-0.04-0.08-0.04-0.12-0.08
		c-5.28-1.89-10.52-3.81-15.8-5.74c-0.12-0.04-0.31-0.08-0.46-0.12c-0.04-0.04-0.08-0.04-0.15-0.08c-0.46,0.42-0.92,0.85-1.23,1.39
		C216.85,219.86,216.89,219.86,216.89,219.86z"/>
	<path d="M220.59,216.2c0.12,0.08,0.23,0.12,0.31,0.15c4.93,2.27,9.82,4.58,14.72,6.86h0.04l0.04-0.04h0.08
		c0.08-0.12,0.15-0.27,0.27-0.5l0.04-0.04l-7.9-4.24c-0.92-0.54-1.89-1.04-2.89-1.58c-0.35-0.19-0.73-0.39-1.12-0.62
		c-0.77-0.42-1.58-0.85-2.39-1.23c-0.12,0.12-0.23,0.19-0.39,0.31c-0.31,0.27-0.65,0.5-0.89,0.85
		C220.55,216.16,220.59,216.2,220.59,216.2z"/>
	<path d="M263.55,222.33c-0.12,0.08-0.23,0.15-0.39,0.23c0,0.04-0.04,0.08-0.08,0.12c0,0.04,0,0.04-0.04,0.04
		c0.08,0.12,0.15,0.27,0.23,0.39l0.04,0.15c0.08-0.04,0.15-0.08,0.19-0.08c0.19-0.08,0.35-0.15,0.5-0.19
		c0.85-0.42,1.73-0.85,2.62-1.23l2.31-1.08c2.97-1.39,5.89-2.74,8.86-4.12c0.04-0.04,0.12-0.08,0.19-0.12
		c0.19-0.08,0.39-0.15,0.58-0.31c-0.42-0.42-0.81-0.89-1.39-1.12l-0.12,0.08c-0.15,0.08-0.31,0.12-0.42,0.19
		c-4.35,2.35-8.67,4.7-12.98,7.01L263.55,222.33z"/>
	<path d="M223.36,213.89c0.08,0.08,0.15,0.15,0.23,0.19c2.58,1.66,11.75,7.13,12.95,7.71c0-0.04,0-0.04,0-0.04
		c0.08-0.08,0.15-0.15,0.19-0.23c0.04-0.08,0.08-0.15,0.08-0.19s0-0.04,0.04-0.04c-0.04-0.04-0.04-0.04-0.04-0.04
		c-0.04-0.04-0.04-0.08-0.08-0.08c-0.12-0.12-0.23-0.19-0.35-0.27c-3.89-2.7-7.82-5.36-11.71-8.01c-0.04,0-0.04,0-0.04,0h-0.04
		c0,0,0,0-0.04,0h-0.04c-0.04,0.04-0.08,0.08-0.15,0.08c-0.15,0.12-0.31,0.23-0.46,0.35c-0.04,0.04-0.08,0.08-0.15,0.12
		c-0.15,0.12-0.35,0.23-0.42,0.42C223.32,213.85,223.32,213.89,223.36,213.89z"/>
	<path d="M262.35,221.17c-0.04,0.04-0.04,0.04-0.08,0.08c0.04,0.23,0.12,0.39,0.35,0.54c0.08-0.04,0.15-0.08,0.27-0.15
		c0.15-0.08,0.35-0.15,0.5-0.27c4.01-2.43,8.05-4.85,12.1-7.28l0.04-0.04c0.15-0.08,0.23-0.12,0.23-0.27l-1.23-0.89
		c-1.04,0.58-10.9,7.28-12.06,8.17L262.35,221.17z"/>
	<path d="M226.75,212.42c1.27,0.96,2.54,1.93,3.78,2.85l3.08,2.35c1.19,0.89,2.39,1.77,3.54,2.66c0.08,0.04,0.12,0.08,0.19,0.12
		c0.04,0,0.08,0.04,0.08,0.04c0.12-0.15,0.27-0.31,0.42-0.5l-1.39-1.19c-1.31-1.12-2.54-2.23-3.81-3.31
		c-0.42-0.35-0.85-0.69-1.23-1.04c-1.31-1.12-2.66-2.27-4.01-3.35c-0.12,0.08-0.23,0.12-0.31,0.15c-0.35,0.19-0.69,0.39-1,0.69
		c0.08,0.08,0.15,0.12,0.19,0.15C226.44,212.19,226.6,212.31,226.75,212.42z"/>
	<path d="M261.66,219.59l-0.31,0.27c0,0-0.04,0.04-0.04,0.12l-0.04,0.04l0.12,0.12c0.08,0.08,0.15,0.19,0.27,0.35
		c3.81-2.85,7.51-5.66,11.29-8.59c-0.42-0.39-0.85-0.62-1.35-0.81l-0.15,0.12c-0.15,0.15-0.35,0.27-0.5,0.42
		c-2.43,2.04-4.82,4.08-7.21,6.16C263.05,218.36,262.35,219.01,261.66,219.59z"/>
	<path d="M260.62,219.13c0.04,0,0.08-0.04,0.12-0.04c0.08-0.08,0.19-0.15,0.27-0.23l1.39-1.27c2.47-2.35,4.97-4.7,7.44-7.01
		c0.08-0.08,0.12-0.19,0.19-0.27c0.04-0.04,0.04-0.08,0.08-0.08c-0.39-0.31-0.77-0.5-1.27-0.65c-1.04,0.92-7.98,8.28-8.63,9.17
		C260.27,218.97,260.43,219.09,260.62,219.13z"/>
	<path d="M229.57,210.84c0.69,0.65,1.39,1.27,2.04,1.93l0.96,0.92c1.73,1.62,3.47,3.27,5.2,4.89c0.08,0.04,0.12,0.08,0.15,0.15
		c0.19,0.15,0.35,0.35,0.62,0.39c0.12-0.12,0.23-0.23,0.39-0.39c-0.04-0.04-0.04-0.08-0.08-0.12c-0.08-0.12-0.19-0.23-0.27-0.35
		c-2.66-2.81-5.28-5.59-7.94-8.4c-0.08-0.12-0.19-0.19-0.31-0.27c-0.04-0.04-0.08-0.08-0.12-0.12l-0.08,0.04
		c-0.42,0.19-0.81,0.39-1.27,0.73c0.08,0.08,0.15,0.12,0.19,0.15C229.26,210.58,229.41,210.69,229.57,210.84z"/>
	<path d="M259.46,216.86c-0.19,0.23-0.35,0.5-0.54,0.73v0.04c0,0.04,0,0.04,0,0.04c0.15,0.19,0.27,0.35,0.54,0.35
		c0.04,0,0.04,0,0.04,0c2.54-2.97,5.09-5.93,7.63-8.94c0.08-0.08,0.08-0.12,0.12-0.19c0.04-0.04,0.04-0.04,0.04-0.04
		c-0.31-0.27-0.69-0.39-1.12-0.54l-0.15-0.04l-0.15,0.15c-0.12,0.15-0.27,0.35-0.39,0.5l-1.43,1.89
		C262.51,212.81,260.97,214.81,259.46,216.86z"/>
	<path d="M239.62,218.01c0.04,0,0.08,0,0.08,0.04l0.15-0.15c0.12-0.08,0.23-0.15,0.35-0.23c-0.04-0.04-0.04-0.08-0.08-0.12
		c-0.04-0.08-0.08-0.15-0.12-0.19c-2.23-2.93-4.43-5.86-6.67-8.78c-0.08-0.08-0.15-0.15-0.23-0.23c-0.04-0.04-0.08-0.08-0.12-0.08
		c-0.08,0.04-0.19,0.08-0.27,0.12c-0.23,0.08-0.46,0.19-0.69,0.27c-0.08,0.04-0.12,0.12-0.19,0.19c0,0.04-0.04,0.04-0.04,0.08
		c2.58,3.01,5.16,6.01,7.71,9.02C239.54,217.97,239.58,217.97,239.62,218.01z"/>
	<path d="M240.93,217.01l0.04,0.04c0.23-0.08,0.42-0.15,0.54-0.42l-1.23-2.04c-1.43-2.39-2.93-4.85-4.39-7.28
		c-0.69,0.08-0.85,0.12-1.31,0.46c2.08,3.04,4.12,6.05,6.2,9.09C240.82,216.89,240.89,216.97,240.93,217.01z"/>
	<path d="M257.92,216.08l-0.31,0.54c0,0,0,0.04,0,0.08s0,0.04,0,0.08c0.15,0.08,0.31,0.15,0.46,0.27c0.46-0.58,0.89-1.16,1.27-1.73
		c0.12-0.19,0.23-0.35,0.39-0.54c0.54-0.81,1.08-1.58,1.62-2.39c0.15-0.23,0.31-0.46,0.46-0.65c0.39-0.58,0.77-1.16,1.16-1.7
		c0.15-0.27,0.31-0.5,0.46-0.73c0.39-0.5,0.73-1.04,1.04-1.66l-1.19-0.42l-0.15,0.19c-0.15,0.27-0.31,0.46-0.42,0.69
		c-1.31,2.12-2.58,4.28-3.89,6.43C258.5,215.04,258.23,215.58,257.92,216.08z"/>
	<path d="M237.5,207.22c1.5,2.81,3.01,5.63,4.51,8.44c0.12,0.15,0.19,0.31,0.31,0.46l0.04,0.04c0.04,0,0.04,0,0.08,0.04
		c0.15-0.08,0.31-0.15,0.5-0.27c0-0.04,0-0.08,0-0.08c-0.04-0.08-0.04-0.15-0.08-0.19c-1.35-2.93-2.74-5.9-4.12-8.82
		c-0.04-0.08-0.08-0.19-0.19-0.27c0-0.04-0.04-0.08-0.08-0.12c-0.08,0-0.15,0.04-0.19,0.04c-0.23,0.04-0.42,0.12-0.62,0.15
		c-0.12,0.04-0.19,0.12-0.31,0.19c0,0-0.04,0-0.04,0.04s0.04,0.08,0.08,0.12C237.43,207.07,237.46,207.15,237.5,207.22z"/>
	<path d="M256.19,215.85c0,0,0,0.04,0.04,0.08v0.04l0.12,0.08c0.12,0.04,0.23,0.12,0.35,0.15l0.08-0.08
		c0.08-0.12,0.15-0.19,0.19-0.27c1.54-2.93,3.12-5.82,4.7-8.75c0.04-0.08,0.04-0.15,0.04-0.23c0-0.04,0.04-0.08,0.04-0.08
		l-0.08-0.04c-0.31-0.15-0.62-0.27-0.92-0.27c-0.08,0-0.15,0-0.23,0.04c0,0.04-0.04,0.08-0.08,0.12c-0.04,0.12-0.12,0.19-0.15,0.31
		c-1.31,2.77-2.58,5.59-3.89,8.4C256.3,215.51,256.27,215.66,256.19,215.85z"/>
	<path d="M244.36,215.24c0.04,0.04,0.04,0.04,0.04,0.08l0.15-0.04c0.15-0.04,0.27-0.12,0.42-0.15v-0.27L244.4,213
		c-0.65-2.27-1.35-4.58-2.04-6.86c-0.04-0.12-0.12-0.23-0.19-0.39c0-0.04-0.04-0.08-0.04-0.12c-0.15,0.04-0.27,0.04-0.42,0.08
		c-0.27,0.04-0.54,0.08-0.77,0.27c1.12,3.01,2.23,6.05,3.31,9.05C244.28,215.12,244.32,215.16,244.36,215.24z"/>
	<path d="M254.69,215.28c0.04-0.04,0.04-0.08,0.04-0.08c0.08-0.12,0.12-0.23,0.15-0.35c1.04-2.81,2.08-5.66,3.12-8.51
		c0.04-0.12,0.04-0.23,0.04-0.35c0-0.04,0-0.04,0-0.08c-0.27-0.15-0.54-0.19-0.81-0.23c-0.12,0-0.19,0-0.27-0.04
		c-0.04,0.04-0.04,0.04-0.04,0.04c-0.04,0.08-0.08,0.12-0.12,0.15c-0.92,3.12-1.85,6.16-2.74,9.21
		C254.22,215.24,254.42,215.28,254.69,215.28z"/>
	<path d="M252.49,214.62c0,0,0,0,0.04,0c0,0.04,0,0.08,0.04,0.08c0.15,0.12,0.35,0.19,0.65,0.04l0.31-1.27
		c0.62-2.58,1.27-5.2,1.89-7.82v-0.12c0-0.04,0-0.04,0-0.08c-0.27-0.08-0.54-0.12-0.81-0.15c-0.12,0-0.27-0.04-0.39-0.04l-1.7,9.02
		C252.49,214.39,252.49,214.51,252.49,214.62z"/>
	<path d="M244.67,209.92c0.39,1.5,0.77,3.01,1.16,4.51c0,0.08,0.04,0.19,0.12,0.31c0,0,0.04,0.04,0.08,0.08c0,0,0,0,0.04,0.04
		l0.58-0.15l-0.62-3.16c-0.35-2-0.73-3.93-1.12-5.89c0-0.08-0.04-0.15-0.08-0.27c0-0.04,0-0.04-0.04-0.08
		c-0.42,0-0.81,0.04-1.16,0.19v0.12c0.04,0.08,0.04,0.19,0.08,0.27L244.67,209.92z"/>
	<path d="M251.06,214.51c0.04,0,0.12,0.04,0.15,0.04c0.04,0,0.12-0.04,0.15-0.04h0.15c0.5-3.08,0.92-6.13,1.27-9.25
		c-0.46-0.23-0.85-0.23-1.23-0.04l-0.04,0.39c-0.08,0.96-0.15,1.96-0.23,2.93c-0.15,1.77-0.31,3.58-0.46,5.36v0.35
		C250.87,214.39,250.95,214.51,251.06,214.51z"/>
	<path d="M246.59,207.72c0.23,1.85,0.5,3.74,0.73,5.59c0.08,0.39,0.12,0.66,0.15,0.92c0.04,0.15,0.08,0.23,0.12,0.27
		c0.08,0.04,0.19,0.04,0.42,0c0.04,0,0.08,0,0.12-0.04c0.04,0,0.04,0,0.08-0.04c0-0.19,0-0.35-0.04-0.54c0-0.42,0-0.85-0.04-1.23
		c-0.12-1.7-0.27-3.35-0.39-5.01l-0.15-1.66v-0.15c-0.04-0.27-0.04-0.5-0.19-0.73c-0.39-0.08-0.73-0.08-1.08,0.12v0.5
		c0.08,0.54,0.15,1.08,0.19,1.62L246.59,207.72z"/>
	<path d="M249.21,214.31c0,0.04,0,0.04,0,0.04l0.04,0.04c0.23,0.08,0.42,0.08,0.58-0.04c0.15-1.85,0.19-3.78,0.23-5.59
		c0-1.16,0.04-2.35,0.08-3.54c0,0-0.04-0.04-0.04-0.12c0,0-0.04,0-0.04-0.04c-0.31-0.08-0.62-0.08-1.04,0c-0.12,1,0,7.09,0.15,9.21
		C249.18,214.31,249.18,214.31,249.21,214.31z"/>
	<path d="M258.97,261.72c1.09-0.01,2.03-0.91,2.55-1.53c0.83,1.11,1.76,1.66,2.68,1.65c1.16-0.02,2.05-0.91,2.53-1.52
		c0.99,1.06,1.92,1.6,2.77,1.6c0.13,0,0.26-0.01,0.39-0.04c1.4-0.27,1.94-1.94,1.96-2.01c0.08-0.26-0.06-0.53-0.32-0.61
		c-0.26-0.08-0.53,0.06-0.61,0.31c0,0.01-0.39,1.19-1.23,1.35c-0.7,0.13-1.6-0.46-2.64-1.7c-0.1-0.12-0.26-0.21-0.42-0.17
		c-0.16,0.01-0.3,0.1-0.38,0.24c-0.01,0.02-0.91,1.56-2.08,1.58c-0.01,0-0.01,0-0.02,0c-0.73,0-1.47-0.59-2.2-1.77
		c-0.09-0.14-0.24-0.23-0.41-0.23c-0.13-0.02-0.32,0.08-0.41,0.22c-0.29,0.46-1.26,1.64-2.18,1.65c0,0-0.01,0-0.01,0
		c-0.45,0-0.88-0.3-1.28-0.89c-0.15-0.22-0.46-0.28-0.68-0.13c-0.22,0.15-0.28,0.45-0.13,0.68
		C257.46,261.28,258.21,261.76,258.97,261.72z"/>
	<path d="M255.22,265.33c0.71,0.42,1.36,0.64,1.95,0.64c0.32,0,0.63-0.07,0.92-0.2c0.62-0.28,1.01-0.82,1.24-1.3
		c0.73,0.87,1.53,1.3,2.38,1.3c0,0,0.01,0,0.01,0c1.15-0.01,2.06-0.84,2.55-1.41c0.96,1.02,1.95,1.5,2.92,1.39
		c1.06-0.11,1.84-0.86,2.29-1.44c0.58,0.77,1.26,1.22,2.04,1.33c1.54,0.24,2.8-0.97,2.86-1.02c0.19-0.19,0.2-0.49,0.01-0.69
		c-0.19-0.2-0.5-0.2-0.69-0.02c-0.01,0.01-0.99,0.94-2.05,0.76c-0.66-0.1-1.25-0.6-1.75-1.49c-0.09-0.16-0.28-0.26-0.43-0.25
		c-0.18,0-0.34,0.1-0.42,0.26c-0.01,0.01-0.79,1.46-1.96,1.58c-0.8,0.07-1.61-0.43-2.47-1.5c-0.1-0.12-0.24-0.19-0.41-0.18
		c-0.16,0.01-0.3,0.09-0.38,0.23c-0.01,0.01-0.94,1.46-2.12,1.46c0,0,0,0-0.01,0c-0.72,0-1.43-0.55-2.13-1.63
		c-0.11-0.17-0.31-0.26-0.51-0.21c-0.2,0.04-0.35,0.2-0.38,0.39c0,0.01-0.23,1.18-1.01,1.54c-0.5,0.22-1.15,0.09-1.95-0.39
		c-0.23-0.14-0.53-0.07-0.67,0.17C254.92,264.9,254.99,265.19,255.22,265.33z"/>
	<path d="M255.59,269.49c0.5-0.17,0.83-0.61,1.03-1.01c0.78,0.77,1.59,1.16,2.41,1.16c0.07,0,0.13,0,0.2-0.01
		c1.11-0.08,1.94-0.86,2.4-1.42c0.79,0.92,1.63,1.38,2.51,1.38c0.02,0,0.05,0,0.08,0c1.13-0.03,2-0.82,2.46-1.36
		c0.98,0.98,1.98,1.45,2.97,1.33c1.06-0.11,1.82-0.82,2.26-1.34l0.28,0.36c0.17,0.22,0.47,0.25,0.68,0.08
		c0.21-0.17,0.25-0.47,0.08-0.68l-0.69-0.87c-0.1-0.13-0.25-0.2-0.42-0.18c-0.16,0.01-0.31,0.1-0.39,0.25
		c-0.01,0.01-0.75,1.31-1.92,1.43c-0.8,0.1-1.64-0.4-2.53-1.44c-0.1-0.12-0.24-0.18-0.41-0.17c-0.15,0.01-0.29,0.09-0.37,0.23
		c-0.01,0.01-0.89,1.37-2.04,1.4c-0.69,0.04-1.46-0.48-2.18-1.5c-0.09-0.13-0.23-0.21-0.42-0.2c-0.16,0.01-0.31,0.1-0.4,0.24
		c-0.01,0.01-0.84,1.42-2.04,1.5c-0.77,0.03-1.54-0.42-2.33-1.42c-0.12-0.15-0.3-0.21-0.49-0.17c-0.18,0.04-0.33,0.19-0.36,0.37
		c-0.07,0.31-0.32,1-0.69,1.13c-0.27,0.1-0.64-0.14-0.89-0.36c-0.21-0.17-0.51-0.15-0.69,0.06c-0.17,0.21-0.15,0.51,0.06,0.69
		C254.4,269.51,255.02,269.69,255.59,269.49z"/>
	<path d="M266.39,272.07c-0.02,0-0.72,0.16-1.58-1c-0.09-0.12-0.23-0.19-0.37-0.2c-0.15,0.04-0.29,0.06-0.39,0.17
		c-0.01,0.01-1.31,1.46-2.65,1.38c-0.7-0.04-1.35-0.49-1.92-1.33c-0.09-0.14-0.24-0.23-0.42-0.21c-0.17,0.01-0.32,0.09-0.4,0.24
		c-0.01,0.01-0.9,1.49-2.03,1.56c-0.59-0.01-1.19-0.35-1.78-1.13c-0.16-0.21-0.47-0.25-0.68-0.1c-0.21,0.16-0.26,0.47-0.1,0.68
		c0.76,1.01,1.6,1.52,2.49,1.52c0.04,0,0.09,0,0.13,0c1.09-0.06,1.94-0.88,2.41-1.46c0.66,0.76,1.42,1.17,2.26,1.21
		c1.29,0.07,2.46-0.78,3.04-1.31c1.17,1.25,2.23,0.94,2.28,0.92c0.25-0.08,0.38-0.34,0.31-0.59
		C266.91,272.16,266.63,272.01,266.39,272.07z"/>
	<path d="M246.89,260.03c-0.04-0.01-0.17-0.13-0.28-0.46c-0.06-0.18-0.21-0.31-0.4-0.34c-0.19-0.02-0.37,0.06-0.47,0.22
		c-0.01,0.01-0.86,1.31-2.06,1.39c-0.73,0.1-1.52-0.37-2.29-1.27c-0.09-0.11-0.23-0.17-0.37-0.17c0,0,0,0,0,0
		c-0.14,0-0.28,0.07-0.37,0.17c-0.01,0.01-1.04,1.23-2.24,1.23c-0.03,0-0.06,0-0.09,0c-0.69-0.04-1.33-0.5-1.91-1.36
		c-0.09-0.13-0.23-0.21-0.39-0.22c-0.16-0.01-0.31,0.06-0.4,0.19c-0.01,0.01-1.21,1.51-2.47,1.42c-0.69-0.03-1.35-0.5-1.94-1.39
		c-0.09-0.13-0.23-0.21-0.39-0.22c-0.2,0.01-0.31,0.07-0.4,0.19c-0.02,0.02-1.4,1.76-2.68,1.27c-0.25-0.1-0.53,0.02-0.63,0.28
		c-0.1,0.25,0.03,0.53,0.28,0.63c1.41,0.56,2.72-0.46,3.37-1.11c0.69,0.85,1.48,1.3,2.35,1.33c1.26,0.1,2.3-0.78,2.86-1.33
		c0.68,0.82,1.46,1.26,2.31,1.3c1.24,0.08,2.21-0.7,2.74-1.18c0.81,0.81,1.66,1.22,2.54,1.22c0.07,0,0.14,0,0.2-0.01
		c1.04-0.07,1.84-0.72,2.32-1.23c0.35,0.41,0.7,0.41,0.75,0.4c0.27,0,0.51-0.21,0.52-0.47
		C247.34,260.26,247.16,260.04,246.89,260.03z"/>
	<path d="M244.18,263.17c-0.09-0.14-0.24-0.22-0.41-0.22c-0.11-0.02-0.33,0.09-0.42,0.23c-0.01,0.01-0.91,1.46-2.13,1.5
		c-0.02,0-0.04,0-0.06,0c-0.73,0-1.47-0.52-2.2-1.53c-0.09-0.13-0.2-0.2-0.41-0.2c-0.16,0-0.31,0.09-0.4,0.22
		c-0.01,0.01-1.01,1.5-2.21,1.5c-0.7,0-1.38-0.5-2.03-1.5c-0.09-0.14-0.24-0.22-0.41-0.22c-0.13,0.01-0.32,0.08-0.41,0.23
		c-0.01,0.01-0.89,1.38-2.1,1.43c-0.76,0.05-1.53-0.46-2.3-1.46c-0.12-0.15-0.31-0.22-0.52-0.17c-0.19,0.05-0.33,0.22-0.35,0.42
		c0,0.01-0.11,0.93-0.71,1.25c-0.41,0.22-1,0.13-1.75-0.26c-0.24-0.12-0.53-0.03-0.66,0.21c-0.12,0.24-0.03,0.53,0.21,0.66
		c0.63,0.33,1.19,0.49,1.7,0.49c0.35,0,0.67-0.08,0.96-0.23c0.48-0.26,0.77-0.68,0.95-1.07c0.8,0.8,1.62,1.2,2.52,1.15
		c1.11-0.05,1.97-0.79,2.45-1.33c0.74,0.93,1.56,1.39,2.45,1.39c1.17,0,2.11-0.84,2.62-1.42c0.84,0.98,1.75,1.44,2.69,1.43
		c1.12-0.04,1.99-0.82,2.48-1.38c0.44,0.64,0.64,0.87,0.67,0.89c0.18,0.2,0.48,0.2,0.68,0.03c0.2-0.18,0.21-0.49,0.03-0.68
		C245.13,264.51,244.84,264.19,244.18,263.17z"/>
	<path d="M243.41,268.65c0,0-0.76,0.23-1.9-1.51c-0.09-0.14-0.27-0.23-0.41-0.22c-0.16,0-0.3,0.07-0.39,0.2
		c-0.01,0.01-1.09,1.45-2.3,1.45c-0.01,0-0.03,0-0.05,0c-0.67-0.02-1.31-0.5-1.9-1.43c-0.09-0.14-0.24-0.22-0.4-0.23
		c-0.13-0.01-0.32,0.07-0.41,0.21c-0.01,0.01-1.01,1.4-2.24,1.42c-0.01,0-0.01,0-0.02,0c-0.73,0-1.45-0.48-2.14-1.43
		c-0.09-0.12-0.23-0.2-0.39-0.2c0,0-0.01,0-0.01,0c-0.15,0-0.29,0.07-0.39,0.19c-0.31,0.39-1.32,1.37-2.25,1.36
		c-0.53-0.03-1.02-0.39-1.45-1.07c-0.15-0.23-0.45-0.29-0.67-0.15c-0.23,0.15-0.29,0.44-0.15,0.67c0.62,0.97,1.37,1.48,2.23,1.52
		c0.03,0,0.07,0,0.1,0c1.09,0,2.04-0.77,2.55-1.29c0.78,0.9,1.64,1.36,2.55,1.36c0.01,0,0.02,0,0.03,0c1.16-0.01,2.09-0.78,2.6-1.32
		c0.68,0.86,1.46,1.31,2.31,1.34c1.22,0,2.2-0.79,2.74-1.35c0.93,1.21,1.74,1.45,2.24,1.45c0.27,0,0.45-0.07,0.5-0.1
		c0.24-0.11,0.36-0.41,0.25-0.65C243.93,268.64,243.65,268.54,243.41,268.65z"/>
	<path d="M242.93,270.91c-0.26-0.08-0.53,0.06-0.61,0.31c0,0.01-0.26,0.78-0.91,0.95c-0.61,0.17-1.49-0.24-2.5-1.17
		c-0.1-0.09-0.24-0.14-0.38-0.12c-0.14,0.01-0.26,0.09-0.34,0.2c-0.01,0.01-1.01,1.35-2.2,1.35c-0.01,0-0.02,0-0.02,0
		c-0.67-0.01-1.32-0.46-1.93-1.34c-0.09-0.13-0.23-0.21-0.39-0.21c-0.17,0.01-0.31,0.07-0.4,0.2c-0.26,0.35-0.62,0.7-0.78,0.78
		c-0.21-0.05-0.46,0.05-0.56,0.27c-0.11,0.24-0.01,0.53,0.24,0.65c0.5,0.24,1.06-0.17,1.48-0.62c0.7,0.82,1.49,1.25,2.34,1.26
		c0.01,0,0.02,0,0.03,0c1.19,0,2.16-0.83,2.65-1.35c1.14,0.94,2.16,1.29,3.04,1.06c1.17-0.31,1.56-1.54,1.58-1.59
		C243.32,271.26,243.18,270.99,242.93,270.91z"/>
	<path d="M286.47,268.68c0.08-0.08,0.12-0.15,0.19-0.23c0.69-0.69,1.62-1.16,2.85-1.46l0.69-0.19c0.81-0.19,1.58-0.39,2.31-0.58
		c1.58-0.5,2.85-1.19,3.93-2.2c1.54-1.5,2.5-3.43,2.97-6.05c0.19-1.19,0.15-2.43,0.12-3.66c0-0.23-0.04-0.5-0.04-0.73
		c0-0.15-0.04-0.31-0.08-0.46c-0.15,0.23-0.31,0.42-0.39,0.62c-0.69,1.04-1.54,1.93-2.47,2.66c-0.62,0.42-1.31,0.81-2.2,1.19
		c-0.39,0.15-0.77,0.31-1.16,0.46c-1.19,0.5-2.47,0.96-3.54,1.7l-0.04,0.04h-0.04c-0.04,0-0.08-0.04-0.12-0.08c0,0-0.04,0-0.08-0.04
		h-0.12l0.04-0.12c0.04-0.04,0.04-0.08,0.04-0.12c0.04-0.12,0.04-0.23,0.12-0.35c0.27-0.81,0.69-1.58,1.31-2.16
		c0.54-0.46,1.08-0.92,1.66-1.39c0.27-0.23,0.58-0.42,0.85-0.62c0.54-0.42,1.08-0.81,1.58-1.23c2.81-2.23,4.24-5.32,4.24-9.09
		c0-2.08-0.46-4.16-1.39-6.2c-0.04-0.04-0.04-0.04-0.04-0.08c-0.08-0.12-0.12-0.19-0.19-0.19c-0.12,0.27-0.23,0.58-0.35,0.85
		c-0.65,1.63-1.6,3.19-2.74,4.6c-1.99-0.74-20.77-6.47-29.62-9.1c-0.19-0.08-0.35-0.12-0.54-0.15c-0.08,0-0.12,0-0.19-0.04
		c-0.19,0.19-0.23,0.39-0.15,0.62c0.04,0.04,0.12,0.08,0.19,0.12c0.19,0.08,0.42,0.15,0.65,0.23c4.01,1.46,8.01,2.93,12.02,4.39
		l8.01,2.93c1.77,0.65,3.54,1.31,5.32,1.96l1.16,0.39c0.04,0.04,0.08,0.04,0.15,0.08c0.16,0.05,0.84,0.27,1.32,0.46
		c-0.07,0.06-0.14,0.14-0.2,0.2c-0.41,0.37-0.79,0.71-1.16,1.05c-0.29-0.11-0.83-0.32-0.87-0.34c-3.04-1.05-6.07-2.14-9.11-3.23
		c-0.19-0.06-0.42-0.13-0.61-0.22c-0.35-0.13-0.67-0.06-0.96,0.16c-0.19,0.16-0.38,0.29-0.61,0.48c-0.32-0.13-0.64-0.26-0.96-0.42
		c-3.1-1.44-6.23-2.91-9.33-4.35c-1.82-0.86-3.64-1.69-5.46-2.52c-0.1-0.06-0.19-0.03-0.26-0.06c-0.26,0.22-0.42,0.42-0.35,0.77
		c0.29,0.16,0.58,0.35,0.86,0.51c3.23,1.73,6.42,3.45,9.65,5.18c1.21,0.67,2.4,1.31,3.58,1.95c0.16,0.1,0.29,0.22,0.54,0.42
		c-0.29,0-0.42,0.03-0.51,0c-0.22-0.1-0.42-0.22-0.64-0.35c-2.05-1.12-4.06-2.24-6.1-3.39c-0.22-0.13-0.48-0.26-0.74-0.38
		c-0.22-0.13-0.45-0.13-0.7,0c-0.13,0.1-0.26,0.16-0.38,0.22c-1.02-0.61-2.01-1.21-2.97-1.79c-0.99-0.58-1.95-1.18-2.97-1.76
		c-0.26,0.22-0.48,0.42-0.7,0.61c-0.48-0.35-0.89-0.64-1.31-0.96c-0.42-0.35-0.89-0.58-1.21-1.02c0.19-0.29,0.35-0.54,0.48-0.83
		c1.41-2.56,1.82-5.27,1.25-8.18c-1.25-6.2-7.41-10-13.13-9.11c-6.71,1.02-11.28,7.54-9.62,14.41c0.45,1.76,1.28,3.32,2.43,4.76
		c0.16,0.19,0.42,0.35,0.42,0.67c-0.06,0.03-0.1,0.1-0.13,0.13c-1.53,1.15-3.04,2.27-4.57,3.39c-0.06,0.06-0.22,0.06-0.32,0.1
		c0.1-0.32,0.38-0.45,0.61-0.67c0.48-0.42,0.99-0.83,1.44-1.25c-0.03-0.38-0.22-0.54-0.58-0.7c-1.12,0.83-2.27,1.69-3.42,2.56
		c-0.32-0.13-0.58-0.22-0.64-0.61l1.82-1.25c0.61-0.45,1.31-0.8,1.85-1.37c-0.1-0.29-0.22-0.54-0.58-0.64
		c-0.19,0.13-0.38,0.22-0.61,0.35c-1.02,0.61-2.01,1.21-3.04,1.82c-0.32,0.19-0.61,0.38-1.02,0.22c-0.29-0.1-0.54,0.06-0.8,0.16
		c-0.54,0.26-1.09,0.51-1.63,0.74c-0.16,0.06-0.35,0.26-0.61,0.13c0.32-0.19,0.64-0.38,0.96-0.54c1.79-0.96,3.55-1.92,5.31-2.88
		c0.35-0.19,0.67-0.35,0.99-0.54c0.06-0.03,0.1-0.13,0.19-0.26c-0.13-0.19-0.26-0.42-0.38-0.67c-0.38,0.16-0.7,0.32-1.05,0.48
		c-2.78,1.28-5.59,2.59-8.41,3.9c-0.96,0.45-1.92,0.89-2.88,1.31c-0.03,0.03-0.1,0-0.16,0c-0.22-0.16-0.48-0.29-0.7-0.45
		c-0.45,0.13-0.83,0.26-1.25,0.42c-4.15,1.47-8.28,2.94-12.43,4.44c-0.12,0.04-0.75,0.28-1.13,0.41c-0.33-0.26-0.63-0.59-1.03-1
		l-0.08-0.04c-0.01-0.01-0.02-0.03-0.04-0.04l1-0.5c1.62-0.65,3.47-1.35,4.93-1.93c1-0.35,2-0.73,3.01-1.08
		c0.89-0.31,1.77-0.65,2.66-1c0.96-0.31,1.89-0.65,2.85-1c0.92-0.35,1.89-0.69,2.81-1.04c0.92-0.35,1.85-0.66,2.77-1
		c0.96-0.35,1.97-0.69,2.93-1.08c0.77-0.27,1.58-0.58,2.35-0.85c1.04-0.39,2.12-0.77,3.2-1.19c-0.04-0.27-0.08-0.5-0.31-0.62
		c-8.85,2.61-27.16,8.27-29.88,9.25c-0.2-0.22-0.37-0.44-0.56-0.69l-0.04-0.08c-1.16-1.58-1.62-2.54-2.2-4.08
		c0-0.08-0.04-0.15-0.08-0.23c-0.04-0.15-0.08-0.27-0.19-0.31l-0.04,0.04l-0.12,0.08c-1.23,2.81-1.7,5.66-1.27,8.48
		c0.42,2.77,1.7,5.01,3.81,6.78c0.27,0.23,0.58,0.46,0.89,0.69c0.19,0.12,0.39,0.27,0.58,0.39c0.77,0.62,1.62,1.23,2.39,1.89
		c0.77,0.62,1.39,1.46,1.81,2.5v0.08c0.08,0.15,0.19,0.39,0.08,0.69l-0.04,0.12l-0.12-0.08c-0.08-0.04-0.15-0.08-0.23-0.12
		c-0.04-0.04-0.12-0.08-0.15-0.12c-0.35-0.15-0.65-0.31-1-0.46c-0.31-0.15-0.65-0.35-0.96-0.5l-2.2-0.92
		c-2.27-0.85-4.01-2.35-5.2-4.43c-0.04-0.04-0.12-0.12-0.19-0.19c0,0.62,0,1.23-0.04,1.81v1.81c0,0.89,0.15,1.85,0.42,2.77
		c0.66,2.27,1.77,4.01,3.43,5.2c0.96,0.73,2.12,1.27,3.7,1.73c0.46,0.12,0.96,0.23,1.43,0.39c0.5,0.12,1,0.23,1.54,0.39
		c0.89,0.23,1.7,0.69,2.47,1.43c0.04,0.04,0.08,0.08,0.12,0.12c0.04,0.08,0.08,0.15,0.15,0.23l0.19,0.19h-0.54
		c-0.04,0-0.12,0-0.15-0.04c-0.73-0.23-1.58-0.31-2.66-0.31c-0.42,0-0.85-0.04-1.31-0.04h-1.27c-1.5,0-3.01-0.5-4.35-1.43
		c-0.15-0.08-0.27-0.15-0.39-0.27c-0.12-0.08-0.23-0.15-0.35-0.23l-0.08-0.04l-0.04-0.04h-0.04c0,0.04,0,0.08,0.04,0.12
		c0.54,1.5,1.23,3.2,2.27,4.74c1.93,2.77,4.66,4.01,8.13,3.62c0.85-0.12,1.77-0.15,2.85-0.15c0.73-0.04,1.46,0.15,2.27,0.62
		c0.12,0.08,0.15,0.15,0.23,0.23c0.04,0.08,0.08,0.15,0.15,0.23l0.19,0.19h-0.27c-0.23-0.04-0.46-0.04-0.69-0.04
		c-1.12,0-2.12,0.27-3.08,0.54l-0.23,0.04c-0.23,0.08-0.46,0.15-0.77,0.23c-1.66,0.42-3.08,0.42-4.51-0.04h-0.31
		c-0.04,0-0.04,0-0.08,0c0.04,0.08,0.08,0.15,0.12,0.23c0.92,1.04,2,2.23,3.24,3.31c0.65,0.58,1.43,0.96,2.39,1.19
		c1.31,0.35,2.66,0.23,4.01-0.27c0.62-0.27,1.27-0.54,1.97-0.81l0.42-0.19c1-0.39,2-0.39,3.01,0l0.19,0.08l-0.15,0.12
		c-0.19,0.15-0.35,0.23-0.5,0.27c-0.69,0.19-1.35,0.5-2,0.92c-0.39,0.19-0.73,0.42-1.08,0.62l-0.39,0.23
		c-1.08,0.65-2.12,0.92-3.24,0.92c-0.19,0-0.35,0-0.54,0.04c0,0.04,0,0.08,0,0.08l0.19,0.15c1,0.69,1.97,1.31,3.08,1.81
		c1.27,0.58,2.54,0.69,3.89,0.35c0.62-0.19,1.27-0.46,1.89-0.85c0.31-0.23,0.66-0.46,1-0.69c0.15-0.08,0.27-0.15,0.42-0.27
		c0.65-0.42,1.31-0.66,1.96-0.66h0.15c0.12,0,0.27,0.04,0.35,0.27v0.08l-0.08,0.04c-0.73,0.39-1.27,0.96-1.89,1.58l-0.15,0.15
		c-0.92,0.96-1.93,1.54-3.01,1.77c-0.08,0-0.19,0.04-0.27,0.08c-0.08,0-0.12,0.04-0.19,0.08c0.89,0.42,2.04,0.89,3.31,1.12
		c1.7,0.35,3.08-0.08,4.32-1.31c0.35-0.35,0.73-0.73,1.04-1.08c0.46-0.5,0.96-0.85,1.54-1.04c0.12-0.04,0.19,0,0.31,0h0.35
		l-0.27,0.42c-0.42,0.66-0.81,1.23-1.23,1.81c-0.58,0.92-1.19,1.54-2.04,1.93c-0.08,0.04-0.15,0.12-0.31,0.19
		c0.58,0.15,1.08,0.23,1.66,0.27c0.23,0.04,0.42,0.04,0.66,0.08c0.35,0.04,0.65,0.04,1,0c0.08-0.04,0.19-0.04,0.27-0.04
		c0.04,0,0.08,0,0.12-0.04c0,0,0.04,0,0.08,0c1.08-0.23,2-0.85,2.89-1.89c0.27-0.42,0.58-0.81,0.92-1.23c0.46-0.5,1-0.81,1.58-0.92
		c0.46-0.12,0.89-0.04,1.16,0.15c0.31,0.23,0.46,0.62,0.54,1.19c0.04,0.15,0,0.27-0.04,0.39l-0.04,0.15
		c-0.12,0.42-0.23,0.85-0.35,1.27c-0.23,0.46-0.42,0.89-0.65,1.35c-0.27,0.62-0.58,1.23-0.81,1.85c-0.31,0.62-0.62,1.23-0.85,1.89
		c-0.15,0.35-0.23,0.77-0.23,1.16c0,0.77,0.31,1.16,1.08,1.43c0.15,0.04,0.35,0.12,0.58,0.23l0.08,0.04v0.12
		c-0.27,0.85-0.15,1.66,0.04,2.35c0.19,0.85,0.77,1.39,1.43,1.96h0.04v0.08c0,0.5-0.19,0.89-0.58,1.08v0.04h-0.04
		c-0.46-0.08-0.73-0.35-1.04-0.62c-0.39-0.35-0.81-0.58-1.23-0.62c-0.12-0.04-0.19-0.04-0.27-0.04c-0.54,0-1,0.27-1.23,0.69
		c-0.31,0.58-0.23,1.19,0.23,1.66c0.12,0.12,0.27,0.19,0.39,0.31c0.08,0.08,0.19,0.15,0.27,0.23h0.04v0.04
		c0.04,0.35,0.04,0.62,0.04,0.89c0.04,0.27,0.19,0.58,0.42,0.69c0.19,0.15,0.5,0.27,0.73,0.31c0.23,0.08,0.46,0.12,0.73,0v-0.04
		c-0.12-0.15-0.19-0.31-0.27-0.42c-0.12-0.31,0-0.62,0.31-0.77c0.31-0.12,0.62-0.12,0.92,0c0.62,0.31,1.35,0.35,2.12,0.15
		c0.23-0.04,0.54,0,0.85,0.08c0.12,0,0.19,0.08,0.23,0.19c0.08,0.12,0.08,0.31,0,0.5c-0.08,0.12-0.15,0.23-0.23,0.31
		c-0.04,0.04-0.08,0.08-0.15,0.15c0.35,0.12,0.65,0.23,1,0.19c0.58-0.15,1-0.62,1.08-1.23c0.12-0.58-0.15-1.04-0.73-1.31
		c-0.12-0.04-0.27-0.12-0.39-0.15c-0.15-0.04-0.31-0.12-0.42-0.19c-0.31-0.19-0.69-0.5-0.73-1.04v-0.23l0.15,0.12
		c1.97,1.16,1.97,1.16,3.66,1.31h0.04l0.04,0.04c0.81,0.89,1.54,1.27,2.43,1.27c1.04,0,1.77-0.62,2.31-1.19l0.04-0.04h0.04
		c0.15-0.04,0.31-0.04,0.5-0.08c0.54-0.08,1-0.12,1.43-0.31c0.5-0.19,0.96-0.5,1.39-0.77c0.12-0.08,0.19-0.12,0.31-0.19l0.19-0.12
		l-0.04,0.23c-0.08,0.54-0.15,0.73-0.58,0.92c-0.08,0.08-0.23,0.15-0.39,0.19c-0.15,0.08-0.27,0.15-0.46,0.23
		c-0.54,0.27-0.85,0.73-0.77,1.27c0.08,0.66,0.54,1.16,1.19,1.27c0.39,0.04,0.65-0.04,0.85-0.27c0,0,0,0,0-0.04
		c-0.04,0-0.04,0-0.04,0c-0.04-0.04-0.08-0.08-0.12-0.12c-0.15-0.19-0.39-0.42-0.15-0.77c0.23-0.27,0.58-0.27,0.89-0.27
		c0.04,0,0.08,0,0.12,0.04c0.85,0.19,1.54,0.15,2.2-0.19c0.39-0.08,0.66-0.08,0.92,0.08c0.31,0.15,0.42,0.46,0.31,0.77
		c-0.04,0.08-0.12,0.15-0.15,0.19c-0.12,0.12-0.12,0.15-0.12,0.19c0.66,0.12,1.12,0.04,1.39-0.19c0.35-0.27,0.5-0.77,0.5-1.58v-0.08
		h0.04c0.12-0.12,0.23-0.23,0.35-0.31c0.19-0.15,0.35-0.27,0.5-0.46c0.27-0.39,0.35-0.81,0.19-1.23c-0.15-0.42-0.5-0.73-0.96-0.89
		c-0.5-0.15-0.96-0.04-1.5,0.31c-0.12,0.08-0.23,0.19-0.39,0.31c-0.15,0.12-0.35,0.27-0.54,0.42c-0.23,0.19-0.42,0.19-0.5,0.15
		c-0.12,0-0.31-0.08-0.42-0.35c-0.08-0.23-0.19-0.42-0.27-0.69v-0.08l0.04-0.04c0.08-0.08,0.15-0.15,0.23-0.23
		c0.04-0.04,0.12-0.08,0.15-0.12c0.81-0.62,1.23-1.5,1.27-2.54v-1c0-0.08,0-0.15,0.04-0.27v-0.42l0.08-0.04
		c0.08-0.04,0.15-0.04,0.23-0.04c0.08,0,0.15-0.04,0.19-0.04c0.77-0.27,1-0.58,1.04-1.35c0.04-0.5-0.04-0.92-0.23-1.35
		c-0.35-0.69-0.66-1.35-0.96-2.04c-0.15-0.39-0.35-0.73-0.5-1.12c-0.12-0.19-0.19-0.39-0.27-0.62c-0.27-0.62-0.54-1.27-0.77-1.93
		c-0.15-0.42-0.15-0.85-0.15-1.23c0-0.39,0.12-0.69,0.35-0.89c0.23-0.23,0.58-0.35,0.96-0.35c0.04,0,0.04,0,0.08,0
		c0.5,0.04,0.92,0.23,1.27,0.54c0.42,0.31,0.77,0.73,1.19,1.19c0.15,0.15,0.27,0.31,0.39,0.46c0.19,0.23,0.42,0.5,0.65,0.73
		c0.81,0.77,1.77,1.19,2.81,1.27c1,0,2-0.15,3.04-0.39c-0.08-0.08-0.12-0.12-0.15-0.15c-0.89-0.39-1.58-1.08-2.27-2.16
		c-0.23-0.35-0.46-0.66-0.69-1c-0.15-0.15-0.27-0.35-0.39-0.54c-0.08-0.12-0.15-0.19-0.23-0.39l-0.08-0.19l0.23,0.04
		c0.15,0.04,0.31,0,0.42,0.04c0.58,0.19,1.04,0.5,1.43,0.89c0.31,0.39,0.65,0.77,1,1.12c1.5,1.43,3.12,1.85,5.01,1.31
		c0.77-0.23,1.62-0.5,2.62-0.89c0.08,0,0.15-0.08,0.23-0.12c0,0-0.04,0-0.08-0.04c-0.04,0-0.08,0-0.15-0.04
		c-1.39-0.31-2.54-1-3.43-2c-0.42-0.46-1.04-1.08-1.77-1.54c-0.04,0-0.08-0.04-0.12-0.12c-0.04-0.04-0.08-0.08-0.12-0.12l-0.19-0.19
		h0.69c0.85,0,1.54,0.35,2.12,0.69c0.19,0.15,0.35,0.27,0.54,0.39c0.39,0.27,0.77,0.54,1.16,0.77c1.54,0.85,3.04,1.04,4.51,0.58
		c0.58-0.19,1.19-0.42,1.81-0.77c0.42-0.23,0.85-0.54,1.27-0.81c0.35-0.19,0.69-0.42,1.04-0.65l0.12-0.12
		c-0.27-0.04-0.46-0.04-0.66-0.04c-0.15-0.04-0.27-0.04-0.42-0.04c-0.27-0.04-0.54-0.04-0.77-0.12c-0.96-0.12-1.81-0.58-2.43-1
		c-1-0.62-2.04-1.31-3.27-1.62h-0.04c-0.04-0.04-0.04-0.08-0.08-0.12c-0.04-0.04-0.04-0.08-0.08-0.15l-0.08-0.12l0.12-0.04
		c1.19-0.35,1.93-0.35,2.97,0.08c0.35,0.15,0.73,0.31,1.08,0.46c0.42,0.19,0.85,0.35,1.27,0.5c2.58,0.89,4.74,0.5,6.63-1.16
		c1.12-1,2.2-2.16,3.16-3.27c0,0,0-0.08,0-0.12c-0.04,0.04-0.12,0.04-0.19,0.08c-0.19,0-0.35,0.04-0.46,0.08
		c-1.23,0.35-2.35,0.39-3.47,0.15c-0.31-0.12-0.65-0.19-1-0.27c-0.39-0.12-0.73-0.19-1.12-0.31c-0.96-0.27-2-0.5-3.12-0.42
		c-0.04,0-0.04,0-0.12,0c-0.12,0-0.27-0.04-0.31-0.27v-0.04l0.04-0.04c0.04-0.04,0.12-0.12,0.15-0.15c0.04-0.04,0.08-0.04,0.12-0.08
		l0.04-0.04c0.89-0.46,1.81-0.69,2.85-0.69c0.19,0,0.35,0.04,0.5,0.04h0.08c0.81,0.12,1.66,0.23,2.47,0.27h0.27
		c3.12,0,5.59-1.31,7.24-3.93c0.92-1.39,1.58-3.01,2.16-4.43c0.08-0.08,0.08-0.12,0.04-0.23c-0.23,0.19-0.42,0.31-0.62,0.46
		c-1.5,1.04-3.08,1.58-4.7,1.58h-1.31c-0.42,0-0.85,0.04-1.31,0.04c-0.96,0-1.73,0.08-2.43,0.27c-0.08,0.04-0.19,0.04-0.27,0.04
		h-0.5l0.19-0.19C286.39,268.79,286.43,268.71,286.47,268.68z M238.73,303.04c-0.12,0.08-0.23,0.19-0.39,0.27
		c-0.12,0.08-0.23,0.15-0.35,0.27l-0.19,0.15l0.04-0.42c0-0.23,0.04-0.39,0.12-0.54c0.04-0.12,0.12-0.19,0.23-0.23h0.04
		c0.15,0,0.31,0.12,0.5,0.35l0.08,0.08L238.73,303.04z M260.35,302.93c0.04-0.23,0.15-0.35,0.23-0.39c0.12-0.04,0.23-0.04,0.35,0.04
		c0.46,0.19,0.27,0.73,0.19,0.92l-0.08,0.15l-0.12-0.15c-0.23-0.19-0.39-0.35-0.54-0.46l-0.04-0.04V302.93z M209.33,247.14
		c2.53-0.92,5.85-2.11,10.02-3.57c0.38,0.22,0.74,0.45,1.12,0.67c0.29,0.16,0.48,0.38,0.58,0.7c0.1,0.35,0.22,0.67,0.38,1.09
		c0.19-0.1,0.38-0.16,0.51-0.26c0.48-0.42,0.93-0.83,1.41-1.21c0.19-0.16,0.38-0.29,0.64-0.29c0.32-0.03,0.61-0.16,0.89-0.26
		c1.76-0.8,3.55-1.63,5.31-2.43c0.22-0.1,0.45-0.16,0.77-0.29c-0.38,1.25-1.25,1.98-2.11,2.72c0.16,0.7,0.51,1.28,0.8,1.89
		c0.48,0.06,0.89-0.13,1.28-0.26c0.38-0.1,0.67-0.06,0.89,0.29c0.1,0.13,0.22,0.22,0.32,0.35c0.64,0.7,0.64,0.7,1.57,0.73
		c0.22,0.03,0.45,0,0.67-0.03c0.26-0.35,0.26-0.73,0.32-1.15c0.1-0.61,0.19-1.21,0.29-1.82c0.03-0.29,0.13-0.51,0.38-0.7
		c1.73-1.25,3.45-2.52,5.18-3.77c0.06-0.06,0.16-0.1,0.29-0.13c0.1,0.45-0.22,0.77-0.38,1.09c-0.13,0.22-0.35,0.26-0.58,0.32
		c-0.26,0.06-0.51,0.16-0.74,0.22c-0.19,0.29-0.03,0.51,0.03,0.73c0.19,0.58,0.45,1.15,0.67,1.73c0.51,0.26,1.05,0.51,1.6,0.7
		c0.61,0.26,1.25,0.51,1.89,0.73c0.16,0.06,0.29,0.1,0.38,0.1c0.1-0.06,0.13-0.06,0.13-0.1v-0.19c-0.54-1.21-1.09-2.43-1.66-3.68
		c0.29-0.35,0.58-0.74,0.86-1.09c0.1-0.1,0.26-0.22,0.38-0.26c0.48,0,0.7-0.35,0.96-0.64c1.47-1.79,2.97-3.58,4.44-5.37
		c0.22-0.26,0.45-0.51,0.7-0.8c0.16,0.13,0.32,0.19,0.35,0.32c0.29,0.8,0.58,1.63,0.86,2.43c-0.35,0.51-0.67,0.99-0.99,1.47
		c0.42,0.64,4.73,5.59,5.53,6.33c0.26-0.13,0.16-0.35,0.16-0.54c-0.03-1.34-0.06-2.68-0.1-3.99c-0.03-0.42,0.06-0.7,0.38-0.99
		c0.61-0.54,1.18-1.09,1.79-1.69c0.16,0.19,0.29,0.32,0.38,0.48c0.1,0.19,0.19,0.45,0.26,0.67c0.19,0.67,0.54,1.25,1.09,1.69
		c0.26,0.22,0.48,0.48,0.73,0.73c-0.13,0.32-0.22,0.58-0.32,0.83c0.38,1.02,1.85,3.64,2.3,4.22c0.32-0.38,0.64-0.77,0.96-1.15
		c0.74,0.1,1.28,0.64,1.98,0.8c0.48-0.19,0.86-0.58,1.28-0.89c0.29-0.22,0.58-0.45,0.99-0.42c0.26,0.03,0.45-0.16,0.64-0.32
		c0.45-0.32,0.86-0.67,1.28-0.99c1.25,0.35,2.59,1.37,3.23,2.46c-0.26,0.19-0.48,0.35-0.77,0.58c0.51,0.58,1.21,0.89,1.79,1.31
		c0.58,0.42,1.18,0.8,1.79,1.18c0.51-0.22,0.86-0.64,1.28-0.93c0.26-0.19,0.48-0.38,0.83-0.35c0.26,0.03,0.45-0.13,0.64-0.29
		c0.67-0.54,1.31-1.05,1.95-1.6c0.19-0.13,0.42-0.29,0.54-0.38c0.35-0.03,0.51,0.16,0.67,0.38c0.35,0.45,0.67,0.93,1.02,1.41
		c0.19,0.22,0.35,0.45,0.54,0.7c0.45-0.03,0.86-0.06,1.28-0.1c0.26-0.03,0.51-0.06,0.74-0.1c0.67-0.13,1.31-0.03,1.92,0.22
		c0.83,0.33,2.47,0.95,3.47,1.33c-0.02,0.02-0.04,0.03-0.06,0.05c-1.5,1.12-2.7,1.77-3.24,2.04l-0.12,0.08l-1.21,0.59
		c-1.44-0.2-3.93-0.53-5.27-0.72c-0.58-0.08-1.16-0.19-1.74-0.26c-1.04-0.12-0.94-0.28-1.79,0.6c-0.3,0.31-0.61,0.6-0.95,0.94
		c-2.48-1.04-4.87-2.2-7.34-3.24c-1.17,0.75-2.11,1.76-3.28,2.52c-0.11-0.08-0.24-0.12-0.3-0.21c-0.33-0.52-0.78-0.53-1.3-0.36
		c-0.5,0.17-1.01,0.31-1.49,0.5c-0.46,0.18-0.9,0.16-1.35-0.03c-0.52-0.21-1.04-0.41-1.56-0.61c-2.28-0.89-4.55-1.78-6.83-2.66
		c-0.2-0.08-0.41-0.14-0.64-0.22c-0.76,0.56-1.23,1.39-1.89,1.99c-0.33,0.11-0.58-0.04-0.84-0.11c-0.71-0.19-1.43-0.38-2.15-0.57
		c-0.69,0.26-1.39,0.52-2.08,0.8c-1.41,0.57-2.81,1.14-4.21,1.71c-0.29,0.12-0.58,0.22-0.86,0.32c-0.66-0.3-1.19-0.74-1.67-1.21
		c-0.7-0.68-1.34-0.64-2.17-0.23c-1.97,0.97-3.99,1.85-5.98,2.76c-0.08,0.04-0.18,0.07-0.25,0.11c-0.39,0.24-0.73,0.2-1.1-0.09
		c-0.65-0.52-1.34-1.01-2.01-1.5c-0.3-0.22-0.6-0.44-0.9-0.66c-0.27-0.21-0.56-0.23-0.87-0.08c-0.78,0.37-1.57,0.73-2.36,1.09
		c-0.9,0.42-2.79,1.29-3.9,1.81c-3.81-1.42-6.94-3.22-9.62-5.51c-0.02-0.02-0.04-0.04-0.06-0.05
		C208.89,247.25,209.33,247.11,209.33,247.14z M251.91,266.09c0.23-1.12,0.89-1.85,2-2.16c0.42-0.08,0.77-0.19,1.04-0.35
		c0.15-0.08,0.31-0.19,0.39-0.42c-0.27-0.08-0.5-0.08-0.77-0.12c-0.42,0-0.85-0.04-1.27-0.31l-0.04-0.04v-0.08
		c0.23-0.46,0.58-0.77,1.08-0.92c0.39-0.12,0.54-0.08,1.19,0.35c0.19-0.31,0.27-0.54,0.12-0.85c-0.12-0.46-0.42-0.73-0.85-0.85
		c-0.58-0.15-1-0.19-1.43-0.12c-0.31,0.12-0.62,0.08-0.89-0.04c-0.96-0.39-1.93-0.27-3.08,0.39c-0.65,0.39-1.27,0.96-1.85,1.7
		c-0.85,1.16-1.46,2.47-1.81,3.85c-0.23,0.96-0.39,1.89-0.58,2.81c-0.04,0.35-0.12,0.69-0.15,1l-0.04,0.23
		c-0.19,0.81-0.39,1.66-0.62,2.47c-0.62,1.58-1.73,2.47-3.39,2.7c-0.85,0.19-1.73,0.08-2.58-0.04h-0.23
		c-3.01-0.42-5.7-1.31-8.01-2.62c-2.66-1.46-4.66-3.31-6.13-5.63c-0.54-0.92-0.92-1.66-1.16-2.35v-0.08
		c0.12-0.31,0.39-0.42,0.58-0.5c0.04-0.04,0.12-0.04,0.15-0.08c1.27-0.69,2.12-1.7,2.47-3.01c0.5-1.7,0.19-3.2-0.81-4.58
		c-0.62-0.81-1.5-1.39-2.27-1.85c-0.42-0.23-1.31-0.54-2.39-0.92c-0.27-0.08-0.58-0.19-0.89-0.31c-0.03-0.01-0.06-0.02-0.09-0.03
		c0.38-0.18,0.82-0.39,0.84-0.4c1.29-0.61,2.58-1.21,3.87-1.81c0.11-0.05,0.22-0.11,0.34-0.15c0.26-0.08,0.48,0,0.63,0.25
		c0.28,0.47,0.4,0.98,0.25,1.51c-0.07,0.27-0.18,0.53-0.29,0.78c-0.09,0.23-0.2,0.45-0.29,0.64c0.1,0.26,0.27,0.28,0.47,0.26
		c0.59-0.06,1.15-0.21,1.71-0.41c0.55-0.19,1.08-0.44,1.69-0.46c0.29-0.01,0.58-0.19,0.86-0.32c2.05-0.94,4.11-1.88,6.16-2.82
		c0.22-0.1,0.45-0.22,0.68-0.29c0.09-0.03,0.21,0.05,0.35,0.09c-0.11,0.38-0.37,0.55-0.61,0.73c-0.72,0.54-0.49,1.23,0,1.65
		c0.21,0.18,0.46,0.32,0.7,0.45c0.88,0.47,1.81,0.81,2.78,1.03c1.48,0.34,2.97,0.61,4.45,0.9c0.15,0.03,0.15,0.02,0.52-0.21
		c-0.17-0.11-0.3-0.22-0.46-0.29c-0.71-0.32-1.43-0.59-2.12-0.93c-0.66-0.33-1.3-0.71-1.94-1.08c-0.18-0.11-0.33-0.27-0.54-0.44
		c0.11-0.11,0.18-0.23,0.27-0.27c2.15-0.88,4.3-1.75,6.45-2.62c0.11-0.04,0.24-0.04,0.34-0.06c0.64,0.66,0.74,1.07,0.33,1.74
		c-0.27,0.45-0.64,0.83-0.94,1.26c-0.2,0.27-0.36,0.57-0.53,0.86c-0.04,0.07-0.01,0.18,0.01,0.27c0.01,0.05,0.08,0.08,0.14,0.14
		c0.26,0,0.41-0.21,0.59-0.37c0.88-0.83,1.74-1.68,2.62-2.5c0.27-0.25,0.6-0.43,0.88-0.66c0.26-0.21,0.52-0.44,0.75-0.68
		c0.4-0.43,0.78-0.87,1.12-1.26c0.12,0,0.15-0.01,0.18,0c0.99,0.34,2.27,1.5,2.69,2.43c0.21,0.46,0.29,0.95,0.26,1.45
		c-0.03,0.46-0.1,0.92-0.15,1.38c-0.02,0.18-0.04,0.36-0.06,0.49c0.16,0.21,0.32,0.17,0.45,0.11c0.22-0.1,0.43-0.23,0.65-0.36
		c1.22-0.68,2.48-1.26,3.81-1.69c0.35-0.11,0.71-0.26,1.07-0.3c0.42-0.05,0.85-0.01,1.35-0.01c-0.26,0.47-0.61,0.8-0.93,1.16
		c-0.33,0.37-0.66,0.74-1.04,1.06c-0.38,0.32-0.79,0.6-1.22,0.84c-0.42,0.24-0.88,0.42-1.29,0.62c0.03,0.32,0.23,0.33,0.41,0.34
		c1.11,0.04,2.16-0.2,3.1-0.79c0.55-0.34,1.04-0.78,1.53-1.2c0.51-0.45,0.99-0.93,1.48-1.4c0.27-0.25,0.53-0.49,0.95-0.52
		c0.22-0.01,0.44-0.21,0.63-0.36c0.75-0.6,1.49-1.21,2.24-1.81c0.19-0.15,0.4-0.28,0.63-0.44c0.19,0.16,0.37,0.28,0.5,0.44
		c0.42,0.53,0.83,1.08,1.24,1.62c0.41,0.55,0.8,1.1,1.21,1.64c0.95,1.24,2.2,1.97,3.76,2.13c0.03,0,0.48,0.55,0.51,0.56
		c0.01-0.01,0.02-0.01,0.04-0.02l-0.03,0.02c-0.46,0.27-0.81,0.58-1.08,0.89c-1.04,1.12-1.54,2.66-1.27,4.2
		c0.23,1.5,1.12,2.77,2.43,3.54c0.27,0.15,0.54,0.31,0.81,0.42l0.08,0.04v0.04c0.08,0.35-0.04,0.58-0.15,0.77
		c0,0.08-0.04,0.12-0.04,0.15c-0.77,1.66-1.85,3.16-3.16,4.43c-0.46,0.46-1.08,0.81-1.62,1.23c-0.04,0.04-0.12,0.12-0.19,0.15
		c-1.04,0.77-2.12,1.43-3.31,2c-0.15,0.04-0.31,0.12-0.42,0.19c-0.62,0.27-1.12,0.58-1.73,0.81c-2,0.69-4.16,1.12-6.63,1.31
		c-0.85,0.04-1.7-0.04-2.54-0.35c-2.04-0.66-3.43-2-4.16-3.93c-0.39-1.08-0.62-2.23-0.69-3.39v-0.04
		C251.91,267.29,251.83,266.71,251.91,266.09z M276.4,254.83c-0.47-0.46-1.12-1.45-1.01-2.13c0.04-0.23,0.12-0.44,0.32-0.54
		c0.54-0.27,0.89-0.76,1.32-1.16c0.22-0.21,0.39-0.49,0.79-0.56c0.11,0.14,0.28,0.29,0.36,0.47c0.27,0.62,0.75,0.96,1.36,1.18
		c0.13,0.05,1.18,0.22,1.59,0.31c-0.04,0.02-0.08,0.04-0.13,0.05c-0.15,0.08-0.35,0.19-0.62,0.31
		C279.31,253.26,277.71,253.99,276.4,254.83z M232.99,284.13c-0.12,0.08-0.19,0.12-0.23,0.15c-0.04,0.08-0.12,0.12-0.19,0.12
		c-0.65,0.35-1.16,0.89-1.54,1.35c-0.12,0.12-0.19,0.23-0.31,0.31c-0.15,0.19-0.31,0.35-0.46,0.5c-0.73,0.62-1.62,0.96-2.62,0.96
		h-0.31c-0.12,0-0.23-0.08-0.35-0.12l-0.15-0.12v-0.23h0.04l0.65-0.65c0.5-0.5,1-1,1.58-1.46c1.12-0.81,2.43-0.92,3.81-1l0.39-0.04
		L232.99,284.13z M243.74,284.63c-0.04,0.12-0.12,0.23-0.12,0.31c-0.5,2.39-0.92,4.55-1.27,6.63c-0.19,0.96-0.23,1.77-0.15,2.5
		c0.04,0.42,0.08,0.81,0.08,1.23c0,0.19,0.04,0.42,0.04,0.65c0.08,0.96-0.19,2.23-0.73,3.39l-0.08,0.15l-0.15-0.19
		c-0.12-0.08-0.27-0.19-0.31-0.39c-0.31-0.65-0.39-1.35-0.19-2.12c0.08-0.42,0.19-0.85,0.31-1.27c0.08-0.35,0.15-0.69,0.23-1.08
		c0.04-0.12,0.04-0.23,0.04-0.31c0-0.08,0.04-0.12,0.04-0.15c-0.19,0.04-0.27,0.15-0.42,0.27c-0.04,0.08-0.12,0.15-0.15,0.19
		c-0.15,0.08-0.27,0.15-0.39,0.27c-0.23,0.12-0.42,0.27-0.65,0.39c-0.08,0.08-0.27,0.08-0.39-0.04c-0.15-0.08-0.19-0.19-0.19-0.35
		c0.04-0.31,0.08-0.65,0.19-0.92c0.27-0.62,0.54-1.16,0.85-1.73l0.19-0.39c0.12-0.31,0.27-0.62,0.42-0.96
		c0.15-0.27,0.27-0.58,0.39-0.85c0.27-0.58,0.46-1.16,0.65-1.73c0.15-0.5,0.19-1.04,0.12-1.54c-0.15-1.19-1.04-1.97-2.23-2
		c-0.04-0.04-0.08-0.04-0.15-0.04c-0.54,0-1.12,0.19-1.66,0.58c-0.65,0.42-1.08,0.92-1.58,1.54c-0.27,0.35-0.54,0.65-0.85,1.04
		c-0.39,0.42-0.92,0.73-1.54,0.89c-0.19,0.08-0.39,0.08-0.66,0.08h-0.19l0.12-0.19c0.65-1.31,1.35-2.47,2.66-3.01
		c0.31-0.12,0.58-0.27,0.85-0.39c0.15-0.08,0.27-0.12,0.42-0.19c0.04-0.04,0.12-0.08,0.23-0.12c0-0.04,0.04-0.04,0.04-0.04
		c-1.39-0.66-2.58-0.89-3.74-0.73h-0.04v-0.04c-1.16-0.65-2.27-1.16-3.51-1.5c-1.46-0.35-2.93-0.12-4.16,0.69l-0.12,0.08
		c-0.46,0.31-0.92,0.65-1.43,0.96c-1,0.62-2.08,0.85-3.2,0.73c-0.62-0.08-1.23-0.19-1.81-0.69l-0.12-0.12l0.15-0.08
		c0.08-0.04,0.15-0.12,0.23-0.19c0.12-0.04,0.19-0.12,0.31-0.19c0.31-0.19,0.65-0.39,1-0.58c0.31-0.19,0.66-0.39,1-0.58
		c1.12-0.69,2.31-1,3.66-0.92h0.31c0.42,0.04,0.85,0.08,1.35,0.12c0-0.04,0-0.08,0-0.08c-0.04-0.04-0.04-0.08-0.04-0.12l-0.12-0.08
		c-0.54-0.46-1.08-0.92-1.7-1.39c-0.62-0.46-1.39-0.77-2.27-0.92c-0.92-0.15-1.81-0.04-2.81,0.31c-0.5,0.19-1.04,0.42-1.54,0.62
		c-0.23,0.12-0.5,0.23-0.77,0.31c-2.35,0.89-4.47,0.27-6.13-1.73l-0.12-0.15l0.15-0.04c0.08,0,0.12-0.04,0.15-0.04
		c0.08-0.04,0.15-0.08,0.23-0.08c0.77-0.08,1.46-0.27,2.23-0.5c0.31-0.08,0.62-0.15,0.89-0.23c0.27-0.08,0.58-0.15,0.89-0.23
		c0.96-0.23,1.93-0.19,2.93,0.04c0.62,0.12,1.19,0.27,1.81,0.42l0.46,0.12c0.08,0,0.15,0.04,0.27,0.04c0,0,0.04,0,0.08,0
		c-0.62-0.96-1.81-2.27-2.5-2.81c-1.19-0.85-2.5-1.27-4.05-1.27c-0.39,0-0.77,0.04-1.12,0.12c-0.19,0-0.42,0.04-0.62,0.08
		c-1.16,0.12-2.39,0.23-3.54-0.15c-2.27-0.62-3.81-2-4.78-4.24l-0.04-0.15h0.27c0.04-0.04,0.12-0.04,0.23,0
		c1.23,0.31,2.47,0.31,3.78,0.35h0.96c0.54,0,1.12,0.04,1.66,0.08c0.69,0.12,1.43,0.42,2.23,0.89c0.19,0.15,0.39,0.27,0.62,0.39
		c0.39,0.23,0.77,0.46,1.19,0.69c0-0.08,0-0.12-0.04-0.15c-0.08-0.35-0.04-0.42,0-0.54c0.04-0.04,0.04-0.08-0.04-0.27
		c-0.89-2.23-2.12-3.58-3.85-4.16c-0.42-0.12-0.89-0.31-1.35-0.5c-0.42-0.15-0.89-0.35-1.31-0.5c-0.19-0.04-0.42-0.08-0.66-0.12
		h-0.04c-3.93-0.96-6.01-3.08-6.59-6.78c-0.08-0.31-0.15-0.69-0.08-1.08l0.08-0.08c0.35-0.15,0.5,0.08,0.58,0.19
		c1,0.77,2.04,1.39,3.24,1.85c0.39,0.15,0.73,0.31,1.08,0.42c0.39,0.19,0.81,0.35,1.19,0.5c1.04,0.39,2,1.04,2.89,1.96
		c0.12,0.08,0.19,0.19,0.31,0.31c0.23,0.27,0.46,0.5,0.73,0.69c0.12-0.46-0.08-1.27-0.27-1.89c-0.08-0.35-0.15-0.65-0.19-0.89
		c-0.19-2.35-1-4.01-2.5-5.2c-0.42-0.35-1.31-1.23-2.04-1.93c-0.5-0.5-0.92-0.92-1.08-1.04c-0.19-0.19-0.42-0.35-0.62-0.5
		c-1.7-1.31-2.85-2.2-3.16-4.47c0-0.19-0.04-0.42-0.08-0.62c-0.15-1.23-0.31-2.47,0-3.66l0.04-0.08h0.08
		c0.35-0.04,0.42,0.23,0.42,0.35c0.04,0.04,0.04,0.04,0.04,0.08c0.92,2.58,2.54,4.12,4.55,6.13l0.04,0.04
		c1.43,1.39,2.81,2.39,4.82,3.43c1.23,0.69,2.54,1.35,3.78,2c0.5,0.23,0.96,0.46,1.43,0.69c0.31,0.15,0.62,0.31,0.92,0.46
		c0.31,0.15,0.58,0.31,0.89,0.46c0.58,0.35,1.04,0.77,1.35,1.19c0.46,0.58,0.62,1.23,0.46,1.85c-0.19,0.62-0.69,1.12-1.39,1.35
		c-0.39,0.15-0.85,0.23-1.27,0.27c-0.31,0-0.54,0.04-0.89,0.04c0,0.04,0.04,0.08,0.04,0.12c0,0.08,0,0.15,0.04,0.27
		c0.39,1.35,1,2.77,1.81,4.16c2.27,3.89,5.43,6.94,9.32,9.02c1.7,0.89,3.66,1.58,6.13,2.16c1.66,0.39,3.31,0.62,4.89,0.65
		c0.54,0,1.12-0.04,1.7-0.08c0.35-0.04,0.73-0.08,1.12-0.08h0.04c0.23,0.08,0.27,0.31,0.27,0.54l0.04,0.08
		c0.35,1.77,1.08,3.35,2.16,4.66c0.92,1.08,1.93,1.77,3.08,2.08c0.85,0.19,1.66,0.12,2.35,0.04l1.31-0.12l0.04,0.08
		c0,0.08,0.04,0.15,0.04,0.23c0.08,0.15,0.12,0.27,0.08,0.39c-0.12,0.69-0.39,1.35-0.89,2.08c-0.39,0.62-1,0.96-1.66,1.04h-0.23
		c-0.62,0-1.19-0.23-1.66-0.69c-0.12-0.15-0.27-0.31-0.39-0.46c-0.08-0.08-0.12-0.15-0.19-0.23l-0.42-0.54
		c-0.19-0.31-0.46-0.62-0.66-0.92c-0.27-0.31-0.58-0.66-0.92-1c-0.42-0.42-0.92-0.66-1.46-0.66
		C243.78,284.59,243.74,284.63,243.74,284.63z M254.96,300.58c-0.31,0.62-0.85,1.08-1.58,1.39c-0.31,0.12-0.58,0.15-0.85,0.15
		c-0.23,0-0.42-0.04-0.65-0.04c-0.23-0.04-0.42-0.04-0.62-0.04l-0.04,0.04c-0.12,0.15-0.23,0.35-0.27,0.54
		c-0.31,0.5-0.85,0.85-1.43,0.85c-0.04,0-0.04,0-0.08,0c-0.58-0.04-1.08-0.35-1.27-0.81c-0.04-0.08-0.12-0.19-0.15-0.31
		c-0.08-0.08-0.12-0.19-0.19-0.27c-0.27-0.08-0.5-0.04-0.77,0.04h-0.04c-1.23,0.15-2.27-0.42-2.89-1.58l-0.04-0.08l0.04-0.04
		c0.27-0.35,0.5-0.62,0.69-0.96c0.15-0.23,0.31-0.5,0.5-0.77l0.15-0.31h0.04c0.04,0,0.08-0.04,0.15-0.08c0.04,0,0.08-0.04,0.15-0.08
		c0.54-0.12,0.89-0.42,1.08-1c0.15-0.5,0.27-1.04,0.35-1.62c0.15-1.35,0.31-2.77,0.73-4.08l0.08-0.23c0.12-0.27,0.19-0.58,0.31-0.85
		c0.23-0.54,0.62-0.96,1.12-1.23h0.08c0.42,0.19,0.77,0.54,1.08,1.08c0.42,0.92,0.73,1.93,0.92,3.12c0.08,0.77,0.19,1.54,0.27,2.31
		l0.08,0.5c0,0.08,0.04,0.19,0.04,0.31c0,0.08,0,0.15,0.04,0.23c0.27,0.96,0.73,1.46,1.5,1.58h0.04v0.04
		c0.15,0.23,0.31,0.42,0.46,0.65c0.31,0.46,0.62,0.92,0.92,1.43l0.04,0.08V300.58z M271.64,286.44c0.27,0.23,0.5,0.5,0.81,0.77
		l0.15,0.12l-0.19,0.04c-0.39,0.12-0.73,0.15-1.04,0.15c-0.89,0-1.62-0.27-2.39-0.85c-0.19-0.15-0.35-0.31-0.54-0.5
		c-0.04-0.04-0.08-0.12-0.15-0.15c-0.5-0.65-1.12-1.31-2.04-1.7l-0.08-0.04v-0.08c0.04-0.12,0.12-0.19,0.19-0.23
		c0.12-0.08,0.23-0.04,0.35,0c0.15,0.04,0.31,0.04,0.5,0.08c0.5,0.08,1.04,0.15,1.54,0.31c0.54,0.15,1,0.42,1.35,0.73
		C270.64,285.47,271.14,285.94,271.64,286.44z M283.27,271.6c0.5-0.27,1-0.58,1.58-0.96c1-0.54,2.08-0.81,3.24-0.81
		c0.46,0.04,0.92,0,1.43,0h0.73c0.89,0,1.81-0.12,2.81-0.31c0.15-0.04,0.23-0.04,0.5-0.04h0.15l-0.04,0.15
		c-1.08,2.7-3.7,4.55-6.51,4.55c-0.39,0-0.77-0.04-1.16-0.08c-0.19-0.04-0.42-0.04-0.62-0.04c-0.15-0.04-0.31-0.04-0.46-0.08
		c-0.54-0.04-1.12-0.12-1.66-0.12c-0.12,0-0.23,0-0.35,0.04c-1.46,0.12-2.7,0.62-3.74,1.54c-0.85,0.73-1.54,1.5-2.12,2.5
		c0.12,0,0.19,0,0.27-0.04c0.54-0.12,1.12-0.27,1.66-0.39c0.23-0.08,0.46-0.15,0.69-0.19c1.08-0.23,2.08-0.23,3.12,0.08l0.31,0.08
		c0.5,0.15,1.04,0.31,1.58,0.39c0.42,0.12,0.92,0.23,1.43,0.31l0.35,0.08c0.04,0,0.12,0,0.19,0.04c0.08,0,0.15,0.04,0.23,0.04h0.15
		l-0.04,0.15c-0.12,0.35-0.35,0.54-0.54,0.69c0,0.04-0.04,0.08-0.08,0.12c-1.66,1.46-3.47,1.81-5.47,1.08h-0.04
		c-0.65-0.27-1.35-0.54-2.04-0.89c-2-0.81-3.89-0.58-5.66,0.73c-0.46,0.35-0.89,0.77-1.39,1.23c-0.08,0.04-0.12,0.12-0.19,0.23
		c0.12,0,0.27-0.04,0.39-0.04h0.42c0.62-0.04,1.08-0.08,1.46-0.08c0.81,0,1.58,0.19,2.39,0.54c0.69,0.35,1.31,0.73,1.97,1.16
		c0.42,0.23,0.89,0.54,1.31,0.77l0.19,0.12l-0.15,0.08c-0.08,0.04-0.15,0.08-0.19,0.12c-0.08,0.08-0.15,0.15-0.27,0.15
		c-1.54,0.69-3.04,0.62-4.43-0.23c-0.15-0.08-0.31-0.19-0.42-0.27c-0.35-0.19-0.65-0.39-0.92-0.62c-1.58-1.12-3.24-1.35-5.12-0.73
		c-1.12,0.39-1.97,0.77-2.74,1.31l-0.04,0.04h-0.04c-1.16-0.19-2.39,0.04-3.89,0.73c0.04,0,0.04,0.04,0.08,0.04
		c0.12,0.04,0.19,0.12,0.27,0.12c0.27,0.15,0.58,0.31,0.85,0.42c0.27,0.15,0.54,0.27,0.81,0.42c0.42,0.23,0.77,0.5,1.04,0.85
		c0.35,0.39,0.62,0.81,0.89,1.23c0.12,0.19,0.23,0.35,0.31,0.5l0.08,0.08l-0.08,0.08c-0.39,0.27-0.65,0.15-0.89,0.04
		c-0.77-0.19-1.46-0.73-2-1.5c-0.39-0.58-0.77-1.08-1.35-1.54c-0.35-0.31-0.92-0.69-1.58-0.85c-0.81-0.15-1.54-0.04-2.08,0.39
		c-0.54,0.42-0.85,1.08-0.89,1.89c0,0.58,0.08,1.12,0.27,1.62c0.12,0.5,0.35,1,0.65,1.58c0.46,1.08,0.96,2.08,1.39,2.97
		c0.19,0.46,0.39,1,0.58,1.46v0.04c0,0,0,0.35-0.19,0.46c-0.12,0.15-0.39,0.15-0.58,0.04c-0.12-0.08-0.23-0.15-0.35-0.27
		c-0.19-0.12-0.35-0.23-0.54-0.35h-0.04c-0.04-0.04-0.08-0.08-0.12-0.15c-0.12-0.12-0.27-0.27-0.46-0.35v0.19
		c0.08,0.39,0.19,0.73,0.27,1.08c0.12,0.35,0.19,0.73,0.31,1.08c0.15,0.58,0.19,1.19,0.12,1.96c-0.08,0.5-0.19,0.69-0.62,1.12
		l-0.08,0.08l-0.08-0.12c-0.08-0.08-0.12-0.15-0.12-0.23c-0.04-0.04-0.04-0.04-0.08-0.08c-0.08-0.27-0.15-0.54-0.19-0.77
		c-0.04-0.15-0.12-0.35-0.15-0.46c-0.31-0.92-0.35-1.93-0.15-2.89c0.19-1.23,0.15-2.47-0.12-3.7c-0.15-0.77-0.31-1.54-0.46-2.35
		c-0.15-0.89-0.35-1.81-0.54-2.7c-0.39-1.97-0.42-4.01-0.15-6.13c0.04-0.19,0.08-0.42,0.08-0.65c0.04-0.46,0.12-0.92,0.27-1.39
		l0.04-0.08H256c0.04,0,0.12,0,0.19-0.04h0.19c1.43,0.27,2.89,0.27,4.47,0.08c2.23-0.23,4.51-0.77,6.9-1.66
		c3.47-1.27,6.55-3.47,9.21-6.55c1.77-2.08,3.12-4.43,4.05-7.01c0.08-0.15,0.12-0.35,0.15-0.54c0.04-0.12,0.04-0.23,0.08-0.35
		c0,0,0,0-0.04-0.04c0-0.04,0-0.04,0-0.04c-0.15-0.12-0.42-0.12-0.65-0.08h-0.15c-0.65,0-1.23-0.15-1.73-0.46
		c-0.58-0.35-0.89-0.85-1-1.62c-0.04-0.46,0.12-0.85,0.42-1.31c0.39-0.5,0.89-0.96,1.43-1.23c0.46-0.31,0.96-0.54,1.46-0.77
		c2.16-0.96,3.89-1.85,5.51-2.85c0.27-0.15,0.58-0.31,0.89-0.46c1.54-0.85,3.12-1.7,4.32-2.81l0.19-0.19
		c1.89-1.77,3.51-3.31,4.47-5.74c0.12-0.35,0.31-0.69,0.46-1.08l0.12-0.27l0.12,0.27c0.04,0.19,0.12,0.31,0.15,0.35l0.04,0.08
		c0.35,1.85-0.12,3.04-0.73,4.66c-0.08,0.27-0.19,0.54-0.27,0.81c-0.54,1.43-1.35,2.62-2.47,3.62c-0.77,0.69-1.62,1.31-2.47,1.93
		c-0.27,0.19-0.54,0.42-0.77,0.62c-0.27,0.15-0.54,0.35-0.77,0.58c-1.43,1.23-2.31,2.66-2.58,4.28c-0.19,0.92-0.15,1.89-0.08,2.81
		c0.08,0.04,0.19,0.12,0.31,0.19c0.04,0.04,0.08,0.08,0.12,0.08l1.08-1.08c0.77-0.77,1.58-1.31,2.5-1.66
		c0.31-0.12,0.62-0.27,0.96-0.39l1.39-0.58c1.27-0.46,2.43-1.16,3.47-2c0.08-0.12,0.15-0.15,0.31-0.19l0.12-0.04l0.04,0.12
		c0.04,0.08,0.08,0.15,0.08,0.27c-0.08,1.85-0.85,3.12-1.77,4.47c-1,1.54-2.39,2.58-4.2,3.12c-0.77,0.23-1.58,0.46-2.31,0.65
		c-0.39,0.08-0.77,0.19-1.16,0.27c-1.08,0.27-2,0.73-2.77,1.43c-0.85,0.69-1.43,1.46-1.77,2.39c-0.12,0.27-0.19,0.54-0.31,0.81
		c-0.12,0.27-0.23,0.54-0.31,0.81c-0.04,0.08-0.04,0.15-0.04,0.27C283,271.76,283.12,271.72,283.27,271.6z"/>
	<path d="M304.09,255.3c0-29.94-24.36-54.3-54.31-54.3c-29.94,0-54.31,24.36-54.31,54.3s24.36,54.31,54.31,54.31
		C279.73,309.61,304.09,285.25,304.09,255.3z M249.79,307.42c-28.74,0-52.12-23.38-52.12-52.12c0-28.74,23.38-52.12,52.12-52.12
		c28.74,0,52.12,23.38,52.12,52.12C301.91,284.04,278.53,307.42,249.79,307.42z"/>
	<path d="M291.84,184.8c1.97,0,3.56-1.6,3.56-3.56c0-1.97-1.59-3.56-3.56-3.56c-1.97,0-3.56,1.6-3.56,3.56
		C288.28,183.2,289.87,184.8,291.84,184.8z"/>
	<path d="M327.5,194.16c1.97,0,3.56-1.6,3.56-3.56c0-1.97-1.59-3.56-3.56-3.56c-1.97,0-3.56,1.6-3.56,3.56
		C323.93,192.57,325.53,194.16,327.5,194.16z"/>
	<path d="M327.66,238.42c-1.97,0-3.56,1.6-3.56,3.56c0,1.97,1.59,3.56,3.56,3.56c1.97,0,3.56-1.6,3.56-3.56
		C331.22,240.01,329.63,238.42,327.66,238.42z"/>
	<path d="M316.87,286.75c-1.97,0-3.56,1.6-3.56,3.56c0,1.97,1.59,3.56,3.56,3.56c1.97,0,3.56-1.6,3.56-3.56
		C320.44,288.35,318.84,286.75,316.87,286.75z"/>
	<path d="M292.22,335.31c-1.97,0-3.56,1.6-3.56,3.56c0,1.97,1.59,3.56,3.56,3.56c1.97,0,3.56-1.6,3.56-3.56
		C295.78,336.91,294.18,335.31,292.22,335.31z"/>
	<path d="M249.88,376.85c-2.05,0-3.71,1.67-3.71,3.72c0,2.05,1.67,3.72,3.71,3.72c2.05,0,3.71-1.67,3.71-3.72
		C253.59,378.52,251.92,376.85,249.88,376.85z"/>
	<path d="M207.79,184.81c1.97,0,3.56-1.6,3.56-3.56c0-1.97-1.59-3.56-3.56-3.56c-1.97,0-3.56,1.6-3.56,3.56
		C204.23,183.21,205.83,184.81,207.79,184.81z"/>
	<path d="M172.14,194.18c1.97,0,3.56-1.6,3.56-3.56c0-1.97-1.59-3.56-3.56-3.56c-1.97,0-3.56,1.6-3.56,3.56
		C168.58,192.59,170.17,194.19,172.14,194.18z"/>
	<path d="M172.2,238.44c-1.97,0-3.56,1.6-3.56,3.56c0,1.97,1.59,3.56,3.56,3.56s3.56-1.6,3.56-3.56
		C175.76,240.03,174.16,238.44,172.2,238.44z"/>
	<path d="M183.43,286.77c-1.97,0-3.56,1.6-3.56,3.56c0,1.97,1.59,3.56,3.56,3.56c1.97,0,3.56-1.6,3.56-3.56
		C186.99,288.36,185.4,286.77,183.43,286.77z"/>
	<path d="M207.67,335.33c-1.97,0-3.56,1.6-3.56,3.56c0,1.97,1.59,3.56,3.56,3.56c1.97,0,3.56-1.6,3.56-3.56
		C211.23,336.92,209.64,335.33,207.67,335.33z"/>
	<polygon points="245.37,173.48 249.81,171.23 254.26,173.48 253.35,168.29 256.89,164.8 251.85,163.9 249.81,159.61 247.77,163.9 
		242.74,164.8 246.28,168.29 	"/>
	<path d="M313.96,278.62c0,0,0.04,0,0.04-0.04c0.19-0.54,0.42-1.12,0.58-1.7c0.04-0.08,0.08-0.23,0.12-0.31
		c0.35-1.16,0.69-2.27,1-3.43c0.08-0.23,0.12-0.42,0.19-0.65c0.31-1.16,0.54-2.35,0.77-3.51c0.08-0.27,0.12-0.54,0.19-0.77
		c0.15-0.73,0.27-1.46,0.35-2.23c8.71-38.64,5.89-70.28,5.89-70.28c-34.75-4.32-73.32-22.15-73.36-22.15
		c0,0-38.49,17.88-73.24,22.15c0,0-2.89,32.21,6.13,71.32c0.08,0.39,0.12,0.77,0.19,1.19c0.08,0.27,0.15,0.58,0.19,0.85
		c0.27,1.16,0.54,2.31,0.81,3.43c0.08,0.23,0.12,0.46,0.19,0.69c0.27,0.96,0.54,1.97,0.89,2.89c0.04,0.19,0.08,0.35,0.15,0.54
		c0,0.04,0.04,0.12,0.04,0.15c2.89,10.56,6.7,21.38,11.67,32.13l0.04,0.04c10.98,23.7,27.7,46.77,52.98,64.27
		c26.78-18.49,43.88-43.15,54.79-68.2l0.12-0.12l-0.04-0.04C308.45,296.08,311.53,287.26,313.96,278.62z M181.96,246.88
		c-0.08-0.42-0.15-0.92-0.19-1.39l0.58,0.15v0.04c-0.04,0.35-0.12,0.62-0.15,0.92l-0.04,0.31L181.96,246.88z M317.62,246.88h-0.12
		c0-0.08-0.04-0.23,0-0.31c-0.04-0.31-0.08-0.62-0.12-0.89c0-0.04,0-0.04,0-0.08l0.42-0.12
		C317.74,245.95,317.7,246.41,317.62,246.88z M303.75,292.53c-0.12,0.27-0.35,0.54-0.54,0.81c-0.04,0-0.04,0.04-0.04,0.04
		c-0.62,0.85-1.19,1.62-1.81,2.47l-0.04,0.04c-0.19,0.23-0.39,0.5-0.62,0.73c-0.62,0.81-1.27,1.58-2,2.31l-0.04,0.04
		c-0.12,0.19-0.27,0.39-0.46,0.54c-0.65,0.81-1.39,1.5-2.12,2.2l-0.04,0.04c-0.15,0.19-0.31,0.35-0.42,0.46
		c-0.77,0.77-1.46,1.43-2.27,2.12h-0.04c-0.19,0.23-0.35,0.35-0.54,0.5h-0.04c-0.73,0.73-1.5,1.35-2.31,1.96l-0.04,0.04
		c-0.23,0.19-0.5,0.39-0.73,0.58c-0.81,0.65-1.58,1.23-2.47,1.81c0,0.04-0.04,0.04-0.04,0.04c-0.12,0.04-0.23,0.12-0.39,0.19
		c-0.89,0.58-1.66,1.19-2.54,1.7c0,0.04-0.04,0.04-0.04,0.04c-0.23,0.12-0.42,0.27-0.65,0.35c0,0.04-0.04,0.04-0.04,0.04
		c-0.81,0.54-1.7,1.04-2.62,1.54h-0.04c-0.15,0.08-0.23,0.15-0.42,0.23h-0.04c-0.89,0.5-1.77,1-2.7,1.39h-0.04
		c-0.27,0.12-0.54,0.23-0.81,0.31h-0.04c-0.96,0.5-1.85,0.92-2.81,1.27c-0.15,0.08-0.27,0.15-0.46,0.19h-0.04
		c-0.92,0.35-1.93,0.77-2.85,1.08c-0.35,0.08-0.65,0.19-1,0.27c-0.96,0.35-1.93,0.65-2.93,0.89h-0.04
		c-0.12,0.08-0.23,0.08-0.35,0.12c-0.96,0.23-1.97,0.46-2.97,0.66h-0.04c-0.19,0.08-0.42,0.12-0.65,0.12h-0.04
		c-1,0.23-1.96,0.46-3.01,0.58h-0.04c-0.15,0-0.35,0.08-0.54,0.12h-0.04c-1.04,0.12-1.96,0.27-3.04,0.35c-0.15,0.04-0.31,0.04-0.5,0
		c-1,0.15-2.08,0.19-3.04,0.23h-1.04c-0.5,0.04-1.04,0.04-1.5,0.04c-0.5,0-1.08,0-1.62-0.04l-0.92-0.04h-0.04
		c-1.04,0-2.04-0.04-3.04-0.19c-0.15,0-0.35,0.04-0.5-0.04c-1.08-0.08-2.04-0.15-3.04-0.31h-0.04c-0.19-0.04-0.39-0.12-0.5-0.08
		c-1.08-0.19-2-0.35-3.04-0.58h-0.04c-0.23-0.04-0.46-0.08-0.69-0.15h-0.04c-1-0.15-2-0.39-2.97-0.66
		c-0.08-0.08-0.23-0.12-0.35-0.12h-0.04c-1-0.23-1.97-0.54-2.93-0.85c-0.35-0.12-0.65-0.23-0.96-0.39
		c-0.96-0.31-1.97-0.62-2.89-1.04h-0.04c-0.12-0.04-0.27-0.08-0.39-0.19h-0.04c-1.04-0.35-1.89-0.77-2.85-1.19
		c-0.23-0.08-0.54-0.23-0.81-0.35l-0.04-0.04c-0.96-0.42-1.85-0.89-2.74-1.35h-0.04c-0.19-0.08-0.27-0.15-0.42-0.23
		c-0.89-0.46-1.81-1-2.7-1.54c-0.19-0.15-0.42-0.23-0.62-0.39c-0.04,0-0.04-0.04-0.08-0.04c-0.85-0.54-1.7-1.08-2.54-1.66
		c0,0-0.04,0-0.04-0.04c-0.12-0.04-0.19-0.12-0.31-0.23c0,0-0.04,0-0.04-0.04c-0.85-0.58-1.66-1.19-2.47-1.73l-0.04-0.04
		c-0.27-0.19-0.46-0.35-0.69-0.58l-0.04-0.04c-0.81-0.65-1.58-1.27-2.35-1.96c0,0-0.04,0-0.04-0.04c-0.19-0.12-0.35-0.27-0.54-0.46
		c-0.77-0.69-1.54-1.35-2.27-2.12c-0.15-0.12-0.31-0.27-0.46-0.46c-0.69-0.69-1.43-1.39-2.16-2.2c-0.12-0.19-0.31-0.39-0.46-0.58
		c-0.69-0.73-1.35-1.5-2.04-2.35l-0.04-0.04c-0.19-0.23-0.35-0.42-0.54-0.73l-0.04-0.04c-0.66-0.77-1.23-1.58-1.81-2.43
		c0,0,0-0.04-0.04-0.04c-0.19-0.27-0.39-0.54-0.58-0.77c0,0,0-0.04-0.04-0.04c-0.5-0.89-1.16-1.73-1.62-2.58l-0.04-0.04
		c-0.12-0.15-0.19-0.23-0.27-0.39c0,0,0-0.04-0.04-0.04c-0.5-0.89-1.04-1.77-1.54-2.62v-0.04c-0.15-0.35-0.31-0.62-0.46-0.92v-0.04
		c-0.5-0.92-1-1.81-1.39-2.77c-0.19-0.23-0.27-0.5-0.35-0.77v-0.04c-0.42-0.92-0.89-1.85-1.19-2.77c-0.15-0.27-0.27-0.62-0.39-0.92
		c-0.35-0.96-0.73-1.93-1.04-2.89c-0.08-0.19-0.15-0.42-0.19-0.66c-0.73-2.27-1.35-4.58-1.73-6.97c-0.12-0.35-0.19-0.73-0.27-1.12
		c-0.19-0.96-0.35-2-0.5-3.01c0-0.39-0.08-0.73-0.12-1.16c-0.12-0.96-0.19-2-0.31-3.04v-0.04c0-0.35,0-0.62-0.08-0.92
		c0-0.04,0-0.04,0-0.08c0-1-0.04-2.04-0.08-3.04v-0.92c0-1.04,0.08-2.04,0.15-3.08c0-0.39,0-0.85,0.08-1.23v-0.04
		c0.04-1.08,0.19-2,0.27-3.04c0.08-0.39,0.08-0.69,0.15-1.04c0-0.04,0-0.04,0-0.08c0.12-1.04,0.31-2.08,0.54-3.01
		c0.04-0.35,0.12-0.73,0.19-1.04c0-0.04,0-0.04,0-0.08c0.19-1,0.42-2,0.69-2.93c0.04-0.31,0.12-0.62,0.27-0.92v-0.04
		c0.23-1.04,0.5-1.97,0.85-2.93c0.15-0.42,0.27-0.92,0.42-1.35l0.04-0.04c0.31-1,0.62-1.93,1.08-2.81v-0.04
		c0.12-0.42,0.27-0.77,0.46-1.16v-0.04c0.39-0.92,0.81-1.85,1.23-2.77v-0.04c0.15-0.39,0.35-0.66,0.58-1.04l0.04-0.04
		c0.39-0.96,0.89-1.81,1.39-2.7c0,0,0-0.04,0.04-0.04c0.19-0.42,0.42-0.77,0.62-1.16c0,0,0-0.04,0.04-0.04
		c0.5-0.89,1.04-1.73,1.62-2.58v-0.04c0.19-0.27,0.42-0.58,0.62-0.92c0,0,0-0.04,0.04-0.04c0.62-0.89,1.23-1.66,1.81-2.47
		c0,0,0-0.04,0.04-0.04c0.27-0.39,0.58-0.73,0.85-1.12l0.04-0.04c0.62-0.85,1.27-1.58,1.93-2.39c0.23-0.27,0.46-0.5,0.69-0.77
		l0.04-0.04c0.65-0.81,1.39-1.5,2.12-2.23c0.35-0.42,0.77-0.73,1.16-1.12c0.04-0.04,0.04-0.04,0.08-0.08
		c0.69-0.73,1.5-1.43,2.2-2.08h0.04c0.39-0.35,0.65-0.62,1.04-0.92h0.04c0.77-0.62,1.54-1.27,2.35-1.89l0.04-0.04
		c0.27-0.19,0.58-0.46,0.92-0.73l2.5-1.73c0.35-0.27,0.73-0.5,1.08-0.66c0.89-0.65,1.73-1.12,2.66-1.62c0.31-0.27,0.65-0.42,1-0.62
		c0.92-0.5,1.77-1,2.74-1.39c0.42-0.23,0.77-0.42,1.19-0.58c0.96-0.5,1.81-0.89,2.81-1.23h0.04c0.39-0.23,0.81-0.39,1.27-0.54
		c0.89-0.35,1.89-0.73,2.85-1.08c0.46-0.08,0.92-0.27,1.43-0.42c0.96-0.31,1.97-0.62,2.97-0.85c0.42-0.12,0.89-0.23,1.31-0.31
		c0.04,0,0.04,0,0.08,0c1-0.27,1.97-0.42,2.97-0.62h0.04c0.5-0.15,0.96-0.23,1.5-0.27c0.96-0.19,1.96-0.31,3.01-0.46h0.04
		c0.35,0,0.77-0.04,1.19-0.12c1-0.08,2.04-0.15,3.04-0.19h0.04c0.46-0.04,0.92-0.04,1.43-0.04c0.54-0.04,1.08-0.04,1.58-0.04
		c0.54,0,1,0,1.54,0.04h0.04c0.5,0,1,0,1.46,0.04c1,0.04,2,0.12,3.04,0.23h0.04c0.39,0,0.77,0.08,1.16,0.08h0.04
		c1.08,0.15,2,0.23,3.04,0.42c0.5,0.08,0.96,0.19,1.46,0.31h0.04c1,0.19,2,0.35,3.04,0.58c0.42,0.12,0.89,0.23,1.31,0.35
		c1.04,0.27,1.96,0.5,2.93,0.85H269c0.46,0.12,0.92,0.27,1.39,0.42h0.04c1,0.35,1.97,0.69,2.85,1.08h0.04
		c0.46,0.12,0.85,0.31,1.27,0.46h0.04c0.92,0.42,1.85,0.81,2.74,1.27h0.04c0.42,0.15,0.85,0.39,1.23,0.54h0.04
		c0.96,0.46,1.81,0.96,2.74,1.43c0.35,0.19,0.62,0.39,0.96,0.62c0.89,0.46,1.73,1,2.58,1.58h0.04c0.39,0.19,0.73,0.42,1.08,0.69
		c0.89,0.62,1.7,1.19,2.5,1.81h0.04c0.35,0.19,0.65,0.46,0.96,0.66c0.81,0.69,1.62,1.31,2.39,1.97c0.35,0.27,0.69,0.62,1.04,0.89
		c0.77,0.69,1.54,1.39,2.27,2.12c0.42,0.39,0.85,0.77,1.23,1.16c0.69,0.73,1.39,1.46,2.04,2.23l0.04,0.04
		c0.27,0.23,0.46,0.5,0.69,0.77l0.04,0.04c0.73,0.73,1.31,1.5,1.96,2.35v0.04c0.31,0.35,0.58,0.69,0.89,1.12l0.04,0.04
		c0.62,0.81,1.23,1.62,1.77,2.5c0.04,0,0.04,0.04,0.04,0.04c0.19,0.31,0.42,0.58,0.62,0.96c0.58,0.89,1.12,1.66,1.62,2.54v0.04
		c0.27,0.42,0.5,0.77,0.66,1.19c0.54,0.92,1.04,1.81,1.5,2.66v0.04c0.19,0.39,0.35,0.73,0.5,1.08v0.04c0.5,0.96,0.89,1.81,1.27,2.77
		l0.04,0.04c0.15,0.39,0.31,0.73,0.46,1.16c0.42,0.96,0.77,1.85,1.08,2.85v0.04c0.15,0.46,0.31,0.89,0.46,1.35v0.04
		c0.35,0.96,0.62,1.89,0.89,2.89v0.04c0.08,0.31,0.15,0.58,0.23,0.89v0.04c0.27,1,0.54,1.93,0.69,2.97v0.04
		c0.08,0.35,0.15,0.69,0.19,1.04c0.19,1,0.39,2,0.5,3.04v0.04c0.08,0.35,0.15,0.62,0.19,1v0.04c0.08,1,0.19,1.97,0.27,3.04v0.04
		c0.04,0.39,0.12,0.81,0.08,1.19c0.08,1.08,0.12,2.04,0.12,3.12v0.92v0.04c0,1.08-0.04,2-0.04,3.08v0.04
		c-0.08,0.31-0.04,0.58-0.12,0.89v0.04c-0.08,1.08-0.15,2.08-0.27,3.08c-0.04,0.42-0.08,0.77-0.15,1.12
		c-0.65,5.12-1.93,10.06-3.7,14.68c-0.12,0.31-0.23,0.62-0.35,0.89c-0.39,1-0.77,1.89-1.19,2.85l-0.04,0.04
		c-0.04,0.27-0.19,0.5-0.35,0.77c-0.39,0.85-0.85,1.81-1.35,2.7c0,0.04-0.04,0.04-0.04,0.08c-0.15,0.31-0.31,0.62-0.5,0.92
		c-0.46,0.85-0.92,1.77-1.46,2.62c0,0.04-0.04,0.04-0.04,0.08c-0.15,0.12-0.19,0.27-0.31,0.39l-0.04,0.04
		c-0.46,0.85-1.12,1.7-1.66,2.54C303.75,292.5,303.75,292.53,303.75,292.53z M318.28,242.22l-1.43,0.35c0-0.12-0.04-0.19-0.04-0.27
		c-0.08-0.39-0.12-0.65-0.19-0.96l1.85-0.58L318.28,242.22z M318.85,237.4l-2.93,0.92c0-0.08-0.04-0.12-0.08-0.19
		c-0.04-0.27-0.15-0.54-0.23-0.85v-0.04l3.39-1.27C318.97,236.44,318.85,236.94,318.85,237.4z M319.36,232.62l-4.62,1.66
		c-0.08-0.27-0.15-0.46-0.23-0.69c-0.08-0.27-0.15-0.5-0.23-0.73v-0.04l5.28-2.31C319.47,231.2,319.39,231.89,319.36,232.62z
		 M319.78,227.04l-6.67,2.89c-0.04-0.19-0.12-0.39-0.19-0.58c-0.08-0.27-0.19-0.5-0.31-0.77v-0.04l7.32-3.85
		C319.89,225.42,319.82,226.26,319.78,227.04z M320.09,221.1l-8.78,4.66c-0.04-0.15-0.12-0.27-0.19-0.42
		c-0.12-0.27-0.31-0.54-0.42-0.81v-0.04l9.59-6.05C320.24,219.29,320.2,220.18,320.09,221.1z M320.36,214.74l-11.13,6.97
		c-0.12-0.23-0.19-0.39-0.39-0.62c-0.08-0.15-0.23-0.39-0.35-0.58c0,0,0-0.04-0.04-0.04l11.98-8.25
		C320.43,213.05,320.4,213.9,320.36,214.74z M320.43,208.5l-13.56,9.36c-0.12-0.15-0.23-0.31-0.31-0.42
		c-0.15-0.23-0.27-0.46-0.46-0.69c0,0,0-0.04-0.04-0.04l14.37-11.64C320.4,206.15,320.43,207.31,320.43,208.5z M320.16,198.45
		c0.08,0.73,0.12,1.73,0.12,2.81l-16.03,12.95c-0.15-0.23-0.27-0.42-0.5-0.62c-0.12-0.23-0.31-0.46-0.5-0.65l-0.04-0.04l15.72-14.64
		C319.36,198.29,319.78,198.37,320.16,198.45z M315.16,197.6l-13.87,12.95l-0.31-0.31c-0.15-0.23-0.35-0.42-0.54-0.62l11.79-12.56
		C313.19,197.29,314.19,197.45,315.16,197.6z M308.68,196.37l-10.36,10.98c-0.27-0.23-0.46-0.5-0.69-0.73
		c-0.23-0.15-0.42-0.35-0.65-0.54l-0.04-0.04l8.44-10.4C306.49,195.9,307.6,196.14,308.68,196.37z M302.06,194.9l-7.4,9.09
		c-0.19-0.19-0.42-0.42-0.66-0.65c-0.15-0.12-0.27-0.19-0.39-0.35l6.43-8.59C300.71,194.56,301.4,194.71,302.06,194.9z
		 M296.85,193.55l-5.7,7.55c-0.19-0.15-0.39-0.35-0.62-0.46c-0.12-0.12-0.31-0.27-0.46-0.39l-0.04-0.04l4.62-7.24
		C295.39,193.17,296.16,193.36,296.85,193.55z M291.58,192.09l-4.08,6.32c-0.27-0.15-0.54-0.31-0.81-0.42
		c-0.12-0.12-0.19-0.19-0.35-0.27l3.51-6.13C290.42,191.78,291,191.97,291.58,192.09z M285.03,190.16c0.58,0.19,1.19,0.31,1.77,0.5
		l-3.12,5.47c-0.23-0.15-0.46-0.31-0.65-0.39c-0.19-0.15-0.31-0.19-0.5-0.31L285.03,190.16z M280.44,188.66
		c0.58,0.19,1.12,0.39,1.62,0.54l-2.27,4.82c-0.39-0.15-0.69-0.35-1.04-0.5c-0.12-0.04-0.19-0.12-0.27-0.15L280.44,188.66z
		 M275.59,187c0.65,0.23,1.31,0.46,1.96,0.69l-1.89,4.47h-0.04c-0.04,0-0.08-0.08-0.12-0.08c-0.27-0.08-0.58-0.19-0.85-0.31
		c-0.15-0.08-0.35-0.15-0.54-0.19L275.59,187z M271,185.42c0.46,0.15,0.89,0.31,1.35,0.46c0.12,0.04,0.23,0.08,0.31,0.12l-1.43,4.51
		h-0.04c-0.39-0.12-0.85-0.27-1.23-0.42c-0.08,0-0.19,0-0.27-0.04h-0.04L271,185.42z M266.19,183.61c0.62,0.23,1.23,0.5,1.93,0.69
		l-1.35,4.85c-0.04,0-0.04,0-0.04,0c-0.08,0-0.12-0.04-0.19-0.04c-0.31-0.08-0.62-0.12-0.92-0.19c-0.15-0.04-0.27-0.04-0.42-0.12
		L266.19,183.61z M261.41,181.76c0.58,0.27,1.23,0.46,1.85,0.73l-1.08,5.7h-0.08c-0.42-0.12-0.92-0.19-1.39-0.27h-0.15
		L261.41,181.76z M256.78,179.91c0.58,0.23,1.12,0.42,1.73,0.69l-1.04,6.86h-0.31c-0.35-0.04-0.65-0.04-0.96-0.12h-0.08
		L256.78,179.91z M251.35,177.56c0.69,0.35,1.54,0.73,2.5,1.08l-0.73,8.48h-0.42c-0.39-0.04-0.73,0-1.08-0.04h-0.27V177.56z
		 M248.23,177.56v9.55H248c-0.31,0-0.69,0-1.04,0.04c-0.12-0.04-0.31-0.04-0.46,0l-0.73-8.55
		C246.69,178.22,247.58,177.87,248.23,177.56z M242.84,179.88l0.65,7.51c-0.04,0-0.04,0-0.08,0c-0.31,0-0.65,0.04-1,0.12
		c-0.08,0-0.19,0.04-0.31,0.04l-0.96-7.01C241.72,180.34,242.26,180.11,242.84,179.88z M238.25,181.76l0.85,6.16
		c-0.04,0-0.12,0.04-0.19,0.04c-0.46,0.04-0.96,0.12-1.43,0.27h-0.04l-1.04-5.78C237.02,182.19,237.64,182,238.25,181.76z
		 M233.47,183.61l1,5.24h-0.04c-0.12,0.04-0.27,0.08-0.39,0.08c-0.35,0.08-0.69,0.15-1,0.23c-0.04,0-0.12,0.04-0.19,0.04l-1.35-4.89
		C232.16,184.08,232.82,183.84,233.47,183.61z M227.19,185.92c0.46-0.23,0.92-0.35,1.43-0.54l1.27,4.66c-0.12,0-0.15,0.04-0.23,0.08
		c-0.42,0.08-0.85,0.31-1.27,0.46l-1.46-4.58C227,186,227.12,185.96,227.19,185.92z M224.04,187l1.5,4.58
		c-0.19,0.08-0.39,0.12-0.58,0.19c-0.31,0.12-0.58,0.19-0.81,0.35c-0.04,0.04-0.08,0.04-0.12,0.08l-0.04,0.04l-1.93-4.58
		C222.76,187.47,223.38,187.23,224.04,187z M219.14,188.66l2.04,4.78c-0.08,0.04-0.19,0.08-0.27,0.12c-0.39,0.12-0.69,0.27-1.04,0.5
		l-2.31-4.85C218.1,189.01,218.6,188.85,219.14,188.66z M214.6,190.12l2.54,5.36h-0.04c-0.19,0.08-0.31,0.15-0.46,0.27
		c-0.23,0.15-0.46,0.27-0.69,0.42l-3.16-5.47C213.4,190.51,213.98,190.28,214.6,190.12z M209.78,191.59l3.54,6.13
		c0,0.04-0.04,0.04-0.04,0.04c-0.12,0.08-0.23,0.15-0.35,0.23c-0.31,0.19-0.58,0.35-0.81,0.5l-4.08-6.4
		C208.62,191.94,209.2,191.74,209.78,191.59z M204.96,192.98l4.66,7.28h-0.04c-0.19,0.12-0.31,0.23-0.5,0.42
		c-0.19,0.12-0.39,0.27-0.58,0.42l-5.74-7.55C203.46,193.36,204.27,193.17,204.96,192.98z M199.53,194.36l6.55,8.67l-0.04,0.04
		c-0.12,0.08-0.23,0.23-0.35,0.31c-0.23,0.19-0.46,0.42-0.69,0.65l-7.4-9.17C198.22,194.75,198.88,194.56,199.53,194.36z
		 M194.25,195.67l8.44,10.44c-0.19,0.19-0.42,0.35-0.62,0.58c-0.23,0.19-0.5,0.46-0.73,0.69l-10.4-11.06
		C192.06,196.14,193.14,195.9,194.25,195.67z M187.39,197.06l11.83,12.6c-0.19,0.23-0.39,0.42-0.58,0.65
		c-0.04,0.08-0.12,0.15-0.19,0.27l-13.95-12.98C185.47,197.45,186.39,197.25,187.39,197.06z M179.42,198.45
		c0.42-0.04,0.81-0.15,1.23-0.19l15.8,14.72l-0.04,0.04c-0.19,0.23-0.31,0.39-0.46,0.62c-0.19,0.19-0.35,0.42-0.5,0.66l-16.18-13.06
		C179.3,200.14,179.34,199.22,179.42,198.45z M179.15,205.07l14.45,11.64v0.04c-0.15,0.23-0.31,0.5-0.42,0.69
		c-0.15,0.19-0.27,0.31-0.35,0.5l-13.72-9.44C179.15,207.27,179.15,206.11,179.15,205.07z M179.15,212.24l12.1,8.28
		c-0.04,0-0.04,0.04-0.04,0.04c-0.12,0.19-0.27,0.42-0.39,0.58c-0.12,0.23-0.23,0.46-0.39,0.65l-11.25-7.09
		C179.19,213.86,179.15,213.01,179.15,212.24z M179.3,218.44l9.71,6.05v0.04c-0.15,0.31-0.31,0.58-0.42,0.89
		c-0.12,0.12-0.15,0.23-0.23,0.35l-8.94-4.66C179.38,220.14,179.34,219.29,179.3,218.44z M179.61,224.61l7.47,3.97v0.04
		c-0.15,0.31-0.27,0.62-0.31,0.85c-0.12,0.19-0.15,0.31-0.23,0.5L179.8,227C179.77,226.23,179.69,225.42,179.61,224.61z
		 M180.04,230.5l5.43,2.31v0.04c-0.08,0.23-0.19,0.42-0.23,0.69c-0.15,0.27-0.23,0.5-0.31,0.77l-4.66-1.73
		C180.23,231.85,180.11,231.16,180.04,230.5z M180.58,235.97l3.51,1.31c-0.12,0.27-0.19,0.58-0.23,0.85
		c-0.04,0.08-0.04,0.15-0.08,0.19l-3.04-0.92C180.69,236.94,180.61,236.44,180.58,235.97z M181.11,240.67l1.97,0.65v0.04
		c-0.08,0.31-0.08,0.62-0.19,0.92c0,0.08,0,0.19-0.08,0.31l-1.5-0.35C181.23,241.71,181.19,241.25,181.11,240.67z M194.18,294.81
		c-0.04-0.08-0.08-0.19-0.12-0.27c0.04,0.04,0.08,0.12,0.12,0.15s0.04,0.04,0.08,0.08L194.18,294.81z M195.79,298.89
		c-0.19-0.39-0.31-0.81-0.46-1.19l0.73-0.46l0.04,0.04c0.19,0.23,0.39,0.5,0.65,0.81c0,0,0,0.04,0.04,0.04L195.79,298.89z
		 M196.95,301.78l1.81-1.31c0,0.04,0,0.04,0.04,0.08c0.19,0.27,0.42,0.46,0.65,0.69l-2,1.62
		C197.3,302.51,197.1,302.13,196.95,301.78z M198.72,305.79l2.81-2.35c0.23,0.19,0.35,0.35,0.58,0.54l-2.97,2.77
		C198.95,306.4,198.84,306.13,198.72,305.79z M200.49,309.64l3.85-3.51c0.27,0.23,0.42,0.39,0.69,0.58l-3.93,4.16
		C200.92,310.45,200.73,310.03,200.49,309.64z M202.57,313.8l4.89-5.12c0,0.04,0.04,0.04,0.04,0.04c0.23,0.27,0.46,0.42,0.73,0.58
		l0.12,0.12l-4.89,6.09C203.11,314.96,202.84,314.34,202.57,313.8z M205.62,319.58c-0.19-0.35-0.35-0.77-0.62-1.16l5.82-7.17
		c0,0.04,0.04,0.04,0.04,0.04c0.15,0.12,0.31,0.23,0.46,0.35l-5.66,7.98C205.66,319.58,205.62,319.58,205.62,319.58z M207.35,322.51
		l6.55-9.25c0.04,0,0.04,0.04,0.08,0.04c0.15,0.12,0.39,0.27,0.54,0.39c0.12,0.04,0.15,0.08,0.19,0.15l-6.43,10.21
		C208.01,323.55,207.66,323.01,207.35,322.51z M210.05,327.06l7.36-11.67h0.04c0.15,0.12,0.35,0.19,0.54,0.23l-7.17,12.6
		C210.59,327.79,210.32,327.44,210.05,327.06z M212.71,331.06l8.01-14.06h0.04c0.23,0.15,0.42,0.27,0.69,0.35
		c0.08,0.08,0.19,0.08,0.27,0.12l-7.63,15.64C213.63,332.41,213.21,331.72,212.71,331.06z M216.14,335.96l8.36-17.22h0.04
		c0.23,0.04,0.46,0.19,0.69,0.23l-7.36,19.26C217.25,337.46,216.68,336.69,216.14,335.96z M220.03,341.12l8.09-21.11h0.04
		c0.08,0.08,0.23,0.12,0.35,0.15c0.23,0.12,0.46,0.19,0.69,0.27l-7.55,22.58C221.07,342.35,220.53,341.73,220.03,341.12z
		 M223.92,345.78l8.21-24.5h0.04c0.19,0,0.35,0.12,0.54,0.15l-6.9,26.47C225.15,347.21,224.5,346.44,223.92,345.78z M228.23,350.56
		l7.44-28.47h0.04c0.15,0.04,0.31,0.12,0.42,0.12c0.15,0.04,0.27,0.04,0.39,0.12h0.04l-5.78,30.98
		C229.93,352.37,229.12,351.44,228.23,350.56z M233.44,355.8l6.16-32.98c0.12,0.04,0.27,0.04,0.39,0.04c0.08,0,0.12,0,0.19,0.08
		h0.12l-4.35,35.29C235.09,357.42,234.28,356.61,233.44,355.8z M241.57,363.04c-0.96-0.77-1.89-1.54-2.81-2.35l4.62-37.37h0.04h0.62
		C243.11,338.61,241.99,356.07,241.57,363.04z M244.49,365.47c0.27-4.51,1.5-25.12,2.62-41.96l1.12,0.08l0.04,44.69
		C247,367.36,245.73,366.43,244.49,365.47z M251.35,368.32v-44.77h0.23c0.23,0.04,0.5,0,0.73-0.04h0.27
		c1.04,16.8,2.35,37.3,2.58,41.88C253.93,366.39,252.62,367.39,251.35,368.32z M258.13,363.04c-0.42-7.09-1.54-24.5-2.5-39.72h0.23
		c0.04,0,0.08,0,0.08,0c0.12,0.04,0.23,0.04,0.35,0l4.66,37.3C260.02,361.46,259.1,362.27,258.13,363.04z M263.72,358.15
		l-4.39-35.22c0.08,0,0.12,0,0.15-0.04c0.08,0.04,0.19,0.04,0.23,0c0.12,0,0.27-0.04,0.35-0.04h0.04l6.13,32.86
		C265.42,356.53,264.57,357.34,263.72,358.15z M268.88,353.18l-5.78-30.9h0.04c0.04,0.04,0.04,0.04,0.08-0.04
		c0.08,0.04,0.19,0.04,0.27,0c0.15-0.04,0.31-0.08,0.5-0.12l7.4,28.4C270.58,351.41,269.73,352.33,268.88,353.18z M273.89,347.86
		l-6.9-26.43c0.19-0.04,0.35-0.08,0.54-0.15l8.21,24.39C275.12,346.4,274.51,347.17,273.89,347.86z M278.05,342.97l-7.59-22.54
		c0.27-0.08,0.46-0.15,0.69-0.23c0.12-0.04,0.27-0.12,0.39-0.15h0.04l8.05,21C279.09,341.66,278.55,342.27,278.05,342.97z
		 M281.79,338.11l-7.36-19.15h0.04c0.23-0.08,0.46-0.15,0.69-0.23l8.36,17.15C282.95,336.65,282.41,337.38,281.79,338.11z
		 M285.53,333.03l-7.51-15.49c0.08-0.08,0.15-0.12,0.23-0.15c0.23-0.12,0.46-0.19,0.69-0.31c0,0,0.04,0,0.04-0.04l7.94,13.99
		L285.53,333.03z M288.76,328.13l-7.01-12.52c0.19-0.08,0.39-0.12,0.5-0.27l7.32,11.64C289.3,327.4,289.07,327.75,288.76,328.13z
		 M291.34,324.01l-6.4-10.17c0.04-0.04,0.15-0.08,0.23-0.15c0.19-0.08,0.39-0.23,0.54-0.35c0,0,0.04,0,0.04-0.04l6.51,9.09
		C291.96,322.97,291.61,323.47,291.34,324.01z M293.96,319.54l-5.63-7.94c0.19-0.08,0.35-0.19,0.5-0.31c0,0,0.04,0,0.04-0.04
		l5.74,7.09C294.39,318.77,294.2,319.16,293.96,319.54z M296.2,315.42l-4.85-5.97c0.04-0.04,0.08-0.08,0.12-0.12
		c0.23-0.15,0.5-0.39,0.73-0.58c0.04,0,0.04-0.04,0.08-0.04l4.82,5.01C296.78,314.34,296.47,314.88,296.2,315.42z M298.51,310.83
		l-3.93-4.05c0.27-0.19,0.5-0.35,0.69-0.62c0.04-0.04,0.04-0.04,0.08-0.08l3.74,3.47C298.94,309.99,298.7,310.41,298.51,310.83z
		 M300.48,306.67l-2.85-2.66l0.5-0.54l0.04-0.04l2.74,2.31C300.78,306.06,300.59,306.37,300.48,306.67z M302.17,302.82l-1.89-1.58
		c0.23-0.23,0.46-0.42,0.58-0.69l0.04-0.04l1.73,1.23C302.48,302.05,302.33,302.44,302.17,302.82z M303.87,298.81l-0.96-0.66v-0.04
		c0.31-0.27,0.54-0.54,0.69-0.85l0.04-0.04l0.66,0.46C304.17,298,303.98,298.43,303.87,298.81z"/>
	<path d="M303.64,358.13c-0.03-0.16-0.06-0.27-0.14-0.39l-2.67-6.19c58.68-76.26,41-173.6,40.77-174.49
		c-0.2-0.74-0.79-1.23-1.55-1.35c-5.94-0.87-12.17-1.98-18.66-3.42c0-0.04,0.08-0.03,0.16-0.07c0.55-0.17,0.95-0.57,1.13-1.06
		l3.91-10.57c0.18-0.45,0.16-0.99-0.05-1.43c-0.21-0.43-0.58-0.8-1.03-0.98l-14.67-5.27l10.89-28.09c0.13-0.34,0.15-0.73,0.09-1.08
		c4.37-1.87,7.09-6.21,7.07-11.38c-0.01-6.83-5.57-12.38-12.44-12.37c-6.79-0.02-12.11,5.43-12.1,12.37c-0.02,0.39,0,0.69,0.03,1
		c-0.07,0.61-0.1,1.19-0.08,1.65l-0.4,0.21c-0.43,0.17-0.76,0.46-0.93,0.88l-13.91,28.95l-16.22-5.92
		c-0.95-0.32-2.01,0.17-2.37,1.08l-3.84,9.92c-0.18,0.53-0.13,1.15,0.11,1.63c0.29,0.48,0.77,0.81,1.35,0.88l13.78,2.14l-2.25,5.72
		c-17.23-5.89-29.05-11.06-29.16-11.1c-0.49-0.22-0.99-0.2-1.46-0.03c-0.12,0.11-11.9,5.25-29.16,11.16l-2.31-5.71l13.8-2.14
		c0.58-0.09,1.06-0.41,1.32-0.9c0.29-0.49,0.32-1.06,0.16-1.61l-3.76-9.9c-0.38-0.94-1.44-1.42-2.38-1.12l-16.33,5.92l-15.63-29.96
		c0.06-0.5,0.05-1.04-0.03-1.7l0.01-0.96c-0.01-6.94-5.34-12.37-12.13-12.36c-6.83,0.01-12.38,5.53-12.37,12.36
		c-0.02,5.21,2.7,9.5,7.08,11.38c-0.1,0.38-0.04,0.77,0.06,1.08l11.21,28.09L174,158.22c-0.43,0.17-0.83,0.5-1.05,0.95
		c-0.21,0.45-0.2,0.99-0.03,1.43l3.88,10.57c0.21,0.51,0.65,0.92,1.14,1.1c0.08,0,0.12,0.01,0.19,0.05
		c-6.47,1.42-12.7,2.55-18.6,3.42c-0.82,0.11-1.46,0.7-1.58,1.5c-0.16,0.99-16.38,98.88,41.13,174.23l-2.81,6.19
		c-0.05,0.15-0.09,0.3-0.14,0.46l-7.52,39.67c-0.16,0.84,0.26,1.71,1.02,2.02c0.75,0.38,1.69,0.2,2.18-0.43l24.38-28.59
		c10.19,10.25,20.57,18.74,32.58,26.47c0.6,0.38,1.37,0.41,1.97-0.02c12.5-7.88,23.01-16.2,32.82-26.1l24.55,28.2
		c0.33,0.44,0.86,0.66,1.39,0.68c0.27-0.03,0.54-0.05,0.78-0.19c0.79-0.35,1.18-1.18,1.02-1.99L303.64,358.13z M319.83,171.95
		c-4.16-0.94-8.43-1.95-12.73-3.13l1.66-3.93L319.83,171.95z M311.32,112.98c-0.03-0.19-0.02-0.39-0.01-0.62
		c-0.01-3.01,2.27-5.33,5.16-5.34c2.97-0.01,5.36,2.42,5.37,5.35c0,2.43-1.17,4.3-3.14,5.05l-0.6,0.36
		c-0.12,0.11-0.28,0.22-0.4,0.25c-1.96-1.64-4.39-2.49-6.3-2.93l-0.1-0.31c0,0-0.05-0.5,0.06-1.31L311.32,112.98z M307.84,120.29
		c4.8-0.38,7.79,3.23,7.9,3.39c0.47,0.56,0.39,1.45-0.21,1.92c-0.24,0.22-0.59,0.32-0.9,0.3c-0.38-0.02-0.76-0.19-1.02-0.51
		c-0.07-0.12-1.9-2.25-4.78-2.39c-0.23-0.01-0.5-0.02-0.77,0c-0.77,0.04-1.4-0.49-1.48-1.27C306.5,121,307.07,120.33,307.84,120.29z
		 M304.92,126.36c4.8-0.38,7.79,3.23,7.9,3.39c0.47,0.6,0.39,1.45-0.21,1.92c-0.24,0.22-0.59,0.32-0.9,0.3
		c-0.39-0.02-0.76-0.19-1.02-0.51c-0.07-0.08-1.9-2.25-4.78-2.39c-0.27-0.01-0.5-0.02-0.77,0c-0.78,0.08-1.4-0.49-1.48-1.23
		C303.58,127.07,304.15,126.44,304.92,126.36z M302,132.47c4.8-0.42,7.83,3.24,7.94,3.39c0.47,0.56,0.39,1.45-0.21,1.92
		c-0.28,0.22-0.59,0.32-0.9,0.3c-0.38-0.02-0.76-0.19-1.02-0.51c-0.07-0.12-1.9-2.25-4.78-2.39c-0.23-0.01-0.5-0.02-0.77,0
		c-0.78,0.08-1.44-0.49-1.48-1.27C300.7,133.18,301.27,132.51,302,132.47z M299.32,138.55c4.8-0.38,7.79,3.23,7.94,3.39
		c0.47,0.6,0.35,1.44-0.21,1.92c-0.28,0.22-0.59,0.32-0.94,0.3c-0.38-0.02-0.72-0.19-0.98-0.51c-0.11-0.08-1.9-2.25-4.82-2.39
		c-0.23-0.01-0.5-0.02-0.77,0c-0.74,0.08-1.4-0.49-1.48-1.23C298.01,139.26,298.54,138.63,299.32,138.55z M305.23,160.4l-3.71,8.77
		c-2.63-0.74-5.25-1.49-7.8-2.27l4.66-10.88L305.23,160.4z M296.59,144.63c4.8-0.38,7.83,3.24,7.94,3.39
		c0.47,0.6,0.39,1.45-0.21,1.92c-0.28,0.22-0.59,0.32-0.94,0.3c-0.35-0.02-0.72-0.19-0.98-0.47c-0.07-0.12-1.9-2.25-4.82-2.39
		c-0.23-0.01-0.5-0.02-0.77,0c-0.73,0.04-1.4-0.53-1.44-1.27C295.28,145.37,295.85,144.71,296.59,144.63z M287.62,153.72l7.89,1.23
		l-4.7,11.03c-2.47-0.78-4.86-1.51-7.18-2.28L287.62,153.72z M211.94,153.74l4.03,9.99c-2.31,0.74-4.74,1.54-7.21,2.27l-4.75-11.03
		L211.94,153.74z M205.82,166.91c-2.54,0.76-5.17,1.52-7.79,2.28l-3.7-8.78l6.81-4.37L205.82,166.91z M202.12,144.66
		c0.73,0.04,1.32,0.72,1.24,1.45c-0.08,0.77-0.57,1.4-1.49,1.28c-3.5-0.25-5.55,2.35-5.56,2.39c-0.29,0.33-0.72,0.51-1.14,0.48
		c-0.27-0.01-0.54-0.1-0.8-0.31c-0.56-0.45-0.67-1.31-0.18-1.9C194.32,147.91,197.43,144.24,202.12,144.66z M199.41,138.55
		c0.73,0.07,1.32,0.72,1.24,1.49c-0.08,0.77-0.8,1.35-1.49,1.24l-0.19-0.01c-3.23-0.16-5.28,2.29-5.36,2.4
		c-0.29,0.37-0.72,0.54-1.14,0.52c-0.27-0.01-0.53-0.14-0.8-0.31c-0.55-0.49-0.67-1.34-0.18-1.94
		C191.61,141.8,194.53,138.12,199.41,138.55z M180.91,117.67l-0.49-0.22c-1.93-0.67-3.11-2.62-3.11-4.97
		c-0.01-2.97,2.38-5.4,5.35-5.41c2.89,0.02,5.17,2.41,5.18,5.38l-0.06,1.23c0.13,0.55,0.07,0.93,0.06,1.04c0,0.04,0,0.04,0,0.04
		l-0.1,0.42c-1.71,0.34-4.18,1.15-6.31,2.89C181.28,118,181.09,117.87,180.91,117.67z M185.08,125.39
		c-0.29,0.37-0.72,0.54-1.14,0.52c-0.27-0.01-0.54-0.1-0.8-0.31c-0.55-0.49-0.67-1.34-0.18-1.9c0.12-0.19,3.16-3.86,7.92-3.43
		c0.73,0.07,1.32,0.72,1.24,1.49c-0.08,0.77-0.64,1.36-1.45,1.24C187.25,122.76,185.16,125.28,185.08,125.39z M187.99,131.51
		c-0.29,0.33-0.68,0.51-1.1,0.49c-0.31-0.01-0.57-0.1-0.8-0.31c-0.6-0.45-0.67-1.31-0.22-1.9c0.12-0.15,3.23-3.82,7.92-3.39
		c0.77,0.04,1.32,0.72,1.24,1.45c-0.04,0.77-0.65,1.4-1.45,1.24C190.16,128.84,188.07,131.4,187.99,131.51z M188.78,135.87
		c0.12-0.15,3.19-3.78,7.92-3.4c0.73,0.07,1.31,0.72,1.24,1.45c-0.04,0.77-0.65,1.43-1.45,1.28c-3.45-0.36-5.51,2.28-5.59,2.39
		c-0.29,0.33-0.72,0.51-1.14,0.48c-0.27-0.01-0.53-0.1-0.79-0.31C188.4,137.32,188.29,136.47,188.78,135.87z M190.76,164.9
		l1.66,3.94c-4.34,1.18-8.56,2.21-12.73,3.16L190.76,164.9z M197,384.03l8.37-24.55l4.29,4.64L197,384.03z M281.6,361.61
		c-9.39,9.8-20.04,18.7-31.72,26.42c-11.88-7.95-22.66-17.07-32.12-27.21c-9.43-10.02-17.75-21.23-24.76-33.3
		c-11.85-20.48-20.21-43.76-24.87-69.29c-4.21-22.89-4.57-43.31-4.16-56.44c0.29-8.39,0.88-14.96,1.39-18.99
		c22.12-3.59,43.66-10.14,58.25-15.18c12.55-4.29,21.92-8.15,26.17-9.95c4.27,1.79,13.65,5.64,26.17,9.95
		c14.64,5.03,36.27,11.6,58.39,15.22c0.56,4.27,1.28,11.75,1.55,21.18c0.32,13.25-0.14,33.78-4.53,56.68
		c-4.81,25.22-13.3,48.19-25.19,68.28C299.2,340.83,290.91,351.8,281.6,361.61z M290.04,364.1l4.24-4.65l8.41,24.56L290.04,364.1z"
		/>
</g>
</svg>
