<?xml version="1.0" encoding="utf-8"?>
<!-- Generator: Adobe Illustrator 26.5.0, SVG Export Plug-In . SVG Version: 6.00 Build 0)  -->
<svg version="1.1" id="Layer_1" xmlns="http://www.w3.org/2000/svg" xmlns:xlink="http://www.w3.org/1999/xlink" x="0px" y="0px"
	 viewBox="0 0 500 500" style="enable-background:new 0 0 500 500;" xml:space="preserve">
<style type="text/css">
	.st0{fill:#131313;}
</style>
<g>
	<path class="st0" d="M400.93,251.87l-27.88-15.06l0.64-1.55l-22.03-19.88l2.37-6.45l-7.62-4.43l1.68-32.01h-1.12l8.52-26.5
		l-28.27,6.5v-1.2l-30.72,1.46l-2.07-5.12l-9.21,1.33l-20.44-23.53l-1.51,0.9L250,100l-13.29,26.33l-1.51-0.9l-20.48,23.53
		l-9.17-1.33l-2.07,5.12l-30.72-1.46v1.2l-28.27-6.5l8.48,26.5h-1.08l1.68,32.01l-7.66,4.43l2.41,6.45l-22.07,19.88l0.69,1.55
		l-27.88,15.06L127,265.72l-0.69,1.51l22.76,19.88l-1.2,7.36l5.81,3.87l-1.89,31.97h1.81l-7.48,26.63l27.45-6.88l0.09,1.55
		l30.67-1.81l2.41,6.58l9.08-2.28l20.56,22.85l1.16-0.65L250,400l12.48-23.71l1.16,0.65l20.57-22.85l9.08,2.28l2.37-6.58l30.72,1.81
		l0.09-1.55l27.45,6.88l-7.49-26.63h1.76l-1.85-31.97l5.81-3.87l-1.21-7.36l22.41-19.58l0.34-0.3l-0.73-1.51L400.93,251.87z
		 M291.52,342.91l-0.04,0.09h-0.04l-2.02,5.68l-7.49-1.85l-19.49,21.68l-2.11-1.25l-0.09,0.13l-0.08-0.04l-8.26,15.66l2.97-11.14
		l3.66-7.83l2.8,2.97l1.16-1.08l0.13-0.13h-0.04l5.72-6.11l-0.56-3.44l1.94,2.11v0.09l0.08-0.04l0.99-1.46l4.99-7.23l-1.08-4.39
		l3.87,2.28l0.73-1.29l3.05-4.17l4.39,4.43l1.08,0.69l0.56,0.34v-0.04l0.99-8.52l4.26,1.25l1.68,0.6l0.64-4.78l2.37,4.13l8.56,1.51
		l1.76,0.26l0.13-3.4l2.28,3.27l7.48-0.22l1.76-0.04l0.09-3.05l17.04,5.64l4.22,2.62l3.36,1.38l-24.48-6.15l-0.13,2.58
		L291.52,342.91z M239.67,367.26l-2.11,1.25l-19.53-21.68l-7.45,1.85l-2.02-5.68h-0.04l-0.04-0.09l-28.82,1.72l-0.13-2.58
		l-22.72,5.68l1.72-1.03l4.09-2.54l16.91-5.59l0.09,3.05l1.76,0.04l7.48,0.22l2.28-3.27l0.13,3.4l1.76-0.26l8.56-1.51l2.37-4.13
		l0.64,4.78l1.68-0.6l4.26-1.25l0.99,8.52v0.04l0.56-0.34l1.08-0.69l4.39-4.43l3.05,4.17l0.73,1.29l3.87-2.28l-1.08,4.39l4.99,7.23
		l0.99,1.46l0.09,0.04v-0.09l1.93-2.11l-0.6,3.44l5.77,6.11h-0.04l0.13,0.13l1.16,1.08l2.8-2.97l4.9,10.45l1.85,7.61l-0.09,0.22
		l0.17,0.09l0.39,1.59l-8.73-16.65l-0.09,0.04L239.67,367.26z M207.54,159.54l0.04-0.09h0.04l1.81-4.65l7.87,1.16l19.14-22.03
		l2.45,1.51l0.04-0.13l0.09,0.04l10.67-21.04l-0.69,1.94l-2.41,9.12l-6.8,13.64l-2.24-2.11l-1.29,1.2l-5.42,5.16l0.64,3.96
		l-2.5-2.32l-0.99,1.46l-5.03,7.1l1.25,4.6l-3.83-2.88l-0.78,1.59l-2.11,3.87l-6.71-5.29h-0.04l-0.17,0.6l-0.26,1.29v6.2l-5.08-0.77
		l-1.42-0.39l-1.12,4.39l-2.37-3.87l-8.6-1.59l-1.72-0.3l-0.09-0.04l0.04,0.13l0.13,2.84l-2.02-2.84l-8.35-0.26v-0.04h-0.17
		l-1.59,0.09l0.13,4.09L164,159.76l-7.7-4.56l22.76,5.21v-2.24L207.54,159.54z M261.1,135.45l2.45-1.51l19.14,22.03l7.83-1.16
		l1.85,4.65l0.04,0.09l28.52-1.38v2.24l22.63-5.21l-7.53,4.52l-14.28,5.16l0.13-4.09l-1.59-0.09h-0.17v0.04l-8.35,0.26l-2.02,2.84
		l0.13-2.84l0.04-0.13l-0.09,0.04l-1.72,0.3l-8.6,1.59l-2.37,3.87l-1.12-4.39l-1.42,0.39l-5.08,0.77v-6.2l-0.26-1.29l-0.17-0.6
		h-0.04l-6.71,5.29l-2.11-3.87l-0.78-1.59l-3.83,2.88l1.25-4.6l-5.03-7.1l-0.99-1.46l-2.5,2.32l0.64-3.96l-5.42-5.16l-1.29-1.2
		l-2.24,2.11l-6.28-12.65l-2.49-10.07l9.38,18.5l0.26,0.56l0.09-0.04L261.1,135.45z M257.36,362.31l-0.09-0.22l-5.89-22.67
		l-0.6-1.72l0.13,0.52l0.09,0.39v0l-0.77-2.95l-0.01-0.02c1.98,0,3.96-0.09,5.94-0.26L257.36,362.31z M241.91,337.27l-1.16,24.87
		l-1.89,2.02l2.58-26.93L241.91,337.27z M237.18,363.13l-3.74-4.04l3.83-24.44c0.86,0.13,1.72,0.26,2.58,0.34L237.18,363.13z
		 M112.58,251.61l22.67-12.18l-0.04-0.13l0.17-0.09l-1.03-2.41l21.51-19.4l-0.04-0.09l-2.02-5.51l6.54-3.79l-1.55-29.26h2.71
		l-7.31-22.85l0.22,0.56l4.82,8.3l4.73,14.33l-3.01,0.09h-0.04l-0.04,1.76l-0.22,7.49l3.27,2.32l-3.4,0.13l0.3,1.76l1.46,8.6
		l4.13,2.37l-4.78,0.65l0.6,1.72l1.25,4.22l-8.48,0.99l-0.04,0.04l0.3,0.56l0.73,1.08l4.39,4.39l-4.17,3.05l-1.25,0.73l2.28,3.92
		l-4.39-1.08l-7.23,4.99l-1.42,0.99l-0.09,0.04l0.09,0.04l2.11,1.89l-3.4-0.56l-6.11,5.77h-0.04l-0.09,0.09l-1.08,1.16v0.04
		l2.97,2.8l-16.22,7.66l-6.45,1.59l-2.71,1.12l2.71,1.16l9.42,2.5l13.6,6.84l-2.07,2.24l1.2,1.29l5.12,5.46l3.96-0.69l-2.32,2.5
		l1.42,1.03l7.14,5.03l4.56-1.25l-2.88,3.83l1.59,0.82l3.87,2.11l-5.25,6.71l-0.04,0.04l0.6,0.17l1.29,0.26h6.2l-0.78,5.12
		l-0.39,1.38l4.34,1.16l-3.83,2.32l-1.59,8.65l-0.3,1.76l-0.04,0.09l0.09-0.09l2.84-0.13l-2.8,2.02l-0.26,8.43h-0.04v0.13l0.04,1.55
		h-1.89l1.72-29l-5.42-3.61l1.08-6.8l-21.6-18.89l1.2-2.5l-0.17-0.09l0.04-0.09L112.58,251.61z M242.95,139.11l-0.09,0.3l0.09,0.3
		l5.89,22.67l0.99,2.07l-1.29-5.59v-0.03l1.45,5.55l2.65-9.84l-0.05,0.24l-2.07,9.21l0.6-1.59l5.94-22.03l0.09-0.3l-0.09-0.3
		l-1.42-5.72l3.31,6.58l-2.71,25.77c-2.02-0.17-4.04-0.26-6.11-0.26c-2.2,0-4.35,0.09-6.5,0.26l-2.71-25.77l3.44-6.88L242.95,139.11
		z M292.81,164.75l-5.38,10.07c-1.29-0.65-2.63-1.25-3.96-1.81l4.3-10.15v2.67L292.81,164.75z M338.46,178.78h2.75l-1.55,29.26
		l6.54,3.79l-0.95,2.5l-1.12,3.01h0.04l-0.04,0.09l21.51,19.4l-1.08,2.41l0.22,0.13l-0.04,0.09l22.46,12.09l-3.18-1.12l-6.54-1.63
		l-16.18-7.62l2.97-2.8v-0.04l-1.08-1.16l-0.09-0.09h-0.04l-6.11-5.77l-3.4,0.56l2.11-1.89l0.09-0.04l-0.09-0.04l-1.42-0.99
		l-7.23-4.99l-4.39,1.08l2.28-3.92l-1.25-0.73l-4.17-3.05l4.39-4.39l0.73-1.08l0.3-0.56l-0.04-0.04l-8.48-0.99l1.25-4.22l0.6-1.72
		l-4.77-0.65l4.13-2.37l1.46-8.6l0.3-1.76l-3.4-0.13l3.27-2.32l-0.22-7.49l-0.04-1.76h-0.04l-3.01-0.09l4.69-14.15l4.91-8.48
		l0.56-1.33L338.46,178.78z M331.32,324.19l-0.17-0.26l-0.26-0.17l-19.4-11.87l-2.11-0.6l0.3,0.17l0.6,0.39l0.04,0.04l-0.95-0.58
		c0,0,0.01-0.01,0.01-0.01c1.68-1.63,3.27-3.36,4.77-5.12l19.02,17.34l3.92,10.84L331.32,324.19z M281.97,326.56
		c-10.07,4.3-20.78,6.45-31.84,6.45c-11.06,0-21.81-2.15-31.88-6.45c-9.77-4.13-18.5-10.07-26.03-17.6
		c-7.53-7.53-13.42-16.31-17.55-26.12c-4.26-10.11-6.41-20.87-6.41-31.97c0-6.02,0.65-12,1.94-17.77v-0.04
		c1.03-4.82,2.54-9.55,4.47-14.15c4.13-9.77,10.02-18.54,17.55-26.12c4.26-4.26,8.91-8,13.94-11.23c3.83-2.45,7.87-4.56,12.09-6.37
		c10.07-4.26,20.82-6.45,31.88-6.45c11.06,0,21.77,2.19,31.84,6.45c9.77,4.13,18.5,10.07,26.03,17.6
		c7.53,7.57,13.42,16.35,17.55,26.12c4.26,10.11,6.45,20.87,6.45,31.97c0,11.1-2.19,21.86-6.45,31.97
		c-4.13,9.81-10.02,18.59-17.55,26.12C300.47,316.49,291.73,322.43,281.97,326.56z M183.96,305.39l-18.37,16.78l-2.75,0.04
		l20.82-17.21L183.96,305.39z M162.41,320.32l0.17-5.51l19.32-13.9c0.52,0.69,1.03,1.38,1.55,2.02L162.41,320.32z M138.7,258.76
		l0.3,0.09l0.26-0.09l22.63-5.89l1.59-0.86l-6.28,1.46l-0.3,0.09l-0.47,0.13l-0.32,0.07l7.76-2.03l-12.25-3.32l0.38,0.08l12.86,2.8
		l0.09-0.04l-3.05-0.65l-21.94-5.98l-0.3-0.09l-0.3,0.09l-8.43,2.07l9.34-4.39l25.73,1.2c-0.26,2.45-0.34,4.9-0.34,7.4v0.56
		l-0.78-0.17l-1.38,0.73l2.15-0.47c0,2.24,0.13,4.47,0.34,6.67l-25.43,2.67l-6.84-3.44L138.7,258.76z M161.16,215.6l10.37,4.17
		c-0.56,1.33-1.03,2.71-1.51,4.09l-11.06-3.36l4.09-3.01L161.16,215.6z M184.13,197.96l-21.12-17.08l1.85-0.04l19.96,16.22
		C184.61,197.36,184.35,197.66,184.13,197.96z M183.06,199.3c-0.47,0.65-0.95,1.29-1.42,1.94l-19.23-13.64l0.13-4.82L183.06,199.3z
		 M173.63,214.87l-8.3-4.47l-0.69-2.32l9.64,5.51C174.02,214.01,173.81,214.44,173.63,214.87z M180.39,202.52l-0.86,1.29
		l-16.65-11.23l3.36-0.13L180.39,202.52z M178.8,205.45c-0.52,0.77-0.99,1.59-1.51,2.41l-13.42-7.7l-0.95-5.42L178.8,205.45z
		 M176.43,209.41c-0.47,0.86-0.95,1.72-1.38,2.58l-10.97-6.28l4.77-0.65L176.43,209.41z M164.43,211.9l8.47,4.56
		c-0.26,0.56-0.52,1.12-0.73,1.68l-13.77-5.55L164.43,211.9z M169.46,225.5l-0.65,2.32l-9.21-2.28l-2.15-3.66L169.46,225.5z
		 M168.34,229.5c-0.26,0.99-0.51,2.02-0.69,3.1l-19.1-3.61l4.65-3.18L168.34,229.5z M167.18,234.28l-0.69,0.95l-16.99-2.8
		l-2.02-1.85L167.18,234.28z M166.79,237.03c-0.17,0.86-0.3,1.72-0.39,2.58l-26.93-2.62l4-3.79L166.79,237.03z M165.29,241.24
		l-0.04,0.47l-24.78-1.16l-2.02-1.94L165.29,241.24z M140.77,262.63l25.34-2.71c0.04,0.39,0.09,0.77,0.17,1.16l-26.76,2.88
		L140.77,262.63z M166.49,262.8c0.09,0.82,0.22,1.59,0.39,2.37l-23.06,3.96l-3.31-3.53L166.49,262.8z M149.97,269.86l17.08-2.93
		l0.3,1.55l-19.7,3.87L149.97,269.86z M167.87,270.16c0.17,0.95,0.43,1.89,0.69,2.8L153.71,277l-4.52-3.18L167.87,270.16z
		 M168.99,274.63c0.3,0.95,0.56,1.89,0.9,2.84l-12.13,3.31l2.93-3.87L168.99,274.63z M170.45,279.15c0.13,0.43,0.3,0.86,0.47,1.33
		l-8.99,2.71l-2.07-1.16L170.45,279.15z M162.36,284.87l9.21-2.75l0.64,1.68l-13.59,5.85L162.36,284.87z M172.95,285.39
		c0.56,1.33,1.21,2.62,1.89,3.91l-10.28,5.55l0.82-5.03h-2.71L172.95,285.39z M175.61,290.89c0.39,0.69,0.78,1.38,1.16,2.07
		l-8.17,4.99l-4.09-1.03L175.61,290.89z M177.64,294.51c0.56,0.9,1.12,1.76,1.68,2.62l-16.09,11.1l0.99-5.55L177.64,294.51z
		 M180.09,298.77l0.17,1.12L166.28,310l-2.71,0.13L180.09,298.77z M340.91,220.51l-10.71,3.27c-0.47-1.38-0.95-2.75-1.51-4.13
		l10.02-4.04l-1.89,1.89L340.91,220.51z M333.85,239.57c-0.09-0.86-0.22-1.72-0.39-2.58l22.93-3.79l4,3.79L333.85,239.57z
		 M361.43,238.62l-2.02,1.94l-24.78,1.16l-0.04-0.47L361.43,238.62z M325.89,213.41l9.34-5.33l-0.69,2.32l-8,4.3
		C326.37,214.27,326.15,213.84,325.89,213.41z M350.37,232.43l-16.99,2.8l-0.3-0.39c0-0.22-0.04-0.43-0.09-0.6l19.4-3.66
		L350.37,232.43z M332.61,232.51c-0.21-1.08-0.43-2.11-0.73-3.1l14.8-3.61l4.65,3.18L332.61,232.51z M340.26,225.54l-8.86,2.19
		c-0.17-0.77-0.43-1.55-0.64-2.32l11.66-3.53L340.26,225.54z M328.04,218.01c-0.26-0.6-0.52-1.16-0.78-1.72l8.18-4.39l6.02,0.69
		L328.04,218.01z M325.12,211.82c-0.43-0.86-0.9-1.72-1.42-2.58l7.31-4.17l4.77,0.65L325.12,211.82z M322.84,207.73
		c-0.47-0.82-0.99-1.63-1.51-2.45l15.62-10.54l-0.95,5.42L322.84,207.73z M320.39,203.77c-0.3-0.43-0.56-0.82-0.9-1.25l14.15-10.07
		l3.36,0.13L320.39,203.77z M318.45,201.06c-0.43-0.65-0.95-1.29-1.42-1.94l20.31-16.35l0.13,4.82L318.45,201.06z M315.95,197.79
		c-0.21-0.3-0.47-0.6-0.69-0.9l19.75-16.05l1.85,0.04L315.95,197.79z M315.91,305.39l0.3-0.39l20.82,17.21l-2.75-0.04L315.91,305.39
		z M316.64,303.11c0.52-0.65,1.03-1.33,1.55-2.02l19.1,13.72l0.17,5.51L316.64,303.11z M319.61,299.89l0.17-1.03l0.04-0.04
		l16.48,11.32l-2.71-0.13L319.61,299.89z M320.77,297.35c0.6-0.9,1.16-1.76,1.72-2.67l13.17,8l0.99,5.55L320.77,297.35z
		 M323.36,293.13c0.43-0.69,0.82-1.38,1.2-2.07l10.8,5.85l-4.09,1.03L323.36,293.13z M335.32,294.85l-9.98-5.38
		c0.69-1.29,1.33-2.62,1.89-3.96l9.98,4.3h-2.71L335.32,294.85z M327.96,283.97c0.21-0.6,0.47-1.16,0.69-1.76l8.86,2.67l3.74,4.78
		L327.96,283.97z M329.29,280.61c0.17-0.47,0.34-0.95,0.47-1.38l10.24,2.8l-2.07,1.16L329.29,280.61z M330.32,277.56
		c0.34-0.95,0.65-1.89,0.9-2.84l7.96,2.19l2.93,3.87L330.32,277.56z M331.7,273.04c0.26-0.9,0.47-1.85,0.69-2.8l18.28,3.57
		l-4.52,3.18L331.7,273.04z M332.78,268.52c0.13-0.52,0.21-1.03,0.3-1.55l16.82,2.88l2.32,2.5L332.78,268.52z M333.38,265.25
		c0.17-0.77,0.3-1.59,0.39-2.41l25.6,2.75l-3.31,3.53L333.38,265.25z M333.98,261.08c0.09-0.34,0.13-0.73,0.17-1.12l24.95,2.67
		l1.25,1.33L333.98,261.08z M359.32,260.86l-25.04-2.62c0.22-2.19,0.3-4.39,0.34-6.63v-0.73c0-2.5-0.08-4.95-0.34-7.4l25.34-1.2
		l9.25,4.39l-8.26-2.07l-0.3-0.09l-0.3,0.09l-16.61,4.78l-0.43,0.13l-0.34,0.09l-0.13,0.04l-6.21,1.61l-0.2,0.03l-1.46,0.34
		l0.09,0.04l0.09-0.04l0.29-0.07l-0.3,0.08l2.35,0.6l-2.21-0.49l3.14,1.12l22.59,5.89l0.3,0.09l0.3-0.09l4.82-1.29L359.32,260.86z
		 M323.23,167.37l-0.26,0.17l-0.13,0.26l-11.62,19.79l-1.42,3.1l1.33-2.15l0.07-0.1l-1.29,2.25l0.43-0.25l0.02-0.01h0.04l2.71-1.25
		l20.14-11.83l0.3-0.17l0.13-0.26l2.62-4.52l-2.32,7.01l-19.88,16.18c-2.97-3.53-6.33-6.84-9.9-9.81l17.17-18.89l6.76-2.45
		L323.23,167.37z M320,165.78l-16.69,18.41l-0.39-0.3l17.17-20.91L320,165.78z M301.11,183.34c-0.69-0.56-1.38-1.03-2.06-1.51
		l13.64-19.1l5.51-0.17L301.11,183.34z M307.87,166.43l-10.02,14.07l-0.86-0.13c-0.08-0.04-0.17-0.09-0.21-0.13l11.23-16.52
		L307.87,166.43z M295.39,179.33c-0.95-0.6-1.89-1.2-2.84-1.72l8.05-13.21l5.55-1.03L295.39,179.33z M291.09,176.75
		c-0.69-0.39-1.42-0.77-2.15-1.12l5.89-10.97l1.08,4.09L291.09,176.75z M281.84,172.32c-0.56-0.26-1.12-0.47-1.72-0.65l2.75-9.16
		l4.73-3.74L281.84,172.32z M278.48,171.03c-0.47-0.17-0.9-0.34-1.38-0.43l2.92-10.58l1.12,2.07L278.48,171.03z M275.47,170.04
		c-0.95-0.34-1.89-0.6-2.84-0.86l2.28-8.35l3.87-2.93L275.47,170.04z M270.95,168.71c-0.95-0.22-1.85-0.43-2.8-0.65l3.66-18.71
		l3.18,4.47L270.95,168.71z M266.48,167.55l-1.51-0.3l2.88-17.17l2.49-2.32L266.48,167.55z M263.21,167.16
		c-0.78-0.13-1.59-0.26-2.37-0.34l2.8-26.2l3.49,3.31L263.21,167.16z M259.08,166.6c-0.39-0.04-0.73-0.09-1.08-0.09l2.67-25.64
		l1.33-1.25L259.08,166.6z M241.87,166.51c-0.34,0.04-0.73,0.09-1.08,0.13l-2.93-27.02l1.33,1.25L241.87,166.51z M239.03,166.9
		c-0.82,0.04-1.59,0.17-2.37,0.3l-3.92-23.28l3.49-3.31L239.03,166.9z M234.9,167.25l-1.51,0.3l-3.87-19.79l2.5,2.32L234.9,167.25z
		 M231.72,168.15c-0.9,0.22-1.85,0.43-2.75,0.65l-4.09-14.97l3.18-4.47L231.72,168.15z M224.96,160.83l2.28,8.48
		c-0.95,0.26-1.89,0.52-2.84,0.86l-3.31-12.26L224.96,160.83z M222.81,170.69c-0.47,0.13-0.95,0.3-1.38,0.47l-2.71-9.08l1.12-2.07
		L222.81,170.69z M219.76,171.81c-0.56,0.17-1.12,0.43-1.68,0.65l-5.81-13.68l4.73,3.74L219.76,171.81z M216.48,173.14
		c-1.33,0.56-2.67,1.16-3.96,1.85l-5.46-10.24l5.03,0.77v-2.67L216.48,173.14z M210.98,175.76c-0.73,0.39-1.42,0.73-2.07,1.16
		l-4.95-8.17l1.08-4.09L210.98,175.76z M207.41,177.74c-0.95,0.56-1.85,1.12-2.71,1.68l-10.97-16.05l5.55,1.03L207.41,177.74z
		 M203.19,180.32l-1.16,0.17L192,166.43l-0.13-2.71L203.19,180.32z M200.95,182c-0.69,0.43-1.38,0.95-2.07,1.51l-17.21-20.95
		l5.51,0.17L200.95,182z M196.95,183.89l-0.39,0.3l-16.69-18.41l-0.09-2.8L196.95,183.89z M195.79,185.96
		c-1.76,1.51-3.44,3.05-5.08,4.65c-1.64,1.63-3.23,3.36-4.73,5.12l-20.09-16.31l-2.37-7.18l2.71,4.69l0.17,0.26l0.26,0.17
		l20.18,11.83l2.71,1.03l-0.17-0.43l-0.52-0.3l-0.02-0.01l-7.48-13.06l5.13,7.78l-9.38-16.39l-0.17-0.26l-0.26-0.17l-4.82-2.88
		l6.63,2.41L195.79,185.96z M161.8,323.98l2.88-0.04l-7.1,19.79l0.09,0.04l-0.77,1.33l-1.76,3.05L155,348.2L161.8,323.98z
		 M178.63,334.3l0.26-0.17l0.17-0.3l11.27-20.48l0.17-1.03l-5.43,9.12l5.19-9.43l0.03-0.03l0.3-0.26l0.08-0.46l0-0.01l0,0v-0.01
		l-1.98,0.52l-19.45,11.87l-0.26,0.13l-0.13,0.3l-6.41,11.32l4.26-11.87l19.23-17.55c1.59,1.89,3.27,3.7,5.03,5.42l-0.39,0.34
		l-0.09,0.6l0.52-0.86c1.68,1.63,3.44,3.23,5.25,4.73l-16.44,20.44l-10.8,3.57L178.63,334.3z M197.56,317.35l0.09-0.09
		c0.3,0.26,0.6,0.52,0.9,0.73l-17.25,21.51l-0.04-1.85l16.35-20.26L197.56,317.35z M199.96,319.03c0.64,0.52,1.29,0.99,1.94,1.38
		l-13.94,19.7l-4.82-0.13L199.96,319.03z M202.85,322.09l1.29,0.86l-11.18,16.69l-0.13-3.4L202.85,322.09z M206.07,323.25
		c0.78,0.47,1.59,0.95,2.41,1.38l-8,14.03l-5.38,0.95L206.07,323.25z M210.03,325.48l0.04,0.04l2.45,1.55l-6.5,11.36l-0.65-4.82
		L210.03,325.48z M214.21,327.64c0.43,0.17,0.86,0.39,1.29,0.56l-4.82,8.99l-2.28,0.69L214.21,327.64z M216.87,329.36l1.68,0.65
		l-5.64,14.11l-0.73-6.02L216.87,329.36z M220.36,330.17c1.33,0.56,2.67,1.03,4.04,1.42l-3.62,12l-3.01-4.13l-1.89,1.89
		L220.36,330.17z M225.86,332.75l2.24,0.65l-2.28,9.51l-3.66,2.15L225.86,332.75z M229.95,333.19c1.03,0.26,2.02,0.52,3.06,0.73
		l-3.74,20.09l-3.23-4.65L229.95,333.19z M234.51,335.34l0.95,0.69l-2.8,17.04l-1.85,2.02L234.51,335.34z M243.72,335.38
		c2.11,0.17,4.26,0.26,6.41,0.26l-0.34,1.55l0.05-0.09l-0.21,0.77l0.08-0.38l-0.6,1.94l-5.94,21.98l-0.09,0.3l0.09,0.3l0.9,3.57
		l-1.55-3.27L243.72,335.38z M258.43,337.23l2.58,26.93l-1.89-2.02l-1.16-24.87L258.43,337.23z M260.07,335.04
		c0.86-0.09,1.68-0.17,2.54-0.34l3.83,24.39l-3.74,4.04L260.07,335.04z M264.41,336.02l0.95-0.69l3.7,19.75l-1.85-2.02
		L264.41,336.02z M266.86,333.96c1.03-0.17,2.02-0.43,3.05-0.69l3.92,16.09l-3.23,4.65L266.86,333.96z M271.77,333.4l2.24-0.65
		l3.7,12.3l-3.66-2.15L271.77,333.4z M275.51,331.72c1.38-0.43,2.71-0.86,4.04-1.42l4.43,11.06l-1.89-1.89l-3.01,4.13L275.51,331.72
		z M281.32,330l1.68-0.65l4.69,8.73l-0.73,6.02L281.32,330z M284.42,328.32c0.47-0.17,0.9-0.39,1.33-0.6l5.72,10.15l-2.28-0.69
		L284.42,328.32z M287.34,327.08l0.82-0.52c0.6-0.3,1.16-0.6,1.76-0.9l4.56,7.96l-0.64,4.82L287.34,327.08z M291.47,324.8
		c0.82-0.47,1.63-0.95,2.41-1.42l10.88,16.22l-5.38-0.95L291.47,324.8z M295.73,322.95l1.29-0.86l10.02,14.15l-0.13,3.4
		L295.73,322.95z M298.1,320.62c0.64-0.43,1.33-0.9,1.98-1.42l16.65,20.78l-4.82,0.13L298.1,320.62z M301.46,318.17
		c0.3-0.22,0.56-0.43,0.86-0.69l16.31,20.18l-0.04,1.85L301.46,318.17z M303.69,316.41c1.94-1.59,3.83-3.27,5.59-5.08v0.09
		l0.09,0.13l-0.04-0.18l1.55,2.82l-0.01-0.02l-1.51-2.62l0.47,1.94L321.12,334l0.13,0.26l0.3,0.17l9.47,5.85l-10.97-3.66
		L303.69,316.41z M343.23,345.23l-1.12-1.94l-6.93-19.36l2.97,0.04l6.71,23.92L343.23,345.23z M365.52,265.68l-21.64,18.89l1.12,6.8
		l-5.42,3.61l1.72,29h-2.02l0.04-1.55v-0.13h-0.04l-0.26-8.43l-2.8-2.02l2.84,0.13l0.09,0.09l-0.04-0.09l-0.3-1.76l-1.59-8.65
		l-3.83-2.32l4.35-1.16l-0.39-1.38l-0.78-5.12h6.2l1.29-0.26l0.6-0.17l-0.04-0.04l-5.25-6.71l3.87-2.11l1.59-0.82l-2.88-3.83
		l4.56,1.25l7.14-5.03l1.42-1.03l-2.32-2.5l3.96,0.69l5.12-5.46l1.2-1.29l-2.07-2.24l13.51-6.8l9.59-2.54l2.8-0.82l-22.41,11.14
		l0.04,0.09l-0.17,0.09L365.52,265.68z"/>
	<path class="st0" d="M238.6,284.78c-2.62,3.74-5.42,7.62-6.97,11.92c0.39-4.47,3.53-9.12,6.88-12.05
		c-0.56-0.77-0.73-1.55-0.82-2.15l-0.09-0.04l-0.56,0.69l-0.43,0.99l-0.3,0.69h-0.9l-0.13,1.25l-0.69,0.6l-0.73-0.04l-0.09,1.42
		l-1.08,1.25c0.86,1.16-1.33,2.32-1.33,2.32c-0.08,1.29-0.69,1.76-0.69,1.76l0.6,1.25c-1.34,3.44,0,6.02,0,6.02l1.59-2.93v-1.98h0.9
		l1.51-2.54l0.82,0.9l0.43-2.24l0.99,1.2l0.3-2.11l0.9,0.95l0.52-2.75l0.95,1.2l0.39-3.79l1.33,0.47v-0.47
		c-1.38-0.22-2.45-0.77-3.18-1.63C238.69,284.91,238.64,284.83,238.6,284.78z"/>
	<path class="st0" d="M222.08,259.4v-0.69c0-0.22,0-0.43,0.04-0.73v-0.17c0-0.26,0-0.52,0.04-0.86c0-0.3,0.04-0.56,0.09-0.86
		c0.04-0.86,0.13-1.68,0.26-2.45c0.51-2.88,1.25-5.12,1.68-6.24l-0.34-0.17l-1.29-2.5l-1.03-0.13l-0.17-1.38l-0.95-1.03l-0.86-1.03
		l-0.6,1.25l-0.82-1.94c0,0-1.42-3.31-1.33-2.32c0.09,0.95-1.12,1.63-1.12,1.63s-1.59-3.83-1.72-3.83c0.09,0.52-0.9,1.59-0.9,1.59
		s-1.81-4.43-2.11-3.31c-0.3,1.12-0.73,0.52-0.73,0.52s-2.41-4.78-2.41-3.05c0,1.72-0.73,1.2-0.73,1.2s-2.54-4.22-2.45-3.18
		c0.04,1.08-0.69,1.29-0.69,1.29l-2.02-2.5l-0.22,1.38l-0.82-0.17l-1.08-1.76l-1.16,0.04l-0.3-1.2l-1.29-0.22l-4.34-3.53l3.23,5.03
		l0.39,0.6l0.22,0.69l0.9,0.9l0.04,0.82l1.42,1.25l0.39,0.99l-0.9,0.47l2.32,2.07l-1.42,0.69l3.53,3.23l-0.73,0.82l3.18,2.28
		l-1.42,0.82c0,0,3.66,1.33,3.53,2.02c-0.17,0.69-1.12,0.65-1.12,0.65s-1.51-0.43,0.13,0.34c1.68,0.73,3.01,1.85,3.01,1.85
		l-0.99,0.77l1.72,0.73l0.17,1.51h2.02l-1.29,0.82l2.24,2.11h1.51l-0.95,1.2l3.14,0.73c0.21,0.86-0.99,1.38-0.99,1.38l3.53,0.95
		l-0.47,1.2l1.81,0.17l0.73,0.73l0.56,3.23l-1.16,0.56l-2.45-2.19l-0.39,1.2l-1.76-2.02l-0.56,1.03l-2.54-1.81
		c0,0-0.04,2.71-0.64,1.38c-0.6-1.38-2.93-1.81-2.93-1.81l-0.21,1.42l-2.41-1.59l-0.51,1.08l-2.41-1.72l-0.21,1.42l-2.62-1.42
		l-0.3,1.55l-2.93-1.55l-0.22,1.51l-2.32-1.2l0.09,1.51l-2.84-0.9v0.82l-0.73-0.39h-5.16c2.37,0.69,4.69,2.02,4.69,2.02v0.6h1.33
		v0.9h2.28l-1.16,1.2l3.1,0.73l-0.69,0.86l3.66,0.52l-0.52,1.42h2.84v1.63l2.93-0.34l-0.6,1.12l3.14-0.3l-0.52,1.42h4.05l-0.78,0.9
		l3.1,0.43l0.3,1.2l2.02-0.73l0.21,1.42l2.92-1.42l0.13,1.25l1.89-0.95l0.22,1.03l1.5-0.43l-0.17,1.25l4.35-0.65l0.39,1.42
		c0.86-0.26,1.51-0.26,1.98-0.22c-2.67-2.41-4.6-5.33-5.85-8.69C222.47,265.47,222.04,262.33,222.08,259.4z M198.98,230.36
		c0.21,0.17,0.47,0.34,0.69,0.52c0.17,0.13,0.34,0.22,0.47,0.39c-0.08-0.09-0.17-0.16-0.25-0.24c0.01,0.01,0.03,0.02,0.04,0.02
		c0.08,0.04,0.13,0.13,0.21,0.22c7.62,5.64,14.41,12.39,20.13,19.96c0.3,0.34,0.56,0.69,0.82,1.08
		C212.66,246.19,205.21,238.75,198.98,230.36z M194.54,262.76c0.13,0.04,0.26,0.04,0.43,0.09c0.13,0.04,0.3,0.04,0.43,0.13
		c7.62,1.55,17.38,4.65,25.38,7.01c0.26,0.09,0.52,0.17,0.78,0.26c0.82,0.26,1.59,0.47,2.37,0.69c0.09,0.04,0.17,0.04,0.26,0.09
		C213.82,271.36,203.49,267.88,194.54,262.76z"/>
	<path class="st0" d="M226.51,199.25l0.52,2.84h-0.73l1.03,3.79h-1.25l0.43,3.66l-0.82-0.52l1.42,4.73h-1.33l1.85,4.56h-1.85
		l1.76,4.22h-1.42l2.11,3.96l-1.42-0.22l0.69,1.72l0.3,1.59l1.25,1.89l-1.55,0.3l1.55,3.48l-0.43,1.33c0.04,0,0.04,0,0.09,0
		c0.13-0.47,0.47-1.29,1.29-1.89c1.25-0.9,3.14-1.12,5.64-0.56l-9.25-42.25L226.51,199.25z"/>
	<path class="st0" d="M230.55,235.39c-0.95,0.69-1.03,1.63-1.03,1.68l-0.04,0.39h-0.39c-0.26,0-0.56,0-0.78,0.04
		c-1.89,0.09-3.14,0.52-3.61,1.33c-0.56,0.86-0.13,1.85-0.13,1.85l0.26,0.56l-0.6,0.09c0,0-0.69,0.09-1.03,0.56
		c-0.21,0.3-0.3,0.69-0.26,1.16c0.09,0.47,0.26,0.77,0.56,0.99c0.56,0.43,1.42,0.3,1.42,0.3l0.73-0.09l-0.26,0.69
		c-0.22,0.69-0.26,1.2-0.04,1.51l0.04,0.04c0.21,0.26,0.69,0.26,0.69,0.26l0.56-0.04l-0.22,0.86l0.22,0.09
		c-0.09,0.13-4.69,10.45-1.08,20.05c2.07,5.46,6.41,9.68,12.99,12.61l1.55,0.82l-0.09,0.77c0,0.04-0.04,0.9,0.52,1.55
		c0.43,0.52,1.2,0.82,2.24,0.9l0.04,0.39v-0.39l0.13-13.34l-2.07-23.32c-0.17,0.17-0.47,0.13-0.95-0.17
		c-2.28-1.42,0.09-4.04,0.52-4.47c0.04-0.04,0.04-0.04,0.04-0.04l-0.39-4.09v-0.04l-0.04-0.04l-1.85-2.15
		c-0.6-0.69-0.39-1.85,0.47-2.24c0.26-0.13,0.56-0.22,0.95-0.26h0.04l-0.09-0.73c-0.73-0.3-1.38-0.3-1.89-0.09
		c-0.82,0.43-1.12,1.46-1.16,1.46l-0.09,0.43l-0.43-0.13c-0.04,0-0.13-0.04-0.17-0.04C233.48,234.49,231.63,234.62,230.55,235.39z
		 M227.93,238.66v-0.04c0.43-0.04,0.99-0.04,1.68,0c4.52,0.34,6.2,1.98,6.2,1.98h-8.52c-0.52,0-0.99-0.47-0.9-0.99
		C226.47,239.18,226.81,238.75,227.93,238.66z M225.22,243.35c-0.78-0.52-0.34-1.16,1.68-1.51c1.55-0.3,4-0.43,7.57-0.17
		c0,0-5.51,1.76-8.09,1.85C225.86,243.57,225.43,243.53,225.22,243.35z M227.46,245.85c-5.98-0.34,9.12-3.31,9.12-3.31
		S233.44,246.19,227.46,245.85z M238,245.03v0.04c-0.82,1.08-2.24,2.15-4.69,2.41c-4.13,0.47,1.55-2.75,4.3-4.22
		c0.82-0.43,1.38-0.73,1.38-0.73S238.9,243.78,238,245.03z M234.43,236c0.69,0.04,1.29,0.34,1.76,0.86l0.04,0.04l2.75,3.01
		l-2.24-0.56l-4.86-1.2c-0.43-0.13-0.82-0.39-1.03-0.77C230.17,236,232.83,235.91,234.43,236z"/>
	<path class="st0" d="M270.22,234.71c0.86,0.6,1.16,1.42,1.29,1.89c0.04,0,0.04,0,0.09,0l-0.43-1.33l1.59-3.48l-1.59-0.3l1.29-1.89
		l0.3-1.59l0.64-1.72l-1.42,0.22l2.11-3.96h-1.42l1.81-4.22h-1.89l1.89-4.56h-1.38l1.42-4.73l-0.82,0.52l0.47-3.66h-1.29l1.03-3.79
		h-0.73l0.52-2.84l0.17-7.36l-9.29,42.25C267.08,233.59,268.97,233.8,270.22,234.71z"/>
	<path class="st0" d="M262.39,282.2c-0.13,0.09-0.3,0.13-0.43,0.22l-0.22,0.09c-0.04,0.69-0.3,1.59-0.99,2.45
		c-0.6,0.69-1.42,1.2-2.45,1.46v0.65l1.33-0.47l0.39,3.79l0.99-1.2l0.52,2.75l0.9-0.95l0.3,2.11l0.95-1.2l0.47,2.24l0.82-0.9
		l1.51,2.54h0.86v1.98l1.59,2.93c0,0,1.33-2.58,0-6.02l0.6-1.25c0,0-0.6-0.47-0.69-1.76c0,0-2.15-1.16-1.33-2.32l-1.03-1.25
		l-0.09-1.42l-0.78,0.04l-0.64-0.6l-0.17-1.25h-0.9l-0.3-0.69l-0.43-0.99L262.39,282.2z M268.63,296.7
		c-1.68-4.52-4.65-8.52-7.36-12.43C264.8,287.19,268.24,292.01,268.63,296.7z"/>
	<path class="st0" d="M275.99,241.33l-0.6-0.09l0.26-0.56c0,0,0.43-0.99-0.09-1.85c-0.51-0.82-1.76-1.25-3.66-1.33
		c-0.21-0.04-0.47-0.04-0.73-0.04h-0.43v-0.43c0,0-0.13-0.95-1.03-1.63c-1.08-0.73-2.92-0.9-5.29-0.3c-0.04,0-0.13,0.04-0.21,0.04
		l-0.43,0.13l-0.09-0.43c0,0-0.3-1.03-1.16-1.46c-0.52-0.22-1.12-0.22-1.85,0.09l-0.09,0.73c0.39,0.04,0.69,0.13,0.95,0.26
		c0.9,0.39,1.12,1.55,0.47,2.24l-1.85,2.19v0.04l-0.43,4.09c0.39,0.43,2.88,3.1,0.6,4.52c-0.52,0.34-0.86,0.34-1.03,0.09l-2.28,23.4
		l0.17,11.49v0.09l0.04,1.72c0.78-0.17,1.33-0.43,1.68-0.86c0.47-0.52,0.51-1.12,0.51-1.38c0-0.09,0-0.13,0-0.13l-0.09-0.82
		l1.64-0.86c6.5-2.88,10.84-7.1,12.91-12.56c3.61-9.59-0.99-19.92-1.03-20.05l0.86-0.39l-0.13-0.56l0.6,0.04c0,0,0.47,0,0.69-0.3
		c0.21-0.3,0.21-0.82-0.04-1.51l-0.26-0.69l0.73,0.09c0,0,0.86,0.13,1.46-0.3c0.3-0.22,0.47-0.52,0.51-0.99
		c0.09-0.47,0-0.86-0.21-1.16C276.68,241.42,275.99,241.33,275.99,241.33z M270.65,238.62c0.69-0.04,1.2-0.04,1.63,0
		c1.12,0.13,1.46,0.56,1.55,0.99c0.09,0.52-0.34,0.99-0.9,0.99h-8.47C264.46,240.6,266.09,238.96,270.65,238.62z M263.98,236.94
		l0.09-0.09c0.43-0.52,1.08-0.82,1.72-0.86c1.59-0.09,4.26,0,3.57,1.38c-0.21,0.39-0.6,0.65-1.03,0.77l-4.86,1.2l-2.19,0.56
		L263.98,236.94z M266.91,247.48c-2.54-0.26-3.96-1.38-4.69-2.5c-0.86-1.25-0.95-2.45-0.95-2.45s0.56,0.26,1.33,0.69
		C265.36,244.69,271.04,247.96,266.91,247.48z M272.76,245.85c-5.98,0.34-9.12-3.31-9.12-3.31S278.74,245.5,272.76,245.85z
		 M275,243.35c-0.21,0.13-0.6,0.22-1.12,0.17c-2.58-0.04-8.13-1.85-8.13-1.85c3.57-0.26,6.02-0.13,7.57,0.17
		C275.34,242.19,275.77,242.84,275,243.35z"/>
	<path class="st0" d="M317.2,250.88c0-37.17-30.03-67.29-67.07-67.29c-37.09,0-67.12,30.12-67.12,67.29
		c0,35.02,26.67,63.8,60.79,66.99l6.2,14.71l6.2-14.71C290.4,314.81,317.2,285.99,317.2,250.88z M247.81,194.95l0.04-0.04
		c0.39-0.43,0.95-0.95,1.21-1.2c0.34-0.39,1.25-1.33,1.59-1.68c0.47,0.09,0.86,0.13,1.38,0.26c0.17,0.56,0.21,0.95,0.3,1.42
		c-0.34,0.34-1.25,1.25-1.59,1.63c0,0-0.04,0-0.04,0.04c-0.17,0.13-0.39,0.39-0.64,0.65c-0.39,0.34-0.73,0.73-0.95,0.95
		c-0.47-0.09-0.86-0.09-1.38-0.26c-0.17-0.52-0.22-0.9-0.3-1.38C247.5,195.25,247.63,195.12,247.81,194.95z M249.05,198.52
		c0.34-0.34,1.25-1.29,1.59-1.68c0.47,0.13,0.86,0.13,1.38,0.3c0.17,0.52,0.21,0.95,0.3,1.38c-0.34,0.34-1.25,1.29-1.59,1.68
		c-0.39,0.34-1.29,1.29-1.63,1.63c-0.47-0.09-0.86-0.13-1.38-0.26c-0.17-0.52-0.22-0.95-0.3-1.38
		C247.76,199.81,248.67,198.91,249.05,198.52z M249.05,203.38c0.34-0.39,1.25-1.33,1.59-1.68c0.47,0.09,0.86,0.13,1.38,0.3
		c0.17,0.52,0.21,0.9,0.3,1.38c-0.34,0.34-1.25,1.29-1.59,1.63c-0.39,0.34-1.29,1.33-1.63,1.68c-0.47-0.13-0.86-0.13-1.38-0.3
		c-0.17-0.52-0.22-0.9-0.3-1.38C247.76,204.68,248.67,203.73,249.05,203.38z M249.05,208.2c0.34-0.34,1.25-1.29,1.59-1.63
		c0.47,0.09,0.86,0.09,1.38,0.26c0.17,0.56,0.21,0.95,0.3,1.38c-0.34,0.34-1.25,1.29-1.59,1.68l-1.63,1.63
		c-0.47-0.09-0.86-0.13-1.38-0.26c-0.17-0.52-0.22-0.9-0.3-1.38C247.76,209.54,248.67,208.59,249.05,208.2z M250,215.6l3.27,3.7
		h-6.33L250,215.6z M250.13,326h-0.3l-0.13-7.83v-2.62l-1.33-93.53h3.23l-1.33,93.53v2.62L250.13,326z M291.35,300.57
		c-0.13-0.69-0.39-1.46-0.95-2.24l0.13-0.9l-1.03-1.29l0.17-0.82l-2.11-1.81l0.39-1.12l-1.72-1.12l0.52-0.77l-1.2-0.95l-0.52,0.3
		l-0.22-1.59l-1.5-0.39l0.3-1.12l-0.6-0.69l-0.99-0.04l-0.73-0.17v-1.12l-1.33-1.03l-0.39-0.99l-1.63,0.13l-0.26-1.46l-1.85,0.34
		l-0.09-0.9h-1.2l-0.39-0.43h-0.95l0.95-1.12c0,0-3.66,0.52-4.52-1.08c0,0,0.3-1.55,3.14-0.73l0.34-1.42l4.34,0.65l-0.13-1.25
		l1.46,0.43l0.26-1.03l1.85,0.95l0.17-1.25l2.88,1.42l0.26-1.42l2.02,0.73l0.3-1.2l3.05-0.43l-0.78-0.9h4.04l-0.52-1.42l3.14,0.3
		l-0.6-1.12l2.93,0.34v-1.63h2.84l-0.51-1.42l3.66-0.52l-0.64-0.86l3.05-0.73l-1.12-1.2h2.24v-0.9h1.33v-0.6
		c0,0,2.32-1.33,4.73-2.02h-5.16l-0.78,0.39v-0.82l-2.84,0.9l0.09-1.51l-2.32,1.2l-0.21-1.51l-2.93,1.55l-0.3-1.55l-2.62,1.42
		l-0.22-1.42l-2.41,1.72l-0.52-1.08l-2.37,1.59l-0.26-1.42c0,0-2.28,0.43-2.88,1.81c-0.6,1.33-0.69-1.38-0.69-1.38l-2.54,1.81
		l-0.52-1.03l-1.81,2.02l-0.39-1.2l-2.45,2.19l-1.12-0.56l0.52-3.23l0.73-0.73l1.81-0.17l-0.43-1.2l3.48-0.95
		c0,0-1.16-0.52-0.95-1.38l3.14-0.73l-0.99-1.2h1.5l2.24-2.11l-1.25-0.82h2.02l0.13-1.51l1.72-0.73l-0.99-0.77
		c0,0,1.38-1.12,3.01-1.85c1.64-0.77,0.13-0.34,0.13-0.34s-0.95,0.04-1.12-0.65c-0.13-0.69,3.53-2.02,3.53-2.02l-1.42-0.82
		l3.23-2.28l-0.78-0.82l3.53-3.23l-1.42-0.69l2.32-2.07l-0.91-0.47l0.39-0.99l1.42-1.25l0.09-0.82l0.86-0.9l0.26-0.69l0.34-0.6
		l3.23-5.03l-4.34,3.53l-1.25,0.22l-0.3,1.2l-1.2-0.04l-1.03,1.76l-0.86,0.17l-0.22-1.38l-2.02,2.5c0,0-0.73-0.22-0.64-1.29
		c0.04-1.03-2.5,3.18-2.5,3.18s-0.73,0.52-0.73-1.2c0-1.72-2.41,3.05-2.41,3.05s-0.43,0.6-0.73-0.52c-0.3-1.12-2.11,3.31-2.11,3.31
		s-0.9-1.03-0.9-1.55c-0.13,0-1.72,3.79-1.72,3.79s-1.21-0.69-1.12-1.63c0.09-0.99-1.33,2.32-1.33,2.32l-0.82,1.94l-0.6-1.25
		l-0.82,1.03l-0.99,1.03l-0.13,1.38l-1.08,0.13l-1.25,2.5l-1.03,0.56c0.3,0.73,0.69,1.81,1.03,3.1c0,0.04,0.04,0.04,0.04,0.04
		c1.98,4.47,1.72,8.26,1.68,8.43c-0.34,9.98-5.03,15.62-8.86,18.59h-0.04c-1.72,1.46-3.66,2.71-5.89,3.79l0.43,0.09l0.09,1.03
		l1.03-0.3l1.42,1.38l0.43,1.12l0.69,0.69l0.6-1.51l1.51,2.93l1.42-0.77l0.43,0.77h0.9v0.82l0.9,0.22v0.99h1.59l0.34,1.85l1.21-0.43
		v1.33l0.82-0.43v0.73l0.99-0.34v0.9l1.03-0.17l0.39,1.08l0.43-0.69l0.51,1.51h1.51l0.3,1.55l1.12-0.22l1.08,1.89l0.56-1.08
		l0.9,1.42l0.47,0.9l0.95-0.65l0.69,1.81l0.82-0.86l1.59,1.98c-4.65,3.79-9.77,6.84-15.27,9.21c-5.72,2.45-11.7,4-17.86,4.69
		l0.22-0.56l-0.99-27.88l-0.04-1.2l-0.04-1.12l-0.26-6.75l-1.94-54.51l2.75-3.05h4.17c0.64,0.73,1.59,1.16,2.62,1.16
		c1.89,0,3.44-1.55,3.44-3.44c0-1.94-1.55-3.48-3.44-3.48h-8.86l-1.08-1.12l0.26-20.52c-0.13-2.19-1.94-3.96-4.17-3.96
		s-4.09,1.76-4.22,4v0.26l0.3,20.22l-1.08,1.12h-8.86c-1.89,0-3.44,1.55-3.44,3.48c0,1.89,1.55,3.44,3.44,3.44
		c1.03,0,1.98-0.43,2.62-1.16h4.17l2.75,3.05l-1.68,46.94l-0.56,15.49l-1.03,29.04l0.21,0.52c-6.07-0.69-11.96-2.24-17.64-4.65
		c-5.51-2.37-10.63-5.42-15.27-9.21l1.59-1.98l0.82,0.86l0.69-1.81l0.99,0.65l0.43-0.9l0.91-1.42l0.6,1.08l1.03-1.89l1.12,0.22
		l0.3-1.55h1.5l0.52-1.51l0.43,0.69l0.39-1.08l1.08,0.17v-0.9l0.95,0.34v-0.73l0.82,0.43v-1.33l1.2,0.43l0.39-1.85h1.55v-0.99
		l0.9-0.22v-0.82h0.9l0.43-0.77l1.42,0.77l1.51-2.93l0.6,1.51l0.69-0.69l0.43-1.12l1.42-1.38l1.08,0.3l0.04-0.95
		c-0.86-0.39-1.72-0.82-2.5-1.33c0.04-0.04,0.09-0.04,0.13-0.09c-0.04,0-0.13,0.04-0.17,0.04c-0.09,0-0.13-0.04-0.22-0.13
		c0,0,0,0-0.04,0c-0.17,0.17-0.34,0.3-0.52,0.43c-0.17,0.17-0.34,0.3-0.52,0.43c-3.18,2.62-6.58,4.95-9.98,7.36
		c-3.18,2.37-8.22,5.16-10.54,8.48c0.13-0.3,0.22-0.6,0.39-0.9c0-0.04,0-0.09,0.04-0.13c3.53-7.92,13.47-12.69,21.12-15.66
		c-1.12-0.65-2.11-1.38-3.05-2.15c-0.95,1.55-4.52,1.03-4.52,1.03l0.95,1.12h-0.95l-0.39,0.43h-1.2l-0.09,0.9l-1.85-0.34l-0.21,1.46
		l-1.68-0.13l-0.34,0.99l-1.38,1.03v1.12l-0.73,0.17l-0.95,0.04l-0.6,0.69l0.3,1.12l-1.51,0.39l-0.22,1.59l-0.56-0.3l-1.16,0.95
		l1.08,0.39l-2.28,1.51l0.34,1.12l-2.07,1.81l0.13,0.82l-1.03,1.29l0.13,0.9c-0.56,0.77-0.82,1.55-0.95,2.24
		c-1.51-1.25-2.97-2.58-4.34-3.96c-5.89-5.94-10.54-12.86-13.81-20.56c-3.36-7.96-5.08-16.43-5.08-25.17
		c0-8.73,1.72-17.21,5.08-25.17c3.27-7.7,7.92-14.63,13.81-20.57c5.94-5.94,12.82-10.58,20.48-13.85
		c7.96-3.36,16.39-5.08,25.13-5.08c8.69,0,17.12,1.72,25.08,5.08c7.66,3.27,14.54,7.92,20.48,13.85s10.58,12.86,13.81,20.57
		c3.36,7.96,5.08,16.43,5.08,25.17c0,8.73-1.72,17.21-5.08,25.17c-3.23,7.7-7.87,14.63-13.81,20.56
		C294.32,297.99,292.85,299.33,291.35,300.57z M266.74,280.7c0.78,0.26,1.63,0.56,2.45,0.9c7.06,2.93,15.14,7.4,18.37,14.24
		c0.04,0.09,0.09,0.17,0.09,0.26c0.17,0.39,0.34,0.73,0.47,1.12c-2.32-3.31-7.36-6.11-10.54-8.48c-3.57-2.54-7.18-4.99-10.54-7.79
		C266.91,280.87,266.82,280.78,266.74,280.7z M304.85,262.93c-0.26,0.17-0.52,0.3-0.77,0.43c-8.56,4.78-18.42,7.92-28.27,7.66h-0.21
		c8.69-2.54,20.87-6.5,29.6-8.26C305.07,262.8,304.98,262.89,304.85,262.93z M279.52,251.66c-0.3,0.26-0.65,0.52-0.95,0.73
		c6.24-8.43,13.72-15.88,22.2-22.03c-0.22,0.26-0.43,0.56-0.6,0.82c-0.21,0.3-0.43,0.56-0.64,0.82
		c-5.25,6.88-11.4,13.04-18.24,18.37C280.72,250.8,280.12,251.27,279.52,251.66z M261.75,217.8c0-1.16,0.95-2.11,2.11-2.11
		c1.2,0,2.11,0.95,2.11,2.11c0,1.16-0.9,2.11-2.11,2.11C262.69,219.91,261.75,218.96,261.75,217.8z M238.39,217.8
		c0,1.16-0.95,2.11-2.11,2.11s-2.11-0.95-2.11-2.11c0-1.16,0.95-2.11,2.11-2.11S238.39,216.64,238.39,217.8z"/>
	<polygon class="st0" points="250.52,163.98 250.13,165.05 249.83,164.45 250.13,165.74 	"/>
	<polygon class="st0" points="188.43,187.6 189.38,189.79 190.72,190.61 186.5,184.2 	"/>
	<path class="st0" d="M238.94,284.27c-0.13,0.13-0.3,0.26-0.43,0.39c0,0.04,0.04,0.09,0.09,0.13
		C238.69,284.61,238.82,284.44,238.94,284.27z"/>
	<polygon class="st0" points="242.95,286.03 242.95,285.6 242.9,285.6 	"/>
	<path class="st0" d="M234.73,319.68c-0.56-0.6-1.29-0.99-2.15-1.2c-0.56-0.13-1.08-0.17-1.59-0.13c-0.52,0.04-1.03,0.17-1.51,0.39
		c-0.09,0.04-0.13,0.09-0.13,0.13c0,0.09,0,0.13,0.04,0.22l0.43,1.08c0.04,0.09,0.09,0.13,0.17,0.17c0.04,0,0.13,0,0.17-0.04
		c0.34-0.13,0.69-0.22,0.99-0.26c0.34,0,0.64,0,0.99,0.09c0.52,0.13,0.95,0.39,1.33,0.77c0.39,0.34,0.64,0.82,0.77,1.33
		c0.17,0.52,0.17,1.03,0.04,1.59s-0.39,1.03-0.78,1.42c-0.39,0.39-0.82,0.65-1.29,0.82c-0.52,0.13-1.03,0.13-1.55,0.04
		c-0.3-0.09-0.6-0.22-0.9-0.43c-0.26-0.17-0.52-0.39-0.78-0.65c-0.04-0.04-0.09-0.09-0.13-0.09c-0.04-0.04-0.13,0-0.21,0.04
		l-0.9,0.77c-0.09,0.04-0.13,0.09-0.13,0.13c0,0.09,0,0.13,0.09,0.22c0.3,0.39,0.69,0.73,1.12,1.03c0.43,0.26,0.9,0.47,1.46,0.6
		c0.86,0.22,1.68,0.22,2.45-0.04c0.82-0.22,1.5-0.65,2.11-1.25c0.56-0.6,0.95-1.33,1.16-2.19c0.22-0.86,0.22-1.68,0-2.5
		C235.76,320.92,235.33,320.24,234.73,319.68z"/>
	<path class="st0" d="M228.4,319.25c0.04,0.04,0.13,0.04,0.22,0.04c0.04-0.04,0.09-0.09,0.13-0.17l0.39-1.03
		c0.04-0.13,0.04-0.26-0.13-0.34c-0.17-0.13-0.34-0.22-0.52-0.26c-0.82-0.34-1.59-0.26-2.24,0.22c-0.64,0.52-1.2,1.2-1.72,2.15
		c-0.47,0.9-1.03,2.15-1.59,3.66l-3.05-1.2l2.67-6.8c0.09-0.17,0.04-0.26-0.13-0.34l-1.2-0.47c-0.13-0.04-0.26,0-0.34,0.17
		l-3.18,8.09c-0.04,0.13,0,0.26,0.17,0.34l5.76,2.24c0.09,0.04,0.17,0.04,0.21,0c0.04,0,0.09-0.04,0.13-0.13
		c0.64-1.68,1.2-2.97,1.63-3.87c0.39-0.9,0.82-1.59,1.21-2.02c0.43-0.43,0.82-0.56,1.25-0.43
		C228.19,319.16,228.32,319.2,228.4,319.25z"/>
	<path class="st0" d="M218.34,314.86c0.04,0,0.04,0.04,0.09,0.04c0.09,0.04,0.21,0.04,0.3-0.09l0.52-0.77
		c0.09-0.13,0.04-0.22-0.04-0.34c-0.17-0.13-0.3-0.26-0.43-0.34c-0.17-0.13-0.3-0.22-0.47-0.3c-0.39-0.22-0.77-0.26-1.16-0.17
		c-0.39,0.09-0.86,0.3-1.38,0.69l-6.63,4.73c-0.04,0.04-0.09,0.09-0.09,0.13c-0.04,0.04-0.04,0.09,0,0.13
		c0,0.04,0.04,0.09,0.13,0.13l1.16,0.65c0.13,0.04,0.21,0.04,0.34-0.04l3.74-2.84l-0.39,4.69c0,0.09,0,0.13,0.04,0.17
		c0.04,0.09,0.08,0.13,0.13,0.13l1.16,0.65c0.09,0.04,0.13,0.04,0.17,0.04c0.04,0,0.09-0.04,0.13-0.09c0,0,0.04-0.04,0.04-0.13
		l0.39-6.8l0.56-0.39c0.17-0.17,0.39-0.26,0.6-0.3c0.21-0.04,0.43,0,0.6,0.09C218.04,314.6,218.21,314.73,218.34,314.86z"/>
	<path class="st0" d="M213.04,310.6c0,0,0-0.04,0-0.13c0-0.04-0.04-0.09-0.09-0.13l-1.16-0.82c-0.09-0.09-0.21-0.13-0.34-0.04
		l-3.83,1.94l-0.73-0.56l2.24-3.01c0.13-0.13,0.09-0.26-0.04-0.39l-1.03-0.73c-0.13-0.13-0.26-0.09-0.34,0.04l-2.24,3.01l-0.73-0.52
		l0.73-4.26c0.04-0.13-0.04-0.26-0.13-0.34l-1.12-0.82c-0.09-0.04-0.13-0.09-0.17-0.09c-0.04,0-0.09,0.04-0.13,0.09
		c-0.04,0.04-0.04,0.09-0.04,0.13l-0.69,5.12l-4.34,1.85c-0.09,0-0.13,0.04-0.13,0.09c-0.04,0.04-0.04,0.09-0.04,0.13
		c0.04,0.04,0.04,0.09,0.13,0.13l1.12,0.86c0.08,0.04,0.21,0.09,0.34,0l3.57-1.68l0.69,0.56l-2.02,2.71
		c-0.09,0.13-0.09,0.26,0.04,0.34l1.03,0.77c0.13,0.09,0.26,0.09,0.34-0.04l2.07-2.71l0.69,0.52l-0.6,3.87
		c0,0.13,0.04,0.26,0.17,0.34l1.12,0.82c0.04,0.04,0.09,0.09,0.13,0.09c0.09,0,0.13-0.04,0.13-0.09c0.04-0.04,0.04-0.09,0.04-0.13
		l0.56-4.73l4.69-2.07C212.96,310.68,213,310.64,213.04,310.6z"/>
	<path class="st0" d="M203.06,302.6l-2.32-2.32c-0.43-0.43-0.91-0.69-1.38-0.86c-0.47-0.17-0.99-0.17-1.46-0.04
		c-0.47,0.13-0.9,0.39-1.29,0.77c-0.39,0.39-0.64,0.82-0.73,1.29c-0.13,0.43-0.08,0.9,0.09,1.38c0.17,0.47,0.47,0.9,0.91,1.33
		l1.42,1.42l-1.55,1.55l-2.71-2.62c-0.13-0.13-0.22-0.13-0.34,0l-0.73,0.69c-0.13,0.13-0.13,0.26,0,0.39l3.66,3.57
		c0.13,0.13,0.22,0.13,0.34,0l6.11-6.15C203.19,302.85,203.19,302.72,203.06,302.6z M199.19,304.66l-1.38-1.42
		c-0.17-0.17-0.3-0.34-0.39-0.56c-0.09-0.22-0.13-0.47-0.09-0.73c0.09-0.22,0.21-0.43,0.39-0.65c0.34-0.34,0.64-0.47,0.99-0.47
		c0.34,0.04,0.64,0.22,0.99,0.52l1.38,1.38L199.19,304.66z"/>
	<path class="st0" d="M198.11,297.99c0.04-0.04,0.09-0.09,0.09-0.13c0-0.04-0.04-0.13-0.09-0.17l-0.77-0.99
		c-0.09-0.13-0.22-0.17-0.34-0.13l-1.59,0.52l-2.37-2.97l0.86-1.42c0.09-0.13,0.04-0.26-0.04-0.34l-0.78-1.03
		c-0.04-0.04-0.09-0.09-0.17-0.09c-0.04-0.04-0.09,0-0.13,0.04c-0.04,0-0.04,0.04-0.09,0.09l-4.69,8.09
		c-0.08,0.13-0.08,0.26,0.04,0.34l0.69,0.9c0.09,0.13,0.21,0.13,0.34,0.09l8.95-2.75C198.07,298.04,198.11,298.04,198.11,297.99z
		 M190.33,298.81l-0.3,0.13l0.22-0.26l1.93-3.18l1.72,2.15L190.33,298.81z"/>
	<path class="st0" d="M190.46,287.28l-0.6-1.12c-0.09-0.17-0.21-0.17-0.39-0.09l-6.54,3.48l-1.98-3.7l6.54-3.53
		c0.17-0.09,0.17-0.17,0.09-0.34l-0.56-1.12c-0.09-0.17-0.22-0.17-0.39-0.09l-7.66,4.09c-0.13,0.09-0.17,0.22-0.09,0.34l3.44,6.41
		c0.09,0.17,0.22,0.22,0.34,0.13l7.66-4.13C190.5,287.54,190.54,287.41,190.46,287.28z"/>
	<path class="st0" d="M181.89,280.91c0.82-0.3,1.51-0.77,2.02-1.42c0.56-0.65,0.9-1.38,1.03-2.19c0.17-0.82,0.09-1.63-0.21-2.5
		c-0.3-0.82-0.77-1.51-1.42-2.02c-0.64-0.56-1.38-0.9-2.19-1.03c-0.82-0.13-1.68-0.09-2.5,0.22c-0.82,0.3-1.51,0.77-2.02,1.42
		c-0.56,0.65-0.9,1.38-1.03,2.19c-0.17,0.86-0.09,1.68,0.21,2.5c0.3,0.82,0.78,1.51,1.42,2.07c0.64,0.52,1.38,0.86,2.19,0.99
		C180.22,281.3,181.03,281.21,181.89,280.91z M177.38,277.47c-0.17-0.47-0.21-0.99-0.13-1.51c0.13-0.52,0.34-0.99,0.69-1.38
		c0.34-0.43,0.78-0.73,1.33-0.9c0.52-0.22,1.03-0.26,1.59-0.17c0.52,0.09,0.99,0.3,1.38,0.65c0.43,0.34,0.73,0.73,0.9,1.25
		c0.17,0.47,0.22,0.99,0.13,1.51c-0.13,0.52-0.34,0.99-0.69,1.42c-0.34,0.39-0.77,0.69-1.29,0.9c-0.56,0.17-1.08,0.22-1.63,0.13
		c-0.52-0.09-0.99-0.3-1.38-0.65C177.85,278.42,177.55,277.99,177.38,277.47z"/>
	<path class="st0" d="M181.89,265.6l-0.56-3.27c-0.13-0.6-0.3-1.08-0.6-1.51c-0.3-0.39-0.69-0.69-1.16-0.86
		c-0.47-0.17-0.99-0.22-1.55-0.13c-0.51,0.09-0.99,0.3-1.33,0.6c-0.34,0.3-0.6,0.69-0.73,1.2c-0.13,0.47-0.13,0.99-0.04,1.59
		l0.34,1.98l-2.2,0.34l-0.6-3.7c-0.04-0.17-0.13-0.26-0.3-0.22l-0.99,0.17c-0.17,0.04-0.26,0.13-0.21,0.3l0.86,5.03
		c0,0.17,0.13,0.26,0.3,0.22l8.56-1.46C181.85,265.85,181.89,265.77,181.89,265.6z M177.55,264.99l-0.34-1.94
		c-0.04-0.26-0.04-0.47,0.04-0.73c0.04-0.22,0.17-0.39,0.34-0.56c0.17-0.17,0.43-0.3,0.73-0.34c0.43-0.09,0.78,0,1.03,0.22
		c0.26,0.17,0.43,0.52,0.52,0.95l0.3,1.94L177.55,264.99z"/>
	<path class="st0" d="M173.63,258.15c0.73,0.39,1.51,0.56,2.41,0.52c0.86-0.04,1.68-0.26,2.37-0.73c0.73-0.43,1.29-1.03,1.68-1.76
		c0.39-0.73,0.56-1.55,0.52-2.45c0-0.86-0.26-1.63-0.73-2.37c-0.43-0.69-1.03-1.25-1.76-1.63c-0.77-0.39-1.59-0.56-2.45-0.56
		c-0.86,0.04-1.68,0.3-2.37,0.73c-0.73,0.47-1.25,1.03-1.68,1.81c-0.39,0.73-0.56,1.55-0.52,2.41c0.04,0.9,0.26,1.68,0.73,2.37
		C172.26,257.21,172.86,257.77,173.63,258.15z M173.16,252.56c0.21-0.47,0.6-0.82,1.03-1.12c0.47-0.3,0.99-0.43,1.55-0.47
		c0.56,0,1.08,0.09,1.55,0.34s0.86,0.6,1.16,1.03c0.3,0.43,0.43,0.95,0.47,1.46c0,0.52-0.09,1.03-0.34,1.46
		c-0.26,0.47-0.6,0.86-1.08,1.16c-0.47,0.26-0.99,0.43-1.55,0.43c-0.56,0.04-1.08-0.09-1.55-0.34c-0.47-0.22-0.86-0.56-1.16-1.03
		c-0.26-0.43-0.43-0.9-0.43-1.42C172.77,253.51,172.9,253.03,173.16,252.56z"/>
	<path class="st0" d="M180.17,247.48c0.17,0.04,0.26-0.04,0.26-0.22l0.13-1.25c0-0.17-0.09-0.26-0.26-0.3l-2.75-0.26l0.13-1.76
		c0.09-0.69,0-1.25-0.21-1.76c-0.22-0.47-0.56-0.9-0.99-1.2c-0.43-0.26-0.99-0.47-1.59-0.52c-0.6-0.04-1.12,0.04-1.59,0.26
		c-0.47,0.22-0.9,0.56-1.16,1.03c-0.3,0.43-0.52,0.99-0.56,1.63l-0.3,3.31c0,0.17,0.09,0.26,0.26,0.26L180.17,247.48z M173.16,243.4
		c0.04-0.3,0.13-0.56,0.26-0.77c0.13-0.22,0.3-0.39,0.56-0.52c0.21-0.09,0.47-0.13,0.73-0.13c0.3,0.04,0.56,0.13,0.78,0.3
		c0.21,0.13,0.39,0.34,0.47,0.56c0.09,0.26,0.13,0.52,0.13,0.86l-0.17,1.63l-2.88-0.26L173.16,243.4z"/>
	<path class="st0" d="M180.99,239.57c0.17,0.04,0.26,0,0.3-0.17l0.64-3.23c0.13-0.6,0.13-1.16-0.04-1.68
		c-0.13-0.56-0.39-0.99-0.82-1.33c-0.39-0.39-0.86-0.6-1.42-0.73c-0.56-0.09-1.08-0.09-1.59,0.09c-0.52,0.17-0.95,0.43-1.29,0.86
		c-0.34,0.43-0.6,0.95-0.73,1.55l-0.34,1.72l-2.84-0.56c-0.17-0.04-0.3,0-0.34,0.17l-0.26,1.25c0,0.17,0.04,0.3,0.21,0.3
		L180.99,239.57z M177.55,235.44c0.09-0.26,0.17-0.52,0.34-0.73c0.17-0.17,0.39-0.34,0.64-0.43c0.26-0.09,0.47-0.09,0.73-0.04
		c0.3,0.04,0.52,0.17,0.69,0.34c0.21,0.17,0.34,0.39,0.39,0.65c0.09,0.26,0.09,0.52,0.04,0.82l-0.34,1.51l-2.8-0.56L177.55,235.44z"
		/>
	<path class="st0" d="M182.76,231.61c0.17,0.04,0.3,0,0.34-0.17l1.03-3.18c0.22-0.56,0.26-1.08,0.17-1.59
		c-0.09-0.52-0.26-0.95-0.6-1.29c-0.3-0.39-0.73-0.69-1.29-0.86c-0.52-0.17-0.99-0.17-1.46-0.09c-0.47,0.13-0.86,0.34-1.21,0.69
		c-0.34,0.39-0.6,0.86-0.77,1.42l-0.65,1.89l-2.11-0.69l1.2-3.57c0.04-0.17,0-0.3-0.17-0.34l-0.95-0.3c-0.17-0.09-0.3,0-0.34,0.13
		l-1.59,4.86c-0.08,0.17,0,0.3,0.17,0.34L182.76,231.61z M180.17,226.96c0.09-0.22,0.17-0.43,0.34-0.6c0.17-0.17,0.39-0.3,0.6-0.34
		c0.26-0.09,0.52-0.04,0.77,0.04c0.43,0.13,0.73,0.39,0.86,0.69c0.13,0.3,0.13,0.65-0.04,1.08l-0.6,1.85l-2.58-0.82L180.17,226.96z"
		/>
	<path class="st0" d="M185.38,224.04c0.17,0.09,0.3,0.04,0.34-0.13l2.58-5.55c0.09-0.17,0.04-0.26-0.09-0.34l-1.03-0.47
		c-0.17-0.09-0.26-0.04-0.34,0.13l-1.94,4.17l-2.07-0.95l1.51-3.23c0.09-0.17,0.04-0.26-0.13-0.34l-0.95-0.43
		c-0.13-0.09-0.26-0.04-0.34,0.13l-1.51,3.23l-1.89-0.9l1.89-4.09c0.09-0.17,0.04-0.3-0.13-0.39l-0.99-0.43
		c-0.17-0.09-0.3-0.04-0.39,0.13l-2.54,5.46c-0.04,0.13,0,0.26,0.13,0.34L185.38,224.04z"/>
	<path class="st0" d="M186.76,211.77c0.73,0.47,1.51,0.77,2.32,0.82c0.86,0.09,1.64-0.09,2.41-0.43c0.77-0.34,1.38-0.9,1.89-1.63
		c0.3-0.43,0.52-0.9,0.69-1.42c0.13-0.52,0.17-1.03,0.13-1.55c0-0.09,0-0.13-0.09-0.17c-0.04,0-0.09-0.04-0.17-0.04l-1.16,0.04
		c-0.13,0-0.17,0.04-0.21,0.13c-0.04,0.04-0.04,0.09-0.04,0.17c0,0.34-0.04,0.69-0.13,0.99c-0.09,0.3-0.22,0.6-0.43,0.9
		c-0.3,0.43-0.69,0.77-1.16,0.99c-0.47,0.22-0.99,0.3-1.51,0.26c-0.56-0.04-1.03-0.22-1.51-0.56c-0.47-0.3-0.82-0.73-1.08-1.2
		c-0.21-0.47-0.3-0.99-0.3-1.51c0.04-0.52,0.21-1.03,0.51-1.46c0.22-0.26,0.43-0.52,0.69-0.69c0.26-0.22,0.56-0.39,0.86-0.47
		c0.09-0.04,0.13-0.09,0.17-0.13c0.04-0.04,0.04-0.13,0-0.22l-0.34-1.12c-0.04-0.09-0.09-0.13-0.13-0.17
		c-0.04-0.04-0.13-0.04-0.21,0c-0.47,0.17-0.9,0.39-1.33,0.69c-0.43,0.3-0.78,0.69-1.12,1.16c-0.47,0.73-0.78,1.51-0.82,2.32
		c-0.09,0.86,0.08,1.63,0.43,2.41C185.47,210.61,186.02,211.26,186.76,211.77z"/>
	<path class="st0" d="M198.11,204.25l0.86-0.9c0.13-0.13,0.13-0.26,0-0.34l-2.58-2.58l3.01-3.05l2.58,2.58
		c0.13,0.09,0.26,0.09,0.39-0.04l0.86-0.86c0.13-0.13,0.13-0.26,0-0.39l-6.15-6.11c-0.13-0.13-0.26-0.13-0.39,0l-0.86,0.9
		c-0.13,0.13-0.13,0.22,0,0.34l2.37,2.37l-3.05,3.05l-2.32-2.37c-0.13-0.13-0.26-0.13-0.39,0l-0.9,0.9c-0.09,0.13-0.09,0.26,0,0.39
		l6.2,6.11C197.86,204.37,197.99,204.37,198.11,204.25z"/>
	<path class="st0" d="M205.13,197.45l4.82-3.79c0.13-0.09,0.17-0.22,0.04-0.34l-0.69-0.9c-0.09-0.13-0.21-0.13-0.34-0.04l-3.66,2.84
		l-1.38-1.76l2.8-2.19c0.13-0.13,0.17-0.22,0.04-0.39l-0.64-0.82c-0.09-0.13-0.22-0.13-0.34-0.04l-2.8,2.19l-1.33-1.68l3.57-2.75
		c0.13-0.13,0.17-0.26,0.04-0.39l-0.69-0.86c-0.09-0.13-0.21-0.17-0.34-0.04l-4.78,3.7c-0.13,0.13-0.13,0.22-0.04,0.39l5.38,6.84
		C204.87,197.53,205,197.53,205.13,197.45z"/>
	<path class="st0" d="M207.58,186.48l0.82-0.13c0.09,0,0.13,0,0.17-0.04c0.04-0.04,0.09-0.13,0.09-0.22c0-0.3,0.09-0.56,0.21-0.82
		c0.13-0.22,0.34-0.43,0.6-0.6c0.34-0.22,0.64-0.3,0.95-0.26c0.3,0,0.56,0.17,0.73,0.43c0.09,0.22,0.17,0.43,0.13,0.6
		c0,0.22-0.09,0.43-0.21,0.65c-0.17,0.22-0.39,0.39-0.64,0.56l-0.47,0.26c-0.13,0.09-0.17,0.22-0.09,0.39l0.43,0.65
		c0.09,0.13,0.22,0.17,0.34,0.09l0.39-0.22c0.34-0.22,0.64-0.34,0.95-0.39c0.34-0.04,0.6-0.04,0.86,0.09
		c0.26,0.09,0.43,0.3,0.6,0.56c0.17,0.22,0.26,0.52,0.26,0.77c0,0.26-0.09,0.52-0.26,0.77c-0.13,0.22-0.34,0.43-0.6,0.6
		c-0.34,0.22-0.65,0.3-0.99,0.3c-0.34,0.04-0.64-0.04-0.99-0.22c-0.09-0.04-0.17-0.04-0.26,0c-0.04,0.04-0.04,0.04-0.08,0.13
		l-0.52,0.77c-0.09,0.13-0.09,0.22-0.04,0.26c0.04,0.04,0.04,0.09,0.09,0.13c0.6,0.34,1.21,0.52,1.85,0.47c0.6,0,1.2-0.22,1.85-0.56
		c0.51-0.34,0.95-0.77,1.25-1.25c0.26-0.52,0.39-0.99,0.39-1.51c0-0.52-0.13-1.03-0.43-1.46c-0.3-0.52-0.73-0.86-1.25-1.03
		c-0.52-0.17-1.03-0.17-1.59,0.04c0.3-0.39,0.47-0.82,0.52-1.25c0.04-0.43-0.04-0.86-0.3-1.25c-0.22-0.39-0.52-0.65-0.9-0.82
		c-0.39-0.17-0.82-0.26-1.25-0.22c-0.47,0.04-0.9,0.22-1.38,0.52c-0.51,0.34-0.95,0.73-1.2,1.25c-0.26,0.52-0.34,1.08-0.3,1.72
		c0,0.04,0,0.09,0.04,0.13C207.36,186.48,207.45,186.48,207.58,186.48z"/>
	<path class="st0" d="M216.23,189.45c0.04,0.04,0.04,0.09,0.08,0.09c0.09,0,0.13,0,0.22-0.04l1.16-0.52
		c0.13-0.09,0.17-0.17,0.17-0.34l-0.17-1.63l3.44-1.63l1.21,1.12c0.08,0.13,0.21,0.13,0.34,0.09l1.16-0.56
		c0.09-0.04,0.13-0.09,0.13-0.13c0.04-0.04,0.04-0.09,0-0.13c0-0.04-0.04-0.09-0.09-0.09l-6.8-6.41c-0.13-0.09-0.26-0.13-0.39-0.04
		l-0.99,0.47c-0.13,0.04-0.22,0.17-0.17,0.3l0.64,9.34C216.18,189.36,216.18,189.4,216.23,189.45z M217.3,181.57l2.71,2.62l-2.5,1.2
		l-0.34-3.74l-0.04-0.3L217.3,181.57z"/>
	<path class="st0" d="M225.35,185.44l1.21-0.39c0.17-0.04,0.21-0.17,0.17-0.34l-1.16-3.53l1.33-0.47l3.53,2.88
		c0.13,0.09,0.21,0.13,0.34,0.09l1.33-0.43c0.09-0.04,0.13-0.09,0.17-0.13c0-0.04,0-0.04,0-0.13c0-0.04-0.04-0.09-0.08-0.09
		l-4.26-3.36l1.46-4.78v-0.17c0-0.04-0.04-0.09-0.09-0.09c-0.04-0.04-0.13,0-0.17,0l-1.34,0.43c-0.13,0.04-0.21,0.13-0.26,0.26
		l-1.12,4.04l-1.33,0.47l-1.08-3.23c-0.04-0.17-0.17-0.22-0.34-0.17l-1.2,0.39c-0.17,0.04-0.21,0.17-0.17,0.34l2.75,8.22
		C225.09,185.44,225.18,185.53,225.35,185.44z"/>
	<path class="st0" d="M232.58,180.84c0.52,0.65,1.2,1.08,1.98,1.38c0.82,0.26,1.63,0.34,2.5,0.17c0.86-0.17,1.63-0.52,2.24-1.08
		c0.64-0.56,1.08-1.25,1.38-2.02c0.26-0.82,0.34-1.63,0.17-2.5s-0.52-1.59-1.08-2.24c-0.56-0.65-1.21-1.08-2.02-1.38
		c-0.78-0.26-1.59-0.34-2.45-0.17c-0.86,0.17-1.63,0.52-2.28,1.08c-0.6,0.56-1.08,1.25-1.33,2.02c-0.3,0.77-0.34,1.63-0.17,2.5
		C231.67,179.46,232.02,180.2,232.58,180.84z M233.35,176.67c0.17-0.52,0.47-0.95,0.86-1.29c0.39-0.34,0.86-0.6,1.38-0.69
		c0.51-0.09,1.03-0.04,1.5,0.13c0.52,0.17,0.95,0.47,1.29,0.9c0.34,0.39,0.56,0.86,0.69,1.42c0.09,0.56,0.09,1.12-0.13,1.59
		c-0.17,0.52-0.43,0.95-0.82,1.29s-0.86,0.6-1.38,0.69c-0.51,0.09-1.03,0.04-1.55-0.13c-0.47-0.17-0.9-0.47-1.25-0.9
		c-0.34-0.39-0.6-0.86-0.69-1.42C233.14,177.7,233.18,177.18,233.35,176.67z"/>
	<path class="st0" d="M243.29,181.23l1.29-0.04c0.17,0,0.21-0.09,0.21-0.3l-0.17-3.66l4.3-0.17l0.17,3.66
		c0,0.17,0.09,0.26,0.26,0.26l1.29-0.04c0.17-0.04,0.26-0.13,0.21-0.3l-0.39-8.69c0-0.17-0.09-0.26-0.26-0.22l-1.25,0.04
		c-0.17,0-0.26,0.09-0.26,0.26l0.17,3.36l-4.3,0.17l-0.17-3.31c0-0.17-0.09-0.26-0.26-0.26l-1.25,0.04c-0.17,0-0.26,0.13-0.26,0.3
		l0.39,8.65C243.03,181.14,243.12,181.23,243.29,181.23z"/>
	<path class="st0" d="M254.39,181.1c0.17,0,0.26-0.09,0.3-0.26l0.34-3.61l4.26,0.39l-0.34,3.66c0,0.17,0.09,0.26,0.26,0.26
		l1.25,0.13c0.17,0.04,0.26-0.04,0.26-0.22l0.86-8.65c0-0.17-0.09-0.3-0.26-0.3l-1.25-0.13c-0.17,0-0.26,0.09-0.26,0.26l-0.34,3.31
		l-4.26-0.43l0.3-3.31c0-0.17-0.04-0.26-0.22-0.26l-1.25-0.13c-0.17-0.04-0.3,0.04-0.3,0.22l-0.82,8.65
		c-0.04,0.17,0.04,0.3,0.21,0.3L254.39,181.1z"/>
	<path class="st0" d="M272.2,184.41c0.13,0.04,0.26-0.04,0.3-0.22l2.15-8.39c0.04-0.17,0-0.3-0.17-0.34l-1.2-0.3
		c-0.17-0.04-0.3,0.04-0.34,0.22l-2.15,8.39c-0.04,0.17,0,0.26,0.17,0.3L272.2,184.41z"/>
	<path class="st0" d="M266.05,182.82c0.6,0.17,1.16,0.17,1.72,0.04c0.52-0.13,0.99-0.39,1.38-0.77c0.34-0.34,0.6-0.82,0.77-1.38
		c0.13-0.56,0.13-1.08,0-1.59c-0.13-0.52-0.39-0.95-0.82-1.33c-0.39-0.39-0.9-0.65-1.51-0.82l-1.72-0.43l0.73-2.84
		c0.04-0.13,0-0.26-0.17-0.3l-1.25-0.3c-0.17-0.04-0.26,0-0.3,0.17l-2.19,8.43c-0.04,0.13,0.04,0.26,0.21,0.3L266.05,182.82z
		 M265.49,178.09l1.51,0.39c0.3,0.04,0.52,0.17,0.73,0.39c0.17,0.17,0.34,0.39,0.39,0.65c0.09,0.22,0.09,0.47,0.04,0.73
		c-0.09,0.26-0.22,0.52-0.39,0.69c-0.21,0.17-0.43,0.3-0.69,0.34s-0.52,0.04-0.82-0.04l-1.51-0.39L265.49,178.09z"/>
	<path class="st0" d="M273.75,184.84c0.04,0.04,0.09,0.09,0.17,0.13l1.16,0.52c0.13,0.09,0.26,0.04,0.34-0.09l3.1-5.33l-0.69,6.45
		c0,0.13,0.04,0.26,0.17,0.3l0.99,0.43c0.13,0.09,0.26,0.04,0.39-0.04l4.34-4.82l-1.93,5.85c-0.04,0.17,0,0.3,0.17,0.34l1.16,0.52
		c0.04,0.04,0.13,0.04,0.17,0.04c0.09-0.04,0.13-0.09,0.13-0.17l2.62-8.39c0-0.09,0-0.13-0.04-0.17c0-0.09-0.04-0.13-0.13-0.17
		l-1.38-0.6c-0.17-0.09-0.26-0.04-0.39,0.09l-4.6,5.03l0.73-6.8c0-0.13-0.04-0.26-0.17-0.3l-1.42-0.65c-0.13-0.04-0.26,0-0.34,0.13
		l-4.52,7.49C273.75,184.71,273.75,184.76,273.75,184.84z"/>
	<path class="st0" d="M290.7,194.26c0.73,0.52,1.51,0.82,2.32,0.9c0.86,0.09,1.63-0.04,2.41-0.39c0.78-0.34,1.42-0.9,1.94-1.59
		c0.51-0.73,0.82-1.51,0.9-2.32c0.09-0.82-0.04-1.63-0.39-2.41c-0.34-0.77-0.86-1.38-1.59-1.89c-0.69-0.52-1.46-0.82-2.32-0.9
		c-0.82-0.09-1.64,0.04-2.41,0.39c-0.73,0.34-1.38,0.86-1.89,1.59c-0.52,0.69-0.82,1.46-0.9,2.28c-0.09,0.86,0.04,1.68,0.39,2.45
		C289.5,193.1,290.01,193.75,290.7,194.26z M291.13,188.67c0.3-0.43,0.73-0.77,1.2-1.03c0.52-0.22,1.03-0.3,1.55-0.26
		c0.52,0.04,0.99,0.26,1.42,0.56c0.43,0.3,0.73,0.69,0.95,1.16c0.22,0.52,0.3,0.99,0.26,1.55c-0.09,0.52-0.26,1.03-0.6,1.51
		c-0.34,0.43-0.73,0.77-1.25,0.99c-0.47,0.22-0.99,0.34-1.5,0.3c-0.52-0.09-0.99-0.26-1.42-0.56c-0.43-0.3-0.78-0.69-0.99-1.2
		c-0.17-0.47-0.26-0.99-0.22-1.51C290.57,189.62,290.79,189.14,291.13,188.67z"/>
	<path class="st0" d="M295.91,198.14l2.41,2.28c0.43,0.39,0.9,0.69,1.38,0.82c0.51,0.13,0.99,0.13,1.46,0
		c0.47-0.13,0.9-0.39,1.29-0.82c0.39-0.39,0.6-0.82,0.69-1.29c0.13-0.43,0.09-0.9-0.13-1.38c-0.17-0.47-0.47-0.9-0.9-1.29
		l-1.46-1.38l1.51-1.63l2.75,2.58c0.13,0.13,0.26,0.13,0.34,0l0.69-0.73c0.13-0.13,0.13-0.26,0-0.34l-3.7-3.53
		c-0.13-0.13-0.26-0.13-0.39,0l-5.94,6.32C295.78,197.88,295.78,198.01,295.91,198.14z M299.73,195.98l1.42,1.38
		c0.21,0.17,0.34,0.34,0.43,0.56s0.09,0.47,0.04,0.69c-0.04,0.26-0.17,0.47-0.34,0.69c-0.34,0.34-0.64,0.52-0.99,0.47
		c-0.3,0-0.64-0.17-0.99-0.47l-1.42-1.33L299.73,195.98z"/>
	<path class="st0" d="M303.31,202.18c-0.3,0.77-0.43,1.59-0.26,2.41c0.09,0.86,0.43,1.59,0.99,2.28c0.56,0.69,1.25,1.16,2.02,1.46
		c0.77,0.3,1.59,0.39,2.41,0.26c0.86-0.13,1.59-0.47,2.28-1.03c0.69-0.56,1.16-1.25,1.46-2.02c0.3-0.77,0.39-1.59,0.26-2.41
		c-0.13-0.82-0.47-1.59-1.03-2.28c-0.56-0.69-1.21-1.16-1.98-1.46c-0.82-0.3-1.59-0.39-2.45-0.26c-0.82,0.17-1.55,0.52-2.24,1.03
		C304.08,200.72,303.61,201.41,303.31,202.18z M305.89,201.58c0.43-0.34,0.95-0.6,1.46-0.69c0.52-0.09,1.03-0.04,1.55,0.17
		c0.47,0.17,0.91,0.47,1.25,0.86c0.3,0.43,0.52,0.9,0.6,1.42c0.09,0.52,0,1.03-0.17,1.51c-0.21,0.52-0.52,0.95-0.95,1.33
		c-0.47,0.34-0.95,0.56-1.46,0.65c-0.56,0.09-1.08,0.04-1.55-0.13c-0.52-0.17-0.9-0.47-1.25-0.9c-0.34-0.39-0.52-0.86-0.6-1.38
		c-0.09-0.52-0.04-1.03,0.17-1.55C305.16,202.35,305.46,201.92,305.89,201.58z"/>
	<path class="st0" d="M307.99,211.82l0.64,1.08c0.09,0.13,0.22,0.17,0.34,0.09l2.37-1.51l0.99,1.55c0.34,0.56,0.73,0.99,1.2,1.25
		c0.47,0.3,0.99,0.39,1.51,0.39c0.56-0.04,1.08-0.22,1.59-0.56c0.52-0.3,0.9-0.69,1.12-1.16c0.26-0.47,0.39-0.95,0.34-1.51
		c-0.04-0.56-0.21-1.12-0.56-1.63l-1.72-2.84c-0.13-0.13-0.22-0.17-0.39-0.09l-7.4,4.6C307.91,211.56,307.87,211.69,307.99,211.82z
		 M315.22,209.11l0.9,1.42c0.13,0.26,0.21,0.52,0.26,0.77c0,0.26-0.04,0.52-0.13,0.73c-0.13,0.22-0.3,0.43-0.56,0.56
		c-0.21,0.17-0.47,0.26-0.73,0.26s-0.52-0.09-0.78-0.22c-0.21-0.13-0.39-0.3-0.56-0.56l-0.9-1.42L315.22,209.11z"/>
	<path class="st0" d="M314.02,217.58c-0.47,0.69-0.77,1.42-0.86,2.28c-0.09,0.82,0.04,1.63,0.39,2.45c0.39,0.82,0.9,1.46,1.59,1.94
		c0.69,0.47,1.42,0.77,2.28,0.86c0.82,0.09,1.64-0.04,2.45-0.43c0.82-0.34,1.46-0.86,1.93-1.55c0.47-0.69,0.78-1.42,0.86-2.28
		c0.09-0.82-0.04-1.63-0.39-2.45c-0.39-0.77-0.91-1.42-1.59-1.94c-0.69-0.47-1.42-0.77-2.24-0.86c-0.86-0.09-1.68,0.04-2.5,0.43
		C315.18,216.38,314.53,216.89,314.02,217.58z M318.28,217.41c0.56,0.04,1.03,0.22,1.46,0.52c0.43,0.3,0.73,0.69,0.95,1.2
		c0.26,0.47,0.3,0.95,0.26,1.46c-0.04,0.56-0.26,1.03-0.56,1.46c-0.34,0.43-0.73,0.77-1.25,0.99c-0.52,0.26-1.03,0.34-1.59,0.26
		c-0.52-0.04-1.03-0.22-1.46-0.52c-0.43-0.3-0.73-0.69-0.95-1.16c-0.22-0.47-0.3-0.99-0.26-1.51c0.09-0.52,0.26-1.03,0.56-1.46
		c0.34-0.43,0.73-0.77,1.25-0.99C317.2,217.45,317.76,217.32,318.28,217.41z"/>
	<path class="st0" d="M316.69,229.2c-0.17,0.04-0.21,0.17-0.17,0.34l0.34,1.2c0.09,0.13,0.17,0.22,0.34,0.17l6.97-2.19l0.73,2.32
		c0.04,0.17,0.13,0.26,0.3,0.17l1.08-0.3c0.17-0.09,0.26-0.17,0.17-0.34l-1.93-6.32c-0.04-0.17-0.17-0.26-0.34-0.17l-1.08,0.3
		c-0.17,0.09-0.22,0.17-0.17,0.34l0.73,2.32L316.69,229.2z"/>
	<path class="st0" d="M322.41,232.94c-0.86,0.17-1.59,0.52-2.24,1.08c-0.64,0.52-1.12,1.2-1.42,1.98c-0.3,0.77-0.34,1.59-0.17,2.5
		c0.13,0.86,0.47,1.59,1.03,2.24c0.56,0.65,1.2,1.12,2.02,1.38c0.77,0.3,1.59,0.34,2.45,0.22c0.86-0.17,1.63-0.52,2.28-1.08
		c0.65-0.52,1.08-1.2,1.38-1.98c0.3-0.77,0.34-1.63,0.21-2.5c-0.17-0.86-0.52-1.59-1.08-2.24c-0.52-0.65-1.21-1.12-1.98-1.38
		C324.13,232.86,323.27,232.81,322.41,232.94z M326.28,237.07c0.09,0.52,0.04,1.03-0.17,1.55c-0.17,0.47-0.47,0.9-0.86,1.25
		c-0.43,0.34-0.9,0.56-1.46,0.69c-0.56,0.09-1.08,0.04-1.59-0.13c-0.52-0.17-0.95-0.47-1.29-0.86c-0.34-0.43-0.56-0.86-0.64-1.38
		c-0.13-0.52-0.04-1.03,0.13-1.55c0.17-0.47,0.47-0.9,0.9-1.25c0.39-0.34,0.9-0.56,1.46-0.69c0.52-0.09,1.08-0.04,1.59,0.13
		s0.9,0.47,1.25,0.86C325.94,236.13,326.15,236.56,326.28,237.07z"/>
	<path class="st0" d="M319.7,243.65c-0.04,0.04-0.04,0.13-0.04,0.22l0.04,1.25c0,0.17,0.09,0.26,0.26,0.26l6.11,0.52l-6.07,2.19
		c-0.17,0.04-0.21,0.13-0.21,0.26l0.04,1.12c0,0.13,0.09,0.22,0.22,0.26l6.2,1.85l-6.11,0.82c-0.17,0.04-0.22,0.13-0.22,0.3v1.25
		c0,0.09,0.04,0.17,0.09,0.22c0.04,0.04,0.13,0.04,0.22,0.04l8.65-1.33c0.09,0,0.17-0.04,0.21-0.09c0.04-0.04,0.04-0.13,0.04-0.17
		l-0.04-1.55c0-0.13-0.08-0.26-0.21-0.3l-6.58-1.94l6.45-2.32c0.13-0.04,0.21-0.13,0.21-0.3l-0.04-1.51c0-0.17-0.08-0.26-0.26-0.3
		l-8.73-0.77C319.83,243.61,319.78,243.61,319.7,243.65z"/>
	<path class="st0" d="M319.74,259.06c-0.17-0.04-0.26,0.04-0.3,0.22l-0.22,1.2c-0.04,0.17,0.04,0.3,0.22,0.3l3.61,0.65l-0.73,4.22
		l-3.61-0.6c-0.17-0.04-0.26,0.04-0.3,0.22l-0.22,1.25c-0.04,0.17,0.04,0.26,0.22,0.3l8.56,1.46c0.17,0.04,0.26-0.04,0.3-0.22
		l0.22-1.25c0.04-0.17-0.04-0.26-0.22-0.3l-3.27-0.56l0.73-4.22l3.27,0.56c0.17,0,0.26-0.04,0.3-0.22l0.21-1.25
		c0-0.17-0.04-0.26-0.21-0.3L319.74,259.06z"/>
	<path class="st0" d="M318.24,267.83c-0.04-0.04-0.09-0.04-0.13-0.04c-0.04-0.04-0.09-0.04-0.13,0c-0.04,0.04-0.09,0.09-0.13,0.17
		l-0.34,1.2c-0.04,0.13-0.04,0.26,0.09,0.34l1.33,0.99l-1.16,3.66l-1.63,0.09c-0.17,0.04-0.26,0.09-0.3,0.26l-0.39,1.2v0.17
		c0.04,0.04,0.04,0.09,0.13,0.09c0.04,0.04,0.09,0.04,0.09,0.04l9.34-0.65c0.17-0.04,0.26-0.13,0.3-0.26l0.34-1.08
		c0.04-0.13,0-0.26-0.13-0.34L318.24,267.83z M323.14,273.94l-3.74,0.17l0.82-2.62l2.97,2.28l0.26,0.17H323.14z"/>
	<path class="st0" d="M315.18,277c-0.17-0.09-0.3-0.04-0.34,0.13l-0.52,1.16c-0.09,0.13-0.04,0.26,0.13,0.34l2.54,1.12l-0.73,1.68
		c-0.26,0.56-0.39,1.16-0.34,1.68c0.04,0.56,0.21,1.03,0.56,1.46c0.3,0.43,0.77,0.77,1.33,1.03c0.51,0.26,1.03,0.34,1.59,0.3
		c0.52-0.09,0.99-0.26,1.42-0.6c0.43-0.34,0.78-0.82,1.08-1.38l1.33-3.01c0.09-0.17,0.04-0.3-0.13-0.34L315.18,277z M320.43,283.15
		c-0.09,0.26-0.26,0.47-0.47,0.65c-0.22,0.17-0.43,0.26-0.69,0.3s-0.47,0-0.78-0.13c-0.26-0.13-0.47-0.3-0.6-0.47
		c-0.17-0.22-0.26-0.47-0.26-0.73c0-0.26,0.04-0.52,0.17-0.82l0.64-1.51l2.67,1.16L320.43,283.15z"/>
	<path class="st0" d="M311.82,284.22c-0.13-0.09-0.26-0.09-0.34,0.09l-0.64,1.08c-0.09,0.13-0.09,0.26,0.09,0.34l3.23,1.94
		l-0.78,1.25l-4.52,0.09c-0.17,0-0.26,0.09-0.34,0.17l-0.73,1.2c0,0.09-0.04,0.13-0.04,0.17c0.04,0.04,0.04,0.09,0.09,0.13
		c0.04,0,0.09,0.04,0.17,0.04l5.38-0.26l2.02,4.56c0.04,0.09,0.09,0.13,0.13,0.13c0.04,0.04,0.09,0.04,0.09,0
		c0.09,0,0.09-0.04,0.13-0.09l0.73-1.2c0.09-0.13,0.09-0.26,0-0.39l-1.76-3.79l0.73-1.2l2.93,1.72c0.13,0.09,0.26,0.09,0.34-0.09
		l0.64-1.08c0.09-0.13,0.09-0.26-0.09-0.34L311.82,284.22z"/>
	<path class="st0" d="M311.27,293.56c-0.69-0.52-1.46-0.86-2.28-0.99c-0.82-0.13-1.63-0.04-2.41,0.26c-0.78,0.3-1.46,0.82-2.02,1.51
		c-0.52,0.69-0.86,1.46-0.99,2.28c-0.13,0.82,0,1.63,0.3,2.41s0.82,1.46,1.51,2.02c0.69,0.52,1.42,0.86,2.28,0.99
		c0.82,0.13,1.63,0,2.41-0.3c0.78-0.3,1.42-0.77,1.98-1.46c0.56-0.69,0.86-1.46,0.99-2.28c0.13-0.86,0.04-1.63-0.26-2.41
		C312.47,294.77,311.95,294.12,311.27,293.56z M310.71,299.2c-0.34,0.43-0.73,0.73-1.25,0.9c-0.47,0.17-0.99,0.26-1.51,0.17
		c-0.56-0.09-1.03-0.3-1.46-0.65c-0.47-0.39-0.77-0.77-0.99-1.29c-0.17-0.52-0.26-1.03-0.17-1.55c0.04-0.52,0.26-0.99,0.56-1.38
		c0.34-0.43,0.77-0.73,1.25-0.9c0.52-0.22,0.99-0.26,1.55-0.17c0.52,0.09,1.03,0.3,1.46,0.65c0.43,0.34,0.78,0.77,0.95,1.29
		c0.21,0.47,0.26,0.99,0.21,1.55C311.22,298.34,311.05,298.81,310.71,299.2z"/>
	<path class="st0" d="M306.71,303.8l-1.72,1.68l-5.12-5.16c-0.13-0.13-0.26-0.13-0.39,0l-0.9,0.86c-0.13,0.13-0.13,0.26,0,0.39
		l5.16,5.16l-1.76,1.72c-0.13,0.13-0.13,0.26,0,0.39l0.82,0.82c0.13,0.09,0.22,0.09,0.34,0l4.73-4.69c0.13-0.13,0.13-0.26,0-0.39
		l-0.78-0.77C306.96,303.67,306.83,303.67,306.71,303.8z"/>
	<path class="st0" d="M295.39,304.23l-0.95,0.69c-0.09,0.09-0.13,0.22-0.13,0.34l0.34,7.62l-3.74-4.86
		c-0.13-0.13-0.26-0.17-0.39-0.04l-0.95,0.73c-0.13,0.09-0.17,0.22-0.04,0.34l5.29,6.88c0.09,0.17,0.22,0.17,0.34,0.09l1.08-0.82
		c0.04-0.04,0.09-0.09,0.13-0.17v-0.17l-0.34-7.36l3.66,4.69c0.09,0.17,0.21,0.17,0.34,0.09l0.99-0.77
		c0.13-0.09,0.13-0.22,0.04-0.34l-5.29-6.88C295.65,304.14,295.52,304.1,295.39,304.23z"/>
	<path class="st0" d="M287.47,310.08l-1.12,0.6c-0.13,0.09-0.17,0.22-0.09,0.39l1.89,3.23l-1.25,0.73l-4.04-2.11
		c-0.13-0.09-0.26-0.09-0.34,0l-1.25,0.69c-0.04,0.04-0.09,0.09-0.09,0.13c-0.04,0.04-0.04,0.09,0,0.13c0,0.04,0.04,0.09,0.13,0.09
		l4.82,2.41l-0.47,4.99c0,0.09,0.04,0.13,0.04,0.17c0.04,0.04,0.04,0.04,0.13,0.09c0.04,0,0.09-0.04,0.13-0.09l1.25-0.69
		c0.08-0.04,0.17-0.17,0.17-0.3l0.26-4.17l1.25-0.73l1.72,2.97c0.09,0.13,0.22,0.17,0.34,0.09l1.12-0.65
		c0.13-0.09,0.17-0.17,0.09-0.34l-4.35-7.53C287.73,310,287.6,310,287.47,310.08z"/>
	<path class="st0" d="M281.32,316.06c-0.69-0.52-1.42-0.82-2.28-0.95c-0.82-0.09-1.63,0-2.45,0.34c-0.82,0.34-1.46,0.82-1.98,1.51
		c-0.52,0.69-0.82,1.42-0.9,2.28c-0.13,0.82,0,1.63,0.3,2.45c0.34,0.82,0.86,1.46,1.51,1.98c0.69,0.52,1.42,0.82,2.28,0.95
		c0.82,0.09,1.63,0,2.45-0.34c0.82-0.34,1.46-0.86,1.98-1.51c0.52-0.69,0.82-1.42,0.9-2.24c0.13-0.86,0-1.68-0.3-2.5
		C282.48,317.27,281.97,316.58,281.32,316.06z M281.36,320.32c-0.09,0.56-0.26,1.03-0.56,1.46c-0.34,0.39-0.73,0.73-1.21,0.9
		c-0.51,0.22-0.99,0.26-1.55,0.22c-0.51-0.09-0.99-0.3-1.42-0.6c-0.39-0.34-0.73-0.77-0.95-1.29c-0.22-0.52-0.3-1.08-0.22-1.59
		c0.04-0.56,0.26-1.03,0.56-1.42c0.3-0.43,0.73-0.77,1.2-0.95c0.52-0.22,0.99-0.26,1.51-0.22c0.56,0.09,1.03,0.3,1.46,0.65
		c0.39,0.3,0.73,0.73,0.95,1.25C281.36,319.25,281.45,319.8,281.36,320.32z"/>
	<path class="st0" d="M270.69,317.83l-3.66,0.95c-0.56,0.17-0.99,0.39-1.38,0.73c-0.39,0.3-0.64,0.69-0.78,1.12
		c-0.13,0.47-0.13,0.95,0,1.46c0.09,0.34,0.22,0.65,0.43,0.9c0.22,0.3,0.47,0.47,0.78,0.65c0.3,0.17,0.6,0.22,0.9,0.26
		c-0.17,0.13-0.34,0.3-0.47,0.52c-0.08,0.26-0.17,0.47-0.21,0.77c-0.04,0.26,0,0.52,0.04,0.77c0.13,0.47,0.34,0.86,0.69,1.16
		c0.3,0.3,0.73,0.47,1.21,0.56c0.43,0.09,0.95,0.09,1.5-0.09l3.27-0.86c0.17-0.04,0.26-0.13,0.22-0.3l-2.24-8.43
		C270.95,317.83,270.87,317.78,270.69,317.83z M266.99,322.39c-0.17-0.17-0.3-0.34-0.34-0.56c-0.04-0.26-0.09-0.52,0-0.73
		c0.04-0.22,0.13-0.43,0.3-0.56c0.17-0.17,0.39-0.26,0.6-0.34l2.07-0.56l0.69,2.54l-1.98,0.52c-0.26,0.09-0.52,0.09-0.73,0.04
		C267.34,322.64,267.17,322.56,266.99,322.39z M269.45,326.09c-0.21,0.09-0.43,0.09-0.64,0.04c-0.17-0.04-0.34-0.13-0.47-0.3
		c-0.17-0.13-0.26-0.3-0.3-0.47c-0.04-0.22-0.04-0.43,0-0.6c0.09-0.22,0.17-0.39,0.34-0.52c0.13-0.17,0.34-0.26,0.56-0.3l1.72-0.47
		l0.56,2.19L269.45,326.09z"/>
</g>
</svg>
