<?xml version="1.0" encoding="utf-8"?>
<!-- Generator: Adobe Illustrator 26.5.0, SVG Export Plug-In . SVG Version: 6.00 Build 0)  -->
<svg version="1.1" id="Layer_1" xmlns="http://www.w3.org/2000/svg" xmlns:xlink="http://www.w3.org/1999/xlink" x="0px" y="0px"
	 viewBox="0 0 500 500" style="enable-background:new 0 0 500 500;" xml:space="preserve">
<style type="text/css">
	.st0{fill:#131313;}
</style>
<g>
	<path class="st0" d="M265.72,306.65c0,0,1.9-5.22,0.61-6.03c-0.84-0.53-2.35-0.37-3.3-0.19c-0.52,0.1-0.93,0.48-1.08,0.99
		c-0.61,2.15-2.49,7.54-1.36,11.75c0.35,1.29,0.02,4.68,0.02,4.68s-0.66,3.73,5.03,8.54c5.69,4.81,5.63,3.46,8.2,12.75h1.15
		c0,0,2.51-5.56-5.7-13.83C261.11,317.02,265.72,306.65,265.72,306.65z"/>
	<path class="st0" d="M244.26,305.49c0.23-1.83-1.24-4.26-3.27-4.08c-2.51,0.22-4.88,1.71-6.91,3.08c-2.42,1.64-4.79,3.47-7.59,4.27
		c-2.96,0.85-6.34,0.53-8.88,2.28c-2.01,1.39-3.02,3.77-4.31,5.84c-3.05,4.9-8.18,8.46-13.85,9.6c-0.97,0.19-1.97,0.33-2.81,0.84
		c-0.84,0.51-1.48,1.53-1.19,2.47c6.2-0.84,12.59-2.4,17.31-6.51c2.46-2.14,4.34-4.87,6.68-7.16c1.09-1.07,4.14-2.75,7.49-3.65
		c3.82-1.03,8-1.22,9.57-1.51c1.67-0.3,3.37-0.66,4.84-1.52C242.82,308.6,244.05,307.18,244.26,305.49z"/>
	<path class="st0" d="M203.85,254.46c-0.3,0.93-0.4,1.92-0.49,2.89c-0.12,1.26-0.24,2.51-0.36,3.77c-0.05,0.53-0.14,2.1,0.71,2.11
		c0.75,0,1.55-1.43,1.7-2.02c0.2-0.77,0.18-1.58,0.32-2.36c0.45-2.54,2.53-4.47,4.74-5.81c2.2-1.34,4.65-2.29,6.65-3.92
		c3.25-2.66,4.96-7.08,4.35-11.23c-0.11-0.71-0.28-1.43-0.67-2.03c-0.39-0.6-1.04-1.08-1.76-1.12c-0.83-0.04-1.6,0.5-2.08,1.17
		c-0.48,0.68-0.73,1.49-1.02,2.27c-1.29,3.51-3.43,6.69-6.14,9.27C207.55,249.6,204.8,251.51,203.85,254.46z"/>
	<path class="st0" d="M207.23,297.76c0.71,0.03,1.48-0.27,1.81-0.9c0.32-0.62,0.14-1.4-0.26-1.97c-0.41-0.57-1-0.97-1.59-1.35
		c-1.74-1.14-3.48-2.29-5.23-3.43c-1.47-0.04-2.95-0.08-4.42-0.12c-1.97-0.06-4.07-0.15-5.67-1.3c-1.65-1.18-2.41-3.2-3.35-4.99
		c-1.54-2.92-3.76-5.48-6.44-7.41c-0.59-0.43-1.28-0.95-1.26-1.68c0.01-0.54,0.43-0.98,0.8-1.38c4.32-4.59,6.74-10.92,6.57-17.23
		c3.59-1.31,6.2-4.23,7.49-7.83c0.7-1.96,1.06-4.27,2.77-5.47c0.78-0.54,1.72-0.75,2.63-1c3.72-1.02,7.24-2.8,10.27-5.19
		c-0.53,3.22-3.07,6.03-6.22,6.88c-1.26,0.34-2.61,0.4-3.78,0.98c-1.91,0.94-2.91,3.05-3.66,5.04c-0.75,1.99-1.46,4.14-3.11,5.48
		c-1.31,1.07-3.11,1.54-4.14,2.88c-0.87,1.14-1,2.66-1.21,4.09c-0.34,2.33-1.01,4.62-1.96,6.78c-0.49,1.1-1.05,2.17-1.68,3.19
		c-0.49,0.8-1.74,1.95-1.9,2.84c0.82,0.31,1.65,0.31,2.45,0.84c0.82,0.55,1.49,1.33,1.97,2.18c0.95,1.68,1.32,3.62,2.01,5.43
		c0.68,1.81,1.82,3.61,3.63,4.29c1.49,0.56,3.15,0.25,4.75,0.22c3.84-0.08,7.67,1.59,10.23,4.45c0.58-0.44,0.7-1.31,0.45-2
		c-0.25-0.69-0.79-1.22-1.35-1.69c-2.79-2.32-6.51-3.49-10.13-3.19c-1.47,0.12-3.19,0.39-4.21-0.67c-0.95-1-0.72-2.58-0.88-3.95
		c-0.35-2.85-2.96-5.25-5.83-5.36c-0.36-0.63-0.26-1.44,0.04-2.1c0.3-0.66,0.79-1.22,1.24-1.79c2.89-3.71,4.31-8.53,3.88-13.22
		c-0.07-0.75,0.67-1.28,1.36-1.58c0.69-0.3,1.44-0.42,2.14-0.7c1.85-0.74,3.11-2.45,4.11-4.17c1-1.72,1.87-3.56,3.33-4.91
		c2.23-2.07,5.47-2.64,8.02-4.3c3.23-2.1,5.12-5.92,4.8-9.77c-8.29,0.85-15.67,5.87-21.31,12c-6.08,6.61-10.54,14.6-13.79,22.98
		c-0.84,2.16-1.61,4.4-1.64,6.72c-0.02,2.32,0.82,4.76,2.68,6.14c0.01-0.23,0.01-0.46,0.02-0.69c-0.14,2.33,0.94,4.72,2.61,6.34
		s3.77,2.72,5.85,3.78c4.97,2.52,10,4.92,15.1,7.17C205.85,297.44,206.52,297.73,207.23,297.76z"/>
	<path class="st0" d="M278.37,277.18c-2.1-0.97-4.53-0.2-6.81,0.16c-3.34,0.53-6.77,0.13-10.06-0.64c-0.64-0.15-1.33-0.31-1.95-0.08
		c-0.51,0.19-0.88,0.63-1.31,0.97c-1.46,1.17-3.74,1.14-5.17-0.05c-0.26-0.22-0.51-0.48-0.81-0.64c-0.27-0.14-0.57-0.2-0.87-0.24
		c-3.91-0.49-7.73,2.64-11.56,1.73c-0.91-0.22-1.98-0.63-2.71-0.03c-0.22,0.18-0.37,0.43-0.57,0.63c-1.01,1.02-2.74,0.44-4.16,0.72
		c-2.01,0.39-3.26,2.52-5.22,3.11c-2.09,0.63-4.48-0.65-6.49,0.22c-1.4,0.61-2.38,2.19-3.91,2.26c-0.61,0.03-1.35-0.14-1.71,0.35
		c-0.27,0.38-0.17,0.93-0.31,1.35c-0.14,0.44-0.53,0.76-0.67,1.18c-0.36,1.05,1.21,0.77,1.98,0.81c2.29,0.11,4.65-0.04,6.77-0.99
		c0.62-0.28,1.22-0.63,1.88-0.8c1.29-0.34,2.67,0,3.97-0.3c1.62-0.38,2.9-1.71,4.53-2.03c1.07-0.21,2.18,0.04,3.27-0.01
		c1.09-0.05,2.31-0.56,2.6-1.61c2.9,0.17,5.9,0.33,8.62-0.67c0.88-0.32,1.75-0.77,2.69-0.81c0.81-0.03,1.6,0.26,2.4,0.41
		c1.31,0.25,2.69,0.12,3.93-0.37c0.85-0.33,1.66-0.83,2.57-0.91c1.1-0.09,2.14,0.47,3.22,0.72c3.19,0.76,6.57-1.09,9.76-0.33
		c0.99,0.24,1.92,0.72,2.93,0.85c1.01,0.12,2.21-0.25,2.56-1.21c-0.8,0.26-1.73,0.04-2.33-0.54c1.26-0.81,3.49,0.31,4.14-1.03
		C279.99,278.52,279.21,277.57,278.37,277.18z"/>
	<path class="st0" d="M277.49,283.19c-0.51-0.3-1.14-0.17-1.86-0.08c-0.51,0.08-1.1,0.17-1.61,0.08c-0.42-0.04-0.8-0.21-1.14-0.34
		c-0.21-0.08-0.38-0.17-0.55-0.21c-1.31-0.47-2.75-0.21-4.06,0l-3.51,0.59c-1.06,0.21-2.41,0.42-3.56-0.08
		c-0.17-0.04-0.34-0.13-0.51-0.21c-0.21-0.13-0.42-0.25-0.68-0.3c-0.34-0.13-0.76-0.13-1.23,0c-0.72,0.13-1.36,0.42-2.08,0.72
		c-0.38,0.21-0.8,0.38-1.23,0.55c-0.85,0.3-2.5,0.68-3.72-0.17c-0.04-0.04-0.13-0.08-0.21-0.13c-0.13-0.13-0.3-0.25-0.42-0.3
		c-0.3-0.08-0.68,0.13-1.02,0.3c-1.82,1.01-3.94,1.4-5.97,1.14l-0.3-0.04c-0.42-0.08-0.8-0.13-1.18-0.08
		c-0.42,0.08-0.8,0.3-1.23,0.51c-0.13,0.08-0.3,0.17-0.42,0.25c-1.61,0.8-3.39,0.89-5.12,0.93c-0.8,0.04-1.61,0.08-2.41,0.21
		c-0.34,0.04-0.72,0.08-1.01,0.25c-0.25,0.13-0.51,0.3-0.72,0.47c-0.08,0.08-0.21,0.17-0.3,0.25c-1.65,1.23-3.9,1.52-5.72,1.78
		h-0.17l-0.13-0.17c-0.25-0.47-0.89-0.59-1.44-0.55c-0.47,0.08-0.93,0.34-1.44,0.59l-0.3,0.13c-1.73,0.89-3.68,1.35-5.67,1.35
		c-0.25,0-0.59-0.04-0.97-0.04c-1.1-0.08-2.54-0.21-3.18,0.51c-0.17,0.21-0.63,1.69-0.89,2.5c-0.13,0.42-0.25,0.72-0.3,0.93
		c0.59,0.04,1.19,0.09,1.78,0.09c6.65,0.34,13.5,0.68,19.94-1.15c0.55-0.17,1.1-0.34,1.65-0.51c0.89-0.3,1.82-0.59,2.75-0.8
		c1.35-0.3,2.75-0.47,4.06-0.64c5.29-0.68,10.75-1.35,16.17-1.1l0.72,0.04c1.23,0.04,2.5,0.09,3.68-0.08
		c0.93-0.13,1.82-0.42,2.71-0.68c1.18-0.34,2.41-0.72,3.68-0.76c0.72-0.04,1.48,0.04,2.2,0.08c1.4,0.13,2.71,0.25,3.89-0.3
		C276.35,287.85,277.02,285.56,277.49,283.19z"/>
	<path class="st0" d="M266.39,298.94c0.41-0.23,0.71-0.62,0.99-1c1.82-2.42,3.64-4.85,5.46-7.27c-4.37-0.97-8.73,1.88-13.21,1.78
		c-0.97-0.02-1.92-0.18-2.89-0.27c-1.55-0.14-3.12-0.1-4.68-0.05c-2.69,0.08-5.4,0.16-8.03,0.7c-0.82,0.17-1.64,0.38-2.47,0.42
		c-1.23,0.06-2.49-0.24-3.68,0.07c-1.14,0.29-2.07,1.11-3.18,1.51c-1.49,0.55-3.15,0.31-4.72,0.5c-2.27,0.28-4.37,1.45-6.66,1.55
		c-2.63,0.11-5.29-1.22-7.84-0.52c-0.27,0.07-0.55,0.17-0.83,0.17c-0.33-0.01-0.65-0.16-0.96-0.28c-0.73-0.27-1.67-0.45-2.45-0.28
		c-0.74,0.16-0.73,0.44-0.76,1.13c-0.06,1.19-0.61,2.99,0.4,3.92c0.43,0.39,1.03,0.51,1.6,0.62c4.63,0.85,9.33,1.7,14.02,1.24
		c0.31-0.03,0.64-0.07,0.9-0.26c0.24-0.17,0.38-0.44,0.58-0.66c0.55-0.58,1.44-0.65,2.24-0.69c-0.52-0.44-0.88-1.06-1-1.73
		c2.08,0.33,4.37-1.46,6.16-0.35c0.38,0.24,0.69,0.58,1.08,0.79c0.52,0.27,1.13,0.28,1.72,0.27c5.81-0.03,11.62-0.06,17.43-0.1
		c0.34-0.73,0.29-1.62-0.12-2.32c2.79,0.05,5.58,0.41,8.3,1.06C264.66,299.14,265.61,299.37,266.39,298.94z"/>
	<path class="st0" d="M255.43,301.35c-0.74,0.06-1.43,0.53-1.75,1.2l0.59-0.78c-0.51,1.01-1.95,1.26-2.48,2.27
		c-0.24,0.46-0.25,1.02-0.48,1.49c-0.27,0.56-0.81,0.92-1.29,1.32c-0.92,0.76-1.66,1.73-2.16,2.82c-0.2,0.43-0.37,0.89-0.74,1.19
		c-0.28,0.23-0.65,0.34-1,0.43c-0.72,0.19-1.45,0.37-2.13,0.68c-2.19,1.01-3.6,3.51-3.33,5.91c0.1,0.9,0.41,1.76,0.77,2.59
		c0.38,0.87,0.81,1.73,1.31,2.53c0.42,0.67,0.9,1.31,1.23,2.03c0.41,0.87,0.61,1.84,0.71,2.8c0.31,2.71-0.02,5.44-0.1,8.16
		c-0.02,0.66-0.02,1.34,0.2,1.96c0.22,0.62,0.71,1.18,1.36,1.32c0.26,0.05,0.57,0.02,0.74-0.19c0.09-0.12,0.13-0.27,0.16-0.42
		c1.01-5.08,1.26-10.51-0.71-15.3c-0.55-1.34-1.28-2.7-1.13-4.13c0.13-1.29,0.96-2.4,1.84-3.35c1.19-1.29,2.53-2.43,3.98-3.4
		c0.76-0.51,1.57-0.98,2.27-1.57c1.34-1.11,2.29-2.62,3.21-4.09c0.43-0.69,0.87-1.4,1.09-2.18c0.22-0.79,0.19-1.68-0.27-2.36
		C256.93,301.66,256.17,301.3,255.43,301.35z"/>
	<path class="st0" d="M226.81,271.63c-1.68,0.23-3.38,0-5.06-0.24c-1.9-0.27-3.83-0.58-5.55-1.43c-0.61-0.3-1.19-0.67-1.83-0.92
		c-0.88-0.34-1.83-0.45-2.77-0.55c-1.95-0.21-3.92-0.41-5.86-0.16c-1.45,0.19-2.96,0.63-4.34,0.13c-0.58-0.21-1.09-0.58-1.66-0.79
		c-0.58-0.21-1.29-0.24-1.74,0.18c-0.62,0.57-0.38,1.68,0.28,2.19c0.66,0.52,1.57,0.58,2.4,0.53c0.84-0.05,1.69-0.2,2.51-0.01
		c0.79,0.18,1.48,0.64,2.21,1c0.7,0.33,1.43,0.57,2.17,0.8c1.34,0.42,2.67,0.84,4,1.26c5.84,1.84,11.94,3.71,17.99,2.78
		c0.63-0.1,1.27-0.22,1.91-0.17c0.66,0.06,1.28,0.3,1.93,0.36c1.45,0.13,2.8-0.65,4.21-1.02c3.13-0.83,6.4,0.39,9.64,0.55
		c4.28,0.21,1.61-4.72,0.28-6.42c-0.33-0.42-0.68-0.85-1.15-1.11c-0.64-0.35-1.42-0.3-2.15-0.24c-4.98,0.43-9.92,1.31-14.74,2.64
		C228.62,271.25,227.73,271.51,226.81,271.63z"/>
	<path class="st0" d="M246.79,262.41c0.86,1.18,2.35,1.66,3.55,2.49c3.41,2.34,4.16,7.17,7.16,10.02c0.49,0.47,1.11,0.9,1.79,0.86
		c1.28-0.07,2.1-2.96,1.71-3.95c-0.15-0.38-0.4-0.71-0.65-1.03c-1.9-2.48-3.83-4.98-6.25-6.97c-1.05-0.86-2.2-1.64-3.01-2.73
		c-1.26-1.69-1.53-3.92-1.58-6.02c-0.06-2.11,0.04-4.27-0.64-6.27c-0.44-1.31-1.21-2.5-1.61-3.82c-0.32-1.04-0.41-2.13-0.62-3.19
		c-0.09-0.43-0.2-0.87-0.47-1.22c-0.27-0.35-0.74-0.58-1.16-0.45c-0.52,0.16-0.75,0.76-0.81,1.29c-0.14,1.23,0.26,2.44,0.6,3.63
		c1.14,4.01,1.59,8.23,1.3,12.39C245.99,259.15,245.79,261.03,246.79,262.41z"/>
	<path class="st0" d="M261.79,257.92c-0.19,0.6-0.14,1.24-0.08,1.86c0.18,2.01,0.37,4.05,1.16,5.91c0.57,1.33,1.43,2.52,2.28,3.7
		c0.66,0.9,1.31,1.81,1.97,2.71c0.46,0.64,1.07,1.97,1.77,2.34c1.44,0.77,2.81-1.85,2.99-2.96c0.24-1.42-0.28-2.95-1.34-3.93
		c-0.37-0.34-0.79-0.61-1.19-0.92c-2.8-2.14-4.21-5.96-3.46-9.41c0.29-1.36,0.88-2.63,1.21-3.98c0.59-2.45,0.29-5.03-0.03-7.53
		c-0.08-0.61-0.16-1.24-0.5-1.75c-0.34-0.51-1.01-0.86-1.58-0.63c-0.52,0.9-0.49,2.01-0.26,3.02c0.23,1.01,0.63,1.97,0.82,2.99
		c0.41,2.22-0.3,4.61-1.85,6.24C263,256.32,262.11,256.96,261.79,257.92z"/>
	<path class="st0" d="M283.6,262.55c0.48-0.24,1.01-0.39,1.42-0.74c0.41-0.35,0.65-0.98,0.35-1.43c-0.25-0.38-0.76-0.45-1.19-0.61
		c-1.29-0.47-2.09-1.84-2.24-3.2c-0.16-1.36,0.21-2.73,0.61-4.04c-1.13,0.41-1.92,1.4-2.65,2.35c-0.84,1.09-1.68,2.19-2.19,3.46
		c-0.38,0.95-0.56,1.96-0.73,2.97c-0.16,0.93-0.33,1.86-0.49,2.79c-0.33,1.86-0.66,3.74-0.59,5.63c0.07,1.89,0.56,3.82,1.73,5.3
		c0.46,0.58,1.29,1.13,1.85,0.33c0.39-0.56,0-1.63-0.03-2.26c-0.11-2.14,0.2-4.3,0.92-6.32
		C280.97,265.07,281.96,263.35,283.6,262.55z"/>
	<path class="st0" d="M285.71,251.4c-0.39,0.26-0.79,0.53-1.06,0.92c-0.18,0.26-0.29,0.56-0.38,0.85c-0.61,1.84-0.88,3.78-0.81,5.72
		c0.03,0.81,2.56-1.6,2.62-1.64c1.09-0.68,2.46-0.82,3.7-0.95c2.48-0.26,4.96-0.6,7.42-1.03c0.22-0.04,0.45-0.08,0.63-0.21
		c0.51-0.35,0.42-1.12,0.28-1.72c-0.45,0.17-0.98-0.14-1.21-0.57c-0.23-0.43-0.23-0.94-0.21-1.43c0.07-2.45,0.43-4.88,1.07-7.24
		c-0.67-0.26-1.43-0.03-2.06,0.32c-0.63,0.35-1.18,0.82-1.84,1.12c-1.29,0.58-2.94,0.49-3.9,1.53c-0.36,0.39-0.57,0.9-0.84,1.35
		C288.32,249.72,286.98,250.57,285.71,251.4z"/>
	<path class="st0" d="M306.02,274.56c0.52-0.19,0.94-0.77,0.75-1.29c-0.17-0.48-0.74-0.68-1.25-0.7c-0.5-0.02-1.03,0.07-1.51-0.09
		c-0.43-0.14-0.76-0.45-1.12-0.73c-1.69-1.32-3.98-1.86-6.09-1.42c-1.55,0.32-3.12,1.14-4.63,0.66c-0.81-0.26-1.46-0.86-2.07-1.44
		c-0.9-0.85-2.82-3.47-4.17-3.3c-1.29,0.17-2.99,2.7-3.88,3.58c-0.27,0.27-0.57,0.61-0.49,0.99c0.07,0.34,0.42,0.53,0.73,0.67
		c2.24,0.97,4.76,1.12,7.02,2.02c0.86,0.34,1.68,0.79,2.58,0.98c1.66,0.36,3.36-0.16,5.05-0.38c2.47-0.31,4.97,0.05,7.42,0.45
		C304.92,274.66,305.5,274.75,306.02,274.56z"/>
	<path class="st0" d="M316.98,250.91c-1.04-1.66-2.66-2.86-4.25-4.01c-1.14-0.83-2.29-1.66-3.59-2.21c-1.47-0.62-3.07-0.83-4.67-0.9
		c-1.34-0.06-2.74,0.01-3.94,0.61c-1.21,0.6-2.17,1.86-2.04,3.2c0.19,2.06,1.76,3.21,2.87,4.7c0.64,0.86,0.92,1.77,1.77,2.47
		c0.69,0.56,1.56,0.94,2,1.77c0.3,0.56,0.32,1.22,0.44,1.84c0.33,1.82,1.45,3.45,2.92,4.59c1.47,1.14,3.25,1.81,5.08,2.13
		c0.73,0.13,1.53,0.19,2.15-0.22s0.8-1.46,0.18-1.85c-0.34-0.21-0.78-0.16-1.18-0.16c-1.64-0.01-3.08-1.12-4.17-2.35
		c-0.49-0.56-0.95-1.16-1.19-1.87c-0.24-0.7-0.22-1.53,0.2-2.14c0.8-1.19,2.59-1.1,3.95-0.61c0.97,0.35,1.91,0.84,2.63,1.57
		c1.69,1.7,1.95,4.31,3.02,6.45c0.37,0.74,1.12,1.54,1.9,1.25c-0.55-4.02-1.54-7.99-2.95-11.8
		C317.8,252.53,317.46,251.68,316.98,250.91z"/>
	<path class="st0" d="M282.3,294.29c0.13,0.11,0.3,0.17,0.46,0.22c2.35,0.77,4.96,0.77,7.31-0.01c0.35-0.12,0.75-0.32,0.76-0.69
		c0.01-0.3-0.25-0.54-0.54-0.62c-0.29-0.08-0.59-0.03-0.88-0.01c-1.86,0.12-3.74-1.01-4.5-2.71c-0.06-0.13-0.13-0.29-0.28-0.32
		c-0.12-0.03-0.24,0.04-0.36,0.08c-0.5,0.16-0.99-0.3-1.22-0.78c-0.51-1.1-0.29-2.39,0-3.56c0.2-0.84,0.44-1.67,0.87-2.42
		c0.68-1.16,1.78-2,2.85-2.81c0.59-0.44,1.2-0.9,1.91-1.1c0.71-0.2,1.56-0.11,2.06,0.43l-0.85-0.04c0.53,0.17,1.1,0.33,1.63,0.16
		c0.53-0.17,0.93-0.84,0.62-1.3c-0.18-0.26-0.51-0.37-0.81-0.45c-1.54-0.43-3.16-0.87-4.71-0.48c-1.1,0.28-2.06,0.95-2.92,1.68
		c-0.55,0.46-1.08,0.98-1.35,1.65c-0.18,0.45-0.22,0.94-0.32,1.41c-0.47,2.09-2.16,3.89-2.06,6.03c0.08,1.72,1.29,3.15,1.86,4.77
		C281.95,293.75,282.05,294.09,282.3,294.29z"/>
	<path class="st0" d="M279.29,311.44c0.42-0.23,0.62-0.73,0.63-1.21c0.01-0.48-0.15-0.94-0.3-1.38c-0.4-1.15-0.8-2.3-1.2-3.46
		c-0.19-0.56-0.39-1.12-0.49-1.71c-0.14-0.8-0.12-1.62-0.1-2.43c0.06-2.89,0.02-5.81-0.73-8.6c-0.25-0.91-0.74-2.01-1.87-1.83
		c-1.03,0.16-0.98,1.06-1.01,1.9c-0.11,2.61-0.3,5.24-1.01,7.77c-0.24,0.85-0.54,1.69-0.75,2.55c-0.24,0.98-0.37,1.99-0.49,3
		c-0.37,3.23-0.61,6.61,0.59,9.64c0.43,1.08,1.03,2.08,1.64,3.08c0.16-1.28,0.18-2.59,0.04-3.87c-0.03-0.25-0.06-0.5-0.02-0.74
		c0.11-0.62,0.65-1.07,1.19-1.4c0.94-0.57,2-0.94,3.09-1.1C278.76,311.6,279.05,311.57,279.29,311.44z"/>
	<path class="st0" d="M283.18,305.32c1.38-0.14,2.73-0.52,4.13-0.55c1.18-0.02,2.35,0.2,3.52,0.27c0.76,0.05,1.56,0.03,2.21-0.37
		c0.52-0.32,0.89-0.84,1.41-1.15c0.69-0.41,1.54-0.38,2.34-0.29c0.96,0.12,1.94,0.32,2.76,0.85c0.43,0.28,0.81,0.64,1.27,0.87
		c0.48,0.23,1.02,0.31,1.55,0.33c0.38,0.02,0.77,0,1.1-0.19c0.32-0.19,0.54-0.61,0.39-0.95c-0.13-0.29-0.46-0.43-0.76-0.53
		c-1.26-0.45-2.52-0.89-3.78-1.34c-0.67-0.24-1.35-0.48-2.04-0.63c-4.14-0.95-8.56,0.98-12.67-0.11c-1.32-0.35-4.14-1.62-4.57,0.53
		c-0.14,0.72,0,1.74,0.25,2.43C280.71,305.63,282.16,305.43,283.18,305.32z"/>
	<path class="st0" d="M291.27,333.61c-0.28-0.21-0.5-0.49-0.77-0.71C290.7,333.2,290.95,333.46,291.27,333.61z"/>
	<path class="st0" d="M289.97,330.1c0.02-0.89,0.04-1.78,0.05-2.67c0.01-0.46,0.02-0.93,0.17-1.36c0.13-0.4,0.38-0.74,0.63-1.08
		c0.77-1.02,1.66-1.96,2.63-2.78c0.18-0.15,0.38-0.34,0.38-0.57c-0.01-0.36-0.44-0.52-0.79-0.59c-2.28-0.46-4.54-1.01-6.76-1.67
		c-1.01-0.3-2.07-0.64-2.79-1.41c-0.18-0.19-0.33-0.39-0.53-0.56c-0.26-0.23-0.59-0.39-0.9-0.55c-1.35-0.68-2.58-1.57-3.81-2.45
		c-0.53-0.38-1.99-2.28-1.91-0.73c0.07,1.38,0.63,2.9,0.93,4.26c0.11,0.48,0.21,0.97,0.4,1.42c0.35,0.82,0.95,1.51,1.55,2.17
		c0.88,0.99,1.78,1.98,2.83,2.78c0.65,0.49,1.35,0.91,1.93,1.48c0.5,0.49,0.9,1.07,1.32,1.63c0.49,0.66,1.03,1.28,1.56,1.91
		c0.3,0.35,0.6,0.7,0.91,1.05c0.83,0.93,1.78,1.73,2.74,2.53c-0.17-0.25-0.31-0.54-0.39-0.83
		C289.94,331.43,289.95,330.76,289.97,330.1z"/>
	<path class="st0" d="M312.4,318.48c-0.8,1.32-1.85,2.47-2.89,3.61c-0.27,0.3-0.55,0.61-0.91,0.81c-0.34,0.2-0.73,0.29-1.12,0.37
		c-1.25,0.28-2.51,0.52-3.78,0.74c-0.49,0.08-1.04,0.16-1.47-0.11c-0.48-0.29-0.66-0.91-0.61-1.46c0.04-0.51,0.24-1.02,0.56-1.42
		c0.57-0.72,1.47-1.07,2.33-1.4c1.44-0.55,2.89-1.11,4.41-1.31c0.49-0.07,1.01-0.1,1.46-0.32c0.45-0.22,0.82-0.68,0.76-1.17
		c-0.27-0.49-0.99-0.37-1.53-0.23c-1.03,0.27-2.09,0.39-3.15,0.36c-0.61-0.02-1.23-0.08-1.84,0.01c-0.56,0.09-1.09,0.31-1.64,0.45
		c-0.9,0.23-1.87,0.24-2.69,0.67c-1.05,0.56-1.64,1.71-2.01,2.84c-0.18,0.56-0.34,1.16-0.74,1.58c-0.3,0.31-0.71,0.5-1.11,0.67
		c-0.72,0.32-1.73,0.57-2.32,1.12c-0.56,0.54-0.87,1.51-1.03,2.24c-0.4,1.8-0.02,3.69,1.09,5.17c0.33,0.42,0.73,0.81,1.2,1.07
		c0.46,0.26,0.98,0.39,1.5,0.46c1.55,0.21,3.14-0.12,4.59-0.72c1.45-0.6,2.77-1.46,4.06-2.35c0.52-0.36,1.04-0.73,1.51-1.16
		c0.55-0.52,1.01-1.12,1.46-1.72c1.13-1.53,2.17-3.11,3.14-4.74c0.96-1.62,1.85-3.39,1.8-5.28
		C312.96,317.51,312.68,318.01,312.4,318.48z"/>
	<path class="st0" d="M252.45,179.76c-2.88-1.44-5.47-2.46-8.61-3.2c-0.5,0.3-0.7,0.42-1.14,0.82c2.98,0.8,5.47,1.82,8.21,3.26
		C251.55,180.24,251.82,180.13,252.45,179.76z"/>
	<path class="st0" d="M248.81,182.1c-2.58-1.41-4.79-2.41-7.57-3.25c-0.44,0.37-0.45,0.41-0.78,0.84c2.61,0.9,4.69,1.97,7.06,3.34
		C248.05,182.6,248.24,182.51,248.81,182.1z"/>
	<path class="st0" d="M250.92,188.7c-4.58,4.45-8.26,9.97-10.54,16.36c0.64,0.7,1.34,1.34,2.08,1.94c0.27-0.77,0.54-1.54,0.84-2.31
		c2.21-5.55,5.42-10.4,9.37-14.42C252.09,189.73,251.52,189.23,250.92,188.7z"/>
	<path class="st0" d="M263,175.21c0,0-4.08-2.01-8.64-2.01c-3.48,0-5.91,0.51-8.69,2.15c3.28,0.67,5.63,1.59,8.67,3.06
		C257.36,176.94,259.69,175.88,263,175.21z"/>
	<path class="st0" d="M245.5,184.78c-2.21-1.37-4.52-2.51-6.93-3.41c-2.07,3.04-3.28,6.72-3.28,10.71c0,1.97,0.3,3.85,0.84,5.69
		c1.04-2.31,2.31-4.55,3.81-6.69C241.61,188.73,243.45,186.62,245.5,184.78z"/>
	<path class="st0" d="M223.51,190.7c-0.13,0.07-0.3,0.13-0.47,0.17c-1.04,0.33-2.61,0.33-4.25-0.33c1.17,1.5,3.04,2.24,4.62,2.24
		c0.54,0,1-0.1,1.5-0.23c1.51-0.37,2.51-0.47,4.05-0.17c0.47,0.07,0.87,0.2,1.17,0.43c-1.57,0.24-2.64,0.6-3.51,0.94
		c-1.57,0.7-2.31,1.27-3.04,1.81c-0.13,0.1-0.3,0.17-0.44,0.23c-1,0.5-2.54,0.77-4.25,0.33c1.37,1.34,3.34,1.74,4.88,1.5
		c0.54-0.1,0.97-0.27,1.47-0.47c1.41-0.6,2.38-0.87,3.98-0.8c0.44,0,0.87,0.07,1.21,0.27c-1.54,0.43-2.51,0.97-3.31,1.44
		c-1.47,0.94-2.11,1.64-2.74,2.27c-0.13,0.1-0.27,0.2-0.4,0.3c-0.9,0.64-2.38,1.14-4.15,0.97c1.57,1.11,3.58,1.21,5.08,0.74
		c0.5-0.17,0.9-0.4,1.37-0.67c1.3-0.84,2.24-1.24,3.78-1.44c0.47-0.07,0.87-0.07,1.24,0.07c-1.41,0.7-2.31,1.37-3.04,1.97
		c-1.27,1.14-1.81,1.91-2.34,2.64c-0.1,0.13-0.2,0.27-0.33,0.37c-0.8,0.77-2.17,1.5-3.95,1.64c1.74,0.84,3.71,0.6,5.12-0.1
		c0.47-0.23,0.84-0.53,1.24-0.87c1.21-1,2.04-1.57,3.55-2.01c0.43-0.13,0.84-0.2,1.24-0.13c-1.3,0.9-2.08,1.71-2.71,2.41
		c-1.1,1.34-1.47,2.21-1.91,3.01c-0.07,0.13-0.17,0.27-0.27,0.4c-0.67,0.9-1.94,1.84-3.65,2.24c1.84,0.54,3.78,0.03,5.05-0.9
		c0.43-0.3,0.74-0.67,1.07-1.07c1-1.17,1.77-1.84,3.18-2.51c0.44-0.24,0.84-0.33,1.21-0.33c-1.14,1.1-1.77,2.01-2.28,2.81
		c-0.87,1.47-1.14,2.38-1.44,3.25c-0.03,0.17-0.1,0.3-0.2,0.47c-0.5,0.97-1.61,2.11-3.25,2.74c1.91,0.27,3.75-0.54,4.85-1.64
		c0.37-0.37,0.63-0.8,0.9-1.24c0.8-1.34,1.44-2.11,2.74-2.98c0.37-0.3,0.74-0.47,1.14-0.5c-0.97,1.24-1.44,2.24-1.81,3.11
		c-0.64,1.61-0.77,2.54-0.91,3.45c-0.03,0.17-0.07,0.3-0.13,0.47c-0.37,1.04-1.27,2.34-2.78,3.25c1.91-0.03,3.58-1.14,4.52-2.41
		c0.33-0.44,0.5-0.87,0.7-1.34c0.6-1.44,1.11-2.31,2.28-3.38c0.3-0.33,0.64-0.6,1.04-0.7c-0.77,1.4-1.1,2.47-1.34,3.38
		c-0.37,1.71-0.33,2.64-0.33,3.55c0,0.17,0,0.33-0.03,0.5c-0.2,1.07-0.9,2.51-2.27,3.61c1.91-0.33,3.38-1.67,4.11-3.08
		c0.24-0.47,0.37-0.94,0.47-1.44c0.37-1.5,0.74-2.44,1.71-3.68c0.27-0.4,0.57-0.67,0.9-0.84c-0.5,1.47-0.67,2.58-0.74,3.51
		c-0.13,1.74,0.07,2.68,0.2,3.55c0.03,0.17,0.03,0.33,0.03,0.5c-0.03,1.1-0.5,2.61-1.67,3.95c1.84-0.64,3.08-2.17,3.58-3.68
		c0.17-0.5,0.2-0.97,0.23-1.5c0.13-1.54,0.33-2.54,1.1-3.92c0.2-0.4,0.47-0.74,0.77-0.97c-0.27,1.57-0.23,2.68-0.2,3.61
		c0.17,1.74,0.5,2.61,0.77,3.48c0.07,0.17,0.1,0.33,0.1,0.5c0.17,1.07-0.07,2.64-1,4.15c1.71-0.9,2.71-2.64,2.95-4.21
		c0.1-0.54,0.07-1,0-1.51c-0.1-1.57-0.07-2.58,0.5-4.05c0.13-0.44,0.3-0.8,0.6-1.07c-0.03,1.57,0.17,2.68,0.37,3.58
		c0.43,1.67,0.9,2.51,1.3,3.31c0.07,0.17,0.13,0.3,0.17,0.47c0.33,1.07,0.33,2.64-0.37,4.25c1.54-1.14,2.28-3.01,2.28-4.58
		c0-0.54-0.1-1-0.23-1.51c-0.37-1.54-0.47-2.51-0.17-4.08c0.07-0.44,0.2-0.84,0.44-1.14c0.2,1.57,0.57,2.61,0.94,3.48
		c0.67,1.61,1.27,2.34,1.81,3.08c0.1,0.13,0.17,0.27,0.24,0.43c0.5,0.97,0.77,2.54,0.33,4.25c1.34-1.37,1.74-3.35,1.51-4.88
		c-0.1-0.54-0.27-0.97-0.47-1.47c-0.6-1.44-0.87-2.41-0.8-3.98c0-0.47,0.07-0.87,0.27-1.2c0.44,1.5,0.97,2.51,1.44,3.31
		c0.94,1.44,1.64,2.08,2.28,2.75c0.1,0.1,0.2,0.23,0.3,0.37c0.64,0.9,1.14,2.41,0.97,4.18c1.1-1.57,1.21-3.58,0.74-5.09
		c-0.17-0.5-0.4-0.9-0.7-1.37c-0.8-1.34-1.21-2.24-1.41-3.81c-0.07-0.44-0.07-0.87,0.07-1.24c0.7,1.44,1.37,2.34,1.97,3.04
		c1.14,1.3,1.91,1.81,2.64,2.38c0.13,0.1,0.27,0.2,0.37,0.33c0.77,0.77,1.51,2.17,1.64,3.95c0.84-1.74,0.6-3.71-0.1-5.12
		c-0.23-0.5-0.54-0.87-0.87-1.27c-1.04-1.17-1.57-2.01-2.01-3.51c-0.13-0.44-0.2-0.87-0.13-1.24c0.9,1.3,1.71,2.07,2.41,2.68
		c1.34,1.1,2.21,1.5,3.01,1.94c0.13,0.07,0.27,0.17,0.4,0.27c0.9,0.64,1.84,1.91,2.21,3.65c0.57-1.84,0.03-3.78-0.87-5.05
		c-0.3-0.43-0.67-0.74-1.07-1.1c-1.17-1-1.84-1.74-2.51-3.18c-0.23-0.4-0.37-0.8-0.33-1.2c1.1,1.17,2.01,1.81,2.81,2.31
		c1.47,0.87,2.38,1.14,3.25,1.41c0.17,0.07,0.3,0.13,0.47,0.2c0.97,0.54,2.11,1.64,2.74,3.28c0.27-1.91-0.54-3.75-1.64-4.85
		c-0.4-0.4-0.8-0.64-1.24-0.9c-1.34-0.84-2.11-1.47-2.98-2.78c-0.3-0.37-0.47-0.74-0.54-1.1c1.27,0.94,2.28,1.44,3.15,1.81
		c1.61,0.64,2.54,0.74,3.45,0.9c0.17,0.03,0.3,0.07,0.47,0.1c1.04,0.37,2.34,1.27,3.25,2.81c-0.03-1.94-1.14-3.61-2.41-4.55
		c-0.43-0.3-0.87-0.47-1.34-0.7c-1.44-0.57-2.31-1.07-3.38-2.24c-0.33-0.3-0.6-0.67-0.7-1.04c1.41,0.77,2.48,1.07,3.38,1.3
		c1.67,0.37,2.64,0.33,3.55,0.37c0.17,0,0.33,0,0.5,0.03c1.07,0.2,2.51,0.9,3.62,2.24c-0.33-1.87-1.67-3.38-3.08-4.08
		c-0.47-0.27-0.94-0.37-1.44-0.5c-1.5-0.37-2.44-0.7-3.68-1.67c-0.4-0.27-0.7-0.57-0.84-0.94c1.47,0.54,2.58,0.7,3.51,0.77
		c1.74,0.1,2.68-0.07,3.55-0.2c0.17-0.03,0.33-0.03,0.5-0.03c1.11,0.03,2.61,0.47,3.95,1.64c-0.63-1.81-2.17-3.08-3.68-3.55
		c-0.5-0.17-0.97-0.2-1.51-0.27c-1.54-0.13-2.54-0.33-3.91-1.11c-0.4-0.2-0.74-0.43-0.97-0.77c1.57,0.3,2.68,0.27,3.61,0.2
		c1.74-0.17,2.61-0.47,3.48-0.77c0.17-0.03,0.3-0.07,0.47-0.1c1.11-0.13,2.68,0.07,4.15,1.04c-0.9-1.71-2.64-2.71-4.18-2.98
		c-0.54-0.07-1-0.04-1.54,0c-1.54,0.13-2.54,0.07-4.02-0.47c-0.43-0.13-0.8-0.33-1.07-0.6c1.57,0.03,2.68-0.17,3.58-0.37
		c1.67-0.44,2.51-0.9,3.31-1.31c0.17-0.07,0.3-0.13,0.47-0.2c1.07-0.3,2.64-0.33,4.25,0.37c-1.14-1.54-3.01-2.24-4.58-2.24
		c-0.54,0-1,0.1-1.5,0.23c-1.54,0.33-2.51,0.47-4.08,0.13c-0.43-0.03-0.84-0.17-1.14-0.44c1.57-0.2,2.61-0.57,3.48-0.9
		c1.61-0.7,2.34-1.27,3.08-1.81c0.13-0.1,0.27-0.17,0.44-0.27c0.97-0.47,2.54-0.74,4.25-0.3c-1.37-1.34-3.34-1.74-4.88-1.5
		c-0.54,0.07-0.97,0.27-1.47,0.47c-1.44,0.57-2.41,0.84-3.98,0.8c-0.47,0-0.87-0.07-1.21-0.27c1.51-0.43,2.51-0.97,3.31-1.47
		c1.44-0.9,2.07-1.61,2.74-2.24c0.1-0.13,0.23-0.24,0.37-0.33c0.9-0.6,2.41-1.14,4.15-0.97c-1.57-1.11-3.55-1.21-5.05-0.7
		c-0.5,0.13-0.9,0.4-1.37,0.67c-1.34,0.8-2.24,1.24-3.81,1.41c-0.43,0.1-0.87,0.1-1.24-0.03c1.44-0.7,2.34-1.37,3.04-1.97
		c1.31-1.14,1.81-1.94,2.38-2.64c0.1-0.17,0.2-0.27,0.3-0.4c0.8-0.74,2.21-1.5,3.98-1.61c-1.74-0.84-3.75-0.64-5.15,0.07
		c-0.47,0.27-0.84,0.57-1.24,0.9c-1.17,1-2.01,1.57-3.51,1.97c-0.47,0.17-0.87,0.24-1.24,0.17c1.3-0.9,2.08-1.71,2.68-2.44
		c1.1-1.31,1.5-2.17,1.94-2.98c0.07-0.17,0.13-0.3,0.27-0.43c0.64-0.87,1.91-1.81,3.65-2.21c-1.84-0.57-3.78-0.03-5.05,0.87
		c-0.44,0.33-0.74,0.7-1.11,1.11c-1,1.17-1.74,1.84-3.18,2.51c-0.4,0.2-0.8,0.33-1.21,0.33c1.17-1.1,1.81-2.01,2.31-2.81
		c0.87-1.51,1.1-2.41,1.41-3.25c0.07-0.17,0.13-0.33,0.2-0.47c0.54-0.97,1.64-2.11,3.28-2.78c-1.91-0.27-3.75,0.57-4.85,1.67
		c-0.4,0.37-0.63,0.77-0.9,1.24c-0.84,1.3-1.47,2.11-2.78,2.98c-0.37,0.27-0.74,0.47-1.14,0.5c0.97-1.24,1.47-2.24,1.84-3.11
		c0.64-1.61,0.74-2.54,0.91-3.45c0.03-0.17,0.07-0.33,0.1-0.5c0.37-1.04,1.27-2.31,2.81-3.21c-1.94,0.03-3.61,1.14-4.55,2.38
		c-0.3,0.44-0.5,0.87-0.7,1.37c-0.57,1.44-1.07,2.31-2.24,3.38c-0.33,0.33-0.67,0.57-1.04,0.67c0.77-1.37,1.07-2.44,1.31-3.34
		c0.37-1.71,0.33-2.64,0.37-3.55c0-0.17,0-0.33,0.03-0.5c0.2-1.07,0.9-2.51,2.24-3.65c-1.87,0.33-3.38,1.71-4.08,3.08
		c-0.27,0.5-0.37,0.94-0.5,1.47c-0.37,1.51-0.7,2.44-1.67,3.68c-0.27,0.37-0.57,0.67-0.94,0.84c0.54-1.5,0.67-2.61,0.77-3.55
		c0.1-1.71-0.07-2.64-0.2-3.55c-0.03-0.17-0.03-0.33-0.03-0.5c0-1.1,0.47-2.61,1.64-3.92c-1.81,0.6-3.08,2.17-3.55,3.68
		c-0.2,0.5-0.24,0.97-0.27,1.5c-0.13,1.54-0.33,2.51-1.1,3.92c-0.2,0.4-0.44,0.74-0.77,0.97c0.3-1.57,0.27-2.68,0.2-3.61
		c-0.17-1.74-0.5-2.61-0.77-3.48c-0.04-0.17-0.07-0.33-0.1-0.5c-0.13-1.07,0.07-2.64,1-4.15c-1.67,0.9-2.67,2.64-2.94,4.21
		c-0.07,0.5-0.03,0.97,0,1.51c0.13,1.57,0.07,2.54-0.47,4.05c-0.13,0.44-0.33,0.8-0.6,1.07c0.03-1.57-0.17-2.68-0.37-3.61
		c-0.43-1.67-0.9-2.48-1.3-3.31c-0.07-0.13-0.13-0.3-0.2-0.44c-0.3-1.07-0.33-2.64,0.37-4.28c-1.54,1.17-2.24,3.04-2.24,4.62
		c-0.03,0.54,0.1,1,0.24,1.5c0.33,1.51,0.43,2.51,0.13,4.05c-0.03,0.47-0.17,0.87-0.43,1.17c-0.2-1.57-0.57-2.61-0.9-3.51
		c-0.7-1.57-1.27-2.31-1.81-3.04c-0.1-0.13-0.17-0.27-0.27-0.43c-0.47-1-0.74-2.54-0.3-4.25c-1.34,1.37-1.74,3.35-1.51,4.88
		c0.07,0.54,0.27,0.97,0.47,1.47c0.57,1.44,0.84,2.41,0.77,3.98c0.03,0.47-0.03,0.87-0.23,1.21c-0.47-1.54-0.97-2.51-1.47-3.31
		c-0.9-1.47-1.61-2.11-2.24-2.74c-0.13-0.13-0.23-0.24-0.33-0.4c-0.6-0.9-1.14-2.38-0.97-4.15c-1.1,1.57-1.21,3.58-0.7,5.08
		c0.13,0.5,0.4,0.91,0.67,1.37c0.8,1.3,1.24,2.24,1.41,3.78c0.1,0.47,0.1,0.9-0.07,1.27c-0.67-1.44-1.34-2.34-1.94-3.04l0,0
		c-1.14-1.3-1.94-1.84-2.67-2.38c-0.13-0.1-0.24-0.2-0.37-0.33c-0.77-0.8-1.51-2.17-1.61-3.95c-0.84,1.74-0.63,3.71,0.07,5.12
		c0.23,0.5,0.57,0.84,0.9,1.24c1,1.2,1.54,2.04,1.97,3.55c0.17,0.44,0.23,0.87,0.13,1.24c-0.87-1.3-1.67-2.07-2.41-2.71
		c-1.3-1.1-2.17-1.47-2.98-1.91c-0.17-0.07-0.3-0.17-0.44-0.27c-0.87-0.67-1.81-1.94-2.21-3.65c-0.57,1.84-0.03,3.78,0.87,5.05
		c0.33,0.43,0.7,0.74,1.1,1.07c1.17,1.04,1.84,1.77,2.51,3.21c0.2,0.4,0.33,0.8,0.33,1.17c-1.1-1.14-2.01-1.77-2.81-2.27
		c-1.5-0.87-2.41-1.14-3.28-1.44c-0.13-0.04-0.3-0.1-0.43-0.17c-0.97-0.54-2.11-1.64-2.78-3.28c-0.27,1.91,0.57,3.75,1.67,4.85
		c0.37,0.37,0.77,0.64,1.24,0.91c1.31,0.8,2.11,1.44,2.98,2.74c0.27,0.37,0.47,0.77,0.5,1.14c-1.27-0.97-2.28-1.44-3.11-1.81
		c-1.61-0.63-2.54-0.74-3.45-0.9c-0.17-0.03-0.33-0.07-0.5-0.13c-1.04-0.37-2.31-1.27-3.21-2.78c0.04,1.91,1.14,3.58,2.38,4.52
		c0.43,0.33,0.87,0.5,1.37,0.7c1.44,0.6,2.31,1.1,3.38,2.28c0.33,0.3,0.57,0.63,0.67,1.04c-1.37-0.77-2.44-1.1-3.38-1.34
		c-1.67-0.37-2.61-0.33-3.51-0.33c-0.17,0-0.33,0-0.5-0.03c-1.11-0.2-2.51-0.9-3.65-2.28c0.33,1.91,1.71,3.38,3.08,4.12
		c0.5,0.23,0.94,0.37,1.47,0.47c1.5,0.37,2.44,0.74,3.68,1.71c0.37,0.27,0.67,0.57,0.84,0.94c-1.51-0.54-2.61-0.7-3.55-0.77
		c-1.71-0.13-2.64,0.07-3.55,0.2c-0.17,0.03-0.33,0.03-0.5,0.03c-1.1-0.03-2.61-0.5-3.91-1.67c0.6,1.84,2.17,3.08,3.68,3.58
		c0.5,0.17,0.97,0.2,1.51,0.23c1.54,0.13,2.51,0.33,3.88,1.1c0.44,0.2,0.77,0.47,0.97,0.8c-1.54-0.3-2.68-0.27-3.62-0.23
		c-1.71,0.17-2.58,0.5-3.45,0.77c-0.17,0.07-0.33,0.1-0.5,0.13c-1.1,0.13-2.64-0.1-4.15-1.04c0.9,1.71,2.64,2.71,4.18,2.94
		c0.54,0.1,1,0.07,1.54,0c1.54-0.1,2.54-0.07,4.05,0.5c0.43,0.13,0.8,0.3,1.07,0.6c-1.61-0.03-2.68,0.17-3.61,0.37
		C225.15,189.83,224.35,190.3,223.51,190.7z M254.26,171.43c11.78,0,21.38,9.6,21.38,21.38c0,11.78-9.6,21.38-21.38,21.38
		c-11.78,0-21.38-9.6-21.38-21.38C232.88,181.03,242.48,171.43,254.26,171.43z"/>
	<path class="st0" d="M247.3,185.92c-2.68,2.44-5.09,5.32-7.09,8.57c-1.17,1.94-2.17,3.92-3.01,5.92c0.4,0.84,0.9,1.67,1.44,2.47
		c2.31-6.16,5.96-11.44,10.47-15.66C248.54,186.79,247.9,186.35,247.3,185.92z"/>
	<path class="st0" d="M257.82,180.64c2.71-1.44,5.37-2.46,8.39-3.27c0,0-0.64-0.53-1.14-0.87c-3.15,0.77-5.92,1.78-8.8,3.25
		C256.87,180.13,257.19,180.24,257.82,180.64z"/>
	<path class="st0" d="M254.36,188.46c0.5-0.44,1-0.89,1.54-1.3c-0.53-0.44-1.04-0.86-1.54-1.24c-0.53,0.38-1.04,0.83-1.54,1.24
		C253.36,187.57,253.86,188.02,254.36,188.46z"/>
	<path class="st0" d="M256.07,190.27c3.95,4.02,7.16,8.87,9.33,14.42c0.3,0.77,0.6,1.54,0.87,2.31c0.74-0.6,1.41-1.24,2.04-1.94
		c-2.24-6.39-5.92-11.91-10.51-16.36C257.21,189.23,256.64,189.73,256.07,190.27z"/>
	<path class="st0" d="M261.31,183.05c2.41-1.37,4.61-2.53,7.22-3.43c-0.33-0.43-0.5-0.46-0.9-0.87c-2.78,0.87-5.16,1.95-7.71,3.35
		C260.45,182.51,260.77,182.58,261.31,183.05z"/>
	<path class="st0" d="M254.36,192.01c-2.58,2.74-4.79,5.89-6.59,9.4c-1.24,2.34-2.21,4.79-2.94,7.23c2.81,1.57,6.06,2.51,9.54,2.51
		c3.48,0,6.72-0.94,9.54-2.51c-0.74-2.44-1.71-4.88-2.94-7.23C259.15,197.9,256.9,194.75,254.36,192.01z"/>
	<path class="st0" d="M252.33,184.42c-0.55-0.38-1.11-0.73-1.66-1.08c-0.5,0.38-0.99,0.76-1.46,1.17c0.55,0.35,1.08,0.73,1.6,1.11
		c0.5-0.41,0.99-0.82,1.49-1.19H252.33z"/>
	<path class="st0" d="M254.36,180.9c-0.56,0.32-1.12,0.68-1.68,1.04c0.53,0.32,1.12,0.68,1.68,1.04c0.56-0.36,1.09-0.71,1.66-1.04
		C255.45,181.58,254.92,181.23,254.36,180.9z"/>
	<path class="st0" d="M261.42,185.92c-0.63,0.43-1.24,0.87-1.84,1.34c4.55,4.21,8.2,9.47,10.5,15.62c0.54-0.8,1.04-1.6,1.44-2.47
		c-0.84-2.01-1.84-3.98-3.01-5.89C266.51,191.27,264.1,188.39,261.42,185.92z"/>
	<path class="st0" d="M268.75,191.07c1.54,2.14,2.81,4.38,3.81,6.69c0.57-1.81,0.87-3.71,0.87-5.69c0-3.98-1.21-7.66-3.28-10.74
		c-2.41,0.94-4.75,2.08-6.96,3.45C265.24,186.62,267.11,188.73,268.75,191.07z"/>
	<path class="st0" d="M259.52,184.48c-0.5-0.38-0.99-0.76-1.49-1.14c-0.55,0.35-1.08,0.7-1.63,1.08c0.53,0.38,1.02,0.76,1.52,1.17
		C258.44,185.21,258.96,184.86,259.52,184.48z"/>
	<path class="st0" d="M250,100c-82.84,0-150,67.16-150,150c0,82.84,67.16,150,150,150s150-67.16,150-150
		C400,167.16,332.84,100,250,100z M250,385c-74.44,0-135-60.56-135-135s60.56-135,135-135s135,60.56,135,135S324.44,385,250,385z"/>
	<path class="st0" d="M250,141.69c-59.72,0-108.3,48.58-108.3,108.3c0,59.72,48.58,108.3,108.3,108.3s108.3-48.58,108.3-108.3
		C358.3,190.28,309.72,141.69,250,141.69z M250,352.29c-56.41,0-102.3-45.89-102.3-102.3c0-56.41,45.89-102.3,102.3-102.3
		s102.3,45.89,102.3,102.3C352.3,306.4,306.41,352.29,250,352.29z"/>
	<path class="st0" d="M130.27,260.13c1.79-0.06,3.25-0.68,4.37-1.84c1.13-1.16,1.66-2.64,1.6-4.44c-0.06-1.81-0.7-3.25-1.9-4.34
		s-2.7-1.6-4.5-1.53l-2.62,0.09c-1.78,0.06-3.23,0.68-4.37,1.86c-1.13,1.18-1.66,2.67-1.6,4.48c0.06,1.79,0.7,3.23,1.91,4.3
		c1.21,1.07,2.7,1.58,4.49,1.52L130.27,260.13z M130.24,251.61c-0.12-0.27-0.29-0.51-0.5-0.71l0.21-0.01
		c1.15-0.04,2.1,0.2,2.85,0.74c0.75,0.53,1.14,1.3,1.17,2.3c0.03,0.94-0.27,1.7-0.9,2.27s-1.48,0.91-2.54,1
		c-0.3-0.08-0.56-0.25-0.78-0.52c-0.22-0.27-0.34-0.55-0.35-0.85c-0.01-0.41,0.16-0.93,0.53-1.56c0.36-0.62,0.54-1.21,0.52-1.77
		C130.43,252.18,130.36,251.88,130.24,251.61z M124.71,256.59c-0.75-0.53-1.14-1.28-1.17-2.27c-0.03-1,0.3-1.8,1.01-2.39
		s1.62-0.91,2.76-0.95l0.36-0.01c0.22,0.15,0.4,0.35,0.54,0.59c0.14,0.24,0.21,0.48,0.22,0.7c0.01,0.41-0.16,0.95-0.52,1.64
		c-0.36,0.68-0.53,1.25-0.52,1.7c0.01,0.37,0.1,0.69,0.26,0.98s0.37,0.52,0.64,0.71l-0.75,0.03
		C126.4,257.36,125.46,257.11,124.71,256.59z"/>
	<path class="st0" d="M125.19,245.24l0.06,0l0.23-2.83c-0.55-0.04-0.98-0.32-1.29-0.82c-0.31-0.51-0.44-1.12-0.38-1.85
		c0.07-0.93,0.31-1.62,0.72-2.07c0.41-0.45,0.89-0.66,1.45-0.62c0.64,0.05,1.13,0.31,1.46,0.78c0.32,0.47,0.45,1.16,0.38,2.07
		l-0.16,1.97l2.19,0.17l0.16-1.97c0.07-0.96,0.31-1.67,0.7-2.13c0.4-0.46,0.98-0.66,1.74-0.6c0.61,0.05,1.08,0.36,1.43,0.94
		c0.35,0.58,0.48,1.34,0.41,2.29c-0.07,0.8-0.31,1.44-0.74,1.91c-0.43,0.48-0.92,0.69-1.49,0.65l-0.22,2.83l0.06,0.01
		c1.36,0.15,2.44-0.31,3.24-1.36c0.8-1.05,1.26-2.35,1.38-3.88c0.14-1.78-0.12-3.25-0.79-4.41c-0.67-1.17-1.67-1.8-3.01-1.91
		c-0.83-0.07-1.55,0.11-2.16,0.52c-0.61,0.41-1.09,1.04-1.44,1.87c-0.26-0.78-0.64-1.41-1.16-1.89c-0.52-0.48-1.11-0.74-1.77-0.79
		c-1.33-0.11-2.4,0.33-3.2,1.3c-0.8,0.98-1.27,2.35-1.41,4.12c-0.12,1.52,0.15,2.84,0.81,3.94S123.98,245.18,125.19,245.24z"/>
	<polygon class="st0" points="137.75,229.31 138.31,226.44 133.27,225.46 124.94,218.77 124.34,221.91 130.33,226.31 130.32,226.37 
		123.12,228.22 122.51,231.37 132.57,228.31 	"/>
	<polygon class="st0" points="140.41,217.78 134.64,215.95 136.44,210.29 142.21,212.13 143.1,209.34 129.21,204.93 128.32,207.71 
		134.29,209.61 132.49,215.27 126.52,213.37 125.64,216.15 139.53,220.57 	"/>
	<path class="st0" d="M138.59,203.43c1.11-0.57,2.03-1.67,2.78-3.29c0.18-0.39,0.36-0.85,0.53-1.37c0.17-0.52,0.31-1,0.39-1.45
		l5.11,2.33l1.22-2.67l-13.26-6.05l-1.22,2.67l6.1,2.78c-0.09,0.44-0.22,0.93-0.4,1.46c-0.18,0.53-0.35,0.98-0.53,1.36
		c-0.39,0.86-0.84,1.41-1.34,1.65s-1.19,0.16-2.05-0.24l-4.13-1.88l-1.21,2.66l4.13,1.88C136.19,203.94,137.47,204,138.59,203.43z"
		/>
	<path class="st0" d="M142.2,190.71l2.24,1.37c1.53,0.93,3.08,1.23,4.66,0.88c1.58-0.35,2.84-1.29,3.78-2.83
		c0.94-1.54,1.21-3.1,0.81-4.67c-0.41-1.57-1.37-2.82-2.9-3.76l-2.24-1.37c-1.52-0.93-3.08-1.22-4.67-0.86
		c-1.59,0.36-2.86,1.3-3.8,2.85c-0.93,1.53-1.19,3.08-0.78,4.64C139.72,188.53,140.68,189.78,142.2,190.71z M148.79,185.81
		c0.17-0.28,0.28-0.57,0.33-0.86c0.05-0.3,0.04-0.59-0.03-0.87l0.18,0.11c0.98,0.6,1.64,1.33,1.97,2.19
		c0.33,0.86,0.23,1.71-0.29,2.57c-0.49,0.8-1.16,1.27-2.01,1.4s-1.73-0.06-2.67-0.57c-0.21-0.23-0.33-0.51-0.36-0.87
		c-0.03-0.35,0.02-0.65,0.18-0.9c0.21-0.35,0.65-0.69,1.3-1.01C148.03,186.68,148.5,186.28,148.79,185.81z M142.03,183.52
		c0.53-0.85,1.24-1.33,2.16-1.44c0.92-0.11,1.86,0.14,2.83,0.73l0.31,0.19c0.1,0.25,0.14,0.51,0.12,0.79
		c-0.02,0.28-0.09,0.51-0.21,0.71c-0.21,0.35-0.66,0.71-1.34,1.08s-1.13,0.75-1.36,1.13c-0.19,0.31-0.3,0.63-0.33,0.95
		c-0.03,0.32,0.02,0.64,0.14,0.95l-0.64-0.39c-0.97-0.59-1.62-1.31-1.95-2.16C141.42,185.2,141.51,184.36,142.03,183.52z"/>
	<path class="st0" d="M161.19,177.89l-1.76-2.79l3.07-3.59l3.03,1.29l1.98-2.32l-14.26-5.74l-1.94,2.28l7.9,13.2L161.19,177.89z
		 M155.3,168.5l0.04-0.05l4.95,2.11l-2.14,2.51L155.3,168.5z"/>
	<polygon class="st0" points="161.36,159.41 169.91,168.28 172.02,166.25 163.46,157.38 166.46,154.49 164.89,152.87 156.84,160.64 
		158.4,162.26 	"/>
	<path class="st0" d="M176.66,162.06l-1.19-3.07l3.7-2.94l2.73,1.84l2.39-1.9l-12.91-8.36l-2.34,1.86l5.23,14.47L176.66,162.06z
		 M172.73,151.68l4.46,3.02l-2.58,2.05l-1.93-5.03L172.73,151.68z"/>
	<path class="st0" d="M179.01,139.42c0.81,0.12,1.67-0.09,2.58-0.65c0.89-0.56,1.46-1.23,1.71-2.02c0.24-0.79,0.13-1.53-0.35-2.23
		l-0.05-0.04l-1.82,1.13c0.19,0.3,0.25,0.6,0.2,0.9c-0.05,0.3-0.26,0.56-0.61,0.78c-0.37,0.23-0.7,0.3-0.99,0.22
		c-0.29-0.08-0.53-0.28-0.72-0.58l-1.81,1.13l0.01,0.06C177.58,138.86,178.19,139.29,179.01,139.42z"/>
	<polygon class="st0" points="184.95,149.85 179.81,141.59 177.34,143.13 185.04,155.5 187.51,153.96 187.36,142.57 187.42,142.55 
		192.56,150.82 195.04,149.28 187.34,136.9 184.86,138.45 185.01,149.82 	"/>
	<path class="st0" d="M201.87,145.94c1.53-0.68,2.56-1.62,3.1-2.83c0.55-1.21,0.53-2.45-0.04-3.73c-0.56-1.27-1.48-2.1-2.73-2.49
		c-1.26-0.4-2.65-0.25-4.18,0.43l-2.29,1.02l-2.09-4.68l-2.67,1.19l5.94,13.31L201.87,145.94z M198.93,139.37
		c0.75-0.33,1.42-0.38,2.02-0.13c0.6,0.25,1.03,0.68,1.31,1.3c0.29,0.64,0.33,1.28,0.12,1.91c-0.21,0.62-0.69,1.11-1.43,1.44
		l-2.29,1.02l-2.02-4.52L198.93,139.37z"/>
	
		<rect x="204.97" y="128.64" transform="matrix(0.913 -0.4079 0.4079 0.913 -37.4886 96.0171)" class="st0" width="2.92" height="14.57"/>
	<polygon class="st0" points="215.77,140.47 214.08,134.66 219.79,133.01 221.47,138.83 224.28,138.01 220.23,124.01 217.42,124.82 
		219.16,130.84 213.46,132.49 211.72,126.47 208.91,127.28 212.96,141.29 	"/>
	<path class="st0" d="M236.75,135.97c1.65-0.2,2.92-0.8,3.8-1.8s1.23-2.19,1.06-3.58c-0.17-1.38-0.79-2.44-1.88-3.19
		c-1.09-0.75-2.46-1.02-4.13-0.82l-2.48,0.3l-0.35-2.85l6.53-0.8l-0.27-2.23l-9.43,1.15l1.77,14.47L236.75,135.97z M235.88,128.83
		c0.82-0.1,1.47,0.06,1.97,0.47c0.5,0.41,0.79,0.96,0.87,1.63c0.09,0.7-0.06,1.32-0.44,1.86c-0.38,0.54-0.98,0.86-1.79,0.95
		l-2.48,0.3l-0.6-4.92L235.88,128.83z"/>
	<path class="st0" d="M246.55,132.07l4.72-0.08l1.04,3.13l3.06-0.05l-5.13-14.49l-2.99,0.05l-4.68,14.65l3.05-0.05L246.55,132.07z
		 M248.77,124.6l0.06,0l1.69,5.11l-3.29,0.05L248.77,124.6z"/>
	<polygon class="st0" points="260.4,123.21 266.95,123.79 267.15,121.55 257.68,120.71 256.39,135.23 259.3,135.49 	"/>
	<polygon class="st0" points="285.25,125.1 282.39,124.48 279.32,138.72 282.17,139.34 	"/>
	<path class="st0" d="M276.86,136.84c1.15-0.65,1.88-1.66,2.17-3.03c0.29-1.36,0.05-2.57-0.73-3.63c-0.78-1.06-1.99-1.77-3.63-2.12
		l-2.45-0.53l1.08-5.01l-2.86-0.62l-3.08,14.25l5.3,1.15C274.31,137.64,275.7,137.49,276.86,136.84z M271.76,129.73l2.45,0.53
		c0.8,0.17,1.37,0.54,1.7,1.09c0.33,0.55,0.43,1.16,0.29,1.83c-0.15,0.69-0.49,1.23-1.03,1.61c-0.54,0.38-1.21,0.49-2.01,0.31
		l-2.45-0.53L271.76,129.73z"/>
	<polygon class="st0" points="289.91,142.12 294.01,130.5 297.93,131.88 298.68,129.76 288.13,126.04 287.38,128.16 291.25,129.53 
		287.16,141.15 	"/>
	<polygon class="st0" points="297.95,145.42 300.59,146.66 305.84,135.52 309.61,137.29 310.57,135.26 300.45,130.48 299.48,132.52 
		303.2,134.27 	"/>
	<path class="st0" d="M306.16,149.52l2.45-2.2l4.06,2.42l-0.75,3.21l2.62,1.56l3.25-15.03l-2.57-1.53l-11.68,10.01L306.16,149.52z
		 M314.42,142.14l0.05,0.03l-1.24,5.24l-2.83-1.68L314.42,142.14z"/>
	<polygon class="st0" points="317.71,156.94 325.07,147.07 330.34,151 331.69,149.19 324.07,143.51 315.36,155.2 	"/>
	<path class="st0" d="M328.07,165.42c1.21,1.15,2.47,1.75,3.8,1.8c1.33,0.05,2.47-0.43,3.44-1.45c0.96-1,1.38-2.16,1.27-3.47
		c-0.11-1.31-0.77-2.55-1.98-3.71l-1.81-1.73l3.55-3.7l-2.12-2.02l-10.07,10.53L328.07,165.42z M333.04,160.22
		c0.59,0.57,0.88,1.17,0.88,1.82c0,0.65-0.24,1.22-0.71,1.71c-0.49,0.51-1.06,0.79-1.72,0.84c-0.66,0.05-1.28-0.21-1.87-0.78
		l-1.81-1.73l3.42-3.58L333.04,160.22z"/>
	
		<rect x="331.78" y="164.39" transform="matrix(0.691 -0.7228 0.7228 0.691 -15.1226 296.3236)" class="st0" width="14.57" height="2.92"/>
	<path class="st0" d="M342.96,182.11c0.99,1.34,2.13,2.15,3.43,2.43c1.3,0.28,2.51,0,3.64-0.83c1.12-0.82,1.74-1.89,1.85-3.21
		c0.12-1.31-0.31-2.64-1.31-3.99l-1.48-2.02l2.32-1.7l3.9,5.3l1.81-1.34l-5.63-7.65l-11.74,8.64L342.96,182.11z M347.27,175.83
		l1.48,2.02c0.49,0.66,0.67,1.31,0.56,1.95c-0.12,0.63-0.45,1.16-1,1.56c-0.57,0.42-1.18,0.6-1.84,0.53
		c-0.66-0.07-1.23-0.43-1.71-1.1l-1.49-2.02L347.27,175.83z"/>
	<path class="st0" d="M348.52,190.42l4.57-2.65l1.33,2.3c0.84,1.45,1.87,2.38,3.08,2.78c1.22,0.41,2.42,0.26,3.63-0.44
		c1.21-0.7,1.94-1.68,2.2-2.94c0.26-1.26-0.03-2.61-0.88-4.06l-2.79-4.82l-12.61,7.3L348.52,190.42z M359.19,184.24l1.33,2.3
		c0.41,0.71,0.53,1.36,0.33,1.95c-0.18,0.59-0.58,1.06-1.19,1.41c-0.6,0.35-1.19,0.45-1.78,0.3c-0.6-0.14-1.1-0.56-1.5-1.27
		l-1.33-2.3L359.19,184.24z"/>
	<polygon class="st0" points="354.4,201.39 365.68,202.9 365.7,202.96 356.77,206.84 357.92,209.52 371.3,203.72 370.14,201.04 
		358.86,199.51 358.84,199.46 367.77,195.58 366.61,192.91 353.24,198.71 	"/>
	<polygon class="st0" points="359.51,214.5 371.28,210.87 373.22,217.15 375.37,216.49 372.58,207.41 358.64,211.71 	"/>
	<path class="st0" d="M361.73,222.17l3.28,0.3l1,4.62l-2.86,1.63l0.64,2.98l13.21-7.86l-0.63-2.92l-15.28-1.73L361.73,222.17z
		 M372.76,223.18l0.01,0.06l-4.68,2.66l-0.69-3.22L372.76,223.18z"/>
	<path class="st0" d="M365.45,246.23l1.98-0.18l-0.16-1.72l12.28-1.15l-0.88-9.36l-5.97,0.23c-2.22,0.11-3.84,0.04-4.89-0.2
		s-1.6-0.73-1.67-1.49l-0.08-0.85l-5.8,0.54l0.27,2.9l3.57-0.33l0.81,8.73l-3.57,0.33l0.27,2.91l3.49-0.33l-0.07,2.9l3.12,1.05
		l-0.11,4.72l-3.16,0.92l-0.07,3.05l14.68-4.55l0.07-2.99L365.45,246.23z M369.24,236.84c1.08,0.14,2.32,0.18,3.73,0.11l3.71-0.15
		l0.35,3.68l-10.04,0.94l-0.5-5.31C367.25,236.46,368.16,236.7,369.24,236.84z M375.54,252.8l-5.17,1.49l0.07-3.29l5.1,1.74
		L375.54,252.8z"/>
	<polygon class="st0" points="160.73,320.72 153.57,321.14 153.07,320.48 157.82,316.89 156.05,314.56 144.44,323.35 146.2,325.68 
		151.05,322.01 151.7,322.86 149.28,329.75 151.52,332.71 154.46,323.67 162.91,323.61 	"/>
	<path class="st0" d="M167.12,336.78c1.3-1.22,1.98-2.65,2.05-4.28c0.07-1.63-0.52-3.1-1.76-4.42c-1.23-1.3-2.66-1.96-4.28-1.97
		c-1.62-0.01-3.08,0.6-4.37,1.82l-1.91,1.8c-1.3,1.23-1.99,2.65-2.07,4.27c-0.08,1.62,0.5,3.08,1.74,4.39c1.24,1.31,2.67,1.98,4.3,2
		c1.62,0.02,3.08-0.59,4.39-1.82L167.12,336.78z M163.21,336.47c-0.84,0.79-1.72,1.24-2.63,1.33c-0.91,0.09-1.71-0.23-2.4-0.95
		c-0.69-0.72-0.95-1.53-0.8-2.44c0.14-0.9,0.64-1.75,1.48-2.54l1.92-1.81c0.83-0.78,1.69-1.22,2.6-1.32c0.91-0.1,1.7,0.21,2.38,0.93
		c0.69,0.73,0.96,1.55,0.82,2.46c-0.14,0.91-0.62,1.76-1.45,2.54L163.21,336.47z"/>
	<path class="st0" d="M178.12,344.45c0.9-1.07,1.26-2.23,1.07-3.51c-0.18-1.27-0.91-2.45-2.19-3.53l-4.26-3.6l-9.4,11.14l2.23,1.89
		l3.41-4.04l2.03,1.71c1.28,1.08,2.56,1.61,3.84,1.58C176.13,346.07,177.22,345.52,178.12,344.45z M172.47,342.79l-2.03-1.71
		l3.09-3.66l2.03,1.71c0.63,0.53,0.95,1.1,0.98,1.72c0.02,0.62-0.19,1.19-0.64,1.73c-0.44,0.53-0.97,0.82-1.58,0.89
		C173.7,343.55,173.09,343.32,172.47,342.79z"/>
	<polygon class="st0" points="190.17,347.09 182.33,341.73 174.1,353.76 176.51,355.41 183.48,345.24 188.9,348.95 	"/>
	<path class="st0" d="M198.82,353.65c-0.43-1.57-1.44-2.79-3.03-3.66c-1.58-0.86-3.13-1.04-4.68-0.55c-1.54,0.49-2.74,1.52-3.6,3.08
		l-1.26,2.3c-0.86,1.57-1.07,3.14-0.65,4.7c0.42,1.56,1.43,2.77,3.01,3.64c1.59,0.87,3.15,1.06,4.7,0.58
		c1.55-0.48,2.75-1.51,3.61-3.09l1.26-2.3C199.04,356.79,199.25,355.22,198.82,353.65z M195.64,356.94l-1.27,2.32
		c-0.55,1.01-1.25,1.71-2.09,2.07c-0.84,0.37-1.7,0.32-2.58-0.17c-0.87-0.48-1.38-1.17-1.52-2.07c-0.14-0.91,0.07-1.86,0.62-2.88
		l1.27-2.32c0.54-1,1.23-1.68,2.06-2.06c0.83-0.37,1.68-0.32,2.55,0.15c0.88,0.48,1.39,1.18,1.54,2.09
		C196.38,354.99,196.18,355.94,195.64,356.94z"/>
	<path class="st0" d="M207.92,355.72c-1.67-0.67-3.23-0.67-4.71,0c-1.47,0.67-2.54,1.83-3.2,3.49l-0.98,2.43
		c-0.67,1.66-0.69,3.24-0.09,4.74c0.61,1.5,1.74,2.59,3.42,3.26c1.68,0.67,3.26,0.68,4.74,0.02c1.48-0.66,2.55-1.82,3.22-3.49
		l0.98-2.43c0.66-1.65,0.69-3.23,0.07-4.75C210.75,357.49,209.6,356.4,207.92,355.72z M208.6,362.64l-0.98,2.45
		c-0.43,1.07-1.04,1.84-1.83,2.31c-0.79,0.47-1.65,0.51-2.58,0.14c-0.92-0.37-1.5-0.99-1.75-1.88c-0.24-0.88-0.15-1.86,0.28-2.93
		l0.98-2.45c0.43-1.05,1.03-1.81,1.81-2.28c0.79-0.47,1.63-0.52,2.55-0.15c0.93,0.37,1.52,1,1.77,1.89
		C209.1,360.61,209.02,361.58,208.6,362.64z"/>
	<polygon class="st0" points="224.79,372.22 224.73,372.21 223.3,360.94 219.55,360.16 216.57,374.42 219.43,375.02 221.47,365.26 
		221.53,365.26 223.02,375.77 224.96,376.17 230.52,367.16 230.58,367.18 228.55,376.92 231.41,377.52 234.38,363.25 230.65,362.47 
			"/>
	<polygon class="st0" points="238.47,373.32 238.41,373.31 239.11,363.6 236.21,363.39 235.16,377.93 238.06,378.14 244.64,368.84 
		244.69,368.85 244,378.57 246.91,378.78 247.96,364.24 245.04,364.03 	"/>
	<polygon class="st0" points="258.8,363.86 259.08,370.12 253.15,370.39 252.87,364.13 249.95,364.27 250.61,378.83 253.54,378.69 
		253.26,372.64 259.18,372.37 259.47,378.42 262.38,378.29 261.71,363.73 	"/>
	<polygon class="st0" points="272.33,362.08 268.12,372.65 268.06,372.65 266.46,363.05 263.59,363.53 265.98,377.91 268.86,377.43 
		273.06,366.85 273.12,366.85 274.72,376.45 277.61,375.97 275.21,361.6 	"/>
	<path class="st0" d="M290.28,367.49l-2.72,0.78c0.26,0.91,0.25,1.65-0.04,2.2s-0.85,0.96-1.69,1.2c-0.89,0.25-1.67,0.11-2.37-0.43
		c-0.69-0.54-1.19-1.35-1.5-2.42l-0.8-2.8c-0.31-1.07-0.32-2.01-0.05-2.82c0.28-0.81,0.84-1.34,1.68-1.58
		c0.91-0.26,1.64-0.23,2.2,0.08c0.55,0.32,0.96,0.92,1.22,1.82l2.73-0.78l0-0.06c-0.41-1.52-1.21-2.56-2.41-3.12
		s-2.65-0.59-4.36-0.11c-1.64,0.47-2.8,1.39-3.5,2.77c-0.69,1.38-0.8,2.92-0.31,4.62l0.79,2.78c0.49,1.71,1.41,2.96,2.75,3.75
		c1.34,0.78,2.85,0.94,4.53,0.45c1.65-0.47,2.82-1.27,3.51-2.38c0.69-1.12,0.81-2.42,0.36-3.9L290.28,367.49z"/>
	<polygon class="st0" points="299.06,355.96 298.22,353.87 287.83,358.03 288.67,360.12 292.48,358.6 297.06,370.04 299.77,368.95 
		295.19,357.51 	"/>
	<path class="st0" d="M308.16,350.12c-1.25-0.31-2.61-0.07-4.1,0.71l-4.93,2.6l6.79,12.9l2.59-1.36l-2.46-4.68l2.35-1.24
		c1.48-0.78,2.45-1.77,2.91-2.97c0.45-1.2,0.36-2.41-0.29-3.65C310.35,351.2,309.41,350.43,308.16,350.12z M308.67,355.6
		c-0.17,0.59-0.61,1.07-1.33,1.45l-2.35,1.24l-2.23-4.23l2.35-1.24c0.72-0.38,1.38-0.47,1.96-0.26c0.58,0.21,1.03,0.63,1.36,1.25
		C308.76,354.42,308.83,355.01,308.67,355.6z"/>
	<path class="st0" d="M310.32,347.33l3.67,5.53c1.2,1.81,1.9,3.14,2.08,3.99c0.19,0.85-0.09,1.53-0.86,2.04l-0.33,0.22l1.24,1.87
		l0.36-0.24c1.47-0.98,2.22-2.22,2.24-3.72c0.02-1.5-0.74-3.43-2.3-5.77l-2.43-3.65l3.45-2.29l6.82,10.26l2.44-1.62l-8.07-12.14
		L310.32,347.33z"/>
	<polygon class="st0" points="326.94,334.87 328.79,346.1 328.74,346.13 322.42,338.73 320.2,340.62 329.66,351.71 331.88,349.82 
		330.03,338.58 330.08,338.55 336.4,345.96 338.63,344.06 329.17,332.97 	"/>
	<polygon class="st0" points="338.71,326.21 337.08,324.66 330.54,331.56 341.12,341.58 343.13,339.46 334.19,330.98 	"/>
	<polygon class="st0" points="343.24,316.77 347.41,327.36 347.36,327.4 339.63,321.49 337.86,323.81 349.44,332.66 351.21,330.34 
		347.04,319.75 347.08,319.7 354.82,325.62 356.6,323.3 345.02,314.45 	"/>
	<polygon class="st0" points="137.42,286.31 134.31,280.53 131.61,286.51 125.15,287.68 130.01,292.1 129.13,298.6 134.83,295.35 
		140.74,298.2 139.41,291.77 143.95,287.02 	"/>
	<polygon class="st0" points="368.85,286.46 366.15,280.47 363.04,286.25 356.51,286.97 361.05,291.71 359.71,298.14 365.63,295.29 
		371.33,298.55 370.45,292.04 375.31,287.63 	"/>
</g>
</svg>
