<?xml version="1.0" encoding="utf-8"?>
<!-- Generator: Adobe Illustrator 26.5.0, SVG Export Plug-In . SVG Version: 6.00 Build 0)  -->
<svg version="1.1" id="Layer_1" xmlns="http://www.w3.org/2000/svg" xmlns:xlink="http://www.w3.org/1999/xlink" x="0px" y="0px"
	 viewBox="0 0 500 500" style="enable-background:new 0 0 500 500;" xml:space="preserve">
<style type="text/css">
	.st0{fill:#131313;}
</style>
<g>
	<path class="st0" d="M250,100c-82.84,0-150,67.16-150,150c0,82.84,67.16,150,150,150c82.84,0,150-67.16,150-150
		C400,167.16,332.84,100,250,100z M385,250c0,74.44-60.56,135-135,135s-135-60.56-135-135s60.56-135,135-135S385,175.56,385,250z"/>
	<path class="st0" d="M353.41,290.5c-1.57,3.26-3.27,6.45-5.12,9.56c-1.72,2.88-3.52,5.7-5.51,8.4c-1.3,1.76-2.64,3.5-3.99,5.22
		c-0.77,0.98-1.58,1.92-2.39,2.85c-1.12,1.28-2.22,2.58-3.4,3.8c-2.09,2.15-4.19,4.29-6.48,6.22c-1.51,1.28-3.02,2.56-4.55,3.82
		c-2.12,1.77-4.37,3.37-6.66,4.92c-2.75,1.87-5.58,3.63-8.52,5.2c-2.34,1.25-4.72,2.44-7.13,3.55c-2.21,1.03-4.47,1.98-6.74,2.86
		c-3.75,1.46-7.58,2.69-11.48,3.67c-2.2,0.55-4.42,1.04-6.63,1.52c-1.09,0.24-2.18,0.44-3.28,0.62c-1.12,0.19-2.25,0.36-3.37,0.53
		c-0.47,0.07-0.94,0.13-1.41,0.19c-0.56,0.08-1.12,0.18-1.69,0.24c-0.64,0.07-1.28,0.1-1.92,0.16c-1.07,0.09-2.13,0.19-3.2,0.28
		c-0.1,0.01-0.19,0.01-0.29,0.02c-1.14,0.09-2.28,0.22-3.43,0.26c-1.51,0.05-3.02,0.04-4.53,0.03c-2.56-0.01-5.13,0.02-7.69-0.16
		c-0.9-0.07-1.81-0.1-2.72-0.15c-0.05,0-0.09-0.02-0.14-0.02c-0.78-0.09-1.56-0.18-2.34-0.26c-0.64-0.06-1.28-0.09-1.92-0.17
		c-0.89-0.12-1.78-0.27-2.67-0.4c-1.38-0.2-2.77-0.36-4.15-0.6c-1.93-0.35-3.86-0.71-5.77-1.16c-3.13-0.73-6.24-1.54-9.31-2.5
		c-5.62-1.75-11.09-3.88-16.39-6.44c-4.76-2.3-9.38-4.86-13.75-7.85c-2.18-1.49-4.32-3.04-6.45-4.61c-1.06-0.78-2.06-1.62-3.06-2.46
		c-0.91-0.77-1.8-1.57-2.69-2.37c-1.03-0.93-2.08-1.84-3.07-2.82c-1.3-1.28-2.54-2.61-3.8-3.92c-1.43-1.48-2.79-3.02-4.06-4.64
		c-1.38-1.76-2.81-3.49-4.12-5.31c-2.72-3.79-5.17-7.76-7.33-11.89c-2.94-5.61-5.32-11.45-7.21-17.49
		c-0.08-0.27-0.14-0.55-0.22-0.83c-0.08-0.27-0.18-0.54-0.25-0.81c-0.06-0.26,0.01-0.65-0.14-0.78c-0.36-0.29,0.16-0.52-0.03-0.75
		c-0.05-0.06-0.1-0.13-0.14-0.2c0,0,0,0,0-0.01c-0.11-1.01-0.22-2.02-0.33-3.04c-0.04-0.38-0.07-0.76-0.11-1.13
		c-0.08-0.71-0.19-1.41-0.26-2.12c-0.07-0.83-0.09-1.67-0.16-2.5c-0.08-1.07-0.22-2.14-0.27-3.21c-0.08-1.89-0.14-3.78-0.14-5.67
		c0-1.99,0.08-3.97,0.14-5.96c0.04-1.36,0.1-2.72,0.15-4.08c0-0.07,0.01-0.14,0.02-0.21c0.09-1,0.18-1.99,0.26-2.99
		c0.06-0.76,0.08-1.52,0.16-2.28c0.12-1.08,0.28-2.16,0.41-3.25c0.15-1.27,0.27-2.55,0.45-3.81c0.2-1.36,0.46-2.7,0.7-4.05
		c0.34-1.86,0.63-3.73,1.04-5.57c0.77-3.48,1.64-6.94,2.73-10.34c1.09-3.41,2.35-6.76,3.91-9.98c0.05-0.09,0.05-0.2,0.07-0.31
		c-0.09,0.06-0.2,0.1-0.26,0.18c-0.86,0.99-1.75,1.96-2.55,3c-1.5,1.96-2.84,4.03-4,6.22c-1.79,3.39-3.16,6.93-4.13,10.63
		c-0.17,0.64-0.37,1.27-0.55,1.91c0-0.24-0.01-0.49,0.02-0.73c0.17-1.07,0.37-2.14,0.55-3.22c0.25-1.49,0.45-2.99,0.75-4.48
		c0.44-2.22,0.9-4.44,1.44-6.65c1.22-5,2.6-9.96,4.23-14.85c0.18-0.54,0.31-1.09,0.46-1.64c-0.08,0.1-0.16,0.19-0.22,0.3
		c-5.08,9.62-9.23,19.63-12.26,30.09c-1.03,3.54-1.94,7.12-2.64,10.75c-0.32,1.68-0.67,3.36-0.96,5.05
		c-0.19,1.1-0.32,2.22-0.47,3.33c-0.11,0.85-0.22,1.7-0.32,2.56c-0.14,1.16-0.28,2.32-0.39,3.49c-0.08,0.93-0.12,1.86-0.17,2.79
		c-0.09,1.58-0.22,3.16-0.25,4.73c-0.04,1.92-0.03,3.84,0,5.76c0.02,1.34,0.07,2.68,0.17,4.02c0.1,1.45,0.25,2.91,0.4,4.36
		c0.14,1.43,0.26,2.85,0.46,4.27c0.23,1.65,0.55,3.29,0.83,4.94c0.49,2.92,1.16,5.79,1.93,8.64c1.76,6.55,4.11,12.9,7.04,19.02
		c4.89,10.22,11.19,19.49,18.76,27.9c2.58,2.87,5.32,5.6,8.16,8.22c3.08,2.85,6.31,5.52,9.65,8.06c5.98,4.53,12.32,8.5,18.99,11.94
		c8.06,4.16,16.46,7.46,25.2,9.88c2.71,0.75,5.43,1.43,8.19,1.96c1.68,0.32,3.36,0.67,5.05,0.96c1.1,0.19,2.22,0.31,3.33,0.46
		c0.88,0.12,1.75,0.22,2.63,0.33c0.71,0.09,1.42,0.18,2.13,0.24c0.81,0.07,1.62,0.11,2.43,0.17c1.1,0.08,2.19,0.22,3.29,0.24
		c2.18,0.05,4.36,0.05,6.54,0.05c2.32,0,4.64-0.09,6.96-0.29c1.88-0.16,3.76-0.31,5.63-0.59c1.56-0.23,3.11-0.46,4.67-0.71
		c3.11-0.5,6.17-1.22,9.21-2.05c5.46-1.5,10.76-3.45,15.87-5.89c9.15-4.36,17.37-10.08,24.66-17.11c1.78-1.71,3.44-3.54,5.12-5.35
		c2.16-2.32,4.12-4.8,5.99-7.35c6.2-8.45,11.13-17.59,14.88-27.37c2.03-5.28,3.83-10.64,5.24-16.12c0.63-2.47,1.25-4.95,1.84-7.43
		c0.2-0.85,0.32-1.72,0.47-2.59c-0.02-0.02-0.04-0.03-0.06-0.05C354.45,288.38,353.93,289.44,353.41,290.5z M139.41,227.65
		c0.03-0.09,0.07-0.18,0.1-0.27c-0.01,0.1-0.02,0.19-0.03,0.29C139.45,227.66,139.43,227.66,139.41,227.65z M139.59,264.08
		c0-0.02-0.01-0.04-0.01-0.06c0-0.02,0.02-0.03,0.02-0.05c0,0.02,0.01,0.04,0.01,0.06C139.61,264.05,139.6,264.06,139.59,264.08z
		 M139.77,265.06c-0.02,0-0.04,0-0.06,0c0-0.11,0-0.22,0-0.33c0.02,0,0.05,0.01,0.07,0.01
		C139.78,264.85,139.78,264.95,139.77,265.06z M139.91,265.92c-0.02,0-0.04,0-0.06,0c0-0.15,0-0.31,0-0.46c0.02,0,0.04,0,0.06,0
		C139.91,265.61,139.91,265.76,139.91,265.92z M140.06,266.7c-0.02,0-0.04,0-0.05,0c-0.01-0.09-0.03-0.17-0.03-0.26
		c0-0.06,0.03-0.12,0.08-0.29C140.06,266.41,140.06,266.55,140.06,266.7z M141.38,272.88c-0.04-0.16-0.08-0.32-0.12-0.48
		C141.46,272.53,141.39,272.72,141.38,272.88z M141.24,272.28c-0.04-0.19-0.07-0.39-0.11-0.58
		C141.29,271.87,141.24,272.08,141.24,272.28z M140.66,269.68c-0.04-0.19-0.08-0.38-0.12-0.57
		C140.72,269.27,140.67,269.48,140.66,269.68z M140.52,268.97c-0.04-0.19-0.07-0.39-0.11-0.58
		C140.58,268.55,140.52,268.76,140.52,268.97z M140.09,267.02c0.04-0.01,0.08-0.01,0.12-0.02c0.01,0.18,0.02,0.37,0.02,0.55
		C140.18,267.37,140.14,267.2,140.09,267.02z M140.26,267.67c0.21,0.18,0.09,0.43,0.12,0.64
		C140.17,268.13,140.29,267.88,140.26,267.67z M140.69,269.81c0.22,0.13,0.09,0.35,0.13,0.53
		C140.59,270.21,140.72,269.99,140.69,269.81z M140.84,270.45c0.04,0.2,0.08,0.4,0.12,0.59
		C140.78,270.87,140.83,270.66,140.84,270.45z M140.98,271.15c0.04,0.16,0.08,0.32,0.12,0.47
		C140.91,271.51,140.98,271.32,140.98,271.15z M141.4,272.98c0.22,0.12,0.09,0.34,0.13,0.51
		C141.32,273.37,141.44,273.15,141.4,272.98z M142.02,275.62c-0.01-0.11-0.02-0.23-0.03-0.34c0.04,0.05,0.08,0.09,0.1,0.14
		C142.1,275.48,142.07,275.55,142.02,275.62z M142.13,276.16c0.04-0.09,0.07-0.18,0.11-0.28c-0.01,0.1-0.01,0.2-0.02,0.3
		C142.19,276.18,142.16,276.17,142.13,276.16z"/>
	<path class="st0" d="M183.44,293.97c0.09-0.15,0.22-0.28,0.38-0.48c2.08,4.06,4.13,8.05,6.22,12.12c0.13-0.22,0.21-0.33,0.26-0.45
		c1.22-3.11,2.14-6.23,3.38-9.33c0.25-0.61,0.35-1.24,0.36-1.88c0.02-1.08,0.01-1.74,0-2.82c0-0.23-0.03-0.46-0.05-0.76
		c-0.8,0-1.25,0-1.99,0c-0.74,0-1.49,0-2.23,0s-1.49,0-2.23,0c-0.73-0.01-2.16,0.02-2.88-0.02c0-2.67,0-5.67,0-8.22
		c0.06-0.04,0.08-0.05,0.1-0.06c0.02-0.01,0.05-0.01,0.07-0.01c0.05,0,0.1-0.01,0.14-0.01c6.14,0,12.97,0,19.11,0
		c0.05,0,0.1,0,0.14,0c0.05,0,0.1,0,0.14-0.01c0.02,0,0.05,0,0.07-0.01c0.02-0.01,0.04-0.02,0.06-0.04
		c0.02-0.01,0.03-0.03,0.06-0.08c-2.12-4.92-4.24-9.87-6.36-14.81c-0.07,0.03-0.09,0.04-0.11,0.05c-0.02,0.01-0.04,0.03-0.05,0.05
		c-0.03,0.04-0.05,0.08-0.08,0.12c-2.62,4.27-5.24,8.53-7.86,12.8c-0.14,0.22-0.27,0.45-0.41,0.67c-0.01,0.02-0.03,0.04-0.04,0.06
		c-0.03,0.04-0.06,0.07-0.1,0.11c-0.01,0.01-0.04,0.02-0.06,0.02c-0.02,0-0.05,0-0.11-0.01c-2.64-4.61-5.29-9.23-7.99-13.96
		c-0.51,1.26-0.98,2.41-1.45,3.55c-0.02-0.01-0.05-0.02-0.07-0.03c0-27.09,0-54.19,0-81.43c0.2,1,0.36,1.86,0.55,2.71
		c0.69,3.02,1.8,5.88,3.47,8.51c0.87,1.37,1.83,2.67,3.03,3.78c0.64,0.6,1.3,1.19,2.01,1.71c0.62,0.46,1.29,0.9,2,1.19
		c1.07,0.44,2.18,0.79,3.29,1.1c1.23,0.34,2.49,0.56,3.76,0.66c0.54,0.04,1.11,0.03,1.63,0.17c0.94,0.25,1.92-0.04,2.84,0.27
		c2.27,0.04,4.55,0.05,6.82,0.14c2.97,0.12,5.94,0.14,8.91,0.14c0.05,0,0.1,0,0.14,0c1.7,0.14,3.3-0.23,4.8-1.01
		c0.88-0.46,1.73-0.98,2.6-1.47c0.92-0.53,1.9-0.87,2.95-0.97c1.74-0.16,3.41,0.23,5.01,0.87c1.25,0.5,2.46,1.12,3.69,1.68
		c0.15,0.07,0.31,0.13,0.47,0.17c1.38,0.3,2.77,0.6,4.18,0.73c0.45,0.04,0.9,0.09,1.34,0.15c1.35,0.18,2.7,0.29,4.06,0.28
		c0.91,0,1.81-0.09,2.72-0.15c0.69-0.04,1.38-0.09,2.06-0.15c0.42-0.04,0.85-0.1,1.27-0.16c0.89-0.13,1.77-0.27,2.66-0.4
		c0.77-0.11,1.55-0.2,2.32-0.32c0.77-0.12,1.53-0.29,2.3-0.4c0.87-0.12,1.75-0.13,2.61-0.31c1.42-0.31,2.84-0.27,4.27-0.27
		c0.19,0,0.38,0.01,0.57,0.03c0.73,0.08,1.46,0.17,2.19,0.25c0.57,0.06,1.14,0.09,1.7,0.17c0.89,0.12,1.77,0.29,2.66,0.41
		c0.96,0.12,1.93,0.2,2.9,0.29c0.49,0.05,0.99,0.11,1.48,0.16c0.82,0.09,1.65,0.22,2.47,0.26c1.03,0.04,2.06,0.03,3.09,0
		c0.81-0.02,1.61-0.09,2.42-0.14c0-0.04,0.01-0.09,0.01-0.13c-1.47-0.35-2.93-0.7-4.49-1.07c0.24-0.06,0.38-0.09,0.6-0.14
		c-1.56-0.63-3.09-1.14-4.43-2.04c0.67,0.05,1.32,0.15,1.97,0.23c0.82,0.1,1.65,0.25,2.47,0.26c1.77,0.02,3.54,0.14,5.3-0.13
		c0.51-0.08,1.05-0.05,1.55-0.17c1.24-0.3,2.47-0.63,3.69-0.99c0.98-0.29,1.87-0.78,2.71-1.39c-1.09,0.12-2.17,0.12-3.26,0.01
		c-1.07-0.11-2.16-0.09-3.31-0.36c0.85-0.44,1.63-0.77,2.32-1.4c-0.46,0.06-0.84,0.09-1.21,0.16c-1.37,0.25-2.7,0.09-3.99-0.41
		c-0.71-0.28-1.39-0.61-2.08-0.93c-1.65-0.77-3.31-1.55-4.85-2.53c-1.56-1-3.1-2.04-4.84-2.72c-2.09-0.81-4.22-1.43-6.49-1.36
		c-1.44,0.04-2.87-0.06-4.31,0.12c-1.01,0.13-2.05,0.01-3.08,0.15c-0.9,0.12-1.81,0.13-2.72,0.16c-1.84,0.06-3.69,0.1-5.53,0.15
		c-0.24,0.01-0.48,0.01-0.72,0.02c-1.48,0.04-2.97,0.12-4.45,0.11c-1.04-0.01-2.1-0.08-3.1-0.42c-1.48-0.5-2.87-1.15-3.96-2.33
		c-0.81-0.87-1.35-1.89-1.74-3c-0.35-0.98-0.84-1.89-1.6-2.58c-1.26-1.14-2.73-1.8-4.47-1.74c-0.65,0.02-1.3-0.01-1.94,0.01
		c-1,0.03-2.01,0.05-3,0.16c-1.27,0.14-2.53,0.37-3.8,0.56c-1.88,0.28-3.71,0.72-5.53,1.25c-1.84,0.54-3.69,1.01-5.57,1.35
		c-1.26,0.22-2.51,0.47-3.77,0.69c-0.49,0.08-0.99,0.12-1.49,0.17c-0.66,0.06-1.33,0.11-1.99,0.16c-1.29,0.09-2.57,0.23-3.86,0.26
		c-1.03,0.03-2.06-0.13-3.08-0.12c-1.27,0.01-2.52-0.15-3.77-0.33c-1.33-0.19-2.65-0.49-3.95-0.85c-3.23-0.9-6.18-2.33-8.5-4.84
		c-0.73-0.79-1.36-1.65-1.83-2.62c-0.08-0.17-0.15-0.36-0.16-0.54c-0.03-0.7-0.03-1.4-0.04-2.23c0.15,0.2,0.26,0.33,0.36,0.47
		c0.77,1.12,1.61,2.18,2.56,3.15c0.85,0.87,1.77,1.65,2.88,2.2c1.55,0.77,3.21,1.25,4.82,1.86c0.25,0.09,0.51,0.16,0.83,0.25
		c-0.38-1.2-0.73-2.32-1.08-3.42c-1.6-0.16-3.03-0.58-4.07-1.8c0.32-0.09,0.63-0.18,1-0.28c-0.08-0.74-0.15-1.41-0.23-2.16
		c-0.46,0.1-0.84,0.19-1.23,0.26c-0.87,0.14-1.75,0.27-2.58-0.09c-0.58-0.25-1.11-0.61-1.65-0.95c-0.45-0.28-0.79-0.65-0.78-1.24
		c0.01-0.36-0.09-0.72-0.05-1.07c0.1-0.84-0.08-1.55-0.81-2.07c-0.01-0.01-0.02-0.04-0.02-0.04c0.31-0.37,0.6-0.75,0.92-1.11
		c0.19-0.21,0.2-0.41,0.14-0.66c-0.14-0.52-0.27-1.05-0.38-1.58c-0.44-2-0.87-4.01-1.31-6.02c-0.02-0.09-0.05-0.21-0.11-0.25
		c-0.45-0.28-0.75-0.78-1.3-0.93c-0.12,0.66-0.23,1.29-0.34,1.92c-0.16,0.91-0.33,1.82-0.49,2.72c-0.22,1.16-0.45,2.32-0.64,3.49
		c-0.04,0.26,0.02,0.58,0.14,0.82c0.21,0.44,0.06,1.13,1.11,2.21c-0.17,0.27-0.31,0.53-0.5,0.75c-0.38,0.44-0.49,0.93-0.49,1.5
		c-0.02,16.55-0.06,33.1-0.08,49.65c-0.02,16.86-0.04,33.73-0.05,50.59c0,0.69-0.14,1.32-0.4,1.95c-1.8,4.41-2.81,6.82-4.6,11.23
		c-0.18,0.45-0.14,21.95-0.14,22.34c0.21-0.29,3.05-4.11,4.76-6.87c0.07-0.12,0.19-0.22,0.34-0.39c0,0.35,0,0.59,0,0.83
		c-0.02,3.77-0.05,7.53-0.06,11.3c0,0.3,0.04,0.6,0.06,0.95c0.88-0.01,1.68,0.05,2.51-0.04c0-0.34,0-0.6,0-0.87
		c0-5.18,0.01-10.36-0.02-15.54c0-0.68,0.17-1.26,0.52-1.82C181.38,297.33,182.41,295.65,183.44,293.97z"/>
	<path class="st0" d="M278.54,287.2c1.27,2.11,13.96,22.4,15.29,24.53c0.39-0.66,0.41-0.74,0.77-1.27c0.28-0.41,0.28-0.75,0.05-1.19
		c-5.47-4.98-4.42-18.57,7.41-21.98c4.76-1.73,11.5-0.28,13.1,0.39c0.7,0.29,1.38,0.64,2.09,0.98c1.89-2,3.77-3.99,5.66-5.99
		c-0.15-0.19-0.27-0.37-0.41-0.53c-1.02-1.12-2.12-2.15-3.38-3.01c-3.88-2.63-8.16-3.78-12.83-3.61c-2.47,0.09-4.84,0.57-7.12,1.49
		c-2.8,1.14-5.22,2.82-7.17,5.14c-2.09,2.49-3.36,5.37-4.02,8.66c-1.13-1.82-2.21-3.57-3.3-5.31c-1.1-1.77-2.19-3.54-3.3-5.31
		c-1.09-1.73-2.15-3.48-3.29-5.25c-2.41,4.02-4.76,7.94-7.11,11.87c-2.33,3.9-4.64,7.82-6.97,11.71c-0.05-0.02-0.1-0.03-0.15-0.05
		c0-7.52,0-15.05,0-22.61c-2.56,0-5.04,0-7.58,0c-0.02,3.46-0.04,6.88-0.06,10.31c-0.25,0.02-0.41,0.03-0.58,0.03
		c-3.81-0.01-7.63-0.02-11.44-0.03c-0.02,0-0.04-0.02-0.06-0.04c-0.02-0.02-0.03-0.04-0.12-0.14c0-3.31,0-6.71,0-10.14
		c-2.8,0-5.52,0-8.32,0c0,7.31,0,14.59,0,21.87c-0.91-1.22-1.7-2.48-2.49-3.73c-0.81-1.27-1.61-2.55-2.42-3.82
		c-0.8-1.25-1.6-2.5-2.4-3.75c-0.8-1.25-1.59-2.51-2.39-3.76c-0.81-1.27-1.63-2.54-2.45-3.81c-0.8-1.23-1.55-2.51-2.44-3.76
		c-3.92,6.33-7.78,12.58-11.67,18.86c-0.61-1.42-1.19-2.36-1.78-3.72c-2.06,0-2.94-0.03-5.03-0.03c-0.02,0.25-0.15,7.87-0.21,11.71
		c-0.01,0.43,0.1,0.79,0.3,1.16c0.68,2.65,1.2,4.28,2.37,6.41c0.34,0.61,0.52,0.94,0.92,1.66c4.96-7.92,10.02-16.64,14.97-24.53
		c4.81,7.82,9.71,15.76,14.53,23.59c4.72-7.74,9.26-14.87,13.96-22.58c1.26,2,13.39,19.69,14.7,21.71
		C268.93,301.16,273.79,295.35,278.54,287.2z"/>
	<path class="st0" d="M329.27,306.04c0.01,3.59,0.06,7.19,0.1,10.78c0,0.14,0.02,0.28,0.03,0.44c1.54,0,3.04,0,4.6,0
		c0-0.32,0-0.6,0-0.88c0-11.92,0-23.84,0-35.77c0-1.46-0.1-2.91-0.27-4.36c-0.16-1.32-0.44-2.61-0.83-3.89
		c-1.31-4.27-3.84-7.74-7.12-10.69c-0.85-0.76-1.74-1.49-2.7-2.12c-3.42-2.24-6.87-4.42-10.31-6.64
		c-6.39-4.12-12.78-8.26-19.18-12.38c-5.25-3.39-10.51-6.77-15.76-10.16c-0.3-0.19-0.6-0.28-0.94-0.28
		c-1.53-0.01-3.07-0.04-4.6-0.04c-11.44,0-22.89,0-34.33,0c-0.27,0-0.54-0.01-0.91-0.02c0.39-0.58,0.7-1.05,1-1.49
		c0.07-0.02,0.09-0.03,0.11-0.04c0.05-0.01,0.09-0.02,0.14-0.02c10.51,0,21.01,0,31.52,0c0.12,0,0.24,0,0.36,0
		c0.05,0,0.1,0,0.14-0.01c0.02,0,0.05-0.01,0.07-0.02c0.02-0.01,0.05-0.02,0.06-0.04c0.01-0.02,0.02-0.04,0.06-0.12
		c-0.23-0.45-0.47-0.93-0.72-1.41c-1.25-2.38-2.91-4.42-5.03-6.08c-1.49-1.16-3.12-2.08-4.88-2.76c-2.28-0.88-4.64-1.37-7.09-1.39
		c-0.86-0.01-1.72-0.05-2.58,0.13c-0.79,0.16-1.6,0.19-2.39,0.36c-1.93,0.42-3.75,1.13-5.49,2.07c-1.82,0.98-3.43,2.25-4.88,3.71
		c-0.34,0.34-0.64,0.5-1.12,0.49c-2.09-0.02-4.17,0-6.26-0.01c-0.37,0-0.68,0.09-1,0.3c-0.94,0.65-1.91,1.25-2.86,1.88
		c-7.42,4.92-14.85,9.85-22.27,14.77c-5.53,3.67-11.07,7.33-16.6,11c-2.04,1.35-3.65,2.41-5.69,3.76c-0.22,0.15-0.45,0.27-0.46,0.58
		c-0.02,0.62-0.09,1.24-0.1,1.86c-0.02,0.94,0,1.87,0,2.81c0,0.23,0,0.47,0,0.8c0.3-0.18,0.51-0.29,0.7-0.42
		c0.9-0.59,1.38-0.88,2.29-1.47c6.17-4.02,12.35-8.04,18.52-12.05c9.44-6.14,18.89-12.29,28.32-18.44c0.39-0.25,0.76-0.36,1.21-0.3
		c0.51,0.07,1.03,0.12,1.59,0.18c-1.09,1.73-1.63,3.6-1.66,5.68c0.35,0,0.64,0,0.92,0c14.06,0,28.11,0,42.17-0.01
		c0.55,0,1,0.12,1.47,0.43c3.99,2.64,8,5.25,12,7.87c8.68,5.69,17.37,11.37,26.05,17.07c2.96,1.94,5.99,3.78,8.63,6.17
		c1.85,1.67,3.45,3.52,4.47,5.82c1,2.25,1.26,4.64,1.42,7.05c0.08,1.29,0.05,2.59,0.05,3.88
		C329.27,290.44,329.25,298.24,329.27,306.04z M261.38,223.27c-6.25,0-12.48,0-18.81,0C249.19,219.15,256.08,219.53,261.38,223.27z"
		/>
	<path class="st0" d="M143.02,185.08c1.22-1.88,2.39-3.79,3.67-5.63c2.04-2.94,4.09-5.88,6.24-8.73c1.74-2.3,3.64-4.49,5.51-6.7
		c1.14-1.35,2.33-2.67,3.56-3.95c2.62-2.74,5.38-5.32,8.28-7.76c1.98-1.66,4-3.26,6.1-4.75c6.54-4.66,13.56-8.44,20.99-11.48
		c3.91-1.6,7.89-3,11.92-4.23c3.26-1,6.54-1.91,9.86-2.67c2.24-0.51,4.46-1.06,6.7-1.55c1.29-0.29,2.6-0.49,3.9-0.75
		c1.16-0.22,2.32-0.47,3.48-0.69c0.96-0.17,1.92-0.31,2.88-0.46c0.96-0.15,1.92-0.31,2.88-0.46c0.82-0.13,1.63-0.27,2.45-0.4
		c0.77-0.12,1.55-0.21,2.33-0.33c0.84-0.13,1.68-0.27,2.53-0.39c0.89-0.13,1.78-0.23,2.67-0.34c-0.01-0.04-0.02-0.08-0.03-0.12
		c-0.83-0.05-1.67-0.13-2.5-0.14c-3.57-0.01-7.14-0.05-10.71,0.14c-1.24,0.06-2.49,0.1-3.73,0.15c-0.07,0-0.14,0.02-0.21,0.02
		c-1,0.09-1.99,0.18-2.99,0.26c-0.78,0.06-1.57,0.1-2.36,0.16c-0.5,0.04-1,0.09-1.49,0.15c-1.01,0.13-2.02,0.28-3.03,0.41
		c-0.9,0.11-1.8,0.17-2.69,0.31c-1.36,0.21-2.71,0.45-4.06,0.7c-1.84,0.34-3.68,0.65-5.51,1.04c-3.33,0.72-6.6,1.65-9.85,2.65
		c-2.69,0.83-5.34,1.78-7.95,2.82c-2.47,0.99-4.89,2.1-7.26,3.3c-2.5,1.27-4.95,2.63-7.31,4.14c-2.32,1.48-4.58,3.04-6.73,4.76
		c-1.23,0.98-2.43,2-3.62,3.03c-1.01,0.88-2.01,1.77-2.97,2.7c-0.89,0.87-1.73,1.79-2.58,2.7c-0.83,0.9-1.65,1.79-2.43,2.73
		c-1.12,1.36-2.2,2.74-3.28,4.13c-2.33,2.99-4.35,6.2-6.17,9.52c-2.77,5.03-4.99,10.3-6.82,15.75c-0.06,0.17-0.09,0.35-0.13,0.52
		C142.77,185.46,142.9,185.28,143.02,185.08z"/>
	<path class="st0" d="M243.69,139.08c-0.05,0-0.1,0.01-0.14,0.01c-1.28,0.14-2.55,0.28-3.83,0.42c-0.97,0.1-1.94,0.16-2.91,0.31
		c-1.38,0.2-2.76,0.45-4.13,0.7c-2.02,0.38-4.05,0.72-6.06,1.18c-3.45,0.8-6.87,1.75-10.23,2.86c-5.36,1.76-10.58,3.89-15.68,6.33
		c-0.15,0.07-0.29,0.17-0.52,0.31c0.92,0.41,1.75,0.75,2.56,1.14c0.46,0.22,0.83,0.16,1.27-0.06c1.43-0.7,2.87-1.38,4.32-2.01
		c4.17-1.81,8.44-3.38,12.82-4.64c5.28-1.52,10.63-2.73,16.1-3.36c0.45-0.05,0.89-0.12,1.34-0.17c0.71-0.09,1.41-0.18,2.12-0.25
		c0.74-0.07,1.47-0.11,2.21-0.16c1.24-0.09,2.47-0.21,3.71-0.27c1.1-0.05,2.21-0.05,3.31-0.07c0.62-0.01,1.25-0.05,1.87-0.04
		c1.1,0.02,2.2,0.06,3.31,0.1c1.15,0.04,2.29,0.1,3.44,0.15c0.05,0,0.1,0.01,0.14,0.01c0.8,0.09,1.61,0.19,2.41,0.27
		c0.69,0.07,1.38,0.07,2.07,0.16c0.92,0.11,1.83,0.28,2.74,0.42c1.34,0.2,2.68,0.34,4,0.6c2.15,0.43,4.3,0.92,6.44,1.42
		c3.74,0.86,7.39,2.02,10.99,3.32c5.27,1.9,10.36,4.23,15.27,6.92c3.32,1.82,6.54,3.8,9.63,5.98c1.82,1.29,3.63,2.61,5.4,3.98
		c1.25,0.96,2.43,2,3.63,3.02c1.09,0.93,2.19,1.86,3.24,2.83c0.95,0.88,1.88,1.79,2.78,2.71c1.57,1.61,3.13,3.24,4.68,4.88
		c0.49,0.52,0.91,1.11,1.39,1.64c0.27,0.3,0.54,0.66,0.89,0.81c1.3,0.56,2.63,1.05,3.95,1.56c0.03-0.03,0.05-0.06,0.08-0.09
		c-0.35-0.42-0.68-0.85-1.04-1.27c-0.68-0.8-1.37-1.59-2.07-2.38c-1.26-1.41-2.49-2.85-3.81-4.21c-2.22-2.28-4.46-4.56-6.89-6.63
		c-1.47-1.26-2.89-2.58-4.4-3.79c-1.72-1.39-3.5-2.71-5.28-4.02c-4.41-3.26-9.07-6.11-13.92-8.66c-4.43-2.33-9.02-4.32-13.73-6.02
		c-3.1-1.12-6.25-2.07-9.43-2.9c-1.9-0.5-3.82-0.9-5.74-1.31c-1.34-0.28-2.7-0.52-4.05-0.72c-1.22-0.19-2.45-0.3-3.67-0.45
		c-1.08-0.14-2.16-0.31-3.25-0.42c-1.33-0.13-2.66-0.22-4-0.29c-1.6-0.08-3.21-0.14-4.81-0.14c-1.6,0-3.21,0.08-4.81,0.13
		C246.17,138.98,244.93,139.03,243.69,139.08z"/>
	<path class="st0" d="M341.55,187.34c-0.82-0.38-1.63-0.78-2.45-1.15c-0.3-0.14-0.62-0.22-0.93-0.33c-0.02-0.03-0.04-0.07-0.05-0.1
		c-0.02,0.02-0.04,0.04-0.06,0.06c0.03,0.02,0.07,0.04,0.1,0.06c0.04,0.11,0.06,0.24,0.12,0.33c2.14,2.77,4.03,5.71,5.76,8.75
		c2.22,3.91,4.1,7.98,5.69,12.19c2.59,6.87,4.24,13.98,5.25,21.24c0.18,1.27,0.31,2.55,0.43,3.82c0.12,1.23,0.22,2.47,0.29,3.71
		c0.08,1.53,0.1,3.06,0.15,4.59c0,0.07,0,0.14,0,0.22c0,2.9,0.04,5.8-0.14,8.69c-0.01,0.12-0.01,0.24-0.02,0.36
		c-0.09,0.97-0.18,1.94-0.26,2.92c-0.06,0.76-0.09,1.52-0.15,2.28c-0.04,0.5-0.11,0.99-0.17,1.49c-0.08,0.66-0.17,1.32-0.25,1.98
		c-0.06,0.49-0.11,0.99-0.18,1.48c-0.12,0.8-0.28,1.59-0.38,2.38c-0.03,0.27,0.03,0.57,0.13,0.83c1.29,3.19,2.59,6.37,3.9,9.54
		c0.09,0.21,0.12,0.49,0.39,0.6c0.07-0.35,0.13-0.67,0.2-1c0.22-1.18,0.45-2.37,0.66-3.56c0.18-1.03,0.34-2.06,0.48-3.09
		c0.12-0.89,0.2-1.79,0.31-2.69c0.13-1.11,0.3-2.21,0.41-3.32c0.12-1.26,0.21-2.52,0.29-3.78c0.07-1.12,0.15-2.25,0.14-3.37
		c-0.03-2.44,0.09-4.88-0.1-7.33c-0.13-1.64-0.16-3.29-0.3-4.93c-0.12-1.37-0.23-2.75-0.44-4.11c-0.16-1.05-0.27-2.11-0.44-3.17
		c-0.22-1.4-0.47-2.8-0.72-4.2c-0.44-2.54-1.07-5.04-1.73-7.52c-1.5-5.61-3.47-11.06-5.85-16.36c-1.42-3.16-2.98-6.25-4.68-9.28
		c-1.43-2.55-2.95-5.05-4.56-7.49C342.16,187.76,341.91,187.51,341.55,187.34z"/>
	<path class="st0" d="M286.1,312.69c0.66,1.04,1.28,2.02,1.91,3c2.13,0,4.23,0,6.52,0c-5.32-8.81-10.56-16.47-15.86-25.27
		c-5.31,8.82-10.55,16.5-15.82,25.26c2.33,0,4.56,0,6.78,0c0.46-0.81,0.94-1.57,1.35-2.38c0.24-0.47,0.54-0.63,1.06-0.63
		c4.48,0.02,8.97,0.01,13.45,0.01C285.71,312.69,285.93,312.69,286.1,312.69z M273.81,308.47c1.63-2.81,3.2-5.54,4.84-8.36
		c0.67,0.94,1.18,1.88,1.74,2.8c0.55,0.91,1.11,1.82,1.67,2.73c0.56,0.93,1.12,1.85,1.71,2.83
		C280.42,308.47,277.17,308.47,273.81,308.47z"/>
	<path class="st0" d="M227.57,312.53c1,0,1,0,1.6,0.85c0.34,0.48,0.69,0.96,1.07,1.47c1.12-1.64,2.16-3.19,3.24-4.77
		c-4.13-6.85-8.27-13.7-12.47-20.65c-5.18,8.81-10.39,17.45-15.44,26.18c0.09,0.05,0.11,0.08,0.13,0.08
		c1.87,0.04,3.74,0.08,5.6,0.12c0.33,0.01,0.5-0.16,0.66-0.45c0.39-0.71,0.9-1.36,1.23-2.08c0.29-0.63,0.71-0.76,1.35-0.76
		C218.89,312.54,223.23,312.53,227.57,312.53z M220.95,300.31c0.43,0.38,3.91,5.95,5.1,8.17c-3.34,0-6.62,0-9.98,0
		C217.72,305.72,219.33,303.01,220.95,300.31z"/>
	<path class="st0" d="M175.73,266.18c0.29-0.3,0.43-0.58,0.43-1c-0.02-1.53-0.01-3.07-0.01-4.6c0-0.21-0.02-0.42-0.04-0.66
		c-0.37,0.1-0.56,0.36-0.77,0.57c-1.04,1.06-1.65,1.79-2.69,2.85c-0.92,0.94-1.72,1.99-2.47,3.06c-1.92,2.77-3.16,5.82-3.76,9.13
		c-0.19,1.03-0.38,2.05-0.44,3.1c-0.06,1.07-0.25,2.14-0.25,3.2c-0.02,11.44-0.01,22.88-0.01,34.32c0,0.19-0.01,0.38,0,0.58
		c0.01,0.16,0.04,0.32,0.07,0.51c1.71,0,3.38,0,5.11,0c0.01-0.23,0.03-0.4,0.03-0.57c0.07-6.93-0.07-13.85,0.1-20.78
		c0.13-5.3,0.04-10.6,0.02-15.9c-0.01-1.68,0.14-3.33,0.43-4.99C172.1,271.46,173.24,268.76,175.73,266.18z"/>
	<path class="st0" d="M310.03,315.17c0.94-0.13,1.88-0.25,2.8-0.48c2.75-0.69,5.23-1.88,7.22-3.95c0.44-0.46,0.97-0.85,1.3-1.52
		c-1.38-0.87-2.75-1.73-4.13-2.59c-0.11,0.12-0.19,0.21-0.27,0.3c-1.78,2.33-4.23,3.47-7.05,3.83c-1.22,0.16-2.46,0.07-3.69-0.24
		c-2.35-0.59-4.36-1.68-5.83-3.63c-1.7-2.27-2.19-4.8-1.43-7.53c0.58-2.09,1.96-3.6,3.83-4.65c2.38-1.34,4.98-1.64,7.64-1.27
		c1.97,0.27,3.75,1.08,5.32,2.34c0.1,0.08,0.23,0.14,0.38,0.23c0.99-1.22,1.96-2.4,2.97-3.64c-0.68-0.82-1.48-1.38-2.34-1.87
		c-2.49-1.43-5.22-1.95-8.05-1.96c-1.5,0-3,0.19-4.48,0.5c-3.04,0.62-5.6,2.07-7.64,4.37c-2.84,3.2-3.72,6.91-2.8,11.07
		c0.69,3.12,2.4,5.61,4.86,7.57c2.56,2.05,5.58,3,8.83,3.2C308.3,315.32,309.16,315.29,310.03,315.17z"/>
	<path class="st0" d="M195.47,288.93c0.02,0.16,0.04,0.23,0.05,0.29c0.05,2.63,0.05,5.27,0.1,7.9c0.1,5.92,0.03,11.85,0.03,17.77
		c0,0.26,0.02,0.51,0.03,0.77c1.8,0,3.54,0,5.33,0c0-4.5-0.01-8.96,0-13.41c0.01-4.47-0.01-8.95,0.02-13.48c2.96,0,5.83,0,8.72,0
		c0-1.75,0-3.43,0-5.15c-0.13-0.02-0.22-0.04-0.31-0.04c-7.7,0.01-15.4,0.02-23.1,0.03c-0.02,0-0.04,0.02-0.06,0.03
		c-0.02,0.01-0.03,0.04-0.05,0.06c0,1.69,0,3.38,0,5.19c0.85,0,1.62,0,2.38,0c0.77,0,1.54,0,2.3,0c0.77,0,1.54,0,2.3,0
		C193.97,288.91,194.72,288.88,195.47,288.93z"/>
	<path class="st0" d="M262.4,309.88c-3.8-6.22-12.56-19.13-12.98-19.46c-5,8.62-10.1,16.42-15.06,25.12c2.12,0,4.15,0,6.18,0
		c3.04-5.12,6.06-10.23,9.12-15.39c1.59,2.56,3.13,5.04,4.66,7.52c1.53,2.47,3.06,4.94,4.63,7.48
		C260.14,313.33,261.28,311.6,262.4,309.88z"/>
	<path class="st0" d="M316.53,299.96c-0.78,1.12-1.85,1.7-2.98,2.18c-1.22,0.52-2.51,0.75-3.83,0.82c-1.75,0.1-3.51,0.15-5.24-0.13
		c-1.29-0.21-2.55-0.61-3.82-0.92c-0.32-0.08-0.63-0.17-0.99-0.26c-0.13,0.63,0.12,1.18,0.23,1.72c0.41,1.99,1.68,3.27,3.33,4.38
		c1.94,1.3,3.74,1.51,6.05,1.46c2.72-0.05,4.66-0.9,6.38-3.03c0.25-0.31,0.75-0.96,1-1.28c1.21,0.75,2.97,1.75,4.16,2.49
		c1.1-1.34,1.76-2.26,2.85-3.59C321.28,302.51,318.93,301.25,316.53,299.96z"/>
	<path class="st0" d="M214.64,321.05c-1.06,0-2.07,0-3.17,0c0,1.8,0,3.56,0,5.31c-0.14,0.04-4.7,0-4.85-0.05
		c-0.01-1.77,0.01-3.51-0.01-5.27c-1.09,0-2.09,0-3.17,0c-0.04,1.81,0.01,3.54-0.03,5.3c-0.59,0-1.1,0-1.6,0c-0.5,0-1.01,0-1.51,0
		c-0.49,0-0.98-0.02-1.53-0.02c0-1.81,0-3.53,0-5.26c-1.11,0-2.15,0-3.22,0c0,2.45,0,4.86,0,7.29c6.38,0,12.72,0,19.09,0
		C214.64,325.89,214.64,323.49,214.64,321.05z"/>
	<path class="st0" d="M264.18,328.33c0.71,0,1.34,0,2.04,0c0-0.57,0-1.09,0-1.68c2.04,0,4.03,0,6.01,0c2.01,0,4.01,0,6,0
		c0.11-1.1,0.08-5.07-0.04-5.61c-4.64,0-9.29,0-14.03,0C264.17,323.52,264.14,325.93,264.18,328.33z M266.23,323.15l9.88-0.02
		c0,0,0,0.46,0,0.69c0,0.14-0.03,0.4-0.03,0.4l-9.85-0.05V323.15z"/>
	<path class="st0" d="M299.35,322.6c-0.99,0-1.99,0-3,0c-1.01,0-2.01,0-3.02,0c-1.03,0-2.06,0-3.09,0c-1,0-1.99,0.01-3.05-0.01
		c0-0.56,0-1.03,0-1.56c-0.34,0-0.62,0-0.9,0c-0.3,0-0.61,0-0.93,0c0,2.45,0,4.81,0,7.21c4.7,0,9.35,0,14.01,0
		C299.5,327.52,299.48,323.19,299.35,322.6z M297.56,326.23l-10.29,0.01v-1.44l10.27-0.01c0,0,0.02,0.49,0.02,0.74
		C297.56,325.76,297.56,326.23,297.56,326.23z"/>
	<path class="st0" d="M241.66,328.38c0.93,0,1.72-0.02,2.51,0.01c0.37,0.01,0.65-0.07,0.87-0.38c0.19-0.27,0.44-0.4,0.79-0.4
		c2.97,0.01,5.93,0.01,8.94,0.01c0.37,0.73,1.01,0.83,1.75,0.77c0.43-0.04,0.86,0,1.29-0.01c0.15,0,0.3-0.04,0.57-0.07
		c-2.83-3.01-5.58-5.94-8.34-8.88C247.25,322.41,244.5,325.35,241.66,328.38z M252.64,325.15c-1.72,0-3.34,0-5.11,0
		c0.89-1.04,1.7-1.99,2.56-2.99C250.94,323.15,251.76,324.12,252.64,325.15z"/>
	<path class="st0" d="M222.92,328.38c0.24,0,0.43-0.08,0.55-0.27c0.28-0.45,0.69-0.5,1.17-0.5c2.78,0.01,5.56,0.01,8.34-0.01
		c0.23,0,0.37,0.07,0.48,0.23c0.34,0.48,0.8,0.62,1.37,0.56c0.5-0.04,1.01-0.01,1.51-0.01c0.15,0,0.3-0.03,0.59-0.06
		c-2.84-3.02-5.58-5.95-8.34-8.89c-2.79,2.98-5.54,5.92-8.38,8.96C221.2,328.38,222.06,328.37,222.92,328.38z M228.62,322.15
		c0.84,0.99,1.66,1.95,2.56,3c-1.75,0-3.36,0-5.11,0C226.96,324.11,227.77,323.15,228.62,322.15z"/>
	<path class="st0" d="M303.85,328.36c0.52,0,1.04,0,1.66,0c-0.01-2.43,0.02-4.79-0.02-7.15c-0.62,0-1.16,0-1.69,0
		C303.68,322.28,303.72,327.82,303.85,328.36z"/>
	<path class="st0" d="M354.97,287.32c0.02,0.02,0.04,0.03,0.06,0.05c0.04-0.12,0.08-0.23,0.12-0.35c-0.04-0.01-0.08-0.02-0.12-0.03
		C355.01,287.1,354.99,287.21,354.97,287.32z"/>
	<path class="st0" d="M147.06,195.55c-0.02,0.03-0.04,0.07-0.06,0.1c-0.01,0.02-0.01,0.04-0.02,0.06c0.01-0.01,0.02-0.03,0.03-0.04
		C147.03,195.63,147.05,195.59,147.06,195.55z"/>
	<path class="st0" d="M151.1,205.21c-0.02,0.03-0.04,0.06-0.06,0.09c0,0.01,0,0.02,0,0.02c0.01,0,0.01-0.01,0.02-0.01
		C151.06,205.28,151.08,205.24,151.1,205.21z"/>
</g>
</svg>
