<?xml version="1.0" encoding="utf-8"?>
<!-- Generator: Adobe Illustrator 26.5.0, SVG Export Plug-In . SVG Version: 6.00 Build 0)  -->
<svg version="1.1" id="Layer_1" xmlns="http://www.w3.org/2000/svg" xmlns:xlink="http://www.w3.org/1999/xlink" x="0px" y="0px"
	 viewBox="0 0 500 500" style="enable-background:new 0 0 500 500;" xml:space="preserve">
<style type="text/css">
	.st0{fill:#131313;}
</style>
<g>
	<path class="st0" d="M154.62,251.84c-0.36-10.43,8.75-20.33,22.31-28.06c18.61-10.62,45.51-16.3,69.07-22.48
		c0,0-52.42-3.55-83.47,15.1c-13.49,8.1-22.99,16.35-23.02,34.66c-0.02,9.77,6.47,20.24,14.63,27.08
		c19.11,16.05,51.09,20.82,51.09,20.82S155.34,272.71,154.62,251.84z"/>
	<polygon class="st0" points="338.82,217.48 350.87,204.17 252.11,204.17 239.52,217.48 	"/>
	<polygon class="st0" points="236.82,220.54 224.23,233.85 323.53,233.85 335.58,220.54 	"/>
	<polygon class="st0" points="220.97,237.5 208.37,250.81 307.67,250.81 319.72,237.5 	"/>
	<polygon class="st0" points="304.1,254.2 205.35,254.2 192.75,267.51 292.05,267.51 	"/>
	<polygon class="st0" points="192.7,274.58 192.7,284.75 194.39,284.75 194.39,280.35 195.22,280.35 198.54,284.75 200.69,284.75 
		196.56,279.39 200.37,274.61 200.35,274.58 198.36,274.58 195.06,278.89 194.39,278.89 194.39,274.58 	"/>
	<rect x="210.67" y="274.58" class="st0" width="1.7" height="10.17"/>
	<path class="st0" d="M205.98,278.35h-2.15v-3.77h-1.7v10.17h3.85c1.12,0,2.01-0.3,2.65-0.89c0.65-0.6,0.97-1.37,0.97-2.33
		c0-0.95-0.32-1.72-0.96-2.3C207.99,278.64,207.1,278.35,205.98,278.35z M207.41,282.85c-0.33,0.36-0.8,0.54-1.43,0.54h-2.15v-3.68
		h2.15c0.63,0,1.11,0.17,1.43,0.52c0.33,0.35,0.49,0.77,0.49,1.28C207.9,282.04,207.73,282.48,207.41,282.85z"/>
	<path class="st0" d="M218.73,274.58h-3.9v10.17h1.7v-3.86h2.2c1.12,0,2-0.29,2.64-0.86s0.95-1.34,0.95-2.29
		c0-0.95-0.32-1.71-0.95-2.29S219.85,274.58,218.73,274.58z M220.15,279.03c-0.32,0.33-0.79,0.5-1.42,0.5h-2.2v-3.59h2.2
		c0.63,0,1.1,0.17,1.42,0.52c0.32,0.34,0.47,0.78,0.47,1.29C220.62,278.27,220.47,278.69,220.15,279.03z"/>
	<polygon class="st0" points="224.27,284.75 225.96,284.75 225.96,275.94 230.69,275.94 230.69,274.58 224.27,274.58 	"/>
	<rect x="241.06" y="274.58" class="st0" width="1.7" height="10.17"/>
	<path class="st0" d="M236.36,278.35h-2.15v-3.77h-1.7v10.17h3.85c1.12,0,2.01-0.3,2.65-0.89c0.65-0.6,0.97-1.37,0.97-2.33
		c0-0.95-0.32-1.72-0.96-2.3C238.38,278.64,237.49,278.35,236.36,278.35z M237.8,282.85c-0.33,0.36-0.8,0.54-1.43,0.54h-2.15v-3.68
		h2.15c0.63,0,1.11,0.17,1.43,0.52c0.33,0.35,0.49,0.77,0.49,1.28C238.29,282.04,238.12,282.48,237.8,282.85z"/>
	<path class="st0" d="M250.99,279.52c0.54-0.22,0.96-0.52,1.27-0.91c0.31-0.39,0.46-0.81,0.46-1.28c0-0.93-0.35-1.65-1.06-2.15
		c-0.71-0.5-1.67-0.75-2.89-0.75c-1.06,0-1.95,0.26-2.67,0.78c-0.72,0.52-1.07,1.2-1.04,2.03l0.01,0.04h1.63
		c0-0.43,0.2-0.78,0.59-1.06s0.88-0.42,1.47-0.42c0.74,0,1.3,0.15,1.68,0.44c0.38,0.29,0.57,0.66,0.57,1.1
		c0,0.48-0.17,0.86-0.52,1.14c-0.35,0.27-0.89,0.41-1.62,0.41h-1.32v1.35h1.32c0.76,0,1.33,0.14,1.72,0.41
		c0.39,0.27,0.58,0.69,0.58,1.26c0,0.48-0.22,0.87-0.65,1.18c-0.43,0.31-1.02,0.46-1.76,0.46c-0.65,0-1.18-0.15-1.59-0.46
		s-0.62-0.69-0.62-1.15h-1.63l-0.01,0.04c-0.02,0.96,0.35,1.68,1.12,2.18c0.77,0.5,1.68,0.75,2.74,0.75c1.22,0,2.21-0.27,2.97-0.8
		c0.76-0.53,1.14-1.26,1.14-2.2c0-0.58-0.16-1.07-0.49-1.47S251.6,279.72,250.99,279.52z"/>
	<polygon class="st0" points="258.22,275.94 261.31,275.94 261.31,284.75 263.01,284.75 263.01,275.94 266.15,275.94 266.15,274.58 
		258.22,274.58 	"/>
	<polygon class="st0" points="269.5,280.17 273.48,280.17 273.48,278.81 269.5,278.81 269.5,275.94 274.15,275.94 274.15,274.58 
		267.8,274.58 267.8,284.75 274.2,284.75 274.2,283.39 269.5,283.39 	"/>
	<polygon class="st0" points="281.27,282.4 281.23,282.4 278.31,274.58 276.08,274.58 276.08,284.75 277.78,284.75 277.78,277.31 
		277.82,277.29 280.67,284.75 281.84,284.75 284.64,277.43 284.68,277.44 284.68,284.75 286.38,284.75 286.38,274.58 284.21,274.58 
			"/>
	<polygon class="st0" points="290.59,281.88 290.55,281.86 290.55,274.58 288.86,274.58 288.86,284.75 290.55,284.75 295.06,277.44 
		295.11,277.46 295.11,284.75 296.8,284.75 296.8,274.58 295.11,274.58 	"/>
	<path class="st0" d="M303.16,274.58h-3.9v10.17h1.7v-3.86h2.2c1.12,0,2-0.29,2.64-0.86s0.95-1.34,0.95-2.29
		c0-0.95-0.32-1.71-0.95-2.29S304.28,274.58,303.16,274.58z M304.58,279.03c-0.32,0.33-0.79,0.5-1.42,0.5h-2.2v-3.59h2.2
		c0.63,0,1.1,0.17,1.42,0.52c0.32,0.34,0.47,0.78,0.47,1.29C305.05,278.27,304.89,278.69,304.58,279.03z"/>
	<polygon class="st0" points="323.61,274.58 321.57,274.58 319.09,278.85 318.65,278.85 318.65,274.58 316.96,274.58 316.96,278.85 
		316.48,278.85 313.97,274.58 311.92,274.58 315.02,279.33 311.69,284.75 313.81,284.75 316.4,280.31 316.96,280.31 316.96,284.75 
		318.65,284.75 318.65,280.31 319.17,280.31 321.74,284.75 323.85,284.75 320.53,279.33 	"/>
	<path class="st0" d="M328.99,274.43c-1.22,0-2.21,0.41-2.97,1.23c-0.76,0.82-1.14,1.85-1.14,3.09v1.83c0,1.24,0.38,2.27,1.15,3.09
		s1.75,1.23,2.97,1.23c1.25,0,2.26-0.41,3.04-1.23s1.17-1.85,1.17-3.09v-1.83c0-1.24-0.39-2.27-1.17-3.09
		C331.25,274.84,330.24,274.43,328.99,274.43z M331.51,280.58c0,0.86-0.22,1.56-0.67,2.11s-1.06,0.82-1.84,0.82
		c-0.75,0-1.33-0.27-1.77-0.82c-0.43-0.55-0.65-1.25-0.65-2.11v-1.84c0-0.85,0.22-1.54,0.65-2.09c0.43-0.54,1.02-0.82,1.77-0.82
		c0.77,0,1.39,0.27,1.84,0.82c0.45,0.54,0.68,1.24,0.68,2.09V280.58z"/>
	<path class="st0" d="M336.41,279.29c0,1.5-0.13,2.56-0.38,3.18s-0.7,0.92-1.34,0.92h-0.28v1.35h0.33c1.17,0,2.03-0.43,2.56-1.29
		c0.53-0.86,0.8-2.25,0.8-4.16v-3.35h3.3v8.81h1.7v-10.17h-6.68V279.29z"/>
	<path class="st0" d="M351.39,274.58l-2.28,5.63h-0.04l-0.36-1.03l-2-4.6h-1.86l3.47,7.48l-0.21,0.48c-0.13,0.31-0.3,0.56-0.52,0.74
		c-0.22,0.18-0.52,0.27-0.9,0.27c-0.16,0-0.34-0.02-0.53-0.05c-0.19-0.04-0.38-0.08-0.57-0.13l-0.2,1.26
		c0.21,0.08,0.44,0.15,0.68,0.2s0.51,0.07,0.8,0.07c0.73,0,1.29-0.17,1.69-0.51s0.73-0.82,1-1.44l3.7-8.37H351.39z"/>
	<path class="st0" d="M250,100c-82.84,0-150,67.16-150,150s67.16,150,150,150c82.84,0,150-67.16,150-150S332.84,100,250,100z
		 M250,382.95c-73.31,0-132.95-59.64-132.95-132.95S176.69,117.05,250,117.05S382.95,176.69,382.95,250S323.31,382.95,250,382.95z"
		/>
	<path class="st0" d="M250,125.12c-68.97,0-124.88,55.91-124.88,124.88c0,68.97,55.91,124.88,124.88,124.88
		c68.97,0,124.88-55.91,124.88-124.88C374.88,181.03,318.97,125.12,250,125.12z M250,368.06c-65.1,0-118.06-52.96-118.06-118.06
		S184.9,131.94,250,131.94S368.06,184.9,368.06,250S315.1,368.06,250,368.06z"/>
</g>
</svg>
