<?xml version="1.0" encoding="utf-8"?>
<!-- Generator: Adobe Illustrator 26.5.0, SVG Export Plug-In . SVG Version: 6.00 Build 0)  -->
<svg version="1.1" id="Layer_1" xmlns="http://www.w3.org/2000/svg" xmlns:xlink="http://www.w3.org/1999/xlink" x="0px" y="0px"
	 viewBox="0 0 500 500" style="enable-background:new 0 0 500 500;" xml:space="preserve">
<style type="text/css">
	.st0{fill:#131313;}
	.st1{fill-rule:evenodd;clip-rule:evenodd;fill:#131313;}
</style>
<g>
	<path class="st0" d="M250,100c-82.84,0-150,67.16-150,150s67.16,150,150,150s150-67.16,150-150S332.84,100,250,100z M345.76,345.76
		c-25.58,25.58-59.59,39.66-95.76,39.66s-70.18-14.09-95.76-39.66c-25.58-25.58-39.66-59.59-39.66-95.76s14.09-70.18,39.66-95.76
		s59.59-39.66,95.76-39.66s70.18,14.09,95.76,39.66c25.58,25.58,39.66,59.59,39.66,95.76S371.34,320.18,345.76,345.76z"/>
	<path class="st1" d="M267.48,171.43l2.28-43.76c0.01-0.21-0.13-0.37-0.33-0.4c-0.21-0.02-0.4,0.08-0.44,0.3l-11.25,42.18
		c-0.04,0.13-0.06,0.28-0.1,0.41c-0.43,2.7,1.42,5.23,4.13,5.65c2.7,0.42,5.24-1.42,5.66-4.12c0.01-0.08,0.04-0.17,0.04-0.26
		L267.48,171.43z M279.58,175.13l9.15-42.86c0.04-0.21-0.08-0.39-0.26-0.45c-0.21-0.06-0.4,0.04-0.48,0.23l-17.76,39.88
		c-0.06,0.13-0.1,0.26-0.13,0.4c-0.84,2.6,0.58,5.39,3.18,6.23c2.6,0.84,5.4-0.58,6.24-3.18c0.04-0.08,0.06-0.17,0.08-0.25
		L279.58,175.13z M290.96,180.68l15.8-40.88c0.08-0.17-0.01-0.4-0.19-0.49c-0.19-0.08-0.4-0.02-0.51,0.15l-23.83,36.6
		c-0.08,0.13-0.13,0.25-0.21,0.37c-1.24,2.43-0.28,5.41,2.16,6.65c2.44,1.24,5.42,0.28,6.67-2.15c0.04-0.08,0.08-0.15,0.1-0.24
		L290.96,180.68z M301.32,187.93l22.02-37.91c0.1-0.17,0.06-0.39-0.1-0.51c-0.15-0.1-0.4-0.08-0.53,0.06l-29.28,32.42
		c-0.1,0.1-0.17,0.22-0.26,0.33c-1.61,2.21-1.12,5.3,1.09,6.91c2.21,1.61,5.31,1.12,6.92-1.09c0.06-0.06,0.1-0.13,0.13-0.22
		L301.32,187.93z M310.41,196.7l27.66-34.03c0.1-0.15,0.1-0.38-0.04-0.52c-0.13-0.15-0.38-0.15-0.53-0.02l-33.98,27.48
		c-0.1,0.08-0.22,0.17-0.31,0.29c-1.93,1.93-1.93,5.06,0,6.99c1.93,1.93,5.07,1.93,7.01,0c0.06-0.06,0.1-0.13,0.19-0.21
		L310.41,196.7z M318.03,206.78l32.64-29.32c0.13-0.13,0.15-0.36,0.06-0.52c-0.1-0.17-0.35-0.21-0.52-0.1l-37.86,21.87
		c-0.1,0.06-0.24,0.15-0.35,0.23c-2.21,1.61-2.7,4.7-1.09,6.91c1.61,2.21,4.71,2.7,6.92,1.09
		C317.91,206.89,317.95,206.83,318.03,206.78L318.03,206.78z M323.98,217.92l36.83-23.87c0.15-0.1,0.23-0.32,0.13-0.51
		c-0.1-0.17-0.32-0.26-0.5-0.17l-40.82,15.7c-0.13,0.04-0.26,0.1-0.38,0.17c-2.44,1.24-3.4,4.22-2.16,6.65
		c1.24,2.43,4.23,3.4,6.67,2.15C323.82,218.01,323.87,217.97,323.98,217.92L323.98,217.92z M328.1,229.87l40.14-17.79
		c0.19-0.08,0.28-0.28,0.22-0.48c-0.06-0.21-0.27-0.31-0.47-0.26l-42.79,9.09c-0.13,0.02-0.28,0.06-0.41,0.1
		c-2.6,0.84-4.03,3.63-3.18,6.23c0.84,2.6,3.64,4.02,6.24,3.18c0.1-0.02,0.15-0.06,0.25-0.08L328.1,229.87z M330.28,242.31
		l42.45-11.26c0.17-0.04,0.32-0.24,0.29-0.44c-0.04-0.21-0.22-0.35-0.42-0.33l-43.69,2.26c-0.13,0.01-0.28,0.02-0.42,0.04
		c-2.7,0.43-4.55,2.95-4.13,5.65c0.43,2.7,2.96,4.54,5.66,4.12C330.13,242.33,330.17,242.33,330.28,242.31L330.28,242.31z
		 M330.49,254.93l43.68-4.55c0.21-0.02,0.35-0.17,0.35-0.39c0-0.21-0.15-0.38-0.36-0.39l-43.51-4.54c-0.13-0.01-0.29-0.02-0.43-0.02
		c-2.74,0-4.95,2.21-4.95,4.94c0,2.73,2.22,4.94,4.95,4.94C330.33,254.93,330.37,254.93,330.49,254.93L330.49,254.93z
		 M328.74,267.42l43.86,2.27c0.21,0.01,0.38-0.13,0.41-0.33c0.04-0.21-0.1-0.4-0.3-0.44l-42.27-11.22
		c-0.13-0.02-0.28-0.06-0.41-0.08c-2.7-0.42-5.24,1.42-5.66,4.12c-0.43,2.7,1.42,5.23,4.13,5.65c0.1,0.01,0.15,0.02,0.26,0.02
		L328.74,267.42z M325.04,279.5l42.96,9.13c0.19,0.04,0.39-0.06,0.45-0.26c0.06-0.21-0.04-0.41-0.23-0.48l-39.98-17.72
		c-0.13-0.06-0.26-0.1-0.4-0.15c-2.6-0.84-5.4,0.58-6.24,3.18c-0.85,2.6,0.58,5.38,3.18,6.23
		C324.89,279.45,324.94,279.47,325.04,279.5L325.04,279.5z M319.48,290.85l40.98,15.76c0.19,0.06,0.4,0,0.49-0.17
		c0.1-0.17,0.04-0.41-0.13-0.51l-36.68-23.78c-0.1-0.06-0.24-0.13-0.37-0.21c-2.44-1.24-5.42-0.27-6.67,2.15
		c-1.24,2.43-0.28,5.41,2.16,6.65c0.08,0.04,0.15,0.08,0.24,0.1L319.48,290.85z M312.21,301.18l38,21.96
		c0.15,0.1,0.39,0.06,0.51-0.1c0.1-0.15,0.1-0.4-0.06-0.53l-32.5-29.21c-0.1-0.08-0.22-0.17-0.33-0.26
		c-2.21-1.61-5.31-1.12-6.92,1.09c-1.61,2.21-1.12,5.3,1.09,6.91C312.08,301.08,312.12,301.14,312.21,301.18L312.21,301.18z
		 M303.41,310.26l34.11,27.6c0.13,0.13,0.38,0.1,0.52-0.02c0.13-0.13,0.13-0.38,0.02-0.53l-27.55-33.9c-0.1-0.1-0.19-0.22-0.29-0.31
		c-1.93-1.93-5.07-1.93-7.01,0c-1.93,1.93-1.93,5.06,0,6.99C303.28,310.15,303.35,310.19,303.41,310.26L303.41,310.26z
		 M293.31,317.86l29.39,32.56c0.13,0.15,0.36,0.17,0.52,0.06c0.15-0.1,0.21-0.35,0.1-0.52l-21.92-37.77
		c-0.08-0.1-0.13-0.24-0.24-0.35c-1.61-2.21-4.71-2.7-6.92-1.09c-2.21,1.61-2.7,4.7-1.09,6.91
		C293.22,317.72,293.26,317.78,293.31,317.86L293.31,317.86z M282.14,323.79l23.92,36.75c0.1,0.15,0.32,0.23,0.5,0.13
		c0.19-0.08,0.26-0.31,0.19-0.5l-15.73-40.72c-0.06-0.13-0.1-0.26-0.15-0.38c-1.24-2.43-4.23-3.4-6.67-2.16
		c-2.44,1.24-3.4,4.22-2.16,6.65c0.04,0.08,0.1,0.15,0.1,0.23L282.14,323.79z M270.17,327.9L288,367.95
		c0.08,0.17,0.29,0.27,0.48,0.22c0.21-0.06,0.31-0.27,0.26-0.47l-9.11-42.69c-0.04-0.13-0.08-0.27-0.1-0.41
		c-0.84-2.6-3.64-4.02-6.24-3.18c-2.6,0.84-4.03,3.63-3.18,6.23c0.04,0.08,0.06,0.17,0.1,0.25L270.17,327.9z M257.7,330.07
		l11.29,42.34c0.04,0.21,0.24,0.32,0.44,0.28c0.21-0.02,0.35-0.22,0.33-0.42l-2.26-43.58c-0.01-0.13-0.04-0.28-0.04-0.42
		c-0.43-2.7-2.96-4.54-5.66-4.12c-2.7,0.42-4.55,2.95-4.13,5.65C257.67,329.9,257.7,329.99,257.7,330.07L257.7,330.07z
		 M245.05,330.3l4.56,43.58c0.01,0.21,0.19,0.35,0.39,0.35c0.21,0,0.38-0.15,0.39-0.36l4.55-43.41c0.01-0.13,0.02-0.28,0.02-0.42
		c0-2.73-2.22-4.94-4.95-4.94c-2.74,0-4.96,2.21-4.96,4.94C245.04,330.12,245.04,330.2,245.05,330.3L245.05,330.3z M232.52,328.55
		l-2.28,43.76c-0.01,0.21,0.13,0.37,0.33,0.4c0.21,0.02,0.4-0.08,0.44-0.3l11.25-42.17c0.04-0.13,0.06-0.28,0.1-0.41
		c0.43-2.7-1.42-5.23-4.13-5.65c-2.7-0.43-5.24,1.42-5.66,4.12c-0.01,0.08-0.04,0.17-0.04,0.26L232.52,328.55z M220.41,324.86
		l-9.15,42.86c-0.04,0.21,0.08,0.39,0.26,0.45c0.21,0.06,0.41-0.04,0.48-0.23l17.76-39.88c0.06-0.13,0.1-0.26,0.13-0.4
		c0.84-2.6-0.58-5.39-3.18-6.23c-2.6-0.84-5.4,0.58-6.24,3.18c-0.04,0.08-0.06,0.17-0.08,0.25L220.41,324.86z M209.04,319.31
		l-15.8,40.88c-0.08,0.17,0.01,0.4,0.19,0.49c0.17,0.08,0.4,0.02,0.51-0.15l23.83-36.6c0.08-0.13,0.13-0.25,0.21-0.37
		c1.24-2.43,0.28-5.41-2.16-6.65c-2.44-1.24-5.42-0.28-6.67,2.16c-0.04,0.08-0.08,0.15-0.1,0.23L209.04,319.31z M198.68,312.06
		l-22.02,37.91c-0.1,0.17-0.06,0.39,0.1,0.51c0.15,0.1,0.4,0.08,0.53-0.06L206.58,318c0.1-0.1,0.19-0.22,0.27-0.33
		c1.61-2.21,1.12-5.3-1.09-6.91c-2.21-1.61-5.31-1.12-6.92,1.09c-0.06,0.06-0.1,0.13-0.13,0.22L198.68,312.06z M189.59,303.29
		l-27.66,34.03c-0.1,0.15-0.1,0.38,0.04,0.52c0.13,0.15,0.38,0.15,0.53,0.02l33.98-27.48c0.1-0.08,0.22-0.17,0.31-0.29
		c1.93-1.93,1.93-5.06,0-6.99s-5.07-1.93-7.01,0c-0.06,0.06-0.1,0.13-0.19,0.21L189.59,303.29z M181.97,293.21l-32.64,29.32
		c-0.13,0.13-0.15,0.36-0.06,0.52c0.1,0.15,0.35,0.21,0.52,0.08l37.86-21.87c0.1-0.06,0.24-0.15,0.35-0.23
		c2.21-1.61,2.7-4.7,1.09-6.91c-1.61-2.21-4.71-2.69-6.92-1.09c-0.08,0.04-0.13,0.1-0.21,0.15L181.97,293.21z M176.02,282.07
		l-36.83,23.87c-0.15,0.1-0.23,0.32-0.13,0.51c0.1,0.17,0.32,0.26,0.5,0.17l40.82-15.69c0.13-0.04,0.26-0.1,0.38-0.17
		c2.44-1.24,3.41-4.22,2.16-6.65c-1.24-2.43-4.23-3.4-6.67-2.15C176.17,281.98,176.13,282.02,176.02,282.07L176.02,282.07z
		 M171.9,270.12l-40.14,17.79c-0.17,0.06-0.28,0.28-0.22,0.48c0.06,0.21,0.27,0.31,0.47,0.26l42.79-9.09
		c0.13-0.02,0.28-0.06,0.41-0.1c2.6-0.84,4.03-3.63,3.18-6.23c-0.84-2.6-3.64-4.02-6.24-3.18c-0.1,0.02-0.15,0.06-0.25,0.08
		L171.9,270.12z M169.72,257.68l-42.45,11.26c-0.19,0.04-0.32,0.23-0.29,0.44c0.04,0.21,0.22,0.34,0.42,0.33l43.69-2.26
		c0.13-0.01,0.28-0.02,0.42-0.04c2.7-0.43,4.55-2.95,4.13-5.65c-0.43-2.7-2.96-4.54-5.66-4.12
		C169.88,257.65,169.83,257.66,169.72,257.68L169.72,257.68z M169.51,245.06l-43.68,4.55c-0.21,0.02-0.35,0.17-0.35,0.39
		c0,0.21,0.15,0.38,0.36,0.39l43.51,4.54c0.13,0.01,0.29,0.02,0.43,0.02c2.74,0,4.96-2.21,4.96-4.94c0-2.73-2.22-4.94-4.96-4.94
		C169.67,245.06,169.63,245.06,169.51,245.06L169.51,245.06z M171.26,232.56l-43.86-2.27c-0.21-0.01-0.38,0.13-0.4,0.33
		c-0.04,0.21,0.1,0.4,0.3,0.44l42.27,11.22c0.13,0.02,0.28,0.06,0.41,0.08c2.7,0.43,5.24-1.42,5.66-4.12
		c0.43-2.7-1.42-5.23-4.13-5.65c-0.1-0.01-0.15-0.02-0.26-0.02V232.56z M174.96,220.49L132,211.35c-0.17-0.04-0.39,0.06-0.45,0.26
		c-0.06,0.21,0.04,0.41,0.23,0.48l39.98,17.72c0.13,0.06,0.27,0.1,0.4,0.15c2.6,0.84,5.4-0.58,6.24-3.17
		c0.84-2.6-0.58-5.39-3.18-6.23C175.11,220.54,175.07,220.52,174.96,220.49L174.96,220.49z M180.52,209.14l-40.98-15.76
		c-0.19-0.06-0.4,0.01-0.49,0.17c-0.1,0.17-0.04,0.41,0.13,0.51l36.68,23.78c0.1,0.06,0.25,0.13,0.37,0.21
		c2.44,1.24,5.42,0.28,6.67-2.15c1.24-2.43,0.28-5.41-2.16-6.65c-0.08-0.04-0.13-0.08-0.24-0.1L180.52,209.14z M187.79,198.81
		l-38-21.97c-0.15-0.08-0.39-0.06-0.51,0.1c-0.1,0.15-0.1,0.4,0.06,0.53l32.5,29.21c0.1,0.08,0.22,0.17,0.33,0.26
		c2.21,1.61,5.31,1.12,6.92-1.09c1.61-2.21,1.12-5.3-1.09-6.91C187.93,198.91,187.89,198.84,187.79,198.81L187.79,198.81z
		 M196.59,189.73l-34.11-27.6c-0.13-0.13-0.38-0.1-0.52,0.02c-0.13,0.13-0.13,0.38-0.02,0.53l27.55,33.9
		c0.1,0.1,0.19,0.22,0.29,0.31c1.93,1.93,5.07,1.93,7.01,0c1.93-1.93,1.93-5.06,0-6.99C196.72,189.84,196.65,189.78,196.59,189.73
		L196.59,189.73z M206.69,182.13l-29.39-32.56c-0.13-0.15-0.36-0.17-0.52-0.06c-0.15,0.1-0.21,0.35-0.1,0.52l21.92,37.77
		c0.08,0.13,0.13,0.24,0.24,0.35c1.61,2.21,4.71,2.69,6.92,1.09c2.21-1.61,2.7-4.7,1.09-6.91c-0.06-0.06-0.1-0.13-0.13-0.21
		L206.69,182.13z M217.86,176.2l-23.92-36.75c-0.1-0.15-0.32-0.23-0.5-0.13c-0.19,0.08-0.26,0.32-0.19,0.5l15.73,40.72
		c0.06,0.13,0.1,0.26,0.15,0.38c1.24,2.43,4.23,3.4,6.67,2.15c2.44-1.24,3.41-4.22,2.16-6.65c-0.04-0.08-0.1-0.15-0.1-0.23
		L217.86,176.2z M229.83,172.09L212,132.04c-0.08-0.17-0.29-0.27-0.48-0.22c-0.21,0.06-0.31,0.27-0.26,0.47l9.11,42.69
		c0.04,0.13,0.08,0.28,0.1,0.41c0.84,2.6,3.64,4.02,6.24,3.18c2.6-0.84,4.03-3.63,3.18-6.23c-0.04-0.08-0.06-0.17-0.1-0.25
		L229.83,172.09z M242.3,169.91l-11.29-42.34c-0.04-0.21-0.24-0.32-0.44-0.28c-0.21,0.02-0.35,0.22-0.33,0.42l2.26,43.58
		c0.01,0.13,0.04,0.28,0.04,0.42c0.43,2.7,2.96,4.54,5.66,4.12c2.7-0.43,4.55-2.95,4.13-5.65C242.33,170.09,242.3,170,242.3,169.91z
		 M254.95,169.7l-4.56-43.58c-0.01-0.21-0.19-0.35-0.39-0.35c-0.21,0-0.38,0.15-0.39,0.36l-4.55,43.41
		c-0.01,0.13-0.01,0.28-0.01,0.42c0,2.73,2.22,4.94,4.95,4.94c2.74,0,4.95-2.21,4.95-4.94C254.96,169.88,254.96,169.8,254.95,169.7
		L254.95,169.7z M250,178.01c39.86,0,72.17,32.23,72.17,71.99c0,39.76-32.31,71.99-72.17,71.99s-72.17-32.23-72.17-71.99
		C177.84,210.24,210.15,178.01,250,178.01z M250,185.81c35.54,0,64.34,28.74,64.34,64.19c0,35.45-28.81,64.19-64.34,64.19
		s-64.34-28.74-64.34-64.19C185.66,214.55,214.47,185.81,250,185.81z M194.71,269.83c6.77-14.13,16.13-26.61,26.94-37.11
		c1.69,1.11,3.37,2.26,5.02,3.45c-11.36,10.83-21.26,24.24-28.73,40.67C196.72,274.58,195.64,272.24,194.71,269.83L194.71,269.83z
		 M254.67,235.73c1.54,1.28,3.05,2.61,4.54,3.98c1.59-1.3,3.2-2.56,4.83-3.77c-1.48-1.34-3-2.65-4.53-3.92
		C257.88,233.22,256.26,234.46,254.67,235.73z M245.05,228.4c1.67,1.16,3.32,2.35,4.95,3.6c1.63-1.24,3.28-2.44,4.95-3.6
		c-1.63-1.24-3.28-2.44-4.95-3.6C248.33,225.96,246.68,227.16,245.05,228.4z M245.49,243.75c1.53,1.37,3.03,2.79,4.51,4.26
		c1.48-1.47,2.98-2.88,4.51-4.26c-1.48-1.41-2.98-2.78-4.51-4.11C248.47,240.97,246.97,242.34,245.49,243.75z M235.96,235.94
		c1.63,1.21,3.24,2.47,4.83,3.77c1.49-1.37,3-2.7,4.54-3.98c-1.59-1.28-3.21-2.51-4.84-3.71
		C238.96,233.29,237.45,234.6,235.96,235.94L235.96,235.94z M265.58,221.73c-1.64-1.25-3.3-2.46-4.98-3.62
		c-1.91,1.09-3.8,2.23-5.68,3.42c1.71,1.13,3.41,2.31,5.09,3.53C261.85,223.91,263.71,222.8,265.58,221.73L265.58,221.73z
		 M274.35,228.98c-1.47-1.32-2.97-2.61-4.48-3.86c-1.79,1.08-3.57,2.21-5.33,3.38c1.55,1.23,3.08,2.51,4.59,3.83
		C270.85,231.17,272.59,230.06,274.35,228.98L274.35,228.98z M244.04,215.02c1.97-1.26,3.96-2.46,5.97-3.6
		c2.01,1.14,4,2.34,5.97,3.6c-2.01,1.08-4,2.21-5.97,3.4C248.03,217.24,246.04,216.1,244.04,215.02z M234.42,221.73
		c1.64-1.25,3.3-2.46,4.98-3.62c1.91,1.09,3.8,2.23,5.68,3.42c-1.72,1.13-3.41,2.31-5.09,3.53
		C238.15,223.91,236.3,222.8,234.42,221.73L234.42,221.73z M225.66,228.98c1.47-1.32,2.97-2.61,4.48-3.86
		c1.79,1.08,3.57,2.21,5.33,3.38c-1.55,1.23-3.08,2.51-4.59,3.83C229.15,231.17,227.41,230.06,225.66,228.98L225.66,228.98z
		 M198.03,220.35c6.12,2.45,12.23,5.46,18.19,8.98c-9.18,8.73-17.41,19.13-24.18,31.44c-0.82-3.91-1.25-7.96-1.25-12.11
		C190.79,238.41,193.42,228.76,198.03,220.35L198.03,220.35z M203.06,212.67c7.22,2.33,14.48,5.45,21.59,9.32
		c-1.53,1.22-3.04,2.49-4.53,3.79c-6.49-3.58-13.16-6.6-19.89-9.12C201.13,215.28,202.07,213.96,203.06,212.67L203.06,212.67z
		 M209.38,205.7c8.16,2.13,16.46,5.33,24.59,9.48c-1.71,1.14-3.41,2.33-5.09,3.56c-7.52-3.84-15.25-6.97-22.99-9.46
		C207,208.04,208.16,206.85,209.38,205.7z M218.58,198.6c0.15,0.06,0.36,0.13,0.55,0.21c0.22,0.06,0.43,0.1,0.65,0.15
		c8.31,2.16,16.76,5.41,25.04,9.66c-2.1,1.14-4.19,2.35-6.25,3.61c-8.01-3.89-16.22-7-24.42-9.41c-0.08-0.02-0.53-0.17-1.04-0.36
		C214.86,201.07,216.68,199.78,218.58,198.6L218.58,198.6z M276.37,195.77c-0.32,0.1-0.55,0.17-0.62,0.21
		c-8.65,2.51-17.32,5.79-25.75,9.96c-8.27-4.08-16.77-7.32-25.26-9.81c-0.15-0.04-0.33-0.08-0.49-0.13
		c-0.23-0.06-0.44-0.13-0.64-0.21c7.95-3.95,16.91-6.18,26.39-6.18C259.48,189.61,268.43,191.83,276.37,195.77L276.37,195.77z
		 M286.94,202.51c-0.22,0.06-0.43,0.1-0.6,0.15c-8.37,2.43-16.75,5.58-24.92,9.55c-2.06-1.26-4.14-2.46-6.25-3.61
		c8.49-4.36,17.17-7.67,25.69-9.83c0.21-0.02,0.42-0.08,0.63-0.13C283.39,199.84,285.2,201.12,286.94,202.51L286.94,202.51z
		 M294.12,209.28c-7.74,2.5-15.47,5.62-22.99,9.46c-1.68-1.23-3.37-2.42-5.09-3.56c8.13-4.15,16.43-7.34,24.59-9.48
		C291.84,206.85,293,208.04,294.12,209.28z M299.76,216.65c-6.73,2.52-13.4,5.54-19.89,9.12c-1.49-1.31-3-2.57-4.53-3.79
		c7.11-3.86,14.37-6.99,21.59-9.32C297.93,213.96,298.88,215.28,299.76,216.65L299.76,216.65z M307.96,260.78
		c-6.77-12.31-15-22.72-24.18-31.44c5.96-3.53,12.07-6.53,18.19-8.98c4.61,8.41,7.24,18.05,7.24,28.32
		C309.21,252.82,308.78,256.87,307.96,260.78L307.96,260.78z M302.06,276.83c-7.47-16.43-17.37-29.83-28.73-40.67
		c1.66-1.19,3.33-2.34,5.02-3.45c10.82,10.5,20.18,22.98,26.95,37.11C304.36,272.24,303.28,274.58,302.06,276.83z M292.83,289.45
		c-7.21-18.55-17.38-33.56-29.3-45.58c1.56-1.35,3.15-2.66,4.76-3.92c12.34,12.1,22.73,26.81,29.49,43.59
		C296.26,285.61,294.61,287.59,292.83,289.45L292.83,289.45z M281.66,298.59l-0.79-2.11c-6.54-17.62-15.71-32.11-26.52-43.94
		c1.47-1.52,2.98-3.01,4.51-4.45c12.38,12.89,22.56,28.5,28.68,46.26C285.67,295.87,283.71,297.29,281.66,298.59L281.66,298.59z
		 M224.37,301.93l0.76-2.36c5.46-15.98,14.19-30.23,24.87-42.33c10.68,12.1,19.42,26.35,24.87,42.33l0.78,2.35
		c-7.76,3.73-16.46,5.81-25.65,5.81C240.82,307.73,232.13,305.65,224.37,301.93L224.37,301.93z M212.47,294.35
		c6.12-17.76,16.29-33.37,28.68-46.26c1.53,1.45,3.04,2.93,4.51,4.45c-10.81,11.83-19.98,26.33-26.52,43.94l-0.78,2.11
		C216.3,297.3,214.34,295.88,212.47,294.35L212.47,294.35z M202.22,283.54c6.76-16.79,17.15-31.49,29.49-43.59
		c1.61,1.27,3.2,2.58,4.76,3.92c-11.92,12.02-22.08,27.03-29.3,45.58C205.4,287.59,203.74,285.61,202.22,283.54"/>
</g>
</svg>
