<?xml version="1.0" encoding="utf-8"?>
<!-- Generator: Adobe Illustrator 26.5.0, SVG Export Plug-In . SVG Version: 6.00 Build 0)  -->
<svg version="1.1" id="Layer_1" xmlns="http://www.w3.org/2000/svg" xmlns:xlink="http://www.w3.org/1999/xlink" x="0px" y="0px"
	 viewBox="0 0 500 500" style="enable-background:new 0 0 500 500;" xml:space="preserve">
<style type="text/css">
	.st0{fill:#131313;}
</style>
<g>
	<path class="st0" d="M262.27,224.98c2.14-1.55,4.29-3.1,6.55-4.53c-1.91-1.67-3.93-3.22-5.96-4.77c-2.26,1.43-4.53,2.86-6.79,4.41
		h0.12C258.22,221.64,260.25,223.31,262.27,224.98z"/>
	<path class="st0" d="M230.46,220.33c2.26,1.55,4.41,2.98,6.55,4.53c2.03-1.67,4.05-3.22,6.2-4.77c-2.26-1.55-4.41-2.98-6.67-4.41
		C234.51,217.24,232.49,218.79,230.46,220.33z"/>
	<path class="st0" d="M242.85,203.54c-10.25-5.24-21.09-9.05-32.29-11.79c-1.79,1.19-3.46,2.5-5,3.93
		c10.72,2.86,20.97,6.79,30.62,11.91C238.44,206.16,240.71,204.85,242.85,203.54z"/>
	<path class="st0" d="M283.6,188.52c-9.89-5.84-21.56-9.17-33.96-9.17c-12.39,0-23.95,3.34-33.96,9.17
		c11.79,2.38,23.23,6.2,33.96,11.44C260.48,194.72,271.92,190.91,283.6,188.52z"/>
	<path class="st0" d="M229.87,211.88c-9.05-5-18.7-9.05-28.59-12.15c-1.43,1.43-2.86,2.86-4.05,4.41
		c9.29,3.22,18.23,7.39,26.81,12.27C225.93,214.73,227.96,213.3,229.87,211.88z"/>
	<path class="st0" d="M263.11,207.59c9.77-5.12,20.02-9.05,30.62-11.91c-1.55-1.43-3.22-2.74-5-3.81
		c-11.2,2.62-22.04,6.55-32.29,11.68C258.7,204.85,260.84,206.16,263.11,207.59z"/>
	<path class="st0" d="M243.45,229.87c2.14,1.67,4.17,3.45,6.2,5.24c2.03-1.79,4.05-3.57,6.2-5.24c-2.03-1.67-4.05-3.46-6.2-5
		C247.62,226.41,245.59,228.08,243.45,229.87z"/>
	<path class="st0" d="M275.38,216.4c8.46-4.88,17.39-9.05,26.69-12.27c-1.19-1.55-2.5-2.98-4.05-4.29
		c-9.89,2.98-19.42,7.03-28.59,12.03C271.45,213.3,273.47,214.85,275.38,216.4z"/>
	<path class="st0" d="M249.64,207.11c-2.26,1.31-4.41,2.74-6.67,4.17c2.26,1.31,4.41,2.74,6.67,4.17c2.26-1.43,4.65-2.86,6.79-4.17
		C254.17,209.85,251.91,208.42,249.64,207.11z"/>
	<path class="st0" d="M353.65,265.49c1.79,0.71,3.34,1.31,5.24,1.67c5.48,0.83,12.51-0.6,17.39-5.36
		c-6.08,1.55-11.56,0.6-15.13-1.19c-0.48-0.24-1.07-0.48-1.55-0.83c-2.62-1.91-5.24-3.93-10.84-6.43c-3.1-1.19-6.91-2.5-12.51-3.34
		c1.07-0.83,2.5-1.31,4.17-1.55c5.48-1.07,9.05-0.71,14.42,0.6c1.79,0.48,3.46,0.83,5.36,0.83c5.6,0,12.27-2.62,16.44-7.98
		c-5.84,2.38-11.44,2.38-15.13,1.19c-0.6-0.12-1.19-0.36-1.67-0.6c-2.98-1.43-5.84-3.1-11.79-4.65c-3.34-0.71-7.15-1.43-12.87-1.31
		c0.95-1.07,2.26-1.67,3.81-2.14c5.36-2.03,8.94-2.14,14.42-1.79c1.91,0.24,3.57,0.36,5.48,0c5.48-0.83,11.68-4.41,14.89-10.48
		c-5.36,3.34-10.84,4.17-14.77,3.69c-0.6-0.12-1.19-0.24-1.79-0.48c-3.1-0.95-6.2-2.14-12.27-2.74c-3.34-0.12-7.39-0.24-12.87,0.83
		c0.71-1.19,1.91-2.14,3.46-2.86c4.88-2.74,8.34-3.45,13.82-3.93c1.91-0.12,3.57-0.24,5.36-0.83c5.36-1.79,10.96-6.2,13.11-12.75
		c-4.65,4.17-10.01,5.84-13.94,5.96c-0.6,0-1.19,0-1.79-0.12c-3.22-0.48-6.55-1.19-12.63-0.71c-3.34,0.24-7.27,0.83-12.63,2.74
		c0.6-1.31,1.67-2.38,2.98-3.34c4.41-3.45,7.74-4.77,13.11-6.08c1.91-0.36,3.45-0.83,5.24-1.67c4.89-2.62,9.77-7.86,10.96-14.65
		c-4.05,4.89-9.05,7.39-12.99,8.1c-0.6,0.12-1.19,0.12-1.79,0.12c-3.22,0-6.55-0.12-12.51,1.19c-3.34,0.83-7.15,2.03-12.03,4.77
		c0.36-1.43,1.19-2.62,2.38-3.69c3.81-4.17,6.91-5.96,12.03-8.1c1.79-0.71,3.34-1.31,4.88-2.5c4.41-3.34,8.34-9.29,8.46-16.08
		c-3.22,5.36-7.74,8.58-11.44,9.89c-0.6,0.24-1.19,0.36-1.79,0.48c-3.22,0.6-6.55,0.95-12.27,3.22c-2.98,1.31-6.55,2.98-11.08,6.43
		c0.12-1.31,0.83-2.74,1.79-4.05c3.1-4.65,5.96-6.91,10.6-9.77c1.67-0.95,3.1-1.91,4.41-3.22c3.93-3.93,6.91-10.48,5.96-17.28
		c-2.38,5.84-6.43,9.77-9.89,11.68c-0.48,0.24-1.07,0.48-1.55,0.6c-3.1,1.07-6.31,2.03-11.68,5.12c-2.86,1.79-6.08,4.05-10.01,8.1
		c0-1.31,0.48-2.74,1.19-4.17c2.38-5.12,4.77-7.74,8.94-11.44c1.43-1.19,2.74-2.26,3.93-3.81c3.22-4.53,5.12-11.44,3.1-17.99
		c-1.43,6.08-4.77,10.6-7.86,12.99c-0.48,0.36-0.95,0.71-1.55,0.95c-2.86,1.55-5.96,2.86-10.6,6.79c-2.62,2.26-5.48,5-8.58,9.65
		c-0.36-1.31-0.12-2.86,0.48-4.41c1.55-5.36,3.45-8.34,7.03-12.63c1.19-1.43,2.38-2.62,3.22-4.41c2.5-5,3.22-12.03,0.24-18.23
		c-0.36,6.31-2.98,11.2-5.72,14.06c-0.48,0.48-0.83,0.83-1.31,1.19c-2.62,1.91-5.48,3.81-9.53,8.46h0
		c-2.14,2.5-4.53,5.72-6.91,10.84c-0.6-1.31-0.6-2.86-0.24-4.53c0.6-5.48,2.14-8.82,5-13.46c0.95-1.67,1.91-3.1,2.38-4.89
		c1.79-5.36,1.43-12.51-2.5-18.11c0.6,6.31-1.31,11.56-3.45,14.77c-0.36,0.6-0.72,0.95-1.19,1.43c-2.26,2.26-4.77,4.53-7.98,9.77
		c-1.79,2.86-3.57,6.31-5.24,11.79c-0.71-1.19-0.95-2.62-0.83-4.29c-0.24-5.6,0.71-9.05,2.74-14.18c0.71-1.79,1.43-3.34,1.67-5.24
		c0.83-5.48-0.6-12.51-5.36-17.39c1.55,6.08,0.6,11.56-1.07,15.13c-0.36,0.6-0.6,1.07-0.95,1.55c-1.91,2.62-3.93,5.24-6.43,10.84
		c-1.19,3.22-2.5,6.91-3.22,12.51c-0.95-1.07-1.43-2.5-1.55-4.17c-1.07-5.48-0.71-9.05,0.48-14.42c0.48-1.79,0.95-3.45,0.83-5.36
		c0-5.6-2.5-12.27-7.98-16.44c2.5,5.84,2.38,11.44,1.31,15.25c-0.24,0.48-0.48,1.07-0.71,1.55c-1.43,2.98-3.1,5.84-4.65,11.79
		c-0.71,3.34-1.43,7.27-1.31,12.87c-0.95-0.95-1.67-2.26-2.14-3.81c-1.91-5.36-2.14-8.82-1.67-14.42c0.12-1.91,0.24-3.57,0-5.36
		c-0.95-5.6-4.53-11.79-10.48-15.01c3.34,5.36,4.05,10.96,3.57,14.77c-0.12,0.6-0.24,1.19-0.36,1.79c-0.95,3.1-2.14,6.2-2.74,12.39
		c-0.24,3.34-0.36,7.27,0.71,12.87c-1.19-0.83-2.03-2.03-2.74-3.45c-2.74-5-3.45-8.46-3.93-13.94c-0.12-1.91-0.24-3.57-0.95-5.36
		c-1.67-5.36-6.2-10.96-12.63-13.11c4.17,4.65,5.84,10.01,5.84,13.94c0,0.6,0,1.19-0.12,1.79c-0.48,3.22-1.07,6.55-0.71,12.63
		c0.36,3.34,0.83,7.27,2.74,12.63c-1.31-0.6-2.38-1.67-3.34-2.98c-3.46-4.41-4.65-7.74-5.96-13.11c-0.48-1.91-0.83-3.45-1.79-5.24
		c-2.5-4.89-7.86-9.77-14.54-10.96c4.77,4.05,7.27,9.17,7.98,12.99c0.12,0.6,0.12,1.19,0.12,1.79c0.12,3.22,0,6.55,1.31,12.63
		c0.83,3.22,1.91,7.03,4.65,11.91c-1.31-0.36-2.5-1.19-3.69-2.38c-4.17-3.81-5.96-6.91-7.98-12.03c-0.71-1.79-1.43-3.34-2.5-4.89
		c-3.34-4.41-9.29-8.34-16.2-8.46c5.48,3.22,8.7,7.74,10.01,11.44c0.12,0.6,0.24,1.19,0.36,1.79c0.6,3.22,0.95,6.55,3.22,12.27
		c1.31,3.1,3.1,6.67,6.55,11.08c-1.43-0.12-2.74-0.83-4.05-1.79c-4.65-3.1-6.91-5.96-9.89-10.6c-0.95-1.67-1.79-3.1-3.22-4.41
		c-3.93-3.93-10.48-6.91-17.28-5.96c5.84,2.38,9.77,6.43,11.68,9.89c0.24,0.48,0.48,1.07,0.71,1.67c1.07,2.98,1.91,6.2,5,11.56
		c1.79,2.86,4.05,6.08,8.22,10.01c-1.43,0-2.86-0.48-4.29-1.19c-5.12-2.38-7.74-4.77-11.32-8.94c-1.31-1.43-2.38-2.74-3.93-3.93
		c-4.53-3.22-11.44-5.12-17.99-3.1c6.2,1.43,10.72,4.77,12.99,7.86c0.48,0.48,0.71,0.95,0.95,1.55c1.55,2.86,2.98,5.96,6.91,10.6
		c2.14,2.62,4.88,5.48,9.53,8.7c-1.31,0.24-2.74,0-4.41-0.6c-5.36-1.43-8.34-3.45-12.51-7.03c-1.43-1.19-2.74-2.26-4.41-3.22
		c-5-2.5-12.15-3.22-18.35-0.24c6.31,0.36,11.32,3.1,14.18,5.72c0.36,0.48,0.71,0.83,1.07,1.43c2.03,2.5,3.81,5.36,8.46,9.41
		c2.5,2.14,5.72,4.53,10.84,7.03c-1.31,0.48-2.86,0.48-4.41,0.12c-5.6-0.6-8.82-2.14-13.58-5c-1.67-0.95-3.1-1.91-4.88-2.38
		c-5.36-1.79-12.39-1.43-17.99,2.5c6.2-0.6,11.56,1.31,14.77,3.45c0.48,0.36,0.95,0.71,1.31,1.19c2.38,2.26,4.65,4.77,9.77,7.98
		c2.86,1.79,6.43,3.69,11.79,5.24c-1.19,0.71-2.62,0.95-4.29,0.95c-5.6,0.12-9.05-0.83-14.18-2.86c-1.79-0.71-3.34-1.43-5.24-1.67
		c-5.48-0.83-12.51,0.6-17.39,5.36c6.08-1.55,11.68-0.6,15.13,1.07c0.6,0.36,1.07,0.6,1.55,0.95c2.62,1.91,5.24,3.93,10.96,6.43
		c3.1,1.19,6.79,2.5,12.39,3.22c-1.07,0.95-2.5,1.43-4.05,1.55c-5.6,1.19-9.05,0.71-14.54-0.48c-1.79-0.48-3.46-0.83-5.36-0.83
		c-5.6,0-12.27,2.5-16.32,7.98c5.72-2.5,11.32-2.38,15.13-1.31c0.6,0.24,1.07,0.48,1.67,0.71c2.86,1.43,5.84,3.1,11.79,4.65
		c3.22,0.71,7.15,1.43,12.75,1.31c-0.95,0.95-2.26,1.67-3.81,2.14c-5.24,1.91-8.82,2.14-14.3,1.67c-1.91-0.12-3.57-0.24-5.48,0
		c-5.48,0.95-11.68,4.53-14.89,10.6c5.24-3.45,10.84-4.17,14.77-3.69c0.6,0.12,1.07,0.24,1.67,0.36c3.1,1.07,6.2,2.14,12.39,2.74
		c3.34,0.24,7.27,0.36,12.87-0.71c-0.83,1.19-2.03,2.03-3.46,2.74c-4.88,2.74-8.46,3.46-13.94,3.93c-1.91,0.24-3.57,0.36-5.36,0.95
		c-5.36,1.67-10.84,6.2-13.11,12.63c4.77-4.17,10.13-5.72,14.06-5.84c0.6,0,1.19,0,1.79,0.12c3.1,0.48,6.43,1.07,12.63,0.71
		c3.34-0.24,7.27-0.83,12.51-2.74c-0.48,1.31-1.55,2.38-2.98,3.34c-4.41,3.45-7.74,4.65-13.11,5.96c-1.79,0.48-3.45,0.83-5.12,1.79
		c-5,2.5-9.77,7.86-10.96,14.54c3.93-4.77,9.05-7.27,12.87-7.98c0.6-0.12,1.19-0.12,1.79-0.12c3.22-0.12,6.67,0,12.63-1.31
		c3.22-0.83,7.03-1.91,12.03-4.65c-0.36,1.31-1.31,2.62-2.5,3.69c-3.81,4.17-6.91,5.96-12.03,7.98c-1.67,0.83-3.22,1.43-4.77,2.5
		c-4.53,3.34-8.46,9.29-8.58,16.2c3.22-5.48,7.86-8.7,11.56-10.01c0.6-0.12,1.07-0.24,1.67-0.36c3.22-0.6,6.55-0.95,12.27-3.22
		c3.1-1.31,6.67-3.1,11.2-6.43c-0.24,1.31-0.83,2.62-1.91,3.93c-3.1,4.65-5.84,6.91-10.6,9.89c-1.55,0.95-2.98,1.79-4.41,3.22
		c-3.93,3.93-6.79,10.48-5.84,17.28c2.26-5.84,6.31-9.77,9.77-11.68c0.6-0.24,1.07-0.48,1.67-0.71c3.1-0.95,6.31-1.91,11.56-5
		c2.86-1.79,6.08-4.05,10.01-8.22c0.12,1.43-0.36,2.86-1.19,4.29c-2.38,5.12-4.77,7.74-8.94,11.32c-1.43,1.31-2.74,2.38-3.81,3.93
		c-3.22,4.53-5.12,11.44-3.1,17.99c1.31-6.2,4.65-10.72,7.86-12.99c0.48-0.36,0.95-0.71,1.43-0.95c2.86-1.55,5.96-2.98,10.72-6.91
		c2.5-2.14,5.36-4.89,8.58-9.53c0.24,1.31,0,2.86-0.48,4.41c-1.55,5.36-3.46,8.34-7.15,12.51c-1.19,1.43-2.26,2.74-3.1,4.53
		c-2.5,5-3.34,12.03-0.36,18.23c0.48-6.31,3.1-11.32,5.84-14.06c0.36-0.48,0.83-0.83,1.31-1.19c2.62-2.03,5.36-3.81,9.41-8.46
		c2.14-2.5,4.53-5.72,7.03-10.84c0.48,1.31,0.48,2.86,0.24,4.41c-0.71,5.6-2.14,8.82-5,13.58c-1.07,1.67-1.91,3.1-2.5,4.88
		c-1.67,5.36-1.31,12.51,2.62,18.11c-0.6-6.31,1.19-11.68,3.45-14.89c0.36-0.48,0.71-0.95,1.07-1.31c2.26-2.38,4.77-4.65,8.1-9.77
		c1.67-2.86,3.57-6.43,5.12-11.79c0.71,1.19,0.95,2.62,0.95,4.29c0.24,5.6-0.71,9.05-2.86,14.18c-0.71,1.79-1.31,3.34-1.67,5.24
		c-0.83,5.48,0.6,12.51,5.36,17.39c-1.55-6.08-0.6-11.68,1.19-15.13c0.24-0.6,0.48-1.07,0.83-1.55c1.91-2.62,4.05-5.24,6.43-10.96
		c1.31-3.1,2.62-6.79,3.34-12.39c0.83,1.07,1.31,2.5,1.55,4.05c1.07,5.6,0.71,9.05-0.6,14.54c-0.48,1.79-0.83,3.45-0.83,5.36
		c0,5.6,2.62,12.27,8.1,16.32c-2.5-5.72-2.5-11.32-1.31-15.13c0.12-0.6,0.36-1.07,0.6-1.67c1.43-2.86,3.1-5.84,4.65-11.79
		c0.71-3.22,1.43-7.15,1.31-12.75c1.07,0.95,1.67,2.26,2.14,3.81c2.03,5.24,2.14,8.82,1.79,14.42c-0.24,1.79-0.36,3.45,0,5.36
		c0.83,5.6,4.41,11.79,10.48,15.01c-3.34-5.36-4.17-10.96-3.57-14.77c0-0.6,0.12-1.19,0.36-1.79c0.95-3.1,2.14-6.2,2.74-12.39
		c0.12-3.34,0.24-7.27-0.71-12.87c1.07,0.83,2.03,2.03,2.74,3.45c2.74,4.89,3.45,8.46,3.93,13.94c0.12,1.91,0.24,3.57,0.83,5.36
		c1.79,5.36,6.2,10.84,12.75,13.11c-4.17-4.77-5.84-10.13-5.96-14.06c0-0.6,0-1.19,0.12-1.79c0.48-3.1,1.19-6.43,0.71-12.63
		c-0.24-3.34-0.83-7.27-2.62-12.51c1.19,0.6,2.26,1.55,3.22,2.98c3.45,4.41,4.77,7.74,6.08,13.11c0.36,1.79,0.83,3.46,1.67,5.12
		c2.62,5,7.86,9.77,14.65,10.96c-4.88-3.93-7.39-9.05-8.1-12.87c-0.12-0.6-0.12-1.19-0.12-1.79c0-3.22,0.12-6.55-1.19-12.63
		c-0.83-3.22-2.03-7.03-4.77-12.03c1.43,0.36,2.62,1.31,3.69,2.5c4.17,3.81,5.96,6.91,8.1,12.03c0.71,1.67,1.31,3.22,2.5,4.77
		c3.34,4.53,9.29,8.46,16.08,8.58c-5.36-3.22-8.58-7.86-9.89-11.56c-0.24-0.6-0.36-1.07-0.48-1.67c-0.48-3.22-0.95-6.55-3.22-12.27
		c-1.31-3.1-2.98-6.67-6.43-11.08c1.43,0.12,2.74,0.71,4.05,1.79c4.65,3.1,6.91,5.84,9.77,10.6c0.95,1.55,1.91,3.1,3.22,4.41
		c3.93,3.93,10.48,6.79,17.28,5.84c-5.84-2.26-9.77-6.31-11.56-9.77c-0.36-0.6-0.6-1.07-0.71-1.67c-1.07-3.1-2.03-6.31-5.12-11.56
		c-1.79-2.86-4.05-6.08-8.1-10.01c1.31,0,2.74,0.36,4.29,1.19c5,2.38,7.74,4.77,11.32,8.94c1.19,1.43,2.26,2.74,3.81,3.81
		c4.53,3.34,11.44,5.12,17.99,3.22c-6.08-1.43-10.6-4.77-12.99-7.98c-0.36-0.48-0.71-0.95-0.95-1.43
		c-1.55-2.86-2.86-5.96-6.79-10.72c-2.26-2.5-5-5.36-9.65-8.58c1.43-0.24,2.86,0,4.41,0.48c5.36,1.55,8.34,3.57,12.63,7.15
		c1.43,1.19,2.74,2.26,4.41,3.1c5,2.5,12.03,3.34,18.23,0.36c-6.31-0.48-11.2-3.1-14.06-5.84c-0.48-0.36-0.83-0.83-1.19-1.31
		c-1.91-2.62-3.81-5.36-8.34-9.41c-2.62-2.14-5.84-4.53-10.84-7.03c1.31-0.48,2.74-0.48,4.41-0.24c5.48,0.71,8.82,2.14,13.46,5.12
		c1.67,0.95,3.1,1.79,4.88,2.38c5.36,1.67,12.51,1.31,18.11-2.62c-6.31,0.6-11.56-1.19-14.77-3.46c-0.48-0.36-0.95-0.71-1.43-1.07
		c-2.26-2.26-4.53-4.77-9.77-8.1c-2.86-1.67-6.31-3.57-11.79-5.12c1.19-0.71,2.74-0.95,4.29-0.95
		C345.19,262.39,348.65,263.34,353.65,265.49z M250,326.13c-41.94,0-76.13-34.19-76.13-76.13s34.19-76.13,76.13-76.13
		s76.13,34.19,76.13,76.13S291.94,326.13,250,326.13z"/>
	<path class="st0" d="M274.78,225.46c-2.14,1.55-4.41,3.1-6.43,4.65c16.08,15.01,29.07,33.84,37.29,55.76
		c1.91-2.86,3.69-5.84,5.12-8.82c-2.98-7.15-6.55-14.18-10.72-21.09C292.89,244.4,284.31,234.15,274.78,225.46z"/>
	<path class="st0" d="M261.91,235.35c-2.14,1.91-4.17,3.69-6.2,5.6c14.06,14.3,25.5,31.57,33.36,51.35
		c1.07,2.74,2.03,5.48,2.98,8.22c2.62-2.14,5.12-4.41,7.39-6.91C291.34,270.85,278.24,251.19,261.91,235.35z"/>
	<path class="st0" d="M300.99,243.8c5.36,7.62,9.89,15.61,13.58,23.83c1.91-6.55,2.98-13.22,2.98-20.25
		c0-14.18-4.29-27.28-11.68-38.12c-8.58,3.22-16.8,7.27-24.66,12.15C288.48,227.96,295.03,235.46,300.99,243.8z"/>
	<path class="st0" d="M218.19,221.41c-7.86-4.88-16.2-8.94-24.78-12.27c-7.39,10.96-11.68,24.07-11.68,38.24
		c0,7.03,1.07,13.82,3.1,20.25c3.57-8.22,8.1-16.2,13.58-23.83C204.25,235.46,210.92,227.96,218.19,221.41z"/>
	<path class="st0" d="M231.06,230.22c-2.14-1.67-4.29-3.22-6.55-4.77c-9.53,8.82-18.11,19.06-25.26,30.62
		c-4.17,6.79-7.74,13.82-10.72,20.97c1.43,3.1,3.22,5.96,5.12,8.82C201.87,263.94,214.85,245.23,231.06,230.22z"/>
	<path class="st0" d="M237.37,235.35c-16.32,15.85-29.43,35.5-37.41,58.26c2.26,2.5,4.65,4.77,7.27,6.91
		c0.95-2.74,2.03-5.48,3.1-8.22c7.74-19.78,19.18-37.05,33.24-51.35C241.54,239.04,239.52,237.25,237.37,235.35z"/>
	<path class="st0" d="M249.64,247.14c-9.05,9.77-17.04,20.97-23.47,33.48c-4.41,8.34-7.86,17.04-10.48,25.73
		c10.01,5.6,21.56,8.94,33.96,8.94c12.39,0,23.95-3.34,33.96-8.94c-2.62-8.7-6.08-17.39-10.48-25.73
		C266.68,268.11,258.82,256.91,249.64,247.14z"/>
	<path class="st0" d="M250,100c-82.84,0-150,67.16-150,150s67.16,150,150,150s150-67.16,150-150S332.84,100,250,100z M345.76,345.76
		c-25.58,25.58-59.59,39.66-95.76,39.66s-70.18-14.09-95.76-39.66c-25.58-25.58-39.66-59.59-39.66-95.76s14.09-70.18,39.66-95.76
		s59.59-39.66,95.76-39.66s70.18,14.09,95.76,39.66c25.58,25.58,39.66,59.59,39.66,95.76S371.34,320.18,345.76,345.76z"/>
</g>
</svg>
