<?xml version="1.0" encoding="UTF-8"?>
<svg id="Layer_1" data-name="Layer 1" xmlns="http://www.w3.org/2000/svg" viewBox="0 0 1015.82 98.05">
  <defs>
    <style>
      .cls-1 {
        fill: #231f20;
      }

      .cls-2 {
        fill: red;
      }
    </style>
  </defs>
  <path class="cls-1" d="M61.36,52.44h17.43c1.79,0,2.68,.89,2.68,2.68v30.24c0,1.39-.54,2.46-1.61,3.22-4.2,2.91-8.98,5.15-14.32,6.74-5.34,1.59-10.85,2.38-16.53,2.38-9.08,0-17.36-2.19-24.84-6.57-7.49-4.38-13.39-10.3-17.7-17.77C2.16,65.89,0,57.69,0,48.75S2.16,31.61,6.47,24.14c4.31-7.47,10.2-13.35,17.67-17.67C31.61,2.16,39.9,0,49.02,0c5.54,0,10.85,.85,15.93,2.55,5.07,1.7,9.67,4.09,13.78,7.17,.76,.58,1.14,1.25,1.14,2.01,0,.58-.22,1.16-.67,1.74l-10.86,14.22c-.63,.76-1.3,1.14-2.01,1.14-.58,0-1.16-.2-1.74-.6-2.28-1.56-4.76-2.8-7.44-3.72-2.68-.92-5.39-1.38-8.11-1.38-4.34,0-8.38,1.13-12.14,3.39-3.75,2.26-6.76,5.35-9.02,9.29-2.26,3.93-3.39,8.27-3.39,13.01s1.13,9.2,3.39,13.24c2.26,4.05,5.27,7.25,9.05,9.62s7.81,3.55,12.1,3.55c3.58,0,6.79-.47,9.66-1.41v-18.71c0-1.79,.89-2.68,2.68-2.68h0Z"/>
  <path class="cls-1" d="M163.75,96.02H99.65c-1.79,0-2.68-.89-2.68-2.68V4.49c0-1.79,.89-2.68,2.68-2.68h63.1c1.79,0,2.68,.89,2.68,2.68V20.92c0,1.79-.89,2.68-2.68,2.68h-41.64v14.69h31.99c1.79,0,2.68,.9,2.68,2.68v15.09c0,1.79-.9,2.68-2.68,2.68h-31.99v15.49h42.65c1.79,0,2.68,.9,2.68,2.68v16.43c0,1.79-.89,2.68-2.68,2.68h-.01Z"/>
  <path class="cls-1" d="M220.21,96.02h-18.78c-1.79,0-2.68-.89-2.68-2.68V24.27h-22.6c-1.79,0-2.68-.89-2.68-2.68V4.49c0-1.79,.89-2.68,2.68-2.68h69.4c1.79,0,2.68,.89,2.68,2.68V21.59c0,1.79-.9,2.68-2.68,2.68h-22.66V93.34c0,1.79-.9,2.68-2.68,2.68h0Z"/>
  <path class="cls-1" d="M259.98,93.34V4.49c0-1.79,.89-2.68,2.68-2.68h38.02c6.48,0,12.23,1.35,17.23,4.06,5.01,2.71,8.91,6.48,11.7,11.33s4.19,10.41,4.19,16.66-1.23,11.12-3.69,15.39-5.9,7.74-10.33,10.43l16.63,33.19c.27,.54,.4,1.01,.4,1.41,0,.54-.21,.96-.64,1.27s-1,.47-1.71,.47h-21.46c-1.48,0-2.53-.67-3.15-2.01l-13.14-28.1c-.67,.05-1.63,.07-2.88,.07h-9.72v27.36c0,1.79-.9,2.68-2.68,2.68h-18.77c-1.79,0-2.68-.89-2.68-2.68h0Zm44.06-49.42c1.65-1.07,2.95-2.5,3.89-4.29s1.41-3.69,1.41-5.7c0-3.53-1.03-6.25-3.08-8.15-2.06-1.9-4.58-2.85-7.58-2.85h-14.55v22.6h14.35c2.06,0,3.91-.54,5.57-1.61h-.01Z"/>
  <path class="cls-1" d="M366.83,93.04c-6.1-3.33-10.75-7.95-13.95-13.85s-4.79-12.61-4.79-20.12V4.49c0-1.79,.89-2.68,2.68-2.68h18.78c1.79,0,2.68,.89,2.68,2.68V55.66c0,4.02,.66,7.53,1.98,10.53,1.32,3,3.22,5.31,5.7,6.94,2.48,1.63,5.38,2.45,8.68,2.45s6.28-.81,8.79-2.45c2.5-1.63,4.43-3.94,5.77-6.94,1.34-2.99,2.01-6.5,2.01-10.53V4.49c0-1.79,.89-2.68,2.68-2.68h18.78c1.79,0,2.68,.89,2.68,2.68V59.08c0,7.51-1.61,14.22-4.83,20.12s-7.89,10.52-14.02,13.85c-6.12,3.33-13.41,5-21.86,5s-15.66-1.67-21.76-5h0Z"/>
  <path class="cls-1" d="M466.98,96.02h-18.1c-1.79,0-2.68-.89-2.68-2.68V4.49c0-1.79,.89-2.68,2.68-2.68h20.72c1.43,0,2.5,.58,3.22,1.74l32.12,51.5V4.49c0-1.79,.89-2.68,2.68-2.68h18.1c1.79,0,2.68,.89,2.68,2.68V93.34c0,1.79-.89,2.68-2.68,2.68h-18.44c-1.39,0-2.46-.58-3.22-1.74l-34.4-54.45v53.51c0,1.79-.89,2.68-2.68,2.68h0Z"/>
  <g>
    <path d="M564.84,33.89h-19.73c-1.77,0-2.66-.89-2.66-2.66V13.63c0-1.77,.89-2.66,2.66-2.66h19.73c1.77,0,2.66,.89,2.66,2.66V31.23c0,1.77-.89,2.66-2.66,2.66Zm0,62.05h-19.73c-1.77,0-2.66-.89-2.66-2.66v-17.61c0-1.77,.89-2.66,2.66-2.66h19.73c1.77,0,2.66,.89,2.66,2.66v17.61c0,1.77-.89,2.66-2.66,2.66Z"/>
    <path class="cls-2" d="M664.89,93.75c0,.62-.2,1.1-.6,1.43-.4,.33-.95,.5-1.66,.5h-19.13c-1.51,0-2.5-.73-2.99-2.19l-4.25-12.42h-33.49l-4.25,12.42c-.44,1.46-1.44,2.19-2.99,2.19h-19.07c-.71,0-1.27-.17-1.69-.5-.42-.33-.63-.81-.63-1.43,0-.35,.07-.73,.2-1.13L608.36,4.33c.53-1.42,1.55-2.13,3.06-2.13h16.41c1.5,0,2.52,.71,3.06,2.13l33.82,88.3c.13,.4,.2,.77,.2,1.13Zm-35.34-32.62l-8.9-26.18-1.2-4.25-1,4.25-8.9,26.18h20Z"/>
    <path class="cls-2" d="M675.92,93.02V4.99c0-1.77,.89-2.66,2.66-2.66h32.49c9.04,0,17.31,2.04,24.81,6.11,7.51,4.08,13.44,9.67,17.81,16.77,4.36,7.11,6.54,15.03,6.54,23.75s-2.17,16.65-6.51,23.78c-4.34,7.13-10.25,12.73-17.74,16.81-7.49,4.08-15.72,6.11-24.72,6.11h-32.69c-1.77,0-2.66-.89-2.66-2.66Zm48.43-23.25c3.63-1.99,6.48-4.79,8.54-8.4s3.09-7.74,3.09-12.39-1.03-8.65-3.09-12.26-4.92-6.42-8.57-8.44c-3.65-2.01-7.76-3.02-12.32-3.02h-12.16v47.5h12.22c4.56,0,8.66-1,12.29-2.99Z"/>
    <path class="cls-2" d="M788.27,95.68h-18.8c-.89,0-1.55-.24-1.99-.73-.44-.49-.62-1.17-.53-2.06l11.36-88.1c.09-.8,.39-1.4,.9-1.83,.51-.42,1.16-.63,1.96-.63h21.99c1.55,0,2.52,.75,2.92,2.26l16.08,58,16.01-58c.4-1.5,1.37-2.26,2.92-2.26h22.06c.8,0,1.45,.21,1.96,.63,.51,.42,.81,1.03,.9,1.83l11.43,88.16c.09,.89-.09,1.57-.53,2.06-.44,.49-1.11,.73-1.99,.73h-18.87c-1.64,0-2.57-.84-2.79-2.52l-5.58-52.49-14.35,52.69c-.4,1.51-1.37,2.26-2.92,2.26h-16.21c-1.55,0-2.52-.75-2.92-2.26l-14.35-52.69-5.85,52.42c-.22,1.68-1.15,2.52-2.79,2.52Z"/>
    <path class="cls-2" d="M913.11,95.68h-18.6c-1.77,0-2.66-.89-2.66-2.66V4.99c0-1.77,.89-2.66,2.66-2.66h18.6c1.77,0,2.66,.89,2.66,2.66V93.02c0,1.77-.89,2.66-2.66,2.66Z"/>
    <path class="cls-2" d="M954.96,95.68h-17.94c-1.77,0-2.66-.89-2.66-2.66V4.99c0-1.77,.89-2.66,2.66-2.66h20.53c1.42,0,2.48,.58,3.19,1.73l31.82,51.02V4.99c0-1.77,.89-2.66,2.66-2.66h17.94c1.77,0,2.66,.89,2.66,2.66V93.02c0,1.77-.89,2.66-2.66,2.66h-18.27c-1.37,0-2.44-.57-3.19-1.73l-34.08-53.95v53.02c0,1.77-.89,2.66-2.66,2.66Z"/>
  </g>
</svg>