<?xml version="1.0" encoding="UTF-8"?>
<svg id="Layer_1" data-name="Layer 1" xmlns="http://www.w3.org/2000/svg" viewBox="0 0 528.4 124.66">
  <defs>
    <style>
      .cls-1 {
        fill: #ed1c24;
      }

      .cls-2 {
        fill: #231f20;
      }
    </style>
  </defs>
  <path class="cls-2" d="M61.36,52.44h17.43c1.79,0,2.68,.89,2.68,2.68v30.24c0,1.39-.54,2.46-1.61,3.22-4.2,2.91-8.98,5.15-14.32,6.74-5.34,1.59-10.85,2.38-16.53,2.38-9.08,0-17.36-2.19-24.84-6.57-7.49-4.38-13.39-10.3-17.7-17.77C2.16,65.89,0,57.69,0,48.75S2.16,31.61,6.47,24.14c4.31-7.47,10.2-13.35,17.67-17.67C31.61,2.16,39.9,0,49.02,0c5.54,0,10.85,.85,15.93,2.55,5.07,1.7,9.67,4.09,13.78,7.17,.76,.58,1.14,1.25,1.14,2.01,0,.58-.22,1.16-.67,1.74l-10.86,14.22c-.63,.76-1.3,1.14-2.01,1.14-.58,0-1.16-.2-1.74-.6-2.28-1.56-4.76-2.8-7.44-3.72-2.68-.92-5.39-1.38-8.11-1.38-4.34,0-8.38,1.13-12.14,3.39-3.75,2.26-6.76,5.35-9.02,9.29-2.26,3.93-3.39,8.27-3.39,13.01s1.13,9.2,3.39,13.24c2.26,4.05,5.27,7.25,9.05,9.62s7.81,3.55,12.1,3.55c3.58,0,6.79-.47,9.66-1.41v-18.71c0-1.79,.89-2.68,2.68-2.68h0Z"/>
  <path class="cls-2" d="M163.75,96.02H99.65c-1.79,0-2.68-.89-2.68-2.68V4.49c0-1.79,.89-2.68,2.68-2.68h63.1c1.79,0,2.68,.89,2.68,2.68V20.92c0,1.79-.89,2.68-2.68,2.68h-41.64v14.69h31.99c1.79,0,2.68,.9,2.68,2.68v15.09c0,1.79-.9,2.68-2.68,2.68h-31.99v15.49h42.65c1.79,0,2.68,.9,2.68,2.68v16.43c0,1.79-.89,2.68-2.68,2.68h-.01Z"/>
  <path class="cls-2" d="M220.21,96.02h-18.78c-1.79,0-2.68-.89-2.68-2.68V24.27h-22.6c-1.79,0-2.68-.89-2.68-2.68V4.49c0-1.79,.89-2.68,2.68-2.68h69.4c1.79,0,2.68,.89,2.68,2.68V21.59c0,1.79-.9,2.68-2.68,2.68h-22.66V93.34c0,1.79-.9,2.68-2.68,2.68h0Z"/>
  <path class="cls-1" d="M259.98,93.34V4.49c0-1.79,.89-2.68,2.68-2.68h38.02c6.48,0,12.23,1.35,17.23,4.06,5.01,2.71,8.91,6.48,11.7,11.33s4.19,10.41,4.19,16.66-1.23,11.12-3.69,15.39-5.9,7.74-10.33,10.43l16.63,33.19c.27,.54,.4,1.01,.4,1.41,0,.54-.21,.96-.64,1.27s-1,.47-1.71,.47h-21.46c-1.48,0-2.53-.67-3.15-2.01l-13.14-28.1c-.67,.05-1.63,.07-2.88,.07h-9.72v27.36c0,1.79-.9,2.68-2.68,2.68h-18.77c-1.79,0-2.68-.89-2.68-2.68h0Zm44.06-49.42c1.65-1.07,2.95-2.5,3.89-4.29s1.41-3.69,1.41-5.7c0-3.53-1.03-6.25-3.08-8.15-2.06-1.9-4.58-2.85-7.58-2.85h-14.55v22.6h14.35c2.06,0,3.91-.54,5.57-1.61h-.01Z"/>
  <path class="cls-1" d="M366.83,93.04c-6.1-3.33-10.75-7.95-13.95-13.85s-4.79-12.61-4.79-20.12V4.49c0-1.79,.89-2.68,2.68-2.68h18.78c1.79,0,2.68,.89,2.68,2.68V55.66c0,4.02,.66,7.53,1.98,10.53,1.32,3,3.22,5.31,5.7,6.94,2.48,1.63,5.38,2.45,8.68,2.45s6.28-.81,8.79-2.45c2.5-1.63,4.43-3.94,5.77-6.94,1.34-2.99,2.01-6.5,2.01-10.53V4.49c0-1.79,.89-2.68,2.68-2.68h18.78c1.79,0,2.68,.89,2.68,2.68V59.08c0,7.51-1.61,14.22-4.83,20.12s-7.89,10.52-14.02,13.85c-6.12,3.33-13.41,5-21.86,5s-15.66-1.67-21.76-5h0Z"/>
  <path class="cls-1" d="M466.98,96.02h-18.1c-1.79,0-2.68-.89-2.68-2.68V4.49c0-1.79,.89-2.68,2.68-2.68h20.72c1.43,0,2.5,.58,3.22,1.74l32.12,51.5V4.49c0-1.79,.89-2.68,2.68-2.68h18.1c1.79,0,2.68,.89,2.68,2.68V93.34c0,1.79-.89,2.68-2.68,2.68h-18.44c-1.39,0-2.46-.58-3.22-1.74l-34.4-54.45v53.51c0,1.79-.89,2.68-2.68,2.68h0Z"/>
  <g>
    <path class="cls-2" d="M264.38,124.31h-3.33c-.36,0-.55-.18-.55-.55v-18.1c0-.36,.18-.55,.55-.55h7.19c1.37,0,2.57,.27,3.6,.82,1.03,.55,1.83,1.3,2.39,2.27,.56,.97,.84,2.07,.84,3.3,0,1.31-.27,2.47-.81,3.47-.54,1-1.32,1.78-2.34,2.33-1.02,.55-2.22,.83-3.63,.83h-3.36v5.63c0,.37-.18,.55-.55,.55Zm4.94-10.52c.41-.22,.74-.52,.97-.92,.23-.39,.35-.83,.35-1.32s-.12-.9-.35-1.26c-.23-.37-.55-.66-.96-.86-.41-.21-.87-.31-1.38-.31h-3.02v5h3c.51,0,.97-.11,1.39-.33Z"/>
    <path class="cls-2" d="M281.7,123.32c-1.52-.89-2.72-2.09-3.6-3.62s-1.32-3.2-1.32-5.02,.44-3.49,1.31-5.01c.87-1.52,2.07-2.71,3.59-3.59,1.52-.88,3.21-1.32,5.05-1.32s3.52,.44,5.04,1.32c1.52,.88,2.72,2.08,3.6,3.59,.88,1.52,1.32,3.19,1.32,5.01s-.44,3.49-1.32,5.02-2.08,2.73-3.6,3.62c-1.52,.89-3.2,1.33-5.04,1.33s-3.52-.44-5.04-1.33Zm7.76-3.67c.84-.5,1.5-1.19,2-2.06,.5-.87,.74-1.84,.74-2.9s-.25-2.01-.75-2.88c-.5-.87-1.17-1.55-2.01-2.06-.84-.5-1.74-.75-2.71-.75s-1.88,.25-2.72,.75-1.5,1.19-2,2.06c-.5,.87-.74,1.83-.74,2.88s.25,2.02,.75,2.89c.5,.87,1.17,1.56,2.01,2.06,.84,.51,1.74,.76,2.71,.76s1.88-.25,2.72-.75Z"/>
    <path class="cls-2" d="M307.49,124.31h-2.87c-.31,0-.52-.15-.63-.44l-6.99-18.13c-.03-.08-.04-.16-.04-.23,0-.13,.04-.23,.12-.29,.08-.07,.2-.1,.34-.1h3.63c.3,0,.5,.15,.61,.44l4.45,12.53,4.11-12.51c.09-.3,.3-.45,.61-.45h3.57c.15,0,.28,.04,.36,.11,.09,.07,.13,.17,.13,.3,0,.06-.01,.14-.04,.22l-2.19,6.38,2.06,5.94,4.36-12.5c.11-.3,.32-.45,.63-.45h3.61c.15,0,.27,.03,.35,.1s.12,.17,.12,.29c0,.07-.01,.15-.04,.23l-7.03,18.13c-.11,.29-.32,.44-.63,.44h-2.81c-.31,0-.52-.15-.63-.44l-2.25-6-2.29,6c-.11,.29-.32,.44-.63,.44Z"/>
    <path class="cls-2" d="M339.74,124.31h-12.95c-.36,0-.55-.18-.55-.55v-18.1c0-.36,.18-.55,.55-.55h12.76c.36,0,.55,.18,.55,.55v2.94c0,.36-.18,.55-.55,.55h-8.88v3.46h6.83c.36,0,.55,.18,.55,.55v2.71c0,.36-.18,.55-.55,.55h-6.83v3.88h9.07c.36,0,.55,.18,.55,.55v2.94c0,.37-.18,.55-.55,.55Z"/>
    <path class="cls-2" d="M343.39,123.77v-18.1c0-.36,.18-.55,.55-.55h7.59c1.31,0,2.47,.27,3.48,.82,1.01,.55,1.8,1.31,2.36,2.28,.57,.97,.85,2.09,.85,3.36s-.26,2.3-.79,3.18c-.52,.88-1.25,1.59-2.19,2.13l3.36,6.78c.05,.11,.08,.2,.08,.29,0,.11-.04,.2-.13,.26-.09,.06-.2,.1-.35,.1h-3.83c-.3,0-.51-.14-.64-.41l-2.73-5.86c-.16,0-.41,.01-.72,.01h-2.47v5.71c0,.37-.18,.55-.55,.55h-3.33c-.36,0-.55-.18-.55-.55Zm9.08-9.88c.4-.24,.71-.56,.93-.96,.22-.4,.33-.85,.33-1.33,0-.54-.11-1-.34-1.39s-.54-.68-.92-.87c-.39-.2-.82-.29-1.3-.29h-3.35v5.2h3.31c.5,0,.95-.12,1.35-.36Z"/>
    <path class="cls-2" d="M375.06,124.31h-12.95c-.36,0-.55-.18-.55-.55v-18.1c0-.36,.18-.55,.55-.55h12.76c.36,0,.55,.18,.55,.55v2.94c0,.36-.18,.55-.55,.55h-8.88v3.46h6.83c.36,0,.55,.18,.55,.55v2.71c0,.36-.18,.55-.55,.55h-6.83v3.88h9.07c.36,0,.55,.18,.55,.55v2.94c0,.37-.18,.55-.55,.55Z"/>
    <path class="cls-2" d="M378.71,123.77v-18.1c0-.36,.18-.55,.55-.55h6.56c1.85,0,3.54,.42,5.08,1.26s2.76,1.99,3.65,3.46c.9,1.47,1.35,3.09,1.35,4.88s-.45,3.41-1.34,4.88c-.89,1.47-2.11,2.62-3.64,3.46-1.53,.84-3.22,1.26-5.06,1.26h-6.6c-.36,0-.55-.18-.55-.55Zm10.05-4.38c.82-.46,1.46-1.09,1.93-1.9s.7-1.73,.7-2.77-.24-1.94-.7-2.75c-.47-.81-1.12-1.45-1.94-1.91s-1.75-.68-2.78-.68h-2.84v10.7h2.87c1.02,0,1.94-.23,2.76-.68Z"/>
    <path class="cls-2" d="M405.92,123.77v-18.1c0-.36,.18-.55,.55-.55h7.28c1.25,0,2.34,.21,3.29,.64s1.68,1.04,2.19,1.82c.51,.79,.77,1.7,.77,2.74,0,.53-.1,1.05-.29,1.56-.2,.51-.46,.96-.81,1.34-.34,.38-.72,.66-1.13,.83,.6,.19,1.14,.52,1.61,.98,.47,.46,.84,1.02,1.11,1.67s.4,1.32,.4,2.02c0,1.12-.27,2.1-.8,2.94-.53,.84-1.28,1.49-2.24,1.95s-2.07,.69-3.33,.69h-8.07c-.36,0-.55-.18-.55-.55Zm8.58-11.3c.33-.17,.59-.41,.78-.71,.19-.3,.28-.63,.28-.98,0-.55-.19-.99-.57-1.33-.38-.34-.89-.51-1.52-.51h-3.14v3.8h3.03c.43,0,.81-.09,1.14-.26Zm1.3,7.49c.42-.43,.63-1,.63-1.7,0-.4-.1-.77-.31-1.12-.21-.35-.49-.62-.87-.83-.37-.21-.81-.31-1.3-.31h-3.63v4.62h3.83c.68,0,1.23-.22,1.65-.65Z"/>
    <path class="cls-2" d="M431.48,124.31h-3.35c-.36,0-.55-.18-.55-.55v-6.92l-6.3-11.06c-.05-.11-.08-.21-.08-.3,0-.11,.04-.2,.12-.26,.08-.06,.2-.1,.34-.1h3.93c.3,0,.51,.14,.64,.41l3.59,7.17,3.5-7.17c.14-.27,.35-.41,.64-.41h3.95c.15,0,.26,.03,.34,.1,.08,.06,.12,.15,.12,.26,0,.09-.03,.19-.08,.3l-6.28,11.04v6.95c0,.37-.18,.55-.55,.55Z"/>
    <path class="cls-2" d="M447.47,123.77v-18.1c0-.36,.18-.55,.55-.55h7.59c1.31,0,2.47,.27,3.48,.82,1.01,.55,1.8,1.31,2.36,2.28,.57,.97,.85,2.09,.85,3.36s-.26,2.3-.79,3.18c-.52,.88-1.25,1.59-2.19,2.13l3.36,6.78c.05,.11,.08,.2,.08,.29,0,.11-.04,.2-.13,.26-.09,.06-.2,.1-.35,.1h-3.83c-.3,0-.51-.14-.64-.41l-2.73-5.86c-.16,0-.41,.01-.72,.01h-2.47v5.71c0,.37-.18,.55-.55,.55h-3.33c-.36,0-.55-.18-.55-.55Zm9.08-9.88c.4-.24,.71-.56,.93-.96,.22-.4,.33-.85,.33-1.33,0-.54-.11-1-.34-1.39s-.54-.68-.92-.87c-.39-.2-.82-.29-1.3-.29h-3.35v5.2h3.31c.5,0,.95-.12,1.35-.36Z"/>
    <path class="cls-2" d="M469.21,123.32c-1.52-.89-2.72-2.09-3.6-3.62s-1.32-3.2-1.32-5.02,.44-3.49,1.31-5.01c.87-1.52,2.07-2.71,3.59-3.59,1.52-.88,3.21-1.32,5.05-1.32s3.52,.44,5.04,1.32c1.52,.88,2.72,2.08,3.6,3.59,.88,1.52,1.32,3.19,1.32,5.01s-.44,3.49-1.32,5.02-2.08,2.73-3.6,3.62c-1.52,.89-3.2,1.33-5.04,1.33s-3.52-.44-5.04-1.33Zm7.76-3.67c.84-.5,1.5-1.19,2-2.06,.5-.87,.74-1.84,.74-2.9s-.25-2.01-.75-2.88c-.5-.87-1.17-1.55-2.01-2.06-.84-.5-1.74-.75-2.71-.75s-1.88,.25-2.72,.75-1.5,1.19-2,2.06c-.5,.87-.74,1.83-.74,2.88s.25,2.02,.75,2.89c.5,.87,1.17,1.56,2.01,2.06,.84,.51,1.74,.76,2.71,.76s1.88-.25,2.72-.75Z"/>
    <path class="cls-2" d="M490.12,124.31h-3.31c-.37,0-.55-.18-.55-.55v-2.98c0-.36,.18-.55,.55-.55h3.31c.36,0,.55,.18,.55,.55v2.98c0,.37-.18,.55-.55,.55Z"/>
    <path class="cls-2" d="M510.8,123.99c0,.1-.04,.18-.12,.24-.08,.06-.2,.09-.34,.09h-4.07c-.29,0-.51-.12-.66-.36l-5.03-7.49-2.39,2.75v4.55c0,.37-.18,.55-.55,.55h-3.33c-.36,0-.55-.18-.55-.55v-18.1c0-.36,.18-.55,.55-.55h3.33c.36,0,.55,.18,.55,.55v7.53l6.43-7.76c.17-.21,.4-.31,.67-.31h4.12c.15,0,.26,.03,.34,.08s.12,.13,.12,.23c0,.11-.05,.23-.16,.36l-6.27,7.31,7.24,10.56c.07,.11,.11,.22,.11,.33Z"/>
    <path class="cls-2" d="M523.86,115.48h3.12c.36,0,.55,.18,.55,.55v6.11c0,.28-.11,.5-.33,.66-.85,.59-1.82,1.05-2.91,1.38s-2.21,.49-3.36,.49c-1.84,0-3.52-.45-5.04-1.34-1.52-.89-2.72-2.1-3.6-3.63s-1.32-3.19-1.32-5.01,.44-3.49,1.32-5.01c.88-1.52,2.08-2.72,3.59-3.6,1.52-.88,3.2-1.33,5.05-1.33,1.13,0,2.21,.17,3.24,.53s1.97,.84,2.81,1.48c.15,.13,.23,.26,.23,.4,0,.12-.05,.24-.15,.37l-1.93,2.51c-.13,.16-.26,.23-.41,.23-.12,0-.24-.04-.36-.12-.5-.35-1.05-.62-1.64-.83-.59-.21-1.19-.31-1.8-.31-.97,0-1.87,.25-2.71,.76-.84,.51-1.51,1.19-2.01,2.06-.5,.87-.75,1.83-.75,2.88s.25,2.03,.76,2.92c.51,.89,1.18,1.6,2.01,2.12,.84,.52,1.74,.78,2.71,.78,.87,0,1.66-.15,2.39-.44v-4.06c0-.36,.18-.55,.55-.55Z"/>
  </g>
</svg>