<?xml version="1.0" encoding="UTF-8"?>
<svg id="Layer_1" data-name="Layer 1" xmlns="http://www.w3.org/2000/svg" viewBox="0 0 528.4 124.62">
  <defs>
    <style>
      .cls-1 {
        fill: #ed1c24;
      }

      .cls-2 {
        fill: #231f20;
      }
    </style>
  </defs>
  <path class="cls-2" d="M61.36,52.44h17.43c1.79,0,2.68,.89,2.68,2.68v30.24c0,1.39-.54,2.46-1.61,3.22-4.2,2.91-8.98,5.15-14.32,6.74-5.34,1.59-10.85,2.38-16.53,2.38-9.08,0-17.36-2.19-24.84-6.57-7.49-4.38-13.39-10.3-17.7-17.77C2.16,65.89,0,57.69,0,48.75S2.16,31.61,6.47,24.14c4.31-7.47,10.2-13.35,17.67-17.67C31.61,2.16,39.9,0,49.02,0c5.54,0,10.85,.85,15.93,2.55,5.07,1.7,9.67,4.09,13.78,7.17,.76,.58,1.14,1.25,1.14,2.01,0,.58-.22,1.16-.67,1.74l-10.86,14.22c-.63,.76-1.3,1.14-2.01,1.14-.58,0-1.16-.2-1.74-.6-2.28-1.56-4.76-2.8-7.44-3.72-2.68-.92-5.39-1.38-8.11-1.38-4.34,0-8.38,1.13-12.14,3.39-3.75,2.26-6.76,5.35-9.02,9.29-2.26,3.93-3.39,8.27-3.39,13.01s1.13,9.2,3.39,13.24c2.26,4.05,5.27,7.25,9.05,9.62s7.81,3.55,12.1,3.55c3.58,0,6.79-.47,9.66-1.41v-18.71c0-1.79,.89-2.68,2.68-2.68h0Z"/>
  <path class="cls-2" d="M163.75,96.02H99.65c-1.79,0-2.68-.89-2.68-2.68V4.49c0-1.79,.89-2.68,2.68-2.68h63.1c1.79,0,2.68,.89,2.68,2.68V20.92c0,1.79-.89,2.68-2.68,2.68h-41.64v14.69h31.99c1.79,0,2.68,.9,2.68,2.68v15.09c0,1.79-.9,2.68-2.68,2.68h-31.99v15.49h42.65c1.79,0,2.68,.9,2.68,2.68v16.43c0,1.79-.89,2.68-2.68,2.68h-.01Z"/>
  <path class="cls-2" d="M220.21,96.02h-18.78c-1.79,0-2.68-.89-2.68-2.68V24.27h-22.6c-1.79,0-2.68-.89-2.68-2.68V4.49c0-1.79,.89-2.68,2.68-2.68h69.4c1.79,0,2.68,.89,2.68,2.68V21.59c0,1.79-.9,2.68-2.68,2.68h-22.66V93.34c0,1.79-.9,2.68-2.68,2.68h0Z"/>
  <path class="cls-1" d="M259.98,93.34V4.49c0-1.79,.89-2.68,2.68-2.68h38.02c6.48,0,12.23,1.35,17.23,4.06,5.01,2.71,8.91,6.48,11.7,11.33s4.19,10.41,4.19,16.66-1.23,11.12-3.69,15.39-5.9,7.74-10.33,10.43l16.63,33.19c.27,.54,.4,1.01,.4,1.41,0,.54-.21,.96-.64,1.27s-1,.47-1.71,.47h-21.46c-1.48,0-2.53-.67-3.15-2.01l-13.14-28.1c-.67,.05-1.63,.07-2.88,.07h-9.72v27.36c0,1.79-.9,2.68-2.68,2.68h-18.77c-1.79,0-2.68-.89-2.68-2.68h0Zm44.06-49.42c1.65-1.07,2.95-2.5,3.89-4.29s1.41-3.69,1.41-5.7c0-3.53-1.03-6.25-3.08-8.15-2.06-1.9-4.58-2.85-7.58-2.85h-14.55v22.6h14.35c2.06,0,3.91-.54,5.57-1.61h-.01Z"/>
  <path class="cls-1" d="M366.83,93.04c-6.1-3.33-10.75-7.95-13.95-13.85s-4.79-12.61-4.79-20.12V4.49c0-1.79,.89-2.68,2.68-2.68h18.78c1.79,0,2.68,.89,2.68,2.68V55.66c0,4.02,.66,7.53,1.98,10.53,1.32,3,3.22,5.31,5.7,6.94,2.48,1.63,5.38,2.45,8.68,2.45s6.28-.81,8.79-2.45c2.5-1.63,4.43-3.94,5.77-6.94,1.34-2.99,2.01-6.5,2.01-10.53V4.49c0-1.79,.89-2.68,2.68-2.68h18.78c1.79,0,2.68,.89,2.68,2.68V59.08c0,7.51-1.61,14.22-4.83,20.12s-7.89,10.52-14.02,13.85c-6.12,3.33-13.41,5-21.86,5s-15.66-1.67-21.76-5h0Z"/>
  <path class="cls-1" d="M466.98,96.02h-18.1c-1.79,0-2.68-.89-2.68-2.68V4.49c0-1.79,.89-2.68,2.68-2.68h20.72c1.43,0,2.5,.58,3.22,1.74l32.12,51.5V4.49c0-1.79,.89-2.68,2.68-2.68h18.1c1.79,0,2.68,.89,2.68,2.68V93.34c0,1.79-.89,2.68-2.68,2.68h-18.44c-1.39,0-2.46-.58-3.22-1.74l-34.4-54.45v53.51c0,1.79-.89,2.68-2.68,2.68h0Z"/>
  <g>
    <path class="cls-2" d="M266.56,103.35h-6.58v20.88h3.7v-7.68h3c4.5,0,7.94-2.11,7.94-6.77s-3.44-6.44-8.07-6.44Zm-.18,10.24h-2.69v-7.28h2.57c3.1,0,4.73,.88,4.73,3.47s-1.48,3.81-4.6,3.81Z"/>
    <path class="cls-2" d="M286.68,102.97c-5.44,0-9.21,3.98-9.21,10.74s3.77,10.91,9.21,10.91,9.21-4.15,9.21-10.91-3.77-10.74-9.21-10.74Zm0,18.43c-3.28,0-5.4-3-5.4-7.69s2.12-7.52,5.4-7.52,5.4,2.84,5.4,7.52-2.12,7.69-5.4,7.69Z"/>
    <path class="cls-2" d="M316.89,113.9c-.34,2.18-.67,4.43-1.01,6.67h-.13c-.46-2.24-.92-4.5-1.38-6.67l-2.57-10.55h-3.22l-2.57,10.55c-.46,2.2-.92,4.45-1.35,6.67h-.13c-.34-2.22-.7-4.44-1.03-6.67l-1.81-10.55h-3.81l4.15,20.88h4.51l2.53-11c.34-1.62,.66-3.22,.95-4.8h.13c.27,1.58,.58,3.18,.92,4.8l2.59,11h4.59l4.01-20.88h-3.55l-1.81,10.55Z"/>
    <polygon class="cls-2" points="329.21 114.94 336.72 114.94 336.72 111.82 329.21 111.82 329.21 106.47 338.08 106.47 338.08 103.35 325.51 103.35 325.51 124.24 338.4 124.24 338.4 121.12 329.21 121.12 329.21 114.94"/>
    <path class="cls-2" d="M357.42,109.55c0-4.66-3.35-6.19-7.69-6.19h-7.04v20.88h3.7v-8.16h3.18l4.49,8.16h4.16l-5-8.71c2.51-.87,4.18-2.81,4.18-5.98Zm-11.02-3.23h2.95c2.86,0,4.42,.83,4.42,3.23s-1.56,3.56-4.42,3.56h-2.95v-6.8Z"/>
    <polygon class="cls-2" points="365.3 114.94 372.81 114.94 372.81 111.82 365.3 111.82 365.3 106.47 374.16 106.47 374.16 103.35 361.59 103.35 361.59 124.24 374.48 124.24 374.48 121.12 365.3 121.12 365.3 114.94"/>
    <path class="cls-2" d="M384.35,103.35h-5.57v20.88h5.76c6.21,0,9.99-3.61,9.99-10.53s-3.78-10.36-10.18-10.36Zm-.24,17.88h-1.62v-14.88h1.62c4.2,0,6.62,2.22,6.62,7.36s-2.41,7.52-6.62,7.52Z"/>
    <path class="cls-2" d="M416.35,113.15v-.13c1.83-.64,2.9-2.55,2.9-4.52,0-3.83-3.16-5.15-7.45-5.15h-6.68v20.88h7.22c4.6,0,8.02-1.95,8.02-6.13,0-2.82-1.7-4.43-4.01-4.96Zm-7.52-6.91h2.72c2.71,0,4.07,.77,4.07,2.78,0,1.81-1.24,2.95-4.15,2.95h-2.64v-5.73Zm3.13,15.11h-3.13v-6.6h3.13c3.12,0,4.78,.96,4.78,3.16,0,2.35-1.71,3.45-4.78,3.45Z"/>
    <path class="cls-2" d="M431.02,108.69c-.61,1.55-1.26,3-1.92,4.59h-.13c-.66-1.59-1.25-3.04-1.86-4.59l-2.27-5.34h-3.96l6.28,13.12v7.77h3.7v-7.77l6.28-13.12h-3.86l-2.27,5.34Z"/>
    <path class="cls-2" d="M460.21,109.55c0-4.66-3.35-6.19-7.69-6.19h-7.04v20.88h3.7v-8.16h3.18l4.49,8.16h4.16l-5-8.71c2.51-.87,4.18-2.81,4.18-5.98Zm-11.02-3.23h2.95c2.86,0,4.42,.83,4.42,3.23s-1.56,3.56-4.42,3.56h-2.95v-6.8Z"/>
    <path class="cls-2" d="M472.5,102.97c-5.44,0-9.21,3.98-9.21,10.74s3.77,10.91,9.21,10.91,9.21-4.15,9.21-10.91-3.77-10.74-9.21-10.74Zm0,18.43c-3.28,0-5.4-3-5.4-7.69s2.12-7.52,5.4-7.52,5.4,2.84,5.4,7.52-2.12,7.69-5.4,7.69Z"/>
    <path class="cls-2" d="M487.65,119.64c-1.34,0-2.38,1.06-2.38,2.5s1.03,2.48,2.38,2.48,2.38-1.06,2.38-2.48-1.03-2.5-2.38-2.5Z"/>
    <polygon class="cls-2" points="510.05 103.35 505.94 103.35 498.5 112.84 498.4 112.84 498.4 103.35 494.7 103.35 494.7 124.24 498.4 124.24 498.4 118.14 501.4 114.41 507.05 124.24 511.14 124.24 503.63 111.5 510.05 103.35"/>
    <path class="cls-2" d="M521.15,112.93v3.04h3.93v4.51c-.66,.59-1.81,.92-2.98,.92-4.19,0-6.4-2.89-6.4-7.65s2.49-7.56,6.19-7.56c1.94,0,3.17,.79,4.22,1.81l1.98-2.39c-1.32-1.34-3.35-2.64-6.31-2.64-5.56,0-9.89,4.06-9.89,10.89s4.2,10.75,9.83,10.75c2.86,0,5.28-1.07,6.67-2.48v-9.21h-7.25Z"/>
  </g>
</svg>