<?xml version="1.0" encoding="UTF-8"?>
<svg id="Layer_1" data-name="Layer 1" xmlns="http://www.w3.org/2000/svg" viewBox="0 0 528.4 98.04">
  <defs>
    <style>
      .cls-1 {
        fill: #ed1c24;
      }

      .cls-2 {
        fill: #231f20;
      }
    </style>
  </defs>
  <path class="cls-2" d="M61.36,52.44h17.43c1.79,0,2.68,.89,2.68,2.68v30.24c0,1.39-.54,2.46-1.61,3.22-4.2,2.91-8.98,5.15-14.32,6.74-5.34,1.59-10.85,2.38-16.53,2.38-9.08,0-17.36-2.19-24.84-6.57-7.49-4.38-13.39-10.3-17.7-17.77C2.16,65.89,0,57.69,0,48.75S2.16,31.61,6.47,24.14c4.31-7.47,10.2-13.35,17.67-17.67C31.61,2.16,39.9,0,49.02,0c5.54,0,10.85,.85,15.93,2.55,5.07,1.7,9.67,4.09,13.78,7.17,.76,.58,1.14,1.25,1.14,2.01,0,.58-.22,1.16-.67,1.74l-10.86,14.22c-.63,.76-1.3,1.14-2.01,1.14-.58,0-1.16-.2-1.74-.6-2.28-1.56-4.76-2.8-7.44-3.72-2.68-.92-5.39-1.38-8.11-1.38-4.34,0-8.38,1.13-12.14,3.39-3.75,2.26-6.76,5.35-9.02,9.29-2.26,3.93-3.39,8.27-3.39,13.01s1.13,9.2,3.39,13.24c2.26,4.05,5.27,7.25,9.05,9.62,3.78,2.37,7.81,3.55,12.1,3.55,3.58,0,6.79-.47,9.66-1.41v-18.71c0-1.79,.89-2.68,2.68-2.68Z"/>
  <path class="cls-2" d="M163.75,96.02H99.65c-1.79,0-2.68-.89-2.68-2.68V4.49c0-1.79,.89-2.68,2.68-2.68h63.1c1.79,0,2.68,.89,2.68,2.68V20.92c0,1.79-.89,2.68-2.68,2.68h-41.64v14.69h31.99c1.79,0,2.68,.9,2.68,2.68v15.09c0,1.79-.9,2.68-2.68,2.68h-31.99v15.49h42.65c1.79,0,2.68,.9,2.68,2.68v16.43c0,1.79-.89,2.68-2.68,2.68Z"/>
  <path class="cls-2" d="M220.21,96.02h-18.78c-1.79,0-2.68-.89-2.68-2.68V24.27h-22.6c-1.79,0-2.68-.89-2.68-2.68V4.49c0-1.79,.89-2.68,2.68-2.68h69.4c1.79,0,2.68,.89,2.68,2.68V21.59c0,1.79-.9,2.68-2.68,2.68h-22.66V93.34c0,1.79-.9,2.68-2.68,2.68Z"/>
  <path class="cls-1" d="M259.98,93.34V4.49c0-1.79,.89-2.68,2.68-2.68h38.02c6.48,0,12.23,1.35,17.23,4.06,5.01,2.71,8.91,6.48,11.7,11.33,2.79,4.85,4.19,10.41,4.19,16.66s-1.23,11.12-3.69,15.39c-2.46,4.27-5.9,7.74-10.33,10.43l16.63,33.19c.27,.54,.4,1.01,.4,1.41,0,.54-.21,.96-.64,1.27s-1,.47-1.71,.47h-21.46c-1.48,0-2.53-.67-3.15-2.01l-13.14-28.1c-.67,.05-1.63,.07-2.88,.07h-9.72v27.36c0,1.79-.9,2.68-2.68,2.68h-18.77c-1.79,0-2.68-.89-2.68-2.68Zm44.06-49.42c1.65-1.07,2.95-2.5,3.89-4.29,.94-1.79,1.41-3.69,1.41-5.7,0-3.53-1.03-6.25-3.08-8.15-2.06-1.9-4.58-2.85-7.58-2.85h-14.55v22.6h14.35c2.06,0,3.91-.54,5.57-1.61Z"/>
  <path class="cls-1" d="M366.83,93.04c-6.1-3.33-10.75-7.95-13.95-13.85-3.2-5.9-4.79-12.61-4.79-20.12V4.49c0-1.79,.89-2.68,2.68-2.68h18.78c1.79,0,2.68,.89,2.68,2.68V55.66c0,4.02,.66,7.53,1.98,10.53,1.32,3,3.22,5.31,5.7,6.94,2.48,1.63,5.38,2.45,8.68,2.45s6.28-.81,8.79-2.45c2.5-1.63,4.43-3.94,5.77-6.94,1.34-2.99,2.01-6.5,2.01-10.53V4.49c0-1.79,.89-2.68,2.68-2.68h18.78c1.79,0,2.68,.89,2.68,2.68V59.08c0,7.51-1.61,14.22-4.83,20.12-3.22,5.9-7.89,10.52-14.02,13.85-6.12,3.33-13.41,5-21.86,5s-15.66-1.67-21.76-5Z"/>
  <path class="cls-1" d="M466.98,96.02h-18.1c-1.79,0-2.68-.89-2.68-2.68V4.49c0-1.79,.89-2.68,2.68-2.68h20.72c1.43,0,2.5,.58,3.22,1.74l32.12,51.5V4.49c0-1.79,.89-2.68,2.68-2.68h18.1c1.79,0,2.68,.89,2.68,2.68V93.34c0,1.79-.89,2.68-2.68,2.68h-18.44c-1.39,0-2.46-.58-3.22-1.74l-34.4-54.45v53.51c0,1.79-.89,2.68-2.68,2.68Z"/>
</svg>